<svg xmlns="http://www.w3.org/2000/svg" width="1024" height="1024" viewBox="0 0 1024 1024"><path fill="#121212" d="m404 205 24-28c64-70 159-126 256-130l-14 10q-20 16-32 39c-14 27-23 64-19 96l3 2 8 3c5 2 17 11 17 17v1l17 42c5 2 7 17 11 18l9 21 50 40 26 21 15 13q6 6 7 14c4 26-36 44-56 52l1 11 11 2-1 14c-17 19-15 37-20 61 21 6 8 15-5 20-6 21-24 56-40 72q3 10 7 20l5-1 2 2-6 2h-1l-10 26q-3 5 4 3l-1 3q-25-1-28-27l-16 12-18 11-7 24q-2 2-2 5v1l-1 3q0-3 1-8l-3 11-11 38c-1 4-3 16-5 19h-5l6 1c-5 2-31-5-32-5v1q-7 28-10 58l-1 15c4 4 4 4 9 5q9 1 18-3c0-14-5-26 8-35l1-1 1-6 5-28h2l-6 33 9-2c4-13 12-11 23-13 29-6 18 25 24 34 9 1 6 5 10 8q7-1 9 5c1 6 4 1 7 5q2 4 4 5c14 2 4 8 15 10q4 2 4 6c7 2 10-2 11 9 15 5 35 12 48 20 16 10 12 33 1 46 8 1 48 3 49 10-7 15-224 15-255 15a5561 5561 0 0 1-309-6c-5-1-36-3-39-8 2-8 40-10 48-11l-8-12c-11-32 19-40 42-49l15-5c2-12 5-6 12-10l1-4q4-2 7-3 1-2 3-5 3-3 7-2l3-3q0-5 7-5 1-9 10-7l1-2c3-6 4-5 8-7 3-2 3-13 3-15 1-23 17-21 34-17q8 2 12 11l13 4q2-21 7-41c6-8 7-26 11-35l3-11-3 12-8 31 1 1c5 1 25 6 29 5l1-1 1-7 15-63 4-16h2l20 4c49 9 104-3 144-32 42-31 72-82 80-134l-1 3q-15 18-38 23c-11 4-29 1-40-5-19-10-26-28-32-47-1-7-2-17-12-14-5 1-9 8-11 12-7 12-11 23-22 31q-18 12-39 17-30 9-59-3-27-12-38-40l-7-18-1-1q-2-2-3-6c-1 0-6 9-10 9l-10 2-15 3q-3 0-4-1l-7 2-10 1-15 4c-6 0-6 1-9-4h-2v-2c-5 2-13 13-16 15l-5 6 4 27 18-29v2l-21 39-8 15c-2-3 5-11 6-15l-3-9q-11-1-15-13c-3-12 6-21 12-30q-27-6-48-23c-22-20 2-45 16-60l33-38 13-16 3-14 7-28 1-1 2-3 3-13 5-21c3-14 5-25 15-35 7-8 14-9 23-12l21-7h1v-1l-24 8v-1c5-4 31-7 32-14m61 491-10 39-2 10c-2-3 6-27 6-30-2 7-9 40-11 43l-1 1c-4 1-24-4-29-5l-1-1 8-31 3-12-3 11c-4 9-5 27-11 35q-5 20-7 41l-13-4q-4-9-12-11c-17-4-33-6-34 17 0 2 0 13-3 15-4 2-5 1-8 7l-1 2q-9-2-10 7-7 0-7 5l-3 3q-4-1-7 2-2 3-3 5-3 1-7 3l-1 4c-7 4-10-2-12 10l-15 5c-23 9-53 17-42 49l8 12c-8 1-46 3-48 11 3 5 34 7 39 8l76 4q117 3 233 2c31 0 248 0 255-15-1-7-41-9-49-10l-5 1c11-10 13-17 12-32-8 1-17 1-23 9l-6 11q-7 14-23 16-18 2-37 2h-20l8-2c12-1 45-1 55-4q6-2 11-7l4-6c-41 5-81 9-122-1-18-5-38-15-57-16-5 0-27-3-30 1-3 3-2 13-1 17 11 1 56 1 64 5q12 8 23 17v1h-5l1-1h-13c2-1 11 0 6-2h-1l-1-4-1-1-4-4h-1l-5-4c-6-3-54-4-63-4 0 6-2 15 2 19l16 1 48-1 6 1c-6 3-20 2-28 1-10 2-33 0-43 0-5 0-3-19-4-24 0-7-2-16 4-21h21l9 1 1-1v-4q0 3 2 6l10 1-10-2-1-6q32 8 62 18h6c6-3 13-19 20-20l3-3h1l-1-1v-1l1 1h1l-15-12-33-22c-5 1-6-6-10-1l-8 9-1-1-8 9-18 20-1-7c-3-12-16-12-25-17l-1-2 1-1c5 0 12 5 18 6v-1c-3-3-14-6-18-8q1-10 6-21h-1v-13q4-13 18-12 3-27 10-54l3-8 17-61-27 7c-28 6-49 5-77 1m-2 152c-2 2-3-3-1-3zM318 344c39-31 116-51 165-59l34-5 13 1c48-5 103 0 149 15l1-1-12-3q-50-14-101-14c-5 0-33 2-34 1l12-1q61-3 118 11l16 5q1-5-2-8l-4-7-1-5-12-3c-33-10-77-14-111-14q-27 1-54 7c-52 8-106 20-153 45l-18 10zm110 10h2l5-1 40-8 8-1 5-1c82-12 159-12 238 14 11 3 35 11 45 16l7 6q-2-5-6-8l-28-23-21-7-40-11c-58-14-119-13-178-5l-38 6-7 1-3 1-8 2-6 1h-3l-4 1-2 1-4 1-4 1c-3 0-12 3-13 2l-2 1-24 7q-42 12-82 33l-16 8-15 8-18 22-4 5 2 1 3-3c56-35 108-53 171-70m204 461-2-16c-3-21-11-18-29-15-8 1-8 3-12 9l-3 4q-1-3-4-1h2q2 0 1 4v4l1 21 1-1 11-2 14-3zM502 336zh-10q-3 0-5 2l-1 1-1 2-3 1-1 3h-1v-1l-2-1-4-2c-2-3-1-4-7-3h-7l-1-3c8 3 12 0 20 0l13 1 12-6h9l4 1c1 7-10 4-13 6zm-101 90v19c10 6 12 12 16 23 9 23 13 36 33 51q26 14 54 11v-2c-22-2-49-9-63-28q-8-13-13-27c-6-14-6-25-21-32v-17zm240 443c2 8 4 7 11 5l39-13v-2l-3-4c-2-1-41 12-47 14m0-2 41-13c-7-10-7-6-18-3l-32 10v1c2 5 0 7 8 5zM428 348h-10l-7 3h-1l1-2 3-5q0-1 3 0h7l4 1c-1 0-6 0-6 2zm10 3c-1-3 2-1 2-3l-4-3c2 0 8-1 10 1l-3 4q-4 0-5 1M651 59a317 317 0 0 0-202 130l23-7q20-6 41-9c19-2 40 5 59 9 12 3 29 6 41 10a147 147 0 0 1 37-123c2-2 7-6 7-10zM534 517q28-14 33-44c3-16-11-26-23-31-22-7-52-13-75-12-16 1-33 1-31 23l7 29c12 31 60 46 89 35m124-70c-11 1-27 3-34 12-14 19 1 45 16 57q16 11 35 9 20-2 31-18c9-11 15-43 2-52-10-7-38-9-50-8m-168-70-33-20c-8 24-10 38-4 63l34 2 5 1c-3-17-5-29-2-46m128 72c9-5 9-7 20-9l-2-21h-1c-9 1-11 2-20 0 0 12 1 19 3 30m67-55q5 23-1 44l7 1 14 3c6-24 5-38-2-61zm-48 443-21 6q-3 0-7 1h-5l-5-1q4 2 9 1 0 5 2 8c7 3 12-1 19-3l1-1q16-4 30-10c1 0 0-8-7-5zm-104-23q-12 3-9 17 3 8 11 11 9 4 17 1h1l10-6c-8 0-15 2-22-3-5-4-2-15-2-21zm91-295 3 3 9 7 3 1 8 3 5-1 4-1-5-1-10-4h-1l-10-6-4-3q-2 0-2 2m8 298c-7 1-42 8-46 10q-2 4 2 7 3 1 7-1l46-10q-1-8-9-6M386 433q-4 2-6 5-3 8 5 6 4-1 5-4 3-8-4-7m327 108 9-4 4-3q-2-7-9-7zm-84 319 43-14c-2-5-2-7-8-6l-42 14c-1 0-2 9 7 6m-51-58zm96 87c16 3 32-1 37-18q-10-4-20-7l-38 12v8zm-68-47c6-1 43-9 45-11q0-8-7-7c-8 3-43 9-46 11v5q4 3 8 2m14-327a1 1 0 1 0 3 0 1 1 0 0 0-3 0"/><path fill="#fcfcfc" fill-opacity=".2" d="m556 325 12 1v1l-3 1-12-1z"/><path fill="#000001" d="M521 823v13h1q-4 11-6 21c4 2 15 5 18 8v1c-6-1-13-6-18-6l-1 1 1 2c9 5 22 5 25 17l1 7 18-20 8-9 1 1 8-9c4-5 5 2 10 1l33 22 15 12h-1l-1-1v1l1 1h-1l-3 3c-7 1-14 17-20 20h-6q-30-10-62-18l1 6 10 2-10-1q-3-3-2-6v4l-1 1c-1-4 1-13-2-19-4-7-16-11-23-13q-2 15-3 31h19-21q1-23 5-47l6-18zm22 65 7 2 4 1h2l32-35 1-1-9-6c-12 12-25 28-37 39m38 12zh1l11-12 16-19-9-6q-14 18-30 33zm16 5 7 3 5 1 5-6 18-19-10-6z"/><path fill="#3561ed" d="m591 856 9 6c-8 7-18 21-26 28l-5 6-10-4h-1zM612 871l8 6-25 28-10-4z"/><path fill="#a3a2a2" fill-opacity=".9" d="M509 920c9 0 57 1 63 4q-1 6 5 4h1l-7 6 3-1q1 1 3 0l1 1-1 1 2 2-11 1 7 1-48 1-16-1c-4-4-2-13-2-19"/><defs><linearGradient id="a" x1="443.5" x2="444.2" y1="347.9" y2="337.4" gradientUnits="userSpaceOnUse"><stop offset="0" stop-color="#fff" stop-opacity=".5"/><stop offset="1" stop-color="#fff" stop-opacity=".7"/></linearGradient></defs><path fill="url(#a)" d="M444 341q4-1 5-4l11 1 4 1q3 0 1 3l8 1 2 2-40 8 2-2h1q1-1 5-1l3-4c-2-2-8-1-10-1l-8 3-6-1c0-2 5-2 6-2q3-1 2-3c1-2 4 1 6 0z"/><path fill="#fcfcfc" fill-opacity=".1" d="m660 271 12 3 1 5q0 4-4 6c-5 1-3 0-6 3l-10-2c1-2-3-9-3-10q4-6 10-5m5 12q2 1 3-2l-2-5c-12 1-4-2-9-3q-2 0-3 2l-1 2 2 7 1-1 3 1q3-4 6-1"/><defs><linearGradient id="b" x1="655" x2="661.9" y1="277.9" y2="280.2" gradientUnits="userSpaceOnUse"><stop offset="0" stop-color="#fff" stop-opacity=".2"/><stop offset="1" stop-color="#fff" stop-opacity=".4"/></linearGradient></defs><path fill="url(#b)" d="M657 273c5 1-3 4 9 3l2 5q-1 2-3 2-3-2-6 1l-3-1-1 1-2-7 1-2q1-2 3-2m9 9a1 1 0 1 0-2-2 1 1 0 0 0 2 2"/><path fill="#fcfcfc" fill-opacity=".5" d="M665 279a1 1 0 1 1 1 3 1 1 0 0 1-1-3"/><path fill="#000001" d="M517 280c33-6 76-4 109 1l27 5 10 2 16 5-2-7q3 3 2 8l-16-5q-57-15-118-11l-12 1c1 1 29-1 34-1q51 0 101 14l12 3-1 1c-46-15-101-20-149-15z"/><path fill="#fcfcfc" fill-opacity=".1" d="m413 342 1 2-3 5-1 2h1c6 1 6-2 11-2q6-1 9 2l-1 3h-2c-2 0-5-3-8-1l-7 2q-3-2-7-2l-6 3q-3-1-3-4 3-4 10-4c1 0 6 0 5-3l-1-2z"/><path fill="#fcfcfc" fill-opacity=".2" d="M480 332c14 3 12-3 23-5l9 2h-9l-12 6-13-1c-8 0-12 3-20 0l-1-1 3-1c5 3 4 4 10 0z"/><path fill="#000001" d="M458 833c2 2 4 9 4 12-2 0-1 5 1 3q4 19 4 38l1 10-1 1c1-4-2-37-3-40l-1 1h-1c1-3-3-16-4-20z"/><path fill="#fcfcfc" d="m611 934 30 1h20l-11 1-17 1-15-1q-4 1-7 0v-2"/><path fill="#fcfcfc" fill-opacity=".4" d="m428 348 8-3 4 3c0 2-3 0-2 3h-1l-2 2-5 1 1-3q-3-3-9-2c-5 0-5 3-11 2l7-3z"/><path fill="#a3a2a2" fill-opacity=".8" d="m578 928 4 4q-6 4 3 5c5 2-4 1-6 2h13l-1 1h-10l-6-1-7-1 11-1-2-2 1-1-1-1q-2 1-3 0l-3 1z"/><path fill="#000001" d="m599 843 5 1h5q4-1 7-1l21-6-17 6c-5 2-13 1-9 8 3 4 15-2 19-3l-1 1c-7 2-12 6-19 3q-2-3-2-8-5 1-9-1"/><path fill="#fcfcfc" fill-opacity=".6" d="m443 336 6-1 10 2h7c5 4-2 3 7 6l-8-1q2-3-1-3l-4-1-11-1q-1 4-5 4 5-3 0-5z"/><path fill="#fcfcfc" fill-opacity=".1" d="m480 344 1-3 3-1 1-2 1-1q2-2 5-2h10l1 1q-7 0-12 2l-5 5h3l-5 1z"/><path fill="#fcfcfc" fill-opacity=".8" d="M606 939c3-1 2-2 5-4v1q3 1 7 0l15 1h-3q-8 0 0 3z"/><path fill="#fcfcfc" fill-opacity=".5" d="M444 336q5 2 0 5l-8 1c-2 1-5-2-6 0q1 2-2 3l-4-1h1l2-1v-3h-1l4-1h1l3 1c3-2 7 1 10-1z"/><path fill="#fcfcfc" fill-opacity=".4" d="M466 337c6-1 5 0 7 3l4 2 2 1v1h4l-8 1-2-2c-9-3-2-2-7-6"/><path fill="#d7d7d9" fill-opacity=".1" d="m633 937 17-1v1h-3v1l6 2h-17l-6-3z"/><path fill="#4e4b4d" d="M611 934c4-1 33-2 38-1l-14 1 6 1z"/><defs><linearGradient id="c" x1="630.7" x2="632.8" y1="524.3" y2="522.2" gradientUnits="userSpaceOnUse"><stop offset="0" stop-color="#fff" stop-opacity="0"/><stop offset="1" stop-color="#fff" stop-opacity="0"/></linearGradient></defs><path fill="url(#c)" d="m630 520 10 6-4 3-9-7z"/><path fill="#fcfcfc" fill-opacity=".2" d="M426 340zv2l-2 1h-8q-3-2-3 0l-1-2c1 1 10-2 13-2"/><path fill="#fcfcfc" d="m641 526 10 4h-1l-2 1 1 1h3l-5 1-8-3h4q0 0-2-4"/><path fill="none" d="M467 331h4q3 0 2 1h7-10c-6 4-5 3-10 0z"/><path fill="#fcfcfc" fill-opacity=".3" d="M443 336zv3c-3 2-7-1-10 1l-3-1h-1l4-1 2-1 4-1z"/><path fill="#000001" d="M584 796h-2q3-2 4 1l3-4q-5 16-2 31l-1 1-1-21v-4q1-4-1-4"/><path fill="#fcfcfc" fill-opacity=".5" d="M772 371q4 3 6 8l-7-6z"/><path fill="#a3a2a2" fill-opacity=".5" d="M585 937q-9-1-3-5l1 1z"/><path fill="#fcfcfc" fill-opacity=".7" d="M640 526zq2 4 2 4h-4l-3-1z"/><path fill="#fcfcfc" fill-opacity=".5" d="m449 335 8-2 1 1 1 3z"/><path fill="#fcfcfc" fill-opacity=".1" d="m626 517 4 3-3 2-3-3q0-2 2-2"/><path fill="#fcfcfc" fill-opacity=".3" d="m252 426 4-5 1 3-3 3z"/><path fill="#fcfcfc" fill-opacity=".6" d="M630 940q-8-3 0-3l6 3z"/><path fill="#a3a2a2" d="m572 924 5 4q-6 3-5-4"/><path fill="#fcfcfc" fill-opacity=".7" d="m651 530 5 1-4 1h-3l-1-1z"/><path fill="#fcfcfc" fill-opacity=".6" d="M620 515a1 1 0 1 1 3 0 1 1 0 0 1-3 0"/><path fill="#3561ed" d="m404 205 24-28c64-70 159-126 256-130l-14 10q-20 16-32 39c-14 27-23 64-19 96l3 2 8 3c5 2 17 11 17 17v1l23 56-34-8a378 378 0 0 0-125-4l-19 3c-55 9-111 22-160 49l-7 5 3-15 3-13 5-21c3-14 5-25 15-35 7-8 14-9 23-12l21-7h1v-1l-24 8v-1c5-4 31-7 32-14m45-16 23-7q20-6 41-9c19-2 40 5 59 9 12 3 29 6 41 10a147 147 0 0 1 37-123c2-2 7-6 7-10h-6a317 317 0 0 0-202 130"/><path fill="#121212" d="m404 205 24-28c64-70 159-126 256-130l-14 10q-20 16-32 39c-14 27-23 64-19 96l3 2 8 3c5 2 17 11 17 17v1q-7-15-24-18c-32-5-77-23-108-22-24 1-58 17-82 21-31 7-33 14-49 40l-15 18h-1c4-5 26-36 27-41h1v-1l-24 8v-1c5-4 31-7 32-14m45-16 23-7q20-6 41-9c19-2 40 5 59 9 12 3 29 6 41 10a147 147 0 0 1 37-123c2-2 7-6 7-10h-6a317 317 0 0 0-202 130"/><path fill="#1250b4" d="M651 59h6c0 4-5 8-7 10l-12 15c-22 31-31 70-25 108-12-4-29-7-41-10-19-4-40-11-59-9q-20 3-41 9l-23 7 8-11c45-57 121-111 194-119m-45 64c7-5 6-11 10-17l8-13q5-5 5-9-2-6-8-4c-11 4-25 26-23 39q3 4 8 4m-12 56zq3-2 3-6l4-30c1-7 4-14-4-15-6 6-8 25-9 33 0 6-2 17 5 18"/><path fill="#091f49" d="M368 254h1l-2 2z"/><defs><linearGradient id="d" x1="478.8" x2="492.2" y1="705.8" y2="960" gradientUnits="userSpaceOnUse"><stop offset="0"/><stop offset="1" stop-color="#242324"/></linearGradient></defs><path fill="url(#d)" d="M414 756c6-8 7-26 11-35l3-11-3 12-8 31 1 1c5 1 25 6 29 5l1-1c2-3 9-36 11-43 0 3-8 27-6 30l-5 26q-4 19-6 40 7-1 12 5c5 5 3 13 4 17v5c1 4 5 17 4 20h1l1-1c1 3 4 36 3 40l1-1c6 5 4 14 5 21h33c1 5-1 24 4 24 10 0 33 2 43 0 8 1 22 2 28-1h15v-1h10l24 1h23l42-1q23 0 43-10l5-1c8 1 48 3 49 10-7 15-224 15-255 15a5561 5561 0 0 1-309-6c-5-1-36-3-39-8 2-8 40-10 48-11l-8-12c-11-32 19-40 42-49l15-5c2-12 5-6 12-10l1-4q4-2 7-3 1-2 3-5 3-3 7-2l3-3q0-5 7-5 1-9 10-7l1-2c3-6 4-5 8-7 3-2 3-13 3-15 1-23 17-21 34-17q8 2 12 11l13 4q2-21 7-41m51 140-2-31c-10 5-22 5-24 19v13l14-1zM362 782q-11 3-11 14l-2 12-1 7 11 2 5 1 10 2 11 2 8 2c2-11 4-20-2-31q-2-8-11-9-10-2-18-2m62 110 11-4-14-15-22-24-8 6 3 4 3 3zm17-79-1 16q0 4-4 6-6 4-13 2h-5l3 3c7 3 10 6 19 4q9-3 14-10 2-4 2-9-3-12-15-12m-112 65q8 1 11-6 0-2 2-2 5 1 7-4c-3-3 1-4-1-5q-20-4-39-13-7-2-10 5v1l38 13 4 2h-1l-2 4c-1 0 2-3 0-4-6-2-44-15-46-14l-3 4-1 2 40 14q3 2 5 2c0 1-4-1-4 1m26-17zq3-3 1-6l-36-12-9-2-1 1q-3 3-2 5c12 4 34 14 46 15m-125 37v5q0 14 9 23c19 18 85 14 111 13h33c8-6 19-18 29-19q30-1 58-3c0-4 2-18-5-19q-24 0-47 5-24 9-50 15-53 7-107-2 5 10 14 13c18 4 40 3 58 4q18-1 34 1l-27 2-11-1h-13c-15-1-31 0-46-5-14-6-11-21-22-29-3-3-13-4-18-3m148-34-8 6 26 30h3q4-2 8-3zm12-30q5-1 5-5c-3-4-15-5-19-6l-33-7q-3 2-5 7l42 9zm-32 45-9 6 19 23h4l9-3zm-26-55q-4 3-3 7c5 2 43 12 49 12q3-3 4-7l-1-1zm138 97h-13c-9 0-43 0-50 3h-1l-2 2-15 11-1 2h68c3 0 11 1 12-1q2-3 2-8zm-56-106q-1 8-1 17c6 3 16 6 22 1l3-2 2-21 7-49q-16 0-31-6l-8 44q3 3 3 6v1c1 4 2 2 1 8zm-145 56q1 4 3 7c12 18 37 13 54 6l1-7-14-5-25-8zm184-29zm-130-9q-3 1-4 6l21 7 22 6h4c4-1 3 1 3-6l-9-2-27-9c-6-2-5-3-10-2"/><path fill="#3561ed" d="M421 840c7 3 10 6 19 4q9-3 14-10l1 2 1-1q2 1 2 3c1 4 5 17 4 20-3 0-15 5-17 8 4 1 15-7 18-6v3l-10 4c-4 1-11 5-13 8l-3 12-16-17-20-22 13-10 12 7v-1l-2-2h-2zm33 2z"/><path fill="#000001" d="M421 840c7 3 10 6 19 4q9-3 14-10l1 2c-6 8-19 14-29 9v-1l-2-2h-2z"/><path fill="#3561ed" fill-opacity=".3" d="M453 842z"/><path fill="#000001" d="M453 867c4 1 9-4 10-2-10 5-22 5-24 19v13l14-1c-2 2-9 0-12 1-6 3-2-7-3-9l-2-1h1l3-12c2-3 9-7 13-8"/><path fill="#3561ed" d="m262 873 1 3c11 31 49 21 71 12l12 6q12 9 14 22l-22 2-22 1q-29 0-56-5c-8-17-13-17-30-19 7-13 20-17 32-22M397 828l16 7c-7 8-14 10-22 17l-51 36-9-2-3-2 1-6q8 1 11-6 0-2 2-2 5 1 7-4l1-4q4 1 8-1l3-6c8-3 10 2 11-11q11 3 12-7c4-5 10 5 13-9"/><path fill="#a3a2a2" fill-opacity=".8" d="M457 921h13l-2 17c-1 2-9 1-12 1h-68l1-2 6-3q0 4 2 3 3 0 2-5h-2q2-3 4 0l2-1-1-3 2-1 4 1 1-5h16l-13 2c4 2 12 2 16 1 9-2 27 2 34-4v-1z"/><path fill="#000001" d="m359 877 8-6 27 30-11 3-2-2q-1 2 1 3l-6 2c-3 0-6 5-8 1l-8-10c-2-4-18-13-9-16l5-4c4 0 2 0 3-1m-10 8 19 23h4l9-3-23-26z"/><path fill="#3561ed" d="m359 877 8-6 27 30-11 3-2-2z"/><path fill="#000001" d="M389 873c0 4 19 20 19 24l-7 3c-6 1-4 2-8-2l-5-6-10-11-8-8c-4-5 2-5 5-9l4-2zm-19-3 26 30h3q4-2 8-3l-29-33z"/><path fill="#3561ed" d="m389 856 32 36-11 4c-6-7-15-18-21-23l-10-11zM395 796c9 2 10 1 15 9h1v1c1 4 2 2 1 8v5l-2 12-15-6c3-11 3-18 0-29M436 890v7q-21 3-40 11-16 6-33 8l-1-2 21-7z"/><path fill="#a3a2a2" fill-opacity=".9" d="M406 924zc7-3 41-3 50-3h5v1c-7 6-25 2-34 4-4 1-12 1-16-1l13-2h-16l-1 5-4-1-2 1 1 3-2 1q-2-3-4 0h2q1 5-2 5-2 1-2-3l-6 3 15-11q5 1 3-1z"/><path fill="#3561ed" d="m331 887-17 6c-18 5-46 3-49-20l1-1h1l4 10h1c12 14 36 12 52 5q4-2 7 0M346 886c3 1 21 22 21 23l-4 2q-2 0-2-2-6-14-19-20z"/><path fill="#000001" d="M324 887h-2c-16 4-35 8-47-4q-5-4-6-12 1 4 3 7c12 18 37 13 54 6l1-7h1l-1 8 1-1 3 2v1q-3-2-7 0"/><path fill="#4e4b4d" d="M333 933q18-1 34 1l-27 2-11-1 15-1z"/><path fill="#000001" d="M348 861c2 1-2 2 1 5q-2 5-7 4-2 0-2 2-3 7-11 6c0-2 4 0 4-1q-3 0-5-2c10 2 7 1 10-6 2 1-1 4 0 4l2-4h1l-4-2c9 2 9 2 11-6"/><path fill="#fcfcfc" fill-opacity=".1" d="M394 859q0-3 3-5c3-5 4 5 4 7l-4 1z"/><path fill="#000001" d="M411 805q0-3-3-6l1-2c0 4 6 7 5 18l-2-1c1-6 0-4-1-8z"/><path fill="#a3a2a2" fill-opacity=".9" d="M406 924zq2 2-3 1z"/><path fill="#3561ed" d="M511 259zl-38 6-11 2v1l15-3 34-5q16-3 32-4 58-2 115 13 7 1 13 4h1l-12-3c-33-10-77-14-111-14q-27 1-54 7c-52 8-106 20-153 45l-18 10-6 25c39-31 116-51 165-59l34-5 13 1c48-5 103 0 149 15l30 23 4 3-37-10c-78-19-157-13-234 4a480 480 0 0 0-131 49l-13 7-10 11c-5 1-13 15-19 18l33-38 13-16 3-14 7-28 1-1 2-3-3 15 7-5c49-27 105-40 160-49z"/><path fill="#000001" d="M511 259zl-38 6-11 2v1l15-3 34-5q16-3 32-4 58-2 115 13 7 1 13 4h1l-12-3c-33-10-77-14-111-14q-27 1-54 7c-52 8-106 20-153 45l-18 10-6 25c39-31 116-51 165-59l34-5 13 1c-54 6-111 17-161 38q-24 9-46 25c-8 6-16 17-22 24l22-12c38-21 78-32 120-42a498 498 0 0 1 266 5l4 3-37-10c-78-19-157-13-234 4a480 480 0 0 0-131 49l-13 7-10 11c-5 1-13 15-19 18l33-38 13-16 3-14 7-28 1-1 2-3-3 15 7-5c49-27 105-40 160-49z"/><path fill="#3561ed" d="m288 383 10-11 13-7q22-13 45-23 42-17 86-26c77-17 156-23 234-4l37 10 24 20-55-15c-77-17-150-11-226 4l-51 11-16 5a395 395 0 0 0-109 46zM522 836v-1q4 2 5 5c14 11 26 7 38-2l13 9-10 11-8 9-18 20-1-7c-3-12-16-12-25-17l-1-2 1-1c5 0 12 5 18 6v-1c-3-3-14-6-18-8q1-10 6-21"/><path fill="#01abee" d="M553 754q2-10 6-21c1-3 37-40 41-44h1v3l-3 11-11 38c-1 4-3 16-5 19h-3q-14-1-26-6"/><path fill="#1250b4" d="M313 491c3-6 12-15 18-18q30-14 62-24 5-2 9 0c7 4 10 13 12 19q-2-2-3-6c-1 0-6 9-10 9l-10 2-15 3q-3 0-4-1l-7 2-10 1-15 4c-6 0-6 1-9-4h-2v-2c-5 2-13 13-16 15"/><path fill="#3561ed" d="M583 828c3 14 9 6 12 9q1 5 4 6 4 2 9 1 0 5 2 8c4 5 5 1 9 3 4 13 9 5 11 9h1l1-3v1c2 5 0 7 8 5h1v2c2 8 4 7 11 5q-3 3-9 2l8 1v7l-11 4-5-3-15-12-33-22-20-15c2-3 12-6 16-8"/><path fill="#000001" d="M630 864h1l1-3v1c2 5 0 7 8 5h1v2c2 8 4 7 11 5q-3 3-9 2l-4-6c-6 0-7 1-9-6M389 347l-13 5 22-6q36-10 74-17c88-16 179-16 264 15l8 4-21-7-40-11c-58-14-119-13-178-5l-38 6-7 1-3 1-8 2-6 1h-3l-4 1-2 1-4 1-4 1c-3 0-12 3-13 2l-2 1-24 7q-42 12-82 33l-16 8-15 8c3-5 58-30 67-34l-2-1c15-6 35-13 50-17"/><path fill="#3561ed" d="M584 796q2 0 1 4-3 12 0 25l-16 6-1-13c0-11 0-9 6-18zm-6 7z"/><path fill="#3561ed" fill-opacity=".2" d="M578 802z"/><path fill="#3561ed" d="M542 891q32 8 62 18c4 2 13 3 13 7-8 2-53-15-64-17l-10-2z"/><path fill="#000001" d="m603 484 3 1 9 21 5 9 1 1 3 3 3 3 9 7 3 1 8 3 5-1 4-1 14 1 1 2 3-1 3 1-2 2c-11 4-29 1-40-5-19-10-26-28-32-47"/><path fill="#fcfcfc" d="m656 531 14 1 1 2q-13 2-24-1l5-1z"/><path fill="#000001" d="M460 527c2-1 16 4 20 5h23l-19-1q-13-1-25-6l-9-5v-1q26 14 54 11l8-1 3-1h1l3 2q-30 9-59-3"/><path fill="#3561ed" d="m633 886 5 3-2 1q-14 6-18 21h-1l-5-2 18-20z"/><path fill="#000001" d="m511 939 16 1 48-1 6 1a551 551 0 0 1-59 1z"/><path fill="#fcfcfc" d="m606 485-1-8 1 3v1q4 14 13 27 4 4 7 9-2 0-2 2l-3-3a1 1 0 1 0-1-1l-5-9z"/><path fill="#000001" d="M577 790c0 10-1 5-3 10-6 9-6 7-6 18v3l-1-1v5l1 6q0 3-3 3l-15 2-1-1q9 1 18-3c0-14-5-26 8-35l1-1z"/><path fill="#98989a" d="m583 933 8 5 1 1h-13c2-1 11 0 6-2h-1z"/><path fill="#fcfcfc" d="M504 528h7l1 1-8 1zM248 432l4-6 2 1z"/><path fill="#d7d7d9" d="m670 532 5 1h1-2l-3 1z"/><path fill="#a3a2a2" d="m511 528 4-1v1z"/><path fill="#4e4b4d" d="M515 527c2 0 5 0 1 1h-1z"/><defs><linearGradient id="e" x1="594.1" x2="586.6" y1="345.7" y2="448.3" gradientUnits="userSpaceOnUse"><stop offset="0" stop-color="#282191"/><stop offset="1" stop-color="#1d3fad"/></linearGradient></defs><path fill="url(#e)" d="M576 347q67-2 133 11l3 13q-10 5-21 11l-39 20c-13 6-26 16-40 9q-8-8-10-18c0 10 1 19 11 26q-1 15 3 31-14 1-28-1l-14-2-22-10c4-11 5-16 6-28q26 6 35-19c-11 11-21 19-38 13q-26-13-51-28l-31-18 10-2q47-7 93-8"/><path fill="#feb541" d="M469 430c23-1 53 5 75 12 12 5 26 15 23 31q-5 30-33 44c-29 11-77-4-89-35l-7-29c-2-22 15-22 31-23m74 27-6 11-3 5c-2 4 1 3 5 5l2 1q2 2 3-1l4-7v-6l1-3q3-3 1-5v-1l-5-3zm-7 35q5-5-1-8c-1 2-3 8 1 8"/><path fill="#fcfcfc" fill-opacity=".8" d="m545 453 5 3v1q2 2-1 5l-1 3v6l-4 7-1-4 4-4c-6-8-2-4-4-13z"/><path fill="#fcfcfc" fill-opacity=".6" d="M537 468q4-2 7 1 0 3-1 5l1 4q-2 3-3 1 1-3-2-1c-4-2-7-1-5-5h6q3-4-2-5z"/><path fill="#fcfcfc" fill-opacity=".7" d="m537 468 6-11c2 9-2 5 4 13l-4 4q1-2 1-5-3-3-7-1"/><path fill="#fcfcfc" d="m550 456 4 3-6 12v-6l1-3q3-3 1-5z"/><path fill="#fcfcfc" fill-opacity=".4" d="M537 468h1q5 1 2 5h-6z"/><path fill="#fcfcfc" fill-opacity=".5" d="M539 478q3-3 2 1z"/><defs><linearGradient id="f" x1="383.7" x2="372.8" y1="357.1" y2="481.8" gradientUnits="userSpaceOnUse"><stop offset="0" stop-color="#271f90"/><stop offset="1" stop-color="#1f44b2"/></linearGradient></defs><path fill="url(#f)" d="M450 362h2v1c-7 17-6 39-2 57h-41c-26 10-61 19-84 35-6 5-13 15-16 20l-3 4q-2-39 4-76 68-26 140-41"/><path fill="#feb541" d="M658 447c12-1 40 1 50 8 13 9 7 41-2 52q-11 16-31 18-19 2-35-9c-15-12-30-38-16-57 7-9 23-11 34-12m36 24-6 12 9 5 4-7 2-4 5-10-2-2-2-1-3-2q-4 1-5 5zm-4 29c2-3 6-8 0-9h-1q-6 5 1 9"/><path fill="#fcfcfc" fill-opacity=".7" d="m704 464 2 1q-1 3-3 3-5 2-2 5l2 4-2 4c-4-5-5-2-7-10l2-4q4 2 8-1z"/><path fill="#fcfcfc" d="m706 465 2 2-5 10-2-4q-3-3 2-5 2 0 3-3"/><path fill="#fcfcfc" fill-opacity=".5" d="M696 467q1-4 5-5-3 6 3 4-4 3-8 1"/><path fill="#fcfcfc" fill-opacity=".5" d="m701 462 3 2v2q-6 2-3-4"/><path fill="#3561ed" d="M718 873c14 6 24 8 31 22-17 2-21 2-29 19a368 368 0 0 1-101 2c3-16 13-22 27-28q8 4 17 6c15 4 35 6 47-6q6-7 8-15"/><path fill="#2437ab" d="m712 373 3 11q8 31 9 63l-8-2-8-2c6-24 5-41-3-64z"/><path fill="#3561ed" d="M652 887c17 2 34 11 51 0 8-5 8-13 11-15h1v5c-9 22-36 20-55 14l-9-2q-5-2 1-2"/><path fill="#436fe1" d="M651 889q-5-2 1-2z"/><path fill="#01abee" d="M717 527q7 0 9 7l-6-2v1q0 2 2 4l-9 4z"/><defs><linearGradient id="g" x1="486.7" x2="504.3" y1="457" y2="754.1" gradientUnits="userSpaceOnUse"><stop offset="0" stop-color="#096ec5"/><stop offset="1" stop-color="#00d1ff"/></linearGradient></defs><path fill="url(#g)" d="M313 491c3-2 11-13 16-15v2h2c3 5 3 4 9 4l15-4 10-1 7-2q1 1 4 1l15-3 10-2c4 0 9-9 10-9q1 4 3 6l1 1 7 18q11 28 38 40 29 12 59 3 21-5 39-17c11-8 15-19 22-31 2-4 6-11 11-12 10-3 11 7 12 14 6 19 13 37 32 47 11 6 29 9 40 5a61 61 0 0 0 39-26c-8 52-38 103-80 134a196 196 0 0 1-164 28l5-19v-2l2-6v-5l-1 5-8 27-4 16-16 70-1 1c-4 1-24-4-29-5l5-22 12-45 6-22 4-15v-2l1-3 1-2q1-10-1-1l-2 5-3 14c-8-3-7-9-13-15l-33-31c-9-7-17-1-21 6h-1q-4-3-9-8-17-20-29-44l14-36 7-18-5 8-46 83-6-3-3-1 2 2 61 36v1l-7 10-9 11-53-28q-26-12-13-38 11-23 24-45l8-15 21-39q2-6 0-2l-18 29-4-27zm189 56c4 31 36 41 64 37a96 96 0 0 0 45-21q-15 6-33 8c-20 2-51-1-60-23l-1-5q2-2 6-1l2 1v-1q-5-3-11-2c-8 1-18 6-21 14l1 1q3-5 8-8m97 105 5-3 6-3c10-5 22-13 25-24 0-26-47 12-53 16l-15 9c-13 5-20 8-34 11-8 3-29 5-35 9 19 6 51 0 71-5l2-1 10-3h1l4-2 6-1 2-1zm76-80c9-5 18-25 7-27q-10 6-12 17-3 8 5 10m-10 18q4-2 4-6 0-3-3-3-4 1-7 5l-13 13-3 5q1 4 3 4 6-2 11-7l5-5c1-1 5-4 3-6"/><path fill="#000001" d="M514 540q6-1 11 2v1l-2-1q-4-1-6 1l1 5c9 22 40 25 60 23q18-2 33-8a90 90 0 0 1-45 21c-28 4-60-6-64-37q-5 3-8 8l-1-1c3-8 13-13 21-14m-8 14 1 2 2 6 2 3c16 22 60 21 81 7-27 3-70 6-78-30l-10 3z"/><defs><linearGradient id="h" x1="520.1" x2="512" y1="562.9" y2="562.7" gradientUnits="userSpaceOnUse"><stop offset="0" stop-color="#fff" stop-opacity=".1"/><stop offset="1" stop-color="#fff" stop-opacity=".2"/></linearGradient></defs><path fill="url(#h)" d="M511 560c5-4 3 0 8 1l1-1q-1 2 2 5v2c0 1 4 3 2 3q-2-1-3-1v2l-2-3-5-4zm10 7z"/><path fill="#fcfcfc" fill-opacity=".1" d="M521 567zM506 554c1-2 5-8 4-3l-3 5zM509 562l2-2 3 4h-1q-1-1-2 1z"/><defs><linearGradient id="i" x1="597.6" x2="608.4" y1="631.4" y2="646.1" gradientUnits="userSpaceOnUse"><stop offset="0" stop-color="#fff" stop-opacity=".2"/><stop offset="1" stop-color="#fffffe" stop-opacity=".4"/></linearGradient></defs><path fill="url(#i)" d="M586 638c8 3 20-13 28-16 4-2 5-4 11-6 3 1 9 3 10 6-3 11-15 19-25 24q-1-4-4-3l2 1v1q-8 1-8 5l-3-1q-1 2 2 3l-5 2-2-5c-4-5-8 3-12 2h-5l-1 1-3-2 2-1 4-2c5 1 3-1 7-3l8-2h-9q0-3 3-4"/><path fill="#fcfcfc" fill-opacity=".1" d="M582 638h4q-3 1-3 4l-2 1c-4-1-7 4-8 6l-2 1c-2 2-7 0-7 5-1 2 4 3 5 2l3-5c7 0 6-1 10 6h-1c-2-2-3-6-7-4-2 0-3 6-3 7l-2 1-7-4c-4 0-4-6 0-6 1 0 4-4 6-4l-1-1z"/><defs><linearGradient id="j" x1="652.1" x2="654.9" y1="593.4" y2="596.7" gradientUnits="userSpaceOnUse"><stop offset="0" stop-color="#fff" stop-opacity=".8"/><stop offset="1" stop-color="#fff" stop-opacity=".9"/></linearGradient></defs><path fill="url(#j)" d="m646 599 13-13 5 2h-1l-5 7q-2 6-7 5c-5 0 0 4-3 5q1-4-2-6"/><defs><linearGradient id="k" x1="572.1" x2="564.4" y1="652.8" y2="653.4" gradientUnits="userSpaceOnUse"><stop offset="0" stop-color="#fff" stop-opacity=".2"/><stop offset="1" stop-color="#fff" stop-opacity=".3"/></linearGradient></defs><path fill="url(#k)" d="m572 652-3 5c-1 1-6 0-5-2 0-5 5-3 7-5l3 2 1-1c8-1 6 10 9 3 1-1 3-5 6-4l2 4c-6-2-4 0-6 2l-4 2c-4-7-3-6-10-6"/><path fill="#fcfcfc" fill-opacity=".2" d="m574 652 1-1h5c4 1 8-7 12-2l2 5-2 1v-1l-2-4c-3-1-5 3-6 4-3 7-1-4-9-3z"/><path fill="#fcfcfc" d="m664 588 1 2h-2l-1 6-5 5-8 2s2 5-2 3l1-1c3-1-2-5 3-5q5 1 7-5l5-7z"/><path fill="#fcfcfc" fill-opacity=".2" d="M599 652q-2-1-2-3l3 1q0-4 8-5v-1l-2-1q3-1 4 3l-6 3z"/><path fill="#fcfcfc" d="M647 606c4 2 2-3 2-3l8-2q-5 5-11 7-2 0-3-4z"/><path fill="#fcfcfc" fill-opacity=".3" d="m581 643 2-1h9l-8 2c-4 2-2 4-7 3zM646 599q2 2 2 6l-1 1-4-2z"/><path fill="#fcfcfc" fill-opacity=".2" d="M573 649c1-2 4-7 8-6l-4 4z"/><path fill="#fcfcfc" d="m662 596 1-6h2c2 2-2 5-3 6"/><path fill="none" d="M586 656c2-2 0-4 6-2v1z"/><path fill="#000001" d="M712 629c0-6 0-7 4-11l-1-12c5-24 31-35 33-59q1-13-2-27v-11q7-6 17-5c20 2 29 23 27 41q-4 16-12 28 19 2 39 5 9 0 17 5 5 4 5 12 0 11-11 15c11 9 8 22-5 28 12 9 7 25-6 28q8 13-3 21c-6 4-15 0-21 0-12 1-26 4-39 0q-12-4-20-14c-9-3-12-4-17-12q-21 6-45 10l1-3 13-2 5-1 4-1h2l19-5q-5-13-5-28l-14 4h-3l-8 2-2-2zm53 54c-11-5-13-17-3-25q-8-9-2-22l-7 4-1-1q8-4 11-12l-1-2c-2-9 0-20 10-22q-14-15 3-28c3-10 10-19 12-28 6-24-15-53-40-36l2 12q6 25-7 46c-14 18-28 27-24 51l-2 1-2 5c0 14-1 34 13 42h1l1-4 6 7q11 15 30 15zm59-75c17-2 17-25 0-27l-19-2c-6-1-19-4-24-3-18 3-17 25-2 27 14 1 32 5 45 5m-2 28q19-10 4-25l-29-4c-4 0-19-3-23-2-14 4-13 17-3 25l44 6zm-43 49-2 2 8-1zm-15-25c-13 9-4 23 10 22 9 0 30 6 38 4q6-3 7-11-1-5-5-8l-32-4zm5-27c-14 4-10 22-3 24 9 3 45 9 52 7q6-2 8-8 3-5 0-10-1-5-5-6c-5-2-45-8-52-7"/><path fill="#fcfcfc" d="m765 683 5 1 9 1-2 2-12-1z"/><path fill="#000001" d="m716 621 2-1 5 12v2c-2-1-6-10-6-13z"/><path fill="#98989a" fill-opacity=".9" d="m779 685 6 1-8 1z"/><path fill="#121212" fill-opacity=".9" d="m753 640-4 1 3-2z"/><path fill="#121212" d="m356 515-7 18-14 36q12 24 29 44 4 5 9 8h1l1 2-14 20-2-2v-1l-61-36 1-1 6 3 46-83zm-49 92 37 21 10 5-13-16q-11-17-20-35z"/><path fill="#000001" d="m342 664-40-21c-17-9-38-16-31-41q4-10 10-20l16-28 10-18c-1 4-8 12-6 15q-13 22-24 45-13 26 13 38l53 28 9-11 2 1-13 18 55 27c6 3 21 6 27 3 10-7 12-23 14-35l-10-17-35-32q-5-2-11 0l-6 7-1-2c4-7 12-13 21-6l33 31c6 6 5 12 13 15v4l-6 22-12 45-5 22-1-1 8-31 3-12-3 11c-4 9-5 27-11 35l3-10 13-50c-13 17-39 1-54-6l-38-20z"/><path fill="#01abee" d="m686 637 8-2h3l14-4q0 15 5 28l-19 5h-2l-4 1-5 1-13 2q-7 2-4-3l10-26h1z"/><path fill="#000001" d="M404 205c-1 7-27 10-32 14v1l24-8v1h-1l-21 7c-9 3-16 4-23 12-10 10-12 21-15 35l-5 21-3 13-2 3-1 1 9-40c4-19 8-34 27-43 12-6 34-9 43-17"/><defs><linearGradient id="l" x1="492.2" x2="483.6" y1="340" y2="328" gradientUnits="userSpaceOnUse"><stop offset="0" stop-color="#fff" stop-opacity=".2"/><stop offset="1" stop-color="#fff" stop-opacity=".4"/></linearGradient></defs><path fill="url(#l)" d="m512 329 4 1c1 7-10 4-13 6h-1l-1-1h-10q-3 0-5 2l-1 1-1 2-3 1-1 3h-1v-1l-2-1-4-2c-2-3-1-4-7-3h-7l-1-3c8 3 12 0 20 0l13 1 12-6zm-4 4q8-1 2-4h-7v1h1c2 2-2 2-2 3z"/><defs><linearGradient id="m" x1="511.3" x2="505" y1="329.8" y2="331.5" gradientUnits="userSpaceOnUse"><stop offset="0" stop-color="#fff" stop-opacity=".2"/><stop offset="1" stop-color="#fff" stop-opacity=".3"/></linearGradient></defs><path fill="url(#m)" d="M503 329h7q6 3-2 4h-6c0-1 4-1 2-3h-1z"/><path fill="#000001" d="M598 703v4-2l1-1v1l-12 45-3 12h-2l-9-1-14-2-8-2v-1c1 0 27 7 32 5l-6-1h5c2-3 4-15 5-19zM622 194c6 0 18 7 21 11 10 13 15 34 22 49l10 21c-4-1-6-16-11-18l-17-42v-1c0-6-12-15-17-17z"/><path fill="#fcfcfc" fill-opacity=".4" d="M414 344q0-1 3 0h7l4 1c-1 0-6 0-6 2l6 1h-10l-7 3h-1l1-2z"/><path fill="#000001" d="M476 645zl-2 6v2l-5 19h-2z"/><path fill="#fcfcfc" fill-opacity=".4" d="M436 345c2 0 8-1 10 1l-3 4q-4 0-5 1c-1-3 2-1 2-3z"/><path fill="#000001" d="M446 642zl-1 2-1 3v2l-4 15v-4l3-14z"/><defs><linearGradient id="n" x1="356.9" x2="354.9" y1="647.5" y2="645.3" gradientUnits="userSpaceOnUse"><stop offset="0"/><stop offset="1" stop-color="#040807"/></linearGradient></defs><path fill="url(#n)" d="m359 641 2 2-7 9-2-1z"/><path fill="#000001" d="M601 692q-1 5-1 8l1-3v-1q0-3 2-5l-4 14v-1l-1 1v2-4z"/><path fill="#1250b4" d="M446 642q2-8 1 1zM476 645l1-5z"/><path fill="#000001" d="M463 848c-2 2-3-3-1-3z"/><path fill="#091f49" d="M330 495q2-4 0 2zM298 604l-2-2z"/></svg>