<svg xmlns="http://www.w3.org/2000/svg" width="1024" height="1024" viewBox="0 0 1024 1024"><path fill="#1e1c1d" d="M301 336A406 406 0 0 1 472 97c14-9 65-42 81-40q5 0 8 3 3 5 2 9-4 10-10 19-12 21-16 43c-8 55 26 100 66 132 10 8 32 25 39 35 13-3 45-6 58-5l1 32-1 1-1 1c-10 0-10 12-11 20v3l-2 6-5 15h2q-6 1-3 9l1 12v37q-2 9 3 16 5 13 11 24l5-7q-5-8-6-16v-3l3-15c-1-10-1-12 1-22l-3-4v-2l-7-11q-3-6-3-14l2-6 2 8v2l3 9v1l1 1 9 16v1q-4 11 0 23v1l1 1 1 2 6 8 2 3-1 2h-2l-1-1-6-8-4 1 1 7h1c1 3-3 2 2 11l4 6 3 4 5 4 3 1q2 1 4 1v-6l-1-12-1-13v-8h1v-13l-1 1c-1-2 2-1 1-3l-1-8v6l-1-10v6l-1-2c1-7 0-24-1-30v-1l3-4c6-6 14-8 20-14q13-12 4-26-7-5-16-5-7 2-13 6l-11 10-9 15-4-2 4-7 1-1q7-9 15-16 4-2 4-5-3-41 28-67l-1-10-7-1-2-4q1-5 4-9c0-6-2-21 2-25 12-10 42-11 55-2 5 3 4 20 5 26 7 5 8 15-2 14l-1 4v5a73 73 0 0 1 34 59c22 4 32 20 18 39 14 11 15 28 5 42h-1c12 10 12 25 2 37 9 13 7 28-7 37l-8 3 4 56v25c-15 23-98 25-116 4l-3-56c-9 9-18 19-31 20-19 0-25-16-32-29l-22 31 25 15 7 5 5 4 4 2 2 2 5 4c6 5 16 13 21 19 14 18 22 48 25 71 23 5 25 22 20 42q-8 23-12 46 9 3 14 11c2 10 2 28-2 38l-7 8q31 7 61 19c35 16 47 30 46 69q5 2 5 8c1 7 2 33 1 39l-5 11c-11 17-49 28-68 31a227 227 0 0 1-120-11c-17-7-24-11-42-16l-30-5c-20-2-53 2-64-18q-12-20 5-37c-1-7-2-13 5-17 1-11 2-13 6-24-11-9-14-31-9-44v-1l3-5q6-3 8-10l-1-9-1-3q-4-14-10-27l-2-3v-2l-1-4v-13c4-17 9-14 15-25l3-6 1-2q2-2 0-5c-5-12-4-18-3-31q1-7-6-10a70 70 0 0 1-17-17l-3-6-1-1-1-1-6-18-11 20-3 4-1 1-9 11-6 7-4 5-4 5v1q-6 14 0 30v4c1 7 2 10 1 18l-1 5-4 10 4 5 1 3c6 17 3 27-4 43l-5 11v1l-2 5 2 1 6 6 1 2 2 4 1 3v1c2 7-1 21-3 28-2 8-5 10-11 14l4 10c1 3 2 11 4 13 7 4 6 6 7 14l4 2q6 5 7 14 2 14-6 26c-8 10-19 11-31 14l-15 4q-25 7-46 19-19 14-40 23-26 9-53 11c-31 3-92 0-117-21q-11-9-12-24c-1-7-1-30 1-36l3-6q-2-36 25-58c16-12 42-24 62-29-13-10-11-19-10-33 1-13 5-26 18-30-4-30-22-67 19-78-4-20 2-29 15-44q-21-14-29-38c-27 1-38-17-34-42-7-6-29-25-34-32-24-34 21-62 42-82 6-6 20-19 27-23l-9-11c-10-16-8-36 3-51q13-17 32-27m-41 263c7 2 6 2 14 1l-1-5q0-9 4-18h1l2 1-3 10c-1 15 2 24 11 36l1 1c5 6 26 24 33 26l5 3q7 5 16 6c3-2 10 1 15 0h1-10 8l4 1q7-1 14-3c4-1 14-7 17-5l-3 3-3 2c-16 6-35 10-52 3q-6-3-14-4l-7-2-7-1-2-1q-5-2-6 1l-3 4-2 3q-5 12-1 24h20a545 545 0 0 1 152 35h1l3 1 2-1q5-12 3-24c-1-14-8-27-1-41q9-12 19-22v-1l15-22 5-10-8 1h-13c-12 1-29-1-41-4l-6-1-9-2-4-1q-13-5-27-7l-11-3-6 5-6 4-6 5-2 2q-1 3-6 2v-1l14-12 2-2 1-1c-2-3-5-1-11-7-4 1-16 7-18 5-1-2 4-4 6-5 24-10 38 10 64 4 6-1 7-2 11-6q4-3 5-9c-2-2-1-11-1-14-6-10-18-4-28-6-9-1-10-1-18-5l-5-2-3-2-5-2c-4-3-4-1-7-3q-1-2-5-3l-8-2-19 1-9 2-3 1-3 1h-1l-8 3-1 1h-2q-3 2-5 1l-1-1 1-1 5-2 2-1-1-1q-6-9-16-13l-12-1-4 1h-1l-1 1-5 1-11 8q-13 13-20 28l-1 6q-3 8-1 16l1 1 1 5 3 4 2 3 4 4zm458-281v13q10-5 22-1 7 2 9 9 3 8 0 17c-6 13-22 14-29 25q2 31 3 61l3 60 2 39 2 21c9 11 33 13 47 13l18-1c12-1 35-4 44-15v-1l-4-78q-18 6-36-2-7-4-9-12-1-7 1-13-10-3-13-13-4-7-1-15l6-8q-9-4-12-14-3-9 2-17 5-7 12-10-7-8-8-17 1-9 7-14c8-7 31-14 42-18v-10h-25zM544 643l3 2q5 4 5 11l-1 18 1 6 1 1 1 3 4-1 5-6 24-34c1-3 6-11 9-12l1 1c0 3-6 11-8 14l-24 41-1 2q0 2 2 2l1-1 20-10 8-4q45-17 92-24l26-2 10 1 1-1 3 1q1-7-1-14v-2l-1-3-3-10-1-3-3-9-1-4-4-9-3-4q-10-16-26-27a197 197 0 0 0-33-24l-11-7-4-2-3 3-9 12a174 174 0 0 1-91 65h-1l-5 1c-3 1-7-1-4 3l5 9 2 3 4 5 1 1 2 2zm311 262c-8 16-28 23-44 28q-51 18-103 5-24-7-48-17a560 560 0 0 0-93-25q-16-2-31-6-9 8-8 19a27 27 0 0 0 20 25l15 3c19 2 37 1 55 5l25 8 24 10 40 11q23 5 47 3 39-1 75-17 11-4 18-12l4-5c6-11 4-23 4-35m-384-66 1-5v-2l1-4q2-8 1-17 0-9-7-13c-5-5-17-8-24-10a423 423 0 0 0-167-23h-1l-7 3-7 6q-3 3-4 8l-2 5-1 20q0 12 11 18l9-3-5-2h-2q0-4 6-4c52-11 116 2 164 23 8 4 17 10 25 9l2-1q5-2 7-8m80-48-1 1-2 1q-5 3-8 9l-2 4-1 6 2 17 3 8q2 4 5 6h5l7-4 14-9q22-13 46-22l22-8 3-1 9-3 3-1 6-1 8-2 8-1q14-2 28-3h20c6 1 14 6 19 3q7-5 6-15v-18q0-14-16-15l-1-1c-26-4-45-3-71 2h-4l-6 2-12 2a363 363 0 0 0-82 37zM400 924l-3 1-5 3-2 1-25 16-5 3-3 2-5 2-3 1c-46 19-106 18-152 1l-2-1-6-2-1-1q-10-5-15-15v24l4 9v1l1 1 5 7 4 3h1l3 2 4 2 21 7 2 1q11 3 21 4c3-2 15-1 19 0v1h-2l-2 1c13 2 42 1 56-2h6l3-1h4l5-1q12-2 22-7 9-3 19-9l20-14a238 238 0 0 1 78-27h3l3-2 1-1h1v-1l2-1c6-6 8-9 10-17-1-11 1-17-9-23l-11 6-9 3v1q-7 1-12 4c-6 2-28 9-33 12zm451-19q3-6 2-12v-1l-3 1q-5 6-12 11-14 7-28 12-38 12-78 9c-34-3-60-15-92-26q-38-14-77-21l-24-4q-3 6-2 11l2 3 10 1a392 392 0 0 1 116 30l37 14c41 12 87 7 126-11q15-5 23-17m-520 51c22-5 44-23 65-34q18-9 35-15h1l-1-1 7-3 3-1 7-3c5-1 8-5 12-2l3-1 11-6h1v-8l-2-3-1-1-10 3-10 4h-1q-35 12-69 31-14 10-30 19c-9 4-22 8-31 10q-65 12-125-11h-1l-2-1-4-2q-8-4-13-12h-1c-2 0 0 12 1 14q3 6 8 10l2 1 1 1 4 2c23 12 65 17 90 16l12-1h-3l-1-1h5l9-2h7q5 1 6-1l5-2h10m390-478q-10-4-19-13c-2 4-13 23-17 24l-2 1v-1c0-5 7-12 10-16-3-5-11-25-14-28q-5 26-17 50c6 10 11 25 23 28q10 3 19-3 10-7 17-16l1-2c1-5-1-18-1-24M565 351l5 15c4 9 6 11 11 18l9 8 5 3q14 9 32 7 24 0 41-19l2-2 1-2c8-11 9-15 13-27v-2l4-19q2-6 8-8h1v-26c-4-1-35 0-36 2l-18 2q-23 3-46 10c-27 8-39 15-69 11l-17-3-38-6c-4 3-18 4-22 1l-7-3h4l-21-1h-11l-10-1h-6q-25 0-50 2l1 28 4 1 4 1 3 4 2 6 1 5 2 11 1 2 1 4 2 4 2 5 1 2 4 6 12 14 4 3 3 2 5 3q8 4 15 7l3 1a96 96 0 0 0 90-21l9-12 3-3 6-11c5-12 7-29 22-29 10 0 9 3 15 7m95-42q8 0 14 6l3 6 1 3c1 12 0 11-1 22l-8 22-5 7-6 7c-13 10-24 15-41 12l-12-3-9-5h-1l-3-2-3-3q-12-12-16-29h-1l-1-2c1-11-3-16 9-24q0-2 3-4v1l-2 3 11-4c12-4 55-15 65-13zm126 104q15 4 31 0l2-1 14-3 9-3 3-3 5-6 3-6q4-8 1-15-3-8-9-13h-1l-7 6-2-3 4-3 2-3 3-3c13-14 3-28-13-32q-2 0-2 5l-13 4c-8 4-27 9-31 15q-7 10-1 20l1 1 1 1c8 9 25 5 35 1q6-5 12-2l-2 2-3 1h-1l-1 1-12 3q-12 5-25 1-8 2-12 9l-1 1q-4 8-1 16 3 7 11 9M270 840l23 2c16 4 21 6 36 13l7 1q1 2 4 3h1-1q2 2 5 3l10 9q5 2 6 7l2 2c4-2 18-10 20-13v-1l-2-2c-10-11-30-23-44-28-21-6-48-9-70-6l1 4q-1 3-6 5c1-3 5-4 4-6l-1-2h1c-4-2-22 6-27 7l-9 4 10-1zm49-308 10-4q-13-20-23-41l-7-23q-26 20-41 49l10 9q14-10 31-7 13 5 20 17m518-88h2v3c-3 2-14 5-16 5l-6 1h-2l-18 1c-7-1-3 13 0 17q5 6 14 7l6 1h9l4-1h1c18-5 31-18 20-37l-6 2q0-3 4-6 16-16 0-33l-5 4q-2 0-2 2l-3 1-4 1-4 1-6 2h-2l-9 2c-10 1-16 2-26 1-18 14-5 34 15 33q17-1 34-7m-559-22 11-10c-11-1-13-10-14-19 0-29 31-41 54-49h2l5-3h1l10-3-1-7 1-6v-13l-10 6-3 1-5 3-2 2-6 3c-20 12-51 29-56 53q-7 25 13 42m239-87c10 8 8 18 5 29l-9 18q-34 47-90 28l-7-3-4-2-4-3h-1l-2-2-8-7q-10-13-16-28l-3-16c1-9 1-13 5-20l2-3 6-3h3l2-1 5-1h39l33 4c12 2 33 5 43 9zM359 820c-14-3-45-6-58-4v1c21 1 25 1 46 7l1-1 6 1c9 5 25 12 34 19h-2l7 6q5 4 10 0c2-3 7-1 9-3l3-2 1-3-1-1c-2-1-6-7-8-7-13-7-34-11-48-13m421-7 2-2-17-5a124 124 0 0 0-74 13h-2l-4 3-2 1c-14 8-20 15-31 27l16 6 4 2 1 1q4 3 7 0l5-6 3-3 4-4 2-2 12-9 12-7c21-10 39-14 62-15M283 406q2 2 6 2h2l2-26 1-3 2-14v-1l-1-1-10 10a32 32 0 0 0-5 26q0 4 3 7m443 389h3l-3-1-1-2-21-1c-19 1-43 5-60 12a138 138 0 0 0-35 32l23 10c23-28 57-49 94-50m68-558-1-11 1-3c-1 0-1-7-2-6h-2v-2l-9-3c-6-3-26-1-32 1q-8 2-10 8v10l1 8 4-1h1l13-3h24l5 1 5 1zm-58 12q2 3 4 1 17-7 35-5h9c4 2 10 1 13 5 2 0 4-5 2-6q-9-5-20-5c-9-2-23 0-32 2h-2l-6 3h-1l-2 3zM560 360l2 4 2-6-3-5-4-5zm175 376 1 1q1 2 1 0zm28-488-7 1-3 1h-2l-2 1-4 1v1h3l12-2 13-1 15 2h7l-4-2h-2l-3-1q-11-2-23-1"/><defs><linearGradient id="a" x1="440.5" x2="440.5" y1="379" y2="597" gradientUnits="userSpaceOnUse"><stop offset="0" stop-color="#0078d4"/><stop offset="1" stop-color="#3bddf1"/></linearGradient></defs><path fill="url(#a)" d="M296 384c1-5 2-22 7-25q20-10 41-16c16-5 16 9 18 19a81 81 0 0 0 27 45c32 28 86 25 118-1q9-7 14-15l9-14 11-26q5-3 11-2c5 10 6 24 17 31q9 4 16 13 9 8 22 11 42 9 69-25a183 183 0 0 1-9 94 194 194 0 0 1-244 114l8-3c20-9 19-46-9-41-22 5-38-12-57-18-9-2-23 0-32 3q-21-31-31-66l25-19-2-2c-2 0-14 9-17 11-21 17-40 33-53 58q-2-4-7-6v1q6 10 16 19-15 14-23 34l-15-13c-9-8-20-16-23-30q-2-10 4-21c7-13 28-30 40-40l33-30 18-16-1-2-2-1c-1-2 1-18 1-21"/><path fill="#0d86d5" d="M296 384c1-5 2-22 7-25q20-10 41-16c16-5 16 9 18 19q5 23 20 39h-1l-4 1-2-1-11-2h-6q-8-2-15-2-9-5-20-6c-2 0 1 2-2 1l-3-1-1 1c-17 0-11-13-19-12q1 3-2 4M541 351q5-3 11-2c5 10 6 24 17 31q9 4 16 13h-1l-6-5-6-2 1 3-7-4v3l-2 1h-7l-2-1c-5 0-12 5-18 2h-4l-5-2-2-1-4 4h-1l9-14zM573 389l1 1z"/><path fill="#1e1c1d" d="M452 450q6-12 17-16h2v2l-9 6a96 96 0 0 0 91 14l1 3c-4 3-17 5-22 6q-40 5-72-21l-8 16-2-1q0-4 2-9"/><defs><linearGradient id="b" x1="460.4" x2="472.2" y1="64.5" y2="323" gradientUnits="userSpaceOnUse"><stop offset="0" stop-color="#032998"/><stop offset="1" stop-color="#0361bd"/></linearGradient></defs><path fill="url(#b)" d="M547 60q7-1 10 1 5 5 1 11l-9 16q-19 36-15 77c5 40 36 77 67 101a68 68 0 0 1-44 25q4 9 13 11 8 0 14-4 17-10 21-29 19 14 34 31-9-5-19-7-16 0-29 11l-8 7q-6 4-13 5c-23 6-38 3-62-1q-9-11-22-18-9-5-19-6-33-4-58 15c-12 0-55-1-63 2l-14 8-26 17q2-12 7-24A419 419 0 0 1 547 60"/><path fill="#1e1c1d" d="M445 250h16q7 3 14 7c13 6 28 14 42 16l13 1c-6 6-14 14-23 16q-12 2-22-6c-34-22-51-16-88-11v-1l1-1 6-5q19-12 41-16"/><defs><linearGradient id="c" x1="290" x2="468.5" y1="509.2" y2="716.3" gradientUnits="userSpaceOnUse"><stop offset="0" stop-color="#f7f7f6" stop-opacity=".9"/><stop offset="1" stop-color="#f8f8f8"/></linearGradient></defs><path fill="url(#c)" d="M283 524h3l-1-4 3 2 1 1c0 3 9 3 11 3l4 3c1 3-3 4-1 8l1 4c3 1 3-3 4-4l1 1q2 1 5-1l4 2c4 0 0-2-1-3l8-3c5 2 6 4 7-2l9-2 8 2h10l2 1h-7c1 2 14-2 14 3l5 2v-4c3 2 3 0 7 3q-3 1-1 4c7 1 3 2 8 4l6-2c8 4 9 4 18 5 10 2 22-4 28 6 0 3-1 12 1 14q-1 6-5 9v-1l-1-3q-2 0-3 2c0 3-6 0-6 2l1 3 2 1h-4v2c-26 6-40-14-64-4-2 1-7 3-6 5 2 2 14-4 18-5 6 6 9 4 11 7l-1 1h-1l-5-1v2l4 1-14 12v1q5 0 6-2v1q0 2 2 1v1c1 1 6-2 6-2l4-5 4-4q0-4-2-3l6-5 11 3q14 2 27 7l-4 2c0 2 7-1 8-1l9 2-4 2 2 2c5 1 5 0 8-3 12 3 29 5 41 4q3 3 6 5h7q-1 3-4 3v5l2 2h-1q-2 3-3 5-3 1-2 3c0 5-1 2-4 4v5q-10 9-19 22c-7 14 0 27 1 41q2 12-3 24l-2 1-3-1h1l2-3q-2-2-5 0l1 3-33-11c-37-11-81-22-119-24l-5-1 4-2-2-1c3-3-3 0-3-6 1-6-4-5 4-7h1l1-1q1-5 5-5h2q3 0 4-3 4-1 1 2l-1 1c2 2 1 5 6 3 4-1 3 0 5-4 17 7 36 3 52-3l1 2c1 1 6 0 5-3l-3-1 3-3c-3-2-13 4-17 5q-7 2-14 3l-4-1h-8 10-1c-5 1-12-2-15 0q-9-2-16-6 0-4-5-3c-7-2-28-20-33-26q2-1 1-3l-2 2c-9-12-12-21-11-36l3-10-2-1h-1q-4 9-4 18h-1c-2-1 0-13 0-12q-1 2-3 5l-1-4c-3-1 1 11-1 11q-6 0-7 4l-6-3 3-2v-1q-6 0-4-6v-1l-2-2c-4-2-1-3-2-7l-3 1c-4-12 7-14 1-21l3-6c4-4 8-15 13-18h3c4-1 2-3 3-4q4 2 7-1 7 2 7-4m16 19-8 8 3 2c2 0 1-6 5-5zm97 45 1-1-1-1-5-1v1l-1 1h1z"/><path fill="#201f1e" d="m291 551-6 7c-7 0 4-10 5-12 1-1 7-6 9-6q3 1 0 3z"/><path fill="#f8f7f7" fill-opacity=".9" d="m291 551 8-8v5c-4-1-3 5-5 5z"/><path fill="#faf9f9" fill-opacity=".8" d="m391 585 5 1 1 1-1 1-5-1h-1z"/><path fill="#fc8140" d="M723 799q9-1 19 1l3 1-20 2q-41 8-71 39-5 4-6 9c3 3 26 12 31 14l8-8c23-25 55-39 88-40 21-1 44 5 59 20q17 17 15 41 1 10-6 17c-13 14-50 23-69 26l-27 1c-43 0-75-17-115-30q-43-14-90-21 1-12 7-25 14-3 25-12l15-9q21-11 43-18l-17 15c-3 3-10 10-10 14 2 4 24 11 29 13l6-7q33-39 83-43M279 824a122 122 0 0 1 116 35c6-3 24-10 28-14q-3-6-9-11l20 8q12 7 26 10c5 9 6 13 8 23q-41 14-80 34c-11 6-33 22-42 25-47 15-104 16-150-3-6-3-16-10-18-16-6-29 16-60 44-67 36-9 77-5 109 12 17 9 20 14 32 25l24-16c1-4-5-9-8-12q-27-24-64-30l-25-2-16 1z"/><path fill="#cb5e39" d="m274 826 5-2c1 2 8 1 11 1z"/><defs><linearGradient id="d" x1="776.8" x2="779.9" y1="317.6" y2="574" gradientUnits="userSpaceOnUse"><stop offset="0" stop-color="#0088e4"/><stop offset="1" stop-color="#18b2e3"/></linearGradient></defs><path fill="url(#d)" d="M801 317h25v10c-11 4-34 11-42 18q-6 5-7 14 1 9 8 17-7 3-12 10-5 8-2 17 3 10 12 14l-6 8q-3 8 1 15 4 10 13 13-2 6-1 13 2 7 9 12 18 8 36 2l4 78v1c-9 11-32 14-44 15l-18 1c-14 0-38-2-47-13l-2-21-2-39-3-60q-1-31-3-61c7-11 23-12 29-25q3-9 0-17-2-7-9-9-12-4-22 1v-13zm21 214-5 5v3q5-3 7-8 4-6 3-13l-2 1z"/><path fill="#035f91" d="M790 554c9-1 27 0 35 4q3 0 3 2l-1 3c-7 8-35 8-45 9h-13c-7-1-23-2-27-7v-3c4-7 40-8 48-8"/><path fill="#faf9f9" d="M738 389h5q10 2 16 11c9 14-1 27-6 39q-4 9-6 19c-6 25-3 60 23 74l13 4 1 2-10-2q-18-7-26-24c-9-20-8-48 0-68q6-11 10-23 5-9 0-18c-4-9-11-9-18-12zM822 531l3-12 2-1q1 7-3 13z"/><path fill="#faf9f9" fill-opacity=".4" d="M822 531h2q-2 5-7 8v-3z"/><path fill="#faf9f9" d="M817 536v3s-6 6-7 2z"/><path fill="#fc8140" d="m551 787-1-8c-2-19-20-36-14-56 4-12 12-16 21-22 47-30 104-45 159-47 16-1 36 4 35 24q-2 14-6 26c-2 8-8 25-8 33l-2-1q-7-16-25-14-18 3-35 9-40 13-78 30-24 10-46 26"/><path fill="#f7f7f6" fill-opacity=".9" d="M624 548q6 2 8-3 1-4 7-4 0 2 2 3 4 1 7 4l5 2q4 3 5 6h2q3 4 8 3l4 4 6 5c8 3 14 14 20 18l4 5q3 7 8 12-1 5 3 9 0 7-2 13c0 3 4 6 4 6 0 5-2 14 0 18l-1 1-2-1h-1l2 1-26 2c-4-1-25 2-30 3l4 1-6 1c-9 2-65 16-68 23l-20 10 3-3 4-2q3-1 6-3 3-3 5-6l1-2h-5q-1 0-3 2c-3-2 1-3 2-4q3-3 1-6t1-1l2-1 2 1q1 1 1-1h-1q-2 0-1-2l2-1 2-4q0-4 4-5v-2q2-2 3-5 0-7-3-2l-3 3h-1c2-3 8-11 8-14l-1-1c-3 1-8 9-9 12h-1c-7-2 1 6-6 5l-2 4c1 4-1 2-3 3-1 1 0 6-3 3l-1 1 3 1-5 7-1 1-1 1v-3c-2 1 0 4-2 5l-2 6-5 6-4 1-1-3 2 1q2 1 4-1 1-2 3-5t-1-4c-3-1-4-6-5-6v6q-1 2-3 1v-6l-2 7 1-18q0-7-5-11 1-8-3-2l-7-6 1-1q2 0 1-2c-2-3-2 0-4-4 5-4 4 0 5-5q3-5-2-5h-1v-1q0-3 2-3h3c-1 0-9 0-3-2l4-1h-9c36-8 68-37 90-65m-80 92zh-1v-2l-2-1v3l2 1z"/><path fill="#f8f7f7" fill-opacity=".8" d="m541 636 2 1v2h1v1h-1l-2-1v-3"/><path fill="#fc8140" d="M294 689c34-4 100 12 133 22 11 4 30 9 39 14q5 2 7 6c10 21-3 39-10 59l-8-13-8-7q-7-4-15-7c-34-8-124-7-160-1l-5-24c-2-11-5-27 3-37q10-11 24-12"/><path fill="#1e1c1d" d="M401 321h39l33 4c12 2 33 5 43 9l1 1c10 8 8 18 5 29l-9 18q-34 47-90 28l-7-3-4-2-4-3h-1l-2-2-8-7q-10-13-16-28l-3-16c1-9 1-13 5-20l2-3 6-3h3l2-1z"/><path fill="#0d86d5" d="m440 321 33 4c-2 1-12 20-14 22l-34 60q-15-5-25-17 5-10 11-20zM483 347l2 1-34 57-1-1c1-2 30-54 33-57"/><defs><linearGradient id="e" x1="377.3" x2="355.1" y1="861.8" y2="751.7" gradientUnits="userSpaceOnUse"><stop offset="0" stop-color="#f7f6f6" stop-opacity=".9"/><stop offset="1" stop-color="#f6f7f6"/></linearGradient></defs><path fill="url(#e)" d="M287 764c44-6 115 10 156 24 7 2 19 5 24 10q6 4 7 13v8l-1-4-1 6-2 5q0 3-2 3-2 7 3 10-2 5-7 8-1-2 3-3v-3h-1q-4 2-7 2l-1 3h-1l2 1 3 1c-8 1-17-5-25-9-48-21-112-34-164-23v-1l2-2q3-1 6-3c0-2-5-2-6-3q-2-1-5 1l-1-1v2h-2l-3 1-1 3-1 1 1-4v-2l-1-3 1-3q2-1 1-4-1-5-3-9l-1-5c-1-7 2-2 3-6v-1c2 7 5 0 6 0q4-1 4-5l1-2 6-2h9l3-1v-1l-4-2z"/><defs><linearGradient id="f" x1="735.1" x2="537.1" y1="785.5" y2="793" gradientUnits="userSpaceOnUse"><stop offset="0" stop-color="#f5f5f4" stop-opacity=".7"/><stop offset="1" stop-color="#f7f6f6" stop-opacity=".9"/></linearGradient></defs><path fill="url(#f)" d="M666 747q6-4 11-1v-4q4-1 6 2h-2l12 1c12 5 23 1 35 1v3c2 3 4 2 5 5l-1 1h-2l-1 1-1-1v1c4 5 8 6 7 12-1 7-11 12-17 12q-3 0-4 2 3 3 9 6h-17l1-1q-3 0-8-2c-4-3-13-3-17-1q-7 0-15 3l-2 1c-9-1-6 3-13 4h-2q-3 0-3 2l6 2-9 3c-5-5-10-1-3 1l-22 8q-4-2-8-1l-2 3q-6-1-9 4-3 2-6 2l-5 3-29 17-1 3-7 4-2-1 4-1 4-3v-3h-2q1 2-1 4l-4-2c-1-1 1-1-2-3q-3 0-5 1-1-3-1-5-1-4-3-2l-1 1-2-17q4-2 1-6l2-4c0 1 0 7 2 7 1-2-3-5 0-7l2 2h1c-1-4 4-3 3-4 0-5 6-3 5-7l-1-2h-1l8-6a283 283 0 0 1 82-37l1 1h4s6 3 6-1l1-1 5-1c5 1 13 7 17 3v-1l-1 2 1-1q-4-3-9-2"/><defs><linearGradient id="g" x1="313.6" x2="346.6" y1="907.4" y2="985.8" gradientUnits="userSpaceOnUse"><stop offset="0" stop-color="#f6f6f5" stop-opacity=".8"/><stop offset="1" stop-color="#f7f7f6" stop-opacity=".9"/></linearGradient></defs><path fill="url(#g)" d="m446 906 3 3q4-1 8 2t8 3l4 2c2 3-2 8 4 8l3-1-3 2-3 3q-2 2-6 2-2 0-5 3l-1 3q5-2 9 1l-29 7-8-1v1h5l-5 2h-6v1h1l-11 4-20 9c-5 2-11 9-15 10v-3h-1v1l-1 2-3 1v1l-3 3-2 1-1 1 1 1q-9 6-19 9l2-2 1-1h3l1-1 3-1v-2l-1-1-6 1q-3-1-4 1l-1 1-1 1v1h-7l1 1h2v1h-1l-3 2-1 1h-1q-1-2-2-2h-1l-6 1h-9l1 1h2l3 1-2 1-4 2-1 1h-2v2h-7c-3-2-18 0-22 1q-14 1-29-1c-4-1-16-2-19 0q-10-1-21-4l2-1h6v-2l-7-1-3 2v1l-21-7v-2l-1-1-3 1-3-2h1l2-1v-1l-1-2-2-1-2-2-1-2v-1l2-2h2l1-1 4-4 1-1v-1h-1q0-2 2-5l1-2c46 17 106 18 152-1v2l2 2h4l2-2-1-1v-2h1l1 1 2 1 1-1h3v-2l1-3h4v-1h-4l1-1 1-1h1-3l25-16c1 3 6 4 5 0l-3-1 5-3q1 3 3 3c8-1 0-4 0-4l1-1q3 2 5 0l2 2c2 1 6 0 3-4l2-2v-1c5-3 27-10 33-12m-59 30v-3h-2l-1 1v1z"/><path fill="#faf9f9" fill-opacity=".8" d="M385 933h2v3l-3-1z"/><path fill="#1e1c1d" d="M571 350c1-11-3-16 9-24q0-2 3-4v1l-2 3 11-4c12-4 55-15 65-13h3q8 0 14 6l3 6 1 3c1 12 0 11-1 22l-8 22-5 7-6 7c-13 10-24 15-41 12l-12-3-9-5h-1l-3-2-3-3q-12-12-16-29h-1z"/><path fill="#0d86d5" d="m606 319 27-7-40 70c-6-8-9-12-13-21l9-15z"/><path fill="#faf9f9" d="M571 350c1-11-3-16 9-24q0-2 3-4v1l-2 3 11-4 41-10-27 7c-9 2-26 6-31 15-4 6-1 14-3 18z"/><path fill="#0d86d5" d="m649 321 3 1v1l-33 58h-2v-1a1436 1436 0 0 0 32-59M767 254q13-1 25 2v7c19 14 28 28 33 51H718q5-30 28-49l-1-8z"/><path fill="#faf9f9" d="m765 268 4 2v1l-1 2-2 1q-4 3-4 8l-2 12v1l-3 2h-2l-2-2c-2-5 0-14 2-18q3-6 9-9z"/><defs><linearGradient id="h" x1="318.3" x2="341.6" y1="890.9" y2="951.1" gradientUnits="userSpaceOnUse"><stop offset="0" stop-color="#f5f4f4" stop-opacity=".8"/><stop offset="1" stop-color="#f8f7f7"/></linearGradient></defs><path fill="url(#h)" d="M451 885v2s6-4 5 0c-2 6 6 1 7 1l-3 3q-5-1-9 2c-1 5-4 2-8 4 3 2 8-2 9-2 3 1-4 5-4 3l-5 1h5l-7 3-2-1v-1h-2l-4 1v2h5l-7 3 1 1h-1q-17 6-35 15c-21 11-43 29-65 34h-10l-5 2q-1 2-6 1h-1 1v-2l-5-1-6 1v2h4l-9 2h-5l1 1h3l-12 1c-25 1-67-4-90-16h4l2 1 1-1v-2q-2-2-6-1v-3l2-1 3-1 1-1v-1h-1l-1-2v-1a225 225 0 0 0 156 1q16-9 30-19 34-19 69-31m-205 74h4v-1h-1v-1l-7-1h-2l-1 1h2l-4 1 3 1z"/><path fill="#f7f7f6" fill-opacity=".7" d="M240 956h2l7 1v1h1v1h-10l-3-1 4-1z"/><defs><linearGradient id="i" x1="694.1" x2="690.9" y1="447.6" y2="523.1" gradientUnits="userSpaceOnUse"><stop offset="0" stop-color="#0ca5e6"/><stop offset="1" stop-color="#2bc9ea"/></linearGradient></defs><path fill="url(#i)" d="M679 445c3 3 11 23 14 28-3 4-10 11-10 16v1l2-1c4-1 15-20 17-24q9 9 19 13c0 6 2 19 1 24l-1 2q-7 10-17 16-9 6-19 3c-12-3-17-18-23-28q11-24 17-50"/><path fill="#faf9f9" fill-opacity=".9" d="M528 322c30 4 42-3 69-11q23-7 46-10l18-2q-3 3-4 6l3 4h-3c-10-2-53 9-65 13l-11 4 2-3v-1q-3 2-3 4c-12 8-8 13-9 24q-4-1-6 1c-6-4-5-7-15-7-15 0-17 17-22 29q-1-6-1-7l-1 1-2-1 2 7c-1-1-4 6-5 3q0-4 1-6l2-7c-1-1-1 2-2 1 3-11 5-21-5-29h3l1-3h1l1-1c-2-3-4-1-3-5h1q3-1 2-3z"/><defs><linearGradient id="j" x1="828.5" x2="793.5" y1="366.7" y2="417.9" gradientUnits="userSpaceOnUse"><stop offset="0" stop-color="#f4f4f3" stop-opacity=".7"/><stop offset="1" stop-color="#f7f7f7"/></linearGradient></defs><path fill="url(#j)" d="M836 374h5c2 3-9 1-4 6 3 2 9-2 12 2l-1 1-1 1q3 2 2 5c-2 3-1 2-1 6h-1v-3c-1-4-7 6-7 6 0 3 4 0 5 0v5l-3 3-9 3c-6-3-11 4-17 2l-10 1-5 2-13-1 1-1q-2 0-3 1-8-2-11-9l2-17q5-7 12-9 13 4 25-1l5 2c0 2 8 2 9 0l2-2q3 1 5-3zm-2 33 2-1h1l-1-1h-1l-4-1h-1v1l-1 1v1z"/><path fill="#f7f7f6" fill-opacity=".6" d="m831 404 4 1h1l1 1h-1l-2 1h-5v-1l1-1v-1z"/><defs><linearGradient id="k" x1="298.1" x2="354.7" y1="870.2" y2="831.6" gradientUnits="userSpaceOnUse"><stop offset="0" stop-color="#faf9f9" stop-opacity=".9"/><stop offset="1" stop-color="#f7f7f7"/></linearGradient></defs><path fill="url(#k)" d="M262 839q5-2 6-5l-1-4c22-3 49 0 70 6 14 5 34 17 44 28h-1c-4-2-4 3-2 4l5-2v1c-2 3-16 11-20 13l-2-2q-2-5-6-7l-10-9q-3-1-5-3h1-1q-3-1-4-3l-7-1c-15-7-20-9-36-13-5-6-16-4-23-2l-11-1z"/><path fill="none" d="m609 835 9-11c4-5 20-18 26-21a190 190 0 0 1 81-11l1 2v1c-37 1-71 22-94 50zm26-19-5 5q-2 3 1 2l7-6 2-2q3-2 5-4l3-1c-1-2-7 0-9 0z"/><path fill="#faf9f9" fill-opacity=".1" d="M639 810c2 0 8-2 9 0l-3 1q-2 2-5 4l-2 2v-1l4-4h-3l-4 4z"/><defs><linearGradient id="l" x1="636.2" x2="637.2" y1="820.4" y2="811.6" gradientUnits="userSpaceOnUse"><stop offset="0" stop-color="#faf9f9" stop-opacity=".1"/><stop offset="1" stop-color="#faf9f8" stop-opacity=".1"/></linearGradient></defs><path fill="url(#l)" d="m635 816 4-4h3l-4 4v1l-7 6-1-2z"/><path fill="#faf9f9" fill-opacity=".2" d="m630 821 1 2q-3 1-1-2"/><defs><linearGradient id="m" x1="832" x2="793.6" y1="409.5" y2="450.3" gradientUnits="userSpaceOnUse"><stop offset="0" stop-color="#f6f6f5" stop-opacity=".7"/><stop offset="1" stop-color="#f6f6f5" stop-opacity=".9"/></linearGradient></defs><path fill="url(#m)" d="M788 418c10 1 16 0 26-1q3 0 5 2l8 1q3 1 6-1c1 0 5-3 5 0l-2 2c1 2 7-2 4 2l-3 1c1 2 4-1 6 2 1 2 2-1 3-1 3 0 7 2 2 3q-3 2-3 4v-1l-2 1c-3 10-10 5-14 9q-1 2 2 3h6q-17 6-34 7c-20 1-33-19-15-33m35 29 1-2-1-1h-7l-1 2v1zm-35-2zv-3l-1-1h-3v1l1 2z"/><path fill="#faf9f9" fill-opacity=".4" d="M816 444h7l1 1-1 2h-8v-1z"/><path fill="#f8f7f7" fill-opacity=".8" d="M784 440h3l1 1v4h-1l-2-2-1-2z"/><path fill="#f7f7f6" fill-opacity=".9" d="m816 334 5 2h3c3 1 6-2 7-1q2 2 1 4l-1 2 4 7 4 3c1 0 4-6 4 0h-1q-3 1-2 3 0 3-2 3v2q-1 2 1 4l-4 3-2 4q-6-3-12 2l-8-1c-4-1-1 1-1 2h-3v1h-3c-1 2-6-1-9 0q-4 1-3 0l-4-1q1-3-5-3l-1-1v-6q2-4 1-9v-5c4-6 23-11 31-15"/><defs><linearGradient id="n" x1="456.9" x2="459.5" y1="325.8" y2="310.8" gradientUnits="userSpaceOnUse"><stop offset="0" stop-color="#f6f6f6" stop-opacity=".7"/><stop offset="1" stop-color="#f0f0f0" stop-opacity=".9"/></linearGradient></defs><path fill="url(#n)" d="m406 309 10 1c3 4 3 0 8 1l10 1-5-1h-4l2-1 21 1h-4l7 3c4 3 18 2 22-1l38 6c5 7 2 6 12 4q0 2-2 3h-1c-1 4 1 2 3 5l-1 1h-1l-1 3h-3l-1-1c-4-5-22-8-28-8l-8-3q-4 0-7-1-3-3-7-1-7 0-15-3l-9 2-10-2-2-1 1-1h-1l-6 1h2c-1 2-13 0-16 1l-8 1-1 2-5 1c1-5 8-3 10-5q1-2-2-2-2-1-4 1c-1 0-11 1-9-2s13-1 14-3z"/><path fill="#f8f7f7" fill-opacity=".9" d="M359 820c14 2 35 6 48 13 2 0 6 6 8 7l-1 1q-4 1 1 3l-3 2c-2 2-7 0-9 3q-5 5-10 0l-7-6h2c-9-7-25-14-34-19h1q5 0 3-3z"/><defs><linearGradient id="o" x1="474" x2="478.9" y1="392.5" y2="417.8" gradientUnits="userSpaceOnUse"><stop offset="0" stop-color="#f3f3f3" stop-opacity=".8"/><stop offset="1" stop-color="#f7f6f7"/></linearGradient></defs><path fill="url(#o)" d="M513 382q-1 2 1 3 2 3 5 2l-9 12c-6 0-3 2-8 3l-3 2c0 1 3-2 5-1l-2 2h-1 1a96 96 0 0 1-82 15c4 0 17 2 13-4q-3-3-8-4l-2-2q56 19 90-28"/><path fill="#f7f7f6" fill-opacity=".5" d="M663 744c26-5 45-6 71-2h-2q-2 4 1 6c5 3 1 4 4 9l1 2c1 1 6 10 5 11v-1l-1 1c-2-1 0-2-4 1-2 1 1 0 0 3l2 1c-7 5-2 3-5 8-1 1-17-4-12 4h2l1 1h-3q-6-3-9-6 1-2 4-2c6 0 16-5 17-12 1-6-3-7-7-12v-1l1 1 1-1h2l1-1c-1-3-3-2-5-5v-3c-12 0-23 4-35-1l-12-1h2q-2-3-6-2v4q-5-3-11 1 5-1 9 2l-1 1 1-2v1c-4 4-12-2-17-3l-5 1v-1l6-2c5 4 3 3 4 0"/><path fill="#f7f7f6" fill-opacity=".4" d="M400 309h6l-1 2-15 1q-10 2-22 3c-1 1-5 6-3 8l-1 1-1 3q-1 6 2 8l2 5 2 1v2l1 11v-1q2-4 1-9-1-3 2-7 0-5 4-8h2c2-1-2-3 3-7 6-5 5-5 13-5q0 1-2 1v1l3-1-1 1-1 4h-1q0-4-5-4l-5 5v5c-4 7-4 11-5 20v-4l-1 2v-1c-1-3-3 1-3 2v14c0-1 1-6-2-6-1 0 0 6-3 7l-2 4-2-11c3-2 2-7 0-6h-1v1l-2-6q3-6-3-4l-4-1c4 0 2-1 3-5l-2-7q1-4 1-7 0-4 5-6 2-2 5-3l22-1zM700 819l1-1c3-4 10-2 13 0v4c-1 2 2 3 1 4l-1 1 1 1-8 5-7 5v-1l6-4c3-2 0-4-1-2l-2-1-6 4-3 2q-3 6 0 8l-2 2q-1-3-1-4v-4l-2 2c-3 1-1 4-4 5q-3 2-1 5c1 3 1-3 4 0l-3 3-1-2c-5-3-4 1-6 2q0-2-2-3-1 3 1 6c-2-1-9-4-8-6 2-6-2-4-3-6l5-8q2-3 7-4l2-3h1q-1 3-4 4c-1 1-14 11-8 10 3-1 4 3 4 3q3-1 2-3l2-1q2-1 5-5h2q3 1 4-2c0-7 4-6 7-10 2-1 7-2 4-4q-2-1-5 1-1 2-4 3-4 0-6 3h-1l-2 1 5-5c6 0 5 0 8-4zm10 5zv-1l1-2h-1l-6-1v2l-1 1h1l1 1 2 1z"/><path fill="#faf9f9" fill-opacity=".1" d="m705 820 6 1h1l-1 2v1h-1l-2 1-2-1-1-1h-1l1-1v-2"/><defs><linearGradient id="p" x1="368.7" x2="385.5" y1="314.1" y2="342.2" gradientUnits="userSpaceOnUse"><stop offset="0" stop-color="#f4f3f2" stop-opacity=".5"/><stop offset="1" stop-color="#f5f5f4" stop-opacity=".6"/></linearGradient></defs><path fill="url(#p)" d="M368 315q12-1 22-3l15-1c-1 2-12 0-14 3s8 2 9 2q2-2 4-1c-3 3-5 1-9 2-8 0-7 0-13 5-5 4-1 6-3 7h-2q-3 3-4 8-3 4-2 7 1 5-1 9v1l-1-11v-2l-2-1-2-5q-3-2-2-8l1-3 1-1c-2-2 2-7 3-8"/><defs><linearGradient id="q" x1="629" x2="633.7" y1="388.8" y2="401.5" gradientUnits="userSpaceOnUse"><stop offset="0" stop-color="#f2f1f1" stop-opacity=".8"/><stop offset="1" stop-color="#f3f3f4"/></linearGradient></defs><path fill="url(#q)" d="m605 391 12 3c17 3 28-2 41-12-2 5-6 3-4 7q1 3 3 2l6-6 5-2a58 58 0 0 1-41 19q-18 2-32-7l8-1q2 4 6 3v-2q-4-1-4-4"/><path fill="#f7f7f6" fill-opacity=".6" d="m698 586 4 2 2 4 2 1c3 2 1 5 4 6h3c2 4-2 8 4 7l1 4v1c-3 4-1 10 3 8l1 3v1c-3 3-4 12-2 15 3 8-4 6 3 13l-10-1-2-1h1l2 1 1-1c-2-4 0-13 0-18 0 0-4-3-4-6q2-6 2-13-4-4-3-9-5-5-8-12z"/><defs><linearGradient id="r" x1="351" x2="396" y1="324.2" y2="324.3" gradientUnits="userSpaceOnUse"><stop offset="0" stop-color="#fbf9fa" stop-opacity="0"/><stop offset="1" stop-color="#f1f0f1" stop-opacity=".2"/></linearGradient></defs><path fill="url(#r)" d="M350 311h39l-22 1q-3 1-5 3-5 2-5 6t-1 7l2 7c-1 4 1 5-3 5l-4-1z"/><path fill="#faf9f9" fill-opacity=".4" d="m797 454 18-1 2 2q5 1 8 4l-1 3-1 1 1 4c2 4 0 4-1 8l-2 4h-4l-4-5q5-4 3-9l2-4-2-2-7 1h2l-6 1c-5-2-7 0-10-3 4-5 8 0 10-3zm14 4v-1l-3-1-3 1 1 2h2zm-12 2zh1v-2h-1l-2 1zm19 8v-2 1z"/><path fill="#faf9f9" fill-opacity=".4" d="m805 457 3-1 3 1v1l-3 1h-2z"/><path fill="#faf9f9" fill-opacity=".5" d="M799 457h1v2h-1v1l-1-1-1-1z"/><path fill="#f7f7f6" fill-opacity=".5" d="M818 466v2l-1-1z"/><path fill="#f7f7f6" fill-opacity=".1" d="m377 347 1-2zv2l3 16v2q-2 6 1 9 1 5 6 9c3 4 5 4 5 8l1 1-1-1-3-3-3-1-3-4-2-1q-2 1-1 3l5 9 1-1 2 1-1 2-2 2-8-10q3-7-4-6l-1-2c4-2 1-7-2-5l-2-4q3-3 0-5l-1 1-1-2h1c7-4 2 8 6 6l3 3v4c0 1 3 5 5 3l-1-1c-1-3-3 0-2-5 0-5-4-4-3-9v-11q-1-4 1-10"/><path fill="#faf9f9" fill-opacity=".2" d="m703 813 4 1c4 3 5-2 9-2 1 1 7 1 6 3-2 1-4-1-2 4q-2 4-2 9l-12 7-12 9q-3-3 0-8l-1 2q0 5 2 2l1-5 1-1 6-4 2 1c1-2 4 0 1 2l-6 4v1l7-5 8-5-1-1 1-1c1-1-2-2-1-4v-4c-3-2-10-4-13 0l-1 1-6 1c-3 4-2 4-8 4l-5 5h-1c1-3 4-1 3-6l2-1c2 1 9 2 6-3 1-2 10-5 12-6"/><path fill="#f7f7f6" fill-opacity=".7" d="M831 413zl2 2c11 1 6 0 12 5 3 3 3-3 6 6v1c-1 4-2 2-3 4l-9 12h-8q-2-1-2-3c4-4 11 1 14-9l2-1v1q0-2 3-4c5-1 1-3-2-3-1 0-2 3-3 1-2-3-5 0-6-2l3-1c3-4-3 0-4-2l2-2c0-3-4 0-5 0q-3 2-6 1l-8-1q-2-2-5-2l9-2h2z"/><path fill="#f7f7f6" fill-opacity=".5" d="m829 330 3 2c10 2 3 2 11 6l1 15c-1 1-5 6-3 7l-2 3q-2-2-1-4v-2q3 0 2-3-1-2 2-3h1c0-6-3 0-4 0l-4-3-4-7 1-2q1-2-1-4c-1-1-4 2-7 1h-3l-5-2z"/><path fill="#faf9f9" fill-opacity=".4" d="m334 319 3-1c5 3 6-1 10 2v5c-4-2-2 5-2 6-3 1-3-1-5 2 0-3-3-6-1-7q2-4-1-5l-2 3c-2 1-13 5-11 8 1 1 7 2 8 1 3 1 1 3 6 2-2 2-6 3-3 6l-5 3q0-3-4-5l-4-2-4-1q2-3 5-6l1-2q3-2 2-4l2-2q5 5 5-3"/><path fill="#f7f7f6" fill-opacity=".6" d="M446 906q5-3 12-4c0 5 5 3 10 3q2 6 8 8 4 2 5 6l-2 4q1-5-4-9c-3 1-5-4-6-3l3 4 1 9c-6 0-2-5-4-8l-4-2q-4 0-8-3-4-2-8-2z"/><path fill="#f7f7f6" fill-opacity=".4" d="M723 787c-5-8 11-3 12-4 3-5-2-3 5-8l-2-1c1-3-2-2 0-3 4-3 2-2 4-1l1-1v1c1-1-4-10-5-11l-1-2c-3-5 1-6-4-9q-3-2-1-6c4 4-3 3 7 8 0 2 4 9 6 10h-1l1 1 1-2c2 0 2-2 2 2 0 5 3 11-1 13l-10 9q-8-1-14 2z"/><path fill="#f8f7f7" d="m432 318 10 2 9-2q8 3 15 3 4-2 7 1 3 1 7 1l8 3c6 0 24 3 28 8-10-4-31-7-43-9a374 374 0 0 0-72-4l1-2c4 1 25 0 30-1"/><path fill="#f8f7f7" fill-opacity=".6" d="M320 657q8 1 14 4c-2 4-1 3-5 4-5 2-4-1-6-3l1-1q3-3-1-2-1 3-4 3h-2q-4 0-5 5l-1 1h-1c-8 2-3 1-4 7 0 6 6 3 3 6l2 1-4 2 5 1h-15l3-1c2 1 8 0 5-4q-4-3-3-7c-1-5 3-4 4-8l3-3q4-2 7-4l3-1z"/><path fill="none" d="M683 823c1 5-2 3-3 6l-2 3q-4-1-6 2-7 5-9 13c1 1 8 8 5 9l-16-6c11-12 17-19 31-27"/><path fill="#f7f7f6" fill-opacity=".8" d="M677 346v8c5 1 2-2 6-2h1c-4 12-5 16-13 27-2-8-6-4-2 1q-4-1-3-5c0-2 5-4 3-7z"/><path fill="#f8f7f7" fill-opacity=".8" d="M347 984zl1-1 1-1q1-2 4-1l6-1 1 1v2l-3 1-1 1h-3l-1 1-2 2q-10 5-22 7l-5 1h-4l-3 1v-2h2l1-1 4-2 2-1-3-1h-2l-1-1h9l6-1h1q1 0 2 2h1l1-1 3-2h1v-1h-2l-1-1h7m-13 7v-2h-8 1v1l2 1zm13-4a1 1 0 1 0-2-2 1 1 0 0 0 2 2"/><path fill="#faf9f9" fill-opacity=".5" d="M326 989h8v2h-5l-2-1z"/><path fill="#f8f7f7" fill-opacity=".7" d="M345 985a1 1 0 1 1 2 1 1 1 0 0 1-2-1"/><path fill="#faf9f9" fill-opacity=".7" d="m265 529 1 4h-3c-5 3-9 14-13 18l-3 6c6 7-5 9-1 21l3-1c1 4-2 5 2 7l2 2v1q-2 6 4 6v1l-3 2-4-4c2-3 1-7-2-3l-3-4q4-4-2-6-2-8 1-16h2c1-4 2-2-1-6q7-15 20-28"/><path fill="#faf9f9" fill-opacity=".4" d="M696 309c-1 4-7 3-8 7 0 4 8 1 6 7 0 1-7 1-7 4-2 4-4 2-6 2v-1l-3-4-1-3h2v-6h1c0-3 5-3 7-4h3z"/><defs><linearGradient id="s" x1="675.5" x2="687.3" y1="311.8" y2="300.8" gradientUnits="userSpaceOnUse"><stop offset="0" stop-color="#f8f7f6" stop-opacity=".2"/><stop offset="1" stop-color="#f8f7f6" stop-opacity=".4"/></linearGradient></defs><path fill="url(#s)" d="M678 301h12c2 2-7 9 5 7l2-1v1l-1 1-6 2h-3q-5 1-7 4h-1v6h-1q1-2-1-5-2-2-1-5c1-6-7-3 2-10"/><path fill="#f7f7f6" fill-opacity=".6" d="m835 366 2 3q1 3 7 2v1q3 6 10 4 3 7-1 15c-1 0-6 1-2-2 5-2 0-5-2-7-3-4-9 0-12-2-5-5 6-3 4-6h-6c-3 1-6 5-8 0v-1h1q4 3 3-1l2-2z"/><path fill="#f7f7f6" fill-opacity=".7" d="m260 784 1 5q2 4 3 9 1 3-1 4l-1 3 1 3v2l-1 4 1-1 1-3 7 2 1 1-2 2q-2-3-5-3c-3 2 0 3-5 4q2-6 0-10-3-3-6 1l1-20q5 2 5-3"/><path fill="#faf9f9" fill-opacity=".6" d="m197 954-1 2q-2 3-2 5h1v1l-1 1-4 4-1 1h-2l-2 2v1l1 2 2 2 2 1 1 2v1l-2 1h-2l-4-3 1-2-2-6h-1l-1-3 2-3 2-1 2 1 2-2v-1l3-4h1l1-1 2-1z"/><path fill="#f8f7f7" d="M347 824c-21-6-25-6-46-7v-1c13-2 44 1 58 4l-1 1c-2 0-12-2-10 2z"/><path fill="#f7f7f6" fill-opacity=".4" d="M458 902zc6 2 4 5 11 1h10c-1 0-8 1-7 3 1 5 4 2 8 4 1 4 4 1 5 7q0 4-4 7-3 3-4 9l-2 1c-2-3 3-7 4-10l2-4q-1-4-5-6-6-2-8-8c-5 0-10 2-10-3"/><path fill="#f8f7f7" fill-opacity=".8" d="m678 324 3 4 1 2c3 3 3 0 6 1l-4 19-2-4q-1 0-3 1-2 3-2 7v-8c1-11 2-10 1-22"/><path fill="#f7f7f6" fill-opacity=".6" d="M577 667c3-5 3 4 3 5-1 1-5 2-2 4q2-2 3-2h5l-1 2q-2 3-5 6-3 2-6 3l-4 2-3 3c1-3 6-6 5-8 0-5-5 2-6 3l-1 2v-2l4-6q2-1 4-4l3-5c3 3 4-2 2-2z"/><path fill="#f8f7f7" fill-opacity=".7" d="m739 244 6-3h2c9-2 23-4 32-2l-2 3 2 1-18-1c-6 3-8 2-14 2q-2 2-5 3 0-2-3-3"/><path fill="#faf9f9" fill-opacity=".7" d="m797 471-1-6c2-5-1-4-1-7 3 3 5 1 10 3l6-1 2 2c-3 4-7 0-10 2-3 3 6 6 2 8q-2 4 3 4 3 0 3 2-8-1-14-7M569 679l20-33h1c4 1 1 3 3 6q-4 1-4 5l-2 4-2 1q-1 2 1 2h1q0 2-1 1l-2-1-2 1q-3-2-1 1t-1 6c0-1 0-10-3-5l-1 3-3 5q-2 4-4 4m17-21v-1l1-2-1-1h-1v3zm4-7 1-2-1-2-1 3z"/><path fill="#faf9f9" fill-opacity=".7" d="m586 654 1 1-1 2v1l-1-1zM590 647l1 2-1 2-1-1z"/><path fill="#f7f7f6" fill-opacity=".6" d="M682 784c4-2 13-2 17 1q5 2 8 2l-1 1q-14 1-28 3l-8 1q1-3-3-5 8-3 15-3c-8 4 8 4 10 3 6-4-9-3-10-3"/><path fill="#f7f7f6" fill-opacity=".3" d="m367 367 2-4c3-1 2-7 3-7 3 0 2 5 2 6v-14c0-1 2-5 3-2v1q-2 6-1 10v11c-1 5 3 4 3 9-1 5 1 2 2 5l1 1c-2 2-5-2-5-3v-4l-3-3c-4 2 1-10-6-6z"/><path fill="#f8f7f7" d="m348 823 6 1c9 5 25 12 34 19h-2l7 6q5 4 10 0c2-3 7-1 9-3l3-2 1-3 2 3-22 10c-11-14-32-24-49-30zM559 839l1-3 29-17 5-3q3 0 6-2 3-5 9-4l2-3q4-1 8 1-24 9-46 22z"/><path fill="#f7f7f6" fill-opacity=".8" d="M633 536v3h3c3-1 6 3 8 4 3 2 5 1 7 5 4 1 3 1 6 4l8 5 3 2q-5 1-8-3h-2q-1-3-5-6l-5-2q-3-3-7-4-2-1-2-3-6 0-7 4-2 5-8 3z"/><path fill="#faf9f9" fill-opacity=".7" d="M451 885zl10-4q1 3 3 3v1l1 3q-3 1-4 4c-1 1-6-1-6 3l7 1-3 1c-4-3-7 1-12 2h-5l5-1c0 2 7-2 4-3-1 0-6 4-9 2 4-2 7 1 8-4q4-3 9-2l3-3c-1 0-9 5-7-1 1-4-5 0-5 0z"/><path fill="#f7f7f6" fill-opacity=".8" d="M522 364c1 1 1-2 2-1l-2 7q-1 2-1 6c1 3 4-4 5-3l-2-7 2 1 1-1q0 1 1 7l-6 11h-3c-1 2-2-3-4-3q-2 2-1 4-2-1-1-3zm-3 16zv-6l-3 4z"/><path fill="#f7f7f6" fill-opacity=".6" d="M520 373v6l-1 1-1-1-1-2z"/><path fill="#f8f7f7" d="M587 680c3-7 59-21 68-23l6-1-4-1c5-1 26-4 30-3a354 354 0 0 0-100 28"/><path fill="#f7f7f6" fill-opacity=".6" d="M417 419c6-4-3-7-2-9 2-3 7 1 10 2q5 1 8 4c4 6-9 4-13 4zm10-2 2-1h-1l-3-1q-1-2-3-2l-2-1 1 6h2l3-1z"/><path fill="#f7f7f6" fill-opacity=".5" d="m420 412 2 1q2-1 3 2l3 1h1l-2 1h-1l-3 1h-2z"/><path fill="none" d="M394 394zc0-4-2-4-5-8q-5-4-6-9-3-3-1-9v-2q6 16 16 28l8 7c-4 0-2-2-6-2z"/><path fill="#f7f7f6" fill-opacity=".8" d="M669 368c2 3-3 5-3 7q-1 4 3 5l1 1-2 2-5 2-6 6q-2 0-3-2c-2-4 2-2 4-7l6-7z"/><path fill="#f8f7f7" fill-opacity=".3" d="m189 951 6 2 2 1h-2l-2 1-1 1h-1l-3 4v1l-2 2-2-1-2 1-2 3 1 3h1l2 6-1 2-5-7q1-9 6-16z"/><path fill="#faf9f9" fill-opacity=".6" d="m193 933 2 1h1v1l1 2h1v1l-1 1-3 1-2 1v3q4-1 6 1v2l-1 1-2-1h-4l-4-2v-3l-1-2h-1v-4l1-1h1l2-1h3z"/><path fill="#f7f7f6" fill-opacity=".6" d="M339 335c-5 1-3-1-6-2-1 1-7 0-8-1-2-3 9-7 11-8l2-3q4 1 1 5c-2 1 1 4 1 7zm-1-1 1-2-1-1h-1z"/><path fill="#f7f7f6" fill-opacity=".6" d="M337 331zl1 1-1 2h-1z"/><path fill="#f8f7f7" fill-opacity=".2" d="M815 453h2l5 2c1 2 10 2 7 6q-1 3 1 8l-3 6q-2 1-3 3l2 1h-5l2-4c1-4 3-4 1-8l-1-4 1-1 1-3q-3-3-8-4z"/><path fill="#faf9f9" fill-opacity=".3" d="M663 847q2-8 9-13 2-3 6-2-5 1-7 4l-5 8c1 2 5 0 3 6-1 2 6 5 8 6 5 0 1-3 6-5h1l1 2-5 6c-2-1-7-4-8-1l-4-2c3-1-4-8-5-9"/><path fill="#f7f7f6" fill-opacity=".8" d="M523 617c-3-4 1-2 4-3l5-1h11l-4 1c-6 2 2 2 3 2h-3q-3 0-2 3v1h1q3 4 0 4c-4 0-5-3-7 3q-1-3-3-1l-3-6h2l4-1c5 2 6-7 1-4q-3 2-7 1z"/><path fill="#f7f7f6" fill-opacity=".7" d="m416 407 7 3 2 2c-3-1-8-5-10-2-1 2 8 5 2 9q-8-3-15-7 3-2 5-3l8-2z"/><path fill="#faf9f9" fill-opacity=".7" d="M756 219v6l1 10h1l-12 2 4-1q5-2 0-5l-1-11z"/><path fill="#faf9f9" fill-opacity=".2" d="m734 742 1 1h-1q1 6 7 6l2 4q4 1 6 4l1-1 1 6v-4 18q-1 1-1 3-1-1-1 2-2 3-3 1-2 1-3 2c0-4 2-1 4-2l1-3 2-4q1-7-2-14c0-4 0-2-2-2l-1 2-1-1h1c-2-1-6-8-6-10-10-5-3-4-7-8z"/><path fill="#f7f7f6" fill-opacity=".6" d="M813 462v2c-2 3-5 0-7 1q-1 3 2 2c14 1 0 5 5 7l4 5-6-1q0-3-3-2-4 0-3-4c4-2-5-5-2-8 3-2 7 2 10-2"/><path fill="#faf9f9" fill-opacity=".6" d="M696 309zv15h-1q-6 2-8 8c-3-1-3 2-6-1l-1-2v1c2 0 4 2 6-2 0-3 7-3 7-4 2-6-6-3-6-7 1-4 7-3 8-7"/><defs><linearGradient id="t" x1="678" x2="674.9" y1="841.2" y2="836.4" gradientUnits="userSpaceOnUse"><stop offset="0" stop-color="#f8f8f7" stop-opacity=".5"/><stop offset="1" stop-color="#f9f9f8" stop-opacity=".6"/></linearGradient></defs><path fill="url(#t)" d="M684 828h4c1 1-3 6-4 8v1h-2q-2 4-5 5l-2 1q1 1-2 3s-1-4-4-3c-6 1 7-9 8-10q0 6 5 1c2-2 10-6 1-6z"/><path fill="#faf9f9" fill-opacity=".7" d="M260 599q1-4 7-4c2 0-2-12 1-11l1 4q2-3 3-5c0-1-2 11 0 12h1l1 5c-8 1-7 1-14-1m11 1zl1-3h-4l-1 1v2l1 1z"/><path fill="#faf9f9" fill-opacity=".1" d="M268 596h4l-1 3v1h-3l-1-1v-2z"/><path fill="#faf9f9" fill-opacity=".7" d="M490 601h13c1 2 1 8 3 9l-4 7-1-1-2-2v-5q3 0 4-3h-7q-3-2-6-5"/><path fill="#0d86d5" d="M763 248q11-1 23 1l3 1h2l4 2h-7l-15-2-25 3h-3v-1l4-1 2-1h2l3-1z"/><path fill="#faf9f9" fill-opacity=".2" d="M674 315q2-3-1-6c-4-3-1-5 1-8q3-3 9-2l7 1c3 2 1 5 6 6l1-4v5l-2 1c-12 2-3-5-5-7h-12c-9 7-1 4-2 10q-1 2 1 5t1 5h-1z"/><path fill="#faf9f9" fill-opacity=".4" d="m739 222 3 1 1-2v1c2-4 2-1 5-3 1-1-2-4 0-4h8l-1 1h-6q-1 3-1 4-2 0-4 2 1 3 4 2l1 3c-1 1-5 1-4 3 3 4 4-3 5 6l-4 1-1 1h-1c1-3 4-4 1-6l-3-2-3 1z"/><path fill="#f8f7f7" d="M747 244c6 0 8 1 14-2l18 1 5 2h-9q-18-2-35 5-2 2-4-1h1l5-2q3-1 5-3M369 978zl1-1 2-1 3-3v-1l3-1 1-2v-1h1v3c4-1 10-8 15-10l20-9 11-4h-1v-1h6l5-2h-5v-1l8 1q-24 7-49 20z"/><defs><linearGradient id="u" x1="388.4" x2="382.4" y1="388.9" y2="390.4" gradientUnits="userSpaceOnUse"><stop offset="0" stop-color="#f4f3f3" stop-opacity=".3"/><stop offset="1" stop-color="#f7f6f5" stop-opacity=".3"/></linearGradient></defs><path fill="url(#u)" d="M387 395zl-5-9q-1-2 1-3l2 1 3 4 3 1 3 3 1 1 5 4c4 3 3 4 8 4h1-1q-2 2-6 1 0-1-2-3l-3-2-5-4q-2-3-4 0z"/><path fill="#f7f7f6" fill-opacity=".7" d="m596 386 9 5q1 3 4 4v2q-4 1-6-3l-8 1-5-3 2-3zm3 6a1 1 0 1 0-2-2 1 1 0 0 0 2 2"/><path fill="#f7f7f6" fill-opacity=".5" d="M596 390a1 1 0 1 1 3 2 1 1 0 0 1-3-2"/><path fill="#f7f7f6" fill-opacity=".4" d="m831 413 4-1v1c2 2-1 2 3 3h1c6-2 2-3 9-2 4 1 3 9 3 13-3-9-3-3-6-6-6-5-1-4-12-5z"/><path fill="#faf9f9" fill-opacity=".5" d="M298 679v-14q0-1 0 0h1l1 1c1 5 4 0 6-1-1 4-5 3-4 8q-1 4 3 7c3 4-3 5-5 4q0-3-2-5"/><path fill="#f7f7f6" fill-opacity=".1" d="m458 901 9-3h1l5 3c5-1 6-5 5 2l2 6c-4-2-7 1-8-4-1-2 6-3 7-3h-10c-7 4-5 1-11-1"/><path fill="none" d="M299 519q10 4 16 13l1 1-2 1-5 2q-2-3-2-6v-1l-2-4c-1-5-5 1-6-6"/><path fill="#f7f7f6" fill-opacity=".3" d="M387 395zq2-3 4 0l5 4 3 2q2 2 2 3 4 1 6-1h1l4 3h-5l-4 2-6 2-3-2 4-3c2-2-2-4-3-5q-2-2-6-3z"/><path fill="#f8f7f7" d="M258 996q14 2 29 1c4-1 19-3 22-1h1c-14 3-43 4-56 2l2-1h2z"/><path fill="#f8f7f7" fill-opacity=".8" d="m264 810 3-1h2v-2l1 1q3-2 5-1c1 1 6 1 6 3q-3 2-6 3l-2 2v1q-6 0-6 4h-3q0-5 6-5l2-2-1-1z"/><path fill="#faf9f9" fill-opacity=".3" d="M748 761q3 7 2 14l-5 4-4 4 1 4c-2 0-5-4-9-3q-5 0-8 3h-2v-2q6-2 14-2l10-9c4-2 1-8 1-13"/><path fill="#faf9f9" fill-opacity=".2" d="M327 324q1 2-2 4l-1 2q-3 3-5 6l4 1 4 2q4 2 4 5h-2q-5-4-12-4-2-3 1-6c2-3 6-3 3-7z"/><path fill="#f7f7f6" fill-opacity=".8" d="M771 216h1l1 11-4 1-4 1 1-1q4-1-1-4c0-8-1-7 6-8"/><path fill="#f7f7f6" d="m448 311 25 2c-4 3-18 4-22 1l-7-3z"/><path fill="#faf9f9" fill-opacity=".7" d="M780 220zv1q-1 4 1 7v1l5-1-2 1-3 1v5h-8v-6c13-3-2-6 6-9"/><path fill="#c1c1c0" fill-opacity=".9" d="M773 216zh8v5h-1v-1h-7v15h-7l-2-1q2-2 3-2c4-1 2-2 5 0v-5z"/><path fill="#f7f7f6" fill-opacity=".8" d="m551 674 2-7v6q2 1 3-1v-6c1 0 2 5 5 6q3 1 1 4t-3 5q-2 2-4 1 3-1 2-3l-2-4-2-1h-1v6z"/><path fill="#faf9f9" fill-opacity=".5" d="m313 655 7 2h-1l-3 1q-3 2-7 4l-3 3c-2 1-5 6-6 1 5 1 8-3 1-6 4 0 3-2 6-3l5-1z"/><path fill="#f7f7f6" fill-opacity=".6" d="m473 924-1-9-3-4c1-1 3 4 6 3q5 4 4 9-4 2-6 8l-5 1q6-3 8-9z"/><path fill="#f8f7f7" d="m563 677 2-6c2-1 0-4 2-5v3l1-1 1-1 5-7-3-1 1-1c3 3 2-2 3-3 2-1 4 1 3-3l2-4c7 1-1-7 6-5h1z"/><path fill="#f8f7f7" fill-opacity=".8" d="m550 792 1-1h1l1 2c1 4-5 2-5 7 1 1-4 0-3 4h-1l-2-2c-3 2 1 5 0 7-2 0-2-6-2-7q2-6 8-9c1 1 1 6 3 0zm-3 7a1 1 0 1 0-2-2 1 1 0 0 0 2 2"/><path fill="#f7f7f6" fill-opacity=".8" d="M546 797a1 1 0 1 1 0 3 1 1 0 0 1 0-3M289 523q6 3 12 2 3 1 6 4v1q0 3 2 6l-1 1c-1 1-1 5-4 4l-1-4c-2-4 2-5 1-8l-4-3c-2 0-11 0-11-3"/><path fill="#f8f7f7" fill-opacity=".6" d="M476 923q-2 6-8 9h-1v1h-1v2l1 1 2 1h-2q-4-3-9-1l1-3q2-3 5-3 4 1 6-2l3-3z"/><path fill="#f7f7f6" fill-opacity=".5" d="M811 460h-2l7-1 2 2-2 4q2 4-3 9c-5-2 9-6-5-7q-3 0-2-2c2-1 5 2 7-1v-2zM684 828q2-3 6-3 3-1 4-3 2-2 5-1c3 2-2 3-4 4-3 4-7 3-7 10q-1 2-4 2v-1c1-2 5-7 4-8z"/><path fill="#f8f7f7" fill-opacity=".4" d="m640 535 11 7 1 2v1q0 3 3 2 3 0 3 3c1 2 5 0 5 4l2 3-8-5c-3-3-2-3-6-4-2-9-2-1-6-7-2-2-7-1-5-6"/><path fill="#faf9f9" fill-opacity=".1" d="m188 950 1 1zl-4 3q-4 7-6 16l-1-1h1l1-3-1-6q-2-1-2-4c1-5 5-2 9-5l2-1z"/><path fill="#f8f7f7" fill-opacity=".8" d="M286 764h2l4 2v1l-3 1h-9l-6 2-1 2h-4l-1-4 7-3c3 2 14 6 11-1"/><path fill="#f8f7f7" d="M309 959h1q5 1 6-1l5-2h10l-3 1-8 1-6 2h-3l-3 1h-3l-12 1h-3l-1-1h5l9-2z"/><path fill="#faf9f9" fill-opacity=".1" d="m184 943-1-3h-1c4-2-8-8 3-9h4l4 2-1 1h-3l-2 1h-1l-1 1v4h1l1 2v3l-1-1z"/><path fill="#faf9f9" fill-opacity=".8" d="M756 216h7v4q-1 2-1 6v-1l-4 4v-1z"/><path fill="#faf9f9" fill-opacity=".4" d="m304 653 2 1c-3 3-5 2-5 6 7 3 4 7-1 6l-1-1h-1q0-1 0 0v14l-1-1c0-2-2-16 0-16q4-2 4-5z"/><path fill="#f8f7f7" fill-opacity=".9" d="m380 592 6-4q3-1 2 3l-4 4-4 5s-5 3-6 2v-1q-2 1-2-1v-1l2-2c1 6 6 0 7-1q2-1 2-3zm7-1a1 1 0 1 0-2-2 1 1 0 0 0 2 2"/><path fill="#f8f7f7" fill-opacity=".8" d="M385 589a1 1 0 1 1 2 2 1 1 0 0 1-2-2"/><path fill="#f8f7f7" d="M786 413q1-1 3-1l-1 1 13 1 5-2 10-1c6 2 11-5 17-2l-14 3-2 1q-16 4-31 0"/><path fill="#f8f7f7" fill-opacity=".1" d="M722 623zl3 10 1 3v2q0 4-1 6-3 3-2 6c-4-3-1-4 1-7 2-1-2-5-2-6q-2-6 0-13"/><path fill="#f8f7f7" fill-opacity=".5" d="m790 225 1-1 2-1h1l-1 3c-1-1 0 3-3 3l-3 7-5-1v-5l3-1 2-1 2-2z"/><path fill="#f7f7f6" fill-opacity=".4" d="M389 396q4 1 6 3c1 1 5 3 3 5l-4 3-4-3 1-2-3-4z"/><path fill="#faf9f9" fill-opacity=".3" d="M723 651c-7-7 0-5-3-13-2-3-1-12 2-15q-1 7 0 13c0 1 4 5 2 6-2 3-5 4-1 7l1 1z"/><path fill="#faf9f9" fill-opacity=".7" d="M282 519zl4-1q2 3 5 2l3 1c-1 2 5 3 6 4q-6 1-12-2l-1-1-3-2 1 4h-5q1-3 1-4z"/><path fill="#f7f7f6" fill-opacity=".8" d="M782 216c3 1 1 2 3 3l3 1 1 6-2 2-5 1v-13"/><path fill="#faf9f9" fill-opacity=".2" d="M298 654q2-3 6-1l-3 4q0 3-4 5c-2 0 0 14 0 16-3-7-1-12-3-16l-1-1 2-3c0 1 4 3 4-2z"/><path fill="#faf9f9" fill-opacity=".4" d="M688 850c-3-3-3 3-4 0q-2-3 1-5c3-1 1-4 4-5l2-2v4q0 1 1 4z"/><path fill="#f8f7f7" fill-opacity=".5" d="m592 384 3 2h1l-4 3-2 3-9-8 1 1c5 1 4-2 9-1z"/><path fill="#f7f7f6" fill-opacity=".4" d="m397 409 6-2 4-2h5l4 2h-1l-8 2q-3 1-5 3z"/><path fill="#f8f7f7" fill-opacity=".9" d="M365 945h3-1zl-1 1h4v1h-4l-1 3v2h-3l-1 1-2-1-1-1h-1v2l1 1-2 2h-4l-2-2v-1h1l1 2h3l2-1-1-1-1-1-1-1h-1l5-2 4 2 2-1v-1l-1-2h-2z"/><path fill="#faf9f9" fill-opacity=".9" d="M424 582v-2h4l-2-1-1-3c0-2 6 1 6-2q1-2 3-2l1 3v1c-4 4-5 5-11 6m5-3q2 0 1-2v-1h-3l-1 2 1 1z"/><path fill="#faf9f9" fill-opacity=".8" d="M427 576h3v1q1 2-1 2h-2l-1-1z"/><path fill="#f8f7f7" fill-opacity=".3" d="M851 428c2 6-4 5-2 9q-4 3-4 6l-6 1 9-12c1-2 2 0 3-4"/><path fill="#f7f7f6" d="m329 855 7 1q1 2 4 3h1-1q2 2 5 3l10 9q5 2 6 7c-12-11-17-15-32-23"/><path fill="#f8f7f7" fill-opacity=".6" d="m636 533 4 2c-2 5 3 4 5 6 4 6 4-2 6 7-2-4-4-3-7-5-2-1-5-5-8-4h-3v-3z"/><path fill="#f8f7f7" d="m562 364 2-6 7 20q-7-6-9-14"/><path fill="#faf9f9" fill-opacity=".8" d="m758 229 4-4v1q0-4 1-6l-1 9 2 2q0 0 1 3l2 1h-10z"/><path fill="#f8f7f7" d="M785 370q6 0 5 3l4 1q-1 2 3 0c3-1 8 2 9 0h3v-1h3c0-1-3-3 1-2l8 1c-10 4-27 8-35-1z"/><path fill="#f8f7f7" fill-opacity=".7" d="m341 529 19-1c1 3-1 1-1 3h-10z"/><defs><linearGradient id="v" x1="532.8" x2="536.5" y1="624.7" y2="628.1" gradientUnits="userSpaceOnUse"><stop offset="0" stop-color="#f9f9f8" stop-opacity=".8"/><stop offset="1" stop-color="#f9f8f8" stop-opacity=".9"/></linearGradient></defs><path fill="url(#v)" d="M537 620h1q5 0 2 5c-1 5 0 1-5 5l-4-3c2-6 3-3 7-3q3 0 0-4z"/><path fill="#f8f7f7" d="M785 349v5q1 5-1 9v6q-6-10 1-20"/><path fill="#faf9f9" fill-opacity=".5" d="m466 888 4-1-4 2q0 4 4 4l-7 3-7-1c0-4 5-2 6-3q1-3 4-4"/><path fill="#faf9f9" fill-opacity=".3" d="m287 518 12 1c1 7 5 1 6 6l2 4q-3-3-6-4c-1-1-7-2-6-4l-3-1q-3 1-5-2"/><path fill="#f7f7f6" fill-opacity=".7" d="M763 217c2 1 0 9 2 12l4-1 4-1v5c-3-2-1-1-5 0q-1-1-3 2-1-3-1-3l-2-2 1-9z"/><path fill="#faf9f9" d="M797 471c-3-4-7-18 0-17l8 1c-2 3-6-2-10 3 0 3 3 2 1 7z"/><path fill="none" d="m787 236 3-7c3 0 2-4 3-3l1 11h-2z"/><path fill="#faf9f9" fill-opacity=".1" d="M475 882v8h-1l-4 3q-4 0-4-4l4-2q4-1 1-3 3-3 3 2z"/><path fill="#f7f7f6" fill-opacity=".9" d="M468 829q2 0 2-3l2-5 1-6 1 4v-8q1 9-1 17l-1 4c-2-1 0-3-4-3"/><path fill="#f7f7f6" d="M448 899c5-1 8-5 12-2l-28 10-1-1 7-3 3-1z"/><path fill="#faf9f9" fill-opacity=".1" d="M667 787q4 2 3 5l-8 2-2-3q2-4 5-3zM739 222zq2-6 10-8v2h-1c-2 0 1 3 0 4-3 2-3-1-5 3v-1l-1 2z"/><path fill="#f7f7f6" fill-opacity=".6" d="M539 829zq2-2 3 2 0 2 1 5 2-1 5-1c1 4-2 8 1 9h-3l1-5q-1-4-6-1z"/><path fill="#faf9f9" d="m501 616 1 1c-2 4-7 12-11 15v-4c3-2 4 1 4-4q-1-2 2-3 1-2 3-5z"/><path fill="#faf9f9" fill-opacity=".9" d="M368 530q4 1 5 3v4l-5-2c0-5-13-1-14-3h7z"/><path fill="none" d="m511 600-5 10c-2-1-2-7-3-9z"/><path fill="#f8f7f7" fill-opacity=".2" d="m843 338 1 1q5 4 0 9v9l-3 3c-2-1 2-6 3-7z"/><path fill="#faf9f9" fill-opacity=".7" d="M269 526c7 5 5-2 10-2q-3 1-3 4-3 3-7 1c-1 1 1 3-3 4l-1-4z"/><path fill="#f8f7f7" fill-opacity=".2" d="m665 557-2-3c0-4-4-2-5-4q0-3-3-3-3 1-3-2v-1c2 3 1 3 6 3l5 3 2 5 4 1-1 3z"/><path fill="#f8f7f7" fill-opacity=".6" d="M650 792h2c7-1 4-5 13-4q-3-1-5 3l2 3-6 1q-1-3-6-3"/><path fill="#faf9f9" fill-opacity=".1" d="m268 768 1 4-6 5v1c-4 1-2-1-2-4z"/><path fill="#faf9f9" fill-opacity=".9" d="m401 923 12-5v1l-2 2c3 4-1 5-3 4l-2-2q-2 2-5 0"/><path fill="none" d="m781 212 9 3-2 5-3-1c-2-1 0-2-3-3z"/><path fill="#f8f7f7" fill-opacity=".3" d="M682 784c1 0 16-1 10 3-2 1-18 1-10-3"/><path fill="#f8f7f7" d="M270 840c7-2 18-4 23 2z"/><path fill="#f7f7f6" d="M269 772h4q0 4-4 5c-1 0-4 7-6 0z"/><path fill="#f8f7f7" fill-opacity=".6" d="m511 319 17 3-5 1c-10 2-7 3-12-4"/><defs><linearGradient id="w" x1="777.4" x2="774.4" y1="223.4" y2="224.9" gradientUnits="userSpaceOnUse"><stop offset="0" stop-color="#f0f0f0" stop-opacity=".7"/><stop offset="1" stop-color="#f0f0f0" stop-opacity=".8"/></linearGradient></defs><path fill="url(#w)" d="M774 229v-9h6c-8 3 7 6-6 9"/><path fill="#f7f7f6" fill-opacity=".7" d="m402 319 8-1c3-1 15 1 16-1h-2l6-1h1l-1 1 2 1c-5 1-26 2-30 1"/><path fill="#f8f7f7" fill-opacity=".1" d="m485 916 2-1c-2 8-4 11-10 17q1-6 4-9 4-3 4-7"/><path fill="#f7f7f6" fill-opacity=".6" d="m681 829 2-1c9 0 1 4-1 6q-5 5-5-1 3 0 4-4m3 3 1-2v-1h-3l-1 1v1l1 1z"/><path fill="#faf9f9" fill-opacity=".8" d="M682 829zh2v1l-1 2h-2l-1-1z"/><path fill="#f7f7f6" fill-opacity=".7" d="M677 354q0-4 2-7 2-1 3-1l2 4v2h-1c-4 0-1 3-6 2m3-2 1-1v-2l-1-1-1 2z"/><path fill="#f7f7f6" fill-opacity=".6" d="m680 348 1 1v2l-1 1-1-2z"/><path fill="#f7f7f6" fill-opacity=".7" d="M826 374c1 6-5 2-5 5 1 2 7-1 9-2l-2 2c-1 2-9 2-9 0l-5-2z"/><path fill="#faf9f9" fill-opacity=".4" d="M281 520zl1 1zq0 1-1 4h-2c-5 0-3 7-10 2l7-5q3 6 5-1"/><path fill="#f8f7f7" fill-opacity=".5" d="m468 932 5-1q2-6 6-8c-1 3-6 7-4 10v1h-1l-1 1-1-1-2-1-2 1v1l1 1 1 1h-1l-2-1-1-1v-2h1z"/><path fill="#faf9f9" fill-opacity=".9" d="M549 834c3 2 1 2 2 3l4 2q2-2 1-4h2v3l-4 3-4 1 2 1h-2c-3-1 0-5-1-9"/><path fill="#f8f7f7" fill-opacity=".8" d="m380 592 3 1q1 2-2 3c-1 1-6 7-7 1z"/><path fill="#f8f7f7" d="m777 387-2 17q-3-8 1-16z"/><path fill="#f8f7f7" fill-opacity=".6" d="m306 654 7 1-1 1-5 1c-3 1-2 3-6 3 0-4 2-3 5-6"/><path fill="#f8f7f7" fill-opacity=".3" d="M383 329v-5l5-5q5 0 5 4h-2l-2-2q-4 2-4 5z"/><path fill="#faf9f9" fill-opacity=".7" d="M525 616q4 1 7-1c5-3 4 6-1 4l-4 1q2-4-2-4"/><path fill="#f7f7f6" fill-opacity=".5" d="M404 315q3 0 2 2c-2 2-9 0-10 5l-2 1 1-4 1-1-3 1v-1q2 0 2-1c4-1 6 1 9-2"/><defs><linearGradient id="x" x1="592.1" x2="593.9" y1="642.6" y2="645.8" gradientUnits="userSpaceOnUse"><stop offset="0" stop-color="#faf9f9" stop-opacity=".8"/><stop offset="1" stop-color="#faf9f9" stop-opacity=".8"/></linearGradient></defs><path fill="url(#x)" d="m590 646 3-3q3-5 3 2-1 3-3 5v2c-2-3 1-5-3-6"/><path fill="#faf9f9" fill-opacity=".6" d="M552 680v-6h1l2 1 2 4q0 2-2 3l-2-1z"/><path fill="#faf9f9" fill-opacity=".5" d="M260 816c5-1 2-2 5-4q3 0 5 3-6 0-6 5z"/><path fill="#f8f7f7" fill-opacity=".5" d="M348 823c-2-4 8-2 10-2q2 3-3 3h-1z"/><path fill="#f8f7f7" fill-opacity=".4" d="M704 592c7 1 5 8 9 5l4 9c-6 1-2-3-4-7h-3c-3-1-1-4-4-6z"/><path fill="#f7f7f6" fill-opacity=".8" d="M845 398c-1 0-5 3-5 0 0 0 6-10 7-6q-4 2 0 4z"/><defs><linearGradient id="y" x1="513.8" x2="519.2" y1="383" y2="384.8" gradientUnits="userSpaceOnUse"><stop offset="0" stop-color="#f4f3f3" stop-opacity=".7"/><stop offset="1" stop-color="#f2f2f2" stop-opacity=".8"/></linearGradient></defs><path fill="url(#y)" d="M514 385q-1-2 1-4c2 0 3 5 4 3h3l-3 3q-3 1-5-2"/><path fill="#faf9f9" fill-opacity=".6" d="M303 959zh-3v-2l6-1 5 1v2h-7"/><path fill="#f8f7f7" fill-opacity=".2" d="M340 333c2-3 2-1 5-2 0-1-2-8 2-6l-1 6-3 1zl-3 4-1 4h-1c-3-3 1-4 3-6z"/><path fill="#faf9f9" fill-opacity=".5" d="M275 765h1l10-1c3 7-8 3-11 1"/><path fill="#f8f7f7" d="M239 996c3-2 15-1 19 0v1h-2l-2 1-6-1h-5z"/><path fill="#f7f7f6" fill-opacity=".8" d="m443 596 6 1c-3 3-3 4-8 3l-2-2z"/><path fill="#f7f7f6" fill-opacity=".4" d="M566 685c1-1 6-8 6-3 1 2-4 5-5 8l-1 1q-2 0-2-2c2 2 6-5 2-4"/><path fill="#c1c1c0" fill-opacity=".9" d="m749 227-1-3q-3 1-4-2 2-2 4-2 0-1 1-4v4l1 11z"/><path fill="#f8f7f7" fill-opacity=".8" d="m641 748 12-2v1l-1 1c0 4-6 1-6 1z"/><path fill="#f8f7f7" fill-opacity=".5" d="m653 796-6-2q0-3 3-2 5 0 6 3z"/><path fill="#faf9f9" d="M749 216h6l1 3-7 1z"/><path fill="none" d="M721 619c-4 2-6-4-3-8v-1z"/><path fill="#f8f7f7" d="M269 820c2 0 13-3 14-2l-9 4z"/><defs><linearGradient id="z" x1="823.1" x2="824.9" y1="379.5" y2="375.5" gradientUnits="userSpaceOnUse"><stop offset="0" stop-color="#f4f3f3" stop-opacity=".6"/><stop offset="1" stop-color="#f3f3f3" stop-opacity=".7"/></linearGradient></defs><path fill="url(#z)" d="M826 374zv1c2 5 5 1 8 0h1-1q-2 4-5 3c-2 1-8 4-9 2 0-3 6 1 5-5"/><path fill="#faf9f9" fill-opacity=".6" d="M257 782q0-5 4-8c0 3-2 5 2 4-1 4-4-1-3 6q-1-2-3-2"/><path fill="#faf9f9" fill-opacity=".7" d="M468 829c4 0 2 2 4 3v2q-4-1-1 5-4-4-3-10"/><path fill="#f8f7f7" fill-opacity=".1" d="M849 389h2c-4 3 1 2 2 2l-3 6-2-2c0-4-1-3 1-6"/><path fill="#f7f7f6" fill-opacity=".5" d="M677 856q-2-3-1-6 3 1 2 3c2-1 1-5 6-2h-1c-5 2-1 5-6 5"/><path fill="#f7f7f6" fill-opacity=".9" d="M279 524h4q0 6-7 4 0-3 3-4"/><path fill="none" d="m589 381 3 3h-1c-5-1-4 2-9 1 3-5 0-4 7-4"/><path fill="#faf9f9" fill-opacity=".9" d="m560 360-3-12 4 5c-2 4 1 3-1 7"/><path fill="#f7f7f6" fill-opacity=".3" d="m742 787-1-4 4-4 5-4-2 4-1 3c-2 1-4-2-4 2z"/><path fill="#f8f7f7" fill-opacity=".8" d="M416 310h11l-2 1h4l5 1-10-1c-5-1-5 3-8-1"/><path fill="#f7f7f6" fill-opacity=".7" d="M790 217h2c1-1 1 6 2 6h-1l-2 1-1 1z"/><path fill="#faf9f9" d="M343 660c3-2 10 1 15 0h1-10 8l4 1c-8 1-10 0-18-1"/><path fill="#f8f7f7" fill-opacity=".1" d="M702 588q4 3 8 5l3 4c-4 3-2-4-9-5z"/><path fill="#faf9f9" fill-opacity=".6" d="m561 353 3 5-2 6-2-4c2-4-1-3 1-7"/><path fill="#f7f7f6" fill-opacity=".8" d="M216 991zl3-2 7 1v2h-2l-1-2h-2v2h1-2l-2 1z"/><path fill="#f8f7f7" fill-opacity=".3" d="M847 395zl2 2-5 6v-5z"/><path fill="#faf9f9" fill-opacity=".9" d="m458 846 1-3q3 1 7-2h1q-5 2 0 3-4 1-3 3l-2 1-3-1h1c5 0 3-4-2-1"/><path fill="#faf9f9" d="M439 553q4 6 1 14c-2-2-1-11-1-14"/><path fill="#faf9f9" fill-opacity=".3" d="M257 782q2 0 3 2 0 5-5 3z"/><path fill="#f8f7f7" fill-opacity=".8" d="M438 903h-5v-2l4-1h2v1l2 1z"/><path fill="#faf9f9" fill-opacity=".9" d="m385 538 3 2-1 3v1c-5-2-1-3-8-4l4-1z"/><path fill="#f8f7f7" d="M502 405zl2-2c-2-1-5 2-5 1l3-2c5-1 2-3 8-3z"/><path fill="#faf9f9" d="M471 884q3 2-1 3l-4 1-1-3v-1z"/><path fill="#faf9f9" fill-opacity=".5" d="m749 227 1 4q5 3 0 5c-1-9-2-2-5-6-1-2 3-2 4-3"/><path fill="#faf9f9" fill-opacity=".7" d="M849 389q1-3-2-5l1-1 1-1c2 2 7 5 2 7z"/><path fill="#faf9f9" fill-opacity=".5" d="m360 528 8 2-7 2-2-1c0-2 2 0 1-3"/><path fill="#faf9f9" d="M565 685v2l-1 2q0 2 2 2l-7 4z"/><path fill="#f8f7f7" fill-opacity=".8" d="m349 953 3-1h1l1 1 1 1 1 1-2 1h-3l-1-2z"/><path fill="#faf9f9" fill-opacity=".2" d="m839 411 3-1q2 3 6 4c-7-1-3 0-9 2h-1c4-4 2-2 1-5"/><path fill="#faf9f9" fill-opacity=".1" d="M839 411c1 3 3 1-1 5-4-1-1-1-3-3v-1z"/><path fill="#c1c1c0" fill-opacity=".9" d="m763 216 1-1q3 2 7 1c-7 1-6 0-6 8l1 4-1 1c-2-3 0-11-2-12z"/><path fill="#f8f7f7" fill-opacity=".8" d="m386 658 3-2 3 1c1 3-4 4-5 3z"/><path fill="#faf9f9" fill-opacity=".9" d="M400 924s8 3 0 4q-2 0-3-3z"/><path fill="none" d="m669 556 1 2c1 2 6 1 2 5l-4-4z"/><path fill="#f8f7f7" fill-opacity=".8" d="m383 866-5 2c-2-1-2-6 2-4h1z"/><path fill="#f8f7f7" fill-opacity=".7" d="m357 950 3-2h2l1 2v1l-2 1z"/><path fill="#f8f7f7" fill-opacity=".5" d="m380 536 5 2-2 1-4 1q-2-3 1-4"/><path fill="#faf9f9" fill-opacity=".9" d="M535 630c2 4 2 1 4 4q1 2-1 2c1-1 0-5-3-1l-1-1z"/><path fill="#f8f7f7" fill-opacity=".7" d="M669 380c-4-5 0-9 2-1l-1 2z"/><path fill="#faf9f9" fill-opacity=".1" d="M672 858c1-3 6 0 8 1q-3 3-7 0z"/><path fill="#f8f7f7" fill-opacity=".9" d="m392 928 3 1c1 4-4 3-5 0z"/><path fill="#f8f7f7" fill-opacity=".7" d="m430 593 4 1c-1 0-8 3-8 1z"/><path fill="#faf9f9" fill-opacity=".7" d="m531 627 4 3-1 4-4-5z"/><path fill="#f8f7f7" fill-opacity=".1" d="M385 326q1-3 4-5l2 2z"/><path fill="#c1c1c0" fill-opacity=".9" d="M790 215v10l-1 1-1-6z"/><path fill="#faf9f9" fill-opacity=".7" d="m464 720-1-3q3-2 5 0l-2 3z"/><path fill="#faf9f9" fill-opacity=".3" d="m694 836 3-2-1 1-1 5q-2 3-2-2z"/><path fill="#f7f7f6" fill-opacity=".2" d="M364 351zh1c2-1 3 4 0 6z"/><path fill="#faf9f9" fill-opacity=".6" d="M325 533h1l3-1 3-1c-1 6-2 4-7 2"/><path fill="none" d="m298 654 1 2c0 5-4 3-4 2z"/><path fill="#faf9f9" fill-opacity=".2" d="M334 319q1 8-5 3z"/><path fill="#f7f7f6" fill-opacity=".4" d="m386 400 2-2 3 4-1 2z"/><path fill="#faf9f9" fill-opacity=".5" d="m230 842 9-4q0 2 1 3z"/><path fill="#f7f7f6" fill-opacity=".7" d="M641 800c-7-2-2-6 3-1z"/><path fill="#faf9f9" fill-opacity=".1" d="M525 616q4 1 2 4h-2l-2-3z"/><path fill="#c1c1c0" d="M756 215zl2 12-2-3v-6z"/><path fill="#faf9f9" fill-opacity=".6" d="m388 540 5 2-6 2v-1z"/><path fill="#f8f7f7" fill-opacity=".7" d="m380 588-4-1v-2l5 1h1z"/><path fill="#faf9f9" fill-opacity=".1" d="m651 542 7 5c-5 0-4 0-6-3z"/><path fill="#faf9f9" fill-opacity=".6" d="m244 563 1-6c3 4 2 2 1 6z"/><path fill="#faf9f9" fill-opacity=".8" d="M458 846c5-3 7 1 2 1h-1z"/><path fill="#f7f7f6" fill-opacity=".2" d="M359 341q6-2 3 4z"/><path fill="#faf9f9" fill-opacity=".5" d="M248 589c3-4 4 0 2 3z"/><path fill="#f8f7f7" fill-opacity=".1" d="M399 398c4 0 2 2 6 2l2 2c-5 0-4-1-8-4"/><path fill="#f8f7f7" d="m554 684 4-1q-2 7-4 1"/><path fill="#c1c1c0" d="M782 811zl6 3-9-1z"/><path fill="none" d="m368 369 1-1q3 2 0 5z"/><path fill="#faf9f9" fill-opacity=".2" d="m276 521 5-1q-2 7-5 1"/><path fill="#faf9f9" fill-opacity=".3" d="M566 685c4-1 0 6-2 4l1-2z"/><path fill="#faf9f9" fill-opacity=".4" d="m470 937-1-1-1-1v-1l2-1 2 1 1 1z"/><path fill="#faf9f9" fill-opacity=".8" d="M314 537h2l1-1c1 1 5 3 1 3z"/><path fill="#f8f7f7" fill-opacity=".6" d="M243 579q6 2 2 6z"/><path fill="#f8f7f7" d="M538 806q3 4-1 6z"/><path fill="#f8f7f7" fill-opacity=".8" d="M544 643q4-6 3 2zM550 792l1 1c-2 6-2 1-3 0z"/><path fill="#faf9f9" d="M322 651q5-1 5 3z"/><path fill="#f7f7f6" fill-opacity=".7" d="m191 982 3-1 1 1v2z"/><path fill="#c1c1c0" fill-opacity=".8" d="m756 225 2 3v1l-1 6z"/><path fill="#f7f7f6" fill-opacity=".6" d="M577 667zc2 0 1 5-2 2z"/><path fill="#f8f7f7" fill-opacity=".5" d="M471 839q-2-6 1-5z"/><path fill="#f8f7f7" fill-opacity=".8" d="M415 840zl-1 3q-5-2-1-3z"/><path fill="#f7f7f6" fill-opacity=".4" d="M831 372q1 4-3 1z"/><path fill="#f7f7f6" fill-opacity=".6" d="M659 744h4c-1 3 1 4-4 0"/><path fill="#c1c1c0" fill-opacity=".8" d="M781 221zv7q-2-3-1-7"/><path fill="#f8f7f7" fill-opacity=".7" d="M222 991zv-2h2l1 2z"/><path fill="#f8f7f7" fill-opacity=".8" d="M535 635c3-4 4 0 3 1l-1 1z"/><path fill="#f8f7f7" fill-opacity=".9" d="M847 396q-4-2 0-4v4"/><path fill="#c1c1c0" fill-opacity=".8" d="m781 213 1 3h-6q6 2 5-3"/><path fill="#f7f7f6" fill-opacity=".8" d="M765 224q5 3 1 4z"/><path fill="#faf9f9" fill-opacity=".6" d="M528 626q2-2 3 1l-1 2z"/><path fill="#faf9f9" fill-opacity=".9" d="M467 841v3q-5-1 0-3M288 624l2-2q1 2-1 3z"/><path fill="#c1c1c0" fill-opacity=".7" d="m773 212 1 4h-1v-4"/><path fill="#fc8140" d="m735 736 2 1q0 2-1 0z"/><path fill="none" d="m726 794 3 1h-3z"/><path fill="#f8f7f7" fill-opacity=".2" d="M773 213v-1z"/><defs><linearGradient id="A" x1="546.1" x2="479.9" y1="815.2" y2="651" gradientUnits="userSpaceOnUse"><stop offset="0" stop-color="#fffefd" stop-opacity=".3"/><stop offset="1" stop-color="#fefefe" stop-opacity=".9"/></linearGradient></defs><path fill="url(#A)" d="m480 680 3-7 8-16 12-11 9-7c2-1 7 5 9 5q10 4 14 13 4 5 6 12 2-6-1-12h-1v-2q3 0 4 2h1q1 3-2 6l1 1 2-3 2-3 1-2c-1 13-2 19 3 31q-4 0-4-4c0-1 0-10-3-3 0 1-1 7 2 6l2 1-1 5-3 1q-1 6 3 7c-6 11-11 8-15 25q-3 2-1 4h-1v7l1-1 1 2v1l-1 1q-2 2-2 5h1l1 1 2-1 2 3-3 3q-1 1-2 3l1 2c1 3 5-1 3 6q1 1 1 3c0 2 4 2 4 3v4q0 2 3 3h2l2 4v5q-2 4 1 3-2 6-8 10l-3 5q0-1-1-1-7-1-9 7l-4-2c-3 2-1 15-1 19h-1c-2-5 0-13-1-15-5 6 0 13-14 13v10c0-8 0-9-7-12-3-1-5-5-8-4q-5 2-3 8l1-3 1 1-1 4h-2c-2-5 1-15-4-18h-2l2-3-1-3-1-3c-4-2-3-1-2-5q-1-3 0-6c1-3 0-15-6-7q0 4-4 5l5-11c7-16 10-26 4-43 5-2 0-9-1-3l-4-5 4-10 1 5c4 5 6-8 5-10v2c-3-3-1-1-5-2 1-8 0-11-1-18 6-2 4-6 4-11m1 88q-3-1-5 2 5 1 5-2"/><path fill="#faf9f9" fill-opacity=".4" d="M476 770q2-3 5-2 0 3-5 2"/><defs><linearGradient id="B" x1="688.7" x2="738.9" y1="380.8" y2="389.1" gradientUnits="userSpaceOnUse"><stop offset="0" stop-color="#f9f8f8" stop-opacity=".9"/><stop offset="1" stop-color="#f7f6f6" stop-opacity=".9"/></linearGradient></defs><path fill="url(#B)" d="M727 331q9 0 16 5 9 14-4 26c-6 6-14 8-20 14h-2c-5 0-2 4-3 6 0 1-1 7 1 6v-3l1 3v18h-1l1 3 1-2v4l1 2-1 4c-1 1-2 15 0 17h1v2l-1 1v1l-3 3h-1v-2c2-2-1-4-1-6 0 0 0-4-1-2v1q-2 4-3 1l-2-2-1-1-1 3v1l-1-2v-7q-3-5-1-11v-5q3 2 2-3 0-2-3-3c-1-1 2-3 0-4l-1 1-2-3q2 1 2-2c-7 2 1-3-8-6v-6q1-3-3-4v-2l3-11v-1l2-3 9-15q2 3 4 2l10-7c5-2 2-4 6-6h1q6 1 3-5m-1 9a1 1 0 1 0-2-3 1 1 0 0 0 2 3"/><path fill="#f7f7f6" fill-opacity=".9" d="M724 337a1 1 0 1 1 2 3 1 1 0 0 1-2-3"/><path fill="#faf9f9" fill-opacity=".8" d="m689 391 6 9c-5 3 0 8 0 7v-5l3 4c-2 10-2 12-1 22l-3 15v3h-2q-4-3-8-1-5-7-3-16v-33q1-3 4-1 3-1 3 2l3 2c0-4-4-4-2-8"/><path fill="#faf9f9" fill-opacity=".4" d="m679 556 1-2-5-5c0-1-6-3-6-5h1l-3-1 1 2h-2l-2-6s0-7-1-3l-1 2v-3q1-3 1-5l3-2q3-1 5-1l3 2q2 3 5 5l4 4 7 5v1q4 5 3 9l-3 3-3 1h-3l-3 1z"/><path fill="#faf9f9" fill-opacity=".5" d="M521 622zq0 3-2 3c-3 0-4 5-7 6l-4 2c1 1 3-2 5-1l4 3 7 3q2 3 3 1l12 13c1 1 3-3 4 4h-1q0-2-4-2v2h1q3 6 1 12-2-7-6-12-4-9-14-13l-4-5c-5-7-8-3-13 1q-4 4-9 5c-2 0-7 5-9 7l-2 3c0 2-4 2-3 5q2 2 1 3l-2 3h-1c-3 1-3-7-3-9v-1l1 4c4 1 2-3 4-4q3-2 4-5l4-5 4-4 6-7c3-4 4-2 5-6q4-1 7 0l4-4 5-1z"/><path fill="#faf9f9" fill-opacity=".3" d="M663 545c0-5-7-8-7-12 1-3 5-11 9-12 5 7 18 13 27 16l4 3 10 1h1-1c-7 2-5 2-13 0l-1 3h-2v-1l-7-5-4-4q-3-2-5-5l-3-2q-3 0-5 1l-3 2q0 2-1 5v3l1-2c1-4 1 3 1 3l2 6h2l-1-2 3 1h-1c0 2 6 4 6 5l5 5-1 2-4-2q0-7-5-4z"/><path fill="#faf9f9" fill-opacity=".6" d="M486 652c2-2 7-7 9-7q5-1 9-5c5-4 8-8 13-1l4 5c-2 0-7-6-9-5l-9 7-12 11-8 16-3 7-1-3 3-8 4-6v-1q4-3 0-7h-1z"/><path fill="#f7f7f6" fill-opacity=".5" d="M688 347c1-8 1-20 11-20-2 3-8 2-3 6l4 1c2 6 4 2 10 2q-8 7-15 16c0-1 0-6-2-5h-5"/><path fill="#faf9f9" fill-opacity=".2" d="M503 623c4 3 4-1 7-1 4-1 4-7 7-3q2 5 3 2l1 1-1 2-5 1-4 4q-3-1-7 0c-1 4-2 2-5 6l-6 7-4 4-3 2c-3 2-2 6-5 6q-1-1-1-3l4-5q2 3 4-1 3-2 4-5l-2-1 9-11c2 8 5-1 4-2l-3 1z"/><path fill="#faf9f9" fill-opacity=".6" d="M485 655zq4 4 0 7v1l-4 6-3 8 1 3c0 5 2 9-4 11v-1c2-2 3-7 0-3q-6-16 0-30c0 2 0 10 3 9l1 2c2 0 4-5 5-7q3-3 1-6z"/><path fill="#faf9f9" fill-opacity=".1" d="M535 747q6 14 10 27l1 3v1l-2-4h-2q-3-1-3-3v-4c0-1-4-1-4-3q0-2-1-3c2-7-2-3-3-6l-1-2q1-2 2-3zM525 639c0-3-6-7 1-9l16 16 3 5h-2q-3 0-4-3l-3-2q-3-2-4-4t-3-1l-1-1q-1 2-3-1"/><path fill="#faf9f9" fill-opacity=".4" d="M700 327c3 5 4-3 6-2 3 2 2 8 8 6q0 3-4 5c-6 0-8 4-10-2l-4-1 5-1c-3-3-2 0-1-5"/><path fill="#faf9f9" fill-opacity=".9" d="M688 350c2 6-1 5 5 4l1-1-4 7v2l-3 7-2 6-2-4h-2l5-15z"/><path fill="#f8f7f7" fill-opacity=".2" d="m713 444 2-1 4-2v1l1 13c-1 8-3-3-5-4l-7 1q1-3-1-4l-2 1q1-2 3-2h3q5 1 2-3"/><defs><linearGradient id="C" x1="472.5" x2="478.6" y1="784.2" y2="785.3" gradientUnits="userSpaceOnUse"><stop offset="0" stop-color="#fff" stop-opacity=".3"/><stop offset="1" stop-color="#fffffe" stop-opacity=".4"/></linearGradient></defs><path fill="url(#C)" d="M472 781c6-8 7 4 6 7q-2 3 0 6c-1 4-2 3 2 5l-1 1-3-1c-1-1 1-6-1-7l-3-4-4-1v-1q4-1 4-5"/><path fill="#faf9f9" fill-opacity=".5" d="m522 623 3 6 1 1c-7 2-1 6-1 9l-7-3-4-3c-2-1-4 2-5 1l4-2c3-1 4-6 7-6q2 0 2-3"/><path fill="#f7f7f6" fill-opacity=".5" d="m708 452 7-1c2 1 4 12 5 4l1 12-1-1-3 1q-3 3 0 5l-3-1 1-6c2-3-2-5-2-8 0-5-1 0-5-5"/><path fill="#f7f7f6" fill-opacity=".6" d="M707 448q2 1 1 4c4 5 5 0 5 5 0 3 4 5 2 8l-1 6-5-4h2l1-3-4-3c-1-9-6-1-3-12v1c0 6 4 3 2-2"/><path fill="#f8f7f7" fill-opacity=".8" d="M704 434zl1-3 1 1 2 2q1 3 3-1v-1c1-2 1 2 1 2 0 2 3 4 1 6v2h1l3-3v-1l1-1v-2l1-4v12-1l-4 2-2 1-1 1-2-3c2-2 1-8-3-3z"/><path fill="#faf9f9" fill-opacity=".8" d="M714 337q2 4 5 1 1-4 5-2h-1c-4 2-1 4-6 6l-10 7q-2 1-4-2z"/><path fill="#f8f7f7" d="M692 389c9 3 1 8 8 6q1 3-2 2l2 3 1-1c2 1-1 3 0 4q3 1 3 3 1 5-2 3v5q-2 6 1 11v7l-1-1v-1q-4-12 0-23v-1z"/><path fill="#faf9f9" fill-opacity=".4" d="M547 700q-4-1-3-7l3-1 1-5-2-1c-3 1-2-5-2-6 3-7 3 2 3 3q0 3 4 4-5 3-1 6v1z"/><path fill="#faf9f9" fill-opacity=".3" d="M526 807q2-8 9-7 1 0 1 1v1h-3c-12 0-3 23-7 27q-2-1-3-4l1-7q0-2 1-1z"/><path fill="#faf9f9" fill-opacity=".4" d="m528 640 1 1q2-1 3 1t4 4l3 2q1 3 4 3h2l-3-5q7 4 6 10l-1 2-2 3-2 3-1-1q3-3 2-6c-1-7-3-3-4-4z"/><path fill="#faf9f9" fill-opacity=".2" d="M701 325v-2c0-4 5-3 7 0l4 6 2 2c-6 2-5-4-8-6-2-1-3 7-6 2v-1z"/><path fill="#faf9f9" d="M717 411v-4l-1 2-1-3h1v-18l-1-3v3c-2 1-1-5-1-6 1-2-2-6 3-6h2l-3 4v1c1 6 2 23 1 30"/><path fill="#faf9f9" fill-opacity=".3" d="M477 709c4 1 2-1 5 2v-2c1 2-1 15-5 10l-1-5z"/><path fill="#faf9f9" fill-opacity=".1" d="m681 558 3-1h3c5 2 5 1 7 5 2-3 5 5-1 2-4-2-3-3-7-2z"/><path fill="#faf9f9" fill-opacity=".4" d="M688 347h5c2-1 2 4 2 5l-1 1-1 1c-6 1-3 2-5-4z"/><path fill="#faf9f9" fill-opacity=".3" d="M480 651q0 2 1 3c3 0 2-4 5-6l3-2-4 5q-1 3-4 5c-2 1 0 5-4 4l-1-4z"/><path fill="none" d="m468 787 4 1c-1 5 3 7 2 11l-6-6-2-1z"/><path fill="#faf9f9" fill-opacity=".6" d="m486 652-1 3h1q3 3-1 6c-1 2-3 7-5 7l-1-2h1l2-3q1-1-1-3c-1-3 3-3 3-5zM714 337q6-4 13-6 3 6-3 5-4-2-5 2-3 3-5-1"/><path fill="#f7f7f6" fill-opacity=".1" d="m708 446 1 1zq-2 0-3 2c-3 11 2 3 3 12l-2 2-4-6 1-6c3-3 1-5 5-5"/><path fill="#f7f7f6" fill-opacity=".9" d="m718 413 1 17-1 4h-1c-2-2-1-16 0-17z"/><path fill="#201f1e" d="M718 413v-6l1 10v-6l1 8c1 2-2 1-1 3l1-1v13h-1v-4z"/><path fill="#f8f7f7" fill-opacity=".7" d="m688 389 1 2c-2 4 2 4 2 8l-3-2q0-3-3-2-3-2-4 1v-4q5 2 7-2z"/><path fill="#faf9f9" fill-opacity=".3" d="m472 788 3 4c2 1 0 6 1 7l3 1-4 1-1-2c1-4-3-6-2-11"/><path fill="#f8f7f7" fill-opacity=".2" d="M717 472q-3-2 0-5l3-1 1 1v6q-2 0-4-1"/><path fill="#201f1e" d="M690 362q0 2 2 3v1l-2 4-3-1z"/><path fill="none" d="m490 639 2 1q-1 3-4 5-2 4-4 1z"/><path fill="#faf9f9" fill-opacity=".4" d="M477 805q3-1 4-3l1 3-2 3-2 1v-1z"/><path fill="#f7f7f6" fill-opacity=".5" d="m706 463 2-2 4 3-1 3h-2z"/><path fill="#faf9f9" fill-opacity=".5" d="m699 327 1-1v1c-1 5-2 2 1 5l-5 1c-5-4 1-3 3-6"/><path fill="#faf9f9" fill-opacity=".1" d="m480 799 1 3q-1 2-4 3l-2-4 4-1z"/><path fill="none" d="M550 694zq-4-3 1-6 2 3 0 5z"/><path fill="#faf9f9" fill-opacity=".3" d="m532 738 1 4v2l-2 1-1-1h-1q0-3 2-5z"/><path fill="#faf9f9" d="M689 379q4 1 3 4v5z"/><path fill="none" d="m500 627 3-1c1 1-2 10-4 2z"/><path fill="#faf9f9" fill-opacity=".4" d="M476 729c1-6 6 1 1 3z"/><path fill="#f8f7f7" fill-opacity=".7" d="M695 400v7c0 1-5-4 0-7"/><path fill="#201f1e" fill-opacity=".9" d="m687 369 3 1-1 7z"/><path fill="#faf9f9" fill-opacity=".6" d="M530 736v-7h1q-2-2 1-4v12z"/><path fill="#f7f7f6" fill-opacity=".3" d="M707 439c4-5 5 1 3 3z"/><path fill="#faf9f9" fill-opacity=".1" d="M670 550q5-3 5 4z"/><path fill="#faf9f9" fill-opacity=".3" d="m546 777 1 9q-3 1-1-3z"/><path fill="#201f1e" fill-opacity=".9" d="m690 360 4 2-2 3q-2-1-2-3z"/><path fill="#f7f7f6" fill-opacity=".7" d="m705 449 2-1c2 5-2 8-2 2z"/><path fill="#faf9f9" fill-opacity=".5" d="M476 687c3-4 2 1 0 3z"/><path fill="#f8f7f7" fill-opacity=".1" d="M712 445zq3 4-2 3zM712 329zl1 3z"/></svg>