<svg xmlns="http://www.w3.org/2000/svg" width="1024" height="1024" viewBox="0 0 1024 1024"><path fill="#121112" d="M541 95c1 1-1 10-1 12-5 54 16 106 48 148q14 16 27 34c10 0 49 0 56 6 2 2 1 11 1 14-7 4-8 4-8 12q0 21-6 40c8 16 14 40 15 58l1 19q18-6 32-17c2-9 4-11 11-16-4-30 17-36 20-64v-17c-2-8-7-19-4-26 6-23 33-19 43-1 9 19 7 39 2 57l40-5 10 4c10 8 10 22 2 31 14 10 12 26-2 34 24 18 1 47-20 55q-24 10-49 0c-14 9-22 10-33-2q-30 16-65 17c-6 19-27 47-44 59l17 60 33 110c18 3 29 11 24 31-4 19 6 13 6 28 13 15 17 10 32 20q15 11 19 30c8 5 7 11 7 20 11 4 9 12 11 22l4 26q-12 14-30 20c-30 11-69 14-100 5q-23-7-44-18l-58-25 3-25q1-9 3-19 2-5 7-6l2-22c-11-8-1-15-2-23-1-15-14-24 1-39l1-5-18-98-9-49c-18 2-27 2-45 2l-11 67q-7 36-11 74l7 6c11 12-2 24-4 37 0 8 9 14-1 23l1 22q6 2 7 7l2 16 3 25-1 1q-48 22-97 42l-14 4q-40 6-78-6c-11-4-33-12-39-23l6-38q2-8 9-11-1-11 6-17 5-21 24-33c10-5 19-6 26-17-5-8 0-9 4-16 4-5 1-12 0-18q-4-25 21-30l18-64 14-50c-8-5-16-16-20-24q-7 1-13-1-14-8-7-23c-20-12-63-35-74-54q-7-13-4-28c6-25 56-56 77-69 3-19 8-45 16-63l-22 9-12 33c-3 11-16 3-13-4 5-9 10-32 15-40 11-6 30-12 42-17 33-82 95-149 165-203zm38 340 8-2 11-22c-34 11-66 24-99 7q-15-7-26-18l-23 18c16 7 48 24 63 27 13 3 53-6 66-10m-52-116q13-10 28 0c0 13 4 37 13 47 14 13 71 11 83-1l1-1 2-4 2-3 2-5c3-14 4-23 4-38 4-6 7-3 8-11v-3l-1-3q-8-3-18-4h-10l-26-1h-1l-27 2q-10 0-21 4-5 1-8 5h-35q-2-4-7-6l-9 3c4 1 12 3 14 7 3 6 1 17 0 23-2 10-4 29-13 34-5 3-15 4-20 5h-4l-24 1c-10 0-35-1-42-9-7-9-8-24-8-35-1-9 2-24 12-26 14-3 33-2 48-2l-7-3-1-1c-8-4-54 0-64 2l-1 11 9 7c0 11 1 45 10 51 17 12 82 14 98 0 8-8 10-35 13-46m195 102-4-13c-5 5-8 7-8 14 1 15 13 57 33 54h3l4-2 6-3-5-4-5-4-1-1 1-3 3 2v1l2 1 2 2 5 3 4 3h2l5 2q32 8 56-15c9-10 15-26 2-36q-3-3-9-2l-1-1v-2l4-1 5-1 2-1h1c12-8 9-27-5-29l-5-1v-2h8c11-11 5-29-9-30-10 0-27 3-37 5h-6l-3 1q-10 0-15 8c-2 9 0 20 10 21 13 2 28-3 41-3l-1 2-9 2h-5l-4 1c-10 1-24 1-30 10q-3 5-2 9v-3h-1l-2 5q0-10 5-16l4-4q-5-4-8-10-4-8 0-16c7-11 16-7 20-11v-1l3-15 1-3v-6c1-19-7-49-34-42q-5 3-9 10-3 9 1 18l1 1 1 3 1 3v5q2 18-5 34c-6 13-16 23-16 38q2 16 11 28v3c-4 0-6-8-8-8m39 26-2-8v-3l1-1 2-6 2-2c4-4 2-3-4-7v-1c-3-3-4-8-7-2q0-2-2-3l3-3h4l1 2 2 3q5 7 15 5l-2-1 4 1c4 0 11-3 15-1l-5 3-9 1-7 1q-13 7-8 21c7 3 2 3 6 5h27c3-1 9-3 10-1l2 1 1 2c-10 2-32 5-40 3l-2-1-6-6zM383 899a1 1 0 1 0-2-2 1 1 0 0 0 2 2m248-33v16q6 6 11 10c13-10 23-5 36-2h22l23-5h2l2-1a92 92 0 0 0 28-14l2-2 1-1 1-1v-5c-2-5 2-9-5-9l-4 3v1l-11 7-4 2-1 1q-4 1-8 3h-1q-7 4-14 4l-2 1c-30 5-49 2-78-8M371 319l10-4c4-4 15-5 10-13v-1l-8 4-3 1-6 3-35 13-21 9c-2 5-15 40-14 42l2 2h3l2-2 4-13 9-23 39-15zm297-18v2c-2 1-10 0-10-1-1-3 9-2 10-1m57 545q6 2 7 3 2 4-3 3c-5 0 0 7 3 5h5l1-1 3-1q3-3 7-5l2-1 1-5v6c1-3 2-26-6-18v1l-4 3-1 1v1q-7 5-15 8M346 489l-4-9c-2-3-7-25-8-26l-24 17 21 11zm-6 63 1-3-5-2-2 6 1 5q1 5 5 6l7-2c1-1-4-2-5-2q-2 0-4-4l-2-3zm347 219q11 2 3-5-4 2-3 5m15 82h-2c1 2 6 3 7 1 1-1-4 0-5-1m-150-60q-1 6 3 8 3-3-1-8zM398 506l-9-4c-6-3-5-4-5 2h7l1 3q3 2 6-1m71 347q-6-3-6 2v1l1 1 4-1q2 0 1-3M337 392l4-2v-1h-1l-2-6zm-10 325-1 2v4l2-3 3-2q2-4 6-3v-3l-4 1-1 1-2 1zm31-152q-3 1-2 4 5 0 2-4M256 848q6 0 3-5l-1 1q-2 1-2 4m376 59q2 1 3-2-3-2-3 2M322 758c-1 1-7 8-5 10q3 0 7-2l5-1c-2-3 1-1 2-3l-8-6zm58-255c1-7-6-17-14-16q-6 1-11 8l7 3q-1-6 4-5l-2 9c4 5 1 0 9-2 3 1-1 4-1 6q3 1 4-1z"/><defs><linearGradient id="a" x1="504" x2="503.3" y1="366" y2="587.6" gradientUnits="userSpaceOnUse"><stop offset="0" stop-color="#2778d0"/><stop offset="1" stop-color="#0bcaee"/></linearGradient></defs><path fill="url(#a)" d="m508 372 8-4c4-5 4-11 10-14 4-2 8-21 6-25l-3-2c-2-9 7-11 13-10q5 0 10 3v8c-8 3-5 11-3 18q1 6 7 8 2 3 5 7 4 6 10 11l3 1c18 6 55 6 72-1l9-7c38 84-2 170-84 207-30 14-57 16-89 17 0-15 0-26-11-38q-12-12-30-13h-9q0-6-3-10c-10-17-30-24-46-33-4-2-6-8-10-10-8-3-15 2-20 7-9-14-11-24-15-41l37-23q13-6 17-19 3-19-14-28l2-1c4 1 4-3 7-4q9-2 17-2c5-1 4-3 9-3l1-1c-1-3-5-6-4-9q5 10 15 12c22 6 63 7 83-1m-58 46c16 7 48 24 63 27 13 3 53-6 66-10l8-2 11-22c-34 11-66 24-99 7q-15-7-26-18z"/><path fill="#2770ce" d="m508 372 8-4c4-5 4-11 10-14 4-2 8-21 6-25l-3-2c-2-9 7-11 13-10q5 0 10 3v8c-8 3-5 11-3 18q1 6 7 8 2 3 5 7 4 6 10 11l3 2-2 3c1 3 2 1 4 4-2 5-22 0-27 1q-14 3-29 2v-2q-5 1-7-3l1-2q-3-4-7-2z"/><path fill="#121112" d="M473 400q12 11 26 18c33 17 65 4 99-7l-11 22-8 2c-13 4-53 13-66 10-15-3-47-20-63-27zm7 20h-1l-7 1-4-3-6-3-4 3 2 1 1 1 35 16 4 2c16 6 19 5 35 3l14-2 5-1 10-3 5-1c4-4 10-1 14-7l6-6h1v-1c3-4-5-2-6-1l-16 5-3 1h-3l-6 2-5 1-7 1-4 1h-3c-16-1-19-2-34-6l-1-1-11-5-7-5h-1l-6-5h-1l-3-3-7 6h6l1-1q3 0 3 4l5 2c1 2 0 6-1 4"/><defs><linearGradient id="b" x1="499.5" x2="478.1" y1="422.9" y2="428.3" gradientUnits="userSpaceOnUse"><stop offset="0" stop-color="#fefefe" stop-opacity=".7"/><stop offset="1" stop-color="#fff" stop-opacity=".9"/></linearGradient></defs><path fill="url(#b)" d="M483 413zl7 5 11 5q-2 0-2 2l-2 1v3c1 3-2 3-1 6h2l1 2v1l-4-2q0-3-5-2l-30-14-1-1h4l2 1c2 0 9 7 10 2l-4-1 7-1h1c1 2 2-2 1-4q3-1 2-3"/><defs><linearGradient id="c" x1="576.6" x2="573.7" y1="430.2" y2="422.7" gradientUnits="userSpaceOnUse"><stop offset="0" stop-color="#fff" stop-opacity=".8"/><stop offset="1" stop-color="#fff" stop-opacity=".9"/></linearGradient></defs><path fill="url(#c)" d="m584 419-1 2c-1 2 2 5 4 1q0-2 3-1h-1l-6 6c-4 6-10 3-14 7l-5 1c0-6 7-4 1-10l3-1z"/><path fill="#f1f3f8" fill-opacity=".7" d="m502 423 1 1c-2 1-3 6 0 7 4 1 5-2 9 2l-2 1-1-1h-5v1h4l1 1-1 1v2l2 1h3l6 2h16c-16 2-19 3-35-3v-1l-1-2h-2c-1-3 2-3 1-6v-3l2-1q0-2 2-2"/><path fill="#f1f3f8" fill-opacity=".6" d="M537 430h3l2 1v1l-1 2-4 2h-7c-4 0-13 1-14-1q3-3 5-4c5-2 14 0 16-1m-12 6c11-1 4-5 1-4-6 0-11 3-1 4"/><path fill="#f1f3f8" fill-opacity=".8" d="M526 432c3-1 10 3-1 4-10-1-5-4 1-4"/><defs><linearGradient id="d" x1="533.2" x2="532.4" y1="434.5" y2="439.4" gradientUnits="userSpaceOnUse"><stop offset="0" stop-color="#fff" stop-opacity=".4"/><stop offset="1" stop-color="#fff" stop-opacity=".4"/></linearGradient></defs><path fill="url(#d)" d="m540 430 4-1 1 1v1l-2 4c2 5 4 0 6 4l-14 2h-12c5-3-1-2-3-3 1-3 8 0 10-2h7l4-2 1-2v-1z"/><path fill="#f1f3f8" fill-opacity=".4" d="M503 424c15 4 18 5 34 6-2 1-11-1-16 1l-3 1h-1l-5 1c-4-4-5-1-9-2-3-1-2-6 0-7"/><defs><linearGradient id="e" x1="517.4" x2="510.1" y1="438.7" y2="434.9" gradientUnits="userSpaceOnUse"><stop offset="0" stop-color="#fff" stop-opacity=".5"/><stop offset="1" stop-color="#fff" stop-opacity=".6"/></linearGradient></defs><path fill="url(#e)" d="m512 433 5-1h1l3-1q-2 0-5 4c1 2 10 1 14 1-2 2-9-1-10 2 2 1 8 0 3 3h-4l-6-2h-3l-2-1v-2l1-1-1-1h-4v-1h5l1 1z"/><path fill="#f1f3f8" fill-opacity=".6" d="m556 427 6-2h3c6 6-1 4-1 10l-10 3v-1l2-1h1l1-1h2v-2l-2-2h-2z"/><path fill="#f1f3f8" fill-opacity=".4" d="m551 428 5-1v4h2l2 2v2h-2l-1 1h-1l-2 1v1l-5 1c-2-4-4 1-6-4l2-4-1 4c2 3 9-1 8-3z"/><path fill="#f1f3f8" d="M472 411zq3 0 3 4l5 2c1 2 0 6-1 4l-14-9z"/><defs><linearGradient id="f" x1="548.6" x2="547.2" y1="428.7" y2="435.3" gradientUnits="userSpaceOnUse"><stop offset="0" stop-color="#fff" stop-opacity=".2"/><stop offset="1" stop-color="#fff" stop-opacity=".3"/></linearGradient></defs><path fill="url(#f)" d="m544 429 7-1 1 4c1 2-6 6-8 3l1-4v-1z"/><path fill="#f1f3f8" d="m462 413 17 7-7 1-4-3-6-3-4 3c-3-1 2-3 4-5M569 434c4-4 10-1 14-7l6-6-4 9z"/><path fill="none" d="m477 408 6 5q1 2-2 3l-5-2v-2zM473 405l3 3q-3-1-4 3h-6z"/><path fill="#f1f3f8" fill-opacity=".4" d="m468 418 4 3 4 1c-1 5-8-2-10-2l-2-1h1v-1h3"/><path fill="#f1f3f8" fill-opacity=".6" d="M584 419c1-1 9-3 6 1v1q-3-1-3 1c-2 4-5 1-4-1z"/><path fill="none" d="m458 418 4-3 6 3h-3v1h-5z"/><path fill="#f1f3f8" fill-opacity=".2" d="M472 411q1-4 4-3h1l-1 4v2q0-4-3-4z"/><path fill="#f1f3f8" fill-opacity=".7" d="M491 434q5-1 5 2z"/><path fill="#f1f3f8" d="M637 395q9 4 12 14c19 59-32 119-83 137l-13 4q15-8 28-18c31-25 52-59 54-99l-1-33q-1-3 3-5"/><defs><linearGradient id="g" x1="507" x2="503" y1="149.9" y2="298.4" gradientUnits="userSpaceOnUse"><stop offset="0" stop-color="#2922af"/><stop offset="1" stop-color="#2e49bf"/></linearGradient></defs><path fill="url(#g)" d="M537 104q-2 17-1 35c3 38 19 75 40 106q13 17 25 33l9 12c-15 0-43 0-54 10h-31l-5-6q1-2-2-2l-24-5q-37-11-73-28c12 14 19 20 33 31-16 0-41 0-56 3l-4 4-31 13c37-87 100-151 174-206"/><defs><linearGradient id="h" x1="457.5" x2="482.6" y1="115.8" y2="297.1" gradientUnits="userSpaceOnUse"><stop offset="0" stop-color="#302bc8"/><stop offset="1" stop-color="#384ccc"/></linearGradient></defs><path fill="url(#h)" d="M537 104q-2 17-1 35c3 38 19 75 40 106q13 17 25 33-6 5-15 6c-16 1-25-12-32-24-18-26-29-59-31-91q2-9-4-16c-4-5-13-5-17-1q-24 24-45 50c-22 28-45 59-59 91l-4 4-31 13c37-87 100-151 174-206"/><path fill="#131222" d="M518 292h5l-3 2q1-2-2-2"/><path fill="#121112" d="M398 296c10-2 56-6 64-2l-12 1 3 1 8-1h2l7 3c-15 0-34-1-48 2-10 2-13 17-12 26 0 11 1 26 8 35 7 8 32 9 42 9q4 0 4 2c1 1 25 0 26-2l-1-1h-1c5-1 15-2 20-5 9-5 11-24 13-34 1-6 3-17 0-23-2-4-10-6-14-7l9-3q5 2 7 6h35q3-4 8-5 3 2 8 1h8l15-1 13-1 9-1 16-1c4 0 11-1 9 4l2 1c11 2 12 16 11 25q-1 14-3 26-1 7-6 12l-3 1-4 2c4 2 2 1 6 1q1-2 4-2c-12 12-69 14-83 1-9-10-13-34-13-47q-15-11-28 0c-3 11-5 38-13 46-16 14-81 12-98 0-9-6-10-40-10-51l-9-7zm-1 11 9 7c0 11 1 45 10 51 17 12 82 14 98 0 8-8 10-35 13-46q13-10 28 0c0 13 4 37 13 47 14 13 71 11 83-1q-3 0-4 2c-4 0-2 1-6-1-16 5-54 7-69-3-9-6-12-29-13-39-2-19 5-23 23-25h-8q-5 1-8-1-5 1-8 5h-35q-2-4-7-6l-9 3c4 1 12 3 14 7 3 6 1 17 0 23-2 10-4 29-13 34-5 3-15 4-20 5h1l1 1c-1 2-25 3-26 2q0-2-4-2c-10 0-35-1-42-9-7-9-8-24-8-35-1-9 2-24 12-26 14-3 33-2 48-2l-7-3h-2l-8 1-3-1 12-1c-8-4-54 0-64 2zm207 32q13-6 18-19l2-2c1-3 4-7 1-8 3-4-2-3-5-2q-6 0-14 1l-6 1c-4 1-2 3-2 7l-10 5 8 4c0 3-5 10-6 12-1 1-5 5-2 5l3-1q7 0 13-3m28-36q-1 5-3 9l10 16 13 19c2-11 5-30-1-41-3-5-13-4-18-5z"/><path fill="#f1f3f8" d="M398 296c10-2 56-6 64-2l-12 1 3 1 8-1h2l7 3c-15 0-34-1-48 2-10 2-13 17-12 26 0 11 1 26 8 35 7 8 32 9 42 9q4 0 4 2c1 1 25 0 26-2l-1-1h-1c5-1 15-2 20-5 9-5 11-24 13-34 1-6 3-17 0-23-2-4-10-6-14-7l9-3q5 2 7 6h35q3-4 8-5 3 2 8 1h8c-18 2-25 6-23 25 1 10 4 33 13 39 15 10 53 8 69 3 4 2 2 1 6 1q1-2 4-2c-12 12-69 14-83 1-9-10-13-34-13-47q-15-11-28 0c-3 11-5 38-13 46-16 14-81 12-98 0-9-6-10-40-10-51l-9-7zm121 6q0-4-3-3h-1zm-117 4a1 1 0 1 0 1 2 1 1 0 0 0-1-2m160-3q2-1 1-3l-1 1q-2 1 0 2m-157-4q-1-2-5-2c-3 3 4 2 5 2m229 72q0-2-1-1l-1 1z"/><path fill="#121112" d="M402 300h8q3 1 0 3h-8q-2-1-1-2z"/><path fill="#f1f3f8" fill-opacity=".9" d="M400 297q4 0 5 2c-1 0-8 1-5-2M515 299zq3-1 3 3zM402 306a1 1 0 1 1 1 2 1 1 0 0 1-1-2M563 300q1 2-1 3-2-1 0-2z"/><path fill="#f1f3f8" d="M633 370q1-1 1 1zM619 296l16-1c4 0 11-1 9 4q-11-2-21-1l-13-1z"/><path fill="#2770ce" d="M627 318c5 4 19 28 23 35q-2 7-9 10c-18 6-46 7-64 0-10-5-12-20-14-31q6 9 14 11c21 9 43-5 50-25"/><defs><linearGradient id="i" x1="597.7" x2="613.6" y1="317.2" y2="331.1" gradientUnits="userSpaceOnUse"><stop offset="0" stop-color="#fff" stop-opacity=".8"/><stop offset="1" stop-color="#fff" stop-opacity=".9"/></linearGradient></defs><path fill="url(#i)" d="M598 317c0-4-2-6 2-7 4 4 2 2 6 1l3 1h9-13v4h15v2q0 2 2 2c-7 1-2 4-4 6h-2l1 1-2 3-1-3c-1 1 3 5-3 4l-1 3c0 2-7 2-6 5q-6 3-13 3h1q4-2 8-3 3 0 2-2-2-1-6-1l-1-3 2-2-1-7-1-1z"/><path fill="#2770ce" d="M601 301h18v3c-6 2-31 4-38 5-2 0-17 2-18 1q3-4 8-6z"/><defs><linearGradient id="j" x1="608.8" x2="615.7" y1="317.6" y2="310.3" gradientUnits="userSpaceOnUse"><stop offset="0" stop-color="#fff"/><stop offset="1" stop-color="#fff"/></linearGradient></defs><path fill="url(#j)" d="M620 316h-15v-4h14l1 1z"/><path fill="#f1f3f8" d="m598 317-3 6 1 1 1 7-2 2q-2 4-5 5c1-2 6-9 6-12l-8-4zM622 320q-5 13-18 19c-1-3 6-3 6-5l1-3c6 1 2-3 3-4l1 3 2-3-1-1h2c2-2-3-5 4-6"/><path fill="#f1f3f8" fill-opacity=".5" d="M606 309q8-1 14-1l-1 4h-10z"/><path fill="#f1f3f8" fill-opacity=".4" d="m595 333 1 3c-1 5-2 2-4 6-1-4-2-1-4 1-3 0 1-4 2-5q3-1 5-5"/><path fill="#f1f3f8" fill-opacity=".3" d="M620 313q3 0 5-3c3 1 0 5-1 8l-4-1v-4"/><path fill="#f1f3f8" fill-opacity=".6" d="M596 336q4 0 6 1 0 2-2 2-4 1-8 3c2-4 3-1 4-6"/><path fill="#f1f3f8" fill-opacity=".1" d="M620 308c3-1 8-2 5 2q-2 3-5 3l-1-1z"/><path fill="#f1f3f8" d="m632 303-7 1c-5-5 6-3 8-3z"/><path fill="#f1f3f8" fill-opacity=".7" d="m600 310 6-1 3 3-3-1c-4 1-2 3-6-1"/><path fill="#f1f3f8" fill-opacity=".2" d="m620 317 4 1-2 2q-2 0-2-2z"/><path fill="#f1f3f8" fill-opacity=".3" d="M588 343c2-2 3-5 4-1h-1z"/><path fill="#f3f3f5" d="M337 712c34-8 70 1 101 15l22 10c18 16-5 26 0 43 1 5 6 17-3 17l-18-6-21-10q-42-21-89-16c-2-3 1-1 2-3l-8-6c7-11-8-24 3-37v4l2-3 3-2q2-4 6-3z"/><path fill="#f1f3f8" d="M460 737c18 16-5 26 0 43 1 5 6 17-3 17l-18-6 5-8c-10-26 12-23 16-46"/><path fill="#f3f3f5" d="M552 793c7-21-7-27-4-40q4-7 10-11l19-7q39-17 80-15l18 2c23 7 10 23 12 38l3 6q-4 2-3 5c-30-2-52 0-81 12-11 5-40 20-51 18q3-3-1-8z"/><defs><linearGradient id="k" x1="460.6" x2="474" y1="295.9" y2="367.5" gradientUnits="userSpaceOnUse"><stop offset="0" stop-color="#275dc1"/><stop offset="1" stop-color="#277bd0"/></linearGradient></defs><path fill="url(#k)" d="M443 301q21-1 44 1h16c15 3 18 6 16 21q-1 19-10 36c-3 5-16 6-21 7-14 3-32 1-45 0-27-2-29-13-31-38-1-26 8-26 31-27"/><path fill="#121112" d="m432 305 9 1q35 6 71 6-4 11-12 21-14 13-30 13-15 1-26-9-13-13-12-32"/><path fill="#f1f3f8" d="m472 313 35 2c-6 12-10 18-22 25q-14 6-27 2 9-6 12-14l-7-6 9-4z"/><path fill="#f3f3f5" d="M364 502c4 5 1 0 9-2 3 1-1 4-1 6q3 1 4-1l4-2 1 3 3-2h7l1 3q3 2 6-1c22 13 38 24 29 52-4 15-13 32-28 36q-12 3-23-3-10-6-16-17l-4-5q5 0 2-4 4-3 3-7c-4 0-10 13-21 6l7-2c1-1-4-2-5-2q-2 0-4-4l-2-3 4-1 2 1 6-8q11-21 16-43M684 791q24-4 44 8c8 6 21 22 13 32-7 9-22 14-33 17-26 5-46 3-72-7 3-27 22-45 48-50"/><path fill="#d3d6e9" d="M636 841c3-27 22-45 48-50q-5 10-6 21c-1 13 4 28 17 32l13 4c-26 5-46 3-72-7M314 784c19-2 43 8 54 24q9 12 11 27c-17 7-26 9-44 10-27 0-46-6-65-25q10-32 44-36"/><defs><linearGradient id="l" x1="777.4" x2="708.6" y1="394" y2="405.2" gradientUnits="userSpaceOnUse"><stop offset="0" stop-color="#f3f4f4" stop-opacity=".7"/><stop offset="1" stop-color="#f2f2f5" stop-opacity=".9"/></linearGradient></defs><path fill="url(#l)" d="m740 326 2 1 4 2-1-3c-1-3 4-2 5-1q-1 4 1 4 5 2 9 2l5 4 1-1q-1 0 1 2h1l-1 1v4c-1 2 8 4 2 6q-2 1-3 4l2 2h7c-4 4-13 0-20 11q-4 8 0 16 3 6 8 10h-1l-4 2c-3 1-2 6-3 7a29 29 0 0 0-5 15c-3 0-3 6-3 8q-1 4 3 3h1c1 8 4 2 3 7-1 4 2 1 1-1-1-3 5-4 2 1 1 1 4 3-1 3v2q2-2 3-1v3-2h-1v6q1 4 3 4l1 2-4 6c-2 3 3 3 2 6-1 1 4 7 0 5q-1-3-3-6c0-3-4 0-5 0l-3 2v-1l-2-3h-1v1l-1 3 1 1c-3 5 1 4 1 8 0 3-4-1-1 5h-3c-20 3-32-39-33-54h7l5-1c2 0 4 8 8 8v-3q-9-12-11-28c0-15 10-25 16-38q7-16 5-34m-2 38zq3-2 0-5-3 4 0 6m-8 11s3-2 0-4q-3 3 0 4"/><path fill="#f3f3f5" fill-opacity=".7" d="M738 358q3 2 0 5v1q-3-2 0-6"/><path fill="#f3f3f5" fill-opacity=".8" d="M730 371c3 2 0 4 0 4q-3-1 0-4"/><path fill="#d3d6e9" d="M259 843c17 19 48 26 73 27 30 1 52-9 78-21l39-18c3-1 14-8 16-5l4 27q-6-3-6 2v1c-3-1-7-7-17-6q-23 3-20 29l-10-9c-15-8-34 5-32 22l2 8-5 2q-2-8-7-15c-11-15-27-4-41-3-26 2-60-10-80-26l2-11 1 1q6 0 3-5m124 56a1 1 0 1 0-2-2 1 1 0 0 0 2 2"/><path fill="#d3d6e9" fill-opacity=".4" d="M382 897a1 1 0 1 1 1 2 1 1 0 0 1-1-2"/><path fill="#2770ce" d="M353 329c12-6 34-11 44-19l6 5c1 19-1 27 7 46-1 3 3 6 4 9l-1 1c-5 0-4 2-9 3q-9 0-17 2c-3 1-3 5-7 4l-2 1c-17-7-22 3-37 9v-1h-1l-2-6c0-11 11-43 15-54"/><path fill="#d3d6e9" d="M458 818zv4c-5 5-49 22-59 27a199 199 0 0 1-39 14c-31 7-65 2-91-15q-5-3-6-7c0-4-1-15 3-17 2 0 9 6 11 8 22 16 52 20 78 15 22-5 42-19 63-25 15 4 25 0 39-4"/><defs><linearGradient id="m" x1="814.9" x2="759.3" y1="422.6" y2="415.9" gradientUnits="userSpaceOnUse"><stop offset="0" stop-color="#eff0f2" stop-opacity=".7"/><stop offset="1" stop-color="#f1f1f4" stop-opacity=".9"/></linearGradient></defs><path fill="url(#m)" d="M759 399c6-9 20-9 30-10q4 0 5 2l8 2q5 2 7-3h1l-3 6v3l1 5c1 4-4 6-2 10h2l2-4q3-5 7-3l-1 3 1 5 4 1-4 1v2c-1 7 1 5 3 8 1 0-3 7-2 9q0 4-3 8h-1q-5 0-3 4 1 2-2 3l-2-1c-1-2-7 0-10 1h-25q-2-4-2 0c-4-2 1-2-6-5q-5-14 8-21l7-1c2 1 9 3 11 1l-2-2 5-3q1-1 1-3h-1l1 1h-18l-6 1c-8 2-3-3-9-3l-2-3v-14"/><path fill="#d3d6e9" d="m402 778 38 18q-9 6-15 17l-3 5h-5l-16 7-19 8c-3-12-4-17-11-28zM612 784l33 26c-8 12-10 16-12 30l-18-9-16-7h-6c-6-9-9-17-19-23z"/><path fill="#f1f3f8" d="m750 849 1-5v6l-14 10c-33 17-72 16-106 2q1-10 7-16 30 12 62 7c1 2 6 3 7 1 1-1-4 0-5-1l23-7q6 2 7 3 2 4-3 3c-5 0 0 7 3 5h5l1-1 3-1q3-3 7-5z"/><path fill="#d3d6e9" d="M543 861c1-7 2-26 6-31l26 11 56 25v17l-2-2c-9-9-23-13-33-3q-4 3-7 9l1-10c0-22-26-30-40-13zM555 821c12 7 29 11 42 6l41 19q-6 7-7 16l-77-34z"/><path fill="#f1f3f8" d="M631 882v-16c29 10 48 13 78 8 1 3-16 2-20 3-1 3 5 3 7 3l8 1h-11l3 4q0 4 4 3v2h-22c-13-3-23-8-36 2q-6-4-11-10"/><path fill="#f3f3f5" fill-opacity=".8" d="M757 366q5-8 15-8v4c3 7 13-1 17 1l-4 1 3 3c-4 2-5-1-8-1 1 4 9 3 12 8q0 6-2 8c2 2 14 1 18 1v1c-13 0-28 5-41 3-10-1-12-12-10-21"/><path fill="#121112" d="m758 411 1 2 2 3q5 7 15 5h2c4 0 11-3 15-1l-5 3-9 1-7 1q-13 7-8 21c7 3 2 3 6 5h27c3-1 9-3 10-1l2 1 1 2c-10 2-32 5-40 3l-2-1-6-6-1-2-2-8v-3l1-1 2-6 2-2c4-4 2-3-4-7v-1c-3-3-4-8-7-2q0-2-2-3l3-3z"/><path fill="#f1f3f8" d="M764 446c7 3 2 3 6 5h27c3-1 9-3 10-1l-25 4c-9 0-13 0-18-8"/><path fill="#f1f3f8" fill-opacity=".5" d="M775 357c6 4 7 4 14 3h1l1 1q2 3 0 4-2 2 0 4 4 2 5 5v4c-1 2-6 2-5 4s5-1 7 0h8c3-2 4 1 5 1l-2-2c-4 0-3 1-6-1q-3-2-2-5-1-2-4-5l-4-4 1-4c2 3 0 1 0 4 1 2 9 7 9 9-2 7 7 5 12 6 5 0 1 0 4 1v2c-1 6-7 7-4 13l1 5 3 5q0 2-2 0-4-2-7 3l2-8-1-1v-4l1-6q0-2-5-5l1-2v-1c-4 0-16 1-18-1q2-3 2-8c-3-5-11-4-12-8 3 0 4 3 8 1l-3-3 4-1c-4-2-14 6-17-1v-4zm34 29q1-1-1-1z"/><path fill="#f1f3f8" fill-opacity=".4" d="M808 385q2 0 1 1h-1z"/><path fill="#f3f3f5" fill-opacity=".3" d="M738 315q2-1 3-4c2-5 5 3 8-5 1-2 7-2 8-1 2 0 7 7 8 8q1 3 4 4l1 1c1 3 2 9 6 9l2 1v1c-3-1-3 1-6-2l-1-3-1-1c-3-6-2-2-7-6q0 3-2 1v1h1v2h-1l1 2 1 1q-3 1-1 1h-3c-1 0-7-7-11-7-4-1-6 9-8 4v-1c1-1 5-2 3-5-2 0-3-2-4 2z"/><path fill="#f3f3f5" fill-opacity=".9" d="M745 832c8-8 7 15 6 18v-6 1l-1 4-2 1q-4 2-7 5l-3 1-1 1h-5c-3 2-8-5-3-5q5 1 3-3-1-2-7-3 8-3 15-8c1 5 5 1 7-1q2-1 2-4z"/><defs><linearGradient id="n" x1="812" x2="812" y1="360" y2="378" gradientUnits="userSpaceOnUse"><stop offset="0" stop-color="#f4f4f6" stop-opacity=".1"/><stop offset="1" stop-color="#f1f0f2" stop-opacity=".3"/></linearGradient></defs><path fill="url(#n)" d="m794 360 4 1 4 1c1 0 8-3 8-1q2 3 5 3 4-7 10 0l-1 7q-1 3 2 3h-1c-1 1-2-2-5 5v2l-1-1c-1-3 2-11-3-4l-3 2q-4 2-6 0c-1-2 2-4 0-6 0-2-7-5-7-6 1-6 2-2-6-6"/><path fill="#f3f3f5" fill-opacity=".2" d="m817 419 1 1 5 7 6 8q1 5-1 11l-1 4q-1 2-3 2l-2 2-1-4c-1-1-1 3-1 3l-3 2 1-2h-1q2-1 2-5t-7 1q0 2-2 5v-1l-1-2q3-1 2-3-2-3 3-4h1q3-4 3-8c-1-2 3-9 2-9-2-3-4-1-3-8"/><path fill="#f3f3f5" fill-opacity=".6" d="M740 322c2 5 4-5 8-4 4 0 10 7 11 7h3q-2 0 1-1 6 3 9 10c1 4-2 7 0 11q0 3-2 3-2 2 0 4h5v1h-7l-2-2q1-3 3-4c6-2-3-4-2-6v-4l1-1h-1q-2-2-1-2l-1 1-5-4q-4 0-9-2-2 0-1-4c-1-1-6-2-5 1l1 3-4-2-2-1z"/><path fill="#f3f3f5" fill-opacity=".3" d="m819 384 5 1h-4l-2 7 6 3-1 2v1h1l1-1h1v1l2 1 1 1-1 4-1 1 1 1-1 1v4l-2 3v1h1l-5 1-4-1-1-5 1-3q2 1 2 0l-3-5-1-5c-3-6 3-7 4-13"/><path fill="#d3d6e9" fill-opacity=".9" d="m709 874 2-1 2 3c3 1 13-2 11 4h-4l-6 1-1 1q-2 3-6 2c0-2-8-1-11 1l-3-4h11l-8-1 1-1q-3-2-8-2c4-1 21 0 20-3"/><path fill="#f1f3f8" d="M714 877c3-1 8-1 7 3-4 0-8 2-7-3"/><path fill="#f1f3f8" fill-opacity=".1" d="M738 313c1-3 3-9 5-10q3-1 5-3 1-4 3-2c1 1 3-2 5-1l1 1 1-1q2 2 6 4l4 3 3 7c0 5 4 5 5 10l2 4 1 3v6l-1-5v-1c-1-5-2-3-4-6l-2-4-2-4q-2-3-1-4l-4-1c-4-5-2-6-8-8-7-2-7 1-13 4l-3 2z"/><path fill="#f3f3f5" fill-opacity=".2" d="m741 307 3-2c6-3 6-6 13-4 6 2 4 3 8 8l4 1q-1 1 1 4l2 4 2 4c2 3 3 1 4 6l-2-1c-4 0-5-6-6-9l-1-1q-3-1-4-4c-1-1-6-8-8-8-1-1-7-1-8 1-3 8-6 0-8 5q-1 3-3 4l-1-1 1-1z"/><path fill="#f3f3f5" fill-opacity=".4" d="m763 324-1-1-1-2h1v-2h-1v-1q2 2 2-1c5 4 4 0 7 6l1 1 1 3c3 3 3 1 6 2l1 5-1 3v-2l-1 2-4 6c-2 0 0 5-1 6l-2 3q-2-2 0-4 3 0 2-3c-2-4 1-7 0-11q-3-7-9-10"/><path fill="#f1f3f8" fill-opacity=".2" d="M750 856c4 3-1 4-2 7 0 1-5 2-4 4l1 1c4 0 10-9 12 0l-2 2q-4-2-10-2l-3 3q-3 1-5 3-2 3-6 3c-3-1-3 3-5 4l-1 4h-2l-3-5h4q3 0 4-4l6-1 6-4 1-2c-2-2-4 2-7-3l1-1 2 2c3 2 6-2 2-4z"/><path fill="#f1f3f8" fill-opacity=".6" d="M807 386q5 2 5 5l-1 6v4l1 1-2 8-2 4h-2c-2-4 3-6 2-10l-1-5v-3l3-6h-1q-2 5-7 3l-8-2q-1-2-5-2l4-1 4 2 1 1q4-3 0-3zm-1 6zq2-2-1-3-3 3 1 4"/><path fill="#f1f3f8" fill-opacity=".5" d="M805 388q3 1 1 3v1q-4 0-1-4"/><path fill="#f3f3f5" fill-opacity=".3" d="M790 360h4c8 4 7 0 6 6 0 1 7 4 7 6 2 2-1 4 0 6q2 2 6 0l3-2c5-7 2 1 3 4l1 1 6 1h-7c-3-1 1-1-4-1-5-1-14 1-12-6 0-2-8-7-9-9 0-3 2-1 0-4l-3-1z"/><defs><linearGradient id="o" x1="610.3" x2="594.2" y1="302.4" y2="286.6" gradientUnits="userSpaceOnUse"><stop offset="0" stop-color="#fff" stop-opacity="0"/><stop offset="1" stop-color="#fff" stop-opacity=".1"/></linearGradient></defs><path fill="url(#o)" d="m587 294 27-2c1 1 6 2 5 4l-9 1-13 1-7-1c-3-1-2-2-5-2z"/><path fill="#d3d6e9" d="m629 881 2 2v-1q6 6 11 10-5 6-7 13-3-2-3 2-3-1 0-6 2-11-3-20"/><path fill="#f3f3f5" fill-opacity=".6" d="m762 449 6 6c-11 5-1 9-6 16l-4-3c3-2-3-3-2-5q-2-4-5 0l-2-1 3-2c1 0 5-3 5 0q2 3 3 6c4 2-1-4 0-5 1-3-4-3-2-6z"/><path fill="#f1f3f8" fill-opacity=".5" d="m383 305 8-4v1c5 8-6 9-10 13l-10 4c1-3 6-8 3-10l6-3c2 7 1 3 7 3 3-1 7-5 3-5-1 0-5 3-6 1z"/><path fill="#f1f3f8" fill-opacity=".4" d="M762 471c5-7-5-11 6-16l2 1v1h-1v2l1 2 2 3 6 2-10 3-4 2z"/><path fill="#f3f3f5" fill-opacity=".6" d="m791 361 3 1-1 4 4 4q3 3 4 5-1 3 2 5c3 2 2 1 6 1l2 2c-1 0-2-3-5-1h-8c-2-1-6 2-7 0s4-2 5-4v-4q-1-3-5-5-2-2 0-4 2-1 0-4"/><path fill="#f3f3f5" fill-opacity=".8" d="M711 873q7 0 14-4l2 3q3 0 6 2-1 2-5 2-1 4-4 4c2-6-8-3-11-4z"/><path fill="#f3f3f5" fill-opacity=".7" d="M760 420c6 4 8 3 4 7l-1-1c-1-4-2 0-1 3l-2 6-1 1q-2-1-3 1v-2c5 0 2-2 1-3 3-5-3-4-2-1 1 2-2 5-1 1 1-5-2 1-3-7v-1l2 2c2 3 5-4 7-6"/><path fill="#f3f3f5" fill-opacity=".2" d="M826 415zv-1l2-3v-4l1-1-1-1 1-1 1-4-1-1-2-1v-1h-1l-1 1h-1v-1l1-2-6-3 2-7c0 7-3 6 5 8h1q6 5 7 11c-1 4-6 8-5 10z"/><path fill="none" d="M812 449q6-5 7-1 0 4-2 5h1l-1 2 3-2s0-4 1-3l1 4 2-2q2 0 3-2-1 4-4 6l-1-1h-1l-2 1-3 1h-5l-1-2v-1q2-3 2-5m3 5q3-3 1-6c-4 3-4 2-1 6"/><path fill="#f3f3f5" d="M750 425q-4 2-3-3c0-2 0-8 3-8v-3q1-7 5-12c1-1 0-6 3-7l4-2h1l-4 4q-5 7-5 16v1l-3 3v1q-3 5-1 10"/><path fill="#f1f3f8" fill-opacity=".4" d="M566 298q11-4 21-4l-2 1c3 0 2 1 5 2l7 1-15 1h-8q-5 1-8-1"/><path fill="#d3d6e9" fill-opacity=".7" d="M707 884q4 1 6-2l1-1 6-1 3 5-7 2h-5l-8-1c-1-2 3-2 4-2"/><path fill="#f1f3f8" d="M761 416c6 0 1 5 9 3l6-1h18l-1-1h1q0 2-1 3c-4-2-11 1-15 1l-4-1 2 1q-10 2-15-5"/><path fill="#f1f3f8" fill-opacity=".8" d="M754 852c7 0 3 4 5 9v5l-1 1c-1-6 2-7-7-3h-1q4-5 0-9zM367 493c3 0 1 4 4 5h4q-1 4 1 7-1 2-4 1c0-2 4-5 1-6-8 2-5 7-9 2l2-9z"/><path fill="#f3f3f5" fill-opacity=".5" d="M753 417c3-6 4-1 7 2v1c-2 2-5 9-7 6l-2-2 1-2v-3z"/><path fill="#d3d6e9" fill-opacity=".9" d="M696 885c3-2 11-3 11-1-1 0-5 0-4 2l8 1h5l-16 3v-2q-4 1-4-3"/><path fill="#f1f3f8" fill-opacity=".8" d="m460 370 24-1h5l1 1c-1 2-25 3-26 2q0-2-4-2"/><path fill="#f3f3f5" fill-opacity=".1" d="M745 868q6 0 10 2l-2 1c-8-1-5-1-13 2l-2 4-7 2q-3 3-4 4v1l-2 1 1-4c2-1 2-5 5-4q4 0 6-3 2-2 5-3z"/><path fill="#f3f3f5" fill-opacity=".6" d="M750 855q5 4 0 9h1c9-4 6-3 7 3l-1 1c-2-9-8 0-12 0l-1-1c-1-2 4-3 4-4 1-3 6-4 2-7z"/><path fill="#f3f3f5" fill-opacity=".2" d="m770 352 2-3c1-1-1-6 1-6l4-6 1-2v2l-3 15z"/><path fill="#f1f3f8" fill-opacity=".2" d="M641 293h10l-6 1 1 6-2-1c2-5-5-4-9-4l-16 1c3-2 2-2 5-2h11z"/><path fill="#f1f3f8" fill-opacity=".1" d="M367 493c1-2 3 2 5 2l5 1v1q0 5 3 6l-4 2q-2-3-1-7h-4c-3-1-1-5-4-5"/><path fill="#f1f3f8" d="M551 332q2 1 2 3v2l4 15c-4-2-7-16-6-20"/><path fill="none" d="m335 558 3-2q2 3 4 4c1 0 6 1 5 2l-7 2q-4-1-5-6"/><path fill="#f3f3f5" fill-opacity=".4" d="M726 869q4-2 8-3c3 5 5 1 7 3l-1 2c-2-4-4-1-6 0q-4 3-6-1z"/><path fill="#f1f3f8" fill-opacity=".4" d="M654 351zq1-2 3 0l-2 5-2-1v4l-2 4-4-1q4-4 6-12"/><path fill="#d3d6e9" d="M754 852c2-6 6 1 6 4q3 7-1 10v-5c-2-5 2-9-5-9"/><defs><linearGradient id="p" x1="389.4" x2="381" y1="305.5" y2="307.5" gradientUnits="userSpaceOnUse"><stop offset="0" stop-color="#fff" stop-opacity=".4"/><stop offset="1" stop-color="#fff" stop-opacity=".4"/></linearGradient></defs><path fill="url(#p)" d="M383 305zc1 2 5-1 6-1 4 0 0 4-3 5-6 0-5 4-7-3z"/><path fill="#f3f3f5" fill-opacity=".5" d="m726 869 2 1q2 4 6 1c2-1 4-4 6 0l-6 4-6 1q4 0 5-2-3-2-6-2l-2-3z"/><path fill="#f3f3f5" fill-opacity=".6" d="m746 463 5 4q-4 4-1 7l-4 2c-3-6 1-2 1-5 0-4-4-3-1-8"/><path fill="#f1f3f8" d="M529 331q2 3 0 8l-4 12h-1l2-9v-2l1-5zM391 301l3-1v9l-1 1-12 5c4-4 15-5 10-13z"/><path fill="#f3f3f5" fill-opacity=".5" d="m322 758 1-2 8 6c-1 2-4 0-2 3l-5 1c0-7 5-3-2-8"/><path fill="#f1f3f8" fill-opacity=".1" d="M778 466h1v1l-5 1v1l-5 4-5-2 4-2z"/><path fill="#f1f3f8" fill-opacity=".2" d="m751 467 5 4-6 3q-3-4 1-7"/><path fill="#121112" d="M668 303c-2 1-10 0-10-1-1-3 9-2 10-1z"/><path fill="#f1f3f8" fill-opacity=".7" d="m741 836 4-3q1 5 4 0 0 3-2 4c-2 2-6 6-7 1v-1c2 4 4 0 3-1z"/><path fill="#f1f3f8" fill-opacity=".4" d="m615 292 26 1-6 1h-11z"/><path fill="none" d="m334 553 2-6 5 2-1 3-4 1z"/><path fill="#121112" d="M751 414q2 1 2 3l-1 2v3l-1 2v1h-1q-2-5 1-10z"/><path fill="none" d="M690 766q8 7-3 5-1-3 3-5"/><path fill="#f3f3f5" fill-opacity=".3" d="m389 502 9 4q-3 3-6 1l-1-3h-6q3 0 4-2M775 357h6v1h1l7 2c-7 1-8 1-14-3"/><path fill="#f3f3f5" d="M759 399v14l-1-2-1-3q0-4 2-9"/><path fill="#f3f3f5" fill-opacity=".8" d="m779 424 9-1 2 2c-2 2-9 0-11-1"/><path fill="#f3f3f5" fill-opacity=".5" d="M751 463q3-5 5 0c-1 2 5 3 2 5l-5-3q1-5-2-2"/><path fill="#f3f3f5" fill-opacity=".2" d="M739 318c1-4 2-2 4-2 2 3-2 4-3 5z"/><path fill="#f3f3f5" fill-opacity=".1" d="M739 863c4 2 1 6-2 4l-2-2z"/><path fill="#f1f3f8" fill-opacity=".9" d="m335 558-1-5h2l2 3z"/><path fill="#287edd" fill-opacity=".9" d="m338 383 2 6h1v1l-4 2z"/><path fill="#f3f3f5" fill-opacity=".8" d="M761 447q-2 0-3-4v-6h1v2z"/><path fill="#d3d6e9" fill-opacity=".6" d="M689 877q5 0 8 2l-1 1c-2 0-8 0-7-3"/><path fill="#f1f3f8" fill-opacity=".1" d="M614 292h1l9 2c-3 0-2 0-5 2 1-2-4-3-5-4"/><path fill="#f1f3f8" fill-opacity=".5" d="M798 388q4 0 0 3l-1-1-4-2z"/><path fill="#121112" fill-opacity=".9" d="m754 410 2-5h1v3l1 3z"/><path fill="#f1f3f8" fill-opacity=".9" d="M700 853h2c1 1 6 0 5 1-1 2-6 1-7-1M648 363l4 1-1 1q-3 0-4 2l-2-3zM326 719l1-2 1 3-2 3z"/><path fill="#f1f3f8" fill-opacity=".6" d="m330 715 2-1 4 1h1q-4-1-6 3z"/><path fill="#f1f3f8" fill-opacity=".7" d="M462 294zh-10v1l-3-1z"/><path fill="#f1f3f8" fill-opacity=".6" d="m745 832 4 1q-4 5-4 0z"/><path fill="#f3f3f5" fill-opacity=".5" d="m330 715 1 3-3 2-1-3z"/><path fill="#f1f3f8" fill-opacity=".4" d="M332 714zl4-1v3h-1z"/><path fill="#f1f3f8" fill-opacity=".7" d="m641 366 4-2 2 3c-4 0-2 1-6-1"/><path fill="#f1f3f8" fill-opacity=".3" d="M358 565q3 4-2 4 0-3 2-4"/><path fill="#f1f3f8" fill-opacity=".4" d="M453 296v-1h8z"/><path fill="#f1f3f8" fill-opacity=".1" d="M654 360v-4l2 1z"/><path fill="#f3f3f5" fill-opacity=".6" d="M762 429c-1-3 0-7 1-3l1 1z"/><path fill="#f1f3f8" fill-opacity=".6" d="M741 836h2c1 1-1 5-3 1z"/><path fill="#d3d6e9" fill-opacity=".9" d="M632 907q0-4 3-2-1 3-3 2"/><path fill="#f3f3f5" fill-opacity=".4" d="M751 463q3-3 2 2z"/><path fill="#f1f3f8" d="m776 421-2-1 4 1z"/><path fill="#f3f3f5" fill-opacity=".8" d="M746 459zl2 3zM770 451q0-4 2 0z"/><path fill="none" d="m668 301 2-1v3h-2z"/></svg>