<svg xmlns="http://www.w3.org/2000/svg" width="1024" height="1024" viewBox="0 0 1024 1024"><path fill="#080707" d="M469 151q44 42 80 89 47 57 83 119 9 10 17 23l-5-2 1 4c19-1 27 0 44 5v24l-5 2q2 28-10 52-4 7-4 15h-1q-3 2-3 6v-2l-1 19-2 15q-5 22-17 41-18 33-46 59l-17 13c-36 20-67 30-109 31-1-9-1-17-8-23l-1-1q-2 3 2 5c5 9 3 10 4 18l1 7q3 14-1 28l-2 5h-1l-3 5c-3 5-18 23-24 24l-12-6q-8-1-16-5l1-3c-2-3-1 1-4-1l1-1 6-5q6-4 7-9-13 16-32 24l-12 5c-5 5 0 11 3 15 1 1 1 8 3 10h2c8-10 7-33 24-33q15 2 29 11l17-16 1 3q-7 9-16 14l3 7c-3 9-7 12-13 19q6 7-3 12c10 9-2 9-3 12 2 4 8 4 6 10l-4 2c-1 4 4 4 2 11l9 2q12 3 18 14 5 9 5 18c9 9 1 16-1 25l-3 1c-4 11-15 16-25 19l1 2c-35 7-77-2-103-27-5-5-11-16-9-23 3-14 1-20-8-30l-6-1c-5-3-17-19-19-24l1-3-3-12-1-4c0-12 13-21 22-25q7-5 16-2 24-18 50-35c6-6 16-9 21-1q5 9 2 18 40-18 30-59-20-7-33-22c-15 2-14-6-18-16l-13-19-12-7q-6 8-14 3-6-2-8-8-2-8 2-13l-12-10-28-23c-9-9-12-28-5-39 4-6 14-14 20-20l28-27 1-5q-4 5-9 6t-9-1c-1-2 1-11 2-13 5-19 11-22 26-31q14-30 30-58c36-56 84-110 92-178zm-36 217h26c17 2 42 12 57 19 7 3 20 9 26 10-12-14-55-48-74-46-15 2-23 7-35 17m-27 491c15-12 17-19 39-21l15 3-1-11q-4-11-15-16l-6-2h-3c-18-4-42 4-57 12q-4 3-6 2c1-3 11-5 11-8v-7h1l-1-2-1-1c-9 0-15-6-10-14 2-4 8-2 11-2l1-1-1-4h-9c-10-5-6-13 3-16l6 2q1-4-2-5l-8-1c-10-11 0-14 9-16v-1l-3-4v-1q-4-5-3-10v-5q2-11 8-20c3-5 9 0 12 2 0-6 0-11-8-12-7-1-13 5-18 9l-2 1-16 11-2 7-2 10c-3 13 0 45-11 54q11 13 9 28c-1 28 38 42 60 39m49-11 5 3 1 2 1 2 2-2q1-11-9-11-24-4-41 14l-7 5-9 1c-4 1-13-1-18-1-1 0-5-1-4-4-20-8-33-17-32-40 0-6-3-17-7-22-11-11-11-15-13-29l-1-9-1-9v-5q1-6-8-3l-4 2q-8 3-9 9v1l3 9c6 13 8 15 6 31-1 4-2 12 0 14q6 0 9 3c4 6 9 13 7 21-2 12-2 18 6 28 7 11 18 2 29 4 14 3 31 12 45 5 18-9 26-27 49-19m92-406c8-6 11-5 19-1l3 14 1-2 2 8 1 2 1 2 2 5 1 4a54 54 0 0 0 50 26c5 0 17-3 21-6q15-9 22-24 4-5 6-11v-2c5-11 6-27 5-39l1-1v-3l5-3v-14c-1-7 1-5-6-7l-5-2q-9-2-18-1h-9a101 101 0 0 0-35 8h-1l-8 3-17 8-7 4c-22 13-30 11-53 0l-35-14-12-3-8-2a195 195 0 0 0-80 1v19l6 2q0 17 5 32a78 78 0 0 0 39 50q14 6 28 7c22 2 45-5 60-21q15-17 16-39m-157-39v-7l-1 1-9 4-6 3-2 2-4 1-1 1-5 3c-26 11-39 17-42 48 17-1 11-5 18-16 4-7 27-17 35-22h1l1-1 7-3 2-2 6-3zm46 165c5 5-4 20-7 25l-3 4-6 7-6 7-2 2-5 4-4 3-2 2h-1l-2 2-4 2q-3 3-5 1c-1 0-7-5-8-2l1 7c5 8 13 5 19 2l3-1 6-4q4-2 7-5l9-8 5-5v-3l4-5 2-4 2-2v1l1-1 1-2c4-10 7-14 6-26l-2-2-3-1-8-1-3 2-2 2 6 2zm-20 188 8 2 5 1 1 1c9-8 22-20 5-27-8-3-19-9-28-7q-6 4-8 10l-1 2-4 11c6 1 17 4 22 7m-81-230 4 3 1-3v-4l-1-2c-3-2-1-7-4-4l-3 3-2 2q-1 3 1 2c4 1 2 0 4 3m51 184q-4 9-6 19l15-7 1-7-1-1zm191-318c13-7 29-19 44-22 5-2 14 3 16 2v-1c0-3-6-8-8-10-16-13-23-7-35 6zM419 798l-1 1 3 1c3-2-1-2-2-2"/><defs><linearGradient id="a" x1="502.9" x2="505.5" y1="444.7" y2="662.2" gradientUnits="userSpaceOnUse"><stop offset="0" stop-color="#0e7cd0"/><stop offset="1" stop-color="#0bd4f5"/></linearGradient></defs><path fill="url(#a)" d="M400 446c-1-4-3-12-2-16 8 44 31 71 78 75q3 0 8 1 6-2 10-1l1-2q44-9 53-53l3-3h6q5 0 3-3c4 0 3 2 5 5q4 30 31 47 19 11 41 5 14-4 25-15l3-3 1 3-1 19-2 15q-5 22-17 41-18 33-46 59l-17 13c-36 20-67 30-109 31-1-9-1-17-8-23l-3-3c-9-6-24-5-31 4q-6 6-5 14-15-8-27-18c23-9 46-36 51-60 2-16-14-20-25-10l-44-19q0-8-5-12-5-3-11-3-7 2-10 8l-9-5c-1-10-4-17-5-29l12-12 20-19 10-10v-12q1 3 3 3l1-1 9-4z"/><path fill="#080707" d="M484 506q6-2 10-1l-1 1-2 2q-9 0-16 6l-6 5c-3-6 13-12 15-13"/><path fill="#080707" d="m485 511 7 4c23 15 52 22 79 21l5 1 1 2c-29 2-67-6-91-25q-2-1-1-3"/><path fill="#0d5fc9" d="M338 457c0-4 1-15 5-17q18-10 35-18l13-7h5l2 15c-1 4 1 12 2 16l-3 7-9 4-1 1q-2 0-3-3v10c-3 1-16 14-19 17l-41 38-4-2c0 4 30 24 35 27l-22 32c-20-18-61-36-44-68 2-4 10-11 13-14l27-25c5-6 21-20 25-26v-1q-9 6-16 14"/><path fill="#0aade6" d="m432 675 1-3v-5h-1v-1c1-2 25-1 29-2h2l7-1 1 5 1 2q3 14-1 28l-2 5h-1l-3 5c-3 5-18 23-24 24l-12-6q-8-1-16-5l1-3c-2-3-1 1-4-1l1-1 6-5q6-4 7-9l3-6q6-11 5-21"/><path fill="#0ec8f7" d="M454 718q0 4-5 6h-1c-1-1 5-5 6-6"/><path fill="#ed7238" d="M340 866c5 0 14-2 19-1q10 2 21 5c15 4 25 3 38-7l13-10c13-9 35-6 28 15-4 11-15 16-25 19-37 6-64-1-94-21"/><path fill="#044c66" d="M431 647c1-3 7-10 10-9 1 1-1 1 2 1h18q2 1 2-1l2 2q-2 3 2 5c5 9 3 10 4 18l1 7-1-2-1-5-7 1h-2c-4 1-28 0-29 2v1h1v5l-1 3c-1-12-4-17-1-28"/><path fill="#02171d" d="M431 647c1-3 7-10 10-9 1 1-1 1 2 1h18q2 1 2-1l2 2q-2 3 2 5l-2-2c-3-1-12-2-14-1l1 1c-2 1-5-3-6-2v1h-9z"/><path fill="#ed7238" d="M300 748c-2 12 6 17 8 28 1 7-1 19-2 26q-9-9-15-21l-3-12q1-13 12-21"/><path fill="#0f81d1" d="M550 443q6-4 13-1 3 3 2 7c-2-3-1-5-5-5q2 3-3 3h-6l-3 3zM476 505l12-1 7-1-1 2q-4-1-10 1-5-1-8-1"/><defs><linearGradient id="b" x1="506.6" x2="494.8" y1="234.1" y2="420" gradientUnits="userSpaceOnUse"><stop offset="0" stop-color="#13269c"/><stop offset="1" stop-color="#126fc7"/></linearGradient></defs><path fill="url(#b)" d="M472 159q34 32 63 68l9 12q14 17 27 35 23 28 41 58l14 23c-10-4-17-6-26 3q-16 17-30 35-5 6-9 13l17-11 35-20c9-4 14-3 23 0l6 10c-17 2-29 7-44 14-16 6-34 22-51 16q-25-10-51-21a186 186 0 0 0-106-4v3l-15 8-24 12q12-29 29-55l18-27c21-32 45-64 60-100 9-25 14-45 14-72m-39 209h26c17 2 42 12 57 19 7 3 20 9 26 10-12-14-55-48-74-46-15 2-23 7-35 17"/><path fill="#131d96" d="M472 159q34 32 63 68l9 12h-3c-7-2-28 1-38 0-11 0-22-5-33-4-5-5-5-3-12-3v-1c9-25 14-45 14-72"/><path fill="#080707" d="m466 349 3-1c26-1 68 41 87 58l-33-14c-37-13-57-29-101-19 14-11 26-21 44-24m-33 19h26c17 2 42 12 57 19 7 3 20 9 26 10-12-14-55-48-74-46-15 2-23 7-35 17M449 398l29 3h4l1 1 5 1q13 4 25 11h2c9 6 20 14 23 26q2 21-12 36l-1 1q-9 9-23 15h-1l-10 3c3 2-26 1-28 1l-1-1-7-3q-4 0-4-3l-2-1-10-6q-9-6-15-16l-2-2v-1q-5-8-7-17l-2-9c-3-27 12-37 36-39m-1 52-1-2-4-8c-5 0-5-9-6-12l-1-3v-1l2 3v-20l1 3c0-7-1-4-9-4l-3 1v17c1 5 6 18 9 22 22 35 84 31 98-10-11-10-28-19-41-24q1 12-2 24c-7 22-25 33-43 14"/><path fill="#fdfdfd" d="M451 489c15 6 24 7 40 6 3 2-26 1-28 1l-1-1-7-3q-4 0-4-3"/><defs><linearGradient id="c" x1="476.5" x2="472.7" y1="413.2" y2="491.5" gradientUnits="userSpaceOnUse"><stop offset="0" stop-color="#1261be"/><stop offset="1" stop-color="#0d92da"/></linearGradient></defs><path fill="url(#c)" d="M423 410c2 2 1 9 1 12l3 11c18 49 86 53 109 6 0 11 0 15-5 25a55 55 0 0 1-46 29q-28 1-49-17c-17-15-30-47-13-66"/><path fill="#fdfdfd" d="M493 412c13 5 30 14 41 24-14 41-76 45-98 10h3q2 3 6 7l4 3c5 6 11 5 2-1l-2-3-1-1v-1c18 19 36 8 43-14q3-12 2-24"/><defs><linearGradient id="d" x1="445.3" x2="423.2" y1="430" y2="413.9" gradientUnits="userSpaceOnUse"><stop offset="0" stop-color="#fcfcfb" stop-opacity=".9"/><stop offset="1" stop-color="#fff"/></linearGradient></defs><path fill="url(#d)" d="m427 407 3-1c8 0 9-3 9 4l-1-3v20l-2-3v1l1 3c1 3 1 12 6 12l4 8-5-4q1 1-2 2h-4c-3-4-8-17-9-22z"/><path fill="#fdfdfd" d="M443 440c-5 0-5-9-6-12l-1-3v-1l2 3v-20l1 3c-1 13 0 18 4 30"/><path fill="#fdfdfd" fill-opacity=".2" d="M439 446h1q3-1 2-2l5 4 1 2v1l-3 2q-4-3-6-7"/><path fill="#fdfdfd" fill-opacity=".9" d="M451 455c9 6 3 7-2 1z"/><path fill="#fdfdfd" fill-opacity=".4" d="m445 453 3-2 1 1 2 3-2 1z"/><path fill="#080707" d="M612 404c15-5 23-6 39-5l1 1h2l6 2h1l4 3 6 8v2l1 2q4 19-1 37l-2 4-3 7c-7 12-11 18-23 24l-10 4h-1l-5 1c-21 1-33-7-45-23l-3-6c-6-14-10-30 3-42q14-13 30-19m35 29v-2l1-5v-23c-1-2-10 1-12 1l-22 7c2 13 4 31-5 42l-4 6-3 2c-6 3-8 2-14 3 5 3 6 3 11 4q8 1 15-1l3-1q17-6 25-22l2-2zm11-14q5 15 9 31l1 4 2-10c2-5 2-26-2-29zm5-4q4-2 1-7-3-3-10-4 0 7 3 13z"/><path fill="#0f81d1" d="M653 416c4 10 11 35 12 46-18 39-66 40-84 2 22 13 48 7 62-15q9-15 8-32z"/><defs><linearGradient id="e" x1="644.7" x2="606.1" y1="432" y2="437.5" gradientUnits="userSpaceOnUse"><stop offset="0" stop-color="#fff" stop-opacity=".9"/><stop offset="1" stop-color="#fff" stop-opacity=".9"/></linearGradient></defs><path fill="url(#e)" d="m614 411 22-7v1c1 7 5 0 7 4v7c2 5-2 12 2 16l2 1q-7 2-3 9l-2 2q-3 0-4 4-5 3-8 9c-2 3-5 0-6 5-1 2-8 2-7 4l-3 1q1-4 5-5h-1q0-2-3-2l-3-1q-2 1-3-1-2-1-4 1l4-6c9-11 7-29 5-42"/><path fill="#fdfdfd" fill-opacity=".7" d="M605 459q2-2 4-1 1 2 3 1l3 1q3 0 3 2h1q-4 1-5 5-7 2-15 1 10-2 3-7z"/><path fill="#fdfdfd" fill-opacity=".5" d="M648 408v18c-1-3-5 4-1 5v2l-2-1c-4-4 0-11-2-16v-7l3 8 2-7z"/><path fill="#fdfdfd" d="M617 466c-1-2 6-2 7-4 1-5 4-2 6-5q3-6 8-9 1-4 4-4-8 16-25 22"/><path fill="none" d="M643 409c0-5-1-4 5-6v7l-2 7z"/><path fill="#fdfdfd" fill-opacity=".4" d="M636 404c2 0 11-3 12-1-6 2-5 1-5 6-2-4-6 3-7-4z"/><path fill="#fdfdfd" d="M644 442q-4-7 3-9z"/><path fill="#fdfdfd" fill-opacity=".2" d="M647 431c-4-1 0-8 1-5z"/><path fill="#0d5fc9" d="m651 417 1-2 1 1z"/><path fill="#ecebeb" d="M350 728h2l3 6c7 1 2 5 7 3l6-4q1 1 4 3 1 0 4-1-1 5 3 10h-4q-1 1 1 2c2 2-2 2-2 2 0 1 7 0 5-2v-1l3 4v1c-9 2-19 5-9 16l8 1c2 1-2 1-1 2s2-1 3 2v1l-6-2c-9 3-13 11-3 16h9q-6 3 1 4l-1 1c-3 0-9-2-11 2-5 8 1 14 10 14l1 1-3 1 3 1v6q-7 1 0 1c0 3-10 5-11 8q2 1 6-2c15-8 39-16 57-12q-2 2-4 1c-3 0-18 0-18 2l10 1h9l10-2q0 5 3 6c3 2 7 7 3 8l-7 6 4 4c-22 2-24 9-39 21-22 3-61-11-60-39q2-15-9-28c11-9 8-41 11-54z"/><path fill="#0aade6" d="M367 536q11 1 13 13l-5 9 1 1q4-2 5-8c16 8 38 16 54 23-7 21-25 41-44 51q-7-3-12-7l-7-10-7-15-1 1 3 9-13-8c2-3 9-12 8-15-2 0-9 15-14 18-8 6-20-6-16-14l19-29c4-7 9-16 16-19"/><path fill="#ecebeb" d="M304 761c4 0 4 7 7 9 0-1-4-6-3-8 0 0 1 4 2 2v-2h-1q-1-2 2-1t1-2c2-3 4 1 3 3l-1 3q0 2 2 0c2-1 0-11 3-7q2 3 0 6l-1 4 1 2q1 3 2 3l3-7c2 14 2 18 13 29 4 5 7 16 7 22-1 23 12 32 32 40-1 3 3 4 4 4 5 0 14 2 18 1l9-1 7-5q17-18 41-14v6c-23-8-31 10-49 19-14 7-31-2-45-5-11-2-22 7-29-4-8-10-8-16-6-28 2-8-3-15-7-21q-3-3-9-3c-2-2-1-10 0-14 2-16 0-18-6-31m54 91a1 1 0 1 0 0-3 1 1 0 0 0 0 3m-47-50zv1z"/><path fill="#ecebeb" fill-opacity=".9" d="M358 849a1 1 0 1 1-1 3 1 1 0 0 1 1-3"/><path fill="#ecebeb" fill-opacity=".6" d="M310 801h1zh-1z"/><path fill="#fdfdfd" d="M515 414c5 0 7 4 8 4l-2-2-2-2q-3 0-5-4h-4l-1-1q1-2-1-2t-2-3q3 0 4 2l3 1 4-1c2 7 9 2 9 5 0 1-5 3-1 4l3-3v-2c23 11 31 13 53 0q4 2 7 3 11-8 24-9-16 6-30 19c-13 12-9 28-3 42q-2 1-3-2l-2-4-2-12c-1-7-5 0-2 6l-1 2-3-14c-8-4-11-5-19 1q-1 22-16 39a72 72 0 0 1-60 21q-14-1-28-7 4-1 9 1 5 4 10-1l1 1c2 0 31 1 28-1l10-3q-3 2-1 4l5-1q6-4 13-4c5-5 11-7 14-14 0 0 4-4 2-5-3-2-4 3-7 4h-1q13-15 12-36c-3-12-14-20-23-26"/><path fill="#fdfdfd" fill-opacity=".9" d="M406 389c17-2 51-4 67 2v1c-1 1-8 3-3 7l-21-1 7-1-14-1-4 1q-6 1-11 4c-3 2-7 0-9 4q-3 3-3 4-1 2-1 5l-4 8c0 4-1 24 5 24q2 9 7 17-4 1-4-3c-1 3 2 2-2 7q0 2 1 5-9-11-13-27c0-1 4-11 2-12l-3 8v-2l-1-2v-24l-6-2q-2-6-1-11 0-2-2-3v-1h4v-1c0-1 8-1 7-4h-2c2-2 4 2 4-2"/><path fill="#ed7238" d="M348 723zl-3 16q-1 21-6 43c-2 9-5 6-9 1-4-8-7-33-6-42 4-6 17-14 23-19"/><path fill="#ecebeb" fill-opacity=".3" d="M410 733c2-4 5-1 7 0h10c3 5 2 3 7 6 2 0 1 5 1 7q0-5-2-2h-1q0 5 3 2-2 5-7 5-4 0-5 5c-7-2-1-6-2-7q-2 1-3 2c-3 0-1 2-4 1q0-2-2-2h-6l-3-8-5-4 1-2c7 4 4-1 8-2 0 3 6 1 3-1"/><path fill="#ed7238" d="m393 751 37 11 2 1q4 5-2 8c-9 0-31-10-40-13v-1z"/><defs><linearGradient id="f" x1="596" x2="606.2" y1="492.4" y2="479.6" gradientUnits="userSpaceOnUse"><stop offset="0" stop-color="#fff" stop-opacity="0"/><stop offset="1" stop-color="#fff" stop-opacity=".1"/></linearGradient></defs><path fill="url(#f)" d="M576 470q3-2 6 1c12 16 24 24 45 23h1c-4 3-5 1-9 3l-8 1h1l-1 1q-22-6-34-25z"/><path fill="#fdfdfd" d="M442 567c2 2 0 4 2 6-1-1 2 2 2-1l1-3c1 12-2 16-6 26l-1 2-1 1v-1l-2 2-2 4-4 5 4-7c0-3-5 0-6-2l-3-2 3-4q4-1 4-4l3-8h1v1c0-7 6-3 5-15"/><defs><linearGradient id="g" x1="681.4" x2="669.6" y1="398.3" y2="405.7" gradientUnits="userSpaceOnUse"><stop offset="0" stop-color="#fff" stop-opacity=".5"/><stop offset="1" stop-color="#fff" stop-opacity=".6"/></linearGradient></defs><path fill="url(#g)" d="M678 393zq0 4 4 4c-4 4 1 1 2 5l2-1v4q-3 1-6 4c-3 2 0 3 1 5v3q-2 0-4-1l-2-5h-4c-2-2 0-4-2-6-4-2 2-5-5-6q-2-2-6-3-2-1-3 2l1 1q3 1 3 3l-6-2h-2c4-3 1-3 5-5l1 1c9-2 5 4 10 1 8-3 8 5 10-4m2 23q1-3-2-5-2 4 2 5"/><path fill="#fdfdfd" fill-opacity=".8" d="M678 411q3 2 2 5-4-1-2-5"/><path fill="#ed7238" d="M386 773q-2-3-1-5l9 4 2 1 1 1 24 1h8q5 3 1 6c-5 2-24-1-30-2l-12-4q1-2-2-2"/><path fill="#f6693e" d="M386 773q-2-3-1-5l9 4-3 1z"/><path fill="#150a09" d="m394 772 2 1 1 1-9 1q1-2-2-2h5z"/><path fill="#c2724b" d="m394 772 2 1h-5z"/><path fill="#f6693e" d="M429 775q5 3 1 6-3-2-1-6"/><path fill="#ed7238" d="M424 802c8-1 9 7-4 6-7 0-24 6-30 8q-4 2-6 0c0-5 18-10 20-10l3-1zM419 789c3 0 12-1 12 4 0 2-5 3-6 3h-4l-36-2 5-1 3-1z"/><path fill="#fdfdfd" fill-opacity=".8" d="m493 396 35 14v2l-3 3c-4-1 1-3 1-4 0-3-7 2-9-5l-4 1-3-1q-1-2-4-2 0 3 2 3 2-1 1 2l1 1h4q2 4 5 4l2 2 2 2c-1 0-3-4-8-4h-2q-12-7-25-11 5-1 6-4zm10 10c0-2 3-3-2-4q-3 4 2 4"/><path fill="#fdfdfd" fill-opacity=".7" d="M501 402c5 1 2 2 2 4q-5 0-2-4"/><path fill="#ed7238" d="M414 772h-7l-7-1c-3-1-21-8-22-10v-1l1-2c3-2 35 12 40 13l3 1z"/><path fill="#c2724b" d="m419 771 3 1h-8z"/><path fill="#fdfdfd" fill-opacity=".7" d="M417 472q-1-3-1-5c4-5 1-4 2-7q0 4 4 3v1c-4 1-3 9 2 2q6 10 15 16-4 1-6 4v3c-5-4-13-11-16-17"/><path fill="#fdfdfd" d="m410 422 4-8q0-3 1-5 0-1 3-4c2-4 6-2 9-4q5-3 11-4l4-1 14 1-7 1c-24 2-39 12-36 39l2 9c-6 0-5-20-5-24"/><path fill="#ecebeb" fill-opacity=".6" d="m322 748 1 9 1 9-3 7q-1 0-2-3l-1-2 1-4q2-3 0-6c-3-4-1 6-3 7q-2 1-2 0l1-3c1-2-1-6-3-3q2 3-1 2-2-1-2 1h1v2c-1 2-2-2-2-2-1 2 3 7 3 8-3-2-3-9-7-9l-3-9c11 1 5 4 7 6v-1h1q3 1 5-2c3-4 9-5 1-7z"/><path fill="#ed7238" d="M380 776zc2 4 5-1 11 3l16 4 3 3-1 2c-11 0-7 0-18-2l-3-1h-2q-6 0-10-4c-2-3 2-4 3-5"/><path fill="#fdfdfd" fill-opacity=".9" d="M526 476zc3-1 4-6 7-4 2 1-2 5-2 5-3 7-9 9-14 14q-7 0-13 4l-5 1q-2-2 1-4h1q14-6 23-15zm4 3c0-5-3-2-5 0l-5 5-11 7 8-1q7-6 13-11m-27 17zq1-2-1-2-2 2 1 3"/><path fill="#fdfdfd" fill-opacity=".8" d="M530 479q-6 6-13 11l-8 1 11-7c4 3 6-3 10-5"/><path fill="#fdfdfd" fill-opacity=".6" d="m520 484 5-5c2-2 5-5 5 0-4 2-6 8-10 5"/><path fill="#fdfdfd" fill-opacity=".7" d="M502 493q2 0 1 2v1q-4-1-1-3"/><path fill="#fdfdfd" fill-opacity=".8" d="m614 400 9-2 10-3s9-4 10-2c1 3 20-2 14 2-4 2-1 2-5 5l-1-1q-2-3-5-3c-6-1-47 8-52 11l-1 1-3 1-2-3 17-8c3 5 3 4 9 2"/><path fill="#ecebeb" fill-opacity=".6" d="M359 724c2 1 0 2 2 3 3 3 7-1 10 0 2 0 1 4 5 5v3q-3 1-4 1-3-1-4-3l-6 4c-5 2 0-2-7-3l-3-6q4 3 5-1 3 2 2-2z"/><defs><linearGradient id="h" x1="424.2" x2="431.3" y1="602.1" y2="606.1" gradientUnits="userSpaceOnUse"><stop offset="0" stop-color="#f5f5f4" stop-opacity=".8"/><stop offset="1" stop-color="#f6f6f6" stop-opacity=".9"/></linearGradient></defs><path fill="url(#h)" d="m420 604 6-7 3 2c1 2 6-1 6 2l-4 7v3l-5 5q1-2-2-3 1-4 0-4l-4 2v-1c1-1 8-7 0-6"/><path fill="#ed7238" d="M382 795zc8 4 21 2 32 5l-7 1h-17c-5-1-20 0-9-7"/><path fill="#f8f7f8" fill-opacity=".9" d="m588 406 2 3 3-1 1-1c5-3 46-12 52-11q3 0 5 3c-16-1-24 0-39 5q-13 1-24 9-3-1-7-3z"/><path fill="#fdfdfd" fill-opacity=".7" d="M649 387c4 2-5 5 8 5q6 2 1 4l-1-1c6-4-13 1-14-2-1-2-10 2-10 2l-10 3-9 2 11-5-4-3 3-1q4 1 10 1l11-3q4 1 4-2"/><path fill="#fdfdfd" fill-opacity=".5" d="m481 393 12 3 1 3q-2 3-6 4l-5-1-1-1h-4l-5-2c4 0 9 1 8-5zm8 9q6-3-1-6-8 4 1 5z"/><path fill="#fdfdfd" fill-opacity=".4" d="M488 396q7 3 1 6v-1q-9-1-1-5"/><path fill="#ecebeb" fill-opacity=".7" d="m394 749 4-11 5 4 3 8h1c5 2 7 1 9 6-5-3-16-6-22-7m6-1-3-3v1q0 2 3 2"/><path fill="#ecebeb" fill-opacity=".5" d="m397 745 3 3q-3 0-3-2z"/><path fill="#fdfdfd" fill-opacity=".4" d="M660 402q0-2-3-3l-1-1q1-3 3-2 4 1 6 3c7 1 1 4 5 6 2 2 0 4 2 6h4l2 5h-1q-3-1-6-1v-2l-6-8c2-3-2-5-4-3z"/><path fill="#fdfdfd" d="M393 397q3 1 2 3-1 5 1 11l6 2v24l1 2v2l3-8c2 1-2 11-2 12q-5-15-5-32l-6-2z"/><path fill="#ecebeb" fill-opacity=".2" d="M415 622zl1 1q-3 3-7 5c0-2-9-1-6 4l-3 1-6-3q0-1-1-4v-1l4-2c3 2 1 5 3 6l7-4c4-4 4 2 7-4"/><path fill="#fdfdfd" fill-opacity=".4" d="m633 493 10-4c2 4 1 2 5 5-4 3-16 6-21 6l4-1q1-3 3-6z"/><path fill="#fdfdfd" fill-opacity=".3" d="m473 391 8 2v1c1 6-4 5-8 5h-3c-5-4 2-6 3-7z"/><path fill="#ecebeb" fill-opacity=".4" d="M407 617q2 4 5 1-2 2-3 5c1 2 5-2 7-3l-1 2c-3 6-3 0-7 4l-7 4c-2-1 0-4-3-6l2-2h1l1 2h2q1-2-1-4zm-4 11 1-1q4-2 0-3-3 2-1 4"/><path fill="#ecebeb" fill-opacity=".6" d="M404 624q4 1 0 3l-1 1q-2-2 1-4"/><path fill="#fdfdfd" fill-opacity=".1" d="m627 494 5-1h2q-2 3-3 6l-4 1q-9 1-16-1l1-1h-1l8-1c4-2 5 0 9-3z"/><path fill="#fdfdfd" fill-opacity=".7" d="M443 487c3 1 2 2 6 1l2 1q0 3 4 3-4 0-4 4h1q-4-2-9-1l-2-2-2-2z"/><path fill="#fdfdfd" fill-opacity=".6" d="m614 395 7-3 4 3-11 5c-6 2-6 3-9-2zq0 2-2 2c-3 5 9 3 3-2M669 458q5-4 7 1-2 6-6 11-1-2-4-5z"/><path fill="#ecebeb" fill-opacity=".9" d="M435 812h3-1c-4 4 2 2 5 2l-10 2h-9l-10-1c0-2 15-2 18-2q2 1 4-1"/><path fill="#fdfdfd" fill-opacity=".2" d="M658 387q9-1 18 1v1c-7 2-3 1-10 1l-7 1c-7 0-4-4-4-4z"/><path fill="#fdfdfd" fill-opacity=".4" d="M367 416q1-2 4-1c3 1 9-5 12-4s0 5-1 6l-7 3-1 1c0-6 0-5-7-5"/><path fill="#fdfdfd" fill-opacity=".5" d="M367 408zq2 1 3 4 0 4 4 2l8-4 3-1c3 2-1 6-2 7l-2 2c1-1 4-5 1-6s-9 5-12 4q-3-1-4 1c-4 1-2-3 1-4q2-2-1-4"/><defs><linearGradient id="i" x1="434" x2="438.1" y1="483.2" y2="486.4" gradientUnits="userSpaceOnUse"><stop offset="0" stop-color="#fafafa" stop-opacity=".7"/><stop offset="1" stop-color="#fafafa" stop-opacity=".7"/></linearGradient></defs><path fill="url(#i)" d="m439 482 10 6c-4 1-3 0-6-1q-6-1-6 3l2 1 2 2-8-4v-3q1-4 6-4"/><path fill="#ecebeb" fill-opacity=".1" d="m359 724 4-2q0 1-1 3l2-1 8 1c5 2 3 1 4 5v2c-4-1-3-5-5-5-3-1-7 3-10 0-2-1 0-2-2-3"/><path fill="#fdfdfd" fill-opacity=".3" d="M367 408q3 2 1 4c-3 1-5 5-1 4 7 0 7-1 7 5h-1c-1-6-10-1-11-3 1-5 2-2 0-7z"/><path fill="#ecebeb" d="M438 567h4c1 12-5 8-5 15v-1h-1l-3 8q0 3-4 4c3-5 12-20 7-25z"/><path fill="#fdfdfd" d="m327 522 11-11 1 9c-3-2-1-7-4-4l-3 3-2 2q-1 3 1 2c4 1 2 0 4 3l4 3 1-3 2 7z"/><path fill="#fdfdfd" fill-opacity=".8" d="M390 403v9l-6 3c1-1 5-5 2-7l-3 1-7 3c-5 1-4-4 1-3 2 0 2-4 5-4l-1 2 1 1h7l1-2v-1h-3z"/><path fill="#ed7238" d="m378 754 4 1-1 1q-9 3-2 9h1c-10 2-11-9-3-11z"/><path fill="#fdfdfd" d="M447 569c7 9-10 35-16 42v-3l4-5 2-4 2-2v1l1-1 1-2c4-10 7-14 6-26"/><path fill="#fdfdfd" fill-opacity=".6" d="m380 401 3 4h-1c-3 0-3 4-5 4-5-1-6 4-1 3l7-3-8 4q-4 2-4-2-1-3-3-4l4-1 2 2c7-1 2-3 0-4z"/><path fill="#fdfdfd" d="m420 611 4-2q2 1 0 4l-8 7q-4 1-3-2l1-1 1-1 4-4z"/><path fill="#fdfdfd" fill-opacity=".8" d="m624 391 25-4q0 3-4 2l-11 3q-6 0-10-1"/><path fill="#f6693e" d="M380 776h-1c-5-2-5 4-3 7l3 2q-3 1-5-1c-5-3-3-10 3-11q3 0 4 3z"/><path fill="#fdfdfd" fill-opacity=".6" d="M657 392q5 2 10 1l8-1c1 0 3-4 4 1h-1q1-3-2-1c-2 3-5 0-7 1h1l-1 1q-1 1 1 2 4 0 7-2l1-1c-2 9-2 1-10 4-5 3-1-3-10-1q5-2-1-4"/><path fill="#ed7238" d="m376 793 4 1-1 1q-4 1-3 6l4 2 3 1c-9 4-14-4-7-11"/><path fill="#fdfdfd" fill-opacity=".7" d="M393 392q7-3 13-3c0 4-2 0-4 2h2c1 3-7 3-7 4v1h-4z"/><path fill="#ecebeb" fill-opacity=".1" d="M424 613q2 1 2 3l-9 8-1-1-1-1 1-2z"/><path fill="#fdfdfd" fill-opacity=".4" d="M680 391q-2-2-4-1-6 3-14 2l-9-1v-3l1-1h1s-3 4 4 4l7-1c7 0 3 1 10-1v-1l5 2z"/><path fill="#fdfdfd" fill-opacity=".8" d="m332 519 3-3c3-3 1 2 4 4l1 2v4l-1 3c0-3 0-7-4-3-2-3 0-2-4-3l3-2c3-2 4-7-2-2"/><path fill="#fdfdfd" fill-opacity=".9" d="M570 453c-3-6 1-13 2-6l2 12-2 2z"/><path fill="#fdfdfd" fill-opacity=".5" d="M649 387h9-4l-1 1v3l9 1q8 1 14-2 2-1 4 1l-1 2c-1-5-3-1-4-1l-8 1q-5 1-10-1c-13 0-4-3-8-5"/><path fill="#ecebeb" fill-opacity=".6" d="m309 752 6-4c8 2 2 3-1 7q-2 3-5 2h-1c1-1 6-2 2-4z"/><path fill="#ecebeb" fill-opacity=".1" d="M314 740q5 1 8 3v1h-8q-2 1-4 4l1-3q-3-1-1-3z"/><path fill="#fdfdfd" d="m570 453 2 8 1 2 1 2 2 5 1 4q-5-9-8-19z"/><path fill="#fdfdfd" fill-opacity=".1" d="m671 454 2-1 2-6v-1q2 2 2 5l-1 6v2q-2-5-7-1z"/><path fill="#ecebeb" fill-opacity=".4" d="M406 750h6q2 0 2 2c3 1 1-1 4-1q1-1 3-2c1 1-5 5 2 7l1 2-8-2c-2-5-4-4-9-6z"/><defs><linearGradient id="j" x1="452.9" x2="456.9" y1="494.6" y2="493.7" gradientUnits="userSpaceOnUse"><stop offset="0" stop-color="#fff" stop-opacity=".5"/><stop offset="1" stop-color="#fff" stop-opacity=".5"/></linearGradient></defs><path fill="url(#j)" d="M452 496zq0-4 4-4l7 3q-5 5-10 1"/><path fill="#fdfdfd" fill-opacity=".1" d="M687 405v6l-5 3c-1-2-4-3-1-5q3-3 6-4"/><path fill="#fdfdfd" fill-opacity=".6" d="M420 604c8-1 1 5 0 6v1l-1 1q-1-4-5-1z"/><path fill="#ecebeb" d="M376 857q10 4 22 5c-4 1-13-1-18-1-1 0-5-1-4-4"/><path fill="#ecebeb" fill-opacity=".9" d="M314 744h8v3h-9z"/><path fill="#fdfdfd" fill-opacity=".9" d="M383 405h7v1l-1 2h-7l-1-1 1-2z"/><path fill="#ecebeb" fill-opacity=".7" d="M310 748q2-3 4-4l-1 3h9v1h-7l-6 4v-3z"/><path fill="#fdfdfd" fill-opacity=".8" d="M576 463q1 3 3 2l3 6q-3-3-6-1l-2-5z"/><path fill="#fdfdfd" fill-opacity=".1" d="M671 415q3 0 6 1h1q2 1 4 1l-1 1c-6 4-5-3-9-1z"/><path fill="#ecebeb" fill-opacity=".1" d="M414 611q4-3 5 1l-4 4-3-3z"/><path fill="#ecebeb" fill-opacity=".2" d="m412 613 3 3-1 1-2 1q-3 2-5-1z"/><defs><linearGradient id="k" x1="310" x2="307.5" y1="753.1" y2="756" gradientUnits="userSpaceOnUse"><stop offset="0" stop-color="#e2e2e1" stop-opacity=".5"/><stop offset="1" stop-color="#e2e2e1" stop-opacity=".5"/></linearGradient></defs><path fill="url(#k)" d="M309 749v3l1 1c4 2-1 3-2 4v1c-2-2 4-5-7-6v-1q5 4 8-2"/><path fill="#ecebeb" fill-opacity=".6" d="m438 812 6 2q-2 3 1 6-3-1-3-6c-3 0-9 2-5-2z"/><path fill="#ecebeb" fill-opacity=".9" d="m442 566 3 1q-2 3 1 5c0 3-3 0-2 1-2-2 0-4-2-6h-4z"/><path fill="#ecebeb" fill-opacity=".7" d="M379 746zc2 2-5 3-5 2 0 0 4 0 2-2q-2-1-1-2h4z"/><path fill="#fdfdfd" fill-opacity=".7" d="M687 397v4l-2 1c-1-4-6-1-2-5z"/><path fill="#fdfdfd" fill-opacity=".4" d="M424 466c-5 7-6-1-2-2z"/><path fill="#fdfdfd" fill-opacity=".7" d="m439 491-2-1q0-5 6-3z"/><path fill="#fdfdfd" fill-opacity=".8" d="m412 618 2-1-1 1q-1 3 3 2c-2 1-6 5-7 3q1-2 3-5"/><path fill="#fdfdfd" fill-opacity=".5" d="M613 395h1c6 5-6 7-3 2q3 1 2-2"/><path fill="#ecebeb" d="m436 568-1 3-6-2 2-2h1q0 3 4 1"/><path fill="#ed7238" d="M414 784c3 0 9 0 10 2q-5 1-10-2"/><path fill="#f8f7f8" fill-opacity=".2" d="m434 565 4 2-2 1q-3 2-4-1h-1z"/><path fill="#fdfdfd" fill-opacity=".6" d="m372 406 2-2c2 1 7 3 0 4z"/><path fill="#e4aca0" d="m385 787 8 2c-5 1-6 3-8-2"/><path fill="#f8f7f8" d="m382 808 3-2q2 4-1 5z"/><path fill="#fdfdfd" fill-opacity=".7" d="m676 392 1 2q-3 3-7 2 5-2 0-3h-1c2-1 5 2 7-1"/><path fill="#f6693e" d="m388 805 6 1v1c-5 1-6 3-6-2"/><path fill="#fdfdfd" fill-opacity=".5" d="m572 461 2-2 2 4-2 2-1-2z"/><path fill="#fdfdfd" fill-opacity=".2" d="M661 402c2-2 6 0 4 3z"/><path fill="#fdfdfd" fill-opacity=".3" d="M335 526c4-4 4 0 4 3z"/><path fill="#f8f7f8" fill-opacity=".6" d="m434 565 8 1-4 1z"/><path fill="#fdfdfd" fill-opacity=".5" d="M332 519c6-5 5 0 2 2z"/><path fill="#ecebeb" fill-opacity=".3" d="M403 620q2 2 1 4h-2l-1-2z"/><path fill="#ecebeb" fill-opacity=".8" d="m445 567 2 2-1 3q-4-3-1-5"/><path fill="#fdfdfd" fill-opacity=".6" d="m332 519 2 2-3 2-1-2z"/><path fill="#ecebeb" d="m576 391 1 1-5 3z"/><path fill="#ecebeb" fill-opacity=".6" d="M432 744zq3-3 2 2-3 3-3-2"/><path fill="#f8f7f8" fill-opacity=".7" d="M381 768q3 1 2 5v-1c-1-3-2-1-3-2s3-1 1-2"/><path fill="#ecebeb" fill-opacity=".6" d="M410 733c3 2-3 4-3 1z"/><path fill="#f8f7f8" fill-opacity=".4" d="m383 787 1 4q-7-1-1-4"/><path fill="#fdfdfd" fill-opacity=".7" d="M670 393q5 1 0 3-2-1-1-2z"/><path fill="#f6693e" d="M419 798c1 0 5 0 2 2l-3-1z"/><path fill="#f8f7f8" fill-opacity=".6" d="m383 811-3-1 3-1z"/><path fill="#c2724b" d="m411 786 3 1-4 1z"/><path fill="#ecebeb" fill-opacity=".9" d="M383 817v1q-7 0 0-1"/><path fill="#fdfdfd" fill-opacity=".5" d="m330 521 1 2q-2 1-1-2"/><path fill="#ecebeb" fill-opacity=".7" d="M359 725q1 4-2 2z"/><path fill="#fdfdfd" fill-opacity=".7" d="M676 392q3-2 2 1l-1 1z"/><path fill="#080707" d="M583 633h1c21-12 38-35 53-54l-8 12c-11 16-26 33-43 43l-3 1v3l-2 1 13 14c19 18 29 49 31 75 30-9 20 9 25 28 1 1 7 2 5 8l-1 2c6 6 5 1 11 3q4 3 0 9l4 2h1q5-2 8 2v6q7 0 10 3c2 4-3 6 1 9l11-3q24-4 35 16c11 2 9 9 12 17 5 20-12 34-27 43-25 14-56 21-84 14-13-3-21-19-35-18-4 1-12 7-17 8q-21-2-42-8c-12-4-17-27-7-34 2-8 3-14 11-18l2-2 9-33 8-22q0-7 2-15c3-8 12-7 20-7q0-37-25-63l-21-18h-7q-8 1-14 4l-39 5-5-1 1 1-3 1-1 2q0-4-2-6c-1-8 1-9-4-18q-4-2-2-5l1 1c7 6 7 14 8 23 42-1 73-11 109-31m69 201c0-4 3-4 3-9v-2q-2 1-5 3c-6 1-9 4-14-3v-4l-1-4v-1l-2 1-1 1h-3l-3 1-6-4c-6-16 14-10 5-15l-5-3-5 5-3 2q-5 0-8-2l-1-1-1-1v-1c-2-12 8-11 9-15q-1-3-3-4c-19-3-24-3-28-24l1 1 5 10 1-14v-12l-13 1c-10 8-5 10-7 19q-3 13-8 25l16 17 6 7 3 3c6 6 16 15 19 23l3 8 11 2c14 6 15 15 33 16 12 1 28 0 39-4h2v-2c0-2 5-4 5-5q-2-2 0-7l3-3v1q4-10 13-16l5-4h1l6-4 9-3q-7-12-22-14-13-1-25 5l-3 3q-18 12-30 29l-4 6q0-5 3-8m-83-1-6-3-2-1-6-3-6-5q-2-4-5 0l-3 4-1 2c-1 6-4 10 1 15 7 7 19 6 27 13 3 3 11 21 17 20 9-3 13-11 24-7 9 3 13 8 20 13s20 6 29 7c4-6 5-8 11-12l6-3 8-3c13-4 16-3 21-16l-1-1-2-1v-1l-1 1-5 4-9 4-4 1-4 1-23 1q-16 1-29-11c-12-12-27-5-41-8-4-1-12-8-16-11m67-105q-14 2-26 8c-13 8-5 26 1 35l3-1 33-14-2-22v-1q-2-6-9-5m74 108-1-2v-1l-5 2c1 7-4 8 3 11zm11-16q0 3 3 2h1zm18-3q-4 1-7-1l-4 1 1 1 4 1q4 1 6-1zm-22 9z"/><defs><linearGradient id="l" x1="631.6" x2="683.7" y1="793.1" y2="857.8" gradientUnits="userSpaceOnUse"><stop offset="0" stop-color="#f1f1f0" stop-opacity=".6"/><stop offset="1" stop-color="#efefee" stop-opacity=".9"/></linearGradient></defs><path fill="url(#l)" d="m683 807-1 4c2 2 7-4 10-1 2 1 10-6 12-3l-3 1v4c4 5 2 7 9 5q-1 1-1 3v2l-2 2h5q-9 6-13 16v-1l-3 3q-2 5 0 7c0 1-5 3-5 5v2h-2l-12 1h8l-8 2h-5c-2 2-5-1-6-1-3 2-15 1-16 2-18-1-19-10-33-16l-11-2-3-8c-3-8-13-17-19-23h6c6 2 8 6 14 6q6 0 12-1 4 0 4-3l6 4c-1 1 4 2 6 5v5c4 2 4-3 4-4 5 7 8 4 14 3q3-2 5-3v2c0 5-3 5-3 9q-3 3-3 8l4-6q12-17 30-29m-39 22h-2q-6 1-3 4c1 1 12 2 12-1 1-6-2-2-7-3m-1 12zh1c3-1 5-6 0-7l-1-1c-6 6-2 8-2 5h1zm15-6a1 1 0 1 0-1-2 1 1 0 0 0 1 2"/><path fill="#ecebeb" fill-opacity=".7" d="M644 829c5 1 8-3 7 3 0 3-11 2-12 1q-3-3 3-4c-4 3 2 5 2 0"/><path fill="#ecebeb" fill-opacity=".6" d="m643 834 1 1c5 1 3 6 0 7h-1v-1l-1-2h-1c0 3-4 1 2-5M642 829h2c0 5-6 3-2 0"/><path fill="#ecebeb" fill-opacity=".7" d="M657 833a1 1 0 1 1 1 2 1 1 0 0 1-1-2"/><path fill="#0aade6" d="m592 653 4 4q7 9 13 21c3 5 10 21 10 27l4 23c-16 6-28 13-20 32 1 4 6 11 5 14-2 3-16-2-19-3 0-25 2-38-5-64l-3-8q-5-11-13-21l-4-5z"/><path fill="#0ec8f7" d="M584 707c6 4 6 43 6 51v12c2 2 15 5 17 4 1-5-10-17-7-27q1-9 10-14l7-4h-1l-2-1 5-4c2-5-1-14 0-19l4 23c-16 6-28 13-20 32 1 4 6 11 5 14-2 3-16-2-19-3 0-25 2-38-5-64"/><path fill="#044c66" d="m592 653 4 4q7 9 13 21l-3-5-5-8c-4-2-15-1-20-2q-3 0-4 2l-12 8q2 3 3 5l-4-5z"/><path fill="#ecebeb" fill-opacity=".9" d="m550 845 2-2 1-1 1-1 1-1 1-1 1-2h1v-2l4-3 1-1 1 1h-1v5q-1 2 1 3c1-5 1-2 4-5-3 3 4-6 1-2 4 3 12 10 16 11 14 3 29-4 41 8q13 12 29 11l-4 1q-5-1-8 1c-2 1-3 5 0 4q9-1 3 5l-1-2v1l-1-1c-3 0-2 7 2 5q4 0 8 2 1 0 1 2-6 3-12 1h-7c-1-1 3-1 4-1l5-1-1-1q-1-1-4 1-5-1-7 3-7-7-15-12v-2h-1l-1 1-8-3c-8-5-19 8-26 7v-1l3-3q-1-2-3-2l-2 1-8-12-1 1q-3-4-7-7h2l3 2c-2-5-5-1-8-4h6l-4-3-2-2c-5 0-4 3-10 1z"/><path fill="#ed7238" d="M735 824q9 1 10 11c2 32-51 49-73 52l-12 1c6-7 7-7 14-12 10-5 21-4 28-12 7-9 6-20 12-28 3-6 15-11 21-12"/><path fill="none" d="m574 740 13-1v10q-7-2-7 5c4 21 9 21 28 24q2 1 3 4c-1 4-11 3-9 15h-3l-1-1h-3q0 2-2 2l-1 1h1l-2 1v3h-3v-1c-4-1-2 0-6-4q-4-5-8-5c-1 2 2 4 1 8l-16-17q5-12 8-25c2-9-3-11 7-19"/><path fill="#ed7238" d="m558 787 29 30 14 15 2 10h-9c-11 0-14-4-23-10q-11-5-20-12c-2-7 4-26 7-33M535 838l1 2c4 10 22 10 30 16l7 10 4 7q0 1-2 1l-23-5c-11-2-18-5-20-17q-1-7 3-14"/><path fill="#ecebeb" fill-opacity=".7" d="m655 863 23-1 4-1v1h1l-3 1-4 1q-4 3 0 5 4 0 7-1v2l-8 3-6 3c-5 0-10 7-15 9-1 1-5-2-6-1l-15-1q2-4 7-3 3-2 4-1l1 1-5 1c-1 0-5 0-4 1h7q6 2 12-1 0-2-1-2-4-2-8-2c-4 2-5-5-2-5l1 1v-1l1 2q6-6-3-5c-3 1-2-3 0-4q3-2 8-1zm5 12c3-5-4-1 1-6h-5c-1 1-8-2-8-3l2-1c-1 0-5 1-4 2q3 1 4 3c1 2-3 3 0 5q2 2 5 2zm4-8v-2q-3-2-8-1-4 3 1 4c4 1 3 0 7-1"/><path fill="#ecebeb" fill-opacity=".6" d="m650 865-2 1c0 1 7 4 8 3h5c-5 5 2 1-1 6l-5 2q-3 1-5-2c-3-2 1-3 0-5q-1-2-4-3c-1-1 3-2 4-2"/><path fill="#ecebeb" fill-opacity=".4" d="M656 864q5-1 8 1v2c-4 1-3 2-7 1q-5-1-1-4"/><path fill="#ed7238" d="M659 771q1-2 3-2 5 3 1 7-13 14-27 29c-3 4-7 13-14 8-4-4 1-12 3-9h2q10-7 16-17z"/><path fill="#150a09" d="M659 771q1-2 3-2z"/><path fill="#080707" d="M625 808q7-1 3 3-5 2-3-3"/><path fill="#ed7238" d="m649 758 5 3c-2 5-14 13-17 16l-23 19c-1 0-5-2-4-3 11-11 26-26 39-35"/><path fill="#ecebeb" d="m541 842 9 3h1c6 2 5-1 10-1l2 2 4 3h-6c3 3 6-1 8 4l-3-2h-2q4 3 7 7l1-1 8 12q1 2 3 2 0-2-1-3 2 0 3 2l-3 3v1c7 1 18-12 26-7l8 3 1-1h1v2q8 5 15 12l15 1c1-1 5 2 6 1 5-2 10-9 15-9-6 4-7 6-11 12-9-1-22-2-29-7s-11-10-20-13c-11-4-15 4-24 7-6 1-14-17-17-20-8-7-20-6-27-13"/><path fill="#ed7238" d="m673 782 3 2c-1 6-13 17-16 20l-13 17h-2l-1-1c0-9 24-35 29-38M652 767l4 4-19 19-11 4h-4c5-6 25-22 30-27"/><path fill="#ecebeb" fill-opacity=".4" d="m602 798 1 1-1 1 3 4q-3-2-4-2v1q1 0 2 2 2 5 6 2c2-1 2 3 5 2q3 1 4-3c0 9-2 1-6 6q-3 5-9 2-8-4-17-5-2-2-5-1 2-4 6-1l7 1v-1l-2-2 2-3c3 2 3-2 5-2z"/><path fill="#ed7238" d="M642 760zl-25 22-3-2-5-5c9-8 22-10 33-16"/><path fill="#ecebeb" fill-opacity=".6" d="M540 827zv2q0 3 2 6l2 1q2 0 3 2 5 3 5-3 2-3 5-3l5-2 6 3c3-4-4 5-1 2-3 3-3 0-4 5q-2-1-1-3v-5h1l-1-1-1 1-4 3v2h-1l-1 2-1 1-1 1-1 1-1 1-2 2-9-3c-5-5-2-9-1-15"/><path fill="#ecebeb" d="M732 816c8-2 9 1 11 9-10-7-13-1-23 2-6 3-6 6-10 9l-1-2v-1l-5 2c4-8 11-10 17-15q0 3 3 2h1l-4-2 7-3 1 1 4 1q4 1 6-1v-1q-4 1-7-1m-15 10zM716 826l1-1z"/><path fill="#ecebeb" fill-opacity=".2" d="M575 801c1-4-2-6-1-8q4 0 8 5c4 4 2 3 6 4v1h3v-3l2-1v-1q2 0 2-2h3l1 1h3v1l-3 2c-2 0-2 4-5 2l-2 3 2 2v1l-7-1q-4-3-6 1z"/><path fill="#ed7238" d="m681 790 2 1 3 1 1 2c-1 2-23 15-26 17l-5 3c11-14 11-14 25-23zM665 784l1 1-14 15c-1 2-10 6-13 8-5-1 12-16 14-18zM683 799l4 2-17 13q-5 4-9 8l-5-5z"/><path fill="#ecebeb" fill-opacity=".5" d="m703 804 2-1 6 1c3 2 6-1 8 1q0 2 2 3h2c-1 7-3 2-3 7l4 1-6 4-4-1c-3-2 2-4-1-5l-5-1c-4-4 6-5 8-6-6-3-7-2-13-3m19 7a1 1 0 1 0-1-2 1 1 0 0 0 1 2"/><path fill="#ecebeb" fill-opacity=".6" d="M720 809a1 1 0 1 1 2 2 1 1 0 0 1-2-2"/><path fill="#ecebeb" fill-opacity=".4" d="M618 806c0-8 3-5 7-8 9 5-11-1-5 15q0 3-4 3-6 1-12 1c-6 0-8-4-14-6h-6l-3-3q3-1 5 1 9 1 17 5 6 3 9-2c4-5 6 3 6-6"/><path fill="#ecebeb" fill-opacity=".1" d="M686 804q12-6 25-5l-1 1 3 3c6 0 9-3 10 5h-2q-2-1-2-3c-2-2-5 1-8-1l-6-1-2 1h-6l-7 4q-3-1-4-3z"/><path fill="#ecebeb" fill-opacity=".7" d="M699 805c1 0 8-1 8 2q-1 1-3 4 1 4 6 4c3 0 1 4 3 5h4l-5 4h-5l2-2v-2q0-1 1-3c-7 2-5 0-9-5v-4l3-1c-2-3-10 4-12 3-3-3-8 3-10 1l1-4 1-1h1c2 6 11 1 14-1"/><defs><linearGradient id="m" x1="541.3" x2="551.9" y1="831.9" y2="832.7" gradientUnits="userSpaceOnUse"><stop offset="0" stop-color="#e4e2e2" stop-opacity=".4"/><stop offset="1" stop-color="#e2e2e1" stop-opacity=".5"/></linearGradient></defs><path fill="url(#m)" d="m541 825 3 1q2 6 4 2l2 1c5 3 6 3 11 0l2 1-5 2q-3 0-5 3 0 6-5 3-1-2-3-2l-2-1q-2-3-2-6v-2h-1z"/><path fill="#ecebeb" fill-opacity=".6" d="M686 804zq1 2 4 3l7-4h6c6 1 7 0 13 3-2 1-12 2-8 6l5 1c3 1-2 3 1 5l4 1h-5c-2-1 0-5-3-5q-5 0-6-4 1-3 3-4c0-3-7-2-8-2-3 2-12 7-14 1h-1z"/><path fill="#ecebeb" d="m695 856 5-4 1-1v1q-1 5 2 1l1 1c-5 13-8 12-21 16v-2c5-2 3-3 9-4 2 0 8-2 7-6z"/><path fill="#ecebeb" fill-opacity=".3" d="m620 795 5 3c-4 3-7 0-7 8q-1 4-4 3c-3 1-3-3-5-2q-4 3-6-2-1-3-2-2v-1q1 0 4 2-1 3 3 2 3-3-3-2l-3-4 1-1 1 1q3 3 8 2-2 5 4 5l3-6-4-1z"/><path fill="#ed7238" d="M608 786c9 1-1 5 0 8 0 5 5 3 5 3v1c-9 6-13-5-5-11z"/><path fill="#f6693e" d="M642 813q3 0 1 2c-3 4-1 9 5 7h2l-2 2c-11 5-14-5-6-11"/><path fill="#ecebeb" fill-opacity=".5" d="M686 860c4 2 7-1 6 4-6 1-4 2-9 4q-3 1-7 1-4-2 0-5c-1 11 14 1 4-1l3-1h-1v-1z"/><path fill="#ecebeb" d="M701 851c0-3 0-14 3-16 1 7-4 8 3 11l-3 8-1-1z"/><path fill="#ecebeb" fill-opacity=".8" d="m695 856 4 2c1 4-5 6-7 6 1-5-2-2-6-4z"/><path fill="#ecebeb" fill-opacity=".2" d="m632 816 1-1 2-1v1l1 4v4c0 1 0 6-4 4v-11"/><path fill="#ecebeb" d="M691 856v-2c0-2 5-4 5-5q-2-2 0-7l3-3v1c-1 9 2 12-8 16M650 860c1-1 13 0 16-2 1 0 4 3 6 1h5l8-2h-8l12-1c-11 4-27 5-39 4"/><path fill="#ecebeb" fill-opacity=".1" d="M544 821q3-4 5 0l6 5-5 3-2-1-2-4z"/><path fill="#ecebeb" d="m654 818 5 6-7 10c0-4 3-4 3-9v-2q-2 1-5 3z"/><path fill="#f8f7f8" d="m629 816 7-6 6 1c-4 3-5 3-6 8l-1-4v-1l-2 1-1 1z"/><path fill="#ecebeb" fill-opacity=".4" d="m555 826 6 3c-5 3-6 3-11 0z"/><path fill="#ecebeb" fill-opacity=".1" d="M680 863c10 2-5 12-4 1z"/><path fill="#f6693e" d="M634 793zc-4 5-3 5-8 3l-1-1z"/><path fill="#ecebeb" fill-opacity=".6" d="m626 817 3-1h3v6c-2-3-7-4-6-5"/><path fill="#080707" d="M580 754q0-7 7-5v2q-6-2-6 4z"/><path fill="#ecebeb" fill-opacity=".3" d="m728 817 4-1q3 2 7 1-4 0-6 2z"/><path fill="#f6693e" d="m664 779 3 3-4 1h-1c-4 2 0-2 2-4"/><path fill="#ecebeb" fill-opacity=".7" d="m541 825 3-4 2 3-2 2z"/><path fill="#ecebeb" fill-opacity=".8" d="m544 826 2-2 2 4q-2 4-4-2"/><path fill="#ecebeb" fill-opacity=".2" d="M605 804q6-1 3 2-4 1-3-2"/><path fill="#ecebeb" fill-opacity=".1" d="M739 817zq-2 2-6 1 2-2 6-2"/><path fill="#ecebeb" fill-opacity=".2" d="M582 868q1 1 1 3-2 1-3-2z"/><path fill="#c2724b" d="M648 806q-1 3-4 4 0-3 4-4"/><path fill="#ecebeb" fill-opacity=".8" d="m701 852 2 1q-3 4-2-1"/><path fill="#ecebeb" fill-opacity=".6" d="m721 820 4 2h-1q-3 1-3-2"/><path fill="#997767" d="M675 791v2l-2 1q-1-1 2-3"/><path fill="#0aade6" d="M727 490c-9-27 9-37 13-61q1-15-3-28c-3-15 15-18 25-10q9 8 12 19v10h-1c0 10-4 15-6 24l1 2v4l9-2c13-4 29-6 38 7q5 8 0 17 13 10 4 24c12 13 2 26-10 34q-16 13-36 12c-6 3-8 3-14 4-5 10-17 16-26 8-4-3-3 0-7 3-14 12-43 29-62 18-5-1-11-10-14-14h-4q12-19 17-41l2-15h3q0 3-1 5l1 3-3 16q2 8 7 12c11 7 23-2 32-9l8-8c-5-4-4-14-2-19 3-6 8-6 14-8z"/><path fill="#080707" d="M727 490c-9-27 9-37 13-61q1-15-3-28c-3-15 15-18 25-10q9 8 12 19v10h-1q0-15-10-25c-6-6-16-10-22-2-4 4-1 10 0 14q3 10 2 20c-2 21-17 31-16 53l6 18q3 4 3 8l-7-11q-3 3-2 8 1 7 3 14l4 7h-1c-7 1-8-20-9-23-1-5-15 4-13 12 1 10 19 37 27 42q13 2 18-9h-3c-5-1-13-5-16-9v-1c7-1 13 16 35 4l12-1q21-5 35-20 9-13-4-22c5-7 6-8 5-16q-1-5-7-7c-2-2 3-7 3-10 0-11-12-17-21-17q-13 1-27 6c-13 4-25 18-13 30q9-10 23-11c4-1 22-2 24-1v2h-9c-12 0-38 2-37 20q-1 4 2 7c3 1 7-4 10-4 5-1 31-3 34-1v1l-24 1c-21 0-27 19-5 25 6 2 25 0 27 1v1c-7 2-18 1-25 1-11-1-22-9-16-22-10-10-4-16-5-18-14-14-4-26 10-33l3-8 1 2v4l9-2c13-4 29-6 38 7q5 8 0 17 13 10 4 24c12 13 2 26-10 34q-16 13-36 12c-6 3-8 3-14 4-5 10-17 16-26 8-4-3-3 0-7 3-14 12-43 29-62 18-5-1-11-10-14-14h-4q12-19 17-41l2-15h3q0 3-1 5l1 3-3 16q2 8 7 12c11 7 23-2 32-9l8-8c-5-4-4-14-2-19 3-6 8-6 14-8z"/><path fill="#0d5fc9" d="M691 543q9-3 16-11l18 23c-15 11-33 24-53 21h-1q-3-1-5-3c0-6 1-29 3-31q10 7 22 1"/><path fill="#0ec8f7" d="M424 702q-1 5-7 9l-6 5-1 1c3 2 2-2 4 1l-1 3q8 4 16 5l12 6a78 78 0 0 0 27-29h1q-4 9-11 15l-17 16q-14-9-29-11c-17 0-16 23-24 33h-2c-2-2-2-9-3-10-3-4-8-10-3-15l12-5q19-8 32-24"/><path fill="#080707" d="M646 561h4c-15 28-40 62-67 77v-3l3-1c17-10 32-27 43-43l8-12c-15 19-32 42-53 54h-1l17-13q27-26 46-59M471 663q2 1 2 6l1-2 3-1-1-1 5 1 39-5q6-3 14-4h6l-11 3a366 366 0 0 1-55 8q3 17-2 33l-1-3q4-14 1-28z"/><path fill="#150a09" d="M666 486v2q0-4 3-6h1l-2 31-1-3q1-2 1-5h-3z"/><path fill="#080707" d="m459 868 3-1c-5 14-15 18-27 22l-1-2c10-3 21-8 25-19M471 698l1 3-1 2q-5 10-12 18l-1-3q7-6 11-15zM773 420zv7q-1 10-5 19l-1 1v-3 2l-1-2c2-9 6-14 6-24M287 765l1 4 3 12-1 3q-4-9-3-19M774 410c1 4 2 13 0 17v-17M768 446v-2z"/></svg>