<svg xmlns="http://www.w3.org/2000/svg" width="1024" height="1024" viewBox="0 0 1024 1024"><path fill="#010101" d="M422 171a231 231 0 0 0 37-74c3-13 3-25 19-28q9-1 16 3 8 9 12 20 15 29 35 54c12 0 32-1 40 8a2960 2960 0 0 0 35 51l14 18q3 4 7 6l59 37c6 4 15 9 14 18-2 11-16 17-24 23l8 15 17-1 3 23-7 8 3 13-1 5a175 175 0 0 1-25 141v3l-1 4-1 1h-1c-12 16-21 25-35 38l2 14-1 3-37 8-30 10c-45 15-90 10-133-7-17 32-46 54-83 57l-3 4 8-23q-19-14-36-29l-32-24q-15-9-25-24c-16-26 7-47 22-68l33-47c-3-9 0-20 0-31-7-1-21 0-24-9l1-11q20-37 39-73 1-5 1-14v-63 29l-1-33c3-26 55-45 75-55m-11 239 1 7c13 43 55 51 94 41q24-7 36-28 7-12 8-25l-1-17c0-13 15-18 25-13 7 5 8 17 12 24q22 45 71 33 23-4 35-23 12-23 7-48 6-10 13-18l-3-20-7 1c-33 2-70 5-101 17q-24 11-50 15c-13 2-19 0-32-2q-13-3-27-1-17 0-34 4c-33 6-66 19-99 27-16 4-21 12-25 28-1 4-5 12-1 15h7c7-4 7-15 9-21 12-5 28-9 40-12q13 8 22 16m-40 212q-2 9-1 17c20-1 43-14 57-29q-9-11-20-16l-8-3c-24-21-45-46-69-67l20-26c-10-22-15-36-19-60q0-4-1-1l-39 54c-5 7-13 17-16 24q-3 10-2 19c4 17 15 23 28 33l39 30 20 16zm40-54 2-1-10-7v1l-2 3zm-78-44c16 17 39 37 56 53l3 3c2-6 6-16 10-21q-21-17-37-37l-15-22z"/><defs><linearGradient id="a" x1="522.9" x2="523.2" y1="355.2" y2="598.5" gradientUnits="userSpaceOnUse"><stop offset="0" stop-color="#1f6dac"/><stop offset="1" stop-color="#05dfe9"/></linearGradient></defs><path fill="url(#a)" d="m705 354 4 16a175 175 0 0 1-25 141c-25 40-66 69-112 82a195 195 0 0 1-233-129q-4-17-6-34c16 0 15-10 18-23l37-11 21 15q2 15 10 27l7 7v1q6 5 13 9c31 16 72 11 97-13 12-14 16-25 16-43l-1-15 1-2c5-8 17-9 23-2q4 6 7 14c13 35 43 50 80 39q22-5 33-25c8-13 10-32 6-47z"/><path fill="#010101" d="M532 461zv1l-8 8v1c28 19 72 24 104 12q5-3 9-2c-1 2-10 5-13 6l-5 1c-33 9-68 2-97-15l-6 11h-1v-1c3-11 7-15 16-22"/><path fill="#fe6e45" d="M348 230q2-14 15-24c43-38 141-62 198-57q12-1 21 8c7 8 15 22 21 31q13 18 25 37c-79-2-216 33-279 80l-1-23z"/><path fill="#010101" d="m458 188 2 2c-3 11-20 33-29 41a76 76 0 0 1-57 19l-1-1q3-2 8-1c38-1 63-28 77-60"/><path fill="#fdb631" d="m702 324 7-1 3 20q-7 8-13 18 5 25-7 48-12 19-35 23-49 12-71-33c-4-7-5-19-12-24-10-5-25 0-25 13l1 17q-1 13-8 25-12 21-36 28c-39 10-81 2-94-41l-1-7q-9-8-22-16c-12 3-28 7-40 12-2 6-2 17-9 21h-7c-4-3 0-11 1-15 4-16 9-24 25-28 33-8 66-21 99-27a207 207 0 0 1 61-3c13 2 19 4 32 2q26-4 50-15c31-12 68-15 101-17M465 450c16 2 46-2 57-12 22-20 27-74-14-73h-10q-23 0-45 5c-19 5-32 12-30 34 1 24 18 44 42 46m163-27q21 5 41-5 15-10 20-27c3-12 2-30-4-40-6-11-20-13-31-11-19 2-70 7-66 34 2 15 13 33 25 42q7 4 15 7"/><path fill="#010101" d="M498 365h10c41-1 36 53 14 73-11 10-41 14-57 12-24-2-41-22-42-46-2-22 11-29 30-34q22-5 45-5m-30 42c7-4 6-9 11-14 7-7 9-18-5-19-7 2-7 5-10 11-3 4-9 11-7 16q4 8 11 6m-8 6a8 8 0 0 0-12 3 8 8 0 1 0 12-3"/><defs><linearGradient id="b" x1="457.9" x2="455.1" y1="422.8" y2="419.3" gradientUnits="userSpaceOnUse"><stop offset="0" stop-color="#fff" stop-opacity=".8"/><stop offset="1" stop-color="#fff" stop-opacity=".9"/></linearGradient></defs><path fill="url(#b)" d="M460 413a8 8 0 1 1-12 3v5q1 3 3 3l2-4 5-4q3 1 2-3"/><path fill="#f9f9f9" fill-opacity=".6" d="m458 412 2 1q0 4-2 3l-5 4-2 4q-2 0-3-3v-5l1-2q1 3 4 2 4 0 5-4"/><path fill="#f9f9f9" fill-opacity=".3" d="M449 414q5-3 9-2-1 4-5 4-3 1-4-2"/><path fill="#010101" d="M654 340c11-2 25 0 31 11 6 10 7 28 4 40q-5 17-20 27-20 10-41 5-8-3-15-7c-12-9-23-27-25-42-4-27 47-32 66-34m-22 40c9-4 6-7 10-12 6-8 13-22-4-21q-6 2-10 11l-6 11c-2 7 4 11 10 11m-10 19a8 8 0 1 0-1-16 8 8 0 0 0 1 16"/><path fill="#fe6e45" d="M309 384q9-18 19-37l19-35c5-9 16-14 24-19a560 560 0 0 1 259-65c6 2 16 10 22 13l49 30-3 1h-4c-68 2-136 17-201 34q-66 18-129 46c-18 8-40 18-55 32"/><defs><linearGradient id="c" x1="505.9" x2="514" y1="297.5" y2="385.5" gradientUnits="userSpaceOnUse"><stop offset="0" stop-color="#2a3887"/><stop offset="1" stop-color="#2e5097"/></linearGradient></defs><path fill="url(#c)" d="M339 368a1039 1039 0 0 1 321-92l6 7c10 14 18 24 26 39-27 1-60 7-86 15l-22 9c-12 5-30 8-44 9-4 1-17-3-23-4a240 240 0 0 0-94 12l-74 22q-11 5-15 18l-1-2 4-25z"/><path fill="#242e6d" d="M339 368a1039 1039 0 0 1 321-92l6 7a673 673 0 0 0-112 16 910 910 0 0 0-217 77z"/><path fill="#010101" d="m443 348-1-1v-1c19-21 48-31 76-26 10 2 19 16 7 21l-8 10a240 240 0 0 0-49 2c-5-4-18-3-25-5"/><path fill="#242e6d" d="M443 348c22-8 40-7 63-7h19l-8 10a240 240 0 0 0-49 2c-5-4-18-3-25-5"/><path fill="#010101" d="M626 300q17-1 30 9c-22-6-33-2-51 13-2 3-10 11-13 11-7 1-10-9-5-14q16-17 39-19"/><path fill="#242e6d" d="M481 70c16 0 18 11 23 23q16 28 36 53c-21 0-46 5-67 10l-47 13q21-28 32-61c6-16 2-34 23-38"/><path fill="#fe6e45" d="M684 274c5 0 20-1 23 5 6 11-14 21-21 26h-1l-23-29zM400 567q23 7 45 18l-6 11-45-16zM336 369l-1 5-3 21-1 2q-9 1-18-2c-8-6 0-11 5-15zM394 582l31 11-1 2c-10 0-9 1-18-4l-5-2z"/><path fill="#f9f9f9" d="m413 567 8 5-10-4z"/><path fill="#fe6e45" d="m701 271 2 2-5-1z"/><path fill="#484d6e" d="m334 403-1 2v-4z"/><path fill="#ee8b59" d="m425 593 3 2h-4z"/><path fill="none" d="M330 437q1-3 1 1z"/><path fill="#fe6e45" d="m647 574 5 29q4 26 9 51l16 94 5 29 4 21 2 10q-82-3-157 29l-1-18-1-16-3-36-5-57-2-17-1-10c10-24 32-35 55-42l17-4-1-1-1-1q-22 4-41 14c-32 17-35 49-44 81l-32 114-19-8-59-15-18-3q-10-4-22-5l-12 1q-20-2-40 1l8-22 10-29 42-114 3-8c37-3 66-25 83-57 43 17 88 22 133 7l30-10z"/><path fill="#010101" d="m686 798 3 2 1 12-17 9 5 15 30 12c32 15 53 30 62 66 6 1 30 5 32 12-4 12-85 18-99 20q-189 13-378 1c-36-3-76-5-111-16-2 0-11-4-8-7 7-6 22-9 31-10l-2 10q16 7 32 9 49 8 98 2 12-1 23-3c3 0 9-5 12-7l16 5c14 0 33-4 46-6l-5-21 55 1 38-1 10-41 3-13q2-6 7-7v-4s-32 4-40 2l-1-10 1-11 1 18q76-32 157-29zM548 922c11 3 27 4 39 7l12-13c3 3 18 14 21 14 22 4 52 5 74 5a258 258 0 0 0 76-12c-2-6-4-17-7-23-40 18-114 11-156 5-15-2-39-5-53-9zm24-79c12 6 7 10 13 14q15 0 28-9-10-18 9-25 5-2 9-6h-8c-15 1-35 5-49 11zm12 57c15 2 35 6 50 7q0-13 7-24c10-20 31-28 53-29l18-1c-10-6-16-6-28-6a88 88 0 0 0-33 5c-14 5-25 16-37-2l-13 6-1 8c-5 12-18 12-29 11l-11-3-6 23zm75-88zl-2 1zm-52 112-8-5-9 10 7-2h1zm52-20v4l15 2c28 0 63 0 88-12l-1-3c-6-13-22-30-36-35-9-5-26-2-36 2q-19 9-27 29l-1-2-2 8z"/><path fill="#242e6d" d="m457 903 55 1 38-1-5 21 23 3c21 4 19 5 40-2h1c3 2 8 7 10 7q12 2 24 3a342 342 0 0 0 129-11l-2-10c6 1 30 5 32 12-4 12-85 18-99 20q-189 13-378 1c-36-3-76-5-111-16-2 0-11-4-8-7 7-6 22-9 31-10l-2 10q16 7 32 9 49 8 98 2 12-1 23-3c3 0 9-5 12-7l16 5c14 0 33-4 46-6z"/><path fill="#fdb631" d="M655 815c18-2 20 18 22 30-21 2-25 5-42 13-11 1-22-6-23-18q0-5 3-10c7-8 30-14 40-15M691 856l12-1-6 2c-15 5-30 15-36 32l-2 8q-2 6-2 12l-21-2q1-18 13-32 18-18 42-19"/><path fill="#f59b31" d="m691 856 12-1-6 2z"/><path fill="#fdb631" d="M567 845c12 0 10 6 17 13 5 5 17-4 15 2q-2 7-7 10-16 6-32 0l3-13 1-3z"/><path fill="#fe6e45" d="m659 812 9-2q11-1 21 1-8 6-17 8-5-5-13-6z"/><path fill="#f59b31" d="m678 838 17 7h-16z"/><path fill="#010101" d="m661 889 1 2-3 13v-7z"/><path fill="#504137" d="M659 813h-3l2-1h1z"/><path fill="#010101" d="M787 442q2 1-1 3-5 4-6 10l-1 5q-2-3-1-6 2-9 9-12M471 844l32-114c9-32 12-64 44-81q19-10 41-14l1 1 1 1-17 4c-23 7-45 18-55 42l1 10h-2v-6l-11 38-23 83-9 36c-3 11-24 3-29 5v2l-1 6q0-7-4-12-2-1-5-1v-7l-12-3-4-1h-1l-5-1-3-1-17-2c5 5 5 6 4 13l-3 7-2 1h1l-3 3v-4l4-7c5-15-17-21-28-24-30-9-31 2-36 27q11 0 21 4l-1 1c-13-3-38-6-50 0l-10 5 8-1h2c11-1 26 0 36 4l-2 1-20-3h-11 1l1 1h2l9 3-3 1q-17-6-35 0-22 13-33 37c18 12 81 13 103 11v-2l1-8 1 10 20-2v-5l1-2 1 3 2 3c7 1 28-3 36-4 13-2 31-4 42-8l-5-22q-14 6-29 1l3-1h1q12 3 22-1 4 0 2-4h3l5 22 3 14 5 21c-13 2-32 6-46 6l-16-5c-3 2-9 7-12 7q-11 2-23 3-49 6-98-2-16-2-32-9l2-10 3-10 10-19c15-25 44-34 69-45l10-5-7-3h8q1-7 6-13v-1c-8-1-28-4-36-1h-1l-1 3v-4l8-22 16-42 26-70 13-36v4l-42 114-10 29-8 22q20-3 40-1l12-1q12 1 22 5l18 3 59 15zm-227 56-7 23q8 4 16 5c36 10 76 7 113 5 26-2 22-2 43-17l10 12 41-5-7-26c-56 9-156 26-209 3m157 24 10 3 6 1-9-9z"/><path fill="#f59b31" d="M328 838v3l-1 4h-12z"/><path fill="#010101" d="M760 455q-12-22-5-47 6-14 14-25 12-23 6-48l-3-10c1-11 13-11 21-8 25 9 25 39 17 61 21-7 63-4 47 29q14 12 3 27c12 9 10 25 1 35a61 61 0 0 1-40 22q-10 1-21-1l-41 30c-7 5-23 18-29 20q-8 5-16 3c-16-2-24-11-33-24h1l1-1c10 15 26 28 46 21l20-14 31-23 20-13q24 4 46-9c27-15 31-50-8-51q-17-2-33 7c-7 4-8 14-3 20 8 10 25 6 36 3l7-2v1l-7 2c-13 5-35 9-41-8q-1-8 3-16l-2-2q-11-15 3-27l-3-4a18 18 0 0 1 9-24q10-19 4-40-4-13-16-19c-6-2-17-5-21 3q0 5 3 9c5 14 3 38-6 51-11 17-19 30-16 51q1 12 7 22l-48 33-10-11c-5 11-13 27-20 36l1-3q16-27 24-58c7-24 5-59 0-83l1-5 1 4v4-3a178 178 0 0 1 4 58c-1 15-5 34-10 48l9 10zm68-27q16-3 31 5 5-7 4-14c-3-16-23-17-35-17l-18 3c-15 4-21 19-8 30q11-7 26-7m-26-22q16-7 33-6c9 1 13 1 21 5 12-24-16-30-34-28q-12 1-20 9-8 10 0 20"/><path fill="#fdb631" d="M330 845c5-25 6-36 36-27 11 3 33 9 28 24l-4 7v4q-1 3-6 5c-10 5-19-2-30-6l-3-1-1-1 1-1q-10-3-21-4"/><path fill="#010101" d="M351 849c17 4 26 17 39 0v4q-1 3-6 5c-10 5-19-2-30-6l-3-1-1-1z"/><path fill="#fdb631" d="m314 856 20 3 2-1q18 6 29 23l1 1q4 7 6 16l-1-1h-1l1 3-1 2v5l-20 2-1-10-1 8c-1-21-15-39-35-46l3-1-9-3z"/><path fill="#010101" d="M316 860c15 4 32 23 33 39l-1 8c-1-21-15-39-35-46zM336 858q18 6 29 23l1 1q4 7 6 16l-1-1h-1l1 3-1 2v-2q-6-30-36-41z"/><path fill="#fdb631" d="M435 844q2 0 5 1 4 5 4 12l2 10q2 4-2 4-10 4-22 1h-1l-3 1c-8-1-11-9-12-16l-13-7h-1l2-1c7 3 18 10 26 8 8-1 4-12 15-13"/><path fill="#010101" d="M435 844q2 0 5 1c-10 2-9 1-14 11-3 5-12 3-17 2-1 8 6 13 12 14l-3 1c-8-1-11-9-12-16l-13-7h-1l2-1c7 3 18 10 26 8 8-1 4-12 15-13"/><path fill="#fe6e45" d="M299 817h1c8-3 28 0 36 1v1q-5 6-6 13h-8l-4-1q-11-3-20-11z"/><path fill="#010101" d="m298 820 1-3c4 7 20 12 27 15h-4l-4-1q-11-3-20-11M517 693h2l2 17 5 57 3 36 1 16-1 11-3-33zM661 654v-4h1l9 53 5 25 2 14-1 6z"/><path fill="#010101" d="m648 571 3 16v7l1-2 2 10-1 1c0 1-1 7 2 5l3 20v9h1v1-3l3 15h-1v4q-5-25-9-51l-5-29zM347 226l1 33v-29 63q0 9-1 14zM678 742l5 27v5-4l6 30-3-2-4-21zM445 850l4 17h-3l-2-10 1-6z"/><path fill="#f9f9f9" d="m290 855 10-5v4h-2z"/><path fill="#010101" d="M715 428c-1-2-1-10 1-12zM658 628l1 3v7-1h-1z"/><path fill="#72572f" d="M307 857zh-1l-1-1h-1 11z"/><path fill="#010101" d="m371 900-1-3h1l1 1v5zM651 587l1 5-1 2zM654 602l1 6c-3 2-2-4-2-5zM683 769v5zM711 369v4z"/></svg>