<svg xmlns="http://www.w3.org/2000/svg" width="1024" height="1024" viewBox="0 0 1024 1024"><path d="M269 414c-2-23-2-39 3-61 4-21 7-23 21-39 6 39 17 72 51 96 26 20 59 28 91 23 35-6 65-33 80-65l7-17q10-4 22 1c2 63 53 97 112 79l-8 22a199 199 0 0 1-73 90l-1 3h2l16 27 36 62 19 29c9 12 19 17 33 24q27 15 20 46 11-7 23-3l8 4c27 13 20 45 21 46 7 1 6-7 16-4 5 0 8-8 14-2v1h1c17-9 48-26 67-21q8 3 15 11 10-2 18 5c8 6 21 18 24 27-8 39-86 87-119 108l-79 51-24 15c-18 10-32 21-46-3-8-14-15-24-7-40-4-5-7-15-9-21q-11 3-22-1c-7-5-12-16-13-24-5-23 7-46-11-66q-10-9-18-16l-1-3c-8-8-13-11-15-23q-2-11-3-22l-1-7-1 1v-1l-2-1c-4-15-27-32-37-45l-5-5-1 2h-1l-1 24c10 35-9 27-11 50q2 5 6 10c7 8 16 10 19 23q2 6-1 12c-5 15-24 20-17 38l8 11q10 12 7 28v2l2 1c-5 12-9 17-21 21l1 11 1 5q5 1 7 7c2 4 6 33 4 36v1l-11 1-24 2-59 4-4-11-3 11-54 4c-36 1-73 3-109-7-5-1-15-3-14-12 3-14-1-36 17-36 6-25 21-31 44-38l13-4-1-2 2-1 2 3q27 0 52 8 3 1 5-3c-5-10-41-13-52-12l-2-1q-8-5-14-14-6-10-7-21c-1-31 30-31 37-57 5-19-11-30-8-46 1-10 15-20 19-33l6-28 8-45-4-11c-6-5-35-27-38-32q-1-8 2-15l-13-10-43-36q-10-7-10-21-1-15 10-27l11-15 19-26c-3-11-5-17-6-28zm410 404c22-1 54-7 73-20q3-2 4-5c-2-2-5 0-6-2q1-5 3-8h1q-6 0-13 3c-7 4-14 19-24 11h-1l-7 3-1 1c-1-3-3 0-5-1v-1h-4l-1 3zM335 624l1-7h2v2q-2 14 7 24 8 10 18 16c24-9 39-27 55-47l-6-4-10-8q6 1 10 5c15 9 32 30 51 18 2-1 11-10 8-13-4-6-14-6-20-9-21-10-35-30-59-33h-11q-7 2-15 2v-1l9-3c-4-4-26-25-30-25h-1c-13 6-39 33-44 46q-2 5-1 8c2 5 30 25 36 29m61 349 2-3v1h2l3 11 59-5 33-2-3-26-25 1-52 2c-57 3-138 14-192-4-1 4-4 23-2 26 4 5 31 9 37 10q50 5 99 1l36-3zm497-178c-30 3-68 41-90 61-6 7-18 19-25 23-10 7-29 14-41 19q-1 6-1 9l10 1h35c30-18 114-72 123-106v-5l-3-2zM734 896c11-4 36-13 43-19 33-28 62-65 104-81q10-4 21-3c-4-6-13-15-18-19-65 21-108 88-174 107-21 5-89 39-78 67l1 1v2c1 8 10 21 16 27 7-22 41-43 59-56 8-5 30-11 26-24l-15-6c-15-2-43 15-55 24l-1-1c11-9 40-26 55-25 4 0 12 4 16 6M303 576q12-15 26-28l-49-40 14-18q-9-15-15-29l-6-13-21 31c-9 13-20 23-16 40 3 13 15 20 25 28l27 22c3 2 10 9 13 10zm243 64a1 1 0 1 0 0 3 1 1 0 0 0 0-3m81 236q24 7 47-5c10-6 14-17 22-25 9-10 35-28 50-26l3 2-1 4c-8 10-11 15-14 28h-1v-1c0 1-1 19 1 12l1 3c4-1 19-11 24-14l2-2 8-5 2-7 3-7c-6-31 8-48 33-66q-17 6-31 17l-9 5-12 9c-20 14-53 21-77 21-18 16-37 38-51 57m-212 74q-1-8-7-14c-7-12-24-23-1-30 25-8 38 13 61-3-7-8-41-33-49-36a79 79 0 0 1-48 35c-16 4-24 0-38-5-7-2-30-5-38-4-11 2-26 8-36 12 16 6 27 6 43 5q29-3 53 9 13 7 19 21 6 4 8 12zm254 4h38c20-11 45-28 64-40h1l5-4 1-1-8 1-36-1q-10 7-21 13c-14 8-33 21-44 32M534 645l11-8-5-9-11 8h1zM289 955h45l34-2h3l9-1q-1-6-7-9h-49l-70-4q-11-3-21-4-9 2-10 11c21 6 37 9 59 9zm593-182q-10-8-22-3c-28 13-72 39-85 68l-2 6 4-3 2-1 1-1c30-22 59-51 96-65zM377 887q-8 5-14-1-6-4-13-4l-36-4-6 4c9 0 48 3 46 16l-3 2h1q8 2 17 0 31-8 49-34l-12-5-1 1-2 2c-2 3-1 5-5 6q-2 2-2 3-5 1-8 3c-3 3-2 3-6 3l-3 1-1 1q-3 2-1 6m327 70c-7-1-32 0-36-2-4 4-20 19-16 25 6 5 20-3 26-7zm-280-8h16l44-2h7l1-1q-1-6-6-11l-53 3-7 5zm337-170c-1 1-9 8-8 10l3 1 5-1c2-5 8-9 0-10M341 540q-27-21-46-48l-11 15 23 20 24 19zm424 247q8-1 12-6c6-7 0-7-5-3q-5 3-7 9M500 631l-13-8-5 10 12 7z"/><path d="m701 801 1-2h1v1c2 1 4-2 5 1z"/><path d="M699 799h3l-1 2-3 1z"/><path fill="#2577ca" fill-opacity=".4" d="M546 640a1 1 0 1 1 0 3 1 1 0 0 1 0-3"/><defs><linearGradient id="a" x1="458.5" x2="463.8" y1="311.9" y2="525.8" gradientUnits="userSpaceOnUse"><stop offset="0" stop-color="#214cb0"/><stop offset="1" stop-color="#24a5e0"/></linearGradient></defs><path fill="url(#a)" d="M269 414c-2-23-2-39 3-61 4-21 7-23 21-39 6 39 17 72 51 96 26 20 59 28 91 23 35-6 65-33 80-65l7-17q10-4 22 1c2 63 53 97 112 79l-8 22a199 199 0 0 1-73 90q-60 40-131 34c-27-2-60-13-83-27l-12-10-7-2a176 176 0 0 1-40-41c-19-26-28-51-33-83"/><defs><linearGradient id="b" x1="440.1" x2="474.9" y1="407.6" y2="578" gradientUnits="userSpaceOnUse"><stop offset="0" stop-color="#1eaef1"/><stop offset="1" stop-color="#08e8ff"/></linearGradient></defs><path fill="url(#b)" d="M314 512zl-3-15c-3-11-9-53-2-61q2-3 5-2c10 2 40 29 50 37l25 17a252 252 0 0 0 189 33l31-9 2 1q-16 18-36 31-60 40-131 34c-27-2-60-13-83-27l-12-10-7-2c-9-7-21-18-28-26"/><path d="M542 373q3 3 3 10 5 32 24 59c-24 8-60 20-85 18q-23-4-36-24l-7 6v-1l1-4q6-6 13-6v1l-5 3q8 11 21 18c25 12 68-4 94-13a146 146 0 0 1-23-67M473 473q6 3 16 6h16q4-2 3 1-18 6-35-4v-3"/><defs><linearGradient id="c" x1="393.4" x2="391.9" y1="584.6" y2="907.5" gradientUnits="userSpaceOnUse"><stop offset="0" stop-color="#2d67bd"/><stop offset="1" stop-color="#14deff"/></linearGradient></defs><path fill="url(#c)" d="M434 587q27 1 54-2c2 6 3 7 8 11q-3 10-8 20l-10 18 15 8c-2 6-2 23-2 30 1 12-2 38 0 49 10 35-9 27-11 50q2 5 6 10c7 8 16 10 19 23q2 6-1 12c-5 15-24 20-17 38l8 11q10 12 7 28-2 10-9 16l-7-5q-38-25-79-46l-8-5q-32-10-62 3l-10 4q-3 2-5 6-4 0-7 3c-3 2-1 4-2 7-5 1-9 8-14 4-8-4-16-14-18-22-4-13 0-29 11-37 21-17 30-27 21-55-15-28 6-29 14-53 3-8 6-27 8-36q40 3 69-23 17-14 28-32c14 9 28 11 39-4 11-14-14-16-21-20z"/><path d="M371 817q29-1 55 13l2 2q-2 2-4 0a95 95 0 0 0-70-10q-24 6-43 21-2 3-5 2v-1l1-1q28-23 64-26"/><path fill="#2296d8" d="m536 571 17-6c11 24 24 35 52 35l29 49q10 20 28 33c14 7 36 14 36 34-1 4 1 12-1 16q-7 13-16 26c-3 6-4 12-12 10l-6 4c-8 9-19 9-30 10-8 2-11-1-19-2-5-6-8-6-13-15l-4-2-1-5h-1q-2 1-2 3v1q-9 23-26 43l-9-7c-8-8-13-11-15-23q-2-11-3-22l-1-7c-1-9-11-18-17-25l-19-19 2-9v-2l1-2v-3q4-9 4-20 3-2 2-4h-1l-17 15 1-29q2-8 8-17 5 3 12 2l2-6 1-4q0-2 2-5 5 16 13 31l12-8a1 1 0 1 0 1-1l3-2c-9-15-15-26-20-43q12-10 7-24"/><path fill="#1ac1f1" d="M543 769c4-1 1-1 3 1h3c1 4 9 1 11 3q5 1 10-1l6-3 3-1 5-1q3 1 6-2l3-4v1q-9 23-26 43l-9-7c-8-8-13-11-15-23z"/><path fill="#1eb4f1" d="M540 753v-3l1 4v4l1 8 1 3v6q-2-11-3-22"/><defs><linearGradient id="d" x1="647.7" x2="685.2" y1="748.2" y2="877.7" gradientUnits="userSpaceOnUse"><stop offset="0" stop-color="#1fb2eb"/><stop offset="1" stop-color="#08e4ff"/></linearGradient></defs><path fill="url(#d)" d="M669 768c8 2 9-4 12-10q9-13 16-26c2-4 0-12 1-16h1c2 16-3 21-11 32-3 5-15 24-14 28 2 0 4-5 5-7 13-22 23-49 53-30 17 11 19 24 17 42-17-3-28 3-42 12l-8 6c-6 3-14 11-19 15l-35 33c-16 16-37 35-43 58v-1c-19-17-11-39-12-62-1-16-9-25-21-36l2-1q14-16 21-35 4-5 4-11l-3 3v-1q0-2 2-3h1l1 5 4 2c5 9 8 9 13 15 8 1 11 4 19 2 11-1 22-1 30-10z"/><path fill="#093fd1" d="M503 631q7-14 10-30l3-1 2 9 2 9q-2 2-2 5l-1 4-2 6q-7 1-12-2M510 666q0 11-4 20v3l-1 2v2l-2 9-9-12v-9zM703 799c3-3 11-7 15-9-6 7-7 7-15 10z"/><defs><linearGradient id="e" x1="701.1" x2="745.7" y1="802.6" y2="861.6" gradientUnits="userSpaceOnUse"><stop offset="0" stop-color="#fff" stop-opacity="0"/><stop offset="1" stop-color="#fff" stop-opacity=".1"/></linearGradient></defs><path fill="url(#e)" d="M678 819c24 0 57-7 77-21l12-9 9-5q14-11 31-17c-25 18-39 35-33 66l-3 7q0-2-3-5c-2 1 1 2 1 2-1 1-1-1-2 2 0 2-4-1-9 1l-2 3c-1 6 5 1 7 2q-1 2-3 5l-1 1c-2 0-8 0-8-2l4-4-1-1v-1c0-1 3-5 1-5l-1 1c-1 2-3-2-3 2q-1 4-3 3l1 7q5 2 10 3c-5 3-20 13-24 14l-1-3v-11c3-13 6-18 14-28l1-4-3-2c-15-2-41 16-50 26-8 8-12 19-22 25q-23 12-47 5c14-19 33-41 51-57"/><path fill="#093fd1" d="M740 823h6c0 3-6 9-8 12l-4 10q-4 12-2 24c-10 6-15 7-25 10q-20 7-39 19l-24 18c-3 3-8 9-11 10l-2-3q-4-9-6-19c-1-4-4-20-2-24l3-1c16 2 33 4 47-5 10-5 14-13 20-21 11-14 30-27 47-30M256 906l1 1c30 14 64-3 94 12q14 7 20 21h-76c-9 0-52-2-57-8v-3c1-8 11-18 18-23M428 938c-6 4-4 9-8 12l-2-1-6-11c-3-8-14-14-14-23-1-5 6-6 10-7 15-5 28 3 43 3q11-1 19-6l9 7 3 12v9l-34 2c-5 0-16 0-20 3M840 756h6q10 3 17 11c-26 10-57 31-77 50l-10 13c-5-21 4-37 19-51 10-9 32-22 45-23"/><path fill="#2577ca" d="m420 614 10 7c-24 32-43 51-85 54l-10-1 2-11c28 4 49-11 67-31zM577 553zl25 43 1 1c-7 0-10 0-17-2l-1-1c-16-6-23-14-30-31l-1-1z"/><path fill="#093fd1" d="M344 856c17-5 38-7 55 0 8 3 1 10-1 14-11 5-9 0-18-4q-17-6-36-8z"/><defs><linearGradient id="f" x1="327.7" x2="330.8" y1="955.9" y2="937.2" gradientUnits="userSpaceOnUse"><stop offset="0" stop-color="#fff" stop-opacity=".7"/><stop offset="1" stop-color="#fff" stop-opacity=".9"/></linearGradient></defs><path fill="url(#f)" d="M347 943h14c10 2 4 2 8 8l-3-1-61 1c-5 0-15 0-20 3h1l3 1h-7v-2c3-3 1-8 3-10h39c-3 2-24 0-29 1l23 1c11 1 28 4 39 1h-13c8 0 8-1 16-3z"/><path fill="#093fd1" d="M320 869q19 0 37 4c4 0 17 3 19 7v4l-5 4c-5-1-9-6-15-7q-18-4-37-5l-3-1 1-4z"/><path fill="#093fd1" d="M340 861c8-1 44 5 45 13q-4 5-11 1-13-5-27-7l-21-2v-2c2-3 10-3 14-3"/><path fill="#2577ca" d="m526 596 1 2q5 14 12 28l-8 5-3 2q-8-15-9-34zM498 598l12 2c-2 6-6 24-9 29l-13-7c6-10 7-14 10-24"/><path fill="#2296d8" d="m531 567 2 1q7 19-11 28c-10 4-28 2-32-10v-1l-1-7c7-4 3 7 9 11 10 6 23 4 30-4 3-3 3-12 1-16z"/><path fill="#093fd1" d="M527 574zc2 14-17 18-27 13l-4-4q16-3 30-10"/><path fill="#fefefe" fill-opacity=".8" d="m289 955-3-1h-1c5-3 15-3 20-3l61-1 3 1 1 2h-2c1-3-4-1-5-1-5-2-44 0-46 3h9z"/><path fill="#1ac1f1" d="m487 623 13 8-6 9-12-7z"/><path fill="#093fd1" d="M738 783h5l-6 3c-6 5-5 8-13 11q-9 1-4-6 7-8 18-8"/><path fill="#1ac1f1" d="m540 628 5 9-11 8-4-9h-1z"/><path fill="#fefefe" fill-opacity=".9" d="M324 943h36c-8 2-8 3-16 3h13c-11 3-28 0-39-1l-23-1c5-1 26 1 29-1"/><path fill="#fefefe" fill-opacity=".3" d="m759 851 1-1q2-3 3-5c-2-1-8 4-7-2l2-3c5-2 9 1 9-1 1-3 1-1 2-2 0 0-3-1-1-2q3 3 3 5l-2 7-8 5z"/><path fill="#fefefe" d="M326 955h-9c2-3 41-5 46-3 1 0 6-2 5 1l-34 2z"/><path fill="#fefefe" fill-opacity=".1" d="M761 779c8 1 2 5 0 10l-5 1-3-1c-1-2 7-9 8-10M759 854q-5-2-10-3l-1-7q2 1 3-3c0-4 2 0 3-2l1-1c2 0-1 4-1 5v1l1 1-4 4c0 2 6 2 8 2l2 1z"/><path fill="#fefefe" d="M765 787q2-6 7-9c4 1 4-1 5 3q-5 5-12 6"/><path d="M653 923q-2 4-5 6l-15 20-1-1c4-8 15-20 21-25"/><path fill="#fefefe" fill-opacity=".7" d="M361 943h12c-2 2-1 8-2 10h-1l-1-2c-4-6 2-6-8-8"/><path d="m663 915 1 1-1 1-10 8-5 4q2-2 5-6zM734 865c-2 7-1-11-1-12v1h1z"/><path fill="none" d="M772 778c5-4 11-4 5 3-1-4-1-2-5-3"/><path d="M398 870c4-1 3-3 5-6l2-2q-1 7-8 11h-1q0-1 2-3"/><path fill="#fefefe" fill-opacity=".7" d="m773 844 2-6c2 3 3-2 4-1q-1 2 1 2l-1 1-2 1z"/><path fill="#fefefe" d="M778 909zl-5 4-2-4z"/><path d="m396 973 2-8 2 6h-2v-1zM377 887q-2-4 1-6z"/><path fill="#093fd1" d="M344 858h-3l3-2z"/><path d="M322 249c48-87 131-166 216-215 12-7 22-8 15 9q-17 36-14 76v5-2c2 30 16 60 31 86 12 22 29 40 43 62q9-2 17 0c-1 2-12 2-15 3l14 23 26 5 40 7 20 3q8 3 9 11c-5 44-22 89-66 108-1 7-6 20-9 27l-1-1v-3l8-22c-59 18-110-16-112-79q-12-5-22-1l-7 17c-15 32-45 59-80 65-32 5-65-3-91-23-34-24-45-57-51-96-14 16-17 18-21 39-5 22-5 38-3 61l-2 4q-2-18-2-35l-2-3a81 81 0 0 1-6-60q9-35 36-60c12-12 12-16 29-11m198 101 9-3h11l5 3h1l7 5 3 21c16 51 74 74 118 42 30-22 42-56 47-91q3-11-9-14l-20-3-41-8-41-6-27-5q-11 0-19 6c-12 10-9 21-10 34l-8-4c-6-2-7-2-13-2l-4 1h-4c0-12 8-27-2-38-7-7-24-8-34-9l-44-8-133-23q-4 0-6 4-2 8-3 18-4 40 9 78c12 30 34 60 64 74q38 17 75 4 45-19 64-63zm27-26 3 2 2 1q-1-11 3-21t13-14l2-1 2-1-6 2q-10 3-15 12l-1-1c-1 1-4 12-3 13l1-1v1zm-251-6zc0 1 0 10 2 9 8 39 30 74 67 92l12 5c-12-8-17-9-29-20-29-26-45-67-47-105l-6 4q-1 5 1 8zm4-22q0-17 2-35l1-7c-27 26-46 49-47 90q0 14 4 26l3 3c3 0 4-9 4-13q4-27 18-50 6-8 15-14m289 128a80 80 0 0 1-36-50c-1-5-1-14-3-17v-1c-5-2-3 3-3 7a76 76 0 0 0 48 64z"/><defs><linearGradient id="g" x1="500.3" x2="470.6" y1="26.8" y2="316.1" gradientUnits="userSpaceOnUse"><stop offset="0" stop-color="#021c82"/><stop offset="1" stop-color="#1b5bb5"/></linearGradient></defs><path fill="url(#g)" d="m548 31 4 1 1 5-7 16-6 21c-12 57 9 107 40 154l15 20 15 22c-11 0-36 3-46-2-6-3-1-15-2-18l-1-1-9 11c-11 19-15 35 14 27l47-13 13 22q-24-5-47-7-13-3-24 5c-9 8-9 18-10 29h-18l2-12c2-9 0-24-10-28q-15-6-32-7l-43-7-76-13-43-7q14-24 30-46A613 613 0 0 1 548 31"/><path d="M388 227c16-3 43 7 58 11 19 5 42 15 61 9l12-8c3 5-3 23-5 28q-5 12-17 8-17-4-30-13l-41-20q-16-9-33-13c-3 0-10 2-12 0q3-2 7-2"/><path fill="#092c89" d="M440 410c-47 11-87-16-105-58q-4-10-6-20-3-16-4-32c-2-10 1-24 13-28 7-2 28 3 36 4l55 9 57 10c10 2 20 2 24 13-1 4 1 2-1 7l-1 7-7 26c-10 25-23 45-49 56l-18 5zm-17-52q2-10 8-18c7-8 10-9 17-15l-19-6-79-22c18 21 47 52 73 61"/><path d="M440 410c-47 11-87-16-105-58q-4-10-6-20-3-16-4-32c-2-10 1-24 13-28 7-2 28 3 36 4l55 9 57 10c10 2 20 2 24 13-1 4 1 2-1 7q0-13-13-16l-76-13-51-8c-12-2-31-9-38 2s-4 32-2 44c9 52 50 93 105 85z"/><path d="m344 293 14 4 29 8 105 30-15 15q-12 10-27 13-27 3-48-13l-18-14c-6-5-39-39-40-43m79 65q2-10 8-18c7-8 10-9 17-15l-19-6-79-22c18 21 47 52 73 61M501 348l4-3c-7 24-24 46-45 57q-9 5-20 8l-6-1 18-5c26-11 39-31 49-56"/><path d="M510 308q3 12-2 26l-3 11-4 3 7-26 1-7c2-5 0-3 1-7M650 414c-9 5-27 4-36 2q-23-7-36-27a91 91 0 0 1-10-54c1-9 0-22 10-27q2-2 6-1 12 1 23 3l54 9c29 5 50 0 38 38-7 24-19 45-43 55q-4-2-6 2m-73-69q6 9 14 17c8 6 13 9 23 12 5-16 5-21 17-34v-1z"/><path fill="#092c89" d="m584 309 22 3 37 6 27 5c27 4 36 3 27 34-6 19-12 29-26 43-35 28-85 17-98-28l-2-14v-27c0-11 1-19 13-22m-7 36q6 9 14 17c8 6 13 9 23 12 5-16 5-21 17-34v-1z"/><path d="M677 331h3c0 2-10 16-12 19a61 61 0 0 1-40 26c-16 2-25-2-37-12q-11-8-18-21l28-3zm-100 14q6 9 14 17c8 6 13 9 23 12 5-16 5-21 17-34v-1zM650 414q2-4 6-2z"/><defs><linearGradient id="h" x1="529" x2="548.3" y1="331" y2="347.1" gradientUnits="userSpaceOnUse"><stop offset="0" stop-color="#fff" stop-opacity=".4"/><stop offset="1" stop-color="#fff" stop-opacity=".4"/></linearGradient></defs><path fill="url(#h)" d="m529 326 4-1 1 2h12l8 4v1c-1 4 1 3 1 8 0 8 0 8-9 10h-1q3-2 5-3c6-4-1-4-5-4-4 1-3 3-5 4h-11c-1-5-5-3-9-4q0-8 4-17l1 2q0 3 3 5l10-2-4-1h3z"/><path fill="#fefefe" fill-opacity=".3" d="M554 332c3 4 8 4 6 12-1 6-6 6-7 11l-7-5c9-2 9-2 9-10 0-5-2-4-1-8"/><path fill="#fefefe" fill-opacity=".6" d="M540 347c2-1 1-3 5-4 4 0 11 0 5 4q-2 1-5 3z"/><path fill="#fefefe" fill-opacity=".5" d="M527 326h2l8 4h-3l4 1-10 2q-3-2-3-5c8 6 12 2 3-2z"/><defs><linearGradient id="i" x1="531" x2="527.8" y1="328.1" y2="329.3" gradientUnits="userSpaceOnUse"><stop offset="0" stop-color="#fff" stop-opacity=".6"/><stop offset="1" stop-color="#fff" stop-opacity=".6"/></linearGradient></defs><path fill="url(#i)" d="M525 326h3c9 4 5 8-3 2z"/><path fill="#fefefe" fill-opacity=".2" d="M533 325c6 0 7 0 13 2h-12z"/><path fill="none" d="M547 363c0-4-2-9 3-7v1c-2 4 2 3-3 6"/><path d="m548 315-1 1c-1-1 2-12 3-13l1 1zM296 318l1 10c-2 1-2-8-2-9z"/><path fill="#7c7c85" d="m589 424 6 3z"/><path d="M295 312q-2-3-1-8zM781 375c-10-3-5-10 1-14 2-8 0-15 6-20 7-2 29 4 37 4 2 1 9 3 9 6q1 9-2 17 9 11-3 15c-5 11 2 17 8 25 12 17 11 30 9 49q18 5 14 24-2 7-10 12c14 9 13 30-3 35l-1-2q7-2 10-8c4-7 0-21-7-23q-31-5-61-8-2 0-6 1-5 4-7 10-2 8 2 14 6 8 16 8l-6 1c-16-2-23 25-6 31q13 4 28 4c10 1 27 6 36 3v2c8 8 8 20 1 28-6 6-11 4-17 6l-1 2c-3 1-1 7-4 11l-1 10c1 7-3 14-1 18 0 11-12 21-23 20l-61-9q-31-6-22-36c1-8-1-15 6-22l-3-11-16-1c-14 0-18-4-22-16h-46l-40-30 1-1q20 13 40 29h44l2-1 4 10c6 8 13 6 22 7l12 1c2-8 0-17 8-22h1l-1-3q-1-6-1-13l1 1 1-7-3 2c2-10 2-12 9-19q-4-4-4-11c2-12 1-18 10-26q-2-4-4-6l-1 4h-1l-1-1 5-15c13 4 41 20 45-4l-1-7q-2-4-6-6c5 0 5 4 7 4l-1-2c-4-5-28-17-35-20l3-5-1-4q4-9 13-16c4-4 12-8 15-13 2-2 3-9 3-12m41 223zm8-227-45-7-5 1q-4 2-1 6 0 2 3 2l47 7c4 1 4-5 3-7zm-42 98 2 8c5 10 9 9 19 10l9 1 26 3 8-2q5-4 7-11c1-6-3-15-9-17q-21-5-42-7-11-3-17 7zm52 121q16-12 3-27l-47-6-12-2c-16 14-7 32 12 32 11 0 35 7 44 3m-56-229 25 4 7 2 13 1q2-5 3-11c2-10-6-9-12-10l-7-1-6-1-18-2c-4 3-4 13-5 18"/><path fill="#71a4fd" d="m786 450 11 2c-13 7-15 21-6 32q-9 0-15 7-5 6-4 14 2 9 8 14-8 4-11 14-1 6 2 14 4 6 10 8c-8 8-10 20-2 28l7 5 41 6-3 14-1 10c1 7-3 14-1 18 0 11-12 21-23 20l-61-9q-31-6-22-36c1-8-1-15 6-22l-3-11-16-1c-14 0-18-4-22-16h-46l-40-30 1-1q20 13 40 29h44l2-1 4 10c6 8 13 6 22 7l12 1c2-8 0-17 8-22h1l-1-3q-1-6-1-13l1 1 1-7q1-9 7-15c6 4 18 9 25 10h1c-6-8-31-5-28-26 1-9 1-14 8-21 5 3 17 9 23 9l1-1 1-1c-2-3-18-3-26-12q-2-6-1-12c12 5 37 17 45-1l1-11zm36 148z"/><path d="M596 530q20 13 40 29h44l2-1 4 10c6 8 13 6 22 7l12 1c2-8 0-17 8-22h1l-1-3q-1-6-1-13l1 1q-2 7 3 13c4 5 22 9 25 12-6 2-20-6-26-9l-2 2c-4 6-3 8-5 15-7 25 30 30 47 35l3 2-1 1c-3 1-28-7-33-9q-8-4-15-10l-3 4c-6 29-12 48 26 51l46 7c28 4 26-18 30-35 1 7-3 14-1 18 0 11-12 21-23 20l-61-9q-31-6-22-36c1-8-1-15 6-22l-3-11-16-1c-14 0-18-4-22-16h-46l-40-30z"/><path fill="#71a4fd" fill-opacity=".3" d="M822 598z"/><path fill="#71a4fd" d="m783 376 43 6c-1 10-3 13 4 22l7 9q11 15 8 34l-2 10c-10-2-55-6-60-12-4-5-28-17-35-20l3-5c4-9 7-13 15-20q8-5 14-11z"/><path d="m760 422 18 6q24 5 48 7l1 3-20-3a228 228 0 0 1-46-10z"/><defs><linearGradient id="j" x1="856.6" x2="791.6" y1="479.7" y2="465.8" gradientUnits="userSpaceOnUse"><stop offset="0" stop-color="#fff" stop-opacity="0"/><stop offset="1" stop-color="#fffffe" stop-opacity=".1"/></linearGradient></defs><path fill="url(#j)" d="M808 454q21 2 42 7c6 2 10 11 9 17q-2 7-7 11l-8 2-26-3q-3-2-8-2c-5-1-12 0-16-5-2-2-5-6 0-3q3 2 7 3l9 1c0-2-9-2-10-4v-4l1 2c2 1 1-3 1-4v-3q-2-1-2-3 3-3 9-3l5-1h-13l-4-1h-4v-1q1-2 3-3 4-3 9-2z"/><path fill="#71a4fd" d="M832 373c1 2 1 8-3 7l-47-7q-3 0-3-2-2-4 1-6l5-1 45 7v1l-2 4q3 0 4-3m-38-2c3-2-6-1-7-1 0 3 5 1 7 1m28 4c2-2-4-1-5-1-4 2 5 1 5 1"/><path fill="#71a4fd" fill-opacity=".2" d="M787 370c1 0 10-1 7 1-2 0-7 2-7-1"/><path fill="#71a4fd" fill-opacity=".5" d="M817 374c1 0 7-1 5 1 0 0-9 1-5-1"/><path fill="#fefefe" fill-opacity=".1" d="M791 461q6-10 17-7v1h-3q-5-1-9 2-2 1-3 3v1h4l4 1h13l-5 1q-6 0-9 3 0 2 2 3v3c0 1 1 5-1 4l-1-2v4c1 2 10 2 10 4l-9-1q-3-1-7-3c-5-3-2 1 0 3 4 5 11 4 16 5q5 0 8 2l-9-1c-10-1-14 0-19-10l1-1c5-1 2 0 3-4 2-5 3-5-2-9z"/><defs><linearGradient id="k" x1="790.5" x2="792" y1="473.1" y2="469.1" gradientUnits="userSpaceOnUse"><stop offset="0" stop-color="#fff" stop-opacity=".2"/><stop offset="1" stop-color="#fff" stop-opacity=".2"/></linearGradient></defs><path fill="url(#k)" d="M792 463c5 4 4 4 2 9-1 4 2 3-3 4l-1 1-2-8c6-1 5 0 4-6"/><path fill="#fefefe" fill-opacity=".3" d="m788 469 3-8 1 2c1 6 2 5-4 6"/><path fill="#71a4fd" fill-opacity=".8" d="m830 371 2 2q0 3-4 3z"/><path d="m750 416 1 4-3 5c7 3 31 15 35 20l1 2c-2 0-2-4-7-4l-31-17c-6 1-23 9-26 15-5 7-5 18-8 26q-2 8-6 14c-6 11-4 24-2 36q3 11 9 20c2 3 7 6 7 8v1c-4-2-10-9-12-12q-9-19-8-42c-31 10-26 40-19 65l1 1-2 1c-5-11-7-30-7-41h-18l-29-21c-10 13-18 21-30 33l-1 1-19 15h-2l1-3a199 199 0 0 0 73-87l1 1q-9 20-22 38l28 21 19-1c4-12 13-23 26-25l10-23c2-6 4-22 7-27 5-7 20-15 29-16zM491 721l1-24h1v19c1 9 5 17 3 26-2 10-14 19-13 28 1 15 25 17 25 40q-1 10-7 16c-5 7-14 12-13 22 1 15 23 18 16 48l-2-1v-2q3-15-7-28l-8-11c-7-18 12-23 17-38q3-6 1-12c-3-13-12-15-19-23q-4-5-6-10c2-23 21-15 11-50"/><defs><linearGradient id="l" x1="822.4" x2="822.6" y1="560.4" y2="520.1" gradientUnits="userSpaceOnUse"><stop offset="0"/><stop offset="1" stop-color="#010001"/></linearGradient></defs><path fill="url(#l)" d="M793 520q17 1 36 4 9 3 17 2l1 2c14 6 12 26-2 33v-2h1q13-10 6-24c-4-6-10-6-17-8l-13-1-35-5z"/><path d="m539 746 1 7q1 11 3 22c2 12 7 15 15 23l1 3h-2c-20-15-17-32-21-56l2 1zM824 608c3-4 1-10 4-11l-1 10-5 29c-2-4 2-11 1-18zM726 534l3-2-1 7-1-1q0 7 1 13h-1q-3-9-1-17M298 883l2 1-7 4-2 1c2-5 3-4 7-6M539 119v5z"/></svg>