<svg xmlns="http://www.w3.org/2000/svg" width="1024" height="1024" viewBox="0 0 1024 1024"><path fill="#72b4fe" d="m367 133-1-4a715 715 0 0 1 261 320c3 7 8 22 9 29q12 3 21 8c23 17 34 48 27 76q-7 24-23 43c-2 3-8 6-9 10h1l1-1 1 1-1 10c-1 19-5 40-16 55q-8 9-19 9l16 29q16-9 34-5 11 5 15 15c4 18 1 15 18 23l28-7 20-5 20-10c20-7 47-6 66 5l21 14q18 13 24 34c24 88-138 191-218 184q-11-2-20-10a271 271 0 0 1-197 34c-13-2-22-5-29-17q-10-16-7-34 3-10 10-19c-2-30-3-51 3-81-19-19-13-44 4-61l-42 2c-143 4-254-121-219-263 8-35 20-59 39-89 56-91 187-172 162-295m224 459-2 6-2 6-2 5v1l-3 5-1 5-6 13-3 6-1 3-1 1-2 5-2 3-5 9 2 2-16 8q-23 19-41 40l-7 4-13 4c-5-20-19-58-47-49-22 7-43 27-59 43q-9 8-14 19c-5 23 16 30 32 17l14-12c4 1 30 1 31-2q4 15 4 30c-9 5-13 9-20 14-17 17-23 42-4 61-6 30-5 51-3 81q-7 9-10 19-3 19 7 34c7 12 16 15 28 17a271 271 0 0 0 198-34q8 8 20 10c80 7 242-96 218-184q-6-21-24-34l-21-14a83 83 0 0 0-66-5l-20 10-20 5-28 7c-17-8-14-5-18-23q-4-10-15-15-18-4-34 5l-16-29q11 0 19-9c11-15 15-36 16-55l1-10-1-1-1 1h-1c1-4 7-7 9-10q16-19 23-43c7-28-4-59-27-76q-9-6-21-8c-10 0-21 2-22 15q0 5 3 8-5 0-4 4-10 10 0 20l2 2-1 3q-4 4-4 9c-2 13 13 15 21 19 8 13 2 32-1 46l-6 20v1c-8 18-11 28-21 45q-8-7-17-10c6-10 30-61 27-71q-2-5-7-7-6-1-10 1l-3 4zm-52-229q12-4 8-16l-11-19q-36-59-89-104c-5-5-15-13-22-14q-6 1-9 6c-7 10 4 15 10 21a534 534 0 0 1 79 86c4 6 22 35 26 38q3 3 8 2"/><path fill="#f4f5f9" fill-opacity=".9" d="M596 583q4-2 10-1 5 2 7 7c3 10-21 61-27 71l-12-1c1-3 9-1 0-10-3-2 1-7-3-7l1-3c3 4 4-2 3-6l6-13q4-1 1-5l3-5c3 2 3-3 2-6l2-6c3 4 4-6 2-6l2-5v2q5 1 3-5z"/><path fill="#f4f5f9" fill-opacity=".8" d="M571 642c4 0 0 5 3 7 9 9 1 7 0 10l-4 1q1-5-3-8l-1-1 2-3q5-1 2-5z"/><path fill="#f4f5f9" fill-opacity=".7" d="m593 587 3-4v1q2 6-3 5zM591 592c2 0 1 10-2 6zM575 633c1 4 0 10-3 6z"/><path fill="#f4f5f9" fill-opacity=".8" d="M587 604c1 3 1 8-2 6v-1z"/><path fill="#f4f5f9" fill-opacity=".6" d="M570 643q3 4-2 5z"/><path fill="#f4f5f9" fill-opacity=".8" d="M582 615q3 4-1 5z"/><path fill="#f4f5f9" fill-opacity=".7" d="m645 618 3 1-3 2z"/><path fill="#071264" d="m653 615 1-1 1 1-1 10c-1 19-5 40-16 55q-8 9-19 9l16 29q16-9 34-5 11 5 15 15c4 18 1 15 18 23l28-7 20-5 20-10c20-7 47-6 66 5l21 14q18 13 24 34c24 88-138 191-218 184q-11-2-20-10a271 271 0 0 1-197 34c-13-2-22-5-29-17q-10-16-7-34 3-10 10-19c-2-30-3-51 3-81-19-19-13-44 4-61 7-5 11-9 20-14q0-15-4-30c-1 3-27 3-31 2l-14 12c-16 13-37 6-32-17q5-11 14-19c16-16 37-36 59-43 28-9 42 29 47 49l13-4 7-4q18-22 41-40l16-8 5-2h2l4-1 12 1q9 4 17 10c10-17 13-27 21-45 9 1 13-1 21-4l3-2zM536 801c13 0 35 1 47-1-11-16-3-33 9-46l7-7c-3-10-14-33-22-39-7 11-24 26-35 34l-11 11c11 9 6 22 5 35zm-78 158-21-1-4-1h-6l-1-1h-2l-2-1-6-1 1 1q1 8 6 14l1 2 2 3 1 1 1 1 3 2 11 5h3l3 1 41 5c60 2 137-21 182-62 17-16 31-37 32-61q1-22-21-26c-20-3-40 10-56 22-31 24-54 58-89 78q-37 21-79 19m194-5 1 1c3 4 18 5 23 4h7l4-1 8-2 7-1h2l6-2 8-2q62-22 111-66c31-29 65-77 36-118-20-6-32 3-47 16-39 34-51 86-90 122a140 140 0 0 1-55 31l-23 17zM529 800v-4l2-21c3-19-13-22-28-21-27 4-57 13-76 35q-5 6-7 14c-4 8-1 20 5 28l4 3 8-1c11-2 26-11 35-16a138 138 0 0 1 41-14zm56-10q1 9 7 6l6-3c14-5 22-5 37-4l5 1c12-13 22-21 38-29l1-1 5-2 7-3-8-6v-1q-2-3-3-7 0-6-3-10l-3-6-2-2-2-2q-9-5-19-2l-2 1-5 2c-19 8-67 45-59 68m67 48q3-3 8-4l20-1h3l-7-3h1q5 3 9 1c-2-5-3-3-5-5h1q-6-7-14-8c-20-2-46 12-60 23q-13 9-24 20l-14 17q-25 27-58 42-6 3-11 4l-13 4-8 1-19 2v1l-11-1q-14 0-27-3c-5 9-6 9-7 20l26 4c9 1 29 2 37 0l6-1h4l14-3 2-1 12-4c54-22 80-78 135-105m45 68 2 1-7 11q5-3 10-3l1-1c40-24 57-63 81-101q10-15 22-29l1-1 5-4 7-7 1-1 2-1h1l3-3 8-4q9-5 20-5v-3q-5-4-10-6h-1l-3-1h-9l-4 1c-18 4-25 12-38 24l-1 1-3 2-4 5-4 5-17 26c-14 23-24 48-44 67l-9 9zm-202-38-1 5c4-1 14-1 16-3v-2c-3 0 1-9 0-11v-3c5-6 3-7 6-13l4-8 7-7q1-5 6-8l2-2 6-6c-7 0-6-1-12 2-13 5-24 27-29 39l-3 7c1 2 2 11-2 10m62-51 8-8h-9l-5 4-1 1c-12 9-24 37-26 52q-2 4 2 4l12-2 1-4c4-21 7-30 18-47m-87 39-1 1c1 8 2 5 3 11q-2 1-3 1-2 0-4 1l-1 6 9-1h1l5-1-1-1-1-4v-1c-2-6 2-8 4-12v-6l4-2c2-5 1-7 5-12v3l2-3 5-8-3 2v-1c4-3 3-2 5-6 5-1 3-1 5-6l4-2-1-1-6-1c-3 0-10 6-12 9q-12 15-19 34m230-89q-11 26-8 53v1h2l2-1 5-2 3-1c0-12 0-19 3-31v-2l4-14 2-7 3-6c0-3-9 0-9 1h-1l-2 3-1 1zm17 40zv4c2 1 11-3 14-4v-6c0-13 1-20 3-33l1-6 7-15h1l-3 1-6 1h-1l-5 8-3 6q-5 11-7 24zm-34-27 5-12-2-2-8 5q-9 12-10 28-2 5 2 10 2 5 7 5l1 1h1c0-8-3-24 3-29v-1z"/><path fill="#4797f9" d="M566 701c3 1 10 5 11 7-7 11-24 26-35 34l-11 11q-4-3-9-4-16-4-31 1-1-17-5-32l13-4 7-4c-11 19 8 35 24 25 12-8 25-24 36-34"/><path fill="#72b4fe" d="m412 736 24-24q5 11 7 22c-1 3-27 3-31 2"/><defs><linearGradient id="a" x1="504.9" x2="656.3" y1="872.7" y2="960.5" gradientUnits="userSpaceOnUse"><stop offset="0" stop-color="#eceef3" stop-opacity=".9"/><stop offset="1" stop-color="#edeef0"/></linearGradient></defs><path fill="url(#a)" d="M458 959q42 2 79-19c35-20 58-54 89-78 16-12 36-25 56-22q22 4 21 26c-1 24-15 45-32 61a274 274 0 0 1-198 61l10-2h1-11l1 1-3-1h1-6l-3-1-2-1q1-2-2-5l-4-2-2-9-2-2 6-1c1 0 7 1 7-1h-7c1-4 2-2 6-3h8z"/><defs><linearGradient id="b" x1="680.9" x2="860.2" y1="842" y2="878.7" gradientUnits="userSpaceOnUse"><stop offset="0" stop-color="#ecedf1" stop-opacity=".9"/><stop offset="1" stop-color="#eceef0"/></linearGradient></defs><path fill="url(#b)" d="m652 954-2-1 23-17a168 168 0 0 0 55-31c39-36 51-88 90-122 15-13 27-22 47-16 29 41-5 89-36 118q-49 43-111 66l-5-3-5-2-4 3c-3 2 2 1 2 1l1 3-4-2-7-2-7 3-9 2h-2c-7 1-6 1-11-2h-8q-4-2-7 1z"/><path fill="#edeef2" d="M420 803q2-9 7-14c19-22 49-31 76-35 15-1 31 2 28 21l-2 21-4 1c-1 3 2 1 4 3v1l-16 2a117 117 0 0 0-41 14c-9 5-24 14-35 16v-1l4-1q5-1 3-4-2 1-3-1h1c-2-1-10 2-13 2-9-7-1-12-3-22-3-12-3-5-6-3m30-4-2-2h-5v2l4 2zm16 20q1-4-5-3c-1 5 2 3 5 3m-40-23zq1-3-1-4-2 3 0 4"/><path fill="#071264" d="M443 792c5 0 16 2 18 7q1 6 4 12v3q-6-1-6-8l-1-5q-6-6-14-6z"/><path fill="#edeef2" fill-opacity=".9" d="M443 797h5l2 2-3 2-4-2z"/><path fill="#eff0f5" fill-opacity=".6" d="M461 816q6-1 5 3c-3 0-6 2-5-3"/><path fill="#eff0f5" fill-opacity=".9" d="M426 792q2 1 1 4h-1q-2-1 0-4"/><path fill="#edeef2" fill-opacity=".8" d="M651 719q10-3 19 2-4-2-6 1 0 4 3 7l8 7c0 3-1 10 1 12 0 0 5 1 3 4-2 4-6 5-1 9-16 8-26 16-38 29l-5-1v-1c1-1-8-1-9-1h-5q-4-1-6-1l-5 1c-3 0-1 2-4 3h-3q-3 1-5 3l-6 3q3-2 0-4-3-3-4-4l-2 1-1 1c-8-23 40-60 59-68q7 5 7-3m-28 45c2 9 2 11 13 12q-4-1-6-4c-2-4-5-2-5-6q-1-4-4-6-2-3-5-3l1 1h-10q3-2 3-3h-3q-3 1-4 3s-3 5 0 4q1 3 4 2c4-2 5 1 7 1l2 4 2 2 2 3c5 6 12 11 18 5q-10 2-16-6l-3-8-1-1q-5-3-11-2-3-1-1-3 11-3 17 5"/><path fill="#071264" d="M618 764q-5-3-11-2-3-1-1-3 11-3 17 5c2 9 2 11 13 12q3 0 2 3-10 2-16-6l-3-8z"/><path fill="#f4f5f9" d="M614 765c-2 0-3-3-7-1q-3 1-4-2c-3 1 0-4 0-4q1-2 4-3h3q0 1-3 3h10l-1-1q3 0 5 3 3 2 4 6c0 4 3 2 5 6q2 3 6 4c-11-1-11-3-13-12q-6-8-17-5-2 2 1 3 6-1 11 2z"/><path fill="#f4f5f9" d="m619 765 3 8q6 8 16 6c-6 6-13 1-18-5l-2-3z"/><path fill="#edeef2" fill-opacity=".8" d="m618 764 1 1-1 6-2-2-2-4z"/><path fill="#edeef2" fill-opacity=".9" d="M512 920q33-15 58-42l14-17q11-11 24-20c14-11 40-25 60-23q8 1 14 8h-1q-5-2-4 4h-1l7 3h-3l-20 1q-5 1-8 4c-55 27-81 83-135 105q0-3 1-3-1 0-3-1-1-2-4-1c-5 0-3-1-3-4q0 0-2-2c-1-2-4 0-5-2h4l4-1q2-1 2-3 3 0 4-2c-1-2-2 0 1-3 1-1-3-1-4-1"/><defs><linearGradient id="c" x1="725.4" x2="760.3" y1="820.2" y2="878" gradientUnits="userSpaceOnUse"><stop offset="0" stop-color="#f2f0f4" stop-opacity=".7"/><stop offset="1" stop-color="#eef2f6"/></linearGradient></defs><path fill="url(#c)" d="m782 805 4-3 11-11q4-4 8-7h1q-13 14-22 29c-24 38-41 77-81 101q1-3 3-3h-4l1-3h-3l-1-1-2-1 10-18 9-9c20-19 30-44 44-67l17-26q-1 4 3 4c3-1 1 3 1 4q-5 4-7 9v4l11-16 1 1q0 4-3 6l-6 9c-5 5 6 2 5-2"/><path fill="#edeef2" fill-opacity=".5" d="m501 924 4 3c-1 0-7 0-8 2l1 3q3 3 6 2v1q-3-1-4 2h3l3 1-6 2-4 2c-1 2-3 0-5 2h-9l4 2q3 1 2 5h-3c2-2-6-5-8-3v1q-1 3 2 3c-8 2-28 1-37 0h7c1 0 5-2 4-3h-1l-1-1q0-1 1-1l-4-1c-1-1-9 2-9-2q3-4 7-4h7l2-1q5-1 9-5 0-2 2-1l-1-1h1l-5-1 19-2q3 1-1 2l2 1v1h8l-3-2q0 0 1-1l1-2z"/><path fill="#eff0f5" fill-opacity=".8" d="m497 858 3-7c5-12 16-34 29-39 3 4 1 2 6 4l-2 2q-5 2-6 8l-7 7-4 8c-3 6-1 7-6 13v3c1 2-3 11 0 11v2c-2 2-12 2-16 3l1-5c4 1 3-8 2-10m0 12h2l8-1q1-4-1-6c-3 8-1 4-10 7z"/><path fill="#f4f5f9" fill-opacity=".8" d="M506 863q2 2 1 6l-8 1h-3c9-3 7 1 10-7"/><path fill="#f4f5f9" fill-opacity=".7" d="M524 866c2-15 14-43 26-52l7 3c-11 17-14 26-18 47l-6-2-3 1-4 1z"/><path fill="#eff0f5" fill-opacity=".9" d="M489 822c2-3 9-9 12-9l6 1 1 1-4 2c-2 5 0 5-5 6-2 4-1 3-5 6v1l3-2-5 8-2 3v-3c-4 5-3 7-5 12l-4 2v6c-2 4-6 6-4 12v1-1q-3-3-5 0c-1-6-2-3-3-11l1-1c6-2 1-7 7-10v-4q3-3 4-6c-1-2 3-4 3-5l1-2v1c2 0 4-6 4-8"/><path fill="#edeef2" fill-opacity=".7" d="m717 807 1-19q2-13 7-24l1 5h1l1 1c5-5 4-1 6-1-2 13-3 20-3 33h-5c-5 4-3 4-9 5"/><path fill="#f4f5f9" fill-opacity=".7" d="m700 767 1 4-1 1c0 4-4 3-1 9l1 2h1v-1q2 3 6 4c-3 12-3 19-3 31v-5c-3-1-11 2-12 4v1q0 3 2 4h-2v-1q-3-27 8-53"/><path fill="#f4f5f9" fill-opacity=".8" d="M677 814q-5 0-7-5-4-5-2-10 1-16 10-28v1c0 6 1 4 5 8l-1 5v1c-6 5-3 21-3 29h-1v-7c-2-1-10 2-2 5z"/><path fill="#f4f5f9" fill-opacity=".3" d="m840 748 3 1c-1 1-1 6-3 6l-10 2c-4 5-4 4-10 5q-4 3 2 8l-2 1-4-2c-6-1-8 4-12 7l-6 3q-2 3-5 2 1-2-1-2v-3c-2-1-2 1-4-2l1-1c1 4 2-1 5-1l5-2q4-3 8-4l8-7 3-3c4 0 3-2 5-3l3-1-4 5-5 2c-1 2 5 1 6 1q4-1 7-4h1l8-1c2-8 2-5-1-7z"/><path fill="#f4f5f9" fill-opacity=".1" d="M831 748h2q-1 2-1 3l-5 2 2 1h-3v-2l-3 1c-2 1-1 3-5 3l-3 3-8 7q-4 0-8 4l-5 2c-3 0-4 5-5 1 13-12 20-20 38-24z"/><path fill="#edeef2" fill-opacity=".6" d="M501 924q5-1 11-4c1 0 5 0 4 1-3 3-2 1-1 3q-1 2-4 2 0 2-2 3l-4 1h-4c1 2 4 0 5 2q2 2 2 2c0 3-2 4 3 4q3-1 4 1 2 1 3 1-1 0-1 3l-12 4 1-3q3 0 7-1 0-4-5-3h-8l6-2-3-1h-3q1-3 4-2v-1q-3 1-6-2l-1-3c1-2 7-2 8-2z"/><path fill="#eff0f5" d="m501 813 14-2q-14 11-22 26-11 16-14 37l-1-1-1-4v-1c-2-6 2-8 4-12v-6l4-2c2-5 1-7 5-12v3l2-3 5-8-3 2v-1c4-3 3-2 5-6 5-1 3-1 5-6l4-2-1-1z"/><path fill="#edeef2" fill-opacity=".5" d="M785 776v3q3 2 5 1l1 4c4 2 10-5 12-5 6-1 10-8 16-7l-7 7q-4-1-5 3h-3q-5 1-9 4l-8 6h-1l-1-1c-1-7-5-3-4-9v-1z"/><path fill="#eff0f5" fill-opacity=".9" d="M420 803c3-2 3-9 6 3 2 10-6 15 3 22l-4 1v2c-6-8-9-20-5-28m4 22q1-4-3-4 0 3 3 4"/><path fill="#eff0f5" fill-opacity=".7" d="M421 821q4 0 3 4-3 0-3-4"/><path fill="#edeef2" fill-opacity=".6" d="M443 968h10l2 9-5-2v1l5 4q3 3-3 3c2-3-7-7-9-8-3-1-11 3-12 1v1-1 2l-3-2c3-1 1-2 7-3q7 2 12-3h1zM704 761l5 6 2 3-4 14v-1c-2-2-3 0-5-2-3-2 0-4 0-6l-1-7q3-3 2-6z"/><path fill="#f4f5f9" fill-opacity=".4" d="M788 774c2 3 2 1 4 2v3q2 0 1 2 3 1 5-2l6-3c4-3 6-8 12-7l4 2-1 1c-6-1-10 6-16 7-2 0-8 7-12 5l-1-4q-3 1-5-1v-3z"/><path fill="#edeef2" fill-opacity=".5" d="M652 953q3-3 7-1h8c5 3 4 3 11 2v1l9 3-4 1v-1l-3-1-3-2-9 3c0 2 6 1 8 1-5 1-20 0-23-4a1 1 0 1 0-1-2"/><path fill="#eff0f5" fill-opacity=".2" d="m458 932 1 1c1 3-11 5-13 7q-4 1-7 4c0 4 8 1 9 2l4 1q-1 0-1 1l1 1h1c1 1-3 3-4 3-1-6-5-4-11-4-5-4-2-4-5-9 6-4 17 1 25-7"/><path fill="#edeef2" fill-opacity=".6" d="m433 957 4 1c-6 3-4 9 8 2 1 0 16 0 10 4l-4 2 2 2h-10c-6-2-15-3-10-11"/><path fill="#f4f5f9" d="M510 854c5-6 3-7 6-13l4-8 7-7q1-5 6-8-18 23-23 50c-3 0 1-9 0-11z"/><path fill="#edeef2" fill-opacity=".7" d="M786 792zl8-6q5-3 9-4h3q1-4 5-3l-5 4c-4 1-3 0-6 3l-4 4c-1 0-1-4-3-2q-5 3-7 8-3 5-5 9c1 4-10 7-5 2l6-9q3-2 3-6"/><path fill="none" d="M844 749q5 2 10 6v3q-11 0-20 5l-2-1 1-2 2-2 2-1h5l1-3z"/><path fill="#edeef2" fill-opacity=".6" d="m675 736-8-7q-3-3-3-7 1-3 6-1l2 2-5-1q1 9 10 12c-1 4-3 10 2 12l1-5q1 4 3 7c-7 2 0 5-4 7q-4 3 0 5l-1 1c-5-4-1-5 1-9 2-3-3-4-3-4-2-2-1-9-1-12"/><path fill="#f4f5f9" fill-opacity=".2" d="M843 749zl-1 5-1 3h-5l-2 1-2 2-1 2 2 1-8 4-1-2q-3 0-4 2l2 3h-1q-6-5-2-8c6-1 6 0 10-5l10-2c2 0 2-5 3-6"/><path fill="#edeef2" fill-opacity=".5" d="M431 978zv-1 1-1c1 2 9-2 12-1 2 1 11 5 9 8l-4 1-3-1 4-1-1-2-5 1-1 2zM432 957h1c-5 8 4 9 10 11l5 2h-1l-5 1c-3 1-10-1-13 1-2 1 0 2-2 3l-1-1 1-3 2-2 1-2 1-1h-1q-1-4 2-9"/><path fill="#edeef2" fill-opacity=".8" d="m437 958 21 1 13 2h-8c-4 1-5-1-6 3h7c0 2-6 1-7 1l-6 1 4-2c6-4-9-4-10-4-12 7-14 1-8-2"/><path fill="#f4f5f9" fill-opacity=".8" d="M429 828c3 0 11-3 13-2h-1q1 2 3 1 1 3-3 4l-4 1v1l-8 1q1-6-3-5h-1z"/><path fill="#edeef2" fill-opacity=".5" d="M484 944c8 4 17-3 18-1 3 2 0 3 0 4h1v1l-14 3h-1q1-4-2-5l-4-2z"/><path fill="#edeef2" fill-opacity=".6" d="m728 758 5 3c2 0 0 2 2 2l-1 6c-2 0-1-4-6 1l-1-1h-1l-1-5z"/><path fill="#f4f5f9" fill-opacity=".7" d="M452 983q6 0 3-3l-5-4v-1l5 2 4 2q3 2 2 5l2 1 3 1h6-1l3 1-1-1h11-1l-10 2-25-4z"/><path fill="#edeef2" fill-opacity=".4" d="M831 748h9-2c3 2 3-1 1 7l-8 1c-1 0-9 3-5-1v-1h3l-2-1 5-2q0-1 1-3z"/><path fill="#edeef2" fill-opacity=".7" d="M782 805q2-4 5-9 2-5 7-8c2-2 2 2 3 2l4-4c3-3 2-2 6-3l-1 1h-1q-4 3-8 7l-11 11z"/><path fill="none" d="m686 766 2 2-5 12c-4-4-5-2-5-8v-1z"/><path fill="#f4f5f9" fill-opacity=".5" d="M717 807c6-1 4-1 9-5h5v6c-3 1-12 5-14 4q5-2 0-4zm7 0q5 1 5-3c-1 1-6 1-5 3"/><path fill="#f4f5f9" fill-opacity=".5" d="M729 804q0 4-5 3c-1-2 4-2 5-3"/><path fill="#edeef2" fill-opacity=".6" d="m777 786 4-5v1c-1 6 3 2 4 9l-11 16v-4q2-5 7-9c0-1 2-5-1-4q-5-1-3-4"/><path fill="#edeef2" fill-opacity=".3" d="M677 734q-9-3-10-12l5 1 2 2h-2l-1-1c-1 1 0 9 6 7q3 4 3 10l-1 5c-5-2-3-8-2-12"/><path fill="#edeef2" fill-opacity=".5" d="M500 940h8q5-1 5 3-4 1-7 1l-1 3-2 1v-1h-1c0-1 3-2 0-4-1-2-10 5-18 1h7c2-2 4 0 5-2z"/><path fill="#edeef2" fill-opacity=".7" d="m708 946 5 2c-2 0-7 1-4 4l1 1-6 2q-7-5-15-3l7-3 7 2 4 2-1-3s-5 1-2-1z"/><path fill="#f4f5f9" fill-opacity=".8" d="M699 907zh3l-1 3h4q-2 0-3 3l-1 1q-5 0-10 3z"/><path fill="#f4f5f9" fill-opacity=".6" d="m526 864 4-1 3-1 6 2-1 4-12 2 3-2q0-3-3-4"/><path fill="#eff0f5" d="m697 906 2 1-7 11q5-3 10-3l-18 9z"/><path fill="#f4f5f9" d="M598 793q2-2 5-3h3c3-1 1-3 4-3l5-1q2 0 6 1h5c1 0 10 0 9 1v1c-15-1-23-1-37 4"/><path fill="#eff0f5" fill-opacity=".6" d="M678 954h2l9-2q7-2 15 3h-2l-4-1c-1-2-9-2-9-1-1 3 5 1 5 2l1 1-8 2z"/><path fill="#edeef2" d="M489 822c0 2-2 8-4 8v-1l-1 2c0 1-4 3-3 5q-1 3-4 6v4c-6 3-1 8-7 10q6-19 19-34"/><path fill="#f4f5f9" fill-opacity=".9" d="M472 868q2-3 5 0c-7 0-5 2-4 7l-9 1 1-6q2-1 4-1 1 0 3-1m-5 6a1 1 0 1 0-1-2 1 1 0 0 0 1 2"/><path fill="#f4f5f9" fill-opacity=".5" d="M466 872a1 1 0 1 1 0 2 1 1 0 0 1 0-2"/><path fill="#f4f5f9" d="m682 785-2 27q1 4-1 3c0-8-3-24 3-29z"/><path fill="#edeef2" fill-opacity=".2" d="m461 931 5 1h-1l1 1q-2-1-2 1-4 4-9 5l-2 1h-7c2-2 14-4 13-7l-1-1h3z"/><path fill="#edeef2" fill-opacity=".7" d="M703 762q1 3-2 6l1 7c0 2-3 4 0 6 2 2 3 0 5 2v3q-4-1-6-4v1h-1l-1-2c-3-6 1-5 1-9l1-1-1-4z"/><path fill="#eff0f5" fill-opacity=".2" d="M706 758zc3 3 5 0 7 4l-2 7-2-3-5-6z"/><path fill="#eff0f5" d="M677 830q5 3 9 1 2 0 2 2l2 3-8-2q-15-2-29 4h-1q3-3 8-4l20-1h3z"/><path fill="#eff0f5" fill-opacity=".2" d="M433 939c3 5 0 5 5 9 6 0 10-2 11 4h-3c-2-6-11 0-13-6z"/><path fill="#f4f5f9" fill-opacity=".4" d="M692 816c1-2 9-5 12-4-1 1-5 5-3 6l-5 2q0-5-4-4"/><path fill="#eff0f5" fill-opacity=".5" d="m585 790 1-1 2-1q1 1 4 4 3 2 0 4-6 3-7-6"/><path fill="none" d="M529 812c6-3 5-2 12-2l-6 6c-5-2-3 0-6-4"/><path fill="#edeef2" fill-opacity=".4" d="M425 962q1-2 4-3l1-1c-1 4-4 3-4 6l4 2h1l-1 1-1 2-2 2-1 3-2-3 1-1v-8"/><path fill="#edeef2" fill-opacity=".5" d="M427 975c2-1 0-2 2-3 3-2 10 0 13-1l5-1q-5 5-12 3c-6 1-4 2-7 3z"/><path fill="#f4f5f9" d="M469 857c1 8 2 5 3 11q-2 1-3 1-2 0-4 1z"/><path fill="#edeef2" fill-opacity=".4" d="M683 748zc-3 5-2 4 1 9l-5 2q-4-2 0-5c4-2-3-5 4-7M822 757l4-5v3c-4 4 4 1 5 1h-1q-3 3-7 4c-1 0-7 1-6-1zM480 929l8-1-1 2q-1 1-1 1l3 2h-8v-1l-2-1q4-1 1-2"/><path fill="#edeef2" fill-opacity=".2" d="M479 952q-3 0-2-3v-1c2-2 10 1 8 3zM427 957h4l-1 1-1 1q-3 1-4 3v8l-1 1-1-2q0-4 2-9z"/><path fill="#edeef2" fill-opacity=".6" d="m713 948 5 3-8 2-1-1c-3-3 2-4 4-4"/><path fill="#eff0f5" fill-opacity=".7" d="M473 875c-1-5-3-7 4-7v1l1 4q-4 0-4 2z"/><path fill="#edeef2" fill-opacity=".6" d="M695 956zc0-1-6 1-5-2 0-1 8-1 9 1l4 1z"/><path fill="#f4f5f9" fill-opacity=".2" d="m677 814-1-1c-8-3 0-6 2-5v7z"/><path fill="#eff0f5" fill-opacity=".3" d="M526 864q3 1 3 4l-3 2q-4 0-2-4z"/><path fill="#eff0f5" fill-opacity=".2" d="m668 958 7-1h3l3 2h-5c-2 0-8 1-8-1"/><path fill="#eff0f5" fill-opacity=".3" d="m677 955 3 2 3 1v1h-2l-3-2h-3l-7 1z"/><path fill="#edeef2" fill-opacity=".4" d="M431 957h1q-3 5-2 9l-4-2c0-3 3-2 4-6z"/><path fill="#edeef2" fill-opacity=".6" d="m644 722 7-3q0 8-7 3"/><path fill="#f4f5f9" d="M497 858c1 2 2 11-2 10z"/><path fill="#f4f5f9" fill-opacity=".3" d="M701 818c-2-1 2-5 3-6v5z"/><path fill="#edeef2" fill-opacity=".3" d="m442 983 1-2 5-1 1 2-4 1z"/><path fill="#f4f5f9" fill-opacity=".1" d="m823 770-2-3q1-2 4-2l1 2z"/><path fill="#eff0f5" d="m686 766 7-3-5 5z"/><path fill="#edeef2" fill-opacity=".5" d="M425 829zq4-1 3 5l-4-3z"/><path fill="#f4f5f9" fill-opacity=".2" d="M692 816q4-1 4 4l-2 1q-2-1-2-4z"/><path fill="#eff0f5" fill-opacity=".8" d="M529 796v4c-2-2-5 0-4-3z"/><path fill="#eff0f5" fill-opacity=".6" d="M474 875q1-2 4-2l1 1z"/><path fill="#eff0f5" fill-opacity=".3" d="M717 808q5 2 0 4z"/><path fill="#edeef2" fill-opacity=".3" d="M652 953a1 1 0 1 1 2 2 1 1 0 0 1-2-2"/><path fill="#4797f9" d="M367 133c5 3 12 21 14 26 19 46 22 99 2 146-36 85-137 138-138 238q-1 36 14 70c9 24 34 51 57 64q9-13 16-27c10 5 28 11 39 9-7 20-24 48-41 61 10 4 25 10 36 11-5 23 16 30 32 17l14-12c4 1 30 1 31-2q4 15 4 30c-9 5-13 9-20 14l-42 2c-143 4-254-121-219-263 8-35 20-59 39-89 56-91 187-172 162-295"/><path fill="#071264" d="M330 720q-37 29-75-1c-20-14-35-38-46-60l-10-24c-5-11-13-25-3-36q5-6 13-7c20-1 21 21 27 34q15 35 41 61c16 15 27 4 39-10q9-13 16-27c10 5 28 11 39 9-7 20-24 48-41 61"/><path fill="#72b4fe" d="M358 275h6q7 2 9 7 3 6 0 10-3 7-7 13-17 29-38 53l-36 39c-7 8-16 24-25 28-10 2-19-6-16-16 2-6 10-15 14-20q24-27 47-53 17-19 30-41c5-8 7-16 16-20M231 440c10 0 20 4 17 16l-6 13-8 18-7 27q-1 8-9 10c-34 8-4-62 4-73q3-6 9-11"/><path fill="#071264" d="m338 515 1-1q16-20 37-3l1 1q8-1 15 3c11 8 1 23 3 34 2 20 14 37 12 57-2 17-8 37-23 46q-5 4-11 5l-2 2c-11 2-29-4-39-9v-3q-12-7-22-17a90 90 0 0 1-26-58q0-8 5-13 7-6 16-4 1-2 2-1c-1-19 4-48 30-39z"/><path fill="#f4f5f9" d="m376 511 1 1c-31 22-11 57-14 61h-1c-4-4-5-28-4-34q2-18 18-28M337 515h1q-10 25-4 52l3 13h-1c-3-3-5-17-6-21q-3-23 7-44"/><path fill="#eff0f5" d="M332 647c17 9 23 10 41 10l-2 2c-11 2-29-4-39-9z"/><path fill="#f4f5f9" d="M305 555q1-2 2-1l6 27 2 6h-2l-7-26z"/><path fill="#071264" d="M636 478q12 3 21 8c23 17 34 48 27 76q-7 24-23 43c-2 3-8 6-9 10h1l-5 4-3-1v3c-8 3-12 5-21 4v-1l6-20c3-14 9-33 1-46-8-4-23-6-21-19q0-5 4-9l1-3-2-2q-10-10 0-20-1-4 4-4-3-3-3-8c1-13 12-15 22-15m9 24-2-1-4-1v3h2l3 1c3 0 10 6 12 6l2 2q11 9 15 23 0 2 2 3c2-2-1-9-2-11q-9-18-28-25m13 49 1 5h1v-6q-1-7-5-12c-4-5-4-5-9-8v-1l-3 2 4 2 6 5z"/><path fill="#f4f5f9" d="M645 502q19 7 28 25c1 2 4 9 2 11q-2-1-2-3-4-14-15-23 0-3-2-2c-2 0-9-6-12-6l-3-1z"/><path fill="#f4f5f9" fill-opacity=".5" d="M653 538h2q4 5 5 12l-2 1z"/><path fill="#f4f5f9" d="M646 529zc5 3 5 3 9 8h-2l-6-5z"/><path fill="#f4f5f9" fill-opacity=".3" d="M660 550v6h-1l-1-5z"/><path fill="#f4f5f9" fill-opacity=".8" d="m639 500 4 1 2 1-4 1h-2zM643 531l3-2 1 4z"/><path fill="#f4f5f9" fill-opacity=".9" d="M656 510q2-1 2 2z"/><path fill="#f4f5f9" d="M615 527q11-3 21-1 5 2 10 3l-3 2c-9-3-19-6-29-1z"/><path fill="#eff0f5" d="M617 501zq11-4 21-1v3q-13-3-26 2-1-4 4-4"/><path fill="#f4f5f9" d="M624 624c10-2 11-1 21-6v3c-8 3-12 5-21 4zM645 618q4-3 7-3h1l-5 4z"/><path fill="#071264" d="M414 382c7-1 21-2 20 10-1 9-12 6-18 7q-27 1-48 17c-3 2-7 8-11 6-5-2-2-8 1-11q22-26 56-29"/><path fill="#242329" d="M473 470c9 1 3 9-1 12a73 73 0 0 1-102-1c-2-3-5-6-1-9 5 0 9 7 13 10 29 22 68 16 91-12"/><path fill="#071264" d="M532 377q26-2 45 13c4 2 11 7 5 11q-5 0-11-4c-16-7-31-5-48-2q-15-9 2-17z"/><path fill="#242329" d="M598 449c11 1 1 16-3 20-20 24-59 24-82 4q-4-3-3-8 4-1 8 2c20 19 58 17 74-6q2-7 6-12M543 562l3 1c3 3-1 8-3 11-19 25-54 25-77 6q-2-2-3-5l2-2c4 0 9 5 13 7 14 9 33 10 48 1q11-7 17-19"/><path fill="#72b4fe" d="M712 34c8 0 21 2 26 10 6 9-4 20-12 24-20 12-44 11-66 6l-26-7c-16 7-56 37-65 53q9 4 14 10c9 11 10 29-2 38a23 23 0 0 1-33-5q-6-11-4-23c-23 26-28 52-32 85q-2 3-6 2-3-5-1-10 3-34 20-64c10-16 18-23 34-32l7-9 8-10c17-17 30-26 50-39-18-4-44-19-62-19-24 0-36 32-33 52 1 4 1 10-4 10-6-4-3-26-2-33q4-19 22-31c16-10 32-4 48 2l23 9 16 6 19-9c22-9 38-16 61-16m-39 35c17 2 46 1 58-15 7-11-17-14-24-13q-33 5-62 21zm-102 96c21-8 10-38-8-37q-8 5-11 15v9c1 9 10 15 18 13z"/></svg>