<svg xmlns="http://www.w3.org/2000/svg" width="1024" height="1024" viewBox="0 0 1024 1024"><path fill="#71aeee" d="m301 376 12-18c32-47 68-93 100-140l25-42c3-6 9-22 12-25 4 0 6 7 7 10q10 29 29 54c51 74 117 137 160 216q19 38 31 80l3 11q18 12 22 34c4 21-6 44-15 62l12 21c16-6 36-10 52-3q26 12 36 39 11 34-4 67c-2 4-6 13-9 16q-18 27-25 60c-4 20-19 41-40 48q-19 6-38-2-16-9-26-24l-8-3c-9 24-18 39-42 50-23 10-47 1-64-15l-8-10-37-10q-68-20-125-58l-17-12-1-5-13-12q-7 6-16 10c-16 6-34-2-40-18-5-15 1-31 7-44l-15-27q-22-37-30-79c-13-72 13-145 50-206q7-12 15-25m335 264-8 3-12-2c-35-4-66 25-76 57h-1l-22 8c-51 12-94-6-142-22-7 25-25 63-45 81l13 12 1 5 17 12q57 38 125 58l37 10 8 10c17 16 41 25 64 15 24-11 33-26 42-50l8 3q10 15 26 24 19 8 38 2c21-7 36-28 40-48q7-33 25-60c3-3 7-12 9-16q15-33 4-67-11-27-36-39c-16-7-36-3-52 3l-12-21c9-18 19-41 15-62q-4-22-22-34c-15-7-20-7-34 1-8 4-8 2-10 11-8 3-11 0-16 9-6 12 4 27 14 35-12 19-13 43 2 62m5-140-4 1q0 8 8 6c1-1 4-3 1-3h-1q2-5-4-4m-290 27zc-8 5-2 12 9 10 10-6 2-12-8-11m71-279a9 9 0 1 0 3 19 9 9 0 0 0-3-19m-28 31-8 4-14 22q-18 23-33 47c-8 14-6 29 12 31 13-2 15-8 20-18 11-23 28-43 39-66 5-11-4-21-16-20M287 720v1c-7 13-11 34 3 44 12 8 24 2 34-6l-31-31z"/><path fill="#181818" d="M634 578c-10-8-20-23-14-35 5-9 8-6 16-9 2-9 2-7 10-11 14-8 19-8 34-1q18 12 22 34c4 21-6 44-15 62l12 21c16-6 36-10 52-3q26 12 36 39 11 34-4 67c-2 4-6 13-9 16q-18 27-25 60c-4 20-19 41-40 48q-19 6-38-2-16-9-26-24l-8-3c-9 24-18 39-42 50-23 10-47 1-64-15l-8-10-37-10q-68-20-125-58l-17-12-1-5-13-12c20-18 38-56 45-81 48 16 91 34 142 22l22-8h1c10-32 41-61 76-57l12 2 8-3c-15-19-14-43-2-62M446 758zl-15 1c-21 4-33 9-45 26l-2 2q49 27 102 44c15 6 34 11 49 16 19 29 46 34 72 8 17-17 15-40 24-60 12-26 34-49 32-80q1-24-17-41l-13-10c-16-9-32-4-47 5-21 13-29 35-32 59q1 12-2 26-6 25-11 50 0 11-10 11c-10 0-6-20-5-26zm195 64 16 5 7 8c8 12 15 16 29 15q21-4 31-22c10-14 10-31 17-46 9-23 27-41 32-66 4-20-1-47-19-59-9-6-23-8-33-6q-22 4-33 21c-16 23-5 36-10 61q-4 23-16 44c-3 6-3 17-6 24-1 5-6 3-9 3-2 2-5 15-6 18"/><path fill="#71aeee" d="M525 789c-1 6-5 26 5 26q9 0 10-11 5-25 11-50 3-14 2-26c3-24 11-46 32-59 15-9 31-14 47-5l13 10q18 17 17 41c2 31-20 54-32 80-9 20-7 43-24 60-26 26-53 21-72-8-15-5-34-10-49-16q-53-18-102-44l2-2c12-17 24-22 45-26l15-1h1zm125-71c-2-3-3-12-3-16l1-6-4-7-1-1-7-7q-7-9-17-10c-10-2-14 12-8 14 9 6 18 8 21 21l1 9v1l3 4q4 4 10 1z"/><defs><linearGradient id="a" x1="640.8" x2="619.8" y1="687.6" y2="698.7" gradientUnits="userSpaceOnUse"><stop offset="0" stop-color="#fff" stop-opacity=".8"/><stop offset="1" stop-color="#fff"/></linearGradient></defs><path fill="url(#a)" d="m633 715-1-9c-3-13-12-15-21-21-6-2-2-16 8-14q10 1 17 10l-7-4q-3 1-1 5c2 3 0 2 5 3q2 2 2 5h3q1 2 4 3 2-2 1-5l1 1v2c0 4 3 3 2 8l1 3c0 4 1 13 3 16l-4 3c0-1 4-3 0-6q-3 0-8 1-2 0-2-2l-2-2zm-21-31q1-4-1-7-3 4 1 7"/><path fill="#fffefe" fill-opacity=".9" d="M611 677q2 3 1 7-4-3-1-7"/><path fill="#fffefe" fill-opacity=".7" d="m629 677 7 4 7 7q1 3-1 5-3-1-4-3h-3q0-2-2-5-1-2-3-5z"/><defs><linearGradient id="b" x1="640.9" x2="645.2" y1="717.8" y2="718.8" gradientUnits="userSpaceOnUse"><stop offset="0" stop-color="#fff" stop-opacity=".7"/><stop offset="1" stop-color="#fff" stop-opacity=".8"/></linearGradient></defs><path fill="url(#b)" d="M638 716q5-1 8-1c4 3 0 5 0 6q-6 3-10-1l3-1-3-3z"/><path fill="#fffefe" d="m648 696 2 8q2 7 0 14c-2-3-3-12-3-16z"/><defs><linearGradient id="c" x1="629.9" x2="628.6" y1="680.8" y2="682.2" gradientUnits="userSpaceOnUse"><stop offset="0" stop-color="#fff" stop-opacity=".8"/><stop offset="1" stop-color="#fff" stop-opacity=".9"/></linearGradient></defs><path fill="url(#c)" d="M633 685c-5-1-3 0-5-3q-2-4 1-5l1 3q2 2 3 5"/><path fill="#fffefe" fill-opacity=".5" d="m633 715 1-3 2 2q0 2 2 2h-2l3 3-3 1z"/><path fill="#fffefe" fill-opacity=".8" d="m644 689 4 7-1 6-1-3c1-5-2-4-2-8v-2"/><path fill="#438bdd" d="M375 684c48 16 91 34 142 22l22-8c-5 18-4 30-6 48l-4 27c-14-7-99-42-107-39q-4 1-6 6v4q2 6 8 7l22 7h-1l-15 1c-21 4-33 9-45 26l-2 2-28-16q-8-3-12 6l-13-12c20-18 38-56 45-81M628 643l8-3 2 7z"/><path fill="#71aeee" d="M721 651c10-2 24 0 33 6 18 12 23 39 19 59-5 25-23 43-32 66-7 15-7 32-17 46q-10 18-31 22c-14 1-21-3-29-15l-7-8-16-5c1-3 4-16 6-18 3 0 8 2 9-3 3-7 3-18 6-24q12-21 16-44c5-25-6-38 10-61q11-17 33-21m47 53-1-6-2-8c-3-11-11-23-21-27h-2c-7-5-16-3-19 5v4q3 4 8 5l8 4c9 8 11 12 12 24q2 8 11 6 4-2 6-7"/><path fill="#fffefe" fill-opacity=".3" d="M723 668c3-8 12-10 19-5l1 1c1 2-2 3 2 4l3 5c3 4 1 5 4 9h-4l-1 1-3-3-3-2-1-2h-2l-2-1-1-1-1 1-2 1-1 1q-5-1-8-5c6-5 1-3 0-4"/><path fill="#fffefe" fill-opacity=".1" d="m731 677 1-1 2-1 1-1 1 1 2 1h2l1 2 3 2 3 3 1-1h4c-3 5-3 5-9 0l-4-1z"/><path fill="#fffefe" fill-opacity=".3" d="M723 672v-4c1 1 6-1 0 4"/><path fill="#71aeee" d="M660 526c15-3 26 10 32 23 9 23-5 49-14 70l14 24q-17 11-25 30c-7-10-11-13-20-21q-2-7-3-16-15-17-10-38c2-8 4-11 8-18q-3-11-12-18c-8-11-1-27 11-15q11 11 17 25 4 3 7 0c5-8-20-29-21-37q2-4 6-3c10 3 18 14 23 23 1 4 1 10 6 10q5-1 4-6c-3-12-14-24-24-32z"/><path fill="#181818" d="m324 650-14-17c-15-23-16-59 4-80 7-7 25-15 34-4q15-5 20 11v1q6-2 11 0c17 12 5 30-3 41 15 28 19 48 2 75l-3 7c-7 25-25 63-45 81q-7 6-16 10c-16 6-34-2-40-18-5-15 1-31 7-44q18-32 40-59zm0 109-31-31-6-8v1c-7 13-11 34 3 44 12 8 24 2 34-6"/><path fill="#71aeee" d="M335 651q-5-8-13-15c-18-22-23-60 2-79q6-5 14-5l1 1q-3 5-8 9c-5 8-11 21-9 31 0 3 7 4 7-1q2-20 16-32l5-4c20 0 5 17 0 25-2 3-11 21-2 21 5 1 6-10 7-13 3-6 13-24 21-20l3 4c3 11-9 21-13 29 16 26 22 46 4 71l-2 7q-23-6-40-21z"/><path fill="#438bdd" d="M328 659q17 15 40 21-14 45-44 79l-31-31-6-8c7-17 28-46 41-61M281 713l-15-27q-22-37-30-79c-13-72 13-145 50-206q7-12 15-25l-3 12-11 36c-18 70-32 154 18 215l16 15q-22 27-40 59"/><path fill="#181818" d="M437 476c15 1 0 19-4 24 4 3 15 12 15 15 1 19-22-7-24-9l-12 6c0 4 5 18 3 21-11 10-13-13-14-19h-21c0 4-2 15-6 17s-9-2-7-7l4-13-15-7c-3 3-12 15-16 15-18-2 6-20 8-23-3-3-14-14-6-19 5-2 9 5 11 8q9 12 24 17c18 6 38 0 50-14q4-7 10-12M636 456c13 1 5 11 2 18l13 12c-1 17-17 0-21-4l-9 8c1 4 12 21-2 19-4-1-6-10-8-14l-16 4c0 3 3 27-10 19-3-2-1-15-1-20l-7-2-9-4c-2 3-9 17-12 17-16 2-1-18 2-24-3-3-11-9-9-14q0-3 3-4l5 1c19 25 50 26 69 1 4-4 6-11 10-13M559 568l5 2c3 10-28 24-36 26-29 9-52 5-78-9l-4-2c-3-3 0-9 4-7l10 5c29 15 65 11 91-9z"/><path fill="#fffefe" d="M351 527c10-1 18 5 8 11-11 2-17-5-9-10z"/><path fill="#fffefe" fill-opacity=".3" d="M641 500q7-1 4 4h1c3 0 0 2-1 3q-8 2-8-6z"/><path fill="#181818" d="M608 136c7 0 37 7 44 9 24 8-28 34-34 38q16 4 30 9c3 2 6 10 2 12-11 9-33 17-42 28 7 3 30 6 34 10l2 4q0 3-3 5-3 3-7 1l-20-4c-7-2-24-4-29-9l-1-5c2-11 38-26 48-34h1c-6-2-36-8-38-12v-4l4-6 12-8 26-14-14-4c-6-1-15-1-19-6-4-4 0-8 4-10"/></svg>