<svg xmlns="http://www.w3.org/2000/svg" width="1024" height="1024" viewBox="0 0 1024 1024"><path d="M510 756c-76 15-153 2-209-55-40-40-63-95-63-152 0-37 14-78 31-111l15-27q16-24 35-46 33-43 69-85l41-47c5-6 13-17 19-22q9-9 21-9 14 1 23 11 48 50 93 101l31 35a67 67 0 0 1 115 68 69 69 0 0 1-45 32l6 12c18-4 30 7 36 23 7 18-5 39-12 55 14 18 67 69 23 86-17 7-38-9-52-17h-1q-16 43-48 76l-11 12 19 14 41 30q27-7 34 20 0 3 3 3l2-5v-1l6-16c12-22 31-39 56-43q23-3 43 10l11 10c7 6 15 8 16 18v1c-1 8 4 15 1 24q-2 6-1 11c-1 9-20 43-26 51-22 32-51 73-91 84-6 2-22 0-28-4q-10-7-10-19l-16-15c-26 21-65 44-96 55-18 7-39 12-58 3q-28-16-12-45c-5-20-4-35 3-54-10-6-18-12-18-26q1-15 12-25zm131-429a65 65 0 1 0 65 113 65 65 0 0 0-65-113M516 783l-7 10q-3 7-1 14l1-1c2 0 3 5 3 7l2 3 4 2 1 1h-3l6 4 1-2q-1 2 3 3l1 2-3 10q-4 9-4 19c-2 4 0 19 2 23l10-11 4-4-1-3 32-27 17-10v1q-18 9-32 23l12-9q30-21 65-35v1q31-12 64-8l16 7q-8-22-27-35l-5-3-4-2-6-2a62 62 0 0 0-67 19l-11 14c-3 5-6 17-8 19-1-2 6-18 8-21l4-7h-13l-12 2a90 90 0 0 0-28 13v1c-3 1-10 7-13 10 1-4 12-12 15-14 13-9 38-17 53-14l9-11-2-6c-13-23-46-10-63-1h-1c-6 4-18 12-22 18m252-76-4 2-2 1-9 8-5 4-4 5a87 87 0 0 0-19 41l-1 20-1 1v-17l1-7-5-2-2-11-5-6-3-3-3-1q-5-2-10-2h-5l-8 4-7 5-3 2c-1 2-8 7-5 8l2 1 6 3c10 6 12 6 20 15 5-5 12-13 18-15l1 1-5 3-6 6-3 3q-4 3-1 6l1 2 2 3 2 3v1l3 5 2 7c8 15 8 19 2 37l-1 3c-8 11-13 17-23 25l15 14q2-11 7-23l5-11 6-10 9-16c11-18 21-31 34-48l7-9q20-25 47-40l1-1 8-3q6-2 12-2c-8-10-15-12-26-17h-1q-13-4-28-1l-6 2h-1l-5 2zm-486-74-3-7q-7-16-11-32c-3-3-6-14-8-19v-1q-2-3-3-7c-7-32-6-50-3-81l1-2-3-1-1 4a225 225 0 0 0-10 82v4l1 6q5 39 24 73c19 38 55 70 92 88l3-2c3-6-2-18-3-24s4-13 7-18c-2-2-12-7-15-7-17 2-26-1-39-11l-3-3-1-1-7-9v-1l-6-8-6-11zm306 119c6 0 6-2 6 3l1 1q7 4 10 12c2 2 12-4 12-4 4-5-14-12-16-16l-7-5-6-4-2-1-5-4-2-1q-3-2-7 1-2 3 0 6l1 2q3-1 3 5l2 1h2zm133 153-4-9c-4-28 39-82 55-104s44-53 71-58q7-1 13 1-5-15-22-14c-44 6-102 96-120 136-9 19-18 37 7 48m-7-81c0-5 0-14-5-18-26-19-66-6-92 5q-46 21-81 55c-13 13-28 35-12 51q0-7 2-13c6-16 26-32 39-42 28-21 90-56 126-51q12 1 19 10l2 3 2 3z"/><path fill="#5793f6" d="M258 468c5-15 21-48 30-60 9-14 25-33 35-46q40-51 82-99l29-34c6-7 14-18 22-22q11-5 22-1 11 5 18 15l19 19 64 70 36 40q-15 27-5 55 10 26 34 39c11 5 28 8 40 5l7 13q-14 8-3 21-7 9 3 17c-18 12-32 33-17 54l17 26a194 194 0 0 1-66 115c-13-10-23-17-41-15q-18 3-29 18c-14-27-44-29-68-15l-4 2v1q6-2 12-5 27-12 49 5l8 11c5 8 9 24 13 33 3 6 8 16 9 21q-31 4-54 25l-15-36-7-18h-1q-1 3 1 5l11 28-18 3a246 246 0 0 1-133-18l3-2c3-6-2-18-3-24s4-13 7-18c-2-2-12-7-15-7-17 2-26-1-39-11l-3-3-1-1-7-9v-1l-6-8-6-11-6-12-3-7q-7-16-11-32c-3-3-6-14-8-19v-1q-2-3-3-7c-7-32-6-50-3-81l1-2-3-1z"/><path fill="#89b2f8" d="M353 688q35 23 75 33l27 4c11 4 28 2 38 3v15l-3 9 1 1-2 3c-8 4-26 2-35 4q-50 1-96-20l3-2c3-6-2-18-3-24s4-13 7-18c-2-2-12-7-15-7z"/><path d="M385 600a44 44 0 0 1-15-35c0-18 9-43 30-44q4 0 7 4c10 5 15-6 23 12q6-1 11 4 3 3 3 8-1 7-7 11c5 19 10 39 0 57-11 20-61 65-84 70v1l-3 1c-17 2-26-1-39-11l-3-3-1-1-7-9v-1l-6-8-6-11-6-12-3-7q-7-16-11-32c-1-5-3-14-2-18q3 7 3 14 9 35 27 65c37 63 80 21 118-13 19-18 31-34 26-61l-5-21c3-3 8-7 7-11 0-12-15-12-22-5q-8 9-7 20v10l-1-1-1-12a27 27 0 0 1 17-24q-2-5-7-8c-13-5-25 9-29 19l-2 11-1 15c-2-4-2-12-1-16q2-19 19-30v-1q-3-3-7-4c-11 0-20 10-24 19-7 17-5 40 7 53l5 5-36 28-13 10-6-12c-4-7-19-44-18-52q2 2 2 5c4 15 14 43 23 56z"/><path fill="#e7ebf6" d="M258 468c1 1-2 9-2 11l-1 2v3l-3-1z"/><path d="M527 494q7 1 7 6c1 7-8 16-12 20a56 56 0 0 1-81-7q-5-3-5-11 1-8 9-4l6 8c17 22 50 20 67 0q4-6 9-12M655 491h1q7 1 7 7c-5 21-32 33-52 32a57 57 0 0 1-44-26c-4-13 6-14 12-5 15 23 49 25 66 4q5-6 10-12M585 568q10-1 6 9-9 10-23 13-21 5-39-7c-3-2-9-7-5-11 5-4 9 1 12 3 19 10 35 5 49-7"/><defs><linearGradient id="a" x1="685.3" x2="660.8" y1="320.8" y2="446.2" gradientUnits="userSpaceOnUse"><stop offset="0" stop-color="#fff"/><stop offset="1" stop-color="#fff"/></linearGradient></defs><path fill="url(#a)" d="M666 319h14l-6 1 3 2h-1v1h11l3-3a65 65 0 1 1-53 9c2 2 8 5 7 0l-3-2 4-2h1q3 4 7 3 3-3 6-5h2c7-1 5-2 5-4"/><defs><linearGradient id="b" x1="600.4" x2="598.6" y1="859.3" y2="753.5" gradientUnits="userSpaceOnUse"><stop offset="0" stop-color="#fff" stop-opacity=".9"/><stop offset="1" stop-color="#fff"/></linearGradient></defs><path fill="url(#b)" d="M539 765c17-9 50-22 63 1l2 6-9 11c-15-3-40 5-53 14-3 2-14 10-15 14 3-3 10-9 13-10v1l-4 3-4 5c2 3 3-2 6-2l3-4h2c5-1-1-3 3-5 1 0 3 3 6 1 3-4-3-4-4-4q10-6 20-9c2 1 13 0 12-2h13l-4 7c-2 3-9 19-8 21 2-2 5-14 8-19l11-14q16-19 41-22c5 1 14 0 18 3q4 2 8 0l6 2c-3 7 1 7 4 2l5 3-4 1h1l-1 1q2 0 4-1v2q1-1 2 1h-1l-1 3q2 3 4 2c0 7 4 3 4 5v2l-1 2-2 1-1 2-2 1q7 0 9 6-33-4-64 8v-1q-35 14-65 35l-12 9q14-14 32-23v-1l-17 10-32 27 1 3-4 4q-2-3-4-2c-4 2-2-4-3-6-2-6-4-1-5-4q0-10 4-19l3-10-1-2q-4-1-3-3l-1 2-6-4h3a1 1 0 1 0-1-1l-4-2c1-1 3-7 1-6l-1 2v-2q-1 0-2 3c0-2-1-7-3-7l-1 1q-2-7 1-14 2-1 3-4c2 5 6 3 2-2q3-2 2-4c4-6 16-14 22-18v2c1 2 6 2 6 0q0-3-5-2m-6 8 1-1q5 0 2-4-6 1-3 5m-10 6v-1zv1z"/><path fill="#fefefe" fill-opacity=".9" d="M536 768q3 4-2 4l-1 1q-3-4 3-5M522 778h1zh-1z"/><path fill="#5793f6" d="M689 482q-5-5-4-11 2-4 6-7c13-7 26 2 33 14 12 21-1 42-10 61 14 17 30 33 38 54 10 25-16 39-36 29l-7-3-1-9-1-2c0-5-22-43-27-48-19-22-11-45 13-59q3 2 5 1h1c-3-3-13-4-12-11q1-11 12-11c12 1 19 17 20 28v6c7-3-6-49-30-32M587 682c20-2 36 13 51 25l47 34q-12 6-20 17a66 66 0 0 0-44 3c-11-8-33-25-44-31l-8 3-13-33 2-3q12-13 29-15"/><defs><linearGradient id="c" x1="790.3" x2="719.5" y1="699.2" y2="847.2" gradientUnits="userSpaceOnUse"><stop offset="0" stop-color="#fff" stop-opacity=".9"/><stop offset="1" stop-color="#fff"/></linearGradient></defs><path fill="url(#c)" d="m778 703 6-2 3 1v2l6-1q4-1 6 1l6 2q1 2 4 3l5 5q2 2 4 2l-2 3c-3 5 1 3 3 5l-1 1-3-1-19 10v1q4-2 11-5v1c-14 7-27 23-37 35l-7 8h1c-13 17-23 30-34 48l-9 16-6 10-4-5 1-3c6-18 6-22-2-37l6 3 3-4 1-1 3-1h1l-1-10-1-1h1l1-1 1-20 3-12c2 0 2-6 3-7 2-1 7-16 9-14l2 1v-1l-1-1c2-5 3 0 3-7l4-5-1 4q-3 2-2 4l3 3q-1 0-1 2c1-1 13-14 15-14l3-3c1-4 6-1 3-6 6 0 2-6 9-4 3 1 11-1 6-3zm17 4q2-4-4-3v1q-1 3 4 2"/><path fill="#fefefe" fill-opacity=".9" d="M791 704q6-1 4 3-5 1-4-2z"/><path fill="#cad9f6" d="m244 580 1 4 1-2c1-1 2 2 3 0 1-1 0-6-1-6l-3 1 1-5q3 1 5 4v4c-2 3 4 3 6 2 3-1 1-4 3-7 2 5 5 16 8 19q4 16 11 32-4-1-3 5 0 3 3 5l3 6q3 0 2 2 1 5 4 10l18 22 4 4 2 2 3 1-1-1-2-3-1-1c13 10 22 13 39 11 3 0 13 5 15 7-3 5-8 12-7 18s6 18 3 24l-3 2c-37-18-73-50-92-88 1-1-6-13-7-16-2-6-15-37-14-42h2l-1-2q-3-5-2-12"/><defs><linearGradient id="d" x1="683.9" x2="701.7" y1="765.4" y2="745.8" gradientUnits="userSpaceOnUse"><stop offset="0" stop-color="#fff" stop-opacity=".7"/><stop offset="1" stop-color="#fff" stop-opacity=".7"/></linearGradient></defs><path fill="url(#d)" d="m683 744 8-4 8 3q4 3 4 5h1q5 3 7 8c-6 10 1 5 5 3q-2 1-2 4c-6 2-13 10-18 15-8-9-10-9-20-15q1-4-2-6-2-2-1-6l3-2h1q-2 5 3 3l1-2c1-2 6-2 6-3q-1-1-4-3m12 31c3 0 1-5-1-5l-4 1z"/><path fill="#fefefe" fill-opacity=".4" d="M694 770c2 0 4 5 1 5l-5-4z"/><path fill="#3d5380" d="m687 606 6-22 4 7c1 3 7 15 10 17l1 2 1 9-16-9h-1z"/><path fill="#163070" d="m687 606 6-22 4 7-2 7c-1 7 2 5-2 12h-1z"/><path fill="#fefefe" fill-opacity=".6" d="M682 768q19 13 27 35l-16-7q-2-6-9-6l2-1 1-2 2-1 1-2v-2c0-2-4 2-4-5q-2 1-4-2l1-3h1q-1-2-2-1v-2q-2 1-4 1l1-1h-1zm16 27 5 4 1-1c1 0-1-6-3-6z"/><path fill="#fefefe" fill-opacity=".1" d="M701 792c2 0 4 6 3 6l-1 1-5-4z"/><path fill="#fefefe" fill-opacity=".6" d="M784 701q15-3 28 1 2 2 0 3v2c2 2 8 1 8 1 2 2 1 3 5 4q3 3-2 3-3 3-1 5l5 1-8 3c-2-2-6 0-3-5l2-3q-2 0-4-2l-5-5q-3-1-4-3l-6-2q-2-2-6-1l-6 1v-2z"/><defs><linearGradient id="e" x1="713.6" x2="718.8" y1="791.4" y2="799.2" gradientUnits="userSpaceOnUse"><stop offset="0" stop-color="#fff" stop-opacity=".8"/><stop offset="1" stop-color="#fff" stop-opacity=".8"/></linearGradient></defs><path fill="url(#e)" d="m708 796 3-3c0-1 3-5 4-4 6 1 7-7 7-7l1 1v6h-1l1 1 1 10h-1l-3 1-1 1-3 4-6-3z"/><path fill="none" d="M812 702h1c11 5 18 7 26 17q-6 0-12 2l-5-1q-3-3 1-5 5 0 2-3c-4-1-3-2-5-4 0 0-6 1-8-1v-2q2-1 0-3"/><path fill="#fefefe" d="m536 863-1-3 32-27 17-10v1q-18 9-32 23l12-9q30-21 65-35v1c-36 15-65 32-93 59"/><defs><linearGradient id="f" x1="717.7" x2="703.3" y1="774.8" y2="780.6" gradientUnits="userSpaceOnUse"><stop offset="0" stop-color="#fff" stop-opacity=".2"/><stop offset="1" stop-color="#fff" stop-opacity=".4"/></linearGradient></defs><path fill="url(#f)" d="M701 784c4-3 2-4 4-6l9-6q1-3 0-4h1q1 4 4 4-5 1-2 4h6v1l-7 6h-3c-6 1-4 6-8 7v-4l-2 1z"/><path fill="#e7ebf6" fill-opacity=".4" d="m241 569-1-28 1 18q0-2 2 0 2 3 6 1c3-1 1 9 6 7h2q1 4 3 7c-7 2-4 1-9-5l-6-3q-4 0-4 2z"/><path fill="#fefefe" fill-opacity=".2" d="m715 764 4-1 5 2-1 7v-2l-1 2h-3q-3 0-4-4h-1q1 1 0 4l-9 6c-2 2 0 3-4 6l-1-2q3-1 2-4l1-1-2-1 3-3c2 6 1 3 6 0q8-3 0-6z"/><path fill="#e7ebf6" fill-opacity=".7" d="M241 573c2-4 1-3 5-3 7 0 4 2 8 7 3 3 5-1 6-3v1c-2 3 0 6-3 7-2 1-8 1-6-2v-4q-2-4-5-4l-1 5 3-1c1 0 2 5 1 6-1 2-2-1-3 0l-1 2-1-4-2-5v4z"/><path fill="#fefefe" fill-opacity=".5" d="M723 775v8l-1-1s-1 8-7 7c-1-1-4 3-4 4l-3 3-3-5v-1c4-1 2-6 8-7h3l7-6z"/><path fill="#fefefe" d="M764 774h-1l7-8c10-12 23-28 37-35v-1q-7 3-11 5v-1l19-10 3 1q-27 16-47 40z"/><defs><linearGradient id="g" x1="750" x2="754.3" y1="721.9" y2="726" gradientUnits="userSpaceOnUse"><stop offset="0" stop-color="#fff" stop-opacity=".8"/><stop offset="1" stop-color="#fff" stop-opacity=".9"/></linearGradient></defs><path fill="url(#g)" d="m757 720 4-4v2q-1 2 2 1l-1 2c-2 0-14 13-15 14q0-2 1-2l-3-3q0-2 2-4l1-4 3 1-1 1h1c1 1 5-3 6-4"/><path fill="#fefefe" fill-opacity=".6" d="m778 703 5 2c5 2-3 4-6 3-7-2-3 4-9 4-5-1-2 2-7 4l-4 4-4-2 5-6 2 3q5 0 2-5l2-1c1 3 6 2 4-2l4-2 4 2h4q0-1-2-4"/><path fill="#e7ebf6" fill-opacity=".6" d="M279 636q-1-4 3-3l6 12 6 11c-6-1-2-5-5-5l-1 3q-3-5-4-10 1-2-2-2z"/><path fill="#fefefe" fill-opacity=".6" d="M645 325q9-4 21-6c0 2 2 3-5 4h-2q-3 2-6 5-4 1-7-3z"/><path fill="#e7ebf6" d="M242 579v-4l2 5q-1 7 2 12l1 2h-2c-1 5 12 36 14 42 1 3 8 15 7 16q-19-34-24-73"/><path fill="#fefefe" fill-opacity=".7" d="m586 738 2 1-1 3c-1 2 0 9 1 10l-8-4h-2a2 2 0 1 0-2-3c2-4 11 1 5-5z"/><path fill="#fefefe" fill-opacity=".3" d="m588 739 6 4c-5 5-2 6 0 8l1 5-1-1c0-5 0-3-6-3-1-1-2-8-1-10z"/><path fill="#fefefe" fill-opacity=".6" d="M241 569zq0-2 4-2l6 3c5 6 2 7 9 5-1 2-3 6-6 3-4-5-1-7-8-7-4 0-3-1-5 3z"/><path fill="#fefefe" fill-opacity=".5" d="m712 746 5 6-2 2-1-3c-4 10 1 10 2 5v3c-4 2-11 7-5-3q2-6-2-7l1-1q2 0 2-2"/><path fill="#e7ebf6" fill-opacity=".4" d="m288 654 1-3c3 0-1 4 5 5l6 8v1q-3-2-4 0z"/><path fill="#fefefe" d="M573 742q3-1 3 5l2 1h2l8 4c6 0 6-2 6 3l-9-3-9-1z"/><path fill="#e7ebf6" fill-opacity=".2" d="M296 665q1-2 4 0l7 9-1 2q-6-4-10-11"/><path fill="#fefefe" d="m508 807 1-1c2 0 3 5 3 7l2 3 4 2 1 1h-3l6 4 1-2q-1 2 3 3l1 2q-15-4-19-19"/><path fill="#fefefe" fill-opacity=".3" d="m709 743 3 3q1 2-2 2l-1 1q4 1 2 7-2-5-7-8 1-3 5-5"/><path fill="#fefefe" fill-opacity=".7" d="M673 751q-1 4 1 6 3 1 2 6l-6-3q2-3-2-1c-3-1 4-6 5-8"/><path fill="#fefefe" fill-opacity=".8" d="m540 800 8-4c1 0 7 0 4 4-3 2-5-1-6-1-4 2 2 4-3 5q2-3-1-3z"/><defs><linearGradient id="h" x1="707.7" x2="709.4" y1="770.4" y2="772.1" gradientUnits="userSpaceOnUse"><stop offset="0" stop-color="#fff" stop-opacity="0"/><stop offset="1" stop-color="#fff" stop-opacity=".1"/></linearGradient></defs><path fill="url(#h)" d="M710 767q8 3 0 6c-5 3-4 6-6 0z"/><path fill="#fefefe" fill-opacity=".7" d="M691 740h5c5 2 5 3 10 2l3 1q-4 2-5 5h-1q0-3-4-5z"/><path fill="#fefefe" d="M744 727c0 7-1 2-3 7l1 1v1l-2-1c-2-2-7 13-9 14-1 1-1 7-3 7 1-7 11-24 16-29"/><path fill="#e7ebf6" fill-opacity=".8" d="m279 626 3 7q-4-1-3 3-3-2-3-5-1-5 3-5"/><path fill="#fefefe" fill-opacity=".8" d="M680 319h5c-5 2-1 5 3 1h2l-3 3h-11v-1h1l-3-2zM578 737q2 0 3 3c6 6-3 1-5 5v2q0-6-3-5l-1-2q5 1 6-3"/><path fill="#fefefe" fill-opacity=".7" d="M683 744q3 1 4 3c0 1-5 1-6 3l-1 2q0-5-3-3h-1z"/><path fill="#fefefe" d="M641 758c7-1 19 0 26 3q-4 2-8 0c-4-3-13-2-18-3M715 754l2-2 2 11-4 1-1-1q0-3 2-4v-3z"/><path fill="none" d="m581 734 5 4-5 2q-2-3-3-3l1-2z"/><path fill="#fefefe" fill-opacity=".9" d="M761 716c5-2 2-5 7-4 3 5-2 2-3 6l-3 3 1-2q1-3-2-2z"/><path fill="none" d="M719 772h3l1-2v6h-6q-3-3 2-4"/><path fill="#fefefe" fill-opacity=".8" d="m748 722 5-4 4 2c-1 1-5 5-6 4h-1l1-1z"/><path fill="#fefefe" fill-opacity=".4" d="m772 705 5-2h1q2 3 2 4h-4z"/><path fill="#fefefe" fill-opacity=".9" d="M538 765zq5-1 5 2c0 2-5 2-6 0z"/><path fill="#fefefe" fill-opacity=".8" d="m637 329 4-2 3 2c1 5-5 2-7 0"/><path fill="none" d="m701 776 2 1-1 1q1 4-2 4-3-3 1-6"/><path fill="#fefefe" fill-opacity=".3" d="M716 756c-1 5-6 5-2-5l1 3z"/><path fill="#fefefe" fill-opacity=".7" d="m673 763 4 2c-3 5-7 5-4-2"/><defs><linearGradient id="i" x1="537" x2="539.3" y1="806.5" y2="803.8" gradientUnits="userSpaceOnUse"><stop offset="0" stop-color="#fff" stop-opacity=".8"/><stop offset="1" stop-color="#fff" stop-opacity=".9"/></linearGradient></defs><path fill="url(#i)" d="M540 800zv3l-3 4q-2-1-2-3l4-3z"/><path fill="#fefefe" d="m568 787 12-2c1 2-10 3-12 2M516 783q1 2-2 4l-2 2q-1 3-3 4z"/><path fill="#fefefe" fill-opacity=".4" d="m758 712 4-2q3 5-2 5zM576 745a2 2 0 1 1 4 2 2 2 0 0 1-4-2"/><path fill="#cad9f6" fill-opacity=".4" d="m307 674 1 1q3 2 2 5l-4-4z"/><path fill="#fefefe" fill-opacity=".9" d="M538 808c-3 0-4 5-6 2l4-5q0 2 2 3"/><path fill="#fefefe" fill-opacity=".7" d="M512 813q1-3 2-3v2l1-2c2-1 0 5-1 6z"/><path fill="#fefefe" fill-opacity=".9" d="M514 787c4 5 0 7-2 2z"/><path fill="#fefefe" fill-opacity=".6" d="M696 740q5 0 10 2c-5 1-5 0-10-2"/><path fill="#cad9f6" fill-opacity=".7" d="m308 675 3 3 1 1 2 3h-2l-2-2q1-2-2-5"/><path fill="#fefefe" fill-opacity=".4" d="m764 709 4-2c2 4-3 5-4 2"/><path fill="#fefefe" fill-opacity=".5" d="m685 319 3 1c-4 4-8 1-3-1"/><path fill="#fefefe" fill-opacity=".1" d="m252 483 3 1-1 2v-1q0 3-3 2z"/><path fill="#fefefe" fill-opacity=".5" d="M677 749q3-1 3 3-5 1-3-3"/><path fill="#fefefe" fill-opacity=".8" d="M541 801zq3 0 1 3h-2z"/><path fill="#fefefe" d="M761 717q3-1 2 2-3 1-2-1z"/><path fill="#fefefe" fill-opacity=".3" d="m703 787 2-1v4z"/><path fill="#fefefe" fill-opacity=".9" d="M518 818a1 1 0 1 1 2-1 1 1 0 0 1-2 1"/><path fill="#cad9f6" fill-opacity=".6" d="M312 682h2l1 1z"/><path fill="#fefefe" fill-opacity=".6" d="M668 759q4-2 2 1z"/><path fill="none" d="M714 824v3l-2-3z"/><path d="M504 141h12q22 2 35 20c13 16 13 29 10 48q8 15-9 19l-26-11-26-12-25-10-17-9c-8-8-3-18 8-19q12-23 38-26"/><path fill="#5793f6" d="M505 142c23-3 47 14 54 36q4 15 0 30l-23-11-59-26-10-4c10-15 19-22 38-25"/><path fill="#0322db" d="M462 169a1915 1915 0 0 1 77 31l17 8q13 9 0 17h-8l-85-38-6-3q-2-3-1-7 1-5 6-8"/><path fill="#163070" d="M428 89c6-1 30-2 33 1q3 1 2 4c1 5-20 26-24 31 9 1 31-4 23 9-8 2-23 0-32 0q-3 0-4-4 0-6 5-11l18-21h-9c-6 2-21-1-12-9"/><path d="m858 736 2 9q3 14-2 27-1-5 1-11c3-9-2-16-1-24z"/><path fill="#fefefe" d="M721 760q2-4 5-3v1l-2 5q-3 0-3-3"/></svg>