<svg xmlns="http://www.w3.org/2000/svg" width="1024" height="1024" viewBox="0 0 1024 1024"><path fill="#0f64f5" d="m381 268 12-16 23-26q59-65 138-104l17-8 2 2-6 16q-6 24-4 48c4 40 22 66 47 95 12 16 28 32 40 49 11 15 26 34 34 51 13 23 23 65 22 92l-1 9c0 8-4 24-6 32l-9 19q-12 30-33 54-34 40-82 61l-25 10v1c-8 5-46 7-57 7h-1v7l-69 4q2-12 1-25c-31-17-53-30-75-58-1-1-18 8-24 9q-15 3-31 0c-27-4-55-31-63-58q-20-4-19-25a61 61 0 0 1-23-74q6-13 21-18 7-18 27-19l1-1q6-9 16-10 13-3 23 5c11 7 12 17 14 28 7 3 9 5 14 10 1-12 6-39 10-51 13-40 37-85 66-116m-75 214q12-24-1-47c-5-5-7-7-14-10-2-11-3-21-14-28q-10-8-23-5a25 25 0 0 0-17 11q-20 1-27 19-15 5-21 18c-12 28-1 58 23 74q-1 21 19 25c8 27 36 54 63 58q16 3 31 0c6-1 23-10 24-9l11-11q20-19 30-45h-2c-2 1-5 9-6 11-10 19-26 41-47 49q-27 10-55-1c-17-6-35-25-42-42 14-1 36-10 47-19 8 10 23 19 36 13 13-7 25-23 30-37v-3l-6 10c-5 10-14 22-24 27q-7-17-12-37zm305-148c-50 4-59 77-25 105q13 11 29 10c51-7 59-81 21-108q-11-8-25-7m-105 4q-8 1-14 5c-38 21-38 85 0 105q13 6 25 5c54-9 57-101 4-115zm108 124q-7 2-15 7-26 13-54 6c-15-4-31-17-46-8-13 8-9 25-4 37q7 20 23 36 24 20 54 16 30-5 48-29c10-13 19-31 18-48q-4-19-24-17"/><path fill="#113bd9" d="M390 532v-3h1c69 83 168 105 264 52h2q-34 40-82 61l-25 10v1c-8 5-46 7-57 7h-1v7l-69 4q2-12 1-25c-31-17-53-30-75-58l11-11q20-19 30-45"/><path fill="#000001" d="M492 660c-12 1-30-2-42-5-3-1-22-6-24-9l1-1 26 9q17 4 36 4zM237 403zq6-9 16-10 13-3 23 5c11 7 12 17 14 28 7 3 9 5 14 10q13 23 1 47c-5 9-8 12-16 19 6 9 1 17-6 24 8 11 23 24 37 15 10-5 19-17 24-27l6-10v3c-5 14-17 30-30 37-13 6-28-3-36-13-11 9-33 18-47 19 7 17 25 36 42 42q28 11 55 1c21-8 37-30 47-49 1-2 4-10 6-11h2q-10 25-30 45l-11 11c-1-1-18 8-24 9q-15 3-31 0c-27-4-55-31-63-58q-20-4-19-25a61 61 0 0 1-23-74q6-13 21-18 7-18 27-19m18 65-6 8 2 4 2 8q1 4-2 4c-1-6 0-7-3-15q-14 9-26 1 3-12-4-21l-5-5 1-1 3 2 7 9v14q1-2 4-1l10 2v2l5-2c5-3 15-13 11-19q-2-6-2-12-5-10-14-17c-16-10-37-7-47 11-14 27 1 66 29 76l10 4q-9 0-16-4 1 21 23 20c15 1 61-9 53-33l-1-1c-3 2-11 7-14 7v-1l10-6q18-13 24-33c2-9 2-22-4-30-11-17-25-13-40-4-23 14-6 39 16 25q4-3 9-5c-2 4-11 9-15 10q-10 3-19-3zm-43-46q26-3 40 19l1 2c2 0 5-6 7-7l11-7q-9-24-37-23-15 1-22 16m27-19c27 2 32 24 34 25q7-3 16-3 0-18-14-27-10-6-20-4-10 1-16 9"/><defs><linearGradient id="a" x1="255.7" x2="232.2" y1="421" y2="535.4" gradientUnits="userSpaceOnUse"><stop offset="0" stop-color="#fff" stop-opacity="0"/><stop offset="1" stop-color="#fffffe" stop-opacity=".1"/></linearGradient></defs><path fill="url(#a)" d="M214 516q7 4 16 4l-10-4a58 58 0 0 1-29-76c10-18 31-21 47-11q9 7 14 17 0 6 2 12h-2c-3 0-3 4-7 1q-4-4-3-10-2-6-9-7-8 0-13 6-1 4-3 5l-3-2-1 1 5 5q7 9 4 21 12 8 26-1c3 8 2 9 3 15l2 2-1 2-1 2-1 1h1v1h1l2-4 1-1 3-2q0-2-1-3c0-2 3 3 4 2q0-4-2-5-2-4 4-4 3 0 5-1v-1h1v-2h6l-3-2c-1-2-6-1-6-2l1-1-2 1q-3 1-7 0l-1-1h-4v-1q1 0 2-5l1-6q9 6 19 3c4-1 13-6 15-10q-5 2-9 5c-22 14-39-11-16-25 15-9 29-13 40 4 6 8 6 21 4 30q-6 20-24 33l-10 6v1c3 0 11-5 14-7l1 1c8 24-38 34-53 33q-22 1-23-20m-3-12h13l-5-1c0-5 7-7-1-11-4-2-11-5-10 3q2 5 6 7h1c4 2-1 2-1 1l-3-1c0-4-4-3-5-5l-2-2q-3-1-2-4l-1-2v5zm55-43q6 0 8-4 3-5-2-6-13 1-6 10m-1 29q3-4-2-5-2 4 2 5m-34 41q4-2 1-5-3 2-1 5"/><path fill="#fefefe" fill-opacity=".3" d="m201 489 1 2q-1 3 2 4l2 2c1 2 5 1 5 5l3 1c0 1 5 1 1-1h-1q-4-2-6-7c-1-8 6-5 10-3 8 4 1 6 1 11l5 1h-13l-10-10z"/><defs><linearGradient id="b" x1="271.8" x2="265.7" y1="450.8" y2="459.3" gradientUnits="userSpaceOnUse"><stop offset="0" stop-color="#fff" stop-opacity=".1"/><stop offset="1" stop-color="#fff" stop-opacity=".2"/></linearGradient></defs><path fill="url(#b)" d="M272 451q5 1 2 6-2 4-8 4-7-9 6-10"/><path fill="#fefefe" fill-opacity=".3" d="M263 485q5 1 2 5-4-1-2-5"/><path fill="#fefefe" fill-opacity=".2" d="M232 526q3 3-1 5-2-3 1-5"/><defs><linearGradient id="c" x1="243.8" x2="225" y1="453.6" y2="464.7" gradientUnits="userSpaceOnUse"><stop offset="0" stop-color="#fffffe" stop-opacity=".2"/><stop offset="1" stop-color="#fffffe" stop-opacity=".4"/></linearGradient></defs><path fill="url(#c)" d="M220 448q5-6 13-6 7 1 9 7-1 6 3 10c4 3 4-1 7-1l-2 2v2l1 4-4 1q-2 3-3 3l-2 2v2l1 3-5 2v-2l-10-2c1-4 3-9-4-10v-1c3 0 1-5 0-2l-7-9q2-1 3-5"/><path fill="#fefefe" fill-opacity=".2" d="M251 480c4-7 5 2 12-1h6v2h-1v1q-2 1-5 1-6 0-4 4 2 1 2 5c-1 1-4-4-4-2q1 1 1 3l-3 2-1 1-2 4h-1v-1h-1l1-1 1-2 1-2-2-2q3 0 2-4z"/><path fill="#fefefe" fill-opacity=".1" d="m249 476 6-8q-1 5-2 5v1h4l1 1q3 2 7 0l2-1-1 1c0 1 5 0 6 2l3 2h-12c-7 3-8-6-12 1zM252 458h2c4 6-6 16-11 19l-1-3v-2l2-2q1 0 3-3l4-1-1-4q6 1 0-2z"/><path fill="#fefefe" fill-opacity=".7" d="M224 465c7 1 5 6 4 10q-3-1-4 1z"/><path fill="#fefefe" d="M224 476q1-2 4-1l10 2v2q-8 1-14-3"/><path fill="#fefefe" fill-opacity=".3" d="M250 460q6 3 0 2zM224 462c1-3 3 2 0 2z"/><path fill="#113bd9" d="M305 435c1-12 6-39 10-51 13-40 37-85 66-116 0 8-7 19-10 26l-7 20q-35 93 6 183l-19 6-6 10c-5 10-14 22-24 27q-7-17-12-37l-3-21q12-24-1-47"/><path fill="#000001" d="M614 462q20-2 24 17c1 17-8 35-18 48a72 72 0 0 1-48 29q-30 4-54-16a93 93 0 0 1-23-36c-5-12-9-29 4-37 15-9 31 4 46 8q29 7 54-6 7-5 15-7m-8 76a87 87 0 0 0-42-35c0-4-5-2-7-1a65 65 0 0 0-54 13c3 13 19 26 30 32q25 13 51 4 13-3 22-13"/><path fill="#000001" d="M557 502c2-1 7-3 7 1zM506 338h15c53 14 50 106-4 115q-12 1-25-5c-38-20-38-84 0-105q6-4 14-5m27 34h8q9 3 15 11l-1-4a54 54 0 0 0-11-23l-4-4-2-2q-8-8-20-10c-6-2-17 0-22 3l-8 4-3 3-5 5-4 5-4 9q-11 25-1 52 10 23 33 29l13 1 6-2q7-1 13-6 14-11 18-28v-2q-10 12-24 7l-1-1q2-3 2-7-5-6-10-1h-1l-1-3c-6-13-1-32 14-36"/><defs><linearGradient id="d" x1="535.9" x2="485.7" y1="396.1" y2="392.1" gradientUnits="userSpaceOnUse"><stop offset="0" stop-color="#fffefe" stop-opacity=".5"/><stop offset="1" stop-color="#fefefd" stop-opacity=".7"/></linearGradient></defs><path fill="url(#d)" d="m498 357 1-1 1 2c1 2 6-3 8-3 5-2 2-2 2-5l-1-3h4l6 1q4-2 4 2c1 1 6 0 7-1q1 3 4 3c3 7 9 11 3 16l-4 4c-15 4-20 23-14 36-9 1-9 10-5 16-1 1 5 6 5 0v-5l-1 22-2 1-4-1h1l-1-2c-1 1 0 5-3 3q0-2 2-4c5 1-2-7-4-8l-3-1-2-2-5-2q-2-4-6-5c-9-18-7-40 2-58l2-3 1-1z"/><path fill="#d7d7ee" fill-opacity=".9" d="M485 359c1 0 6-7 7-3l-2 2q-5-1-1 3-1 1-1 4 0-3 3-5c3-1-2 4-1 6q1-2 3-5v1c-9 18-11 40-2 58v1l4 7 4 5 3 4 7 7-11 1c-2 1 5 5 6 5q-23-6-33-29-10-27 1-52c0 6 3 3 4-1zm2 78c2-2-3-1-3-4l-4-4-4-5 1 5s5 10 6 7q2 0 4 1"/><path fill="#d7d7ee" fill-opacity=".9" d="m476 424 4 5 4 4c0 3 5 2 3 4q-2-1-4-1c-1 3-6-7-6-7z"/><path fill="#dbdcf0" fill-opacity=".3" d="m519 408 1 3q-1 8 3 16l2 5 1 5q-2 2-3 1 1 2 4 2l3-2h3q-4 4-9 5l-3 1-7 1c-4 2 0 1-2 4v1l5 1-13-1c-1 0-8-4-6-5l11-1-7-7 2 1 1-2-2-2 2-2 6 6q-3 2-2 4c3 2 2-2 3-3l1 2h-1l4 1 2-1h1v-22 5q-3-3 0-7c2-5-2-5 0-9"/><path fill="#fefefe" fill-opacity=".3" d="m502 345 3-1 2-1h3l1 1 3 1h8q3 1 5 3l2 1 3 1q4 1 7 3l3 3h2l2 2q-2 4-1 7c1 3-4 5-4 7h-1l-1-1 5-5-1-7-9-7q-3 0-4-3c-1 1-6 2-7 1q0-4-4-2l-6-1h-4l1 3c0 3 3 3-2 5-2 0-7 5-8 3l-1-2-1 1 4-5c0-1 7-6 6-7z"/><path fill="#d7d7ee" fill-opacity=".1" d="M496 343c5-3 16-5 22-3h-1l2 1-2 1 3 1 4 1 3 3 9 4 4 1 4 4h-2l-3-3q-3-1-7-3l-3-1-2-1q-2-2-5-3h-8l-3-1-1-1h-3l-2 1-3 1-5 3c-5 0-11 7-12 2l3-3q4 2 8 1z"/><path fill="#fefefe" fill-opacity=".4" d="M519 424c0 6-6 1-5 0-4-6-4-15 5-16-2 4 2 4 0 9q-3 4 0 7"/><path fill="#d7d7ee" fill-opacity=".9" d="M484 358c4-5 7-4 10-8q4 0 8 2l-4 5-2 1-1 1-2 3v-1q-1 3-3 5c-1-2 4-7 1-6q-3 2-3 5 0-3 1-4-4-4 1-3l2-2c-1-4-6 3-7 3z"/><defs><linearGradient id="e" x1="533.9" x2="529.1" y1="430.8" y2="433.2" gradientUnits="userSpaceOnUse"><stop offset="0" stop-color="#fff" stop-opacity="0"/><stop offset="1" stop-color="#fff" stop-opacity=".1"/></linearGradient></defs><path fill="url(#e)" d="M521 415c6 6 5 11 12 14q5 4 0 9h-3q2-1-1-3c-3 2-1-5-3-8z"/><path fill="#fefefe" fill-opacity=".5" d="m534 352 9 7 1 7-5 5 1 1h-7l4-4c6-5 0-9-3-16M495 428c5-2 6 4 12 2 2 1 9 9 4 8l-6-6-2 2-4-1z"/><path fill="#dbdcf0" fill-opacity=".7" d="m476 360 1 2 7-4 1 1-9 9c-1 4-4 7-4 1z"/><path fill="#fefefe" fill-opacity=".2" d="M520 411zv4l5 12c2 3 0 10 3 8q3 2 1 3l-3 2q-3 0-4-2 1 1 3-1l-1-5-2-5q-4-8-3-16"/><path fill="#dbdcf0" fill-opacity=".4" d="m497 348 5-3q-2 4-6 5h-2c-3 4-6 3-10 8l-7 4-1-2 4-5c3 4 5 0 9-2z"/><path fill="#fefefe" fill-opacity=".6" d="M491 420q4 1 6 5l5 2 2 2 3 1c-6 2-7-4-12-2z"/><path fill="none" d="m517 451-5-1v-1c2-3-2-2 2-4l7-1-4 1-1 2c0 2 5-1 7 2z"/><path fill="#d2d3ef" fill-opacity=".9" d="M502 345h6c1 1-6 6-6 7q-4-2-8-2h2q4-1 6-5"/><path fill="#d7d7ee" fill-opacity=".3" d="M485 350c1 5 7-2 12-2l-8 5c-4 2-6 6-9 2z"/><path fill="none" d="M496 343v5q-4 1-8-1z"/><path fill="#fefefe" fill-opacity=".3" d="m499 433 4 1 2 2-1 2-2-1z"/><path fill="#fefefe" fill-opacity=".1" d="M524 344c4-1 3 4 7 4l5 2h2l2 2-4-1-9-4z"/><path fill="#000001" d="M611 334q14-1 25 7c38 27 30 101-21 108q-16 1-29-10c-34-28-25-101 25-105m19 35 3-1h8q9 0 14 7v1l1 1c-4-16-13-32-29-38a36 36 0 0 0-31 1l-4 2-5 4-3 3a66 66 0 0 0-8 75l1 1q10 19 32 22h7l6-2h1q27-10 33-38l-6 6q-8 5-17 3l-3-1 2-4c1-5-5-9-9-5h-2l-1-2c-5-13-3-28 10-35"/><defs><linearGradient id="f" x1="626.1" x2="587.8" y1="385.1" y2="382.9" gradientUnits="userSpaceOnUse"><stop offset="0" stop-color="#fefefd" stop-opacity=".7"/><stop offset="1" stop-color="#fefefe" stop-opacity=".9"/></linearGradient></defs><path fill="url(#f)" d="m613 341 2-1 9 1q0 2 2 5c8 4-1 7-3 12 0 0-3 3 0 3l2 1q-2 3-1 5 2 3 6 1v1c-13 7-15 22-10 35h-3q3 7-1 14l-8 6-6 2-3 1-2-2h-1a64 64 0 0 1-7-51l3-8q3-4 3-8 5-9 15-15z"/><path fill="#dbdcf0" d="M584 349c0 6 0-1 3-1h1v1c-1 2-6 7-5 8l4-2q5-4 8-7 1-5 5-2l1 2c-1 5-5 4-6 10q0 4-3 8l-3 8a64 64 0 0 0 8 51l3 4 7 8c-3 6-3-1-7 1q-3 2-5-1l-4-1-3-3-6-7c-1-2-4-7-5-4l-1 2a66 66 0 0 1 8-75"/><defs><linearGradient id="g" x1="624.2" x2="610.7" y1="437.3" y2="427.1" gradientUnits="userSpaceOnUse"><stop offset="0" stop-color="#fffffe" stop-opacity=".4"/><stop offset="1" stop-color="#fffefc" stop-opacity=".5"/></linearGradient></defs><path fill="url(#g)" d="M621 406h1c-3 3 2 9 4 11l1 9v8q0 2-1 5h-2q-4 0-9 2l-4-1h-2q1-2-2-3l-7-8 10-1 8-7c4-3-1-15 3-15"/><path fill="#dbdcf0" fill-opacity=".5" d="M604 337q12-3 23 2l1 4 7 6c8 9 10 8 0 13 0 0-4 5-2 6l-3 1v-1c-6-3-3-3-3-8 0-6 9-6 6-11-4-5-8-3-8-9h-9z"/><path fill="#d7d7ee" fill-opacity=".7" d="m596 340 8-3 12 3h9c0 6 4 4 8 9 3 5-6 5-6 11 0 5-3 5 3 8q-4 3-6-1-1-3 1-5l-2-1c-3 0 0-3 0-3 2-5 11-8 3-12q-2-3-2-5l-9-1-2 1c-3 0-8-3-10 0 0 1 3 2-4 2q0-2-3-3"/><path fill="#fefefe" fill-opacity=".1" d="M626 417c-2-2-7-8-4-11q5 5 7 11c-1 6 7 4 9 6v5l-1-1q-4-1-6 3l1 4q-3 3-6 5 1-3 1-5v-8z"/><path fill="#d2d3ef" fill-opacity=".9" d="M599 343c7 0 4-1 4-2 2-3 7 0 10 0l-1 1-2 1q-10 6-15 15c1-6 5-5 6-10l-1-2q-4-3-5 2-3 4-8 7l-4 2c-1-1 4-6 5-8v-1h-1c-3 0-3 7-3 1l3-3q2 3 5 1 3-3 7-4"/><path fill="#fefefe" fill-opacity=".7" d="m597 425 2 2 3-1 6-2 8-6q4-7 1-14h3l1 2c-4 0 1 12-3 15l-8 7-10 1z"/><path fill="#d7d7ee" fill-opacity=".8" d="m576 424 1-2v1l4 5 1 1 4 5q4 6 5 2l4 1q2 3 5 1c4-2 4 5 7-1q3 1 2 3l-8 1c-2 2 6 5 8 6q-22-4-32-22z"/><path fill="#fefefe" fill-opacity=".1" d="M629 417q0 1 2 3l6 1c7-1 3 8 1 9-5 2-3 3-6 5l-4 4q-4 1-7 4l2 2h-1q-4 3-5-2c0-2 6-3 7-4h2q3-2 6-5l-1-4q2-4 6-3l1 1v-5c-2-2-10 0-9-6"/><path fill="#d2d3ef" fill-opacity=".4" d="M609 440h2l-1 1 6 6h-7c-2-1-10-4-8-6z"/><path fill="#d2d3ef" fill-opacity=".4" d="m611 440 4 1q4-2 9-2c-1 1-7 2-7 4q1 5 5 2l-6 2-6-6z"/><path fill="#d7d7ee" fill-opacity=".5" d="M596 340q3 1 3 3-4 1-7 4-2 2-5-1l5-4q2 2 4 1z"/><path fill="#dbdcf0" fill-opacity=".4" d="m582 426 6 7-2 1-4-5-1-1z"/><path fill="#dbdcf0" fill-opacity=".7" d="M577 422c1-3 4 2 5 4l-1 2-4-5zM588 433l3 3q-1 4-5-2z"/><path fill="#d7d7ee" fill-opacity=".4" d="m592 342 4-2v3q-2 1-4-1"/><path fill="#f77b9e" d="M431 439a40 40 0 1 1 9 81 40 40 0 0 1-9-81M704 471a31 31 0 1 1-62-8 31 31 0 0 1 62 8"/><path fill="#75a7f7" d="M467 207q6 0 8 4c3 6-3 10-7 14l-8 7q-10 10-18 22-36 41-49 94 0 3-4 4c-17 0-3-30 0-38a293 293 0 0 1 78-107M524 164l6 4q2 2 1 4c0 7-21 18-25 24q-2 3-6 4c-10-1-11-11-3-16 9-5 18-15 27-20"/><path fill="#000001" d="M734 402q-2-15 8-25 9-9 22-11 14 0 22 10c11 1 25 6 28 17q10 3 17 11c19 26 9 61-14 79 5 14-6 23-18 26-5 19-22 41-38 51-29 18-59 15-90 7q-17 24-39 42l-18 14 8 8-14 10q-18 15-37 29l-21-17v-1l25-10a214 214 0 0 0 115-115l9-19q0 7-4 13c9 3 27 5 36-1 7-4 12-13 16-19q-12-9-8-24-18-13-24-35c-2-17 1-32 19-40m68 46c-2-13-2-22 12-27-11 11-13 11-10 28q-11 9-24 1l-5 15v-1q-1-8 3-15-6-4-9-12c-10 7-27 5-33-5l11 6c17 8 33-8 19-22-6-7-19-12-28-13q-7 2-12 6c-22 23-3 60 20 70l10 5v1c-4 0-12-5-15-7-5 15 7 23 20 26 14 4 33 7 46 0q10-6 9-17c-3-4-11 5-15 4l-1-1 12-6c19-11 29-33 27-55-2-20-15-37-36-34q-23 4-31 25 2 9-2 16 11 23 32 12m-41-80q-26 7-26 34h1q8 0 15 2l2-4c6-15 15-20 30-24q-9-9-22-8m-8 37q11 4 18 13l4-9q14-18 37-16-6-10-17-14h-12q-23 4-30 26"/><path fill="#0f64f5" d="m749 502 16 12 22 16q-5 9-12 17a85 85 0 0 1-65 25c-16-1-23-3-38-7 10-15 15-25 23-42 26 5 40 4 54-21"/><path fill="#000001" d="M568 754c15 13 23 19 44 19 3-1 10-2 13-1l-12 12q3 14-6 24l1 7q11-3 22-1 17 5 27 21 8 15 3 31 8 10 5 21-4 10-14 13c-25 11-55 4-79-7q-8-4-17-10l-11-1c-16-4-40-11-47-28q-3-9 0-18 5-11 14-15l2-12q8-20 27-32 2-15 16-19 7 0 12-4m38 62-1-6c-24 11-49 4-62-19q-3-5-3-11-13 9-21 20-7 14-4 29c6 18 36 34 53 38q5 4 11 6c10 5 25 7 35 8 11 1 30-1 39-8q7-8 7-17c2-8-5-21-10-27q-8-7-17-12c-29-11-47 19-54 19v-1c5-6 21-16 27-19m53 53c-5 8-8 9-17 12h-1q-32 7-62-5l-11-6-11-4-4-2-12-6-4-2-9-7-2-1-8-9h-1q-2-1-4-4l-6-6c-3 0-3 4-3 4l-1-1c-3 0-6 13-5 17l3 7c6 12 31 22 43 23 16 2 16 6 29 13 23 11 55 17 78 6q9-4 12-12 3-9-4-17m-48-82c-15 10-33 7-45-8-6-9-1-18-3-20h-3q-10 2-15 9c-9 14 2 31 15 38q19 12 40 4 14-8 11-23"/><path fill="#113bd9" d="M568 754c15 13 23 19 44 19 3-1 10-2 13-1l-12 12-9 4c-13 7-31 0-37-12-5-9-2-14 1-22"/><defs><linearGradient id="h" x1="583.5" x2="572.8" y1="849.3" y2="893.3" gradientUnits="userSpaceOnUse"><stop offset="0" stop-color="#d3d3ee"/><stop offset="1" stop-color="#d8d9f1"/></linearGradient></defs><path fill="url(#h)" d="m501 856-3-7c-1-4 2-17 5-17l1 1s0-4 3-4l6 6q2 3 4 4h1l8 9h-2l-1 1q2 7 5 0l9 7q-3 6 4 2l12 6c-4 5 1 5 4 2l11 4 11 6q30 11 62 5c3 5 12 1 1 0 9-3 12-4 17-12q7 8 4 17-3 8-12 12c-23 11-55 5-78-6-13-7-13-11-29-13-12-1-37-11-43-23m129 32q4-2 0-3h-16q-2 0-2 2z"/><path fill="#d7d7ee" fill-opacity=".7" d="M614 885h16q4 1 0 3l-18-1q0-2 2-2"/><path fill="#d7d7ee" d="M519 800q8-11 21-20 0 6 3 11c-2 6-2 18-1 24q6 26 31 39c24 14 52 20 78 7l9-5q0 9-7 17c-9 7-28 9-39 8-10-1-25-3-35-8q-6-2-11-6v-1l-4-1-22-10c-3-5-13-8-18-13-3-4-3-4-4-9l-3-2v-6l-1 3h-1c0-9-1-12 2-20l2-5 1 3zm11-7q2-2 6-5 2-2 0-4-6 4-2 2c1 1-3 5-4 7"/><path fill="#d7d7ee" fill-opacity=".8" d="M536 784q2 2 0 4-4 3-6 5c1-2 5-6 4-7q-4 2 2-2"/><path fill="#d7d7ee" d="m519 800 1 6-1-3-2 5c-3 8-2 11-2 20h1l1-3v6l3 2c1 5 1 5 4 9 5 5 15 8 18 13l22 10 4 1v1c-17-4-47-20-53-38q-3-15 4-29M512 824v3q1 7 6 12h-1q-2-1-4-4l-6-6c-3 0-3 4-3 4l-1-1c-3 0-6 13-5 17l3 7q-5-8-3-17 3-10 12-15z"/><path fill="#d7d7ee" fill-opacity=".8" d="M528 849q-3 8-5 0l1-1h2z"/><path fill="#d7d7ee" fill-opacity=".9" d="m553 864 4 2c-3 3-8 3-4-2"/><path fill="#d2d3ef" fill-opacity=".9" d="M641 881zc11 1 2 5-1 0"/><path fill="#d7d7ee" fill-opacity=".8" d="m537 856 4 2q-7 4-4-2"/><path fill="#000001" d="M331 730q9-10 22-9c5 1 11 6 16 7h-1l-6 2c-18 13-6 47 14 51l8 2q-5 18-23 15l-3 9c17 10 25 33 17 51q-4 9-12 15c-3 41-50 30-68 8a91 91 0 0 1-24-69c-11-19-23-53-1-70q10-6 22-3 16-15 39-9m41 128c16-31-18-63-49-52l-12 4v-1l6-3q20-8 39 1l3-9-10-4c-19-12-33-41-20-63l-12-1q-17 2-27 14c-8 9-6 15-6 26-1 8 7 60 11 64l12 13c13 10 32 17 48 15q9-3 17-4m-70-2-5-9c-7-16-9-28-11-45q-6-23-4-47 2-8 8-14-23-4-29 20c-4 14 2 31 8 44q4 4 4 9v6q0 35 24 60 15 16 38 19 24 0 25-25-15 9-32 2l-8-3-7-5-9-10zm60-129q-7-5-16-4-10 3-16 11c-12 20 3 47 21 58q10 6 20 4 8-3 11-12l-10-2c-20-9-29-40-10-55m-44 136q0 3 2 2 1-2-2-2"/><path fill="#d7d7ee" d="M273 820c5 3 14 26 24 27l5 9q-3-1-3 3 2 2 4 0l1-1 9 10v3q2 1 2 3 5 5 5-1l8 3q17 6 32-2-1 25-25 25-23-3-38-19a85 85 0 0 1-24-60m55 60q2-4-4-3 0 5 4 3"/><path fill="#d7d7ee" fill-opacity=".6" d="M324 877q6-1 4 3-4 2-4-3"/><path fill="#d7d7ee" d="m295 834 12 13c13 10 32 17 48 15q9-3 17-4-9 18-30 19c-16 0-31-12-40-25-3-4-7-13-7-18m25 31q1-2-2-2 0 3 2 2"/><path fill="#dbdcf0" d="M318 863q3 0 2 2-2 0-2-2"/><path fill="#d7d7ee" fill-opacity=".9" d="m313 868 7 5q0 6-5 1 0-2-2-3zM302 856l2 2-1 1q-2 2-4 0 0-4 3-3"/><path fill="#0f64f5" d="m423 671 69-4q-4 54-44 91a95 95 0 0 1-51 24c-3 0-11 2-13 1l-8-2c-20-4-32-38-14-51l6-2h1q25-4 40-24 12-14 14-33m3 78 8-5 4-5q2-1 1-3l-13 11zm25-23-2-1q-4 3-6 7l1-1q3-2 6 0zm15-34c3-2 0-2-1-3q-5 4 1 3m-12 17q4-2 1-4l-1-1z"/><path fill="#113bd9" d="m384 783-8-2c-20-4-32-38-14-51l6-2h1l1 12q4 21 20 34 4 2 7 8c-3 0-11 2-13 1"/><path fill="#75a7f7" d="M451 726c5 3 2 7-1 10q-14 17-32 30c-7 4-15-5-6-11q16-10 28-24 3-7 9-6-4 3-6 7l1-1q3-2 6 0zm-25 23 8-5 4-5q2-1 1-3l-13 11z"/><path fill="#75a7f7" fill-opacity=".9" d="M439 736q1 2-1 3l-4 5-8 5v-2l1-1z"/><path fill="#75a7f7" d="M454 704c2-3 5-16 8-16 15-3 5 14 3 21q-5 7-11 0 4-2 1-4zm12-12c3-2 0-2-1-3q-5 4 1 3"/><path fill="#75a7f7" fill-opacity=".9" d="M465 689c1 1 4 1 1 3q-6 1-1-3"/><path fill="#75a7f7" fill-opacity=".7" d="m449 725 2 1-1 5q-3-2-6 0l-1 1q1-4 6-7"/><path fill="#75a7f7" fill-opacity=".8" d="M454 704zq3 2-1 4z"/><path fill="#0f64f5" d="M622 631c22 22 32 38 32 72q0 40-29 69c-3-1-10 0-13 1-21 0-29-6-44-19l10-13q13-15 12-35c0-16-8-25-19-36q19-14 37-29zm1 118v-5q-2 2 0 5"/><path fill="#75a7f7" d="M636 704q9 2 6 11l-8 29q-1 6-7 8c-11 0-5-9-3-16l7-24q0-5 5-8m-13 45v-5q-2 2 0 5"/><path fill="#75a7f7" fill-opacity=".7" d="M623 744v5q-2-3 0-5"/><path fill="#75a7f7" d="M626 659q8 1 10 9c3 7 8 16 2 22q-4 1-7-2-3-8-6-16-5-7 1-13"/></svg>