<svg xmlns="http://www.w3.org/2000/svg" width="1024" height="1024" viewBox="0 0 1024 1024"><path fill="#2b97df" d="m453 211 3-17 1 1c60 93 181 107 230 210q10 19 14 40l3 23v27c0 8-3 24-6 31l-6 20a178 178 0 0 1-67 83l-29 16a163 163 0 0 1-93 11l-6-1-16-4-15-5a171 171 0 0 1-88-77v-1c9-3 48 33 51-1q-2-6-6-8-29-13-59-24-17-78 15-150c26-59 62-110 74-174m28 256 13-4q-14-11-10-29 3-11 12-16 13-6 26-1l6 3-4-4q-15-14-37-14a54 54 0 0 0-51 58q0 9 4 18c10-3 31-10 41-11m76-11q20-8 40-13l12-3-7-11q-4-10-1-20 3-8 9-12c13-10 27-2 30-3l-1-2a52 52 0 0 0-73 4 57 57 0 0 0-9 60m-79 47q1-6-3-11c-6-7-20-7-28-6-35 5-27 36 8 30q13-1 22-11zm210 7q-2-6-2-12v-1q-2-6 2-12l-1-1q0-3-4-4-8-3-12 5l-2 23-1 11-1 5-2 10h-1v2l-1 4-4 10v2q5 13 16 5l2-3 2-3c5-10 9-29 9-41m-46 82c4-2 19-13 20-18q0-8-9-10l-11 9c-4 4-12 9-8 15q3 5 8 4"/><path fill="#164bb1" d="M429 567c37 48 91 68 151 57a159 159 0 0 0 114-89l4-9-6 20a178 178 0 0 1-67 83l-29 16a163 163 0 0 1-93 11l-6-1-16-4-15-5a171 171 0 0 1-88-77v-1c9-3 48 33 51-1M364 535q-17-78 15-150c1 7 19 27 24 32-9 46-8 93 15 134l5 8q-29-13-59-24"/><path fill="#164bb1" d="m453 211 3-17 1 1c-2 2-1 9-1 12 0 26-5 42-11 68l-24 78c-6 17-15 46-18 64-5-5-23-25-24-32 26-59 62-110 74-174"/><path d="m580 595-2 1c-19 5-43 1-59-7a86 86 0 0 1-41-50c-2-5-4-14 1-17q13-2 26-3a768 768 0 0 0 111-26l18-5q4 1 6 5c10 32-6 67-31 87-7 5-20 13-29 15"/><path fill="#e53835" d="M492 564q6-8 19-13c34-15 76-3 99 27l-1 2c-7 5-20 13-29 15l-11 2q-48 5-77-33"/><path d="M494 463q-14-11-10-29 3-11 12-16 13-6 26-1l6 3c10 6 12 26 12 37q-21 2-41 6l-18 4zM639 392q4 2 7 5c9 12 10 22 12 36l-26 3-23 4-7-11q-4-10-1-20 3-8 9-12c13-10 27-2 30-3z"/><path fill="#f18792" d="M447 486c8-1 22-1 28 6q4 5 3 11l-1 2q-9 10-22 11c-35 6-43-25-8-30M657 445c29-5 44 21 6 30q-12 2-24-3-9-7-4-16 8-10 22-11"/><path d="M494 353q5-1 10 3t1 10q-7 5-15 3-23 1-40 18l-8 9-3 1c-14 1-10-11-3-18q24-25 58-26M590 335c13-2 36 2 46 11l2 5c-3 14-14 4-23 2l-10-2c-15-2-25 0-38 6-5 3-14-6-8-12 7-7 21-9 31-10"/><path fill="#fefefe" fill-opacity=".8" d="M671 485q4-8 12-5l1 6q2 0 3-2l1 1q-4 6-2 12v1q0 6 2 12c0 12-4 31-9 41-5-2-3-14-3-18q-1 3-3 5h-1l2-7q0-4-3-6l3-4q-3-12-3-25 1-7 0-11"/><path fill="#fefefe" fill-opacity=".4" d="m667 524 1 13 2 4c4 1 2 4 4 8l1 1 2 4-2 3q-3-5-8-3l-4-1q-2-2-3-1h-1v-2c2-2 0-2 3-3 2 0 2-5 1-7l1-4v-2h1z"/><path fill="#fefefe" fill-opacity=".6" d="M671 485q2 4 0 11 0 13 3 25l-3 4h-2v11q2 3 3-1l2-4-2 7h1q2-2 3-5c0 4-2 16 3 18l-2 3-2-4-1-1c-2-4 0-7-4-8l-2-4-1-13 1-5 1 1c2-2 1-9 0-12z"/><path fill="#fefefe" d="M688 510q-2-6-2-12v-1q-2-6 2-12z"/><path fill="#fefefe" fill-opacity=".8" d="m674 531-2 4q-1 4-3 1v-11h2q3 2 3 6"/><path fill="none" d="M663 540c1 2 1 7-1 7-3 1-1 1-3 3z"/><path fill="#fefefe" fill-opacity=".3" d="M669 508c1 3 2 10 0 12l-1-1z"/><path fill="#fefefe" fill-opacity=".6" d="M683 480q3 1 4 4-1 2-3 2z"/><path fill="#fefefe" fill-opacity=".7" d="m524 416 4 4-6-3z"/><path fill="#febd21" d="M635 719c7-1 24-3 28 1 10 7 7 23 7 33l1 16h1c26-19 64-19 85 9h1c8 15 14 27 12 44l-52 1h-12l-67 2h-57l-3-77q-3 1-4-1-2-4-1-10-1-4 1-7 2-6 7-8c5-4 16-3 23-3l4 1zm30 22 1 1zm40 36 13 1 2 1 9 3 10 9c2 3 5 11 9 10 13-3-2-20-7-23q-1-3-3-2l-11-6-4-1-12-2q-17 0-30 12c-3 3-19 22-4 10a49 49 0 0 1 28-12"/><path fill="#fefefe" d="M635 719c7-1 24-3 28 1 10 7 7 23 7 33v1l-1-8q-31 0-63 2h-27q-3 1-4-1-2-4-1-10-1-4 1-7 2-6 7-8c5-4 16-3 23-3l4 1zm31 23z"/><path fill="#cfcbc8" d="m605 719 4 1h-6c-4 6-5 17 1 23l2 3-31 2v-6l-1-5q-1-4 1-7 2-6 7-8c5-4 16-3 23-3"/><path fill="#8a8d8b" d="m605 719 4 1h-6l-15 1-6 1c5-4 16-3 23-3M575 730l-1 4 1 8-1-5q-1-4 1-7"/><path fill="#886012" d="M663 720c10 7 7 23 7 33v1l-1-8q-31 0-63 2h-27q-3 1-4-1-2-4-1-10l1 5v6a625 625 0 0 1 71-2l23-1c0-9 2-17-6-24z"/><path fill="#8a8d8b" d="M635 719c7-1 24-3 28 1v1c-10-5-16-2-27-2z"/><path fill="#fefefe" fill-opacity=".7" d="m665 741 1 1z"/><path fill="#d09b20" d="M579 748h27l1 28 2 21q1 6 5 11c4 6 15 15 17 17h-49z"/><path fill="#33220e" d="m670 753 1 16h1l-4 4-1-1 3-2v-17"/><path fill="#886012" d="m668 773-8 7z"/><path fill="#fefefe" fill-opacity=".6" d="m711 767 12 2-1 5c1 5 10 3 5-4l11 6c-3 0-3 4 0 4l4 3c2-1-1-4-1-5l4 5 2 4-2 1q-1-4-4-3l-7-2-5-1-9-3-2-1q-4-5-10-3c4-1 2 0 4-5l2-1v-1z"/><path fill="#fefefe" fill-opacity=".8" d="M741 778c5 3 20 20 7 23-4 1-7-7-9-10l-10-9 5 1 7 2q3-1 4 3l2-1-2-4z"/><path fill="#fefefe" fill-opacity=".4" d="m723 769 4 1c5 7-4 9-5 4z"/><path fill="#fefefe" fill-opacity=".5" d="M741 778c0 1 3 4 1 5l-4-3c-3 0-3-4 0-4q1 0 3 2"/><path fill="#fefefe" d="M708 775q6-1 10 3l-13-1zM670 793l2 1-2 2-1 1-2 2v1c-1-1 2-6 3-7"/><path fill="#febd21" d="M385 718c2-1 19 12 22 14l3 2 38 25h1l7 5 5 3c4-6 11-13 9-20-2-9-15-16-23-21v-1c11 7 30 15 22 31q-9 12-16 25c11 1 26 3 35 10l16 13v1l1 1 7 12a57 57 0 0 1-10 62l-4-2-29-18-16-11-49-31-18-12c-12-6-31-20-43-27l5-8 9-12 21-28c2-3 8-10 7-13m65 85 8 1a58 58 0 0 1 24 10l8 10 2 4 2 8 1 3v7c-1 5-2 5 2 9q3 1 6-1 5-11 1-22v-2l-1-1-3-7v-1l-4-5-3-4-6-5q-15-11-35-9l-5 1-1 1h1z"/><path fill="#d09b20" d="M385 718c2-1 19 12 22 14l3 2h-2c-7 8-16 22-22 32q-9 14-4 29l4 11c-12-6-31-20-43-27l5-8 9-12 21-28c2-3 8-10 7-13"/><path fill="#886012" d="M447 725c11 7 30 15 22 31q-9 12-16 25c11 1 26 3 35 10l-12-5q-22-7-43-1c4-3 13-3 18-4l9-13-4-4 5 3c4-6 11-13 9-20-2-9-15-16-23-21z"/><path fill="#fefefe" fill-opacity=".7" d="M504 830v2c-3 4-1 16-1 22q-3 2-6 1c8-4 1-7-2-9v-7c2-4 0-5 5-5z"/><path fill="#fefefe" fill-opacity=".3" d="M482 814v-2c7-4 9 9 14 4l4 5c-4 7-5-5-10 3z"/><path fill="#fefefe" fill-opacity=".5" d="M500 821v1l-5 11v1q2-5-3-6l-2-4c5-8 6 4 10-3"/><path fill="#fefefe" fill-opacity=".9" d="M503 854c0-6-2-18 1-22q4 11-1 22"/><path fill="#fefefe" fill-opacity=".1" d="M480 813c0-6 5-4 9-2 2 1 4 5 4 1l3 4c-5 5-7-8-14-4v2z"/><path fill="#fefefe" d="m429 806 2-1q6-4 13-5l1-1h1v1h1l3 3-9 1z"/><path fill="none" d="M495 846c3 2 10 5 2 9-4-4-3-4-2-9"/><path fill="#fefefe" fill-opacity=".6" d="m500 822 3 7q0 3-4 2-2 0-4 2z"/><path fill="#fefefe" fill-opacity=".6" d="m503 829 1 1-4 4c-5 0-3 1-5 5l-1-3 1-2v-1q2-2 4-2 4 1 4-2"/><path fill="#fefefe" fill-opacity=".4" d="M492 828q5 1 3 6l-1 2z"/><path fill="#2b97df" d="M315 146h30l7 1c38 8 75 40 85 77q3 5 2 9l-12-13-10-8-23-10c-34-10-69 0-98 20-13 9-23 19-40 20-15 0-28-10-28-26q0-21 17-36a118 118 0 0 1 70-34m-31 27q13-8 28-11 5 0 9-3 2-6-5-7-17 3-32 11c-6 3-8 9 0 10m-30 33 4-6q3-8 9-14 4-2 5-6-1-6-6-4c-8 4-16 15-18 24q-2 7 6 6"/><path fill="#076abc" d="M315 146h30-30"/><path fill="#164bb1" d="m427 220 10 8v-4q3 5 2 9z"/><path fill="#076abc" d="M270 458h17q16 4 25 18c4-7 7-17 15-18q5-2 8 1 4 2 5 7c1 7-6 14-9 21q5 16-4 31l-5 7-11 10-5 3c-14 8-36 5-48-5q-16-12-19-31-2-16 8-30 9-12 23-14"/><path fill="#164bb1" d="M270 458h17z"/><path fill="#076abc" d="M711 366q2-16 15-25 15-9 31-6 17 4 26 18 9 16 5 34a46 46 0 0 1-40 36c-15 0-21-2-34-10-8-6-13-18-16-28q-8-2-12-8-3-5 0-10c3-11 18-4 25-1"/><path fill="#164bb1" d="M686 377q-3-5 0-10z"/><path fill="#076abc" d="M309 235q4 0 5 2l-2 6q-12 15-14 34c-1 11 2 24-4 34-8 13-23 16-36 8-13-12-11-29-2-43q19-32 53-41m-47 63c8-2 4-12 8-19q0-4-4-5h-1c-4 4-7 13-8 19q0 4 5 5m12-27c1-1 10-9 10-11q1-4-4-5-7 3-10 11 0 4 4 5"/><path fill="#febd21" d="M631 825h8l67-2h12v1l-86 2h-9l-17 1h-9c-5 0-4 0-6 5l21 2h12l6 1h22l72-1 44-3v1q-7 17-26 17l-94 2v-8h-19l1 9c-10 0-35 2-43-1l-2-3c-4-5-3-16-3-23z"/><path fill="#d09b20" d="m583 838 17-1 34-1-1 7h15-19l1 9c-10 0-35 2-43-1l-2-3z"/><path fill="#886012" d="M631 825h8l67-2h12v1l-86 2h-9l-17 1h-9c-5 0-4 0-6 5l21 2h12l6 1h22l72-1 44-3v1c-18 2-26 2-43 2l-58 2h-33l-34 1-17 1 2 10c-4-5-3-16-3-23z"/><path fill="#cfcbc8" d="M583 827h14c-5 0-4 0-6 5l21 2h12l6 1-47 1z"/><path d="m306 538 5-3 11-10 5-7c10 6 26 12 37 17q29 11 59 24 5 3 6 8c-3 34-42-2-51 1v1l-3-3-24-10zM466 646l15 5 16 4c-13 18-37 49-50 69v2l-2-1-2-2-2-1-20-13-1-1q-3-1-6-4h1l6 4q23-30 45-62M596 645l29-16c0 6 3 22 2 25-1 5 2 17 2 23l1 2q3 11 3 24l2 16h1l-27 1-4-1c0-11-4-30-5-42z"/><path fill="#febd21" d="M374 820c0-4 2-3 5-5l54 34q2 2 6 3l5 4c1 2 44 28 49 32-14 11-25 2-37-6l-29-19-16-10-27-17 3-7z"/><path d="M714 413c13 8 19 10 34 10h-7l-25 50-12 22v-27l-3-23c2 0 15-26 16-29z"/><path fill="#fefefe" fill-opacity=".9" d="m407 730 5 2q1 4 5 3l-2-1-3-3c-1-1 2-3 0-3h-1c0-1 7-2 9-4q2-3 6-2 2 3 4 1 2 1 4 4h3q2 2 6 2l4-3c8 5 21 12 23 21 2 7-5 14-9 20l-5-3-7-5c1 0 5-1 3-2-5-4-3 0-4 2l-38-25-3-2zm51 33a1 1 0 1 0-1-2 1 1 0 0 0 1 2"/><path fill="#fefefe" fill-opacity=".5" d="M457 761a1 1 0 1 1 1 2 1 1 0 0 1-1-2"/><path fill="#cfcbc8" d="m383 712 4-6c7-10 19-9 28-2h-1q3 3 6 4l-8 8-4 8-1 6v2c-3-2-20-15-22-14h-1q-3-2-1-6"/><path fill="#8a8d8b" d="m383 712 4-6c7-10 19-9 28-2h-1c-9-4-8-6-18-4-7 2-11 11-13 12"/><path fill="#d09b20" d="m336 788 43 27c-3 2-5 1-5 5q-4 2-6 6l-3-2-21-14h-1c-5-5-6-2-11-13z"/><path fill="#464649" fill-opacity=".9" d="M344 810c-16-7-14-17-5-28l9-11-5 8c12 7 31 21 43 27l18 12 49 31 16 11c-4-1-23-14-27-17l-64-41c-9-5-27-18-36-22l-3 5 3 5c8 5 22 15 31 19l7 5c12 9 29 19 42 27l17 11q-4-1-6-3l-54-34-43-27-4 9c5 11 6 8 11 13z"/><path fill="#464649" fill-opacity=".8" d="M505 806q7 7 10 18 8 32-13 57c-18 20-29 13-47 1l-22-15c-4-2-20-11-22-14l16 10 29 19c12 8 23 17 37 6-5-4-48-30-49-32 10 3 27 18 37 23 6 3 13 9 20 2l-3-3 4 2q10-11 13-25 5-19-3-37z"/><path fill="#464649" fill-opacity=".9" d="M758 778c15 15 22 66-8 71l-30 1-69 2h-4v-8l-17 1v7l-1-9h19v8l94-2q19 0 26-17v-1l1-8-51 1v-1l52-1c2-17-4-29-12-44"/><path fill="#cfcbc8" fill-opacity=".3" d="M623 826h9q2 4 1 9h19-22l-6-1q-9-3-17-2l-10-1 7-1-5-1h6c5 0 15 1 18-3"/><path fill="#fefefe" fill-opacity=".8" d="m424 719 8 2c4 5 3 2 9 5q3 2 4-1l2 1-4 3q-4 0-6-2h-3q-2-3-4-4-2 2-4-1-4-1-6 2c-2 2-9 3-9 4h1c2 0-1 2 0 3l3 3 2 1q-4 1-5-3l-5-2 1-6c7 2 10-3 16-5"/><path fill="#fefefe" fill-opacity=".5" d="m408 724 4-8q2 2 4 1h10c3 3 2 3 6 3q2 3 6 4l5-1 2 2q-1 3-4 1c-6-3-5 0-9-5l-8-2c-6 2-9 7-16 5"/><path fill="#cfcbc8" fill-opacity=".4" d="M597 827h9l4 1-5 1h-6l5 1-7 1 10 1q8-1 17 2h-12l-21-2c2-5 1-5 6-5"/><path fill="#fefefe" fill-opacity=".3" d="M420 708zq-1 2-3 3l1 1h1l1 1c2 1 7 1 7 4l1 1q4 0 7 3l1 1 4-1 2 1-5 1q-4-1-6-4c-4 0-3 0-6-3h-10q-2 1-4-1z"/><path fill="none" d="m441 722-4 1-1-1q-3-3-7-3l-1-1c0-3-5-3-7-4l-1-1h-1l-1-1q2-1 3-3z"/><path fill="#cfcbc8" fill-opacity=".3" d="m606 827 17-1c-3 4-13 3-18 3l5-1z"/><path d="m630 679-1-2c0-6-3-18-2-23 2 7 3 18 3 25"/><path fill="#cfcbc8" fill-opacity=".1" d="M373 809c4-1 3 2 6 1s5 3 3 4h-2z"/><path fill="#fefefe" fill-opacity=".8" d="M448 759c1-2-1-6 4-2 2 1-2 2-3 2z"/></svg>