<svg xmlns="http://www.w3.org/2000/svg" width="1024" height="1024" viewBox="0 0 1024 1024"><path fill="#201e1e" d="M184 124c17-2 34 8 42 23 5 10 3 16 0 26l-11-5-51-31c6-8 10-11 20-13M55 142q4-1 7 3v2l-8 5-2 2-1-1-1-1q-2-7 5-10"/><path fill="#201e1e" d="M211 122c13-1 9 13 7 11l-1-1c-5-5-14-6-6-10"/><path fill="#51a9e7" d="m410 7 1-1q47 18 90 42a575 575 0 0 1 253 305l5 18 2 7 4-1q14 0 12 13l-4 5-7 5 1 5 2 14 1 7v4l1 7 2 20q1 18-2 34v6l-2 12-3 17-1 6-1 2v3l-2 5v1q-2 3 1 5l-3 2-12 33-15 29-6 8a267 267 0 0 1-182 118l-22 2h-42c-21-2-38-6-59-12l-14-5c-42-16-84-48-111-85 21 2 38 3 47-19 4-19-6-34-25-37h-9q-25 0-48-7a232 232 0 0 1 1-154q5-15 12-30l-7-4-25-14q-10-5-5-15 4-3 9-3l15 7 23 13c13-19 30-33 45-50 38-41 86-87 103-141 19-60 5-124-23-177m-18 493q-4 1-7 1l17 4a104 104 0 0 0 93-36l3-3c0-3-1-1-2-4 11-16 21-35 20-55 11-6 16-7 29-4l2 1 7 3a101 101 0 0 0 182 54l2-2 4-7 3-5v-1l4-7v-1l1-2 3-11q4-12 4-24c4-3 16-10 16-13-1-14-14-3-17-2-8-83-111-120-172-62q-28 29-30 70l-5-1v-1c-7-1-24-4-29 2q-3 0-3-2a101 101 0 0 0-203 3h-1l-17-9-29-17-19-10h-3q-3 1-4 3v5c2 3 65 36 74 41 4 46 33 80 77 92m342-54a93 93 0 0 1-88 45q-17-3-33-10a92 92 0 0 1-45-55q-8-30 1-59l8-17h-1v-1l-1 1v-3q-2 1-1 4l-1 3-3 4c0-1 3-4 0-4v-3l-2 2-1 1 2-5 1-3 5-7c2-1 10-13 12-5v3c19-19 38-30 66-31l3-1q-3 0-3-4c4-4 12 1 8 5l14 3a93 93 0 0 1 66 123l1 2v1l-1 4c0 7-6 5-5 11q0 3-3 5l-1-1c5-6 3-2 2-8m3 4c0-4 3-1 1 2z"/><path fill="#201e1e" d="m352 333 9-8c39-29 93-24 125 14a93 93 0 0 1-10 130 90 90 0 0 1-63 22l9-1v-1h-18l4 2a91 91 0 0 1-82-82q-4-32 13-60l9-12zm78 133c38-7 47-64 40-96-6-26-20-51-50-48-40 9-49 66-41 100 6 23 23 49 51 44"/><path fill="#51a9e7" d="M408 311a88 88 0 1 1 16 176 88 88 0 0 1-16-176m22 155c38-7 47-64 40-96-6-26-20-51-50-48-40 9-49 66-41 100 6 23 23 49 51 44"/><path fill="#111010" d="M420 322c30-3 44 22 50 48 7 32-2 89-40 96-28 5-45-21-51-44-8-34 1-91 41-100m-35 45-1 4-2 6c0-8-6 8-1 11v2l-1 1c-2 2 1 12-1 16l1 6c1 1 1 7 2 5v-2l6 18 8 14 1 1 5 5 5 4 14 5q15 0 25-10h-1q-17-8-23-26v-1l-2-8-1-3-1-4v-3c-1-18-1-27 4-44 5-9 5-11 13-20l1-1q6-6 13-7-13-13-32-9h-2l-6 4-4 2-5 5-4 5c-6 9-8 13-11 24"/><defs><linearGradient id="a" x1="431.7" x2="381.4" y1="397.8" y2="377.8" gradientUnits="userSpaceOnUse"><stop offset="0" stop-color="#fffffe" stop-opacity=".7"/><stop offset="1" stop-color="#fff" stop-opacity=".8"/></linearGradient></defs><path fill="url(#a)" d="m419 329 6 2 2 6-1 1c0 1 6 1 6 4l3 2c-8 9-8 11-13 20q-3 1-4 4 0 8-3 13c-3 8-3 20 3 27v3l-2 4q-4 7-2 15v13l-2 1h-2c-1 0 2 1 1 2h-1q1 1-2 2 0 1-3 2l-3-3c-1 1 3 4 1 4l-3-1s3-5 1-7q-1-2-4-1v-4c3 1-1-3 0-2-2-3-4 3-5 1l1-1 1-6-1-1q-1 1-3-1-2 3-2 6l-6-18-1-8v-20l1-11 2-6 1 2c3 0 3-5 2-6h-2c3-11 5-15 11-24q1 3 3 1 5-4 11-5l4-4q3-1 5-6"/><path fill="#fefefe" fill-opacity=".5" d="m418 411 1 4c-5 2-1 12 1 3l2 8h-1q-5 5-2 11 4 12-9 15c-2 0-8 0-8 2l-5-5q4-1 1-4-2-1-2 2v1l-8-14q0-3 2-6 2 2 3 1l1 1-1 6-1 1c1 2 3-4 5-1-1-1 3 3 0 2v4q3-1 4 1c2 2-1 7-1 7l3 1c2 0-2-3-1-4l3 3q3-1 3-2 3-1 2-2h1c1-1-2-2-1-2h2l2-1v-13q-2-8 2-15z"/><path fill="#fefefe" fill-opacity=".2" d="M402 454c0-2 6-2 8-2q14-3 9-15-3-6 2-11h1v1q-4 5 0 9l4 8q3 7-4 11c-6 3-9 0-15 3z"/><path fill="#fefefe" fill-opacity=".4" d="M415 327h2l13 2 6 6v8l-1 1-3-2c0-3-6-3-6-4l1-1-2-6-6-2q-2 4-5 6c-6-3-8 4-9-2l4-2q6 2 6-4"/><defs><linearGradient id="b" x1="444.8" x2="422.3" y1="328.8" y2="334.9" gradientUnits="userSpaceOnUse"><stop offset="0" stop-color="#fff" stop-opacity="0"/><stop offset="1" stop-color="#fff" stop-opacity=".1"/></linearGradient></defs><path fill="url(#b)" d="M417 327q19-4 32 9-7 1-13 7v-8l-6-6z"/><path fill="#fefefe" fill-opacity=".9" d="M418 408c-6-7-6-19-3-27q3-5 3-13 0-4 4-4c-5 17-5 26-4 44"/><path fill="#fefefe" fill-opacity=".6" d="M400 338zc1 5 5-6 9 1q-6 1-11 5-1 2-3-1z"/><path fill="#fefefe" fill-opacity=".5" d="M405 333c1 6 3-1 9 2l-4 4c-4-7-8 4-9-1h-1z"/><path fill="#111010" fill-opacity=".9" d="M381 388c-5-3 1-19 1-11zm0-10zM381 377v1z"/><path fill="#111010" d="m380 413-1-6c2-4-1-14 1-16l1-1v18z"/><path fill="#fefefe" fill-opacity=".7" d="M385 367h2c1 1 1 6-2 6l-1-2z"/><path fill="#fefefe" fill-opacity=".4" d="M420 418c-2 9-6-1-1-3z"/><path fill="#fefefe" fill-opacity=".1" d="M415 327q0 6-6 4z"/><path fill="#fefefe" fill-opacity=".3" d="M396 448zq0-2 2-2 3 3-1 4z"/><path fill="#111010" fill-opacity=".9" d="m381 408 1 8v2c-1 2-1-4-2-5z"/><path fill="#111010" fill-opacity=".8" d="m408 491-4-2h18v1l-9 1z"/><path fill="#fefefe" fill-opacity=".1" d="M348 337h-4v-1q4-2 7-8 3 0 1 5z"/><path fill="#fefefe" fill-opacity=".3" d="M766 385zv1h-1z"/><defs><linearGradient id="c" x1="439.2" x2="441.4" y1="491.3" y2="501.5" gradientUnits="userSpaceOnUse"><stop offset="0" stop-color="#212023"/><stop offset="1" stop-color="#1f1e1f"/></linearGradient></defs><path fill="url(#c)" d="M476 482c1 2-1 3 2 3-20 16-51 24-76 20 2-2 19-1 19-2l-1-1c23-1 38-7 56-20"/><path fill="#fefefe" fill-opacity=".1" d="m745 418 2 2c4-1 3-6 6 5l-3 11-2-6-4-5z"/><path fill="#201e1e" fill-opacity=".9" d="m493 466 2-1v4l-17 16c-3 0-1-1-2-3l8-6z"/><path fill="#fefefe" fill-opacity=".6" d="m549 393 5 1c1 6 2 6 0 13l-7-3 1-7z"/><path fill="#fefefe" fill-opacity=".1" d="M517 392q0 2 3 2v9q-4 1-8 1-4-7 4-9zm-3 11c1-1 7-4 3-6h-2q-4 2-1 6"/><defs><linearGradient id="d" x1="514.1" x2="515.5" y1="401.7" y2="397.6" gradientUnits="userSpaceOnUse"><stop offset="0" stop-color="#fff" stop-opacity=".2"/><stop offset="1" stop-color="#fff" stop-opacity=".2"/></linearGradient></defs><path fill="url(#d)" d="M517 397c4 2-2 5-3 6q-3-4 1-6z"/><path fill="#201e1e" d="M392 500c11 1 17 3 28 2l1 1c0 1-17 0-19 2l-17-4q3 0 7-1"/><path fill="#fefefe" fill-opacity=".4" d="m744 425 4 5 2 6-1 2-4-1-3-3-1-2z"/><defs><linearGradient id="e" x1="739.6" x2="742.9" y1="439.6" y2="445.8" gradientUnits="userSpaceOnUse"><stop offset="0" stop-color="#fff" stop-opacity=".2"/><stop offset="1" stop-color="#fff" stop-opacity=".3"/></linearGradient></defs><path fill="url(#e)" d="m742 434 3 3 4 1v1h-2c-7 1-2 6-4 7-5 5-2 0-4 7l-1-1c2-3-1-6-1-2h-1c-1-6 5-4 5-11z"/><path fill="#fefefe" fill-opacity=".2" d="M549 392zl-1 4-1 7-2-1q-3-3-5-2l1-1q-4-3 0-4l1-1c6-2 3 1 7-3"/><path fill="#fefefe" fill-opacity=".1" d="m732 466-4 1-1-2c0-3-1-2 1-5l4-6 1 1q-3 3-3 5l2-1c0 5 1 2 4 2z"/><path fill="#fefefe" fill-opacity=".2" d="M736 450zl1 2 1 1v1q-4 2-1 5l-2 2c-3 0-4 3-4-2l-2 1q0-3 3-5t3-5"/><path fill="#fefefe" fill-opacity=".1" d="M739 453c2-7-1-2 4-7 2-1-3-6 4-7q-4 2-2 7v1c-3 1-7 5-3 5l-4 7q-3-2 1-5z"/><path fill="#201e1e" d="M496 462c1 3 2 1 2 4l-3 3v-4l-2 1z"/><path fill="none" d="M747 439h2l-4 7q-2-5 2-7M742 452c-4 0 0-4 3-5z"/><defs><linearGradient id="f" x1="522" x2="490.2" y1="389.2" y2="0" gradientUnits="userSpaceOnUse"><stop offset="0" stop-color="#52ade9"/><stop offset="1" stop-color="#8fcdf5"/></linearGradient></defs><path fill="url(#f)" d="m410 7 1-1q47 18 90 42a575 575 0 0 1 253 305l5 18 2 7 4-1q14 0 12 13l-4 5-7 5-5 3q-2 47-38 78-34 28-77 24a105 105 0 0 1-96-96q-10-6-24-2l-5 2c-4 22-8 39-23 57 0-3-1-1-2-4 11-16 21-35 20-55 11-6 16-7 29-4l2 1 7 3a101 101 0 0 0 182 54l2-2 4-7 3-5v-1l4-7v-1l1-2 3-11q4-12 4-24c4-3 16-10 16-13-1-14-14-3-17-2-8-83-111-120-172-62q-28 29-30 70l-5-1v-1c-7-1-24-4-29 2q-3 0-3-2a101 101 0 0 0-203 3h-1l-17-9-29-17-19-10h-3q-3 1-4 3v5c2 3 65 36 74 41 4 46 33 80 77 92q-4 1-7 1l-11-4c-34-15-60-49-63-86l-33-18-3-2-7-4-25-14q-10-5-5-15 4-3 9-3l15 7 23 13c13-19 30-33 45-50 38-41 86-87 103-141 19-60 5-124-23-177"/><path fill="#201e1e" d="M550 389q3-35 26-62a106 106 0 0 1 181 44q1 5 3 8l1-1 4-1q14 0 12 13l-4 5-7 5-5 3q-2 47-38 78-34 28-77 24a105 105 0 0 1-96-96q-10-6-24-2l-5 2c-4 22-8 39-23 57 0-3-1-1-2-4 11-16 21-35 20-55 11-6 16-7 29-4l2 1 7 3a101 101 0 0 0 182 54l2-2 4-7 3-5v-1l4-7v-1l1-2 3-11q4-12 4-24c4-3 16-10 16-13-1-14-14-3-17-2-8-83-111-120-172-62q-28 29-30 70l-5-1v-1c-7-1-24-4-29 2q-3 0-3-2a101 101 0 0 0-203 3h-1l-17-9-29-17-19-10h-3q-3 1-4 3v5c2 3 65 36 74 41 4 46 33 80 77 92q-4 1-7 1l-11-4c-34-15-60-49-63-86l-33-18-3-2-7-4-25-14q-10-5-5-15 4-3 9-3l15 7 23 13 25 14c6-33 17-57 45-78q36-24 78-18a104 104 0 0 1 88 95q14-3 29 1"/><path fill="#111010" d="M621 242q11-1 23 2c7 2 21 7 26 13v2q-4 1-8-2-20-12-44-10-11 2-20 7l-9 5c-3 2-8 8-12 9l-1-2c0-3 6-7 8-9q17-12 37-15M445 241c20-3 50 8 60 27l-1 2q-5-1-8-7l-14-10q-25-14-52-5l-14 6-2-1c1-7 25-12 31-12"/><path fill="#057fd1" d="m761 539 1 3v1q-2 3 1 5l-3 2-12 33-15 29-6 8a267 267 0 0 1-182 118l-22 2h-42c-21-2-38-6-59-12l-14-5c-42-16-84-48-111-85 21 2 38 3 47-19 7 10 39 31 51 38q88 51 186 26c62-18 118-57 158-108zM275 391l3 2q-6 20-8 42c-5 47 6 94 31 133l9 14q-25 0-48-7a232 232 0 0 1 1-154q5-15 12-30"/><path fill="#1e90dd" d="M761 539c1-2 1 0 3-2l-2 5z"/><path fill="#111010" d="M425 543c9-1 15 5 23 9l22 11q27 11 57 11 35-1 66-17c7-3 14-9 21-10h5q8 2 12 8 4 5 2 12-3 11-14 16-20 13-44 19c-48 14-99 8-142-17-7-4-21-11-23-20q-2-19 15-22M827 314l3-138 1-41 1-21q1-4 3-7c21-16 92-10 117-6 16 2 60 10 69 23l2 6q-1 11-3 20l-6 35-12 78h-1q-2-1-2-4l7-44 13-79c-12 6-19 7-33 8-33 5-125-3-150-24l-2 42-3 151 8-1 2-51 1-47 1-20c0-3-1-16 2-17 5-5 18-5 25-6q60-2 118 15c3 1 10 3 12 6 3 3 0 17-1 21l-5 28-3 18-1 3q15 5 26 15 4 6 8 10v17c-4 2-4 7-12 12l-8-8-3-2-7-4-3-1q-6-3-11-3c1 3 3 1 3 3l6 2 7 4 6 3q13 8 16 24 1 11-5 21l-9 7q-6-9-16-14l-4-2-9-3v4h3l9 4c16 9 29 27 18 45q-5 7-12 10-6-8-16-13l-5-3-1-1-5-1h-1l-1 3 4 1 8 3c14 9 26 27 14 44-9 12-31 17-45 20l-25 1c5 9 1 17-4 26-6 12-10 17-25 14-32 59-91 104-158 112l15-29 12-33 3-2a132 132 0 0 0 32-21 153 153 0 0 0 35-40l6-12-7-3-4-3c-11-13 0-27 6-40l-14-18-3-5-1-3-3-6v-2l-1-1v-2l-1-1c-3-12-11-41-8-53 3-11 18-19 27-24m109 106-2 2c-3 2-14 4-18 4q-13 1-26-1l-6-1h-3l-5-2h-1l-10-3-13-7-1-1-1-1-8-7-4-3v-1q-2-1-2-4l-1 1c-1 0-3-10-2-12v-17l4-7v-4l-5 3-1 6v10l-1 35q1 2 3 5l3 2 7 6 18 8 5 2 5 1 4 1 1 1h3l13 2 8 1c18 1 29 0 45-8-6-5-5-5-9-11m65-114 3 2 8 8c8-5 8-10 12-12v-17q-4-3-8-10-11-11-26-15l1-3-6-1 2-1 4-20 7-37c-34 9-121 0-152-15l-2 82-1 45q10 3 14 13c5 15-6 23-16 29l-1 43c23 24 61 32 92 22q-3-9 1-19 4-7 10-9c5 0 2-1 3-3 8-1 11-2 19 0h1l5 1 1 1 5 3q10 5 16 13 7-3 12-10c11-18-2-36-18-45l-9-4h-3v-4l9 3 4 2q9 5 16 14l9-7q6-10 5-21-3-16-16-24l-6-3-7-4-6-2c0-2-2 0-3-3q5 0 11 3l3 1zM833 435c-3 3-8 15-10 19l1 7 3 5 3 2 15 7 6 3 3 1 7 3 9 4c8 4 25 13 32 11q9-4 11-13c4-10 10-13 4-24-20-2-28-4-47-10q-15-4-27-12h-1l-8-6zm52-335c-13 1-40 2-49 11l-1 2q1 3 3 5c22 18 104 25 132 24 9-1 47-2 49-14q0-4-5-6c-30-16-95-23-129-22"/><path fill="#fefefe" fill-opacity=".3" d="M871 434c4-8 8-6 10-9l15 3c6 3 16-3 21 1l1 1q-5 5-11 3c-2 0-8-1-9 1l1 1h-5q-3 1-2 3l-13-2h-3l2-1q2 0 2-3c-1-1-7 0-8 2z"/><defs><linearGradient id="g" x1="863.3" x2="851.7" y1="429" y2="414.3" gradientUnits="userSpaceOnUse"><stop offset="0" stop-color="#fff" stop-opacity=".3"/><stop offset="1" stop-color="#fff" stop-opacity=".5"/></linearGradient></defs><path fill="url(#g)" d="M847 418h3s-3-7 1-7l1 1c-4 5 3 3 5 4 1 0-3 2 0 4q3 2 8-1l10 3c-13 3-6 5-7 10-2-5-4-3-5-5h-1c1 3 2 1-1 4l-18-8 3-4z"/><path fill="#fefefe" fill-opacity=".2" d="m884 424 6 1q13 2 26 1l7 4c-6 6-5 6-15 6l-11 2 3 1-8-1q-1-2 2-3h5l-1-1c1-2 7-1 9-1q6 2 11-3l-1-1c-5-4-15 2-21-1l-15-3z"/><path fill="#fefefe" fill-opacity=".8" d="m831 365 2 2v17c-1 2 1 12 2 12l1-1q-1 3 2 4l-3 1-2 6v1c-2 4 1 4 0 8q-2-2-3-5l1-35z"/><defs><linearGradient id="h" x1="841.2" x2="838.3" y1="416.6" y2="406.7" gradientUnits="userSpaceOnUse"><stop offset="0" stop-color="#fff" stop-opacity=".7"/><stop offset="1" stop-color="#fff" stop-opacity=".7"/></linearGradient></defs><path fill="url(#h)" d="M838 399v1h-2q0 3 3 7l7 6q2 2 1 5l-1 1-1-3q-6-1-9 1l-3-2c1-4-2-4 0-8v-1l2-6z"/><path fill="#fefefe" fill-opacity=".4" d="M875 422zc-11 4-4 9 5 2h3l-3 1c-2 3-6 1-10 9l-5-1 2-1c1-5-6-7 7-10"/><path fill="#fefefe" fill-opacity=".5" d="M847 418q1-3-1-5l-7-6q-3-3-3-7h2l4 3-1 1-1 3q3 1 5 4l5-1 1 1c-4 0-1 7-1 7z"/><defs><linearGradient id="i" x1="839.8" x2="842.7" y1="419.2" y2="416.2" gradientUnits="userSpaceOnUse"><stop offset="0" stop-color="#fff" stop-opacity=".6"/><stop offset="1" stop-color="#fff" stop-opacity=".6"/></linearGradient></defs><path fill="url(#i)" d="M836 417q3-2 9-1l1 3-3 4z"/><path fill="#fefefe" fill-opacity=".3" d="M865 419q-5 3-8 1c-3-2 1-4 0-4-2-1-9 1-5-4z"/><path fill="#fefefe" fill-opacity=".6" d="m876 422 5 2c-9 7-16 2-5-2"/><path fill="#fefefe" fill-opacity=".9" d="M935 375c5 2 1 6 7 8l1 1 2 3-3-1-3-1z"/><path fill="#fefefe" fill-opacity=".3" d="M861 431c3-3 2-1 1-4h1c1 2 3 0 5 5l-2 1z"/><path fill="#fefefe" fill-opacity=".5" d="m845 406 5 4-5 1q-2-3-5-4z"/><path fill="#fefefe" fill-opacity=".3" d="M871 434h1c1-2 7-3 8-2q0 3-2 3v-1c2-4-3-2-3 1z"/><path fill="#fefefe" d="m942 386 3 1 1 1c-1 2 2 3-3 3l-1-2z"/><path fill="#fefefe" fill-opacity=".4" d="m842 403 3 3-5 1 1-3z"/><path fill="#fefefe" fill-opacity=".2" d="M875 435c0-3 5-5 3-1v1l-2 1z"/><path fill="#fefefe" fill-opacity=".9" d="m939 385 3 1v3z"/><path fill="#51a9e7" d="M846 185c31 15 118 24 152 15l-7 37-4 20-2 1 6 1-1 3q15 5 26 15 4 6 8 10v17c-4 2-4 7-12 12l-8-8-3-2-7-4-3-1q-6-3-11-3c1 3 3 1 3 3l6 2 7 4 6 3q13 8 16 24 1 11-5 21l-9 7q-6-9-16-14l-4-2-9-3v4h3l9 4c16 9 29 27 18 45q-5 7-12 10-6-8-16-13l-5-3-1-1-5-1h-1c-8-2-11-1-19 0l-1-1-2-3-1-1c-6-2-2-6-7-8l4 10 3 4 1 2q-6 2-10 9-3 9-1 19c-31 10-69 2-92-22l1-43c10-6 21-14 16-29q-4-9-14-13l1-45zm97 65 16-10 7-4 2 2 1 3 3 3 2 5 2 2 2 6c1 0 6 4 6 1l-3-4-2-5-4-6-1-2-1-1c-5-12-8-9-18-3l-1 1-5 2-3 2-1 1c-1 2-5 2-4 5zm12 44 1 2 1 1c4-2 0-4-1-6l-4-4zm-73-79q-14 6-29 15-4 3-5 8l-1 2 15 29q4 7 11 6c6-2 32-15 34-20 3-6-11-28-14-35q-3-7-11-5m24 128q6 0 8-7l8-21c4-9 8-20-3-24-10-3-25-11-35-12q-4 0-7 4-7 14-12 31c-6 15 6 16 17 21 7 2 16 8 24 8"/><path fill="#fefefe" fill-opacity=".9" d="m949 240 5-2c2 2 1 1 5 1v1l-16 10-2-2c-1-3 3-3 4-5l1-1 3 1c5-1 1-2 0-3"/><path fill="#fefefe" d="M955 237c10-6 13-9 18 3l-2-1q-1-3-3-1l-2-2-7 4v-1q0-2-4-2m11-3zh-3z"/><path fill="#fefefe" fill-opacity=".6" d="M964 234h3-3"/><path fill="#fefefe" fill-opacity=".1" d="m976 251 3-2 2 5 3 4c0 3-5-1-6-1z"/><path fill="#fefefe" fill-opacity=".5" d="m975 243 4 6-3 2-2-2z"/><path fill="#fefefe" fill-opacity=".2" d="M972 244q-1-1 2-3l1 2-1 6z"/><path fill="#fefefe" fill-opacity=".9" d="m952 287 4 4c1 2 5 4 1 6l-1-1c3-2 0-4-1-2z"/><path fill="#fefefe" fill-opacity=".8" d="m971 239 2 1 1 1q-2 2-2 3l-3-3z"/><path fill="#fefefe" fill-opacity=".6" d="M949 240c1 1 5 2 0 3l-3-1z"/><path fill="#fefefe" fill-opacity=".8" d="m954 238 1-1q3 0 4 2c-4 0-3 1-5-1"/><path fill="#fefefe" fill-opacity=".5" d="M968 238q2-2 3 1l-2 2z"/><path fill="#fefefe" fill-opacity=".8" d="M955 294c1-2 4 0 1 2z"/><path fill="#111010" d="M954 344c-19-18-4-43 20-44l9 1 6 2 7 4 6 3q13 8 16 24 1 11-5 21l-9 7q-6-9-16-14l-4-2-9-3c-9-1-13-1-21 1"/><path fill="#111010" d="M942 383c-11-25 10-42 33-36h3l9 4c16 9 29 27 18 45q-5 7-12 10-6-8-16-13l-5-3-1-1-5-1h-1c-8-2-11-1-19 0l-1-1-2-3zM963 299l-1-2q-7-8-6-19c4-18 19-19 34-16q15 5 26 15 4 6 8 10v17c-4 2-4 7-12 12l-8-8-3-2-7-4-3-1q-6-3-11-3-9-2-17 1"/><path fill="#fefefe" d="m959 240 7-4 2 2 1 3 3 3 2 5 2 2 2 6c1 0 6 4 6 1h1l6 1-1 3c-15-3-30-2-34 16q-2 11 6 19l1 2q8-3 17-1c1 3 3 1 3 3l-9-1c-24 1-39 26-20 44 8-2 12-2 21-1v4c-23-6-44 11-33 36-6-2-2-6-7-8l1-11q3-12 15-18a29 29 0 0 1-3-38q5-5 11-8l-2-3c4-2 0-4-1-6l-4-4v-8l1-3 1-4-1-2-5-11-5-9z"/><path fill="#51a9e7" d="m959 240 7-4 2 2 1 3 3 3 2 5 2 2 2 6c-11 2-19 3-24 15l-1-2-5-11-5-9z"/><path fill="#fefefe" d="M960 240h5l7 12c-3 0-11-10-12-12"/><path fill="#111010" d="M952 279q-7-5-10-15c-5-8-13-16-1-23l22-12c11-4 18 19 24 27v1l-2 1h-1l-3-4-2-5-4-6-1-2-1-1c-5-12-8-9-18-3l-1 1-5 2-3 2-1 1c-1 2-5 2-4 5l2 2 5 9 5 11 1 2-1 4z"/><path fill="#fefefe" d="M952 275q-4-5-7-12c-4-9-13-14 0-20-1 2-5 2-4 5l2 2 5 9 5 11 1 2-1 4z"/><path fill="#b4d0e8" d="m953 270 1 2-1 4-1-1z"/><path fill="#111010" d="M884 279c10 1 25 9 35 12 11 4 7 15 3 24l-8 21q-2 6-8 7c-8 0-17-6-24-8-11-5-23-6-17-21q4-17 12-31 3-4 7-4m9 6h-1q-5-3-10-2c-5 3-12 29-15 36-3 5 8 10 12 11 9 2 22 12 30 8 3-4 17-39 12-41z"/><path fill="#fefefe" d="m893 285 28 12c5 2-9 37-12 41-8 4-21-6-30-8-4-1-15-6-12-11 3-7 10-33 15-36q5-1 10 2h-1q-5 2 0 3l6 2c7 3 10 1 1-1l-1-1q-3 0-4-3m-17 23c-2-3-1-7-4 1q-2 4 3 2v-1z"/><path fill="#51a9e7" d="m876 308 5-15q0-3 3-5c1-1 28 10 31 12l2 1-6 18-5 15q-15-4-28-10-10-3-3-13v-1z"/><path fill="#fefefe" d="m908 300 6 3-5 16-1 1c-4 7 0-18 0-19z"/><path fill="#fefefe" fill-opacity=".9" d="M872 309c3-8 2-4 4-1l-1 2z"/><path fill="#fefefe" fill-opacity=".9" d="M875 311q-5 2-3-2l3 1zM892 285zq1 3 4 3v2l-6-2v-3z"/><path fill="#fefefe" fill-opacity=".7" d="M898 289c9 2 6 4-1 1zM891 288q-5-1 0-3z"/><path fill="#fefefe" fill-opacity=".7" d="m897 288 1 1-1 1z"/><path fill="#111010" d="M882 215q8-2 11 5c3 7 17 29 14 35-2 5-28 18-34 20q-7 1-11-6l-15-29 1-2q1-5 5-8 15-9 29-15m4 3q-4-1-10 4l1 2 4-1h5q3-2 0-5m-34 17zl1 3 2-2q2-1 5-3l2-2 5-2 3-2c1 0 9-3 5-4h-3l-4 2-4 2-3 1v1l-5 2z"/><path fill="#fefefe" d="M886 218c4 2 20 32 18 35-3 4-30 20-35 18-5-4-8-13-11-19-3-5-8-10-6-17v1l1 3 2-2q2-1 5-3l2-2 5-2 3-2c1 0 9-3 5-4h-3l4-2 1 2 4-1h5q3-2 0-5"/><path fill="#51a9e7" d="M883 224h3c3 5 12 22 13 27q-7 6-15 9l-11 6h-2c-4-4-8-15-12-20l-3-7c4-5 23-13 27-15"/><path fill="#fefefe" fill-opacity=".3" d="M876 222q6-5 10-4 3 3 0 5h-5l-4 1zM856 232q4 0 4 2-3 1-5 3l-2 2-1-3v-1z"/><path fill="#fefefe" fill-opacity=".4" d="m868 226 4-2h3c4 1-4 4-5 4zM861 230zl3-1h1q2 0 2 2l-5 2z"/><path fill="#fefefe" fill-opacity=".6" d="m856 232 5-2 1 2-2 2q0-2-4-2"/><path fill="#fefefe" fill-opacity=".8" d="m868 226 2 2-3 2q0-2-2-2h-1z"/><path fill="#fefefe" d="M946 388c8-1 11-2 19 0l-1 3c-13-3-27 2-29 17q-2 5 1 11v1l-2 2-2-3q-3-9 1-19 4-7 10-9c5 0 2-1 3-3M837 360v16l-1 19-1 1c-1 0-3-10-2-12v-17z"/><path fill="#51a9e7" d="M874 175c34-2 72 3 105 11 4 1 18 6 19 10-3 3-20 4-26 4a335 335 0 0 1-124-19v-1c4-4 20-5 26-5"/><defs><linearGradient id="j" x1="917.1" x2="858.4" y1="476.7" y2="469.6" gradientUnits="userSpaceOnUse"><stop offset="0" stop-color="#fff" stop-opacity="0"/><stop offset="1" stop-color="#fff" stop-opacity=".1"/></linearGradient></defs><path fill="url(#j)" d="M857 449c3-2 3 3 7 2 0-2-3 0-3-3 3 0 5 4 9 2 19 6 27 8 47 10 6 11 0 14-4 24q-2 9-11 13c-7 2-24-7-32-11 2-4 2-3 0-6l2-1 2 2h1c11-9 5-13-1-21l-3-1v4l-2-2-2-7-4-1q-4 0-6-4"/><path fill="#fefefe" fill-opacity=".5" d="M833 437v1q2 5 6 5l3 2h5q3 3 5 3l5 1q2 4 6 4l4 1 2 7 2 2v-4l3 1c6 8 12 12 1 21h-1l-2-2-2 1-3-1q-4-2-5 0l-2 1-3-1c0-1 6-1 5-3-1 0-7 1-8 3l-3-1-6-3 2-2c1-1 7 2 7-4q-1-3-2-1 0 3-3 3c-2-1-3 2-4 1l-3-3-2-3h-1v2c-4-1-5-6-9-6q-1-1-1-7c-1-4-1-2-2-3l1-1h1l3 4q1-3-1-5l-2-3q0-3 3-5z"/><path fill="#fefefe" fill-opacity=".5" d="m824 461-1-7c2-4 7-16 10-19v2l-1 5q-3 2-3 5l2 3q2 2 1 5l-3-4h-1l-1 1c1 1 1-1 2 3q0 6 1 7c4 0 5 5 9 6l1 2v3l-10-5q2-3-3-2l-2-2c2-1 0-9-1-3"/><path fill="#fefefe" fill-opacity=".1" d="M833 437c5 0 2 2 9 1h1q12 8 27 12c-4 2-6-2-9-2 0 3 3 1 3 3-4 1-4-4-7-2l-5-1q-2 0-5-3h-5l-3-2q-4 0-6-5z"/><path fill="#201e1e" d="m851 478 3 1 7 3 9 4c8 4 25 13 32 11q9-4 11-13c0 6-8 16-15 14l-11-2c-5-4-33-15-36-18"/><path fill="#fefefe" fill-opacity=".7" d="M839 468v-2h1l2 3 3 3c1 1 2-2 4-1q3 0 3-3 1-3 2 1c0 6-6 3-7 4l-2 2-5-2v-3z"/><path fill="#fefefe" fill-opacity=".1" d="M862 479q1-2 5 0l3 1c2 3 2 2 0 6l-9-4q3-1 2-3z"/><path fill="#fefefe" fill-opacity=".4" d="M854 479c1-2 7-3 8-3 1 2-5 2-5 3l3 1 2-1h1q1 2-2 3zM824 461c1-6 3 2 1 3z"/><path fill="#fefefe" fill-opacity=".3" d="M827 466q5-1 3 2z"/><path fill="#111010" d="M119 158q34-10 66 2l3-4 8 4-3 5q33 18 43 55 3 19 0 37c-2 1-3 16-7 14 0-1 6-15 3-16a87 87 0 0 1-36 57h1c0 2-5 4-7 4l1 1a93 93 0 0 1-67 10l-15-4-1 1 34 35-5 2v2l1 1q13-8 28-3c9 3 16 14 20 23 7 17 4 42-3 59l-10 17c13 2 13 7 19 16 9 15 10 25-8 34 12 18 33 41 51 52a134 134 0 0 0 75 20h9c19 3 29 18 25 37-9 22-26 21-47 19l-15-1q-13-2-25-6a202 202 0 0 1-127-93c-12 6-21 7-28-7-6-10-11-15-8-26l-14-1q-22-3-38-18l-4-5q6 2 11 2 11-2 17-11l2-3 2-8h3q12-1 21-9l4-8 1-4q0-5-2-10-2-1-3 1c2 5 2 6 1 12l-3 5-2 3-10 5c-17 5-33-11-44-22l-6-6-1-2-2-3v-1l-1 2c0-8-4-13 2-22q5-7 13-9 7 0 13 3l2-1v-1q-3-1-4-6-3-6 2-12c13-26 45-3 49-4 0-3-13-15-16-18l-41-42c-5-5-19-18-21-24-4-15 13-29 28-23l8 5c-12-27-2-67 18-87l1-4 3-3q2-2 3-1h1l9-7q11-7 23-10m28 246v1c0 4-7 5-3 8l6-8q4-8-2-3zm-47 2 1-2 1-2c0-4 2-6-2-5zm10 13q0-3-1-4l-2-2-1 1-1 1 1 1zm75 52-5-5q-5-3-10-2l-9 5-17 8-26 15-9 4-5 3-4 2q-4 5-4 13l3 5 1 1 3 6 3 5 1 2 4 4q4 2 8 1l8-3 10-5q19-9 37-19l2-1 5-3c7-4 13-6 14-15v-3l-3-5-3-6zM76 416q4 0 1-1z"/><path fill="#fefefe" fill-opacity=".9" d="M148 402q0 2 2 3l-6 8c-4-3 3-4 3-8v-1z"/><path fill="#fefefe" fill-opacity=".6" d="M100 397c4-1 2 1 2 5-3-4-2 0-1 2l-1 2z"/><path fill="#fefefe" d="M106 414zl2 2q1 1 1 4l-4-3q2 0 0-2"/><path fill="#fefefe" fill-opacity=".1" d="M148 402q6-5 2 3-2-1-2-3"/><path fill="#fefefe" fill-opacity=".7" d="m105 415 1-1q2 2 0 2z"/><path fill="#fefefe" fill-opacity=".5" d="M101 404c-1-2-2-6 1-2z"/><path fill="#fefefe" fill-opacity=".9" d="m76 416 1-1q3 1-1 1"/><path fill="#f07040" d="M119 158q34-10 66 2l3-4 8 4-3 5q33 18 43 55 3 19 0 37c-2 1-3 16-7 14 0-1 6-15 3-16a87 87 0 1 1-119-94c3-6 39-6 41-7q-15-1-28 3z"/><path fill="#201e1e" d="M119 158q34-10 66 2l3-4 8 4-3 5q33 18 43 55 3 19 0 37c-2 1-3 16-7 14 0-1 6-15 3-16a87 87 0 0 0-119-94c3-6 39-6 41-7q-15-1-28 3z"/><path fill="#111010" d="M138 166a76 76 0 1 1 18 150 76 76 0 0 1-18-150"/><path fill="#f07040" d="M140 171q21-2 39 6c22 10 39 32 41 55-4 1-16 1-18 3v2c2 1 14-1 18-1q-2 60-59 75-1-8-3-17v-1c-3 3-1 15 0 19-41 3-75-17-84-58h1c4-1 15-1 17-3l1-1-3-1-16 2c-4-42 22-73 63-80 0 4 1 14 3 16l2 1v-3z"/><path fill="#201e1e" d="M143 187c5 1 11 10 12 15v1c-3 0-7-7-9-9l6 39q6 2 8 6 2 9-6 12-3 2-8-1-11-8 1-17l-4-37-5 9h-1q0-8 5-16z"/><path fill="#93472e" d="m142 185 1 2-1 2v-4"/><path fill="#111010" d="M26 424c0-8-4-13 2-22q5-7 13-9 7 0 13 3l22 20q9 7 17 14l1 1c2 5 2 6 1 12l-3 5-2 3-10 5c-17 5-33-11-44-22l-6-6-1-2-2-3v-1z"/><path fill="#fefefe" d="M100 397c4-13 25-31 37-36v2l1 1-9 6-12 9c-10 9-20 21-10 34l-1 1-1 1q-4-4-5-9l1-2 1-2c0-4 2-6-2-5M56 394l17 15 6 5c5 5 15 11 18 16q-2-1-3 1l-1-1q-8-7-17-14 4 0 1-1l-1 1-22-20zM109 415q6 3 13 4 11-1 20-9l5-6v1c0 4-7 5-3 8q-16 14-34 6 0-3-1-4"/><defs><linearGradient id="k" x1="151.3" x2="139.1" y1="464" y2="535.5" gradientUnits="userSpaceOnUse"><stop offset="0" stop-color="#fffffe" stop-opacity=".6"/><stop offset="1" stop-color="#fefefe" stop-opacity=".8"/></linearGradient></defs><path fill="url(#k)" d="m161 469 9-5 1 1v1c3 3 7 0 7 4l1 2 1 1c0 3 1 1 2 2v2c-2 8 4 5 5 5v1l2 2v1h1v2l-1 1q1 1-1 4-2 0-2 2 0 4-2 3l-4-1-3 2-4 3q-1 2-3 2-1 3-3 3l-1 3 5 1h3q-18 10-37 19c1-3 5-2 7-5q2-2 0-4-5 1-10 4c-4 2-8 7-14 7l-7 1-2-1v-1l-1-2q-1-3-1-6-2-1-3-3l-1-4q-1-2-4-2-1-2 1-3h4c2-1-1-2-1-2l1-2 5-4 6-4c0-3 6-1 3-5l-2-2 26-15 2 3h4c3-3 3-4 8-5l4-3 2-1-2-2z"/><path fill="#f07040" d="m96 315 10 6-11 19c-5 2-9-2-9-4-1-2 9-19 10-21"/><path fill="#fefefe" fill-opacity=".6" d="m192 484 3 5-3 4q-2 2-4 2l-2 4-4 2-1 1c-1 3-6 1-6 3l1 5-2 1h-3l-5-1 1-3q2 0 3-3 2 0 3-2l4-3 3-2 4 1q2 1 2-3 0-2 2-2 2-3 1-4l1-1v-1q2-1 2-3M113 533l7-1c6 0 10-5 14-7q5-3 10-4 2 2 0 4c-2 3-6 2-7 5l-10 5c-2-7-14 0-8 3q-4 1-8-1z"/><path fill="#fefefe" fill-opacity=".5" d="m109 496 9-4 2 2c3 4-3 2-3 5l-6 4-5 4c-9 0-5 5-10 7q0-8 4-13v1q2 5 5 1l5-5z"/><defs><linearGradient id="l" x1="153.3" x2="154.7" y1="471.2" y2="477.4" gradientUnits="userSpaceOnUse"><stop offset="0" stop-color="#fff" stop-opacity=".6"/><stop offset="1" stop-color="#fff" stop-opacity=".7"/></linearGradient></defs><path fill="url(#l)" d="m144 477 17-8h1l2 2-2 1-4 3c-5 1-5 2-8 5h-4z"/><path fill="#fefefe" fill-opacity=".7" d="M96 514c5-2 1-7 10-7l-1 2s3 1 1 2h-4q-2 1-1 3 3 0 4 2l1 4q1 2 3 3 0 3 1 6l1 2-2-1c-2-2 0-4-2-6q-2-1-3-3 1-3-1-5-3-1-4 3z"/><defs><linearGradient id="m" x1="188.2" x2="184.9" y1="502.2" y2="499.4" gradientUnits="userSpaceOnUse"><stop offset="0" stop-color="#fffeff" stop-opacity="0"/><stop offset="1" stop-color="#fff" stop-opacity=".1"/></linearGradient></defs><path fill="url(#m)" d="M195 492c-1 9-7 11-14 15l-1-2q3-1 2-4l4-2c3 0 1-3 4-3q3 0 5-4"/><path fill="#fefefe" fill-opacity=".6" d="M182 477c4 1 3 3 7 1l3 6q0 2-2 3v-1h-1v-1l-2-2v-1c-1 0-7 3-5-5"/><path fill="#fefefe" fill-opacity=".5" d="M99 519q0-4 4-3 2 2 1 5 1 2 3 3c2 2 0 4 2 6l2 1v1h-1l-3 1-1-2q3-6-3-5l-2-3q3-8-1-3z"/><path fill="#fefefe" fill-opacity=".2" d="M170 464q5-1 10 2c0 6 2 3 4 5h1v1h-6l-1-2c0-4-4-1-7-4z"/><path fill="#fefefe" fill-opacity=".3" d="m185 471 4 7c-4 2-3 0-7-1v-2c-1-1-2 1-2-2l-1-1z"/><path fill="#fefefe" fill-opacity=".2" d="M119 538c-6-3 6-10 8-3z"/><path fill="#fefefe" fill-opacity=".1" d="m176 510-1-5c0-2 5 0 6-3l1-1q1 3-2 4l1 2z"/><path fill="#fefefe" fill-opacity=".4" d="m104 499 5-3 1 2-5 5q-3 4-5-1h1q3 3 3-3"/><path fill="#fefefe" fill-opacity=".1" d="m111 532 2 1-2 4-4-4z"/><path fill="#fefefe" fill-opacity=".3" d="M195 489v3q-2 4-5 4c-3 0-1 3-4 3l2-4q2 0 4-2z"/><path fill="#fefefe" fill-opacity=".2" d="M103 526q6-1 3 5zM104 499q0 6-3 3h-1v-1z"/><path fill="#fefefe" fill-opacity=".1" d="m180 466 5 5h-1c-2-2-4 1-4-5"/><path fill="#fefefe" fill-opacity=".4" d="M100 520q4-4 1 3z"/><path fill="#111010" d="M545 738c27-6 43-9 69-21l23 24q43 54 52 122c8 0 12 0 20 2 19-14 32-19 57-16 43 5 77 63 38 95-9 6-35 13-47 17l-59 20-41 14c-20 5-20-11-23-24l-6-30-6-30q-2-15 11-26a203 203 0 0 0-88-147m225 116q-14-3-30-1l1 1c5 2 24 1 29 0m-39 2-4 2q7 3 4-2m-8 4-3 1q6 3 3 0z"/><path fill="#fefefe" d="m740 853 1 1c5 2 24 1 29 0q41 11 48 53-58 23-115 43l-65 22-8-41c-5-23-11-34 13-49 15-9 46-20 63-14q-14 13-20 30c-1 5-4 11-1 15l1 1 3-13c4-15 18-32 31-40q6 3 3 0v-1l4-2q7 3 4-2z"/><path fill="#fefefe" fill-opacity=".6" d="M740 853q16-2 30 1c-5 1-24 2-29 0z"/><path fill="#fefefe" fill-opacity=".5" d="m727 858 4-2q3 5-4 2"/><path fill="#fefefe" d="m720 861 3-1v1q3 3-3 0"/><path fill="#111010" d="M422 728c21 6 38 10 59 12l-4 33c-9 46-28 80-57 116q4 5 5 11 30 5 46 30 15 23 9 51-5 21-24 35l-17 7v1h-15l-16-5c-9-4-17-13-26-19l-60-47-31-24c-5-3-6-11-4-16l11-13 20-20c16-17 28-40 55-26 28-35 50-80 49-126m-82 205 4 3 2 1 3 3 2 1 8 6 20 16 8 6 3 3 2 1 4 2 1 1 3 2c3 2 15 11 19 12l21 11 3 2 3 1 2 1 11 5q21-19 19-48v-3l-1-6-3-9-1-3v-1a65 65 0 0 0-21-25q-8-7-18-9-15-5-31-2l-13 3-5 3-11 6q-2 0-3-2l1-1c17-12 30-13 49-14v-1l-6-9q-19-22-46-33-10-5-21-1c-8 4-39 39-48 48l29 21 10 8z"/><defs><linearGradient id="n" x1="367" x2="430.2" y1="864.1" y2="1010.5" gradientUnits="userSpaceOnUse"><stop offset="0" stop-color="#fffefd" stop-opacity=".3"/><stop offset="1" stop-color="#fefefe" stop-opacity=".7"/></linearGradient></defs><path fill="url(#n)" d="m346 874 6-3 19 2 18 1c7 3 15 11 22 16l-3 9h13c-19 1-32 2-49 14v-5l-1 4h-1l1 2q1 2 3 2l4-1v1q3 3 5 0t2-4h2l-2-2 5-3h6c6 4 22 3 29 2q6-3 9 1c3 3 8 0 10 3l3 3 5 7c3 4 5 3 6 8l1-1v2q3 1 2 3l2 3q0 2 3 3l1 4h3c1 2-1 10-1 13v25l-1-1c-3 4-1 5-2 10l-4 5c-1-6-8-3-10 2l-5-2q-1 1-2-2l-5-2-4-2-5-1q-1-2-3-2l-5-3h-1q-2-2-5-2c-3-1-5-5-8-4-2 0-6-5-7-4v1h-1q-3-4-4 0l-1-1q2-3-4-2l-2-1q3-1 2-3-2-2-5 0l-8-6q2-1-1-3-2-1-2-3h-1l-1-1-2 2-13-11 1-2h1l-1-2q-3 2-5-1t-4-1l-2-1 4-3c-1 0-8-3-7 0l-2-1 2-2q-1-1-3-3l-3 2-1-1q4-5-1-6l-13-11q-2-5-8-9c2-4 9-10 11-15h1q1-2-2-5l3-4h1v1l4-2 7-4-4 4v1q4-1 7-4zm79 103c7 0 13 2 12-8s-6-15-6-26q5-3 7-8-7-7-15-12c-4-3-4-4-9-4q-5 1-8 5c0 7 9 8 10 11q-1 4-5 6c-1 0-6 5-5 6l6 14q1 8 7 13 2 2 6 3"/><path fill="#fefefe" fill-opacity=".7" d="M414 919c5 0 5 1 9 4q8 4 15 12-2 5-7 8c0 11 5 16 6 26s-5 8-12 8q-4-1-6-3-6-5-7-13l-6-14c-1-1 4-6 5-6q4-2 5-6c-1-3-10-4-10-11q2-4 8-5"/><path fill="#fefefe" fill-opacity=".3" d="M463 938zl3 1v1l1-2v1q3 2 5 1l1 3v5q-1 3 1 3l1 2 1-1-1 1 1-1 1 6-1-1-1 13-2 6-2 8q0 4-4 6 0 4-3 6l-1 3-5 3c-4-1-4-3-9-1h-3q2-1 5-3c2-5 9-8 10-2l4-5c1-5-1-6 2-10l1 1v-25c0-3 2-11 1-13h-3l-1-4q-3-1-3-3"/><path fill="#fefefe" fill-opacity=".2" d="M422 985h1l5 3q2 0 3 2l5 1 4 2 5 2q1 3 2 2l5 2q-3 2-5 3h3c5-2 5 0 9 1h-9l-4 1-3-1c5-4-2-5-3-2l-21-11c0-2 5-2 5-3z"/><path fill="#fefefe" fill-opacity=".3" d="m390 907 13-3 10 3h15c4-2 3-1 6-1q11 2 18 9l-1 2c-1 2-2-2-2-2l-2 1-3-3c-2-3-7 0-10-3q-3-4-9-1c-7 1-23 2-29-2h-6"/><defs><linearGradient id="o" x1="471.1" x2="459.4" y1="999.8" y2="981.8" gradientUnits="userSpaceOnUse"><stop offset="0" stop-color="#fff" stop-opacity="0"/><stop offset="1" stop-color="#fff" stop-opacity=".1"/></linearGradient></defs><path fill="url(#o)" d="M476 971c2-1 1-7 2-9q2 29-19 48l-11-5c6-2 14 1 16-4v-1l1-3q3-2 3-6 4-2 4-6l2-8z"/><path fill="#fefefe" fill-opacity=".1" d="m452 915 5 3-1 1v2l6 7c4 1 2 6 4 7 4 2 2 4 7 5v1q-2 1-5-1v-1l-1 2v-1l-3-1-1-1-2-3q1-2-2-3v-2l-1 1c-1-5-3-4-6-8l-5-7 2-1s1 4 2 2z"/><path fill="#fefefe" fill-opacity=".5" d="M401 976zv-1c1-1 5 4 7 4 3-1 5 3 8 4q3-1 5 2l2 2c0 1-5 1-5 3-4-1-16-10-19-12z"/><defs><linearGradient id="p" x1="417.9" x2="417.6" y1="903.4" y2="905.7" gradientUnits="userSpaceOnUse"><stop offset="0" stop-color="#fff" stop-opacity="0"/><stop offset="1" stop-color="#fff" stop-opacity=".1"/></linearGradient></defs><path fill="url(#p)" d="M403 904q15-3 31 2c-3 0-2-1-6 1h-15z"/><defs><linearGradient id="q" x1="464.8" x2="462.5" y1="928.4" y2="930.3" gradientUnits="userSpaceOnUse"><stop offset="0" stop-color="#fff" stop-opacity="0"/><stop offset="1" stop-color="#fff" stop-opacity="0"/></linearGradient></defs><path fill="url(#q)" d="M457 918q10 9 16 22c-5-1-3-3-7-5-2-1 0-6-4-7l-6-7v-2z"/><path fill="#fefefe" fill-opacity=".1" d="m325 915 13 11q5 2 1 6l-10-8c2-3-4-2-4-9"/><path fill="#fefefe" fill-opacity=".5" d="m374 916 11-6 2 2h-2q0 1-2 4t-5 0v-1z"/><path fill="#fefefe" fill-opacity=".4" d="M351 941q2-3 4 1 2 3 5 1l1 2h-1l-1 2z"/><path fill="none" d="M464 1000zc-2 5-10 2-16 4l-2-1 4-1h9z"/><path fill="#fefefe" fill-opacity=".5" d="m372 958 2-2 1 1h1q0 2 2 3 4 1 1 3z"/><path fill="#fefefe" fill-opacity=".3" d="M346 937c-1-3 6 0 7 0l-4 3z"/><path fill="#fefefe" fill-opacity=".1" d="m474 944 3 9-1 1 1-1-1 1-1-2q-2 0-1-3z"/><path fill="#fefefe" fill-opacity=".3" d="M440 1001c1-3 8-2 3 2zM340 933l3-2q2 2 3 3l-2 2z"/><path fill="#fefefe" fill-opacity=".2" d="m476 971 1-13 1 1v3c-1 2 0 8-2 9"/><path fill="#fefefe" fill-opacity=".5" d="M387 969q2-2 5 0 1 2-2 3z"/><path fill="none" d="M327 886q3 2 2 5h-1z"/><path fill="#fefefe" fill-opacity=".5" d="M392 973q6-1 4 2z"/><path fill="#fefefe" fill-opacity=".6" d="M397 976q1-4 4 0l-1 2z"/><path fill="#fefefe" fill-opacity=".3" d="m371 914-1-2h1l1-4v5z"/><path fill="#fefefe" fill-opacity=".1" d="m326 887 1-1z"/><path fill="#201e1e" d="M653 306h8l14 3a93 93 0 0 1 66 123l-2 6v1q-2 2-3 5l-2 2a93 93 0 0 1-65 44h-1l-2-1h-16v1l-4 1q-17-3-33-10a92 92 0 0 1-45-55q-8-30 1-59l8-17 10-13c19-19 38-30 66-31m-17 161c63-10 60-150-6-145-41 8-50 63-43 97 5 24 22 51 49 48"/><path fill="#51a9e7" d="M646 311a88 88 0 1 1 19 176 88 88 0 0 1-19-176m-10 156c63-10 60-150-6-145-41 8-50 63-43 97 5 24 22 51 49 48"/><path fill="#111010" d="M630 322c66-5 69 135 6 145-27 3-44-24-49-48-7-34 2-89 43-97m-38 99 1 3 7 17v1l3 4 1 1q21 28 50 7c-15-7-18-15-24-30v-1l-1-3-2-9-1-3c-1-10 0-16 1-26v-4l1-5q5-17 17-30l2-2q4-4 10-6-12-12-29-9l-1 1c-6 1-20 10-22 16l-8 13c-3 5-5 16-6 21-2 16-3 27 1 43z"/><defs><linearGradient id="r" x1="657.1" x2="591.7" y1="411.6" y2="364.3" gradientUnits="userSpaceOnUse"><stop offset="0" stop-color="#fffffe" stop-opacity=".5"/><stop offset="1" stop-color="#fffffe" stop-opacity=".7"/></linearGradient></defs><path fill="url(#r)" d="M605 343q0 3 2 2l1-1q1-3 4-3l3-3q4-1 5-4l5-3v-1c2-2 10-1 13-1 2 2-2 4-2 6q3 3 5 4l2 2 1 1 1 1q-12 13-17 30c-2 0-3-3-5 0s2 7 4 9c-1 10-2 16-1 26v-1l-2 3c-3 3-1 3-2 7l-2 7v8l-1 1h1q0 4 2 5h3q3 0 3 2 1 3 3 4t1 1c0 7-10-1-11-2-2-2 0-2-3-3q1-1 1-2l-3 1v-1l1-1h-4l-7-1c-8-3-6 1-6 5l-7-17q6-5-1-3v-29l1 2-1-3 1-6 1-8q-1-3-1-5h1l1 3 1-1 1 6c0 4 1 1 2 4v-7 2h-1l1-4 1-2q0-2 1-3 2-3 2-6l-1-4h-1v-1l-1-1v-2h-3z"/><path fill="#fefefe" fill-opacity=".2" d="m624 410 2-3v1l1 3c-2 0-5 8 2 9l1 3v1q-3 3-2 8l5 10c5 6-5 12-10 9-1-1-8 1-9 1l-7-5q-2-3-3 0l-1-1q2-4 5-1 3 2 5 0 4 0 8-2c1 1 11 9 11 2q1 0-1-1t-3-4q0-2-3-2l1-6q0-4 1-9l-2-2q-3-5-1-11"/><path fill="#fefefe" fill-opacity=".4" d="M605 343c2-6 16-15 22-16 3 0 12 0 14 2q-1 2 2 3t2 4 2 5l-2 2-1-1-1-1-2-2q-3 0-5-4c0-2 4-4 2-6-3 0-11-1-13 1v1l-5 3q-1 3-5 4l-3 3q-3 0-4 3l-1 1q-2 1-2-2"/><path fill="#fefefe" fill-opacity=".5" d="M597 356h3v2l1 1v1h1l1 4q0 3-2 6-1 1-1 3l-1 2-1 4h1v-2 7c-1-3-2 0-2-4l-1-6-1 1-1-3h-1q0 2 1 5l-1 8-1 6 1 3-1-2v-11q1-3-1-4c1-5 3-16 6-21"/><defs><linearGradient id="s" x1="654.8" x2="630.4" y1="331" y2="332.7" gradientUnits="userSpaceOnUse"><stop offset="0" stop-color="#fff" stop-opacity="0"/><stop offset="1" stop-color="#fff" stop-opacity=".1"/></linearGradient></defs><path fill="url(#s)" d="m627 327 1-1q17-3 29 9-6 2-10 6-3-2-2-5t-2-4q-2-1-2-3c-2-2-11-2-14-2"/><path fill="#fefefe" fill-opacity=".3" d="M625 438h-3q-2-1-2-5h-1l1-1v-8l2-7c1-4-1-4 2-7q-2 6 1 11l2 2q-1 5-1 9z"/><path fill="#fefefe" fill-opacity=".7" d="M591 377q2 1 1 4v39c-4-16-3-27-1-43"/><path fill="#fefefe" fill-opacity=".4" d="M601 441c1-4 3 0 4 0l13-1c3 1 1 1 3 3q-4 2-8 2-2 2-5 0-3-3-5 1z"/><path fill="#fefefe" fill-opacity=".5" d="M601 441q-1-4 3-4 2-1 4 1c0 2 6 1 8 1l3-1q0 1-1 2l-13 1c-1 0-3-4-4 0M627 382c-2-2-6-6-4-9s3 0 5 0l-1 5z"/><path fill="#fefefe" fill-opacity=".5" d="M600 441c0-4-2-8 6-5l7 1h4l-1 1h-8q-2-2-4-1-4 0-3 4z"/><path fill="none" d="M629 420c-7-1-4-9-2-9z"/><path fill="#fefefe" fill-opacity=".5" d="M608 438h8v1c-2 0-8 1-8-1M592 421q7-2 1 3z"/><defs><linearGradient id="t" x1="728.5" x2="835.6" y1="414" y2="458.3" gradientUnits="userSpaceOnUse"><stop offset="0" stop-color="#fff" stop-opacity=".2"/><stop offset="1" stop-color="#fffffe" stop-opacity=".7"/></linearGradient></defs><path fill="url(#t)" d="M754 353c2-3 4-9 6-10 5 1 5 6 8 8s7 0 13 2l10 8c3 2 7 0 9 3v7c-4 9 5 7 3 15l-2-2-1-1-3 1q1 1 1 3l3 2-1 5v1l1 1 1-1 5 1-2 5c-3 5 0 4 1 7 2 2 2-3 4 0q-2 3-1 6c2 3 4-1 6 3l1 1 2 2c3 2 3 5 6 1l7 8c-6 13-17 27-6 40v2c-2 1-8 8-2 7q1 1 3 1l-4 12-3 1-1 1v1l-1 1-2 1h-1v1l-1 1v1l-1 1 1 1q-2 0-3 3h-6l4 1c1 2-6 8-7 10-4 3-1 2-2 5h-5q2 2 3 1l-3 2c-4-2-8 3-8-2q0-4-3-7 3-5 1-8h-1q2 0 1-1h4l3-1h-20v-13q2-16 2-34v-11 1l1-1c1 4 1 0 1-1q2-5 1-11l-3-6h-2q2-3 1-6 1 0 2-1 3-4 1-9l4-3c2-1 7-10 5-10q-2 3-5 3v-1c0-1-3-3 2-4q3-1 1-4-2-1-1-4l1-6h-2q2 6-3 7 1-13-12-13l5-3q-5-2-11-3z"/><path fill="#111010" d="m39 479-2-1c-11-5-23-18-29-28q-4-9 0-19c1-4 11-11 16-9v1q0 2 3 5l5 7 2 2 4 4c10 10 16 15 29 19q-3 21-25 19z"/><path fill="#201e1e" d="M52 198q-5-8-6-17c-1-20 19-40 38-41q14 0 23 11l-14 12-2 2c0 5-11 9-8 11l-3 3h-5q-10 9-23 19"/><path fill="#fefefe" d="M91 165c0 5-11 9-8 11l-3 3h-5z"/><path fill="#fefefe" fill-opacity=".3" d="M771 505h13q1 1-1 1h1q2 3-1 8 3 3 3 7c0 5 4 0 8 2q0 3 1 4l-2 2q-6-2-11 1-4 1-6 4h-3q-4 2-5-2l1-8q2-5 2-9v-1l1 3 1 2c1-2-3-6-2-7l2 1q2-1-1-3v-2z"/><path fill="#111010" d="M196 312q15-10 24-24l2 2-1 3c3 5 21 13 17 20-5 9-13 0-17-4l-9-7c-5 5-14 13-21 15l-1-1c2 0 7-2 7-4z"/><path fill="#fefefe" d="M36 434c11 11 27 27 44 22a23 23 0 0 0 12-8l2 4q-9 8-21 9h-3l-2 8q-3 0-2 3-6 9-17 11-6 0-11-2l1-2h3q22 3 25-19c-13-4-19-9-29-19 0-5-2-3-2-7"/><path fill="#fefefe" fill-opacity=".3" d="M777 390q5-1 3-7h2l-1 6q-1 3 1 4 2 3-1 4c-5 1-2 3-2 4v1q3 0 5-3c2 0-3 9-5 10l-4 3q0 5-4 9l-1 5-1-7 1 1 2-8v-5q-1-2-3-3v-2h2q5-3 2-6v-1zM826 479c-3-4-1-7 3-1-1 2-3 10 1 9l-13 18q-3-1-7-1 1-3 3-3l-1-1 1-1v-1l1-1v-1h1l2-1 1-1v-1l1-1 3-1 1-1v-5l1-2 2-3z"/><path fill="#fefefe" fill-opacity=".2" d="m794 523 3-2q-2 1-3-1h5c1-3-2-2 2-5 1-2 8-8 7-10l-4-1h6q3 0 7 1-10 12-22 22-1 0-1-4"/><path fill="#fefefe" fill-opacity=".1" d="m573 354-3 4c0-1 3-4 0-4v-3l-2 2-1 1 2-5 1-3 5-7c2-1 10-13 12-5v3l-10 13h-1l1-6-4 2q-5 4 0 8m8-13q3-2 2-5-4 3-2 5"/><path fill="#fefefe" fill-opacity=".2" d="M583 336q1 3-2 5-2-3 2-5M810 395v3c-1 2-2 7 3 5l1 3q-3 5 3 5l7 10c-3 4-3 1-6-1l-2-2-1-1c-2-4-4 0-6-3q-1-3 1-6v1c1 9 3-2 2-3-4-3-6-4-2-11"/><path fill="#111010" d="M232 255c3 1-3 15-3 16 4 2 5-13 7-14-1 8-9 26-14 33l-2-2q9-15 12-33"/><path fill="#fefefe" fill-opacity=".3" d="M801 389c2 3 1 8 8 5l1 1c-4 7-2 8 2 11 1 1-1 12-2 3v-1c-2-3-2 2-4 0-1-3-4-2-1-7l2-5-5-1-1 1-1-1v-1zM771 497v7h20l-3 1h-17l1 3v2q3 2 1 3l-2-1c-1 1 3 5 2 7l-1-2-1-3-2-5z"/><path fill="#fefefe" fill-opacity=".1" d="m825 469 4 3c1 3 5 2 0 6-4-6-6-3-3 1q-1 0-3-1c-6 1 0-6 2-7z"/><path fill="#fefefe" fill-opacity=".6" d="M771 428h2l3 6q1 6-1 11c0 1 0 5-1 1v-10q-1 0-3 1l-1-7z"/><path fill="#fefefe" fill-opacity=".1" d="m769 509 2 5v1q0 4-2 9l-1 8-2-6z"/><path fill="#fefefe" fill-opacity=".6" d="m91 165 2-2c-2 5-3 4 3 5l-9 7h-1q-1-1-3 1c-3-2 8-6 8-11"/><path fill="#fefefe" fill-opacity=".1" d="m653 306 3-1q-3 0-3-4c4-4 12 1 8 5z"/><path fill="#fefefe" fill-opacity=".3" d="M798 387q0-2-1-3l3-1 1 1 2 2q-1 7 6 6v2c-7 3-6-2-8-5z"/><path fill="none" d="M767 405zv1h3l1 1v5l-2 8-1-1z"/><path fill="#fefefe" fill-opacity=".1" d="M773 395zq3 3-2 6h-2v2q2 1 3 3l-1-1h-3v-1l-1-1v1l-1-5z"/><path fill="#111010" d="m646 491 4-1v-1h16l2 1h1q-11 2-23 1"/><path fill="#fefefe" fill-opacity=".1" d="M803 386c2-8-7-6-3-15v-1c0 3 0 9 4 10l1 1v1c1 2-2 10 3 9l1 1q-7 1-6-6"/><path fill="#fefefe" fill-opacity=".9" d="M94 431q1-2 3-1 3 5 2 10c-3-2-3 3-3 4l-1-1c1-6 1-7-1-12"/><path fill="#fefefe" fill-opacity=".2" d="m741 432 1 2v1l-1 4c0 7-6 5-5 11q0 3-3 5l-1-1c5-6 3-2 2-8l2-2 2 1c3-4 2-3 1-6v-1z"/><path fill="#fefefe" fill-opacity=".7" d="M771 437q2-1 3-1v10l-1 1v-1 11z"/><path fill="#fefefe" d="M27 428c2 0 1 4 3 3v-3l6 6c0 4 2 2 2 7l-4-4v-3q-2-1-2 1z"/><path fill="#fefefe" fill-opacity=".2" d="M573 354q-5-4 0-8l4-2-1 6v-1l-1 1v-3q-2 1-1 4z"/><path fill="#fefefe" fill-opacity=".5" d="m770 426 1-5q4-5 4-9 2 5-1 9-1 1-2 1 1 3-1 6l-1 2z"/><path fill="#fefefe" fill-opacity=".7" d="m991 301 3 1h-1q-3-1-1 2 3 1 2-2l7 4q-5-2-5 1l-7-4q-2-2 2-2"/><path fill="#fefefe" d="M980 298q5 0 11 3-4 0-2 2l-6-2c0-2-2 0-3-3M95 443l1 1h2l-4 8-2-4z"/><path fill="#fefefe" fill-opacity=".7" d="m26 424 1-2v1l2 3 1 2v3c-2 1-1-3-3-3q-3-3-3-5z"/><path fill="#fefefe" fill-opacity=".2" d="m975 343 9 3q-2 4-6 1h-3z"/><path fill="#fefefe" fill-opacity=".3" d="M996 307q0-3 5-1l3 2-2 2z"/><path fill="#fefefe" d="m972 390 5 3-1 2-8-3q3 0 4-2"/><path fill="#fefefe" fill-opacity=".5" d="m984 346 4 2q-3 1-1 3l-9-4q4 2 6-1M965 388h1l5 1 1 1q-1 2-4 2l-4-1z"/><path fill="#fefefe" fill-opacity=".1" d="M739 439c1 3 2 2-1 6l-2-1q1-3 3-5M810 397l3 6c-5 2-4-3-3-5zM814 406l3 5q-6 1-3-5"/><path fill="#fefefe" fill-opacity=".5" d="M96 444c0-1 0-6 3-4l-1 4z"/><path fill="#fefefe" fill-opacity=".4" d="M737 450c0-4 3-1 1 2z"/><path fill="#fefefe" fill-opacity=".8" d="M32 435q0-2 2-1v3z"/><path fill="#fefefe" fill-opacity=".7" d="M410 7V3l1 3z"/><path fill="#fefefe" fill-opacity=".9" d="M66 472q-1-3 2-3z"/><path fill="#fefefe" fill-opacity=".5" d="M992 304q-2-2 1-2h1q1 3-2 2"/></svg>