<svg xmlns="http://www.w3.org/2000/svg" width="1024" height="1024" viewBox="0 0 1024 1024"><path fill="#03040e" d="m625 129-7 29q-7 71 31 131 20 33 47 59 20 19 39 40c40 48 53 113 39 173-2 5-6 17-6 21l3 2 1 1 11 5q26 11 50 0c-9-13-16-29 0-42q-9-21 0-44c5-8 18-15 25-21l-4-34c1-11 34-14 41-14q35-3 67 5c5 1 11 4 10 9l-3 27q19 5 15 22c-1 4-6 8-4 11 4 8 10 11 6 20q-3 7-10 12 7 5 9 13 0 6-4 12-9 9-22 6c-1 8-1 20-8 25-12 8-45 7-59 5-8 15-21 14-35 8l-11 8c-26 13-67 8-89-11l-16 27a239 239 0 0 1-106 85l-10 4c1 14 6 40 8 52 10 2 15 4 18 15l-4 9 4 3a50 50 0 0 1 44-3l6 4h-1q3 2 6 2c9 4 19 17 19 27 1 13-10 25-23 25h-90c-24 1-36-24-23-44 11-16-16-25 13-37l-1-9-5-36c-32 6-49 6-82 3q-2 22-6 42c13 5 19 15 9 26 0 8 6 13 8 20 4 13-3 29-16 34q-12 2-25 2h-69l-15-3q-8-5-12-15c-5-21 16-39 34-43 12-2 27-2 37 5q4-2 7-2h1l3 2c12 5 59 9 49-16q-4-6-10-8-8 16-26 9-6-3-7-11v-1c2-1 8-41 9-47l-22-8c-53-20-98-63-122-114-46 25-98 35-134-11q-9 1-12 3c-2 12-16 8-18-2l-6-11q-43 7-76-21c-5 3-12 13-18 11-14-4 0-21 4-28l-7-11c-6 0-17 0-23-3q-7-3-10-10-5-20 15-26c-13-7-16-21-5-32q9-7 21-4 8-19 24-33l-4-6c-6 2-27 19-31 12-9-14-4-30 9-40l-1-8c3-15 17-19 28-10 11-4 35-6 40 14 0 3-19 15-24 17l5 7q29-13 61-5 6 2 11 3l2-2v-1l17 11-1 2v1l8 7q9 8 17 19 6-8 15-9c10-1 22 2 22 14 0 11-9 17-12 27v15q3 21-10 39c10 17 2 29-9 41q7 14 22 19c18 6 39 1 55-8l15-8c-6-22-10-50-12-72-1-10 8-56 11-66a487 487 0 0 1 235-281l42-22zM56 497q-19 6-15 26 3 7 10 10c6 3 17 3 23 3l7 11c-4 7-18 24-4 28 6 2 13-8 18-11q33 28 76 21l6 11c2 10 16 14 18 2q3-2 12-3c36 46 88 36 134 11 24 51 69 94 122 114l22 8c-1 6-7 46-9 47v1q1 8 7 11 18 8 26-9 6 2 10 8c10 25-37 21-49 16l-3-2h-1q-4 0-7 2c-10-7-25-7-37-5-18 4-39 22-34 43q4 10 12 15l15 3h69q13 1 25-2c13-5 20-21 16-34-2-7-8-12-8-20 10-11 4-21-9-26q4-20 6-42c33 3 50 3 82-3l5 36 1 9c-29 12-2 21-13 37-13 20-1 45 23 44h90c13 0 24-12 23-25 0-10-10-23-19-27q-3 0-6-2h1l-6-4-6-2q-21-5-38 5l-4-3 4-9c-3-11-8-13-18-15-2-12-7-38-8-52l10-4q23-9 44-24 36-24 62-61l16-27c22 19 63 24 89 11l11-8c14 6 27 7 35-8 14 2 47 3 59-5 7-5 7-17 8-25q12 3 22-6 4-6 4-12-1-8-9-13 6-4 10-12c4-9-2-12-6-20-2-3 3-7 4-11q5-17-15-22l3-27c1-5-5-8-10-9q-32-8-67-5c-7 0-40 3-41 14l4 34c-7 6-20 13-25 21q-9 23 0 44c-16 13-9 29 0 42q-24 11-50 0l-11-5-1-1h-2l-2-4c-16 39-28 61-59 90l-1-1h-2l-36 17q-41 15-84 15c-61 1-120-22-164-66-46-45-65-103-65-167h1l-8 2c-10 2-23 14-23 24v21l-4 3c-2 12 7 47 10 60l-1 1-15 8c-16 9-37 14-55 8q-15-5-22-19c11-12 19-24 9-41q12-18 10-39v-15c3-10 12-16 12-27 0-12-12-15-22-14q-9 1-15 9-8-11-17-19l-8-7v-1l1-2-17-11v1l-2 2q-5-1-11-3-32-8-61 5l-5-7c5-2 24-14 24-17-5-20-29-18-40-14-11-9-25-5-28 10l1 8c-13 10-18 26-9 40 4 7 25-10 31-12l4 6a83 83 0 0 0-24 33q-12-3-21 4c-11 11-8 25 5 32m566 122q13-13 19-30c-47 8-102 5-143-24l-6-4c-8 50 41 83 86 79 13-1 20-2 31-10zM327 477l1-2c6-6 14-13 23-13l3 1q-22 3-31 22l-2 6v24c5-1 3-14 4-19l1-7q2-7 8-11c11-12 18-11 33-11h38c3 0 13 1 15-2q-4-3-8-2l8-1q4-21 16-38a77 77 0 0 1 138 36h8c1-29 28-59 56-66l27-3a80 80 0 0 1 73 66h32q-12-43-43-76l-37-37q-23-24-41-52-36-55-33-123 2-19 7-38a586 586 0 0 0-239 195q-35 51-52 110-5 20-7 38c-2 1-1 8 2 3m339-12c0-17-5-51-26-53q-7 1-11 5c-18 22-18 70 0 90 6 6 16 7 22 0 12-8 14-29 15-42m-214 67 1 1a80 80 0 0 0 43 14l11-1h4l6-2h1a71 71 0 0 0 26-13l1-2q14-10 20-24l3-7 1-2c2-5 4-14 4-19q0-5-3-6v-4l-1 15-2 7-2 8-4 7q-7 15-21 25l-2 1-5 3-4 2q-10 5-22 7a74 74 0 0 1-38-5l-5-3-4-2-9-6-4-4-4-3-2-3-2-3q-8-12-12-25-2-10-2-21l1-8v-1c3-11 4-14 9-23v-1l6-8 2-2q6-7 13-12l6-4q11-5 24-8l8-1 18 1 6 2q10 3 19 9l7 4v1l3 3 3 3 3 2 1 2 1 1 2 1h3l-3-4-2-3-1-1-3-3-8-7-2-2-7-4-3-1q-4-3-9-4a77 77 0 0 0-47-1l-2 1-6 2-12 7q-10 7-17 16l-1 1-8 13-6 17v1l-1 1-1 10 2 17 1 5c3 18 15 33 28 43m250-2-8 4q-11 6-23 8l-16 1-24-6-8-4h-1c-5-2-15-12-19-16l-10-17-2-5-3-11-2-8 1-15v-2l1-5 2-9 1-1 4-9 1-1 10-13 2-3 8-7q44-28 88 0l1 1 12 12 3 4h1c6 14 12 21 12 37l-1 17-1 5c-4 15-16 34-29 43m-198 11a71 71 0 1 0-13-140 71 71 0 0 0 13 140m231-52a77 77 0 1 0-150-39 77 77 0 0 0 150 39m29-31h-26l18 1-12 2h3l9 1h7q6 1 8-2-2-3-7-2m-199-22-1-1v-1l-3-5v7l4 11 4-1-1-4z"/><path fill="#030301" d="m70 394-1-8c3-15 17-19 28-10 11-4 35-6 40 14 0 3-19 15-24 17l5 7q29-13 61-5 6 2 11 3l2-2v-1l17 11-1 2v1l8 7q9 8 17 19 6-8 15-9c10-1 22 2 22 14 0 11-9 17-12 27v15q3 21-10 39c10 17 2 29-9 41q7 14 22 19c18 6 39 1 55-8l15-8 1-1c-3-13-12-48-10-60l4-3v-21c0-10 13-22 23-24l8-2h-1c0 64 19 122 65 167 44 44 103 67 164 66q44 0 84-15l36-17h2l1 1c31-29 43-51 59-90l2 4h2l1 1 11 5q26 11 50 0c-9-13-16-29 0-42q-9-21 0-44c5-8 18-15 25-21l-4-34c1-11 34-14 41-14q35-3 67 5c5 1 11 4 10 9l-3 27q19 5 15 22c-1 4-6 8-4 11 4 8 10 11 6 20q-3 7-10 12 7 5 9 13 0 6-4 12-9 9-22 6c-1 8-1 20-8 25-12 8-45 7-59 5-8 15-21 14-35 8l-11 8c-26 13-67 8-89-11l-16 27a239 239 0 0 1-106 85l-10 4c1 14 6 40 8 52 10 2 15 4 18 15l-4 9 4 3a50 50 0 0 1 44-3l6 4h-1q3 2 6 2c9 4 19 17 19 27 1 13-10 25-23 25h-90c-24 1-36-24-23-44 11-16-16-25 13-37l-1-9-5-36c-32 6-49 6-82 3q-2 22-6 42c13 5 19 15 9 26 0 8 6 13 8 20 4 13-3 29-16 34q-12 2-25 2h-69l-15-3q-8-5-12-15c-5-21 16-39 34-43 12-2 27-2 37 5q4-2 7-2h1l3 2c12 5 59 9 49-16q-4-6-10-8-8 16-26 9-6-3-7-11v-1c2-1 8-41 9-47l-22-8c-53-20-98-63-122-114-46 25-98 35-134-11q-9 1-12 3c-2 12-16 8-18-2l-6-11q-43 7-76-21c-5 3-12 13-18 11-14-4 0-21 4-28l-7-11c-6 0-17 0-23-3q-7-3-10-10-5-20 15-26c-13-7-16-21-5-32q9-7 21-4 8-19 24-33l-4-6c-6 2-27 19-31 12-9-14-4-30 9-40m29 63 8 6c-2 1-6-3-9-4l-5 11v9l2 1 9 1v4q-2 2-5 1l-5-1h-1l-3 5q-3 8-1 16v3-1l1 4 1 6 6 12 4-3h1l5-3v2l-3 1-1 1c-2 1-6 2-4 5l4 6q6 9 14 13h1l2-4 4-5h1l-4 5-1 2-1 1-1 2a48 48 0 0 0 20 9l7 2c3 1 29 1 27-3l-2-10 1-1 1 2 2 10c10-3 14-6 23-11-2-2-9-8-8-11h1q2 4 8 10a69 69 0 0 0 23-73l-8 2h-2l-1-1 10-3v-1c-2-5-5-16-11-19l-10-10-6-6-5-4c-5-3-15-7-21-5q-5-1-11-3l-12 1h-1l-1 1h-1c-5 0-3 3-2 7l1 1v3h-1c-6 0 1-9-7-8h-1l-2 1c-3 5-9 2-10 9l3 2 2 4v3h-1s0-5-2-6q2 2 0 5l-3-4q-3-2-2-4l-1-1c-4 1-14 13-16 16m44 96q-2-8 4-6 3 1 1 6v6h-5l-1-1zm-10-75q-6-10-14-18l-1-2 10 6 11 5c2 5 1 6 5 10l3 4 1 1 3 2q5-4 9-1l1 1 15-10 5-5q-1-4 3-3l1-1 7-3 4-2-5 5-5 8c-7 0-8 1-13 6l-6 3c-9 7-1 3-4 11l-4 4-2 1q-6 0-9-5-1-4 1-8c-7-5-7-8-16-9m703 25-4 9-1 8a63 63 0 0 0 5 31v1l4 8h-1l-3-5-1-1-2-3-1 1q-6 5-7 11v9l1 2 5 11 7 8 10 9 4 4h1l11 5 7 2c9-1 15-2 20-11h-1c-8-2-11-2-17-8v-1l-2-4v-1l-1-3-1-10q-15 0-18-15 3 2 4 7 2 3 6 5c7 2 8 3 7-5v-2l-1-8-3-19v-1c-6-4-1-4-5-10h-2c-2-2 2-3 3-5 5-5 4 0 8-7l9-4 2-2v-1l1-1 2-1v-2h-1q2-2 2 1-1 3-3 4c0 2-7 5-7 6h1l9-8q5-6 4-14-1-5-3-8 1 3-1 4v-4l-4-5-11-1h-1l-1 1-5 3-2 1-9 7-3 2-1 1h-1l-3 2zm-674-68v-3l1-1h4c1 2-1 11-1 13h-1c-7-1-4-1-3-9m-77 71q-3-5-10-6c-11-1-21-5-29 5-9 11-2 28 11 29 8 0 17 3 24-3q8-5 7-15 0-6-3-10m6-35q-4-7-13-8-9-2-18-1c-12 4-18 16-11 27 6 10 20 8 30 8 13-5 14-14 12-26m498 320q2 6 7 11 20 7 39 1c19-5 18-23-2-27q-1 7-6 11c-7 5-18 3-23-4l-2-6c-7 4-11 6-13 14m395-274q-4-6-10-7c-11-1-21-2-24 11-5 15 17 23 27 16h-1c1-1 8-4 7-6 0 0-4 0-3-1h2l1-7q-1-4 1-6m-778-13 2-6 7 1h4v6h-2zm746 64c10 3 21 6 28-3l2-3c1-6 2-8-1-14l-2-2c-5-4-1-3-8-5-11-1-23-2-25 12q-1 9 5 14zM233 450c14 28 15 47 7 76v1q-3 3-3 7a90 90 0 0 1-45 44l3 17 13-2q17-6 31-20c9-9 16-21 9-34v-1l-2-1 1-2 1-2c14-22 6-31 9-53 3-11 19-25 7-35-10-8-24-4-31 5m735 36v1l-1 5c4 4-2 8 4 16q2 1 5-2c7-3 10-14 5-20l-1-1q-3-5-7-6l-3-1v1zm-779-40-1 2-1-1 4-8 1 1zm768 126-8-3-1 4v9c0 1 7 2 6-1l1-2v1h1v-4zM209 456q-3 4-8 5l1-1 5-4zm648 0v6c2-4 2-3 0-6"/><path fill="#10228e" d="m349 470 8-2h-1c0 64 19 122 65 167 44 44 103 67 164 66q44 0 84-15l36-17h2l1 1-12 12a231 231 0 0 1-353-77c6-3 22-11 25-18q4-14-9-20c-11-4-18 7-27 11-3-13-12-48-10-60l4-3v-21c0-10 13-22 23-24"/><path fill="#1830bc" d="m192 409 17 11-1 2-10-5c-7-5-6-1-6-7z"/><defs><linearGradient id="a" x1="196.2" x2="95.6" y1="526.6" y2="461.8" gradientUnits="userSpaceOnUse"><stop offset="0" stop-color="#fffffe" stop-opacity=".4"/><stop offset="1" stop-color="#fff"/></linearGradient></defs><path fill="url(#a)" d="M132 432c8-1 1 8 7 8h1v-3c5 0 4 5 11 3l3-1q1 4 4 5c3-1 1-8 4-9-1 8-4 8 3 9-6 4 1 5 3 7 2 4 9 2 10 7q3 3 2 6l-5 6 2-3c-2-1-2 3-3 4h-2l-2 1c-2 0-4-3-6 1v3c-2 2 1 4 0 4q-2-1-6 0 1 3-3 2-2-2-1-2-2-2-5-2c-1 0 1-2-2-1l-1-2h-2q-3-1-2-6c-1-2-6-5-7-4l2 2h-1l-5-2c0-1 4-2 2-3q-1 1-4 1l-2-2q-3-2-6-4l-1-1c-4-2-7 3-1 4q8 8 14 18c9 1 9 4 16 9q-2 4-1 8-4 1-1 4 2 3 1 7 5 1 9-2l5 1c5-4 9-5 7-12 2-5 1 3 7 5l-2-4 11-5c5 2 9-5 13-7l2-1 4 2 2 1c1 0 2-5 7-1l3 2v3l-3 1c-3 0-6 7-7 8q-8 4-7 14l4 2q-1 2-3 3l-2-1v4q2 3 0 5-6 4-11 10l-6 2v1h-1v-1q-5 2-9 6l-3 5 4 2v3l-1-2-1 1c-2 1-2-1-2 2-2-4-3 0-8-2-2-6-4-5-4-6l1-1c0-1-5 2-4 4q-1 3-5 5 3-5-1-6c-1-4-3-2-4-3q-2-1-2 3l2 6-1 5v-6h-1l-2-1-2-2h-1q-3-1-4 1l-1-3q0 2-3 2c-3-5-1-2-7-1l4-5h-1l-4 5v-6l-2-5q1-5 0-8l-1 1-2-2v-4h1l-3-1q-4-1-3-4l-1-4c1-5-1-4-3-6-3-5 2-4 1-5l-2-1q5-3 6-9l-7-9v-4l-9-1h8l-2-4-6 1v-1q1-3-2-6l5-11c3 1 7 5 9 4l-8-6c2-3 12-15 16-16l1 1q0 2 2 4l3 4q1-3 0-5c2 1 2 6 2 6h1v-3q5 2 8-3h2q-2-2-5 1-2 3-4 1-1-4 2-6l2-4q2-3 5-2-2 2 1 5l2 1c-4-6 2-6-5-9m-30 38zq4-4-1-6-2-1-3-3l-1 1q-6 9 4 8m45 73a2 2 0 1 0-1-2z"/><path fill="#fefefe" fill-opacity=".5" d="M99 461q1 2 3 3 5 2 1 6h-1q-10 1-4-8zM145 541a2 2 0 1 1 2 2z"/><path fill="#f9c342" d="M146 408c10-2 27 0 36 4 47 16 72 63 57 111a87 87 0 0 1-163 12q8-3 12-10c9 19 18 28 37 38 37 20 85-2 99-41a74 74 0 0 0-89-97c-23 6-36 21-47 41-6-5-7-5-14-5q4-11 11-20 24-29 61-33"/><path fill="#a0cce8" d="M956 491c1 3-1 15-2 19q-7 6-7 15l-10-26-28 12 11 28 27-12c8 14 5 10-2 23q-1 9 3 17l-3 12c-8 12-25 10-38 10-22-1-25-7-28-27l-3-28q-1-8-3-16c11-7 16-10 16-24 18 3 51 4 67-3"/><path fill="#030301" d="m893 535 20 6 9 2-6 23v2l-1 5-29-8z"/><path fill="#fefefe" d="m894 537 26 8-7 26-21-6-4-1 4-18 1-3v-2l1-3z"/><defs><linearGradient id="b" x1="830.2" x2="880.1" y1="587.6" y2="482.5" gradientUnits="userSpaceOnUse"><stop offset="0" stop-color="#fff" stop-opacity=".8"/><stop offset="1" stop-color="#fff" stop-opacity=".9"/></linearGradient></defs><path fill="url(#b)" d="m866 480 1-1h1l11 1 4 5v4q2-1 1-4 2 3 3 8 1 8-4 14l-9 8h-1c0-1 7-4 7-6q1-1 3-4 1-3-2-1h1v2l-2 1-1 1v1l-2 2-9 4c-4 7-3 2-8 7-1 2-5 3-3 5h2c4 6-1 6 5 10v1q-1 2-1 6c0 1 2 16 4 13l1 8q-1 3-6 1c-1 0-1-4-3-4q-3 0-3 2v3h-1q-1-5-4-7 3 15 18 15l1 10h-3c-3 0-2 5-3 7l-2 2-2 1-3 3h-5l-4-2-5-5c-2-1-6-8-7-2l-1 1-4-5 1-2 1 1q2 1 3-3 0-2-2-3-2 0-1-2 0-4 3-7t4-9l-4-8q3 0 3-3l-2-2-1 4q-4-7-5-16c1-2 3-14 0-15l1-8q6-1 4-9l6-7c3 6 5 1 7 0 4-1 2-6 5-5q4 1 7-2c4-2 3-3 5-5q5-2 0-4m0 101q4-4-1-5-5 3 1 5m4-94q-1-2-3-2v1q0 2 3 1"/><path fill="#fefefe" fill-opacity=".5" d="M865 576q5 1 1 5-6-2-1-5"/><path fill="#fefefe" fill-opacity=".9" d="M867 485q2-1 3 2-3 1-3-1z"/><path fill="#e5f0f5" d="M857 456v-3l7 2c30 8 79 10 107-4q-4 29-7 56l-8 2 3-22c-14-12-58-10-74-6-11-8-15-7-25 1l-3-20c2-4 2-3 0-6"/><path fill="#f9c342" d="M106 375q20-3 30 15l-15 11-57 34-1-1c-8-10-6-24 2-33l5-6c9 7 22-4 28-10q2-3 1-8z"/><path fill="#e5f0f5" d="M909 436c10-1 60 1 62 12-4 9-43 11-53 12-11 0-60-1-62-13 4-9 43-11 53-11M864 524l8-5 2 16 3 27c2 17 5 28 26 28 16 1 37 4 45-13v5c0 1 7 2 6-1l1-2v1h1c0 3-1 10-3 12-11 13-37 10-53 10-8-1-24-3-27-12-2-5-2-16-3-22z"/><path fill="#3055cc" d="M147 424c8-2 22 0 29 2 56 17 70 90 24 127a72 72 0 0 1-108-23q-3-5-2-11l7 14a70 70 0 0 0 67 32q30-4 47-27c23-30 16-76-14-98a69 69 0 0 0-103 22q-1 4-3 7c-3-5 5-14 7-18q19-23 49-27"/><defs><linearGradient id="c" x1="976.6" x2="957.4" y1="511.8" y2="536" gradientUnits="userSpaceOnUse"><stop offset="0" stop-color="#fff" stop-opacity=".9"/><stop offset="1" stop-color="#fff"/></linearGradient></defs><path fill="url(#c)" d="M977 537c-10 7-32-1-27-16 3-13 13-12 24-11q7 1 10 7-2 2-1 6l-1 7h-2c-1 1 3 1 3 1 1 2-6 5-7 6z"/><path fill="#a0cce8" d="M904 480c8-2 49 0 52 7-2 4-13 5-17 6-18 2-32 2-50 0 0-6 0-6-3-11z"/><path fill="#fefefe" d="m936 501 10 25-25 11-10-25z"/><path fill="#fefefe" fill-opacity=".7" d="M951 567q-6-6-5-14c2-14 14-13 25-12l-1 6c1 1 8 5 9 4v-5l2 2-2 8-1 1q1 5 4 5l-2 3-5-2c-5-1-6 1-12 1 0-2-6-1-8-4q0-2 2-3c0-2-4 1-5 1q-1-1 2-4 1-1-2-1 0 3-3 4v4c1 4 2 2 2 6m4-19q3-4-2-4-3 4 2 4m9-5c2-2-3-2-4-2v2z"/><path fill="#fefefe" fill-opacity=".6" d="M953 544q5 0 2 4-5 0-2-4"/><path fill="#fefefe" fill-opacity=".8" d="M960 541c1 0 6 0 4 2h-4z"/><path fill="#030301" d="m119 460-1-2 10 6 11 5c2 5 1 6 5 10l3 4 1 1 3 2q5-4 9-1l1 1 15-10 5-5q-1-4 3-3l1-1 7-3 4-2-5 5-5 8c-7 0-8 1-13 6l-6 3c-9 7-1 3-4 11l-4 4-2 1q-6 0-9-5-1-4 1-8c-7-5-7-8-16-9q-6-10-14-18"/><path fill="#1830bc" d="M85 372q7 0 12 6c5 6-9 14-14 16-13 6-15-4-10-15q4-6 12-7M189 580q2-1 2 2c0 3 3 14 2 17-1 6-8 7-12 2l-9-16z"/><path fill="#fefefe" fill-opacity=".2" d="m216 485 3 2-1 1-2 7-2 3 1 1-7-1-2 6-1 2c2 3 3 2 4 5q-5 5-6 11h1l-1 1q-4 11-13 17h-1q-4-1-6 3l-5 4c-4 4-2 2-6 3v-1l4-6 8-5c2-2 4 3 7-3q1-3 4-5l2-1 2-2 1-2 2-4-2-5q2-1 3-3l-4-2q-1-10 7-14c1-1 4-8 7-8l3-1z"/><path fill="#fefefe" fill-opacity=".6" d="m166 444 2 1 9 2c2 0 5 3 7 0v1q1 2 3-1l1 1c-4 7 6 5 0 12-3 3 2 4 4 4l-7 3-1-2h-1q-2 1 1 3-4-1-3 3l-5 5c-7-2-1-3-1-6l5-6q1-3-2-6c-1-5-8-3-10-7-2-2-9-3-3-7z"/><path fill="#1830bc" d="m82 549 5 7 7 7-11 9c-8 6-15-5-8-12z"/><path fill="#fefefe" fill-opacity=".1" d="m173 481 3 1 4-2h3l5-1q2-1 4-1c4 2 4-3 8-2 3 0 3 4 6 4q2 0 3-2v1l1 1v-2l1 1h2v4c-5-4-6 1-7 1l-2-1-4-2-2 1c-4 2-8 9-13 7 0-4-1-1-3-2-3 0-1-2-2-3l-4 1c-4 1-2 3-7 3-3 3 0 4-3 6-6-2 0-5 1-10z"/><defs><linearGradient id="d" x1="107" x2="115.7" y1="535.8" y2="537.8" gradientUnits="userSpaceOnUse"><stop offset="0" stop-color="#fff" stop-opacity=".4"/><stop offset="1" stop-color="#fffffe" stop-opacity=".5"/></linearGradient></defs><path fill="url(#d)" d="M109 524q3 2 3 6 3 1 4 3c0 8-2 5 3 9h1v6l-2 4h-1q-8-4-14-13v1q6 1 4-3c-1-2-5-1 1-7q3-2 1-6m6 25h1q5-4 0-6h-1q-6 4 0 6"/><path fill="#fefefe" fill-opacity=".3" d="M115 543h1q5 2 0 6h-1q-6-2 0-6"/><path fill="#fefefe" fill-opacity=".7" d="m104 485 7 9q-1 6-6 9l2 1c1 1-4 0-1 5 2 2 4 1 3 6l1 4q-2 3 3 4l3 1h-1v4l-3-4h-5l-5 3q0-1 2-3l3-5-2-6q-2-2-3-6l1-3h-5q9-6 5-16h-3l-1-2q3 1 5-1"/><path fill="#fefefe" fill-opacity=".8" d="m170 472 2-1h2c1-1 1-5 3-4l-2 3c0 3-6 4 1 6l-15 10-1-1q-4-2-9 1l-3-2h1c5-2 1-5-2-1l-3-4v-4h2l1 2c3-1 1 1 2 1q3 0 5 2-1 0 1 2 4 0 3-2 4-1 6 0c1 0-2-2 0-4q5 1 6-4"/><path fill="#fefefe" fill-opacity=".3" d="m168 547 3-5q4-4 9-6v1h1v-1l6-2q5-6 11-10 2-2 0-5v-4l2 1 2 5-2 4-1 2-2 2-2 1q-3 2-4 5c-3 6-5 1-7 3l-8 5-4 6z"/><path fill="#fefefe" fill-opacity=".4" d="M148 553q4-2 5-5c-1-2 4-5 4-4l-1 1c0 1 2 0 4 6q0 2 3 1 3 0 5 2l2 4v4l2-1c2 4-24 4-27 3-4-4-3-1-2-5h5l-1 1-4 1c0 3 16 3 18 3 7-1 9-10 1-8-1 1-4-4-6-1-3 5-4-5-7-1h-1v1z"/><path fill="#fefefe" fill-opacity=".2" d="M963 564c6 0 7-2 12-1l5 2c-7 9-18 6-28 3q-1-4 4-4zm-2 4q5-2 0-2-10 2 0 2"/><path fill="#fefefe" fill-opacity=".1" d="M961 566q4 0 0 2-10 0 0-2"/><path fill="#3055cc" d="m112 409 4 6q-10 4-19 12l-4-6z"/><path fill="#fefefe" fill-opacity=".5" d="m870 585 1 3h-1q-4 3-3 8c0 5-8 4-11 9l-4 1-4-4c1-4 7 0 4-4h5l3-3 2-1 2-2c1-2 0-7 3-7z"/><defs><linearGradient id="e" x1="88.9" x2="98.2" y1="495.5" y2="496.5" gradientUnits="userSpaceOnUse"><stop offset="0" stop-color="#fff" stop-opacity="0"/><stop offset="1" stop-color="#fff" stop-opacity="0"/></linearGradient></defs><path fill="url(#e)" d="M89 506q-2-8 1-16l3-5h1l2 4c1 3-1 5 2 6q4 3 0 6-3 1-1 3z"/><path fill="#fefefe" d="M867 479c15-7 25 13 19 25-4 11-22 16-29 23-2-2 2-3 3-5 5-5 4 0 8-7l9-4 2-2v-1l1-1 2-1v-2h-1q2-2 2 1-1 3-3 4c0 2-7 5-7 6h1l9-8q5-6 4-14-1-5-3-8 1 3-1 4v-4l-4-5-11-1z"/><path fill="#fefefe" fill-opacity=".4" d="m157 500 2-1 4-4c3-8-5-4 4-11-1 5-7 8-1 10 3-2 0-3 3-6v5c2 7-2 8-7 12l-5-1h-1c-1 0-6 0-4-3z"/><defs><linearGradient id="f" x1="871.9" x2="861.5" y1="604.6" y2="608" gradientUnits="userSpaceOnUse"><stop offset="0" stop-color="#fff" stop-opacity=".2"/><stop offset="1" stop-color="#fff" stop-opacity=".3"/></linearGradient></defs><path fill="url(#f)" d="M870 588zv9c1 4 4 6 1 10q-3 2-2 4l1 1-7-2c-1-3-1-1-3-3-1-1-4-3-1-4q5 0 9-4 1-3-1-6z"/><path fill="#fefefe" fill-opacity=".3" d="m188 448 1-2v4h7c-2 0-6 1-1 2-3 1-4 11 2 6q4-3 10-2l-6 5-5 1-4 2c-2 0-7-1-4-4 6-7-4-5 0-12"/><defs><linearGradient id="g" x1="967.3" x2="976.9" y1="499.4" y2="491.7" gradientUnits="userSpaceOnUse"><stop offset="0" stop-color="#fff" stop-opacity=".4"/><stop offset="1" stop-color="#fff" stop-opacity=".4"/></linearGradient></defs><path fill="url(#g)" d="m968 491 2 2q4 0 3-4 0-4 1-2l1 7v7l3 1-2 2h1l-1 1v1q-3 3-5 2c-6-8 0-12-4-16l1-5z"/><path fill="#fefefe" fill-opacity=".4" d="M981 486c5 6 2 17-5 20v-1l1-1h-1l2-2-3-1v-7l-1-7 1 1c0 2 1 6 5 4zm-2 14q2-4-1-4c-1 1-3 5 0 4z"/><path fill="#fefefe" fill-opacity=".1" d="M978 496q3 0 1 4h-1c-3 1-1-3 0-4"/><path fill="#fefefe" fill-opacity=".5" d="M839 560h1q-1 6-4 9t-3 7h-1q0-4-2-5-2 0-3 2l-1 1-1-2c7-3 2-9 0-1v-8c4 0 5 7 8-3 1 6 1 2 6 0"/><path fill="#fefefe" fill-opacity=".6" d="m861 483 5-3q5 2 0 4c-2 2-1 3-5 5q-3 3-7 2c-3-1-1 4-5 5-2 1-4 6-7 0l3-2h1l1-1q5 4 3-2l9-7c0 1 1 6 4 2q0-2-2-2z"/><defs><linearGradient id="h" x1="178.8" x2="171" y1="488.2" y2="492" gradientUnits="userSpaceOnUse"><stop offset="0" stop-color="#fff" stop-opacity=".3"/><stop offset="1" stop-color="#fff" stop-opacity=".4"/></linearGradient></defs><path fill="url(#h)" d="M169 488c5 0 3-2 7-3l4-1c1 1-1 3 2 3 2 1 3-2 3 2l-11 5 2 4c-6-2-5-10-7-5z"/><path fill="#fefefe" fill-opacity=".6" d="M146 434c13-1 8 0 11 7 1 3 3-2 2-4q0-4 3-5v3c-3 1-1 8-4 9q-3-1-4-5l-3 1c-7 2-6-3-11-3l-1-1c5 0 3 0 7-2"/><path fill="#fefefe" fill-opacity=".2" d="m94 485 5 1 1 2h3q4 10-5 16h-1q-2-2 1-3 4-3 0-6c-3-1-1-3-2-6z"/><path fill="#fefefe" fill-opacity=".6" d="M836 589c1-6 5 1 7 2l5 5 4 2c3 4-3 0-4 4l-10-9q3-5-2-4"/><path fill="#fefefe" d="M119 460c-6-1-3-6 1-4l1 1q3 2 6 4l2 2q3 0 4-1c2 1-2 2-2 3l5 2h1l-2-2c1-1 6 2 7 4q-1 5 2 6v4c-4-4-3-5-5-10l-11-5-10-6z"/><path fill="none" d="m949 569 8 3h-1q-7 3 0 4v4h-1v-1l-1 2c1 3-6 2-6 1v-9z"/><path fill="#fefefe" fill-opacity=".4" d="m852 606 4-1c3-5 11-4 11-9q-1-5 3-8l-2 6q2 3 1 6-4 4-9 4c-3 1 0 3 1 4 2 2 2 0 3 3z"/><path fill="#fefefe" fill-opacity=".5" d="M132 550q1-2 4-1h1l2 2 2 1h1v6c-2 0 0 1-3 2 3-8-1-3-6-6-3-1-5-4-7-1-3 0-2 0-5-2l4-1q3 1 6 0z"/><path fill="#fefefe" fill-opacity=".8" d="m129 433 2-1h1c7 3 1 3 5 9l-2-1q-3-3-1-5-3-1-5 2l-2 4q-3 2-2 6 2 2 4-1t5-1h-2q-3 4-8 3l-2-4 1-1c0-1 6-4 4-5-2-3-7 3-8 4 1-7 7-4 10-9"/><path fill="#fefefe" fill-opacity=".5" d="M951 567c0-4-1-2-2-6v-4q3-1 3-4 2 0 2 1-3 3-2 4c1 0 5-3 5-1q-2 1-2 3c2 3 8 2 8 4h-7q-5 0-4 4z"/><path fill="#fefefe" fill-opacity=".2" d="M148 554zc3-4 4 6 7 1 2-3 5 2 6 1 8-2 6 7-1 8q2-1 1-3l-5-2q-2 0-4-2t-5-3"/><path fill="#fefefe" fill-opacity=".4" d="M139 436c-1-4-3-7 2-7h1q-2 1-2 4-1 4 3 1c2-3 11-2 14-1l5-2h1l-1 1q-3 1-3 5c1 2-1 7-2 4-3-7 2-8-11-7-4 2-2 2-7 2"/><path fill="#fefefe" fill-opacity=".1" d="M126 553c2-3 4 0 7 1 5 3 9-2 6 6q-7 0-13-4z"/><path fill="#030301" d="M163 431h4c1 2-1 11-1 13h-1c-7-1-4-1-3-9v-3zM143 553q-2-8 4-6 3 1 1 6v6h-5l-1-1zM208 498l7 1h4v6h-2l-11-1z"/><path fill="#fefefe" fill-opacity=".1" d="M143 428zl12-1q5 2 11 3v1h-5l-5-1c-6-2-13 5-14-2"/><path fill="#fefefe" fill-opacity=".4" d="M98 507q3 1 2 6 6 5 4 10v1q-2 1-2 3h-1q1-4 1-6c-3-2-7-4-4-9q2-2 0-5"/><path fill="#fefefe" fill-opacity=".5" d="M237 534q0-4 3-7l2 5c3 2 3 0 5 3l-1 2-3 3c-2-1-3-6-6-6"/><path fill="#fefefe" fill-opacity=".2" d="M196 450q1-1 3-1v2l3 4 7 1h-2q-6-1-10 2c-6 5-5-5-2-6q2 0 1-2"/><path fill="#fefefe" fill-opacity=".6" d="M119 551q2 3 7 5 6 4 13 4c3-1 1-2 3-2l1 1c-1 4-2 1 2 5l-7-2a60 60 0 0 1-20-9zM107 524h5l3 4 2 2 1-1q2 3 0 8l2 5h-1c-5-4-3-1-3-9q-1-2-4-3 0-4-3-6l-2 2z"/><path fill="#fefefe" fill-opacity=".5" d="M100 504h3l-1 3q1 4 3 6l2 6-3 5v-1q2-5-4-10 1-5-2-6l-1-2q2 1 3-1"/><path fill="#fefefe" fill-opacity=".2" d="m142 429 1-1c1 7 8 0 14 2l5 1-5 2c-3-1-12-2-14 1q-4 3-3-1 0-3 2-4"/><path fill="#fefefe" fill-opacity=".1" d="M216 485zq7 0 4 6 0 5-4 7h2-4l-1-1 2-3 2-7 1-1z"/><path fill="#fefefe" fill-opacity=".2" d="M99 533c-2-3 2-4 4-5l1-1 4 3c-6 6-2 5-1 7q2 4-4 3v-1c1-5 2-12-4-6"/><path fill="#fefefe" d="M116 440q7-5 13-7c-3 5-9 2-10 9l3 2 2 4v3h-1s0-5-2-6q2 2 0 5l-3-4q-3-2-2-4l7 9z"/><path fill="#fefefe" fill-opacity=".7" d="M856 564q0-2 3-2c2 0 2 4 3 4q5 2 6-1v2c-5 3-6-2-7 5q-4-2-6-5h1c5 1 4-3 0-3M148 495q3 5 9 5l-5 1c-2 3 3 3 4 3h1q-4 3-9 2 1-4-1-7t1-4"/><path fill="#fefefe" d="M977 537h-1c1-1 8-4 7-6 0 0-4 0-3-1h2l1-7q-1-4 1-6c3 7 2 18-7 20M978 557l1-1 2-8c3 6 2 8 1 14q-3 1-4-5"/><path fill="#fefefe" fill-opacity=".2" d="M240 527zl1 1q3-2 7 3v3l-1 2c-2-3-2-1-5-3z"/><path fill="#fefefe" fill-opacity=".1" d="M968 486zq0-2 3-3c8-2 1 6 7 6q1-1 1-5l1 1-1 6c-4 2-5-2-5-4v-1q-2-5-5 0l-2 4v-5"/><path fill="#fefefe" d="M967 492c4 4-2 8 4 16l-5-1q0-8 1-15"/><path fill="#fefefe" fill-opacity=".1" d="m871 589 2 4v1l-1 1q-1 4 1 6 4 6-1 9l-2 2q-1-2 2-4c3-4 0-6-1-10z"/><path fill="#fefefe" fill-opacity=".3" d="M868 567c1 8 0 7-7 5 1-7 2-2 7-5"/><path fill="#fefefe" d="M867 557c-2 3-4-12-4-13q0-4 1-6z"/><path fill="#fefefe" fill-opacity=".6" d="M121 548c6-1 4-4 7 1q3 0 3-2l1 3h-1q-3 1-6 0l-4 1-1-1z"/><path fill="#fefefe" fill-opacity=".2" d="m968 491 2-4q3-4 5 0v1l-1-1q-1-2-1 2 1 4-3 4z"/><path fill="#fefefe" fill-opacity=".8" d="m188 435 5 4-1 1-1-1-4 8q-1 3-3 1v-1c4-5 3-3 5-9z"/><path fill="#fefefe" fill-opacity=".5" d="m95 477 6-1 2 4h-8l-2-1z"/><path fill="#fefefe" d="m859 527 3-1 2 11c-6-4-1-4-5-10"/><path fill="#fefefe" fill-opacity=".6" d="M119 442c1-1 6-7 8-4 2 1-4 4-4 5l-1 1z"/><path fill="#fefefe" fill-opacity=".7" d="M832 576zq-1 2 1 2 3 2 2 3-4-4-4 2l-1 2-3-6q3-1 4-3"/><path fill="#fefefe" d="M831 520c3 1 1 13 0 15z"/><path fill="#fefefe" fill-opacity=".9" d="M164 476v-3c2-4 4-1 6-1q-1 5-6 4"/><path fill="#fefefe" fill-opacity=".4" d="M168 553c0-3 0-1 2-2l2 10-2 1v-4z"/><path fill="#fefefe" d="m131 432 5-2 3 10c-6 0 1-9-7-8z"/><path fill="#fefefe" fill-opacity=".8" d="m836 555 3 5c-5 2-5 6-6 0z"/><path fill="#3055cc" d="m85 502-1-3q-1-4 3-3v5c0 3 0 7-2 1"/><path fill="#fefefe" fill-opacity=".7" d="m143 553-2-6q0-4 2-3c1 1 3-1 4 3q-6-2-4 6"/><path fill="#030301" d="m246 537 2 1-11 10 6-8z"/><path fill="#fefefe" fill-opacity=".4" d="M109 524q2 4-1 6l-4-3 3-1z"/><path fill="#fefefe" d="M836 503q3 8-4 9z"/><path fill="#03040e" d="M98 504h2q-1 2-3 1l-6 2-2 1v1-3l8-2z"/><path fill="#030301" d="m204 522 10 7-11-6zM187 447l4-8 1 1-3 6z"/><path fill="#fefefe" d="M93 470q3 3 2 6v1l-2 2z"/><path fill="#030301" d="M207 456h2q-3 4-8 5l1-1z"/><path fill="#fefefe" fill-opacity=".4" d="m119 551 1-1 1 1c3 2 2 2 5 2v3q-5-2-7-5M861 483zq3 0 2 2c-3 4-4-1-4-2z"/><path fill="#fefefe" fill-opacity=".5" d="M832 583q0-6 4-2-1 4-3 3z"/><path fill="#fefefe" fill-opacity=".9" d="M825 571c2-8 7-2 0 1z"/><path fill="#fefefe" fill-opacity=".4" d="M160 551c5 2 6-2 8 2v1q-2-2-5-2-3 1-3-1"/><path fill="#dc9a3c" d="M82 497q3 3 1 5v-1q-6-2-2-3z"/><path fill="#fefefe" fill-opacity=".4" d="M836 589q5-1 2 4l-3-3z"/><path fill="#fefefe" fill-opacity=".5" d="M147 483c3-4 7-1 2 1h-1z"/><path fill="#fefefe" fill-opacity=".4" d="M850 491q2 6-3 2z"/><path fill="#fefefe" fill-opacity=".7" d="m836 551 1-4 2 2q0 3-3 3z"/><path fill="#fefefe" fill-opacity=".6" d="M856 564c4 0 5 4 0 3z"/><path fill="#e5f0f5" d="m953 537 4 2-1 1h-1q-3 2-2-3"/><path fill="#fefefe" fill-opacity=".5" d="M184 468q-3-2-1-3h1l1 2z"/><path fill="#fefefe" fill-opacity=".8" d="M195 452c-5-1-1-2 1-2q1 3-1 2"/><path fill="#fefefe" fill-opacity=".9" d="M857 456c2 3 2 2 0 6z"/><path fill="#1830bc" d="M738 464h34q14 59-5 116c-16 39-28 61-59 90l-1-1h-2l-36 17q-41 15-84 15c-61 1-120-22-164-66-46-45-65-103-65-167h64l1 15v1q6 29 28 47a78 78 0 0 0 110-13c12-16 15-30 16-50h6l1 11c4 42 39 70 81 69a79 79 0 0 0 75-84M622 619q13-13 19-30c-47 8-102 5-143-24l-6-4c-8 50 41 83 86 79 13-1 20-2 31-10z"/><path fill="#03040e" d="M491 558c32 29 92 38 134 33l19-4c-6 14-10 20-20 31l-11 10c-29 25-85 13-108-16-14-18-16-32-14-54m131 61q13-13 19-30c-47 8-102 5-143-24l-6-4c-8 50 41 83 86 79 13-1 20-2 31-10z"/><path fill="#030b45" d="M326 494v21z"/><path fill="#1830bc" d="M396 310c61-82 135-135 227-179q-5 19-7 38-3 68 33 123 18 28 41 52l37 37q31 33 43 76h-32a80 80 0 0 0-73-66l-27 3c-28 7-55 37-56 66h-8c-2-19-14-39-29-51a77 77 0 0 0-109 15q-12 17-16 38l-8 1h-58l-3-1c-9 0-17 7-23 13l-1 2c-3 5-4-2-2-3q2-18 7-38a378 378 0 0 1 64-126m212 59c20-5 36-8 57-1q15 4 28 14-3-11-10-20a40 40 0 0 0-36-14 56 56 0 0 0-39 21m-158 15c12-8 21-13 37-17 18-3 31-1 50 4a56 56 0 0 0-48-21q-31 4-39 34"/><path fill="#3055cc" d="M629 352q-40-47-55-105l-2-19c1-9 12-16 21-15 17 3 15 20 19 33a221 221 0 0 0 49 88l18 20-2 1q-23-15-48-3"/><path fill="#10228e" d="M325 474q2-18 7-38a378 378 0 0 1 64-126l-3 9c-20 42-37 96-37 142l-5 1c-9 0-17 7-23 13l-1 2c-3 5-4-2-2-3"/><path fill="#030b45" d="M327 477c-3 5-4-2-2-3z"/><path fill="#3055cc" d="m686 364 4 1 8 7c14 13 33 22 17 42a77 77 0 0 0-50-23l-23-25c22 0 36 8 54 20-3-10-5-14-10-22"/><path fill="#03040e" d="M629 352q26-12 48 3l3 2 6 7c5 8 7 12 10 22-18-12-32-20-54-20q-21-1-40 9 11-16 27-23m-21 17c20-5 36-8 57-1q15 4 28 14-3-11-10-20a40 40 0 0 0-36-14 56 56 0 0 0-39 21"/><path fill="#030b45" d="m356 461 64 1-8 1h-58l-3-1z"/><path fill="#3055cc" d="m679 354 1 3-3-2z"/><path fill="#03040e" d="M488 349h11q27 3 43 25-26-11-53-6-23 5-42 20c7-21 17-36 41-39m-38 35c12-8 21-13 37-17 18-3 31-1 50 4a56 56 0 0 0-48-21q-31 4-39 34M616 411q44-28 88 0l1 1 12 12 3 4h1c6 14 12 21 12 37l-1 17-1 5c-4 15-16 34-29 43l-8 4q-11 6-23 8l-16 1-24-6-8-4h-1c-5-2-15-12-19-16l-10-17-2-5-3-11-2-8 1-15v-2l1-5 2-9 1-1 4-9 1-1 10-13 2-3zm50 54c0-17-5-51-26-53q-7 1-11 5c-18 22-18 70 0 90 6 6 16 7 22 0 12-8 14-29 15-42"/><path fill="#1830bc" d="M656 398h6l14 2q18 4 32 16c12 8 23 33 24 48 4 78-99 107-137 39q-6-14-7-29c-3-39 30-74 68-76m10 67c0-17-5-51-26-53q-7 1-11 5c-18 22-18 70 0 90 6 6 16 7 22 0 12-8 14-29 15-42"/><path fill="#3055cc" d="M676 400q18 4 32 16c-9 4-22-4-27-10q-3-2-5-6"/><path fill="#10228e" d="M656 398h6z"/><path fill="#030301" d="M651 507c-6 7-16 6-22 0-18-20-18-68 0-90q4-4 11-5c21 2 26 36 26 53-1 13-3 34-15 42m-13 3 2-1c5-3 4 0 4-4l-2-3h-1l-3-6-2-9c-1-11 1-25 7-34q8-8 16 1l3 4 1 4 1 3v-9l-1-4q0-21-14-35-13-9-22 5a86 86 0 0 0-8 58c1 10 7 28 19 30"/><defs><linearGradient id="i" x1="653" x2="617.8" y1="482.6" y2="425.9" gradientUnits="userSpaceOnUse"><stop offset="0" stop-color="#fff"/><stop offset="1" stop-color="#fff"/></linearGradient></defs><path fill="url(#i)" d="M638 510c-12-2-18-20-19-30-3-19-3-41 8-58q9-14 22-5 14 15 14 35c-1-2-6-5-4 2q-8-9-16-1c-6 9-8 23-7 34l2 9q-3-1-4-2-1 2-3 1h-1c-1-1-2 5-2 4l3 6 4 3q3-1 5 1z"/><defs><linearGradient id="j" x1="634.6" x2="629.5" y1="500.8" y2="500.7" gradientUnits="userSpaceOnUse"><stop offset="0" stop-color="#fff" stop-opacity=".7"/><stop offset="1" stop-color="#fff" stop-opacity=".8"/></linearGradient></defs><path fill="url(#j)" d="m631 505-3-6c0 1 1-5 2-4h1q2 1 3-1 1 1 4 2l3 6h1-1c-3 0-3-4-5-4v4c-1 3-3 1-5 3"/><path fill="#fefefe" fill-opacity=".6" d="M631 505c2-2 4 0 5-3v-4c2 0 2 4 5 4h1l2 3c0 4 1 1-4 4q-2-2-5-1z"/><path fill="#fefefe" fill-opacity=".2" d="M659 454c-2-7 3-4 4-2l1 4-2 2z"/><path fill="#fefefe" d="M664 456v3l-1 3-1-4z"/><path fill="#8e8b8c" d="M664 458v7l-1-3z"/><path fill="#03040e" d="M651 507c-6 7-16 6-22 0-18-20-18-68 0-90q4-4 11-5c21 2 26 36 26 53h-2v-9l-1-4q0-21-14-35-13-9-22 5a86 86 0 0 0-8 58c1 10 7 28 19 30l2-1c5-3 4 0 4-4z"/><path fill="#fefefe" d="m644 505 6 2v1q-6 4-12 2l2-1c5-3 4 0 4-4"/><path fill="#03040e" d="m494 399 18 1 6 2q10 3 19 9l7 4v1l3 3 3 3 3 2 1 2 1 1 2 1h3l1 1v7l4 11 4-1a70 70 0 0 1 4 31q0-5-3-6v-4l-1 15-2 7-2 8-4 7q-7 15-21 25l-2 1-5 3-4 2q-10 5-22 7a74 74 0 0 1-38-5l-5-3-4-2-9-6-4-4-4-3-2-3-2-3q-8-12-12-25-2-10-2-21l1-8v-1c3-11 4-14 9-23v-1l6-8 2-2q6-7 13-12l6-4q11-5 24-8zm10 142a71 71 0 1 0-13-140 71 71 0 0 0 13 140"/><path fill="#fefefe" d="m565 447 4-1a70 70 0 0 1 4 31q0-5-3-6v-4zM554 426l1 1 2 1h3l1 1v7z"/><path fill="#1830bc" d="M490 401a71 71 0 1 1 15 140 71 71 0 0 1-15-140m17 112 4-2h1c11-8 16-26 17-38 2-14-2-38-11-49q-6-8-14-10c-37 9-30 105 3 99m-8-91c4 6 15 0 3-2h-1z"/><path fill="#030301" d="M504 414q9 2 14 10c9 11 13 35 11 49-1 12-6 30-17 38h-1l-4 2c-33 6-40-90-3-99m-5 8 2-2h1c12 2 1 8-3 2m15 28 6 1v1q5 4 7 10 1-8-1-16l-1-2q-2-12-9-21-4-5-9-6l-3-1-8 3-2 1-5 7-1 1v1l-2 5-1 2v1l-1 3c-3 10-5 26-3 36l2 10 4 10 1 2q4 12 15 15l2-1h1l7-3c-8-5-9-8-12-18l-1-4v-8c0-11 4-24 14-29"/><defs><linearGradient id="k" x1="482.6" x2="513.7" y1="447.3" y2="459.8" gradientUnits="userSpaceOnUse"><stop offset="0" stop-color="#fffffe" stop-opacity=".6"/><stop offset="1" stop-color="#fff" stop-opacity=".8"/></linearGradient></defs><path fill="url(#k)" d="M502 420c2-1 8-2 9 2 0 6 4 2 5 1q7 9 9 21c-3 1-6-3-7 2 0 2-4 2-4 4-10 5-14 18-14 29-1-3-1-8-5-5v2q-2 0-2 2 1 4-2 7l-3-1-1-2-4 4-2-10c3 2 3-4 3-6q-2-6-1-13l1-6c2-4-2-3 0-6q2-2 0-5l1-3c1 3 5 1 0-1l1-2 3 3c4-2 0-5 0-6q5 0 3-4h-3l5-7q3 1 3 4l2-2c4 6 15 0 3-2"/><path fill="#fefefe" fill-opacity=".4" d="m483 486 4-4 1 2 3 1q2-3 2-7 0-2 2-2v-2c4-3 4 2 5 5v8c-3 0-4 7-5 9q-2 0-6-1l-2 1z"/><path fill="#fefefe" fill-opacity=".6" d="M484 440q2 3 0 5c-2 3 2 2 0 6l-1 6q-1 7 1 13c0 2 0 8-3 6-2-10 0-26 3-36M496 419l8-3 3 1q5 1 9 6c-1 1-5 5-5-1-1-4-7-3-9-2h-1c-2-2-2 2-5-1"/><path fill="#fefefe" fill-opacity=".2" d="m487 496 2-1q4 1 6 1c1-2 2-9 5-9l1 4q-3 6-7 8c-2 1-4-3-6-1z"/><path fill="#fefefe" fill-opacity=".7" d="M514 450c0-2 4-2 4-4 1-5 4-1 7-2l1 2c-4 2-5 1-6 5zM488 429l1 2c0 1 4 4 0 6l-3-3z"/><path fill="#fefefe" fill-opacity=".6" d="m494 420 2-1c3 3 3-1 5 1l-2 2-2 2q0-3-3-4"/><path fill="#fefefe" fill-opacity=".5" d="M492 427q1 4-3 4l-1-2v-1q3 3 4-1M485 436c5 2 1 4 0 1z"/><path fill="#fefefe" fill-opacity=".5" d="M489 427h3q-1 3-4 1z"/><path fill="#03040e" d="M504 414q9 2 14 10c9 11 13 35 11 49l-1-11h-1q1-8-1-16l-1-2q-2-12-9-21-4-5-9-6l-3-1-8 3-2 1-5 7-1 1v1l-2 5-1 2v1l-1 3c-3 10-5 26-3 36l2 10 4 10 1 2q4 12 15 15h4c-33 6-40-90-3-99"/><path fill="#fefefe" fill-opacity=".8" d="M501 420h1c12 2 1 8-3 2z"/><path fill="#e5f0f5" fill-opacity=".6" d="M427 488q4 13 12 25c-5 0-2 3 0 5l3 2 4 5q3 3 5 2v-1l9 6q0 6 4 2l5 3-1 1c2 3 7 1 11 6q-15-3-26-11 4 0 1-4c-1-1-1 3-2 3a75 75 0 0 1-28-43q2 2 3-1"/><defs><linearGradient id="l" x1="395.2" x2="390" y1="472.4" y2="457" gradientUnits="userSpaceOnUse"><stop offset="0" stop-color="#fff" stop-opacity="0"/><stop offset="1" stop-color="#fff4ef" stop-opacity=".1"/></linearGradient></defs><path fill="url(#l)" d="M412 463q4-1 8 2c-2 3-12 2-15 2h-38s3-2 0-2c-4 0-3-1-6-2z"/><path fill="#fefefe" d="M649 393q12-2 26 1h-1l-3 1 3 1 6 2q9 2 15 6l3 2 4 2 2 3a75 75 0 0 0-88 0l1-3 4-2 7-3q8-4 18-7h5l5-1h-1zM583 482zl1-1c2 1 0 3 4 4l3 11-1 1q-3 4 3 4l10 17-3 2q-14-15-17-37"/><path fill="#fefefe" fill-opacity=".9" d="M603 517c4 4 14 14 19 16-7 1 2 3 2 3l-1-3 8 4h-1c-6 0 3 4 4 5q9 2 13 2 4 1 5 3-23-2-41-17 1-4-3-5l-1-1q-4-5-1 0l2 3-8-8z"/><path fill="#fefefe" d="M720 428zl1 1c2 1 4 7 5 7l1-2q7 15 9 32v4h-1l1-1-2-3-1 2-1-3c0-16-6-23-12-37z"/><path fill="#e5f0f5" fill-opacity=".9" d="M671 542q12-2 23-8l8-4-1 2-6 3v1l7-4 5-1q-16 12-36 15 2-3 6-3l4-1 3-1h-4l-5 2zm18-2c1-1 5-2 1-3-1 1-5 2-1 3"/><path fill="#fefefe" fill-opacity=".7" d="M690 537c4 1 0 2-1 3-4-1 0-2 1-3"/><path fill="#fefefe" d="m533 536 9-3q-11 7-24 11 0-2-1-2-2 0 0 2l-6 2h-4v-4q12-2 22-7c1 3-4 2-5 4h4z"/><path fill="#fefefe" fill-opacity=".7" d="m429 438 1 2c2 0 1-5 5-6v1c-5 9-6 12-9 23l-1-4-2 1z"/><path fill="#fefefe" fill-opacity=".1" d="M486 542h21v4l-11 1c-3-2-14-3-10-5"/><path fill="#fefefe" fill-opacity=".4" d="m469 537 17 5c-4 2 7 3 10 5q-9 0-17-3c-4-5-9-3-11-6z"/><defs><linearGradient id="m" x1="646.9" x2="647.6" y1="543.8" y2="540.9" gradientUnits="userSpaceOnUse"><stop offset="0" stop-color="#fffdfe" stop-opacity="0"/><stop offset="1" stop-color="#fffaf7" stop-opacity=".1"/></linearGradient></defs><path fill="url(#m)" d="m635 539 20 4h8c-3 4-5 2-11 2l-5-1q-4 0-13-2z"/><path fill="#e5f0f5" fill-opacity=".7" d="m479 397 12-2c-4 3 1 4 3 4l-8 1q-13 3-24 8 2-4 6-5l5-1q3-2 8-3 2 1 4-1c-2-1-3 2-6-1"/><path fill="#fefefe" fill-opacity=".5" d="M625 401q9-5 20-7-1 3 1 2-10 3-18 7l-7 3-3-1 6-4-1 3c4-1 11-3 2-3"/><path fill="#e5f0f5" fill-opacity=".9" d="M512 400h5l12 4 3 2c2 2 7 2 2-1v-1l7 4q-3 1 0 4l3 3-7-4q-9-6-19-9z"/><path fill="#fffef8" fill-opacity=".7" d="m733 465 1 3 1-2 2 3-2-1q-2 3 0 8v3l2-2-2 12c-3-4-1 0-4-2l1-5z"/><path fill="#fefbf8" fill-opacity=".6" d="m429 438 8-13v1q1 3 4 0l-6 8c-4 1-3 6-5 6z"/><path fill="#fefefe" d="m583 458 1 1 1 20 1-3 2 8c-4-1-2-3-4-4l-1 1v1z"/><path fill="#fefbf8" fill-opacity=".8" d="M600 421zl-2 5-1 1-1 3q-4 5 0 4l-4 9v-6c-2 1 1 5-5 7q5-14 14-24"/><path fill="#fefefe" fill-opacity=".9" d="M570 471q3 1 3 6c0 5-2 14-4 19-2-4 2-6-1-7h-1l2-7c6-1 1-7 1-11"/><path fill="#fefefe" fill-opacity=".6" d="m671 542 4 1 5-2h4l-3 1-4 1q-5 0-6 3l-19 1q-1-2-5-3l5 1q8 2 16 1l2-1c2-3-3-1-4-1l-3-1h-8z"/><path fill="#e5f0f5" fill-opacity=".2" d="m455 408 12-7 4 1-3 1q-4 1-6 5l-6 4q1-4-1-4"/><path fill="#e5f0f5" fill-opacity=".1" d="M674 396c1-2 12 2 14 2l9 4-1 1-1 1q-6-4-15-6z"/><path fill="#fefefe" fill-opacity=".8" d="M561 432q0 5 3 3l1 1q-1 3 3 6l1 4-4 1-4-11z"/><path fill="#fefefe" d="m738 458 18 1-12 2h3l9 1h-17z"/><path fill="#fffef8" fill-opacity=".7" d="M738 458h26l-1 1-11 1 7 1h1l3 1h-7l-9-1h-3l12-2z"/><path fill="#fefbf8" fill-opacity=".9" d="m704 406 11 10h-2q-1-1-4-3 0 2 3 5l6 6h-1l-12-12 1-1c3 1 0-2-1-2z"/><path fill="#fefefe" fill-opacity=".7" d="M586 448q2 1 4-3l-2 9c-2-3-3 4-3 5h2v2l-1-1-1 1q0-2-2-4z"/><path fill="#fefefe" fill-opacity=".8" d="M423 456zl1 2v1-1h2l-1 8h-4l1-10zM583 457q2 2 2 4l1-1 1 1-1 15-1 3-1-20-1-1z"/><path fill="#fefefe" d="M575 462h2q6-1 5 5-7 2-7-3z"/><path fill="none" d="M608 412c4 1 0 3-1 6l-6 4v-3z"/><path fill="#e5f0f5" fill-opacity=".4" d="m475 398 6 1q-5 1-8 3l-5 1 3-1-4-1 6-2z"/><path fill="#e5f0f5" fill-opacity=".6" d="m618 405-1 3-1 3-8 7 9-10-7 3z"/><path fill="#fffef8" fill-opacity=".4" d="m543 410 8 7q-3 0-4 2l-2-2c3-3 0-6-1-1v-1l-3-3z"/><path fill="#fefefe" fill-opacity=".5" d="m321 491 2-6v1q1 2 3 3l-1 7z"/><path fill="#e5f0f5" fill-opacity=".2" d="M522 399q4 1 9 4l-2 1-12-4h1l2-1z"/><path fill="#fefbf8" fill-opacity=".6" d="M596 428c3 1 3-3 6-4q1-2 4-3l-10 13-1-3z"/><path fill="#e5f0f5" fill-opacity=".4" d="m533 533 5-3c-1 4 2 1 5 1h1l-2 2-9 3z"/><path fill="#fefefe" fill-opacity=".5" d="M567 489zc3 1-1 3 1 7l-1 2q-1-2-3-1z"/><path fill="#fefefe" fill-opacity=".3" d="m663 543 3 1c1 0 6-2 4 1l-2 1q-8 1-16-1c6 0 8 2 11-2"/><path fill="#fefbf8" fill-opacity=".4" d="M607 418zl-2 3q-3 1-4 3c-3 1-3 5-6 4l1-1 2-5 1-1 1-2v3z"/><path fill="#fefbf8" fill-opacity=".3" d="M712 418q1-2 3-2h1l3 4-1 4z"/><path fill="#fefbf8" fill-opacity=".6" d="M586 445c6-2 3-6 5-7v6l-1 1q-2 4-4 3z"/><path fill="#e5f0f5" fill-opacity=".5" d="m723 426 5 8-1 2c-1 0-3-6-5-7l-1-1q2 1 2-2"/><path fill="#fffef8" fill-opacity=".4" d="M737 466v10h-2q-2-5 0-8l2 1-1 1h1z"/><path fill="#fefefe" fill-opacity=".8" d="M570 467v4c0 4 5 10-1 11z"/><path fill="#fffef8" fill-opacity=".1" d="M547 419q1-2 4-2l3 3c-2 3-1 1-4 2z"/><path fill="#fefefe" fill-opacity=".9" d="m529 535 4-2v4l-5 2h-4c1-2 6-1 5-4"/><path fill="#fffef8" fill-opacity=".4" d="M764 458q5-1 7 2h-2q-3-1-5-1l-5 1v1l-7-1 11-1z"/><path fill="#fefbf8" fill-opacity=".1" d="M634 542c-1-1-10-5-4-5h1l4 2z"/><path fill="#fefbf8" fill-opacity=".3" d="M759 461zl5-1q3 0 5 1c-1 0-6-1-5 2 0 0 5 1 5-2h2q-2 3-8 2l-3-1z"/><path fill="#e5f0f5" fill-opacity=".3" d="m610 411 7-3-9 10h-1c1-3 5-5 1-6z"/><path fill="#e5f0f5" fill-opacity=".7" d="m675 394 13 4c-2 0-13-4-14-2l-3-1 3-1z"/><path fill="#fefbf8" fill-opacity=".3" d="m719 420 3 5q-2 0-2 3l-3-4h1z"/><path fill="#fefbf8" fill-opacity=".2" d="M439 518c-2-2-5-5 0-5l2 3z"/><path fill="#e5f0f5" fill-opacity=".3" d="m645 394 4-1 6 2-4 1h-5q-2 0-1-2"/><path fill="#fffef8" fill-opacity=".1" d="M438 424h5l-2 2q-3 3-4 0v-1zM443 519l4 3-1 3-4-5z"/><path fill="#fefefe" fill-opacity=".6" d="m423 455 2-1 1 4v1h-2v1-1l-1-2v-2"/><path fill="#fffef8" fill-opacity=".3" d="m555 421 2 3-2 3-1-1-1-2q2 0 2-2z"/><path fill="#fefefe" fill-opacity=".5" d="M587 459h-2c0-1 1-8 3-5z"/><path fill="#fffef8" fill-opacity=".4" d="m447 522 4 4v1q-2 1-5-2z"/><path fill="none" d="m554 420 1 1v1q0 2-2 2l-3-2c3-1 2 1 4-2"/><path fill="#e5f0f5" fill-opacity=".1" d="m700 404 3 1-1 3-4-2z"/><path fill="#fefefe" fill-opacity=".5" d="m531 403 3 1v1l-2 1-3-2z"/><path fill="#fefefe" fill-opacity=".7" d="m561 429 3 5v1q-3 2-3-3z"/><path fill="#e5f0f5" fill-opacity=".2" d="m722 425 1 1q0 3-2 2h-1q0-3 2-3"/><path fill="#fefefe" fill-opacity=".4" d="m623 533 1 3s-9-2-2-3z"/><path fill="#fefefe" fill-opacity=".2" d="M625 401c9 0 2 2-2 3l1-3z"/><path fill="#fefbf8" fill-opacity=".6" d="M608 525q5 1 3 5l-1-1z"/><path fill="#fefefe" fill-opacity=".6" d="m475 398 4-1c3 3 4 0 6 1q-2 2-4 1z"/><path fill="#fffef8" fill-opacity=".6" d="M712 418q-3-3-3-5 3 1 4 3h3-1q-2 0-3 2"/><path fill="#e5f0f5" fill-opacity=".2" d="m697 402 3 2-2 2-3-2z"/><path fill="#fefefe" d="m591 495 2 5q-6 0-3-4z"/><path fill="none" d="m439 518 2-2 2 3-1 1z"/><path fill="#fffef8" fill-opacity=".1" d="m557 424 3 4h-3l-2-1z"/><path fill="#fefefe" fill-opacity=".4" d="m460 532 4 2q-4 4-4-2"/><path fill="#e5f0f5" fill-opacity=".8" d="m703 405 1 1 1 3 1 2-1 1-1-1-2-3z"/><path fill="#fefefe" fill-opacity=".1" d="M769 460c0 3-5 2-5 2-1-3 4-2 5-2"/><path fill="#fefbf8" fill-opacity=".8" d="m702 532-7 4v-1l6-3z"/><path fill="#fefbf8" fill-opacity=".1" d="M541 412q-3-3 0-4l2 2z"/><path fill="#fffef8" fill-opacity=".3" d="m595 431 1 3-1 1q-4 1 0-4"/><path fill="#e5f0f5" fill-opacity=".3" d="m532 406 2-1c5 3 0 3-2 1"/><path fill="#fefbf8" fill-opacity=".1" d="m538 530 2-1q2 2 3 2c-3 0-6 3-5-1"/><path fill="#fefefe" fill-opacity=".7" d="m565 436 3 6q-4-3-3-6"/><path fill="#fefbf8" fill-opacity=".6" d="M452 532c1 0 1-4 2-3q3 4-1 4z"/><path fill="#fefbf8" fill-opacity=".8" d="m607 524 1 1 2 4-2-2-2-3z"/><path fill="#fffef8" fill-opacity=".2" d="M544 416c1-5 4-2 1 1z"/><path fill="#e5f0f5" fill-opacity=".4" d="m618 405 3 1-4 2z"/><path fill="#fffef8" fill-opacity=".6" d="M735 476h2v1l-2 2z"/><path fill="#e5f0f5" fill-opacity=".4" d="M705 409c1 0 4 3 1 2z"/><path fill="#e5f0f5" fill-opacity=".7" d="M606 524q-3-5 1 0z"/><path fill="#fefefe" fill-opacity=".9" d="M517 544q-2-2 0-2 1 0 1 2z"/><path fill="#e5f0f5" fill-opacity=".6" d="M655 395h1l-5 1z"/><path fill="#03040e" d="M181 401q13-14 31-3 7 4 10 13c1 4 2 12-2 15l-2-1-9-5-17-11z"/><path fill="#1830bc" d="M193 395q9-2 16 2 9 6 13 15c0 1 1 11-2 12l-4-2q-10-8-21-13l-12-8q3-5 10-6"/><path fill="#030301" d="M463 799q-8-14 7-22l6-2v1q-12 2-15 14 2 6 6 10h-1q-4 0-7 2zM695 799q6 2 11 6-3 0-6-2h1z"/></svg>