<svg xmlns="http://www.w3.org/2000/svg" width="1024" height="1024" viewBox="0 0 1024 1024"><path fill="#6197e2" d="m583 253-4 8q-14 39-9 81 2 16 9 32c31-5 97-12 126 6q5 4 8 13c0 12-5 22-4 35 1 14 10 21 20 30l14 12q6 5 10 11l4 5c4 3 8 12 9 16 10 21-7 42 1 63l3 6c13 20 39 40 35 66q-3 12-13 19c-9 11-48 17-63 19q15 12 17 31c0 40-57 41-85 42l-22-1c-9 0-11-1-19 3-14 7-32 1-45-3q-8-2-16-2-15 3-28 14-9 6-14-2l-1-2-3 1c-18-1-11-14-4-24 1-1 8-8 11-9l9-7 6-3 16-6c2-7-15 2-17 3l-7 4-9 5-13 13-3 3-6-1h-1l-23-4c-28-6-50-14-74-28l-5 8c13 6 24 8 38 15l14 7 11 6c8 3 20 3 25 11v6c-8 13-31 8-43 10l-6 1q-25 2-51 10l-15 4c-39 8-69 4-93-31h-6q-11 0-20-4-7-2-9-7c-1-12 18-15 26-16 16-21 32-34 57-43l16-4 10 7c-6 4-33 25-34 30l1 1c2 0 7-7 10-10l28-21q-15-11-29-25c-17-17-36-36-35-62q1-22 16-38 6-6 13-4l1-3a355 355 0 0 1 180-260c15-11 66-33 85-37M312 562l-1 3c-11 15-10 34-1 49q2 2 3-1-8-18-5-36l4-9 4-5c5-3 9-9 17-9q3 3 3 5l-7 11c-8 12-6 32 0 45q2 1 3-1c-6-16-7-27 0-44l1-2 2-3c9-8 15 1 12 10-3 14-8 32 8 39q-2-4-5-8c-7-9-1-23 0-32 1-7 0-15-8-15q-3-2-5-5c-3-3-10-3-13 0l-2-1-1 2h-1l-3 3zm192 154zq-4 7-4 16h-4v1l6 1 3-3a75 75 0 0 1 29-22c2-1 19-10 17-3l-16 6-6 3-9 7c-3 1-10 8-11 9-7 10-14 23 4 24l3-1 1 2q5 8 14 2 12-11 28-14 8 0 16 2c13 4 31 10 45 3 8-4 10-3 19-3l22 1c28-1 85-2 85-42q-2-19-17-31c15-2 54-8 63-19q10-7 13-19c4-26-22-46-35-66l-3-6c-8-21 9-42-1-63-1-4-5-13-9-16l-4-5q-4-6-10-11l-14-12c-10-9-19-16-20-30-1-13 4-23 4-35q-2-9-8-13c-29-18-95-11-126-6q-7-16-9-32v1c-5-19-2-49 3-68-4 2-9 19-10 24-13 37-10 77 8 112 7 13 19 30 29 41q16 16 28 33a4 4 0 0 0 4 6c4 5 7 17 10 23h-1q-4 0-4 5l2 2 4 1 1-1c8 20 4 55-2 76-1 2-5 10-4 12l-2 1-5 13-8 15a3 3 0 0 1-4 4c-13 14-21 23-37 33l-16 8c-18-2-34-4-49 8-6 4-13 14-13 21q-2 3 0 4m-25 4a3 3 0 1 0 2 4 3 3 0 0 0-2-4M375 477c15 4 18-11 22-21l10-21q22-40 55-73c4-4 23-19 24-23l-1-4q-1-3-4-3h-4q-12 5-23 14c-37 27-68 64-85 107-4 8-5 19 5 23zm190 110zl1-1zm-37-291q-11 4-20 12c-5 4-15 12-10 19l6 1c9-4 19-18 28-23 4-2 5-9-4-9m-62 395c4 0-3-3-4-3q-3 8 4 3m20 18a3 3 0 1 0-3-6 3 3 0 0 0 3 6"/><path fill="#fffefe" d="M324 554c3-3 10-3 13 0q2 3 5 5c8 0 9 8 8 15-1 9-7 23 0 32q3 4 5 8c-16-7-11-25-8-39 3-9-3-18-12-10q-3-1-2 3l-1 2h-3l7-11q0-2-3-5c-8 0-12 6-17 9q-1-2-4-1l5-4c4 2 2-1 5-2z"/><path fill="#fffefe" fill-opacity=".4" d="M312 562q3-1 4 1l-4 5-1-3z"/><path fill="#fffefe" fill-opacity=".9" d="M523 698q2 2 5 1l-6 3-2-1v-1z"/><path fill="#fffefe" fill-opacity=".5" d="m523 698 1-1 2-1q3 1 2 3-3 1-5-1"/><path fill="#fffefe" fill-opacity=".8" d="M320 555zl1 1c-3 1-1 4-5 2zM333 568q-1-4 2-3z"/><path fill="#fffefe" fill-opacity=".5" d="m321 555 1-2 2 1z"/><path fill="#6197e2" d="M570 342q2 16 9 32c31-5 97-12 126 6q5 4 8 13c0 12-5 22-4 35 1 14 10 21 20 30l14 12q6 5 10 11l4 5c4 3 8 12 9 16 10 21-7 42 1 63l3 6c13 20 39 40 35 66q-3 12-13 19c-17 10-44 16-64 18l-12-7q-24-7-47-15v-1h-1c38-68 21-131-27-188-13-16-28-28-40-46-18-25-26-44-31-74zm143 152 1 1 5 7q6 9 8 19v10c-1 2-2 11 1 6q0-7 1-14l1-3-1-2c-4-14-6-16-15-27 0-2-5-6-6-7l-7-6-19-21-5-9-3-5-1-3-3-8v-2l-1-2-1-16h-2l-1 1v4l1 8 1 5v4l1 1 3 8 2 5 1 3 6 8c7 11 23 25 33 35m46 121-3-9q-2-4-5-7l-4-4-2 3c7 5 7 7 10 15v1l1 3 1 3q3 3 2 10c0 2-3 2-1 5 4-3 2-16 1-20"/><path fill="#0b0a0a" d="M570 342q2 16 9 32c31-5 97-12 126 6q5 4 8 13c0 12-5 22-4 35 1 14 10 21 20 30l14 12q6 5 10 11l-18-16c-13-12-25-20-27-38-2-14 11-37-2-45-28-19-71-12-102-10l-25 3q14 34 39 61l24 26c42 49 62 109 36 171l-9 18h-1c38-68 21-131-27-188-13-16-28-28-40-46-18-25-26-44-31-74z"/><path fill="#29456f" d="M757 486c4 3 8 12 9 16 10 21-7 42 1 63l3 6h-1c-13-17 1-38 0-56q-1-12-8-22z"/><path fill="#fffefe" d="m680 459 2-2 19 21 4 5 4 5q3 2 4 6c-10-10-26-24-33-35"/><path fill="#fffefe" fill-opacity=".2" d="m668 435-1-1v-4l-1-5-1-8v-4l1-1h2l1 16 1 2v2q-3-1-2 2z"/><path fill="#fffefe" fill-opacity=".9" d="m747 595 4 4q3 3 5 7v2l-1 5c-3-8-3-10-10-15z"/><path fill="#fffefe" fill-opacity=".7" d="m756 617 3-2c1 4 3 17-1 20-2-3 1-3 1-5q1-7-2-10z"/><path fill="#fffefe" fill-opacity=".8" d="M668 435zq0-3 2-2l3 8q-2 1-2 3z"/><path fill="#fffefe" d="M757 620q3 3 2 10c0 2-3 2-1 5-4 1-2-2-2-4z"/><path fill="#fffefe" fill-opacity=".7" d="M708 484c1 1 6 5 6 7l1 3-1 1-1-1q0-4-4-6z"/><path fill="#fffefe" d="M745 598q-6 0-5-5c1-2 6 1 7 2z"/><path fill="#fcf9fe" fill-opacity=".9" d="m756 606 3 9-3 2-1-3v-1l1-5z"/><path fill="#fffefe" fill-opacity=".5" d="m730 520-1 3q-1 7-1 14l-1-6v-3q0-5 3-8"/><path fill="#fffefe" fill-opacity=".9" d="m679 452 3 5-2 2-3-3z"/><path fill="#fffefe" d="m674 451 3-3 2 4-2 4z"/><path fill="#fffefe" fill-opacity=".9" d="M671 443q-1-2 2-3l1 3v2l-1 3z"/><path fill="#fffefe" fill-opacity=".9" d="m674 443 3 5-3 3-1-3 1-3zM701 478l7 6 1 4-4-5z"/><path fill="#fffefe" fill-opacity=".3" d="m729 518 1 2q-3 3-3 8v-7z"/><path fill="#fffefe" fill-opacity=".4" d="m727 531 1 6c-3 5-2-4-1-6"/><path fill="#0b0a0a" d="M352 682q-15-11-29-25c-17-17-36-36-35-62q1-22 16-38 6-6 13-4l3 2-3 3-5 4-1 3c-11 15-10 34-1 49q2 2 3-1-8-18-5-36l4-9 4-5c5-3 9-9 17-9q3 3 3 5l-7 11c-8 12-6 32 0 45q2 1 3-1c-6-16-7-27 0-44l1-2 2-3c9-8 15 1 12 10-3 14-8 32 8 39l14 10c17 11 34 24 36 46q1 15-5 28l-1 3c18 14 58 26 81 30 2 0 11 2 14 1l1 2-23-4c-28-6-50-14-74-28l-5 8c13 6 24 8 38 15l14 7 11 6c8 3 20 3 25 11v6c-8 13-31 8-43 10l-6 1q-25 2-51 10l-15 4c-39 8-69 4-93-31h-6q-11 0-20-4-7-2-9-7c-1-12 18-15 26-16 16-21 32-34 57-43l16-4 10 7c-6 4-33 25-34 30l1 1c2 0 7-7 10-10z"/><path fill="#6197e2" d="M265 723q26-37 70-47c-17 13-42 32-38 57q3 13 13 19 13 8 27 5c24-6 43-26 55-46l1-1c13 6 24 8 38 15l14 7 11 6c8 3 20 3 25 11v6c-8 13-31 8-43 10l-6 1q-25 2-51 10l-15 4c-39 8-69 4-93-31h-6q-11 0-20-4v-1c-6-2-11-7-6-12q10-9 24-9"/><path fill="#182537" d="m392 711 1-1c13 6 24 8 38 15l14 7 11 6c8 3 20 3 25 11v6c-8 13-31 8-43 10l-1-1c11-1 22 1 33-2 5-1 13-7 10-13-4-8-21-7-26-10q-29-18-62-28"/><path fill="#0b0a0a" d="m269 748 5 1 9 12q20 20 47 21c14 1 36-3 50-6h1l-15 4c-39 8-69 4-93-31h-6z"/><path fill="#29456f" d="M380 776q27-9 54-11l-2 1q-25 2-51 10zM247 744l7 3 15 1-2 1q-11 0-20-4z"/><path fill="#0b0a0a" d="m434 765 3-1 1 1-6 1zM668 651zv1q23 8 47 15l12 7c20-2 47-8 64-18-9 11-48 17-63 19q15 12 17 31c0 40-57 41-85 42l-22-1c-9 0-11-1-19 3-14 7-32 1-45-3q-8-2-16-2-15 3-28 14-9 6-14-2l-1-2-3 1c-18-1-11-14-4-24 1-1 8-8 11-9l9-7 6-3 16-6c2-7-15 2-17 3l-7 4-9 5-13 13-3 3-6-1v-1h4q0-9 4-16v-1l18-14 6-3q1-2-2-3l-2 1-1 1-3 2-16 12c0-7 7-17 13-21 15-12 31-10 49-8 21 3 33 6 53 13q6-2 11-3l12-11q15-13 26-31m-19 39-13 2 2 3 9-2 40-2 9-1c3-3-4-3-5-3q-21 1-42 3m-125 46-6 6-2 3-1 1q1 2 3 2l7-9q9-7 20-11l7-3c3-1 0-3 0-3q-16 4-28 14m8-43 4 3 12-5c3-6-14 1-16 2"/><path fill="#fffefe" fill-opacity=".6" d="M532 693c2-1 19-8 16-2l-12 5z"/><path fill="#fffefe" fill-opacity=".7" d="m636 692 13-2-1 1-1 2-9 2z"/><path fill="#fffefe" fill-opacity=".2" d="m518 742 6-6 1 3-4 4v-2z"/><path fill="#fffefe" fill-opacity=".6" d="m525 739-7 9q3-4-1-4l-1 1 2-3 3-1v2z"/><path fill="#fffefe" fill-opacity=".4" d="m516 745 1-1q3 0 1 4-1 0-3-2z"/><path fill="#fffefe" d="m630 693 6-1 2 3-15 2-4-1q6-2 11-3M515 746q1 2 3 2l-2 7-3 1zM532 693l4 3-8 3q1-2-2-3z"/><path fill="#3a70b7" d="M573 275a170 170 0 0 0 27 142c13 18 28 30 41 46 48 57 65 120 27 188q-11 18-26 31l-12 11q-5 1-11 3c-20-7-32-10-53-13l16-8c16-10 24-19 37-33a3 3 0 0 0 4-4l8-15 5-13 2-1c-1-2 3-10 4-12 6-21 10-56 2-76q2-4-2-7c-3-6-6-18-10-23a4 4 0 1 0-4-6q-12-17-28-33c-10-11-22-28-29-41-18-35-21-75-8-112 1-5 6-22 10-24m78 312a1 1 0 1 0-1-3 1 1 0 0 0 1 3m8-50a3 3 0 1 0 0-6 3 3 0 0 0 0 6m-16 92q4-3 0-3-2 2 0 3m3-129q0-3-4-3-1 4 3 4zm-40 168q-3 4 2 4 1-3-2-4m58-107a1 1 0 1 0-2 2 1 1 0 0 0 2-2"/><path fill="#fffefe" d="M649 583a3 3 0 1 1 4 6 3 3 0 0 1-4-6m2 4a1 1 0 1 0-1-3 1 1 0 0 0 1 3"/><path fill="#fffefe" fill-opacity=".4" d="M650 585a1 1 0 1 1 2 2 1 1 0 0 1-2-2"/><path fill="#fffefe" d="M643 625a3 3 0 1 1 3 5 3 3 0 0 1-3-5m0 4q4-3 0-3-2 2 0 3"/><path fill="#fffefe" fill-opacity=".5" d="M643 626q4 0 0 3-2-1 0-3"/><path fill="#fffefe" d="M664 561c-4-1 0-3 1-3 3 0 5 5 2 6-1 1-5 2-4-1a1 1 0 0 0 1-2M625 655a3 3 0 1 1 2 6 3 3 0 0 1-2-6"/><path fill="#fcf9fe" d="M672 591a2 2 0 1 1 3 3 2 2 0 0 1-3-3"/><path fill="#fffefe" d="M660 614a2 2 0 1 1 2 4 2 2 0 0 1-2-4"/><path fill="#fffefe" fill-opacity=".2" d="M606 668q3 1 2 4-5-1-2-4M663 563a1 1 0 1 1 0-2 1 1 0 0 1 0 2"/><path fill="#3a70b7" d="M400 698q43 18 89 19h15q-4 7-4 16h-4v1h-1l-1-2c-3 1-12-1-14-1-23-4-63-16-81-30zm81 26a3 3 0 1 0-2-4 3 3 0 0 0 2 4"/><path fill="#29456f" d="m494 732 2 1v1h-1zM583 253l-4 8q-14 39-9 81v1a162 162 0 0 1 11-89q-39 12-73 32l-10 5c15-12 66-34 85-38"/><path fill="#fffefe" d="M619 642a3 3 0 1 1 3-5 3 3 0 0 1-3 5M318 550l4 3-1 2h-1l-3-2z"/><path fill="#fcf9fe" d="M636 610a2 2 0 1 1-1-3z"/><path fill="#0b0a0a" d="M589 541c10 0 6 9 4 15 3 1 11 3 13 5q4 6-2 6l-14-3-4 5c3 2 13 7 14 10 1 12-18-3-20-4l-6 5c2 3 6 8 4 13-5 4-10-7-12-10l-10 3q2 7-3 11c-6-1-5-6-5-10l-6-1-7-2q-1 8-9 8c-4-3 0-8 2-12l-3-1c-6-4-21-18-18-27q2-2 4-2c6-1 7 8 9 12l5 5q12 11 27 9 22-2 32-22 1-7 5-13M370 541h2l4 2c4 9 4 16 12 23q12 11 26 11 19-1 30-16l5-10c4-4 8 1 7 6l-4 8q-6 10-15 15 2 4 3 10-1 2-3 2c-5 0-6-6-8-8l-3 1-9 1q1 8-4 11-7-3-4-11l-11-2c-2 4-6 11-11 9-4-4 2-10 4-13l-7-5c-4 2-14 11-19 7v-3c1-3 9-7 13-10l-4-5c-3 1-18 6-18-1q6-5 14-6c-1-6-4-11 0-16M437 491q4 0 5 2c2 5-4 10-7 12a50 50 0 0 1-46 7q-7-2-6-9 5-3 11 0c18 5 29 0 43-12M524 491q5 1 8 4 21 16 44 6c2-1 9 4 3 9q-30 12-54-8-7-5-1-11M499 610q6 1 5 6c-3 17-21 24-35 15l-7-8c-1-3-5-11 2-11 5 0 5 12 14 14q12 3 18-8z"/><path fill="#fffefe" d="M565 651a4 4 0 1 1 3 7 4 4 0 0 1-3-7M595 634a3 3 0 1 1 3 5 3 3 0 0 1-3-5M425 681a3 3 0 1 1 3 5 3 3 0 0 1-3-5"/><path fill="#fffefe" fill-opacity=".1" d="M462 688c1 0 8 3 4 3q-7 5-4-3"/><path fill="#fcf9fe" d="M538 662a2 2 0 1 1 3 4 2 2 0 0 1-3-4"/><path fill="#6197e2" fill-opacity=".9" d="m565 587 1-1z"/><path fill="#0b0a0a" d="M219 294q17 0 34 1l2 1c3 4-4 9-6 12l-24 24 28 2q4 1 3 6l-3 1-37-2-2-4 2-4 11-11q8-8 15-17h1l-23-2q-4-2-1-7M279 327l9 1 3 1 6 1h3l1 1h2c2 0 9 1 10 3l1 3c0 3-29 24-33 28l14 3 9 1 1 1q5 1 3 7-9 1-18-2l-10-2c-5-1-16-3-8-11l12-9 17-14c-5-1-17-3-22-6v-6M332 368l22 1v5l-17 17-1 1h1l17 2q2 2-1 4c-4 0-21 0-24-2l-1-2 16-17 3-3-4-1c-4 0-16 1-11-5"/><path fill="#fffefe" fill-opacity=".3" d="m518 719 2 4c-3 1-10 8-11 9h-4z"/><path fill="#fffefe" fill-opacity=".4" d="m518 719 9-5 2 2-9 7z"/><path fill="#fffefe" fill-opacity=".1" d="m527 714 7-4v1l1 2-6 3z"/></svg>