<svg xmlns="http://www.w3.org/2000/svg" width="1024" height="1024" viewBox="0 0 1024 1024"><path fill="#242122" d="M313 771q-48-52-63-121c-17-80 5-162 54-226 17-23 36-39 56-58l47-39q24-19 43-43c23-28 41-68 49-103-1-15 21-20 24-6 14 57 35 101 83 136l-6 9 9 1q-4 3-7 3v-1q-3-1-5 1 1 8-1 14c5 18 26 14 40 15l4-1 10-1q9 8 18 17 24 21 44 45 61 75 67 171c4 69-20 136-66 187 14 7 36 18 37 37 2 24-33 29-50 31q-23 4-46 5a3222 3222 0 0 1-176 8l-18-2q-58-2-115-6-25-1-50-9c-7-3-17-8-20-16-8-24 19-40 38-48m193-573-2 8-5 13c-10 26-17 38-32 62l-16 19-13 14-6 7-1 2 21-21-1 3c2 3 9 0 11-2h1l-4 5c-6 5-9 14-16 18v1q-4 3-4 5 3-3 7-5l-14 15c-5 6-24 22-22 30-1 4-2 13-1 16 4 20 7 37-12 51q-10 6-22 11l-18 8q-54 24-76 77-15 39-9 80v9c12 32 26 50 49 74h2l10 8 15 10 11 7q39 22 85 19 23 0 38-15l3-3c18 6 27 7 46 7 85 0 182-38 203-130 8-34 2-73-13-105q-7-17-18-32c-18-28-38-46-64-68l-27-22q2-8-3-15c-6-8-15-6-23-8l1-1-15-15-2-4-1-1c-24-32-34-60-41-99v-4l-10-28-5-17-1-1zM284 814l1 3c3 6 14 10 20 12h4q7 2 16 3l7 1 8-2c0-3-2-2-6-5l-10-5-4-3h-1c-8-5-8-6-15-13l-6-9-1-5q-4 1-6 5l-2 1-1 1v1q-6 7-4 15m113-52h1l-25-11a233 233 0 0 1-107-112q-5-11-9-22l-1-1 3 20 4 21q16 60 57 106a248 248 0 0 0 207 78c13 0 60-6 69-14l2-4-2-3-2-1c-7-2-19 5-27 3l-2-2v-5l2-2c4-2 23-3 30-6q5-3 7-7l-1-4-3-3c-7-1-39 9-45 7l-3-3v-3c3-7 35-8 43-12q3-1 4-4l-1-5c-8-9-27-4-37-1-3 1-15 8-17 6-10-6 3-11 6-13q6-3 8-8 2-8-7-7l-15 8-17 7-17 5-7 2-7 1-30 1-6-1-33-6z"/><path fill="#f6f6fa" fill-opacity=".9" d="M467 281c3-1 1-3 5-1l3 1q-3-2-4-5l20-35 4-8h1l-1 3q-2 7-1 12-5 6-9 13h-2q-5 3-6 9l1 12-2 2-2 7c-7 11-19 31-31 36v-1c7-4 10-13 16-18l4-5h-1c-2 2-9 5-11 2l1-3-21 21 1-2 6-7 13-14z"/><path fill="#f6f6fa" d="M504 206c5 7 5-3 12 1l1 4 1 2c3 0 2 12 1 12v1l4 1h-1l-4 1v-1c-6 2-1 18-2 19l-1-3-2-4q-1-4-6-6l-2-1-2-3-5 1-1 1h-1c0-2 4-9 3-12z"/><path fill="#f6f6fa" fill-opacity=".9" d="m520 206 8 21v4l-1 1c1-3-3-7-1-1h-1l-3-4h1l-4-1v-1c1 0 2-12-1-12l-1-2q3-2 3-5"/><path fill="#d1dcf7" fill-opacity=".4" d="M506 199c2 3 11-2 10 8-7-4-7 6-12-1z"/><path fill="#f6f6fa" fill-opacity=".1" d="M506 198zh8l3 1 2 7q0 3-3 5l-1-4c1-10-8-5-10-8z"/><path fill="#f6f6fa" fill-opacity=".7" d="M526 231c-2-6 2-2 1 1z"/><defs><linearGradient id="a" x1="505" x2="496.4" y1="716.9" y2="229.1" gradientUnits="userSpaceOnUse"><stop offset="0" stop-color="#9bb3f4"/><stop offset="1" stop-color="#edf2f9"/></linearGradient></defs><path fill="url(#a)" d="M499 219c1 3-3 10-3 12h1l1-1 5-1 2 3 2 1q5 2 6 6l2 4 1 3c1-1-4-17 2-19v1l4-1 3 4h1l1 1 1-1c7 39 17 67 41 99l1 1 2 4 15 15-1 1c8 2 17 0 23 8q4 7 3 15l27 22a303 303 0 0 1 82 100c15 32 21 71 13 105-21 92-118 130-203 130-19 0-28-1-46-7l-3 3q-15 15-38 15-45 3-85-19l-11-7-15-10-10-8h-2c-23-24-37-42-49-74v-9q-6-41 9-80 22-54 76-77l18-8q13-5 22-11c19-14 16-31 12-51-1-3 0-12 1-16-2-8 17-24 22-30l14-15q-4 2-7 5 0-2 4-5c12-5 24-25 31-36l2-7 2-2-1-12q2-6 6-9h2q4-7 9-13-1-5 1-12l1-3h-1l-4 8-20 35q1 3 4 5l-3-1c-4-2-2 0-5 1 15-24 22-36 32-62m77 160 5-4q-7-2-5 4m-76 57q4-1 1-4l-1 1q-2 2 0 3"/><path fill="#242122" d="m424 352 26-27q13-14 23-29c3-5 7-16 13-11 3 4-4 12-6 16l-20 26c-15 16-48 43-36 67 5 11 21 17 15 37q-8 18-27 28-18 8-37 14a124 124 0 0 0-80 89q-10 42 13 78c17 26 43 46 74 52 22 5 41 2 64 8q10 2 22 7c10 4 26 12 37 13 3-2 18-2 22-2l37-8c51-14 96-43 123-89s29-99 8-148l-8-16c-22-30-52-52-80-76l5-7 27 22a303 303 0 0 1 82 100c15 32 21 71 13 105-21 92-118 130-203 130-19 0-28-1-46-7l-3 3q-15 15-38 15-45 3-85-19l-11-7-15-10-10-8h-2c-23-24-37-42-49-74v-9q-6-41 9-80 22-54 76-77l18-8q13-5 22-11c19-14 16-31 12-51-1-3 0-12 1-16 3-7 5-15 14-20"/><defs><linearGradient id="b" x1="367.5" x2="412.4" y1="734.9" y2="355.6" gradientUnits="userSpaceOnUse"><stop offset="0" stop-color="#6f8ae3"/><stop offset="1" stop-color="#a9b9e6"/></linearGradient></defs><path fill="url(#b)" d="M410 372c3-7 5-15 14-20-8 14-14 23-11 40s27 21 15 41c-11 20-36 24-57 32-60 23-101 85-84 150 7 29 30 56 55 71q29 17 60 18c14 1 20 0 35 3 19 3 31 11 48 17l-3 3q-15 15-38 15-45 3-85-19l-11-7-15-10-10-8h-2c-23-24-37-42-49-74v-9q-6-41 9-80 22-54 76-77l18-8q13-5 22-11c19-14 16-31 12-51-1-3 0-12 1-16"/><path fill="#a8bef7" d="m380 710 25 3c9 1 55 4 55 14l-3 3c-18 5-52-3-70-9q-11-2-7-11"/><path fill="#5872da" d="M687 457q8 8 13 18 29 44 29 96c-1 37-17 72-43 97a229 229 0 0 1-181 52c3-2 18-2 22-2l37-8c51-14 96-43 123-89s29-99 8-148z"/><path fill="#f6f6fa" d="m575 350 11 1c8 2 17 0 23 8q4 7 3 15l-5 7c-2 6-13 17-18 21q11-2 21 3 4 5 6 11c1 13-12 17-23 17q-20 2-40 0c-7-1-14-8-13-15 0-12 14-26 23-35q-9 0-16-6c-6-5-6-15 0-21s20-6 28-6m1 29 5-4q-7-2-5 4"/><path fill="#242122" d="M569 360c9 0 23 0 31 4q5 5 0 11-16 19-34 37c7 0 34-3 38 0l3 5-1 3q-8 4-17 4h-1c-6 0-32 3-37-2l-1-4c-1-11 28-36 36-45-9-1-22 1-31-2-5-1-4-8 2-9z"/><path fill="#f6f6fa" fill-opacity=".9" d="m581 375-5 4q-2-6 5-4"/><path fill="#94abef" d="M295 562zl2 15c13 82 98 104 166 122 14 4 50 18 64 18-4 0-19 0-22 2-11-1-27-9-37-13q-12-5-22-7c-23-6-42-3-64-8-31-6-57-26-74-52a96 96 0 0 1-13-78"/><path fill="#242122" d="m518 228 4-1 3 4h1l1 1 1-1c7 39 17 67 41 99l1 1 2 4 15 15-1 1-11-1-2-1c-28-26-51-61-56-99 0-6-2-18 1-22"/><path fill="#f6f6fa" d="M525 231h1l1 1 1-1c7 39 17 67 41 99l1 1 2 4-8-7a143 143 0 0 1-39-97M493 408c8-2 27 0 34 5 17 13 0 29-8 40q9-1 17 5 10 9 1 20c-7 7-17 7-25 8h-12c-9 1-21 2-27-5-13-13 6-32 15-42q-8 2-15-3c-7-4-8-13-3-19q9-9 23-9m7 28q4-1 1-4l-1 1q-2 2 0 3"/><path fill="#242122" d="M496 417q9 0 18 1c20 3 7 17-1 26l-18 21c6-1 35-5 36 3s-13 8-18 8c-6 1-29 3-33-1l-2-4c0-8 24-33 31-41h-17c-4 0-13 1-15-4-3-8 14-8 19-9"/><path fill="#f6f6fa" fill-opacity=".9" d="M501 432q3 3-1 4-2-1 0-3z"/><path fill="#242122" d="M545 570h6c4 1 7 11 9 15q11 21 33 28c25 8 53 0 68-22q7-9 10-19c3-4 10-4 12 1q1 7-2 12-7 15-19 26a74 74 0 0 1-117-24c-3-7-6-12 0-17M346 570c11-1 12 11 17 20q14 19 37 25c29 6 59-10 69-39 4-11 19-9 12 8a73 73 0 0 1-71 46q-31-2-52-25c-6-6-16-21-16-30q1-3 4-5M469 647l6 3c17 16 46 17 66 7l6-5c9-10 22-2 11 10a74 74 0 0 1-65 13c-10-3-24-9-29-17q-3-8 5-11"/><defs><linearGradient id="c" x1="606.7" x2="492.5" y1="825.2" y2="455" gradientUnits="userSpaceOnUse"><stop offset="0" stop-color="#4f6ad9"/><stop offset="1" stop-color="#6982dc"/></linearGradient></defs><path fill="url(#c)" d="M679 394q63 61 83 147c6 25 6 37 2 62-8 55-36 104-80 138q-15 12-32 21c-5 3-1 10 4 8a239 239 0 0 0 104-116l1 1-5 18a240 240 0 0 1-149 154q1-8-3-12 20-13 3-29 4-8 0-17c-8-14-26-11-39-10q2-7-2-13c-13-16-29 0-42 6q-31 13-67 10c-52-3-101-26-136-64h2l10 8 15 10 11 7q39 22 85 19 23 0 38-15l3-3c18 6 27 7 46 7 85 0 182-38 203-130 8-34 2-73-13-105q-7-17-18-32c5-10-25-67-24-70"/><path fill="#d1dcf7" d="m432 321-1 2 21-21-1 3c2 3 9 0 11-2h1l-4 5c-6 5-9 14-16 18v1q-4 3-4 5 3-3 7-5l-14 15c-5 6-24 22-22 30-1 4-2 13-1 16 4 20 7 37-12 51q-10 6-22 11l-18 8q-54 24-76 77-15 39-9 80v9c-7-17-13-46-13-65-1-12 8-39 12-51q21-58 64-102l26-25c22-22 48-39 71-60"/><path fill="#94abef" d="M528 227c14 33 31 61 60 83l11 10h1l9 1q-4 3-7 3v-1q-3-1-5 1 1 8-1 14c5 18 26 14 40 15l43 41c-1 3 29 60 24 70-18-28-38-46-64-68l-27-22q2-8-3-15c-6-8-15-6-23-8l1-1-15-15-2-4-1-1c-24-32-34-60-41-99z"/><path fill="#f6f6fa" d="M596 338q-1-6 1-14 1 8-1 14"/><path fill="#465a85" d="m760 654 2-3-1 4z"/><path fill="#94abef" d="M256 616zq4 11 9 22a239 239 0 0 0 107 112l25 11h-1l-6-1-10-4-3-2q-8-2-1 1l3 2 10 4q13 6 29 11l2 1q10 0 18 2l15 1 22 1c8-1 21-2 29-5l6-2q4 0 3-2h-1v-1q4 0 6-3l32-15q9-1 7 7-2 5-8 8c-3 2-16 7-6 13 2 2 14-5 17-6 10-3 29-8 37 1l1 5q-1 3-4 4c-8 4-40 5-43 12v3l3 3c6 2 38-8 45-7l3 3 1 4q-2 4-7 7c-7 3-26 4-30 6l-2 2v5l2 2c8 2 20-5 27-3l2 1 2 3-2 4c-9 8-56 14-69 14h-32c-67-2-129-29-175-78q-41-46-57-106l-4-21zm4 23 2 1c3-1 0-5-1-6l-1 3zm35 49q36 54 98 78c6 2 21 8 26 7q-16-5-29-11l-10-4-3-2q-7-3 1-1l3 2 10 4 6 1h1l-25-11q-46-23-78-65z"/><path fill="#a8bef7" fill-opacity=".9" d="m260 637 1-3c1 1 4 5 1 6l-2-1z"/><path fill="#5872da" d="m259 636 1 1v2q7 20 15 40 10 21 22 38c51 69 136 114 222 111 12 0 67-4 75-9l2 1 2 3-2 4c-9 8-56 14-69 14h-32c-67-2-129-29-175-78q-41-46-57-106z"/><path fill="#d1dcf7" d="M295 686q32 41 78 65l25 11h-1l-6-1-10-4-3-2q-8-2-1 1l3 2 10 4q13 6 29 11c-5 1-20-5-26-7q-62-24-98-78zm75 65-5-1 1 1zm-9-4zq0 3 1 1"/><path fill="#d1dcf7" fill-opacity=".9" d="m365 750 5 1h-4z"/><path fill="#d1dcf7" d="m360 746 1 1q-1 2-1-1"/><path fill="#f6f6fa" d="M536 758zl-10 6q-30 18-64 15c-10-1-32-3-41-6q10 0 18 2l15 1 22 1c8-1 21-2 29-5l6-2q4 0 3-2h-1v-1q4 0 6-3z"/><path fill="#a8bef7" d="M256 616zq4 11 9 22 11 26 29 47v2c-7-6-28-42-31-50q0 1-1 2h-1c3-1 0-5-1-6l-1 3-1-1z"/><path fill="#94abef" d="M618 835c35-14 62-30 88-57 13 6 28 13 34 27 5 12-10 19-20 21q-36 8-74 9l-14 1h-16z"/><path fill="#a8bef7" d="M618 835c2 2 10 1 14 1h-16z"/><path fill="#94abef" d="M297 791c3-4 18-10 23-11a262 262 0 0 0 76 51l13 5 4 2-12-1h-15l-54-4 8-2c0-3-2-2-6-5l-10-5-4-3h-1c-8-5-8-6-15-13l-6-9z"/><path fill="#f6f6fa" d="m340 831 1-2 16 6-25-2z"/><path fill="#a8bef7" d="m409 836 4 2-12-1q5 1 8-1"/><path fill="#f6f6fa" fill-opacity=".4" d="M289 797h8v4q1 3 3 4 1 3 3 5l2 4h1c1 0-2 4 4 4q1 0 2 2c3-2 4 3 5 3l-1-1 4-4 4 3 2 3q-4 3-9 4l-3-3q-3-1-6 2l1 2h-4q-3-3-4-7l-4-6q-3-1-2-6-2-3 1-4c2-3 2 4 3 4q1-4-1-5c-3-2-1-5-3-7q-1 0-3 1t-4-1zm32 24-2-1z"/><path fill="#d1dcf7" fill-opacity=".4" d="m319 820 2 1z"/><path fill="#f6f6fa" fill-opacity=".5" d="M288 798q2 2 4 1t3-1c2 2 0 5 3 7q2 1 1 5c-1 0-1-7-3-4q-3 1-1 4-1 4 2 6l4 6q1 4 4 7c-6-2-17-6-20-12v-4c3-2 2 3 4 3 6 1 1-9 5-11q3-1 1-6c-5 2-5 6-7 0z"/><path fill="none" d="m324 821 10 5-2 2q-2 3-5 4h-2q-9-1-16-3l-1-2q3-3 6-2l3 3q5-1 9-4z"/><path fill="#f6f6fa" fill-opacity=".2" d="m504 772 1 1c-8 3-21 4-29 5 0-2-8-2-10-2q-5 1-8-2l30-1c3 2 12 0 16-1M291 796zq3 0 5-1l1 2 6 9c0 6 0 4 4 9 2 3 3 1 5 4h7l-4 4 1 1c-1 0-2-5-5-3q-1-2-2-2c-6 0-3-4-4-4h-1l-2-4q-2-3-3-5-2-1-3-4v-4h-8z"/><path fill="#f6f6fa" fill-opacity=".7" d="M284 814q-2-8 4-15c2 6 2 2 7 0v2c0 3-3 2-4 7l-1 7c-2 1-1-10-4-6z"/><path fill="#d1dcf7" d="M519 765q-2 3-6 3v1h1q2 2-3 2-4-1-7 1c-4 1-13 3-16 1l7-1 7-2z"/><path fill="#f6f6fa" fill-opacity=".2" d="M319 818h-6c-2-3-3-1-5-4-4-5-4-3-4-9 7 7 7 8 15 13M334 826c4 3 6 2 6 5l-8 2-7-1h2q3-1 5-4z"/><path fill="#f6f6fa" fill-opacity=".6" d="M295 799q2 5-1 6c-4 2 1 12-5 11-2 0-1-5-4-3v4l-1-3 2-5c3-4 2 7 4 6l1-7c1-5 4-4 4-7v-2"/><path fill="#d1dcf7" fill-opacity=".1" d="m452 773 6 1q3 2 8 2c2 0 10 0 10 2l-22-1 3-1q-1-2-4-2zM297 791l1 5-1-2q-2 1-5 1l-1 1q2-4 6-5"/><path fill="#f6f6fa" fill-opacity=".6" d="m381 757 10 4-1 1z"/><path fill="#d1dcf7" fill-opacity=".6" d="M504 772q3-2 7-1l-6 2z"/><path fill="#f6f6fa" fill-opacity=".9" d="m378 755 3 2-1 1-3-2z"/><path fill="#f6f6fa" fill-opacity=".7" d="M377 756q-7-3 1-1z"/><path fill="#242122" d="m660 267-39 3q-8 1-14-2-2-2-2-4 0-4 2-6c5-4 55-7 64-6l8 4q2 3 1 7c-1 9-49 51-57 66q23 0 46-4c9-1 16 6 8 13-3 3-37 3-38 6-4-2-24 0-30-4-8-5-3-12 0-18q25-28 51-55"/><path fill="#f6f6fa" d="M609 322c-3 6-8 13 0 18 6 4 26 2 30 4l-6 4 1 1q5 1 6 3l-4 1c-14-1-35 3-40-15q2-6 1-14 2-2 5-1v1q3 0 7-3z"/></svg>