<svg xmlns="http://www.w3.org/2000/svg" width="1024" height="1024" viewBox="0 0 1024 1024"><path fill="#131213" d="M276 100a900 900 0 0 1 227 77 466 466 0 0 1 145 108 266 266 0 0 1 59 185 251 251 0 0 1-19 70 249 249 0 0 1-126 124l-14 6q-37 14-76 15h-25a365 365 0 0 1-74-15q-37 28-79 49c-23 11-48 20-67-3-13-16-9-33-5-51q12-52 32-102-17-36-20-75c-7-53 9-111 32-159 22-46 38-88 40-140-1-34-7-62-30-89m47 544-6-5-26-21-15 45-4 11c16-7 36-21 51-30m61-37zq-14-6-26-15c-25 25 28 47 47 52q16 6 32-1c6-4 8-14 5-20l-8 1q-12 2-24-1c21-1 47-9 56-30 16-34-19-69-49-80q-11-4-22-9-42-24-58-69c-2-7-11-10-18-9-14 3-8 24-5 33q9 24 26 44l6 6-1 1q-1 2-2 1-4-2-6-5c-17-17-33-43-33-68q-1-9 7-16c-5-4-17-11-24-5-4 4-4 13-3 18 0 28 12 55 27 79l16 21 1 3-2 1-7-5q-29-33-40-76l-3-22c-9 5-9 13-8 23 8 54 49 95 91 126zm-47-278-1 6c-4 17-4 41 0 59q1 9 4 17l1 2 2 9 1 1 2 4 2 5a93 93 0 0 0 29 35c32 23 69 11 92-19a80 80 0 0 1-51-59l-1-6v-9l1-8 2-6 2-3q3-5 8-9t12-5h3l2-1q10 2 21-1c-12-10-21-19-26-35v-14l1-2q6-15 22-19c-24-26-55-34-85-14l-4 4-8 7-1 1c-8 8-18 24-22 35l-1 1zm175 57 1 3 3 9 2 5 1 1q5 12 13 22h1a72 72 0 0 0 26 21q10 4 22 4 26-2 43-23c-19-9-29-18-38-37l-3-10-1-3v-20l1-1 1-4q2-6 8-11 4-4 9-4l4-1 22-1c-12-12-12-9-21-23l-4-9v-3l-1-6 2-6v-1l3-6q6-6 14-10-10-12-25-17l-3-1a51 51 0 0 0-46 7c-36 24-45 86-34 125"/><defs><linearGradient id="a" x1="478.1" x2="452.4" y1="622" y2="92" gradientUnits="userSpaceOnUse"><stop offset="0" stop-color="#1d39f5"/><stop offset="1" stop-color="#69bfff"/></linearGradient></defs><path fill="url(#a)" d="M276 100a900 900 0 0 1 227 77 466 466 0 0 1 145 108 266 266 0 0 1 59 185 251 251 0 0 1-19 70 249 249 0 0 1-126 124l-14 6q-37 14-76 15h-25a365 365 0 0 1-74-15q12-9 24-20c16 5 45 10 51-11q3-9 0-17l6-5c48-37 9-93-35-110-6-2-16-4-20-7-22-11-45-35-53-57l7 10c12 16 31 30 51 33q28 3 51-14c25-19 38-48 44-78l3-25c5 33 18 65 50 82 36 19 73-3 90-38q24-53 5-109c-10-21-20-40-41-52-55-30-100 28-104 79l-1 11c-6-35-16-68-46-90-36-26-79-11-103 24-24 34-30 78-23 119q4 16 8 30c-8-5-11-5-21-4-15-15-41-19-40 9-24 7-16 34-11 51q10 32 32 58c-8-1-39-28-47-35l-16-16c-7-53 9-111 32-159 22-46 38-88 40-140-1-34-7-62-30-89"/><path fill="#1132aa" d="M448 622h31c61-2 122-20 173-54q17-12 33-27l3-1a249 249 0 0 1-126 124l-14 6q-37 14-76 15h-25a365 365 0 0 1-74-15q12-9 24-20c16 5 45 10 51-11q3-9 0-17"/><path fill="#131213" d="M470 484c3-1 10-2 8 4l-13 5q9 9 21 17c28 18 66 16 95 0l12-7 2 1c3 6-9 11-13 13-40 20-92 17-122-20v1h-1c-1 5 0 14-6 13q-3-3-2-6c0-12 9-18 19-21"/><path fill="#1132aa" d="m234 488 16 16c8 7 39 34 47 35h1l11 14c12 12 28 27 42 36-12 11-9 24 0 35l-16 12-12 8-6-5-26-21c8-18 26-51 4-66q-10-6-21-4-13 3-20 15-17-36-20-75"/><defs><linearGradient id="b" x1="489.9" x2="332.8" y1="399.6" y2="329.3" gradientUnits="userSpaceOnUse"><stop offset="0" stop-color="#fffffe" stop-opacity="0"/><stop offset="1" stop-color="#fefefd" stop-opacity=".9"/></linearGradient></defs><path fill="url(#b)" d="m431 254 9 5 3 3q7 6 2 14c-2 3-9 12-3 16v7l-3 4q-3 1-2 4c-5 10 11 20 4 28l-9 3q-8 6-14 17l-4 6q1 4 4 5l-1 8-1-1-4-2c-2 4-6 14-6 19 1 1 2-1 2 3q-1 3 1 4l-1 3h1v6c2 0 1-13 5-14l4-3q11 42 51 59c-23 30-60 42-92 19l-5-4c1-3-7-6-8-9l-3-4c1-1 4 5 6 4 1-1-3-2-1-3h1l-2-3-2-2-3-2q-4-5-5-8h-1v-1q3-1 2-3l-1-3q-2-4-5-4 2-8-5-8 0-3 2-6c1-2-1-8-2-9l-2 1v1l-2-1v1l-2-2c0-1 5-5 4-9q-1-5-3-9v5h-2v-1l-1-4v6l-1 4c-4-18-4-42 0-59 3 2 3 4 4-4l-3-2 3-11 1 4q2 4 3 0 1-3-1-6l-2-1 3-10c2 9 4 6 4-1h-3c4-11 14-27 22-35l-4 6 2 1q-2 1-2 3l-1 3 1-1 1 1 1-5 6-6 5-4q3-3 8-4l2 2 4-1v1l-1 2h6l3-1 1-1 4-2q-4 1-9-2h3q1-2 2-2h8l9-2v-1c9 0 7 2 15-2m-81 48zq4-4 0-8-4 4-1 8"/><path fill="#fefefe" fill-opacity=".6" d="M351 294q4 4 0 8h-1q-3-4 1-8"/><defs><linearGradient id="c" x1="617.1" x2="506.3" y1="372.3" y2="323.5" gradientUnits="userSpaceOnUse"><stop offset="0" stop-color="#fefefd" stop-opacity=".5"/><stop offset="1" stop-color="#fefefe" stop-opacity=".8"/></linearGradient></defs><path fill="url(#c)" d="M546 261v4q4 1 7-2l-1-4h1c5 10 15-5 22 2v2c-4 1-3 1-7 4h1-1 4l-1-1 17-6q2 3 6 3 3 0 3 3l1 4-4 6-2 5v2l1 1-1 1 4 3 7 1-2 6-1 3c-2 5-6 6-4 13q2 4 5 6c0 3 2 12-1 13l-6 2c-2-1-4 3-5 4h-1l2 2h2v2l-3 2h-1 4q-5 5-8 11c-1-1-3-5-4-1q0 3 3 5l-1 1-4 4v4c0 2 0 11 4 10v2l1 3c-6 2-4 12-5 16q0 4 4 4c4 2 14 15 16 19l-5-4c-3 6-8 4-11 8s1 13-6 16c-6 5-9 0-15 3l-2 4-12-7c3-2-1-5-2-5l-1 1c0-3 4-2-1-7q1-4-4-6-3 0-6-4 0-4-3-4-1-5-5-7c-2-4 1-7-4-6v-5l-2-6-2 2-1 5-3-9c5 0 5-6 3-8l-1 1c-2-3-3 3-3 4-11-39-2-101 34-125"/><defs><linearGradient id="d" x1="619.3" x2="572.5" y1="435.9" y2="420.2" gradientUnits="userSpaceOnUse"><stop offset="0" stop-color="#fff" stop-opacity="0"/><stop offset="1" stop-color="#fffefd" stop-opacity=".3"/></linearGradient></defs><path fill="url(#d)" d="M582 401q-2-7 4-10c9 19 19 28 38 37a62 62 0 0 1-43 23q-12 0-22-4l2-4c6-3 9 2 15-3 7-3 3-12 6-16s8-2 11-8l5 4c-2-4-12-17-16-19"/><path fill="#fefefe" fill-opacity=".3" d="M546 261c3-3 16-7 20-9l6 3q5-1 9 0 5 1 11-1l3 1q0 4 3 5c3 1 2 4 7 5 1 0 5 3 4 6l-5-4h-1q-4-2-4-6-5 0-7-4l-2 2q-2-1-5 0l-1 1-9 3v-2c-7-7-17 8-22-2h-1l1 4q-3 3-7 2z"/><path fill="#fefefe" fill-opacity=".4" d="M442 299v6l-2 4c-2 6 3 8 4 13l2 5q3 5 2 9 0 4-4 6l1 1h-3q-3-3-7-2v-2l-3 2c-2 3-7 4-2 7q-5 4-8 9l-2-2q0 1-3 3c-2 0-1 9 0 6q1-4 3-4l-2 6q-4-1-4-5l4-6q6-11 14-17l9-3c7-8-9-18-4-28q-1-3 2-4z"/><path fill="#fefefe" fill-opacity=".1" d="M380 257q2 2 4 1 8-3 15-7l11 2 24 1 8 4c2 2 8 6 9 9 2 7-12 16-8 23l-1 2c-6-4 1-13 3-16q5-8-2-14l-3-3-9-5c-8 4-6 2-15 2v1l-9 2-1-1h1l7-2-6-1-7-2h-4q-2 3-6 3-3 3-8 3h-1v1c-5 0-2 5-6 1z"/><defs><linearGradient id="e" x1="605.9" x2="597.1" y1="274.1" y2="273.9" gradientUnits="userSpaceOnUse"><stop offset="0" stop-color="#fff" stop-opacity=".4"/><stop offset="1" stop-color="#fffefd" stop-opacity=".5"/></linearGradient></defs><path fill="url(#e)" d="m590 259 2-2q2 4 7 4 1 4 4 6h1l5 4-2 3c-6 3-2 1-6 7-3 3 0 3-1 5q0-1 2 1l1 1v1l-7-1-4-3 1-1-1-1v-2l2-5 4-6c3-11-4-4-8-11"/><path fill="#fefefe" fill-opacity=".5" d="M602 301v3c-5 7-1 7 1 10l2 6c2 2 5 8 3 10l-3 7-4 1q-5 1-9 4h-4 1l3-2v-2h-2l-1 1-1-3q5-2 8-3c9-1 7-9 6-16v-1c-5-6-4-4-4-12z"/><path fill="#fefefe" fill-opacity=".6" d="m516 398 1-5 2-2 2 6v5c5-1 2 2 4 6q4 2 5 7 3 0 3 4 3 3 6 4 5 2 4 6c-2-1-8-6-10-5v2h-1q-8-10-13-22l-1-1c4-3 2-10-2-5M336 394l1-4v-6l1 4v1h2v-5q2 4 3 9c1 4-4 8-4 9l2 2v-1l2 1v-1l2-1c1 1 3 7 2 9q-2 3-2 6 7 0 5 8c-2-2-2-11-7-3l-2-9c3 3 4-4 2-5q-2 0-3 2v1q-3-8-4-17m2 4q3-4-1-5-1 3 1 5"/><path fill="#fefefe" fill-opacity=".5" d="M337 393q3 1 1 5-2-2-1-5M391 260c-2 4 2 2 3 1q4 3 9 2l-4 2-1 1-3 1h-6l1-2v-1l-4 1-2-2q-5 1-8 4l-5 4-6 6-1 5-1-1-1 1 1-3q0-2 2-3l-2-1 4-6 1-1 1 3q1-3 4-3 2-1 3-4 3 0 4-3h7zM409 397l1-8c-1-4 0-13 3-17l3 1 1 1v2c-3-5-6 4-4 7h4l1 6-4 3c-4 1-3 14-5 14v-6h-1z"/><path fill="#fefefe" fill-opacity=".3" d="M348 432c3-7 3 3 8 0q1 1-2 3v1h1q1 3 5 8l3 2 2 2 2 3h-1c-2 1 2 2 1 3-2 1-5-5-6-4l3 4c1 3 9 6 8 9q-15-13-24-31"/><path fill="#fefefe" fill-opacity=".2" d="M397 253h4l7 2 6 1-7 2h-1l1 1h-8q-1 0-2 2h-3c-1 1-5 3-3-1l4-2c-1-1-6 0-7 1l-6 1v-1h1q5 0 8-3 4 0 6-3"/><path fill="#fefefe" fill-opacity=".5" d="M582 401q-4 0-4-4c1-4-1-14 5-16l3 10q-6 3-4 10M533 426v-2c2-1 8 4 10 5 5 5 1 4 1 7l1-1c1 0 5 3 2 5q-8-5-14-14"/><path fill="#fefefe" fill-opacity=".7" d="M601 317q-3-2-5-6c-2-7 2-8 4-13l1-3 1 6h-1l-3 3c0 8-1 6 4 12v1c1 7 3 15-6 16q-3 1-8 3h1c1-1 3-5 5-4l6-2c3-1 1-10 1-13"/><path fill="#fefefe" fill-opacity=".1" d="M566 252c10-1 15-1 26 2q-5 2-11 1-5-1-9 0zM445 343l-1-1q4-2 4-6 1-5-2-9l-2-5c-1-5-6-7-4-13l2-4v-1 2q-1 3-1 8 3 4 4 9c3 5 9 9 5 15q-3 3-3 4z"/><path fill="#fefefe" fill-opacity=".3" d="m382 260 6-1c1-1 6-2 7-1l-4 2-4 1h-7q-1 3-4 3-1 3-3 4-3 0-4 3l-1-3 8-7c4 4 1-1 6-1"/><path fill="#fefefe" fill-opacity=".5" d="M343 422c5-8 5 1 7 3q3 1 5 4l1 3c-5 3-5-7-8 0l-2-5c3-1 0-8-2-4z"/><path fill="#fefefe" fill-opacity=".6" d="m575 263 9-3 1-1q3-2 5 0c4 7 11 0 8 11l-1-4q0-3-3-3-4 0-6-3l-17 6 1 1h-4 1-1c4-3 3-3 7-4"/><path fill="#fefefe" fill-opacity=".1" d="M430 348c-5-3 0-4 2-7l3-2v2q4-1 7 2-7 1-12 5"/><path fill="#fefefe" fill-opacity=".5" d="M408 393c0-4-1-2-2-3 0-5 4-15 6-19l4 2-3-1c-3 4-4 13-3 17l-1 8q-2-1-1-4"/><path fill="#fefefe" fill-opacity=".9" d="m578 362 4-4v18c-4 1-4-8-4-10z"/><path fill="#fefefe" fill-opacity=".3" d="m603 288-1-1q-2-2-2-1c1-2-2-2 1-5 4-6 0-4 6-7q-3 4-1 8z"/><path fill="none" d="m605 320-2-6c-2-3-6-3-1-10l4 9z"/><path fill="#fefefe" fill-opacity=".6" d="m340 318 1-3 2 1q2 3 1 6-1 4-3 0z"/><path fill="#fefefe" fill-opacity=".2" d="M417 383h-4c-2-3 1-12 4-7z"/><path fill="#fefefe" fill-opacity=".6" d="M512 386c0-1 1-7 3-4l1-1c2 2 2 8-3 8z"/><path fill="#fefefe" fill-opacity=".5" d="M420 360q-2 0-3 4c-1 3-2-6 0-6q3-2 3-3l2 2z"/><path fill="#fefefe" fill-opacity=".7" d="m337 329 3 2c-1 8-1 6-4 4z"/><path fill="#fefefe" fill-opacity=".3" d="M340 411zq1-2 3-2c2 1 1 8-2 5z"/><path fill="#fefefe" fill-opacity=".6" d="M345 304h3c0 7-2 10-4 1zM583 357q-3-2-3-5c1-4 3 0 4 1z"/><path fill="#fefefe" fill-opacity=".5" d="M516 398c4-5 6 2 2 5z"/><path fill="#fefefe" fill-opacity=".3" d="M344 423c2-4 5 3 2 4z"/><path fill="#131213" fill-opacity=".9" d="m384 607 3 2z"/><path fill="#131213" d="m589 650 10 30c5 25 3 59 0 84 13 1 39 9 37 27v4q11-6 25-9c48-12 102 23 102 74l-1 10q8 7 8 19-2 12-11 20-12 9-26 14c-35 13-73 14-109 11-28-3-102-14-119-35q-5-7-5-16 2-9 8-14-9-31 11-56-5-3-8-9c-9-23 21-36 39-38 5-32 8-65-2-96l14-6zm169 250q8-11 1-23l-13 10c-33 18-79 20-115 17-27-3-101-13-120-30q-6 7-4 14c1 6 8 11 13 14q23 10 47 16c50 11 104 17 153 2 13-4 29-10 38-20m-170-9c31 5 50 7 82 7 25-1 63-7 82-24q6-8 4-18c0-16-9-34-22-44a83 83 0 0 0-59-21h-1l-8 1c-46 9-73 56-78 99m8-107c3-1 9-2 9 2-8 13-70 11-64-1h7l1-12q-16 2-29 13-7 10 0 19c23 22 83 13 106-7q9-9-1-17c-8-7-18-8-27-11zM401 679q23 5 46 6l-5 21c-5 19-11 45-12 65q17 3 30 14 14 17-3 32a55 55 0 0 1 11 53q6 7 7 17 0 9-6 15c-18 19-80 30-105 33l-40 3q-45 3-87-13c-14-6-31-15-31-33q1-11 9-18-4-22 6-42 14-30 47-40c28-10 48-4 73 9-3-16 2-23 16-29q12-6 25-5 6-45 19-88m-13 214c-5-33-17-60-44-81a81 81 0 0 0-53-18c-34 3-64 24-70 59-3 20 1 29 20 36q37 13 75 12 36-2 72-8m-171-12q-5 7-4 15l4 8c19 20 65 27 92 28q22 1 43-2c25-2 92-14 110-31q6-5 7-12 0-6-4-10c-35 21-117 32-158 31q-24 0-49-6c-12-4-33-11-41-21m235-69c22-18-8-30-23-35l-1 11q4 0 7 2c-1 12-53 10-61 1v-3q2-3 5-1c2-1 2-11 2-13v-1c-10 2-37 6-35 21q2 9 9 12c26 16 70 23 97 6"/><path fill="#222121" d="M731 228q3-33 1-66l-3-18c-2-10-4-15-3-24 0-15 13-27 27-25 35 3 36 52 36 78l-1 21c20-17 42-12 57 9 34-11 52 18 44 49l-3 11v16q-2 25-13 48-6 12-17 19 13 23-9 37-10 3-18 5c-10 3-40-2-51-4-10-3-22-7-27-17q-4-9-1-17 1-6 6-10-10-6-19-16c-22-22-32-61-12-88zm31 116c-20 21 11 33 28 36 19 3 50 6 63-12 3-5-1-13-3-19q-15 4-31 4 22-4 39-18c14-13 21-41 21-60q-22 24-48 5c-6 4-8 4-15 6 8 13 10 17 11 33l-1-3c-7-21-14-27-32-36-19 3-32 0-43-17l8 4c15 8 32 10 46-2 5-4 17-21 7-24-29-8-71-30-87 9-6 14-5 32 1 46 11 24 34 42 58 51v2h-1q-11-1-21-5m74-69c8 6 13 7 23 5 33-13 34-73-2-73l-9 2q12 36-12 66m-32 1q7 4 16 2c35-14 35-91-12-87-19 4-23 17-25 33l33 11c12 5 4 24-2 31zm-24-52c1-25 12-124-30-122-20 4-19 19-15 36q6 30 3 62l-3 26q12-5 23-6z"/><path fill="#281e26" fill-opacity=".8" d="M788 349h2-7 5"/><path fill="#131213" d="m784 347 4 2h-4zM778 384c11 2 41 7 51 4-3 33-25 140-49 161q-11 8-24 7t-24-11l-21-15q-7-6-15-10 8-25 11-51l36 26 9 6 3-9q16-53 23-108"/></svg>