<svg xmlns="http://www.w3.org/2000/svg" width="1024" height="1024" viewBox="0 0 1024 1024"><path fill="#241f20" d="M468 119a292 292 0 0 1 268 431l-9 16-1 1q16 11 33 15c51 10 70-62 77-99q-8 0-15-3-11-6-15-18c-5-17 6-32 22-37-13-16-30-25-32-49q-2-21 13-37v-2q-1-37-1-74c0-11-1-21 7-29 13-15 36-9 42 9l1 24v41c14-14 32-13 40 6q3-4 8-7 8-5 18-3 8 3 13 11c3 8 3 42 0 50q-3 9-11 12c0 23 0 32-18 49l5 3q12 6 14 19 3 13-4 22-8 11-20 13c-2 31-18 79-34 106-17 27-41 50-73 57-41 10-77-8-111-29-34 32-59 48-102 65v107q6 0 12 4c20 11 18 44-4 52l-7 2v12q23-11 49-7c29 6 67 35 61 68-3 14-18 26-32 26H377c-20 0-36 2-48-17q-7-13-4-27 4-13 16-21v-33q-6-1-13-6a30 30 0 0 1-7-41q8-11 20-12v-43l1-82c-14-8-33-20-44-32q-19 15-39 3c-21 23-55 47-86 54a87 87 0 0 1-105-67c-11-59 40-107 90-128q19-7 39-10l-3-17q-4-15-4-31a295 295 0 0 1 278-317M281 430c20-4 42-4 47 20l1 2 4 5q24 3 29 26 9 3 15 9 10 11 8 26c-3 20-19 36-41 28l-2-2-2-1-1 1-1 4c-4 25-12 39-39 43q13 19 2 38a279 279 0 0 0 386-20l14-15q33-40 50-88a289 289 0 0 0-175-366 282 282 0 0 0-240 23 292 292 0 0 0-135 320c12-1 28-1 40 1 5-27 12-46 40-54m233 478c13-7 7-21-5-21-14 6-9 22 5 21M375 497c-15-16-39-14-57-2q-3 3-7 3c0-4 6-8 9-9q18-9 37-7c-8-29-39-21-59-10q-5 5-11 6h-1q1-5 7-8 16-10 35-12c-16-14-36-8-53 1-4 2-8 8-11 8l-1-2c3-7 17-14 24-16 14-4 23-5 36 0q-8-21-30-16c-15 2-27 5-36 18q-6 8-8 15l-6 33-9 46c13 3 18 10 28 17l32 25q16 1 28-10c16-15 7-42 26-54q6-4 13-4v1q-1 4-7 4-10 4-13 15l7 4c20 7 36-17 33-35q-2-6-6-11m438-249v88c14-10 25-8 41-8v-51c0-9 1-31-3-37-11-17-35-13-38 8m108 127c12-4 14-13 14-25-1-17 6-44-22-42-16 5-13 17-14 30 0 16-2 39 22 37M497 789v-88a322 322 0 0 1-71-5v93q15 1 23 13 6 11 4 22-7 19-27 24l1 8c24-8 39-10 64 1h1l5 3 1-13c-18-3-29-17-26-34a28 28 0 0 1 25-24m370-418c9 8 26 2 27-11v-23c1-14 2-36-19-34-15 3-17 12-17 26 13-1 24-3 24 15q0 19-15 27m-13-38c-16-1-29-3-41 9q-12 11-13 28l1 8v2l1 2v2l4 8v2l4 5 1 2 4 4 19 19h68c19-10 20-25 19-45-12 0-17-2-24-13q-3 8-11 11-5 3-12 2c3 4 9 19 6 23h-2q-2-4-3-10-3-12-13-19c-4 1-20 4-22 0 4-6 20 1 30-9q7-8 8-19c1-16-12-13-24-12M472 860c-13 6-4 13 5 16 6 2 12 8 18 9q7 3 10-4 0-6-5-9l4-2-4-3-4-3-6-3-12-4-2 2zm181 4q-42-21-80 8c-2 2-7 9-10 9l-2-2c1-5 14-14 18-17v-14h-77v14c18 14 40 37 30 62q-5 10-14 18h127l22-1q9-2 15-8 8-9 8-21c0-19-18-36-33-46zM146 624q12 5 24-3c9-4 31-18 35-27h1l-4-8q-7-17 5-32l9-7-2-1q-43 7-72 40c-9 12-11 29 4 38"/><path fill="#84b2f4" d="M363 149a288 288 0 0 1 337 445c-3 4-9 12-13 15l-1 1a289 289 0 0 1-184 86c-73 5-146-19-201-67q11-19-2-38c27-4 35-18 39-43l1-4 1-1 2 1q-2 6 2 2c22 8 38-8 41-28q2-14-8-26-6-6-15-9-5-23-29-26l-4-5-1-2c-5-24-27-24-47-20-28 8-35 27-40 54-12-2-28-2-40-1q-5-22-7-45a292 292 0 0 1 169-289m149 201-2 1q-6-35-35-54a77 77 0 0 0-108 21 85 85 0 0 0 23 117q25 18 57 11 33-7 52-35 11-18 13-39l1-4q4 22 18 40 22 26 55 30 33 2 58-18c56-47 28-144-46-149q-32-2-57 19a87 87 0 0 0-29 60M409 500l3-4q-5 0-3 4"/><path fill="#317ee8" d="M299 591c27-4 35-18 39-43a291 291 0 0 0 330 69l19-8-1 1a289 289 0 0 1-184 86c-73 5-146-19-201-67q11-19-2-38M201 483q-5-22-7-45a292 292 0 0 1 169-289c-2 4-16 15-20 19l-19 22a264 264 0 0 0-43 240c-28 8-35 27-40 54-12-2-28-2-40-1"/><path fill="#241f20" d="M512 350q3-36 29-60 25-22 57-19c74 5 102 102 46 149a81 81 0 0 1-58 18q-33-4-55-30a92 92 0 0 1-18-40zm76 48-9-11 2 1-2-5v3l-3-8h2c-6-15-6-35-1-50 6-22 15-33 34-44h-1l3-1q8-2-1-3h-1q-6-3-11-4h2c-79-8-114 90-58 140a73 73 0 0 0 78 11l10-5-2-2h-9c-16-4-22-9-33-22m70-85-5-4q-8-5-17-1-8 3-11 11-3 6 0 14t11 11c12 6 25-3 27-16q1-8-4-14z"/><path fill="#0a0909" d="M612 280zq-6-3-11-4h2c6 1 16 3 21 6l-3 1h5c8 3 26 18 28 26q-8-5-17-1-8 3-11 11-3 6 0 14t11 11c12 6 25-3 27-16l1-1c3 2 5 17 5 21 1 21-6 44-20 60q-5 7-13 11l-4 3-2-2h-9c-16-4-22-9-33-22l-9-11 2 1-2-5v3l-3-8h2c-6-15-6-35-1-50 6-22 15-33 34-44h-1l3-1q8-2-1-3"/><path fill="#fefefe" d="M612 280zq-6-3-11-4h2c6 1 16 3 21 6l-3 1q-6 1-11 4c-35 17-43 69-26 101l5 10-9-11 2 1-2-5v3l-3-8h2c-6-15-6-35-1-50 6-22 15-33 34-44h-1l3-1q8-2-1-3M636 419l-4 3-2-2z"/><defs><linearGradient id="a" x1="638.7" x2="527" y1="385.9" y2="315.5" gradientUnits="userSpaceOnUse"><stop offset="0" stop-color="#fff" stop-opacity=".9"/><stop offset="1" stop-color="#fff"/></linearGradient></defs><path fill="url(#a)" d="M622 427c-7 6-27 7-37 6q-23-2-41-17c-56-50-21-148 58-140h-2q6 1 11 4h1q-2 2 1 3l-3 1h1a64 64 0 0 0-34 44c-5 15-5 35 1 50h-2l3 8v-3l2 5-2-1 9 11c11 13 17 18 33 22q-7 6 1 7"/><defs><linearGradient id="b" x1="631.2" x2="656.4" y1="313.3" y2="339.1" gradientUnits="userSpaceOnUse"><stop offset="0" stop-color="#fff" stop-opacity=".9"/><stop offset="1" stop-color="#fff"/></linearGradient></defs><path fill="url(#b)" d="M629 338q-3-5-4-9c1-6-2-8 3-13l6-6q3 0 8 1c3 1 6-2 9-1 4 0 3 3 7 3l1 1v1l1 6v1-4l2 6v6l-3 7c-6 8-16 7-25 6l-4-4a1 1 0 1 0-1-1"/><path fill="#fefefe" d="M663 328c-2 13-15 22-27 16q-8-3-11-11t0-14q3-8 11-11 9-4 17 1l5 4c-4 0-3-3-7-3-3-1-6 2-9 1q-5-1-8-1l-6 6c-5 5-2 7-3 13q1 5 4 9l1 1 4 4c9 1 19 2 25-6l3-7v-6l-2-6v4-1l-1-6v-1q5 6 4 14"/><path fill="#fefefe" fill-opacity=".5" d="M612 280q9 1 1 3-3-1-1-3"/><path fill="#fefefe" fill-opacity=".8" d="M629 338a1 1 0 1 1 3 0 1 1 0 0 1-3 0"/><path fill="#0a0909" d="M512 372q-2 21-13 39a80 80 0 0 1-52 35q-32 7-57-11a85 85 0 0 1-22-117c23-35 71-47 107-21q29 20 35 54l2-1 1 18zm-59 68q11-4 21-10-14 1-25-4c-42-20-47-87-15-118q14-12 30-13-17-9-37-7-31 3-51 26a81 81 0 0 0 10 113q30 24 67 13m9-102c4 22 32 26 39 4l1-7v-5l-2-2q-3-8-11-11-23-4-27 18z"/><path fill="#7b88a0" d="m512 350 1 18-1 4-2-21z"/><defs><linearGradient id="c" x1="468.8" x2="358.3" y1="361.4" y2="372.6" gradientUnits="userSpaceOnUse"><stop offset="0" stop-color="#fff" stop-opacity="0"/><stop offset="1" stop-color="#fff" stop-opacity=".1"/></linearGradient></defs><path fill="url(#c)" d="M427 288q20-2 37 7-16 1-30 13c-32 31-27 98 15 118q11 5 25 4a72 72 0 0 1-88-3 81 81 0 0 1-10-113q20-24 51-26m-58 87 1-2c-2-3 1-5 0-8v-2c-1 2-2 12-1 13z"/><path fill="#fefefe" fill-opacity=".1" d="M370 363v2c1 3-2 5 0 8l-1 2v1c-1-1 0-11 1-13"/><defs><linearGradient id="d" x1="470.2" x2="493.5" y1="325.9" y2="343.5" gradientUnits="userSpaceOnUse"><stop offset="0" stop-color="#fff" stop-opacity=".1"/><stop offset="1" stop-color="#fffffe" stop-opacity=".4"/></linearGradient></defs><path fill="url(#d)" d="M485 320h2c1-1 3 4 3 4q-3 4 2 2 2 0 4 2 3 3 4 0l2 2-1 1c-1 1-6 7-1 7 0 4-4-4-4 7l-1 1q-2 2-6 3-6 3-12 3l-8-5-1-6q-2-3-6-3v-3h1q3-1 5-4h9l2-1v-1l4-1 1-2q0-1-1-3z"/><defs><linearGradient id="e" x1="471.5" x2="477.5" y1="320.2" y2="328.8" gradientUnits="userSpaceOnUse"><stop offset="0" stop-color="#fff" stop-opacity="0"/><stop offset="1" stop-color="#fff" stop-opacity=".1"/></linearGradient></defs><path fill="url(#e)" d="M462 335q5-22 27-18l-4 3-2 3q1 2 1 3l-1 2-4 1v1l-2 1h-9q-2 3-5 4z"/><path fill="none" d="M489 317q8 3 11 11-1 3-4 0-2-2-4-2-5 2-2-2s-2-5-3-4h-2z"/><path fill="#fefefe" fill-opacity=".4" d="m502 335-1 7h-1l-4 3c0-11 4-3 4-7z"/><path fill="#fefefe" fill-opacity=".5" d="M502 330v5l-2 3c-5 0 0-6 1-7z"/><path fill="#fefefe" d="M482 146h27q66 6 119 43c59 40 100 102 113 171 3 16 9 69 0 81q-3 5-9 5-6 1-11-4-6-7-4-17c5-83-33-162-101-211-36-27-81-41-127-41-11 0-33 7-34-11q-1-5 3-10c5-6 16-6 24-6"/><path fill="#241f20" d="m417 225 17 1c6 1 26 5 24 14q-3 6-9 5a65 65 0 0 0-77 17c-9 10-20 1-11-9q23-24 56-28M577 215c14-1 32 3 45 10l4 4q1 9-7 9l-12-4q-18-7-38-4-17 3-30 14-2 2-5 3-7-1-8-7c0-5 7-9 10-12q19-12 41-13M405 500l-8 8h-2c-4-8 23-23 25-15-2 4-5 1-8 3q-5 0-3 4 10 16 25 27 39 24 82 9 6-3 11-2v2l-1 1c-22 10-49 12-71 5q-34-11-50-42M541 445c17-1 37 8 33 30-1 5-5 14-9 17h-2c-2-7 16-17 2-34-14-14-36-8-51 0-3 2-7 7-10 7l-1-3q2-3 6-6 15-9 32-11"/><path fill="#84b2f4" fill-opacity=".1" d="m412 496-3 4q-2-4 3-4"/><path fill="#f5841e" d="M208 487c8-1 25 0 32 2l-10 52q-42-1-74 26c-10 7-26 23-26 36 0 26 24 33 44 21 16-9 23-16 36-27l45 35a180 180 0 0 1-79 52c-87 18-138-74-80-141 29-33 69-53 112-56"/><path fill="#84b2f4" d="M346 848h77v10c-5 3-22 14-22 20l1 1h2l4-4a71 71 0 0 1 70-18l-2 2-4 1c-13 6-4 13 5 16 6 2 12 8 18 9q7 3 10-4 0-6-5-9l4-2c13 9 29 30 25 48a30 30 0 0 1-25 23h-69l-53 1c-18 0-37 3-49-14q-6-10-4-24 4-13 17-21zm168 60c13-7 7-21-5-21-14 6-9 22 5 21"/><path fill="#f5841e" d="M840 483h58c-9 84-58 188-161 155q-25-9-49-24c12-12 27-30 36-43 49 32 80 16 102-37q9-25 14-51"/><path fill="#84b2f4" d="M502 848h77v14c-4 3-17 12-18 17l2 2c3 0 8-7 10-9q38-29 80-8-1 4 3 3l1-1c15 10 33 27 33 46a29 29 0 0 1-23 29l-22 1H518q9-8 14-18c10-25-12-48-30-62zm160 40q4-2 5-6l-1-3c-4-4-26-17-31-18l-3 1q-9 6-1 12c9 3 23 14 31 14m12 21c12-5 9-20-4-20-12 8-9 20 4 20M345 667l22 10q27 10 55 18c0 7 0 44-2 48 3 12 2 33 2 46h-76v-90l4-1-4-1z"/><path fill="#0a0909" d="m345 667 22 10q27 10 55 18c0 7 0 44-2 48q-19-47-70-45l-4-1z"/><path fill="#84b2f4" d="M517 701zc23-5 37-7 60-16v105h-76v-82q-1-3 1-5 6-2 14-1"/><path fill="#0a0909" d="M517 701zc23-5 37-7 60-16v66q-15-44-61-49"/><defs><linearGradient id="f" x1="911.5" x2="808.7" y1="417.7" y2="356.3" gradientUnits="userSpaceOnUse"><stop offset="0" stop-color="#fff" stop-opacity="0"/><stop offset="1" stop-color="#fffffe" stop-opacity=".4"/></linearGradient></defs><path fill="url(#f)" d="M843 335q4 0 8 2h3c12 1 13 0 19 12l-2 6-9 8c-5 1-14 5-19 3q-3 0-6 4c1 2 2 9 4 11l3 1v2q2-1 4-3l-8-4 1-1 21-2c9 8 12 13 13 25q1 4 4 4c6-2 0-17-3-22v-1l10-2 1-1h-1q8-3 11-11c7 11 12 13 24 13 1 20 0 35-19 45h-68l-19-19h1c2 0 10 8 13 8q0-2-2-2l-9-8-5-4v-5l-4-4v3c-4-4 5-13-6-11l-1-1v1l-1-2q3 1 3-1-2-6-3-2v1l-1-8 1 2q6 0 11-4c2-5 5-6 5-11 1-3 7-9 10-10l-2-3-3-1 5-5 8-2c4-2 6 1 8-1m10 26c-1 0-8 3-10 2q-3-1-4 1h4l16-1 2-1 8-7c6-5-3-9-6-11l3 4h2q4 5-1 7h-3l-1-1-3 2v2c-1 2-2 0-3 3v-1l-3 1z"/><path fill="#fefefe" fill-opacity=".3" d="M863 344c3 2 12 6 6 11l-8 7-2 1-16 1h-4q1-2 4-1c2 1 9-2 10-2h1l3-1v1c1-3 2-1 3-3v-2l3-2 1 1h3q5-2 1-7h-2z"/><path fill="#f5841e" d="M342 793h37c12 0 49-2 58 4 19 13 14 41-10 46h-61c-10 1-28 1-36-4q-8-7-10-18c-2-14 8-26 22-28M499 793h50q18-1 34 1c20 2 27 24 17 39q-7 9-18 10h-65c-8 0-23 1-29-4-20-14-14-42 11-46M844 429h60c11 2 19 15 19 25q0 11-7 18c-8 8-16 7-25 7h-38l-25-1q-6-2-11-6-6-7-7-17-1-11 7-19c8-8 16-7 27-7M226 549q9 0 17 4l22 17c11 10 32 19 36 35q3 25-21 31-10 0-18-5l-48-36q-7-7-9-16-3-24 21-30"/><defs><linearGradient id="g" x1="864.6" x2="797.3" y1="258.3" y2="312.1" gradientUnits="userSpaceOnUse"><stop offset="0" stop-color="#fff" stop-opacity="0"/><stop offset="1" stop-color="#fff" stop-opacity=".2"/></linearGradient></defs><path fill="url(#g)" d="M813 248c3-21 27-25 38-8 4 6 3 28 3 37v51c-16 0-27-2-41 8v-8h1c6-2 1-4 4-7l1 2q0-1 3-1 6 1 12 0l4 1 7-4h-2v-1q-1-16-18-24c-8 4-7 4-7-3l-2-5v6l-2-2h-1v-5l1-2 1-3-1-1q0-10-1-20z"/><path fill="#fefefe" fill-opacity=".3" d="M816 292v-6l2 5c0 7-1 7 7 3q16 8 18 24v1h2l-7 4-4-1q-6 1-12 0-3 0-3 1l-1-2c-3 3 2 5-4 7l1-4q-1-4 2-7 3-5 1-10c-1-6-3-8-2-15"/><defs><linearGradient id="h" x1="873.3" x2="837.4" y1="359.5" y2="348.8" gradientUnits="userSpaceOnUse"><stop offset="0" stop-color="#fff" stop-opacity="0"/><stop offset="1" stop-color="#fff" stop-opacity="0"/></linearGradient></defs><path fill="url(#h)" d="M854 333c12-1 25-4 24 12q-1 11-8 19c-10 10-26 3-30 9 2 4 18 1 22 0q10 7 13 19 1 6 3 10h2c3-4-3-19-6-23q7 1 12-2h1l-1 1-10 2v1c3 5 9 20 3 22q-3 0-4-4c-1-12-4-17-13-25l-21 2-1 1 8 4q-2 2-4 3v-2l-3-1c-2-2-3-9-4-11q3-3 6-4c5 2 14-2 19-3l9-8 2-6c-6-12-7-11-19-12l-6-2q-4 0-9-2z"/><defs><linearGradient id="i" x1="811.5" x2="824.9" y1="343.9" y2="354.3" gradientUnits="userSpaceOnUse"><stop offset="0" stop-color="#fff" stop-opacity="0"/><stop offset="1" stop-color="#fff" stop-opacity=".1"/></linearGradient></defs><path fill="url(#i)" d="M800 370q1-17 13-28c12-12 25-10 41-9h-15q5 2 9 2l6 2h-3q-4-2-8-2c-7-2-9 0-16 0l-10 11q-3 2-3 5 2 5-3 8v-1l-3 5q-1 3-3 3l-4 6z"/><path fill="#fefefe" fill-opacity=".1" d="M827 335c7 0 9-2 16 0-2 2-4-1-8 1l-8 2-5 5 3 1 2 3c-3 1-9 7-10 10 0 5-3 6-5 11q-5 4-11 4l4-6q2 0 3-3l3-5v1q4-3 3-8 0-3 3-5z"/><path fill="#fefefe" fill-opacity=".4" d="M813 328v-80 42h1l2 2c-1 7 1 9 2 15q2 5-1 10-3 3-2 7z"/><path fill="#84b2f4" d="m482 858 8 3c-5 1-4 0-7 2l-11-3 4-1q3 1 5-1z"/><path fill="#84b2f4" fill-opacity=".9" d="m490 861 6 3-4 3h-1l-8-4c3-2 2-1 7-2"/><path fill="#fefefe" fill-opacity=".3" d="m813 399 5 4 9 8q2 0 2 2c-3 0-11-8-13-8h-1l-4-4z"/><path fill="#fefefe" fill-opacity=".2" d="M802 382zc11-2 2 7 6 11l-3 1v-2c1-5 3-9-4-8z"/><path fill="#fefefe" fill-opacity=".1" d="m809 390 4 4-3 5-4-5 3-1z"/><path fill="#84b2f4" fill-opacity=".7" d="m500 867 4 3-4 2-6-3q4 1 6-2"/><path fill="#84b2f4" fill-opacity=".6" d="m496 864 4 3q-2 3-6 2l-2-2z"/><path fill="#fefefe" fill-opacity=".1" d="M813 259q1 10 1 20l1 1-1 3-1 2z"/><path fill="#fefefe" fill-opacity=".4" d="m810 399 3-5v5l-2 2z"/><path fill="#fefefe" fill-opacity=".3" d="M801 378zq1-4 3 2 0 2-3 1z"/><path fill="#84b2f4" fill-opacity=".7" d="m478 857 4 1h-1q-2 2-5 1z"/><path fill="#0a0909" d="M220 545h6v1h-6z"/><path fill="#84b2f4" fill-opacity=".9" d="m653 864 4 2-1 1q-4 1-3-3"/><path fill="#84b2f4" fill-opacity=".8" d="m342 544 2 2q-4 4-2-2"/><path fill="#3a373b" d="M220 546q-3 0 0-1z"/></svg>