<svg xmlns="http://www.w3.org/2000/svg" width="1024" height="1024" viewBox="0 0 1024 1024"><path fill="#1e1c1d" d="M505 225zl24 29q23 27 51 50 22 20 42 41 17 20 27 43 23 50 11 102l-8 23 12 23 27 50c3 0 11 1 13 3q9 4 4 13 3 7 7 12 5 4 6 10 7 12 1 24c3 6 15 31 14 35-9 27-26-9-32-18-13 8-32-1-38-13q-8-15 3-19l-2-9v-6c-14-7-9-17 1-24l-29-55-11 15q-24 30-61 46c-5 38-8 72-7 110q8-1 13 4c6 6 2 13-3 18q15-3 28 5 16 9 21 28l1 8c8 2 46 3 49 10-1 7-28 9-34 10q-54 5-109 5c-19 0-150-1-158-13l1-2c6-8 49-9 60-11h1c-1-16 1-26 9-40l-2-2c-7-8-3-19 9-18l2-32c1-26 4-47 8-72-17-5-42-17-55-30-21 1-62 5-79-10-26-23 9-62 25-80q-9-41 4-83 19-50 59-85l50-45 26-29c4-5 13-19 18-21m-69 158-10-1q0 9 9 14c1 24-1 45 18 63s46 15 62-4q18-16 18-40c0-4-2-16 0-19l1-1v21c0 22 11 42 31 52 24 9 44-1 57-22l7-13 2-12v-25c0-1 11-6 9-13h-10q-1-26-21-42c-32-25-71 3-74 39q0 4-4 3-1-11-5-21c-8-18-24-31-45-30-28 2-41 26-45 51m46 231q-6 48-7 98 13-3 16 10c1 4-4 8-4 9h1c15 0 21 3 33 12q1-7 5-13-4-3-6-8 0-5 3-8 5-5 11-5 2-26 3-54l3-44h-1c-23 4-33 5-57 3m-47 167h95q2-11-2-21c-5-15-20-25-36-26l-14 2v-2c-6-2-27 0-35-1a63 63 0 0 0-8 48m88-35q11 13 11 30v4l26 1h55l2-1c2-4 0-14-1-18a40 40 0 0 0-46-27q-3 1-4-1v-2l-37-1zm6-33c-9 5-4 14-1 15h40c9-3 6-14 1-14zm-86 2c-9 5-4 15 0 15q20 1 39-1 3 0 5-3v-6q0-4-4-4c-3-2-35-1-40-1m30-174q-2 1-2-1c1-4 17-14 11-22-7-10-26 15-33 19-2 1-6 7-9 8-5-4-10-8-15-1-5 8-4 23-3 32 2 7 5 14 13 10q3-1 1-3-6-11-4-24 0-2 2-2h1v14q1 7 6 13c10 11 25 8 37 9l26 2c8 1 19-3 11-11-6-1-27-2-30-5v-1c2-2 35 5 42 0l2-5q1-2-1-5-5-4-12-3l-31-4 1-2c3-1 30 3 36 3 3-3 7-9 4-12-8-7-28-5-38-7zm-110 9 14 1a120 120 0 0 1-19-30c-3 4-15 20-14 25 0 3 16 4 19 4m318 88-9-2q-9 3-4 10c5 13 18 20 31 19q7-3 1-9l-1-1c-14 6-18-4-18-17m-9-23v13q2 4 6 6 3-2 3-5h2c2 2-3 33 15 23 6-4 0-22 5-23 3 3 1 20-1 24l7 12c2 4 20 39 25 18 1-4-11-29-14-35q3-7 2-14c-2-11-10-24-19-30 14-12-5-15-14-14l-10 2c-10 4-27 17-7 23"/><path fill="#6093e6" d="m505 229 24 30 25 27c25 24 53 45 74 72 36 49 45 116 13 169l-7 12-23 16c-18 12-59 27-80 25q5-11-5-17c13-19-8-21-22-22l-16-1-12 1v-2c6-7 15-15 8-25-6-7-20 6-24 10l-19 17q-5-5-11-4c-7 2-8 6-11 12l-37 2q-13-15-21-34l30-34q4-12-7-19c-17-4-21 9-33 20-4-16-3-42 0-58 9-48 40-85 76-115l23-20 17-16 25-29zm-69 154-10-1q0 9 9 14c1 24-1 45 18 63s46 15 62-4q18-16 18-40c0-4-2-16 0-19l1-1v21c0 22 11 42 31 52 24 9 44-1 57-22l7-13 2-12v-25c0-1 11-6 9-13h-10q-1-26-21-42c-32-25-71 3-74 39q0 4-4 3-1-11-5-21c-8-18-24-31-45-30-28 2-41 26-45 51"/><path fill="#1365c5" d="M351 484c-4-16-3-42 0-58 9-48 40-85 76-115l23-20c-1 5-12 18-15 22-26 34-53 67-55 112 0 11 0 29 4 39-17-4-21 9-33 20M361 517l30-34a144 144 0 0 0 39 54c-7 2-8 6-11 12l-37 2q-13-15-21-34"/><path fill="#212128" d="M476 541v-2l12 1z"/><path fill="#1e1c1d" d="M481 332c21-1 37 12 45 30q4 10 5 21 4 1 4-3c3-36 42-64 74-39q20 16 21 42h10c2 7-9 12-9 13v25l-2 12-7 13c-13 21-33 31-57 22-20-10-31-30-31-52v-21l-1 1c-2 3 0 15 0 19q0 24-18 40a42 42 0 0 1-62 4c-19-18-17-39-18-63q-9-5-9-14l10 1c4-25 17-49 45-51m-48 58 2 2 3 1c5-3 14 2 19 2h56l7-1c3 0 16-3 17-7h-7l-2-1-1-4c-2-37-44-64-73-33a60 60 0 0 0-15 38h-8zm37 11-6-1-18-2-5-1h-1v8c-1 11 0 34 8 42l6 8 3 2 4 3 3 2 4 2 4 2 8 1q14 1 26-9v-2c-13 0-18-1-28-9l-4-5-2-3-1-4q-5-10-4-22zm94-1h-12l-2-1-12-2v9l1 23 1 1 1 2v1l2 7 1 1 1 3 2 3 4 5c10 14 31 20 47 12q6-3 8-7v-1h-7q-15-1-24-13l-1-1-4-8-2-3-1-8-1-1v-10l1-5q3-4 1-7zm50-48-10-9-5-3c-11-6-17-5-28-3-8 3-19 10-22 18-6 7-10 19-10 28h2q0 6-4 10a246 246 0 0 0 95-2c6-6 2-4-5-4l-3-18z"/><path fill="#f3f3f3" fill-opacity=".8" d="M439 387q1-21 15-38c29-31 71-4 73 33l1 4 2 1h-2c7 6-3 3-8 7l-7 1h-56c-5 0-14-5-19-2l-3-1 1-1s8-1 5-3q-2 0-5 1l-3 1-2-3h8"/><path fill="#f3f3f3" fill-opacity=".9" d="M549 355c3-8 14-15 22-18l1 1c3 2 11 3 14 4 1 0 7 0 6-1-1-2 3-2 4-2 5 0-1 7 4 7l4-2c1 2-1 1 3 2-4 1-2-1-4-1v3c1 2 4 0 4 3l2 2q2 3 3 5 2 0 3 2v1q0 3 1 5 3 2 3 6l-1 3v1q0 5 2 9c1 3-3 3-3 7q1-1 4 1l-10 1q2 0 6 1c-22 3-59 3-80-2q4-4 4-10v-11l6-13 1-2zm-6 36a1 1 0 1 0-2-2 1 1 0 0 0 2 2"/><path fill="#fefefe" fill-opacity=".8" d="M542 389a1 1 0 1 1 0 2 1 1 0 0 1 0-2"/><defs><linearGradient id="a" x1="481.1" x2="435.9" y1="453" y2="413.8" gradientUnits="userSpaceOnUse"><stop offset="0" stop-color="#fffffe" stop-opacity=".3"/><stop offset="1" stop-color="#fff" stop-opacity=".5"/></linearGradient></defs><path fill="url(#a)" d="M440 405q2 4 5 2c2-3 2-2 2-6 5 0 2 9 6 10l1-2c0-1-4-4 3-6q3-1 7 2c0 3-2 6 2 9l1-1q-1 12 4 22l-2 2q1 5 3 2l2 3v9l1 1 1 1c0 4-4-1-4 4l5-1q-2 3-1 4-5 1-9 1l-3 1-3-2 3-2-3-1q1-1-1-1l-2-1-1 2-3-2q0-3-1-3h2q0-2-1-3 0 0-2-2-1-3-4-1v1c-8-8-9-31-8-42m20 3zc5-3-4-2-5-2-5 3 1 3 4 3"/><defs><linearGradient id="b" x1="455" x2="460.5" y1="406.4" y2="405.9" gradientUnits="userSpaceOnUse"><stop offset="0" stop-color="#fff" stop-opacity=".5"/><stop offset="1" stop-color="#fff" stop-opacity=".6"/></linearGradient></defs><path fill="url(#b)" d="M456 405c1 0 10-1 5 2l-1 1c-3 0-9 0-4-3"/><defs><linearGradient id="c" x1="564.1" x2="550" y1="461.4" y2="405.6" gradientUnits="userSpaceOnUse"><stop offset="0" stop-color="#fff" stop-opacity=".1"/><stop offset="1" stop-color="#fffffe" stop-opacity=".5"/></linearGradient></defs><path fill="url(#c)" d="M541 433h2l3-3v-4l-1-5q0-4 2-9l1-2-2-3q2-1 3 1l6-2 4-2q2 0 3 2l1 1 2 4 1 1v1c-5 1-6 7-1 7l1-1v3-1c-1 2-5 10-2 11 6 3 3 1 4 5v4c7 0 3 6 6 8q0 3 3 6c3 3-1 5-2 7l-10-2-1-1q-2-3-5-3l-7-8v-1q-1-2-4-3l-1-5q-3-1-4 1zm19-24q3-3-1-4-6 4 1 4"/><path fill="#fefefe" fill-opacity=".6" d="M559 405q4 0 1 4-7 0-1-4"/><path fill="#fefefe" fill-opacity=".3" d="M552 400h12l-1 1 1 1v1l3 3v1l-1 5-1-1-2-4-1-1q-1-3-3-2l-4 2-6 2q-1-2-3-1l2 3-1 2q-2 5-2 9l1 5v4l-3 3h-2v-1c5 1 1-10-1-2l-1-1-1-23 1 7c3 0 4 3 5 0v-6c3-5 6 0 8-7"/><path fill="#f3f3f3" fill-opacity=".8" d="m618 376 2-10v1c1 2-1 4 4 2l3 18c7 0 11-2 5 4q-1-5-6-3c-5 2 3 4 3 4l-12 3q-4-1-6-1l10-1q-3-2-4-1c0-4 4-4 3-7q-2-4-2-9"/><path fill="#fefefe" fill-opacity=".2" d="m474 442 4 5q0 6 7 10 3 1 1 3c1 5-8 4-6 7l-8-1q2 0 2-2h4l1-1q-3-1-1-2 2-3-1-5l-5 1c0-5 4 0 4-4l-1-1-1-1v-9"/><path fill="#f3f3f3" fill-opacity=".8" d="M607 346v-1l7 7c-4 2-1 6 2 2q5 7 8 15c-5 2-3 0-4-2v-1l-2 10v-1l1-3q0-4-3-6-1-2-1-5v-1q-1-2-3-2-2-2-3-5l-2-2c0-3-3-1-4-3v-3c2 0 0 2 4 1"/><path fill="#f3f3f3" fill-opacity=".8" d="M571 337c11-2 17-3 28 3 1 4 0 4 5 3l3 2v1c-4-1-2 0-3-2l-4 2c-5 0 1-7-4-7-1 0-5 0-4 2 1 1-5 1-6 1-3-1-11-2-14-4z"/><path fill="#fefefe" fill-opacity=".4" d="m446 398 18 2-1 1 1 4q-3-3-7-2c-7 2-3 5-3 6l-1 2c-4-1-1-10-6-10 0 4 0 3-2 6q-3 2-5-2 7 1 6-7"/><path fill="#f3f3f3" d="M438 393c5-3 14 2 19 2h56c-20 3-56 3-75-2"/><defs><linearGradient id="d" x1="543.5" x2="543.3" y1="398.6" y2="409.6" gradientUnits="userSpaceOnUse"><stop offset="0" stop-color="#fff" stop-opacity="0"/><stop offset="1" stop-color="#fff" stop-opacity="0"/></linearGradient></defs><path fill="url(#d)" d="m538 397 12 2q0 3-3 4-6 3-8 8l-1-5z"/><defs><linearGradient id="e" x1="475.9" x2="470.1" y1="464" y2="459.9" gradientUnits="userSpaceOnUse"><stop offset="0" stop-color="#fff" stop-opacity=".2"/><stop offset="1" stop-color="#fff" stop-opacity=".3"/></linearGradient></defs><path fill="url(#e)" d="M477 456q3 3 1 5-2 1 1 2l-1 1h-4q0 2-2 2l-4-2q3-2 0-3h-1q4 0 9-1-1-1 1-4"/><path fill="#fefefe" fill-opacity=".2" d="m550 399 2 1c-2 7-5 2-8 7v6c-1 3-2 0-5 0v-2q2-5 8-8 3-1 3-4"/><path fill="#fefefe" d="M530 387h7c-1 4-14 7-17 7 5-4 15-1 8-7z"/><path fill="#f3f3f3" d="m549 355-1 2-1 2-6 13v11h-2c0-9 4-21 10-28"/><path fill="#fefefe" fill-opacity=".1" d="m568 437 2-3 4 8v7c-3-2 1-8-6-8v-4"/><path fill="#fefefe" fill-opacity=".3" d="M568 437c-1-4 2-2-4-5-3-1 1-9 2-11v1l1 1q-3 4-1 8h2l2 3z"/><path fill="#fefefe" fill-opacity=".1" d="M547 447c3-1 1-1 5 1l7 8c-4 1-4-5-8-4z"/><path fill="none" d="m574 442 1 1 1 6c1 4 8 10-1 13 1-2 5-4 2-7q-3-3-3-6z"/><path fill="#fefefe" fill-opacity=".3" d="M448 447zq3-2 4 1 2 2 2 2 1 1 1 3h-2q1 0 1 3z"/><path fill="#fefefe" fill-opacity=".2" d="M543 440q1-2 4-1l1 5q3 1 4 3v1c-4-2-2-2-5-1l-2-3q3-4-1-3z"/><path fill="#fefefe" fill-opacity=".5" d="M566 419zc-5 0-4-6 1-7zm-1 0v-5z"/><path fill="#fefefe" fill-opacity=".6" d="M565 414v5z"/><path fill="none" d="M564 400h4q2 3-1 7v-1l-3-3v-1l-1-1z"/><path fill="#fefefe" fill-opacity=".4" d="M629 392s-8-2-3-4q4-2 6 3z"/><path fill="#fefefe" fill-opacity=".2" d="m457 457 1-2 2 1q2 0 1 1l3 1-3 2zM568 431h-2q-2-4 1-8z"/><path fill="#fefefe" fill-opacity=".1" d="M540 430c2-8 6 3 1 2z"/><path fill="#f3f3f3" fill-opacity=".7" d="M436 389q3-1 5-1c3 2-5 3-5 3z"/><path fill="#fefefe" fill-opacity=".3" d="m471 435 1 4q-2 3-3-2zM464 462l3-1h1q3 1 0 3z"/><path fill="#f3f3f3" fill-opacity=".4" d="M433 390a2 2 0 1 1 3 0z"/><path fill="#f3f3f3" fill-opacity=".7" d="m599 340 5 3c-5 1-4 1-5-3"/><path fill="#fefefe" fill-opacity=".1" d="M544 441q4-1 1 3z"/><path fill="#f3f3f3" fill-opacity=".6" d="m614 352 2 2c-3 4-6 0-2-2"/><path fill="#a0c1f2" d="M488 264c13-2 11 10 7 18q-13 29-42 39c-7 1-11 1-10-8l4-7 21-20c8-8 11-18 20-22"/><path fill="#1365c5" d="M541 480c17-2 38 7 47 22q3 5-2 7c-5-1-13-20-39-21q-22-1-37 15l-5 6c-9 1-6-8-3-11q17-17 39-18"/><path fill="#a0c1f2" d="M432 328h7c4 3 5 4 3 11q-2 5-9 8c-15 3-12-13-3-18z"/><path fill="#1e1c1d" d="M691 603q4 1 0 3l-12 4-1-1v-1c1-2 10-5 13-5"/><path fill="#1365c5" d="M531 580c21 2 62-13 80-25l23-16q-5 10-12 16-26 30-63 44a145 145 0 0 1-129-7l-1-2c5 1 6 0 11-2q5 5 13 7 12 3 26 2l29 2q6 0 11-4 2-5 1-10l6-1z"/><defs><linearGradient id="f" x1="502.5" x2="457.5" y1="600.7" y2="540.4" gradientUnits="userSpaceOnUse"><stop offset="0" stop-color="#fff" stop-opacity="0"/><stop offset="1" stop-color="#fffffe" stop-opacity=".3"/></linearGradient></defs><path fill="url(#f)" d="m466 546 7 1c5 7 1 6 9 9 4 8 1 12 0 21v6c2-2 3-20 4-21 6 0 26 5 30 3q7-1 12 3 2 3 1 5l-2 5c-7 5-40-2-42 0v1c3 3 24 4 30 5 8 8-3 12-11 11l-26-2c-12-1-27 2-37-9q-5-6-6-13l1-1c4 0 3-4 5-6q2-4-2-6-1-2 2-2c2-1-2-5 5-3l5-6 6 2h3l4 2 5 2v-1l-3-4zm-21 16c0 3-2 10 1 10l8-1 2-6c-1-7 16-2 9-8-1-2-8-5-9-5-4 3-4 3-5 8h-1z"/><path fill="#fefefe" fill-opacity=".3" d="M456 552c1 0 8 3 9 5 7 6-10 1-9 8l-2 6-8 1c-3 0-1-7-1-10l5-2h1c1-5 1-5 5-8"/><path fill="#fefefe" fill-opacity=".4" d="M502 549h11q2 2-2 5c-6 0-6 0-10-2s-1-2 1-3"/><path fill="#fefefe" fill-opacity=".2" d="M434 557c3-1 2-5 6-6l3-2q4-3 10-6 0-2 3-2v2h1q1 2 9 3v2l3 4v1l-5-2-4-2h-3l-6-2c1-4-6 2-6 2q-2 3 1 4c-7-2-3 2-5 3l-1-1c-3-3-2-1-5 2z"/><path fill="none" d="M457 543c4 0 16 2 18 4l1 3c4 5 6 0 9 11l31 4c-4 2-24-3-30-3-1 1-2 19-4 21v-6c1-9 4-13 0-21-8-3-4-2-9-9l-7-1q-7-1-9-3"/><path fill="#fefefe" fill-opacity=".3" d="M435 557c3-3 2-5 5-2l1 1q-3 0-2 2 1 8-3 12l-1 1z"/><path fill="#1365c5" d="M409 578c2 0 10-2 10 1h1c-1 5-2 0-4 4z"/><path fill="#144b9b" d="M420 579v3l4 5-1 1-7-5c2-4 3 1 4-4"/><path fill="#fefefe" fill-opacity=".3" d="M446 553q-3-1-1-4s7-6 6-2zM439 558q4 2 2 6c-2 2-1 6-5 6q5-5 3-12"/><path fill="#144b9b" d="M423 588zl5 3 1 2z"/><path fill="#1365c5" d="M702 704h29l35 1-4 25-7 45-1 7c-5 0-40 1-42-1-3-6-9-46-10-55l-3-15v-5zm13 73h35l1-9 10-58c-17-1-40-2-57-1l3 18z"/></svg>