<svg xmlns="http://www.w3.org/2000/svg" width="1024" height="1024" viewBox="0 0 1024 1024"><path fill="#0a0a0a" d="M396 607q-55-20-91-67l-17-25c-22-37-30-81-23-124 7-51 30-87 65-125l26-26a1191 1191 0 0 0 77-90c4-4 17-23 20-25q6-5 14-3c8 1 13 10 17 16a1119 1119 0 0 0 98 118c17 19 30 30 45 53a204 204 0 0 1 27 159q8-1 14-3c18-6 28-15 40-28l-6-6c-16-22 0-52 8-74 9-24 22-67 42-83l-7-4c-2-5-15-90-15-96l2-4c10-10 40-10 54-10 11 0 36 2 44 10l1 5-2 18-6 39-5 34q0 3-3 5c-10 7-26 9-38 9v1l1 12c-1 8-16 40-21 47 14-5 29-5 37 10q2 6 3 14 7-1 14 3c0 4 5 4 6 11 0 4-1 18 1 20 0 5-4 14-8 18q-7 8-17 9c-10 25-21 31-47 30a128 128 0 0 1-110 58q-8 13-17 25-24 34-60 54l-7 6q-4 4-13 5l2 19q4 30 4 59l1 32c14 4 27 13 28 29q0 9-7 16c37-18 86 7 94 47l2 17c6 4 5 10 5 17 12 2 50 6 56 16 7 12-46 19-51 20q-68 9-137 9a1565 1565 0 0 1-156-5c-8 0-120-11-76-30 8-4 37-9 48-11 0-9 3-12 10-17q-11-31 10-57c-23-20 2-45 23-48l1-41zm16-64c11-23 33-25 53-37l11-8c4-3 13-3 16 0 13 8 9 25 3 35 13 2 54 7 62 17q4 7 4 13c-1 4-6 12-5 15q6-1 11-5 63-39 81-110c11-50 3-102-24-145q-15-24-35-45l-9-9-27-29a1272 1272 0 0 1-75-94c-4-5-10-18-20-11l-5 6-21 28a1170 1170 0 0 1-75 85l-22 23c-34 37-57 73-64 124-6 49 7 98 38 136 10 14 28 29 43 39 7 5 47 27 53 24q-3-3-7-4-19-10-32-26c-27-31-47-81-49-122 1-12 13-20 24-18 20 3 17 19 20 34 6 33 23 64 51 84m-4 38q-2 12 7 21c20 17 53 17 79 19 9 1 27 0 34-5q6-5 2-14c-6-5-42-4-45-8l1-2c19 0 38 7 56 5 10-1 17-12 9-20-5-4-25-4-33-6-5 0-21-2-25-4a300 300 0 0 1 55 6q6-3 7-9c2-15-19-17-30-20q-24-5-50-7-8 0-15 1 13-6 28-4 8-10 7-24-3-11-13-8c-5 1-10 7-14 10-26 13-39 10-53 39-32-16-54-58-60-92-2-14 0-30-20-29q-6 1-10 7c-5 8 1 33 4 43a152 152 0 0 0 79 101m83 261c14 2 38 1 49-6 7-17 0-37-11-50a58 58 0 0 0-83-6l-13 12q5-15 19-26 4-2-1-1l-11-2-1-1c5-3 24-5 25-16q1-7-4-13c-3-5-13-11-17-11-2 6 10 9-4 17q-17 8-35 3-10-1-14-10 3-7 5-10h-3c-20 7-35 28-8 39l10 3c-2 3-14 2-17 2-9 18-16 30-9 51 4 13 18 13 30 17l11 2 24 3 1-1 15 1h17zm-89-219c-1 37 1 74-2 112q16 6 34 1c4-4 3-38 4-44v-23c-6-16-21-39-36-46m145 162c4-18 9-17 19-29q-10 6-21 5l-1-2c49-10 9-43 1-39 0 2 8 8-1 13q-16 8-34 4c-3 0-24-7-15-15q4 0 5-5c-7 0-19 7-23 12-10 12 10 20 18 23-8 0-11 0-18-2v8q13-1 26 3c28 10 51 38 45 70l4 2c21 1 38 2 59 1 9-1 38-1 44-11 2-5-1-21-3-26a62 62 0 0 0-79-35q-12 5-19 14zm-42-55c9 4 24 4 33 1l2-1c1-19 0-46-2-64-1-10-25-35-35-39l2 31zm262-452c-5-1-6-2-11 0q-4 0-6 3c-12 12-17 28-24 43l-6 17c-3 6-3 8-4 15-1 3-7 14-6 17q4-1 9-6l11-4c7-2 28 0 34-2h1l3-4v5q24 8 11 29-6 9-17 10l4 2c14 7 24-6 25-18 1-8 2-23-1-31q-2-7-9-10-12-4-22 2-6 3-7 9l-1-1c0-14 24-55 22-60q1-10-6-16m23-95c7-1 34-3 36-9-3-9-44-10-54-10-6 1-37 3-37 10 7 8 34 9 44 9zm7 236q10-4 14-15c3-11 7-31-7-36l-7-1c-1 11-3 25-9 34l-7 8c-1 9 9 12 16 10M443 715c12 4 16 7 25 17q5-9 14-14c7-4 10-6 18-8l-2-72-1-11q-24-1-50-5l-2 36zm295-534q-1 6 1 1zm36 229zq1 0 0 0zM660 826c-17 16-79 13-103 12h-2l1 20h1q46 3 91-2l10-5c5-4 6-19 2-25m56-390-6 8a86 86 0 0 1-51 30q-1 15 6 28c2 3 12 0 15-1a129 129 0 0 0 54-39l10-13 8 2c19 0 28-9 35-26h-1l-8-6q-6-3-13-7-4-5-8-8c-5 3-1 14-15 21 7-9 10-13 8-25l-24-9q16 4 31 5c10 1 21-5 23-15 4-18-25-17-36-17-16 1-32 6-39 21-6 15-8 34 5 46zM365 827q-5 2-7 6-1 5 2 10 7 9 18 11c34 9 135 27 165 9l2-2q6-7 5-17 0-5-5-8c-12 10-24 11-40 11-42 0-86-2-127-14z"/><path fill="#2b43bd" d="M352 571a181 181 0 0 1-81-175c7-51 30-87 64-124l22-23a1176 1176 0 0 0 75-85l21-28 5-6c10-7 16 6 20 11a839 839 0 0 0 75 94l27 29 9 9q20 21 35 45c27 43 35 95 24 145q-18 72-81 110-5 4-11 5c-1-3 4-11 5-15q0-6-4-13c-8-10-49-15-62-17 6-10 10-27-3-35-3-3-12-3-16 0l-11 8c-20 12-42 14-53 37-28-20-45-51-51-84-3-15 0-31-20-34-11-2-23 6-24 18 2 41 22 91 49 122q13 16 32 26 4 1 7 4c-6 3-46-19-53-24m160-212c-11-6-63-12-69 0l-1 5c3 8 15 2 19 1l11-3 32-1zm-150-73c28-4 52-48 22-46q-10 2-18 9c-8 7-24 23-15 35q5 4 11 2m247 74c-19-6-50-12-70-5-5 2-5 13 2 13 3 1 10-3 13-3q27-6 55-3zm-270-46c13-5 18-25 2-25q-14 5-11 20 3 6 9 5"/><path fill="#0a0a0a" d="M443 350q2-17 11-33c9-14 25-21 40-10 14 10 18 28 21 45l7 2-6 6v2l8 4-10 2c-1 17-11 40-29 45-14 4-25-5-32-16q-7-11-9-23l-1-1q-14-11 0-23m69 9c-11-6-63-12-69 0l-1 5c3 8 15 2 19 1l11-3 32-1z"/><path fill="#e9e8e9" d="m512 359 4 1v2l-12-1z"/><path fill="#0a0a0a" d="M537 349c2-19 11-44 32-47 17-2 29 13 34 27q4 11 5 23l6 3-5 5c-19-6-50-12-70-5-5 2-5 13 2 13 3 1 10-3 13-3q27-6 55-3l6 5-8 1q-1 15-8 28c-9 15-26 24-42 13-12-8-17-23-20-36-11-6-9-17 0-24M528 434c16-2 38 6 50 16q9 11 0 21c-10 9-18-1-27-5q-9-4-19-4-13 0-24 7c-7 5-14 13-23 6-6-5-8-15-2-21q19-18 45-20"/><path fill="#e9e8e9" fill-opacity=".3" d="M530 823z"/><path fill="#e9e8e9" fill-opacity=".9" d="m629 822 2 1a158 158 0 0 1-58 4h-19l9-1h27q20-1 39-4"/><path fill="#e9e8e9" fill-opacity=".1" d="m631 822 3-3 1 1-3 3z"/><path fill="#e9e8e9" fill-opacity=".7" d="m554 827-1-1h10z"/><path fill="#e9e8e9" fill-opacity=".3" d="M647 812q0 3-4 3z"/><path fill="#e9e8e9" fill-opacity=".4" d="M634 819q8-1 1 1z"/><path fill="#e0ddde" fill-opacity=".6" d="M573 827h7z"/><path fill="#e9e8e9" fill-opacity=".6" d="m631 822 1 1zl-2-1z"/><path fill="#e9e8e9" fill-opacity=".5" d="M556 827h4z"/><path fill="#7cb8e5" d="M776 188q25 0 50-8l-12 79q-17-9-36-7l-12 1q-10 1-19 6l-4-26-6-44q-2-5-1-8h2q-1 6 1 1c9 3 14 3 23 5z"/><path fill="#7cb8e5" d="m747 259-4-26-6-44q-2-5-1-8h2q-1 6 1 1c9 3 14 3 23 5l14 1 1 1 1 50v13l-12 1q-10 1-19 6"/><path fill="#93c8ec" d="m762 187 14 1 1 1 1 50v13l-12 1z"/><path fill="#7cb8e5" d="M772 164c10 0 51 1 54 10-2 6-29 8-36 9h-11c-10 0-37-1-44-9 0-7 31-9 37-10m-34 10z"/><path fill="#7cb8e5" fill-opacity=".8" d="M738 173zl-1-1z"/><path fill="#7cb8e5" d="M771 257c9-2 36 0 41 8v3c-4 4-17 6-22 7-13 2-18-1-31-3q-6-1-10-6c-1-7 17-9 22-9"/><path fill="#0a0a0a" fill-opacity=".9" d="M764 361c-6 2-27 0-34 2l-11 4q-5 5-9 6c-1-3 5-14 6-17 1-7 1-9 4-15l6-17c7-15 12-31 24-43q2-3 6-3-11 8-16 21-13 26-22 53l-8 21c14-12 23-13 40-13-1-26 15-41 22-66h1c2 5-22 46-22 60l1 1-1 5z"/><path fill="#e9e8e9" d="m431 831 12 1q22 2 45 1l18-3q4-1 7 2-17 4-35 4h-44c-4-1-2-2-4-5z"/><path fill="#e9e8e9" fill-opacity=".9" d="M390 822q13 6 28 7l13 2h-1c2 3 0 4 4 5h5-1c-1 0-7 0-7 2h3l-1 1-24-3 11-1-1-2c-2-2-13 1-15-3q-5-3-11-3l-7-4z"/><path fill="#e9e8e9" d="m434 838 15 1h17l25 3c-7 2-50-2-58-3z"/><path fill="#e9e8e9" fill-opacity=".1" d="M404 830c2 4 13 1 15 3l1 2-11 1-11-2c6-1 2-1 5-4z"/><path fill="#e9e8e9" fill-opacity=".8" d="m445 837 22-1-1 3h-17l7-2z"/><path fill="#e9e8e9" fill-opacity=".4" d="m439 836 6 1h11l-7 2-15-1h-3c0-2 6-2 7-2z"/><path fill="#e9e8e9" fill-opacity=".1" d="M378 815zc2 3 5 2 5 5v1c-4-1-2-3-4 1q0-3-1-1h-1l-1-4z"/><path fill="#e9e8e9" fill-opacity=".7" d="M510 830q4-2 10-3v1l-4 2z"/><path fill="#e9e8e9" fill-opacity=".1" d="M377 817c-1-1-5-7-3-7l4 5z"/><path fill="#e9e8e9" fill-opacity=".9" d="M506 830h10l-3 2q-3-3-7-2M384 820l6 2-4 1-2-2z"/><path fill="#7cb8e5" fill-opacity=".6" d="m738 181 1 1q-2 5-1-1"/><path fill="none" d="M451 765q5-1 1 1z"/><path fill="#e9e8e9" fill-opacity=".1" d="M378 821zq1-3 1 1z"/><path fill="#e9e8e9" fill-opacity=".9" d="m521 826 2 1-3 1v-1z"/><path fill="#e9e8e9" fill-opacity=".6" d="M521 826h3l-1 1z"/><path fill="#181717" fill-opacity=".9" d="m544 759 1 2-2-1z"/><path fill="#181717" d="M774 409q1 0 0 0z"/><path fill="#0a0a0a" fill-opacity=".9" d="M811 367q6 4 7 10 2 8 1 17l-1 4c-2-2-1-16-1-20-1-7-6-7-6-11"/></svg>