<svg xmlns="http://www.w3.org/2000/svg" width="1024" height="1024" viewBox="0 0 1024 1024"><path fill="#171717" d="M276 477c-9-50 5-100 33-142q14-22 30-42a3112 3112 0 0 1 130-175l28-31q1 22 6 43c13 44 46 78 77 109l32 28c42 42 76 89 83 150q7 71-32 129l-17 22 7 1c30 0 49-19 69-38-12-29 2-51 18-74 19-27 45-50 78-56 15-3 32 9 20 25-7 7-20 11-30 14q-18 5-32 19l-3 5 1 2h4l6 2 7 4 4 4 4 7c3 21-17 28-33 24l-12-5-7-5-4-3c-4 1 2 4 3 5l6 4c10 5 15 7 25 7q2 10-2 19-6 14-21 15-6 1-12-2l-6-3-7-8-3-4h-2l4 6 7 7 5 4c12 5 27 4 34-8l2-3 1-1 2-8 13-1c2 3 8 9 12 8v1c-6 20-40 26-57 20l-4-1c-12 15-36 32-54 40q-14 5-29 7-19 1-37-7c-25 18-37 28-68 40q7 23 9 46 17 16 0 30l-7 38c23 4 40 22 21 44l3 6c13-6 32-5 45 0 19 6 39 21 48 39q4 11 5 23c9 6 6 21 6 29-1 16-6 18-19 25-46 26-100 13-144-12-9-5-26-13-31-22l-3 9c-37 29-83 52-131 45-15-2-41-9-52-22-5-9-5-24-4-34q2-6 5-11c2-22 11-36 30-50 14-10 36-19 54-16l12 4 4-10c-20-20-2-39 21-44l-6-34q-8-3-10-10-3-6 0-13l7-8c0-5 2-28 4-31l4-1c0 3 22 3 24 2l3 1-3 19c-3 24 3 46 8 68l2 7q14 1 24 13 5 7 4 15-1 6-6 11c3 13 6 22 7 35l2 1 1-11q3-15 7-29c-11-22 6-35 26-38 3-15 8-39 9-54 0-13-5-39-9-51-8 1-33 5-41 4v-1h-1c-12 5-17 7-31 9h-2l-19-1h-5c-3-4-55-7-71-34q-24 5-50 6c-23 1-45-3-62-20q-14-13-14-33c0-34 25-70 47-93m221 140 3-2v-2l-4 2-7 4h-1l-6 2q-2 1-2 3l3-1 4-2h3zm226-98-1-3h-1v5zm18-50-4-1c-4 5 1 2 4 1m-226-75q5 14 14 24c31 37 74 20 90-21q5-14 5-27v-9q2-2 2-6l-2-2-3-18c-7-20-17-38-37-46-28-10-54 9-65 34l-4 11-1 1-2-3c-8-21-24-41-49-43q-22 0-39 17a90 90 0 0 0-20 70c9 73 83 96 111 18m156 442q-6-15-20-20c-20-7-42-2-61 7q-15 7-26 20c-10-2-23-5-20-18 2-10 24-23 32-27l3-2-4-5c-23 13-53 13-74-5-4 13-11 57-5 66 12 15 66 38 85 41 30 6 57 6 83-10q9-3 12-12 2-18-5-35m-263-41-4 8c11 5 49 24 34 39-3 4-11 6-16 8a96 96 0 0 0-65-30c-9-1-26 2-33 9l-10 15c-4 10-7 26-4 38 2 6 15 12 21 15 34 14 71 7 103-7 12-5 47-23 51-34 5-16-2-49-5-66a67 67 0 0 1-72 5m-26 6h-3l-4 1-9 1-1 1-8 3q-11 3-19 11l14-1 11-1 11 1q5 2 10 3 4 1 4 3l15 7 2 1 4 3 14 12 7-3q8-1 8-10-2-7-7-9l-19-13-3-2-8-4-13-4zm212 16h2c8-5 28-8 39-8l8 2c5 1 9 2 3-3l-3-1a71 71 0 0 0-51-12c-10 2-26 12-34 19l-6 4q-10 8-2 17l1 1 2 1 4 1 6 1c8-9 10-9 19-16l5-3zm88 66c1-10 2-13-3-22q2 9-3 17c-11 13-34 20-50 22-39 4-80-11-112-31-8-4-18-10-22-18 0 7 0 19 2 26q8 8 20 13c48 30 111 48 162 12 6-4 5-12 6-19m-212-90c23-13 18-36-7-41h-3l2 9q-15 8-31 5l-4-14q-15 1-23 13-5 7-2 15c5 22 41 22 58 17zm18 62-1 4q-10 12-24 19c-43 27-103 44-149 13q-9-9-8-21l-2 7c-1 5 0 21 2 26 2 8 14 14 21 17 30 14 66 11 97-1 13-4 58-27 62-37 2-4 3-13 3-17v-11zm3-7-1-5zM316 593q13 0 27-4-28-23-47-56l-12-23c-37 45-41 91 32 83m198 198q9 4 20 5 16 2 30-3c23-9 27-33 2-42l-9-3-4 14c-13 1-18 2-31-3l2-11q-14 1-23 13-4 7-2 13 3 11 11 15z"/><path fill="#fcfcfd" fill-opacity=".5" d="m489 619 7-4 1 2-7 4z"/><path fill="#fcfcfd" fill-opacity=".6" d="m482 621 6-2h1l1 2h-3c0-1-6 0-4 2l-3 1q0-2 2-3"/><path fill="#fcfcfd" fill-opacity=".7" d="M721 521v-5h1l1 3z"/><path fill="#fcfcfd" fill-opacity=".5" d="m737 468 4 1c-3 1-8 4-4-1"/><path fill="#fcfcfd" fill-opacity=".1" d="M500 613v2l-3 2-1-2z"/><path fill="#fcfcfd" fill-opacity=".3" d="M483 623c-2-2 4-3 4-2z"/><path fill="#329aec" d="m492 110 2-5q3 21 10 40c22 52 66 90 107 127q13 13 25 27a283 283 0 0 1 37 56q25 52 17 109-9 62-53 107-10 11-23 21l-5 4a218 218 0 0 1-97 29c-3 1-11 2-14 1q2-6 2-11v-2q7-6 9-16 0-7-3-13l-2-2c5-5 6-15 2-21-8-12-20-5-30-1q-29 11-58 8-5 0-8-3c1-3 18-12 20-26q3-11-3-23-4-5-9-7c-22-2-15 24-24 33-9 8-18 10-28 17l-11-13c-16-22-27-42-33-69 9-5 14-13 7-23q-4-5-11-6-1-58 28-108 19-29 40-55l40-56q29-45 54-92zm20 222c-8-21-24-41-49-43q-22 0-39 17a90 90 0 0 0-20 70c9 73 83 96 111 18q5 14 14 24c31 37 74 20 90-21q5-14 5-27v-9q2-2 2-6l-2-2-3-18c-7-20-17-38-37-46-28-10-54 9-65 34l-4 11-1 1z"/><path fill="#171717" d="m515 334 4-11c11-25 37-44 65-34 20 8 30 26 37 46l3 18 2 2q1 4-2 6v9q0 13-5 27c-16 41-59 58-90 21q-9-10-14-24c-28 78-102 55-111-18q-4-39 20-70 17-17 39-17c25 2 41 22 49 43l2 3zm59 41q-4-12 3-23c-17-1-42-2-59 0v21c0 9-2 13 1 21 8 22 28 45 53 41 14-1 27-12 35-23q6-7 8-16l2-4 1-4v-2q4-13 4-27l-7-1c1 11 1 16-7 25l-5 3q-19 7-29-11m-161-7-7 2 2 13c2 13 11 33 21 41a48 48 0 0 0 32 15c40-2 55-45 54-79h-7v1l1 3q4 10-2 18-5 8-14 10-7 1-15-2c-19-14-8-27-9-30h-3l-13 1z"/><defs><linearGradient id="a" x1="607.2" x2="521.9" y1="372.6" y2="400.9" gradientUnits="userSpaceOnUse"><stop offset="0" stop-color="#fff" stop-opacity=".8"/><stop offset="1" stop-color="#fff" stop-opacity=".9"/></linearGradient></defs><path fill="url(#a)" d="M519 394v-2q-1-10 0-19l1-8 1 5c1-9-3-9-1-17l16 1c5 0 23-2 26 0h-1 11c1 1-5 19 2 21q10 18 29 11l4 2c7-1 6-5 11 0l-1 4h-3l-2 3 3 1q-2 9-8 16-3-1-4 2-4 2-6 6l-2 2c-5 0-3 5-7 5l-4 2-2 2c-6-2-5 0-9 2l-4 1 3 1c-25 4-45-19-53-41"/><path fill="#329aec" d="M460 293c32-1 51 33 55 61-25-3-34-2-59 1q-25 3-50 9c2-32 17-68 54-71"/><defs><linearGradient id="b" x1="449.6" x2="487.2" y1="352.4" y2="428.4" gradientUnits="userSpaceOnUse"><stop offset="0" stop-color="#fff" stop-opacity=".8"/><stop offset="1" stop-color="#fff" stop-opacity=".9"/></linearGradient></defs><path fill="url(#b)" d="M466 360h3c1 3-10 16 9 30q1 6 6 4h10c5-1 13-9 16-13s0-13 1-16l2 2v-3h1q0 11-4 20l-1 10-3 3v1l3-2c1 2-4 11-5 13l-1-2-3 6 2-1v1l-7 8 1-4q-3 3-3 4c-4 5-12 13-18 14l-16 4q-18-2-30-15c0-2-7-10-8-13q-1-3-3-7l-2-6v-1c-6-1-4-7-3-11q-3-2-5-3l-2-13q5 5 6-1l1-1 40-7q3 1 3 3c0 1 4 2 4 0l-2-1q2 1 3-1c0-1 4 1 2 3l2 5q-1-3 0-5 3-2 1-5"/><path fill="#329aec" d="M567 290c33 1 50 33 54 62a247 247 0 0 0-73-8l-32 2c-2-11 10-31 17-39q14-16 34-17"/><path fill="#fcfcfd" d="M508 361v-1h7c1 34-14 77-54 79l14-4c6-1 14-9 18-14q0-1 3-4l-1 4 7-8v-1l-2 1 3-6 1 2c1-2 6-11 5-13l-3 2v-1l3-3 1-10q3-9 4-20h-1v3l-2-2c-1 3 2 12-1 16s-11 12-16 13h-10q-5 2-6-4 7 3 15 2a22 22 0 0 0 16-28q6 0 2-4zM518 352c17-2 42-1 59 0q-7 11-3 23c-7-2-1-20-2-21h-11 1c-3-2-21 0-26 0l-16-1c-2 8 2 8 1 17l-1-5-1 8q-1 10 0 19v2c-3-8-1-12-1-21z"/><path fill="#fcfcfd" fill-opacity=".9" d="m572 435-3-1 4-1c4-2 3-4 9-2l2-2 4-2c4 0 2-5 7-5l2-2q2-4 6-6 1-3 4-2c-8 11-21 22-35 23"/><path fill="#fcfcfd" d="M408 383q2 1 5 3c-1 4-3 10 3 11v1l2 6q2 4 3 7c1 3 8 11 8 13-10-8-19-28-21-41"/><path fill="#fcfcfd" fill-opacity=".4" d="m603 386 5-3c6 2 4-1 10 3v2c-5-5-4-1-11 0z"/><path fill="#fcfcfd" fill-opacity=".6" d="m453 361 13-1q2 3-1 5-1 2 0 5l-2-5c2-2-2-4-2-3q-1 2-3 1l2 1c0 2-4 1-4 0q0-2-3-3"/><path fill="#fcfcfd" fill-opacity=".4" d="m406 370 7-2-1 1q-2 6-6 1"/><path fill="#fcfcfd" fill-opacity=".3" d="m508 361 3-1q4 4-2 4z"/><path fill="#fcfcfd" fill-opacity=".6" d="m615 396-3-1 2-3h3z"/><path fill="#51a1ed" d="m492 110 2-5q3 21 10 40c22 52 66 90 107 127q13 13 25 27l20 28c-3-2-8-11-10-13-4-5-22-29-26-31 0 3 5 13 0 15-5 3-13 1-9 11v1l-2-2 4 7q6 9 8 20c-7-20-17-38-37-46-28-10-54 9-65 34l-4 11c-1-6 9-22 12-27 3-3 9-9 10-12q-3-2-6-2l-4-8-4-3-10-12c-1-1 0-8-2-10q-4-4-5-9l-1 22c-2-5-1-21-1-22h-1l-4 1q-6 1-7 6h-5l-4 3c-2-3 4-9 2-12q0 5-4 10c-10 18-25 26-46 32l-1-1-13 6v1c-11 6-16-9-14-14 7-8 28-13 39-17 15-6 21-35 36-24 2-4-2-7-4-10 2-6 11-15 15-21v-2l8-2 2 2c4-9-4-46-2-49h3v-6l1-1 1 2v-1l1 1c0-5-10-23-10-30l-4-16z"/><path fill="#171717" d="M421 296q-7 2-12-3c-8-13 11-17 19-20 10-4 21-6 29-14 5-7 18-29 26-14 3 6-1 11-4 16-10 17-27 23-44 29h-1zM531 244c10-1 13 11 22 15q16 6 32 8c12 2 17 12 4 19-6 0-27-5-33-7-12-3-25-10-30-21q-5-10 5-14"/><path fill="#51a1ed" d="M424 306zq3-3 5-4c10-9 27-15 40-12l12 4 4-1 1 2-1 1q9 6 16 15c4 5 11 15 12 21l-1 1c-8-21-24-41-49-43q-22 0-39 17"/><path fill="#171717" d="M540 466a71 71 0 0 1 60 27l-5 4c-26-32-68-31-101-11q-15 8-26 21l8 4v1l-3 1q-18-5-15-23l2-1c3 3 0 8 2 13q2 2 3 1c6-3 11-11 17-15 19-13 35-20 58-22"/><path fill="#51a1ed" d="M489 135c5 0 2 1 5 4q2 1 1 3v5q-3 0-4-3zM505 287zM475 271zh-1z"/><path fill="#0a6fbe" d="M279 473v-6q-5-48 13-93 12-27 28-49l29-39q54-78 112-151l32-39 1 9-2 5-12 27a863 863 0 0 1-94 148q-21 26-40 55-29 49-28 108c-12 2-29 17-39 25M288 506q15-17 34-29a200 200 0 0 0 45 82c-12 12-14 15-18 30-26-20-50-53-61-83M498 626a218 218 0 0 0 90-21c5-2 17-9 21-9-27 25-82 43-118 44l-1-2q5-5 8-12"/><path fill="#fcfcfd" d="m504 582 2 2c-17 16-43 19-65 19l-12-1v-1h17c20-1 43-4 58-19M737 468c11-2 24-7 36-4l1 2c-17-1-17-1-33 3zM480 624c-7 2-46 4-51 0 19 0 33 3 53-3q-2 1-2 3M489 822l2 1v14c-2 4-2-14-2-15M721 521l2-2 3 8h-2zM490 638l1 2q-3 2-7 3h-1z"/><path fill="none" d="M558 814c8-7 24-17 34-19 17-3 37 2 51 12l-8 2c-11 0-31 3-39 8h-5l-3-1c-1-3 1-4-4-4q-4-1-8 2l-4 4c-1 0-7 5-9 4 0-1 5-3 2-5l1-2 2-1q-3 0-8 3z"/><path fill="#d4d4d4" fill-opacity=".3" d="M387 806c0 5-3 5 4 10h4c3-1 6 6 9 3 1-1 0-7 4-9l2 1c3 2 0 4 4 5l2 3q3 2 5 6c3 4 1 8 4 11h4q1 3-2 3l-4-1q-1-2-3-3l-4-3c-3 0-6-4-8-3q-3 0-3 2l-2-1c-1-4-5-3-5-5v-1h-1l1-1-3-5-6-2-4-1-3-3c-1-6 3-2 4-6zm29 18zq0-3-3-5-2 6 3 6"/><path fill="#d4d4d4" fill-opacity=".5" d="M413 818q3 2 3 5v1q-5 0-3-6"/><path fill="#d4d4d4" fill-opacity=".7" d="M551 836zq-8-9 2-17c1 4 2 3 4 6v3q2 4 7 0l9-2 10-2c-9 7-11 7-19 16l-6-1-4-1 3-1q3-1 3-3-3-3-6-2-1-1-3-3-2 3 1 8"/><path fill="#d4d4d4" fill-opacity=".2" d="M398 815c3 3 7 7 6 0q0-4 3-5 2 0 5 1l5 2c-2 6 3 6 5 9l3 2q4 5 6 9l-1 7q-1 2-4 2c-6 2-5-3-7-4-5-2 0-4-7-5l-3 1-4-3q0-2 3-2c2-1 5 3 8 3l4 3q2 2 3 3l4 1q3 0 2-3h-4c-3-3-1-7-4-11q-2-4-5-6l-2-3c-4-1-1-3-4-5l-2-1c-4 2-3 8-4 9-3 3-6-4-9-3h-4z"/><path fill="#d4d4d4" fill-opacity=".2" d="M382 801h6-2q1 5 3 7c3 2 5-2 8-1l4-1q4 3 8 3l3 2q-2-1-5-1-3 1-3 5c1 7-3 3-6 0l-7 1c-7-5-4-5-4-10l-1-2-1-2zM560 817q5-3 8-3l-2 1-1 2c3 2-2 4-2 5 2 1 8-4 9-4l5-2h1l6-2 3 4q3 0 4-1h3l-7 3q-3 0-6 2h-4l-2-2-5 2-1 1c-10 5-7-2-9-3q-5-1 0-3"/><path fill="#d4d4d4" fill-opacity=".5" d="M379 801zq2 3 6 3l1 2h-1c-1 4-5 0-4 6v1l3 4h7c-5 1-4-1-8 3q-5-1-10-3l-11-1c4-1 8 1 5-3l-2-2h3q4 0 6-1 3 1 7-2h1c5-2-2-4-3-5l-1-1z"/><path fill="#d4d4d4" fill-opacity=".5" d="m382 812 3 3 4 1 6 2 3 5-1 1h1v1c0 2 4 1 5 5l-15-7q0-2-4-3c4-4 3-2 8-3h-7z"/><path fill="#d4d4d4" fill-opacity=".4" d="M560 820c2 1-1 8 9 3l1-1 5-2 2 2h4q3-2 6-2l-5 3-10 2-9 2c-9 1-7 2-3-7"/><path fill="#d4d4d4" fill-opacity=".5" d="M366 803zh7c4 4 3 4 9 4h-1q-4 3-7 2-2 1-6 1c-1-4-4-2-8-3l7-1q0-2-3-3z"/><path fill="none" d="m409 834 3-1c7 1 2 3 7 5 2 1 1 6 7 4q3 0 4-2v3l-7 3z"/><path fill="#d4d4d4" fill-opacity=".8" d="m366 803 9-1 4-1v1l1 1c1 1 8 3 3 5-6 0-5 0-9-4z"/><path fill="#d4d4d4" fill-opacity=".2" d="m558 814 2 3q-5 2 0 3c-4 9-6 8 3 7q-5 4-7 0v-3c-2-3-3-2-4-6z"/><path fill="#d4d4d4" d="m363 816 11 1q5 2 10 3 4 1 4 3c-14-5-21-6-36-6z"/><path fill="#d4d4d4" fill-opacity=".1" d="m572 818 4-4q4-2 8-2c5 0 3 1 4 4l3 1h5-5q-1 1-4 1l-3-4-6 2h-1z"/><path fill="#d4d4d4" fill-opacity=".2" d="M365 804q3 1 3 3l-7 1-3 1-1-2z"/><path fill="#d4d4d4" fill-opacity=".1" d="m386 801 1 1c2 2 0 4 2 5 3 2 5-3 8-2h4l8 4q-4 0-8-3l-4 1c-3-1-5 3-8 1q-2-2-3-7"/><path fill="#d4d4d4" fill-opacity=".6" d="M551 836q-3-5-1-8 2 2 3 3 3 0 6 2 0 2-3 3v-1q1-4-3-3-3 4 3 4l-3 1z"/><path fill="#d4d4d4" fill-opacity=".9" d="m358 809 3-1c4 1 7-1 8 3h-3q-5 1-8-2"/><path fill="#fcfcfd" fill-opacity=".9" d="m643 807 3 1-3 3-8-2z"/><path fill="#d4d4d4" fill-opacity=".4" d="M553 832q5-1 3 3v1q-6 0-3-4"/><path fill="none" d="M489 854v11q0-4-2-6l1-4z"/><path fill="#d4d4d4" fill-opacity=".3" d="M380 801h3l2 1 1 2q-4 0-6-3"/><path fill="#fcfcfd" fill-opacity=".4" d="M646 808c6 5 2 4-3 3z"/><path fill="#a3a0a8" d="m490 843 1 5z"/><path fill="#171717" d="m786 294 3-1c19-1 16 7 19 22l8 43 3 16c-7 14-44 29-56 18-5-9-36-63-36-67q0-4 3-7c11-13 40-23 56-24m-28 81 5 10c9-13 35-21 51-19l-11-58c-17 16-45 26-68 25zm-12-48q22-3 40-14c4-2 13-8 14-12-2-3-11-2-14-2q-26 4-48 19-4 3-5 7c2 4 9 3 13 2m32 65q21-1 35-16c7-8-7-8-11-7q-21 2-35 16c-6 8 7 7 11 7M777 461c18-13 45-4 47 19v7l-2 7-2 4q-13 23-40 24v-12q12-1 18-11l2-3c5-8 1-20-7-25l-1-1-5-3-9-3q-5 0-1-3"/><path fill="#171717" d="M826 481q8 3 12 11c10 19-13 43-33 38h-1c-4-3-6-2-10-7v-1l12-6 2-2q2 0 3-2l6-6 4-6 2-4 3-7v-8"/><path fill="#fcfcfd" d="M793 471c8 5 12 17 7 25h-1q-3 1-1 3-6 10-18 11v12q27-1 40-24l1 2-4 6c-2 1-7 3-6 6q-1 2-3 2-3-1-2 2l-12 6v1c4 5 6 4 10 7v1c-4 1-10-5-12-8l-13 1-1 1-1 7-1 1q-3 0-2 3c-7 12-22 13-34 8l2-2q6 3 12 2 15-1 21-15 4-9 2-19c-10 0-15-2-25-7l2-1 12 5c16 4 36-3 33-24l-4-7c1-5-2-2-2-5M426 651h5l19 1v1c-2 1-24 1-24-2"/><path fill="#fcfcfd" fill-opacity=".6" d="m747 497 7 5-2 1-6-4z"/><path fill="none" d="m728 533 1-2 7 8-1 1z"/><path fill="#fcfcfd" fill-opacity=".2" d="m776 459 1 2q-4 3 1 3v2h-4l-1-2z"/><path fill="none" d="m778 464 9 3-3 1-6-2z"/><path fill="#fcfcfd" d="m824 487 2 2-3 7-1-2z"/><path fill="#fcfcfd" fill-opacity=".4" d="m787 467 5 3-1 2-7-4z"/><path fill="#fcfcfd" fill-opacity=".5" d="m736 539 6 3-2 2-5-4z"/><path fill="#fcfcfd" fill-opacity=".8" d="m726 527 3 4-1 2-4-6z"/><path fill="none" d="M746 499c-1-1-7-4-3-5l4 3z"/><path fill="#fcfcfd" fill-opacity=".8" d="m792 470 1 1c0 3 3 0 2 5l-4-4z"/><path fill="#fcfcfd" fill-opacity=".9" d="M811 512c-1-3 4-5 6-6z"/><path fill="#fcfcfd" fill-opacity=".6" d="m824 480 2 1v2l-2 2v1z"/><path fill="#fcfcfd" fill-opacity=".7" d="m777 532 1-7 1-1z"/><path fill="#fcfcfd" fill-opacity=".5" d="M824 486zl2-2v6l-2-2z"/><path fill="#fcfcfd" fill-opacity=".2" d="m822 494 1 2-2 4-1-2z"/><path fill="#fcfcfd" fill-opacity=".7" d="M798 499q-2-2 1-3h1z"/><path fill="#fcfcfd" fill-opacity=".1" d="M450 652h2l1 2-3-1z"/><path fill="#fcfcfd" fill-opacity=".9" d="M774 536q0-3 2-3zM806 516q0-2 2-2z"/></svg>