<svg xmlns="http://www.w3.org/2000/svg" width="1024" height="1024" viewBox="0 0 1024 1024"><defs><linearGradient id="a" x1="382.9" x2="623.1" y1="503.5" y2="312.9" gradientUnits="userSpaceOnUse"><stop offset="0" stop-color="#3d70e9"/><stop offset="1" stop-color="#4491eb"/></linearGradient></defs><path fill="url(#a)" d="M449 245a180 180 0 0 1 123 22c42 25 73 65 85 113q12 47-1 95l-5 15-10 19-13 15a158 158 0 0 1-110 43q-3 10-13 15c-20 7-53 5-73-2-11 13-20 6-30-5l-14 6c-20 4-44 10-65 4-40-12-16-69-9-94l-7-18c-13-46-7-94 15-136 24-44 65-75 113-89zM314 491c-7 25-31 82 9 94 21 6 45 0 65-4l14-6c10 11 19 18 30 5 20 7 53 9 73 2q10-5 13-15l1-5c11-10 12-22-3-28 5-7 9-17 1-23-10-9-26 5-36 8q-8 3-18 3v-2q8-3 12-11v-7q-2-5-8-7c-10-4-19 5-28 9-12 4-27 6-33 19-16-3-36-36-43-49 9-15 4-29-13-32q-11 1-17 9c-8 11-15 27-19 40m284-159c-58 4-78 115-17 114 45-2 71-78 39-106q-9-8-22-8m-102 1c-60 4-83 114-20 115q23-2 38-21 21-25 18-58c-2-21-14-36-36-36"/><path fill="#0d0c0c" d="M350 442c17 3 22 17 13 32 7 13 27 46 43 49 6-13 21-15 33-19 9-4 18-13 28-9q6 2 8 7v7q-4 9-12 11v2q10 0 18-3c10-3 26-17 36-8 8 6 4 16-1 23 15 6 14 18 3 28l-1 5q-3 10-13 15c-20 7-53 5-73-2-11 13-20 6-30-5l-14 6c-20 4-44 10-65 4-40-12-16-69-9-94 4-13 11-29 19-40q6-8 17-9m3 110-14-15-2 14zm54-24v9q1 4 1 7h-1l-1-1-3-10c-8 8-7 14-6 24l1 6 3 6 3 5 3 4 6 4c10 5 23-1 12-6l-6-5 1-1 16 9q22 6 43 5l6-1c16-1 26-2 32-18a52 52 0 0 1-34 8q-11-3-1-3l17-1h1l1-1q6-1 13-5l3-2 4-3 1-2 1-3q5-9-3-15-3-3-7-1v1l-2 1q-4 4-10 6a82 82 0 0 1-27 5c-3-3 3-3 3-3q9 0 17-3l3-1q11-3 18-12l1-1q3-5 3-10-1-5-4-8l-2-1q-6-2-12 1l-1 1-2 1-4 2-2 1-11 5-8 2h-30v-1q5-2 12-3h3l4-2 2-1 2-1q5-3 6-9c1-5 1-5-3-8-4-4-12-2-16 0l-5 3-3 2-4 2h-1c-8 4-17 3-26 11l-2 2-3 4z"/><path fill="#1e2ecc" d="M363 474c7 13 27 46 43 49l-2 6q-8 6-10 16c-12 4-29 9-41 7l-14-15c1-11 17-53 24-63"/><path fill="#3e71e8" d="M463 520v2q-4 1 0-2"/><defs><linearGradient id="b" x1="513.8" x2="402.1" y1="547.7" y2="543.3" gradientUnits="userSpaceOnUse"><stop offset="0" stop-color="#fff" stop-opacity=".9"/><stop offset="1" stop-color="#fff"/></linearGradient></defs><path fill="url(#b)" d="M425 516q2 1 2-1l-1-2c3-4 8 6 19-3h2c-3 6-12 5-16 6v1l3 1h1l-1 1-2 1v2l9-2h14q-7 1-12 3v1h27c-2 3 6 6 6 3l-3-3 8-2q4 5 10 0 2-2 6-2 0-3 3-4v1q-1 5 4 3c8-1 7-1 8 6l4 4-1 1c-7-2-2 3-7 3q-3 0-4 3c-2 4-5 1-7 6l-3 1h-5l-10 2h-4v1h-2v3l1 1-1 2 3-1q-2 4 1 4h7v-3c2-1 3 2 4 1l6-1q3 3-1 3h-5c0 1-3 3 0 4l4 2 9-2 1-1q-1 3-6 3c-1-1-6 0-7 1l-7 1c-7 4 4 4 5 4-6 1-10-2-13 3-2 2-5 3 0 5l-1 1 1 1c0 4 1 3 5 6q-22 0-43-5l-16-9-1 1h-2l-2-3h-1c2 3 3 2 1 5l-2 2-2-3-2-1q1-2-2-3-2-2-2-5c-1-2-3 0-3-3q0-3 3-5l3 1c1-3-2-8 0-12q0-3-1-7 3-4 0-9l2-5 1 2 10-8v3l5-1zm-14 23a1 1 0 1 0-2-2 1 1 0 0 0 2 2m15 31q2-1 0-1z"/><path fill="#fefefe" fill-opacity=".8" d="M409 537a1 1 0 1 1 2 2 1 1 0 0 1-2-2"/><path fill="#fefefe" fill-opacity=".9" d="M426 569q2 0 0 1z"/><path fill="#fefefe" fill-opacity=".7" d="M440 506q5 5 10-1l6-2q3-4 8-3l-3 1-3 1q2 3 5 2c-5 1-3 0-6 4q-4 0-7 3-3 2-5 3l-1 1c-4 3-10 0-8 5h5l-9 2v-2l2-1 1-1h-1l-3-1v-1c4-1 13 0 16-6h-2c-11 9-16-1-19 3l1 2q0 2-2 1l-5 1-10 8-1-2 3-4 4 1c4-4-1-3-2-3 9-8 18-7 26-11"/><path fill="#fefefe" fill-opacity=".4" d="m485 549 16-4v1q-1 5 3 5l1 5q4 0 8-2l5-5 2 1c-6 0-1 8 0 2q2 1 2 4l-1 2c-3-4-8 2-4 3l-3 2q-2-3-7-2l-2 2q-9 1-15 4h1-3l2-2 1-1 10-1c6-6 4-5-1-9-2-3-9-2-12-2z"/><path fill="#fefefe" fill-opacity=".6" d="m485 549 3 3c3 0 10-1 12 2 5 4 7 3 1 9l-10 1-1 1-2 2h3q5 0 9 2h-1l-12-1c-1 0-12 0-5-4l7-1c1-1 6-2 7-1q4 0 6-3l-1 1-9 2-4-2c-3-1 0-3 0-4h5q3 0 1-3l-6 1c-1 1-2-2-4-1v3h-5c4-6-6-5-2 0q-4 0-1-4c6 0 5 1 9-3"/><defs><linearGradient id="c" x1="513.7" x2="508.8" y1="540.7" y2="555.3" gradientUnits="userSpaceOnUse"><stop offset="0" stop-color="#fff" stop-opacity=".2"/><stop offset="1" stop-color="#fff" stop-opacity=".4"/></linearGradient></defs><path fill="url(#c)" d="M501 546c5 5 7 0 12-3 1-1 7-6 7-1l1 4q2 3 2 7l-1 3q0-3-2-4v-2l-2-1-5 5q-4 2-8 2l-1-5q-4 0-3-5"/><defs><linearGradient id="d" x1="508.5" x2="512.9" y1="510.8" y2="528.6" gradientUnits="userSpaceOnUse"><stop offset="0" stop-color="#fff" stop-opacity=".9"/><stop offset="1" stop-color="#fff"/></linearGradient></defs><path fill="url(#d)" d="m500 513 1-1q6-3 12-1-1 2 0 5-2 1 0 1 3 0 3 2 0 3 2 1h1q0 5-3 10l-4-4c-1-7 0-7-8-6q2-5-4-3v-1h2q2 1 2-2z"/><defs><linearGradient id="e" x1="457.5" x2="456.7" y1="504.6" y2="513" gradientUnits="userSpaceOnUse"><stop offset="0" stop-color="#fff" stop-opacity=".6"/><stop offset="1" stop-color="#fff" stop-opacity=".7"/></linearGradient></defs><path fill="url(#e)" d="M463 504c3 1-1 5 5 3-1 5-10 3-5 8l3 1-2 1-4-2c-3-3 1-4-5-3q-3 0-2 3c4 2 5 0 5 5h-9v-1c6-1 1-4-3-5h-1q3-1 5-3 3-3 7-3c3-4 1-3 6-4"/><path fill="#fefefe" fill-opacity=".8" d="M483 573h9c-3 1-1 2-2 2q-8 2-5 8l-6 1c-4-3-5-2-5-6l-1-1 1-1c4 0 6-5 12-2h1z"/><path fill="#fefefe" fill-opacity=".7" d="M407 544h1c-2 4 1 9 0 12l-3-1q-3 2-3 5c0 3 2 1 3 3q0 3 2 5 3 1 2 3l-4-1q-1-4-4-5v4l-3-6c3-4 3-12 8-15q2 0 1-4"/><path fill="#fefefe" fill-opacity=".3" d="M417 571h2l6 5q-3-1-4 1-3 4-8 5l-2-1q1-6-4-3l-3-4q3-3 6 0c7 5 3 1 7-3"/><path fill="#fefefe" fill-opacity=".5" d="M453 499c4-2 12-4 16 0l-2 5-3-4q-5-1-8 3l-6 2q-5 7-10 1h1l5 1q2-1-1-3l3-2q8 4 5-3"/><path fill="#fefefe" d="m487 568 12 1-17 1q-10 0 1 3l4 1h-1c-6-3-8 2-12 2-5-2-2-3 0-5 3-5 7-2 13-3"/><path fill="#fefefe" fill-opacity=".1" d="m513 538 1 1 6-1q8 6 3 15 0-3-2-7l-1-4c0-5-6 0-7 1-5 3-7 8-12 3v-1q3 2 5 2c2-3 8-4 5-8z"/><path fill="#fefefe" fill-opacity=".5" d="m406 543 1 1q1 4-1 4c-5 3-5 11-8 15l-1-6c3 1 4-6 4-8-2-5 3-4 5-6"/><path fill="#fefefe" d="M497 543c2-5 5-2 7-6q0-3 4-3c5 0 0-5 7-3q-7 9-18 12"/><path fill="#fefefe" fill-opacity=".1" d="m505 563 2-2q5-1 7 2-6 4-13 5l-3-1q0-1 2-2l4 1z"/><path fill="#fefefe" d="m476 552-3 1 1-2-1-1v-3h2v-1h4l10-2h5q-8 3-17 3s-6 0-3 3c1 1 9-1 11-1-4 4-3 3-9 3"/><path fill="#fefefe" fill-opacity=".5" d="M401 569v-4q3 1 4 5l4 1 2 1 2 3 2-2c2-3 1-2-1-5h1l2 3c-4 4 0 8-7 3q-3-3-6 0z"/><path fill="#fefefe" fill-opacity=".6" d="M467 504q2 3 5 3-1 6-6 9v-1q-3-1 0-3v1c2-4-4-3-3 2-5-5 4-3 5-8z"/><defs><linearGradient id="f" x1="457.4" x2="455.3" y1="511.4" y2="515.4" gradientUnits="userSpaceOnUse"><stop offset="0" stop-color="#fff" stop-opacity=".7"/><stop offset="1" stop-color="#fff" stop-opacity=".8"/></linearGradient></defs><path fill="url(#f)" d="M458 520c0-5-1-3-5-5q-1-3 2-3c6-1 2 0 5 3l4 2-2 1z"/><defs><linearGradient id="g" x1="486.8" x2="487.3" y1="523.1" y2="519.6" gradientUnits="userSpaceOnUse"><stop offset="0" stop-color="#fff" stop-opacity=".8"/><stop offset="1" stop-color="#fff" stop-opacity=".9"/></linearGradient></defs><path fill="url(#g)" d="M492 517c0 4-2 3 4 3h1q-4 0-6 2-6 5-10 0z"/><path fill="#fefefe" fill-opacity=".8" d="m464 500 3 4 1 3c-6 2-2-2-5-3q-3 1-5-2l3-1z"/><path fill="none" d="M501 545q6-2 10-6c3 4-3 5-5 8q-2 0-5-2"/><path fill="#fefefe" fill-opacity=".3" d="M491 567zq6-3 15-4l-1 3-4-1q-2 1-2 2l3 1-1 1q-5-2-9-2"/><path fill="#fefefe" fill-opacity=".7" d="M445 514h1l-2 3v1l5 1v1h-13c-2-5 4-2 8-5z"/><path fill="none" d="M469 499c4 3 4 3 3 8q-3 0-5-3z"/><path fill="#fefefe" fill-opacity=".4" d="M446 514c4 1 9 4 3 5l-5-1v-1z"/><path fill="#fefefe" fill-opacity=".9" d="M515 512q4 3 4 8h-1q-2 2-2-1 0-2-3-2-2 0 0-1 3 0 2-3zM498 514l4 2h-2q-3 1-3 4h-1l-2-4z"/><path fill="#fefefe" fill-opacity=".7" d="M470 524h3l3 3c0 3-8 0-6-3"/><path fill="none" d="M517 561c-4-1 1-7 4-3z"/><path fill="#fefefe" d="M500 517q6-2 4 3-5 2-4-3M420 517l5-1v3l-5 1v-3"/><path fill="none" d="M513 538zq3-2 7 1l-6 1z"/><path fill="#fefefe" fill-opacity=".8" d="m498 514 2-1 4 1q0 3-2 2z"/><path fill="#fefefe" fill-opacity=".3" d="m448 502 5-3q3 8-5 3"/><path fill="#fefefe" fill-opacity=".5" d="m412 519 2-2c1 0 6-1 2 3z"/><path fill="#fefefe" fill-opacity=".7" d="m492 517 2-1 2 4c-6 0-4 1-4-3"/><path fill="#fefefe" fill-opacity=".4" d="m441 506 4-2q4 1 1 3z"/><path fill="#fefefe" fill-opacity=".3" d="M477 556c-4-5 6-6 2 0z"/><path fill="#fefefe" d="M407 528q3 4 0 9z"/><path fill="#fefefe" fill-opacity=".7" d="m513 511 2 1v1q1 3-2 3c-2-3 0-2 0-5"/><path fill="#fefefe" fill-opacity=".5" d="M520 552c-1 6-6-2 0-2z"/><path fill="#fefefe" fill-opacity=".1" d="M407 578q5-3 4 3z"/><path fill="#fefefe" fill-opacity=".6" d="M463 515c-1-5 5-6 3-2v-1q-3 2 0 3v1z"/><path fill="#1e2ecc" d="m314 491-7-18c-13-46-7-94 15-136 24-44 65-75 113-89l4 1-12 7c-66 39-94 111-77 186q-11 1-17 9c-8 11-15 27-19 40"/><path fill="#2941cf" d="m435 248 14-3-22 11 12-7z"/><path fill="#3e71e8" d="m518 567 1-5c3 2 1 2 2 4l2 2z"/><path fill="#0d0c0c" d="M496 333c22 0 34 15 36 36q3 33-18 58a55 55 0 0 1-38 21c-63-1-40-111 20-115m-1 107 12-9c-16-5-20-18-20-33l19-10-15-10c5-15 12-29 29-33q-11-10-25-9c-35 4-58 44-53 77 4 30 28 40 53 27"/><path fill="#fefefe" d="M495 336q14-1 25 9c-17 4-24 18-29 33l15 10-19 10c0 15 4 28 20 33l-12 9c-25 13-49 3-53-27-5-33 18-73 53-77"/><path fill="#0d0c0c" d="M598 332q13 0 22 8c32 28 6 104-39 106-61 1-41-110 17-114m5 59 5-3-5-4-10-7 1-3q7-20 25-29 2-1 0-2v-1q-6-5-11-6-9-3-18 0c-35 9-58 70-33 98q14 14 32 8c5-2 17-7 20-12h-1l-2-1q-8-2-11-9l-4-2-1-6-1-3h1l-1-13 6-2 1-1q3-2 4-1z"/><defs><linearGradient id="h" x1="610.5" x2="547.6" y1="389.8" y2="388.4" gradientUnits="userSpaceOnUse"><stop offset="0" stop-color="#fff" stop-opacity=".9"/><stop offset="1" stop-color="#fff"/></linearGradient></defs><path fill="url(#h)" d="M608 336q6 2 11 6c-3 4-9 4-12 8l-4 3s6-3 3 0q-4 3-6 7c-2 3-8 14-7 17l10 7q-5 3 0 7l-3 1q-1-1-4 1l-1 1-6 2 1 13h-1l1 3 1 6 4 2q3 7 11 9-3 0-5 2c-1 3 5 0 5 0v-2l2 1h1c-3 5-15 10-20 12q-18 6-32-8c-25-28-2-89 33-98zm-25 9zq2-4-3-3v1q-2 2 3 3m34-2zl-4-1q1 3 4 2"/><path fill="#fefefe" fill-opacity=".9" d="M580 341q5-1 3 3v1q-4-1-3-3z"/><path fill="#fefefe" fill-opacity=".7" d="m613 341 4 1v1q-3 1-4-2"/><path fill="#fefefe" d="M619 342zq2 1 0 2-19 9-25 29l-1 3c-1-3 5-14 7-17q2-4 6-7c3-3-3 0-3 0l4-3c3-4 9-4 12-8M591 418l-1-6-1-3h1l-1-13 6-2 1-1q3-2 4-1l-10 5c0 10 1 14 5 23z"/><path fill="#fefefe" fill-opacity=".4" d="m603 384 5 4-5 3q-5-3 0-7"/><path fill="#fefefe" d="M590 336q9-3 18 0z"/><path fill="#fefefe" fill-opacity=".6" d="M606 429v2s-6 3-5 0q2-2 5-2"/><path fill="#0d0c0c" d="M510 284c14 2 0 18-4 23q-16 15-39 14-3-1-5-3l-1-3 3-4q11-1 24-4 10-4 15-12 3-7 7-11M563 287c7 0 7 3 11 8q12 13 30 16 9 3 2 10l-16-3q-15-6-25-19-6-5-2-11zM562 468q14-1 26 6c3 2 15 12 12 15a36 36 0 0 0-40-18q-14 3-26 10c-2 2-10 11-12 11v-1c0-4 10-11 14-14q12-7 26-9M523 568q61-2 105-44l13-15-7 15q-22 33-55 55l-22 14c14 31 9 91 3 125q23 4 14 24 3 1 4 6 26 1 43 19 12 14 10 33l3 1 3 8q-1 9-9 13c-28 17-74 4-104-2-8 22-52 20-71 17q-30-3-61-12-6-2-9-9-4-13 8-20c-2-20 0-26 10-43q-9-20 12-27c-3-31-6-100 10-127-15-7-20-9-35-18l14-6c10 11 19 18 30 5 20 7 53 9 73 2q10-5 13-15zm-75 158c12 4 23 13 14 26l5 5q21 0 37 12c3-10 4-15 10-24v-1c-8-13-2-21 10-27l-1-28q-3-43 4-85c-28 5-46 6-74 3 7 22 1 70-1 93zm70 82q1-16-8-29c-15-20-45-25-65-10q-8 6-12 14l-3 8h-1c-3-6 10-21 14-25v-2c-13 4-31 2-40-9q-12 18-11 38 1 7 7 12a238 238 0 0 0 100 11q10-2 19-8m42-88-1 9h1l2-3 2 1c0 10-35 15-42 1h3l-1-7v-1c-9 5-15 12-9 21 11 18 52 15 59-6 2-9-6-13-14-15m-102 39 6-1-4-4-3 4zm116-11h1l-3-4-2 3zm-161-19q-13 3-12 16 3 10 11 15c14 6 42 4 49-12 5-11-4-16-12-19l-1 1-1 9c3-1 2-5 5-3 2 12-39 16-42 1h1l3 2zm141 26c-10 1-27 1-35-6l-3-2c-6 9-8 14-9 25q12 10 13 28l19 4c26 5 61 13 85 0 11-6 2-26-4-33q-12-17-34-20-17-1-30 9-11 8-15 22l-1 1-1-2c0-8 10-19 16-24l6-4 5-2-1-1-4 2zm-33 47c-2 10 3 6 4 14v2l14 3c26 5 55 12 81 3 9-3 21-13 11-22-11 10-29 12-43 11q-30-2-60-9zm-130-4q-6 6-7 13 0 5 3 8c11 10 78 18 95 17 11 0 26-2 35-10q5-3 6-10 0-5-5-5c-7 3-11 6-20 8-28 4-63-2-90-8q-12-1-16-12z"/><path fill="#1e2ecc" d="M523 568q61-2 105-44l13-15-7 15q-22 33-55 55l-22 14-18 7-12 4c-28 5-46 6-74 3-6-11-20-19-30-8-15-7-20-9-35-18l14-6c10 11 19 18 30 5 20 7 53 9 73 2q10-5 13-15z"/><path fill="#c7c9cd" d="M443 764q6-1 11-5l3-1 1 1-15 7z"/><path fill="none" d="m570 747 2-3 3 4h-1z"/><path fill="#fefefe" d="m565 750 5-3 4 1-8 3z"/><path fill="#c7c9cd" d="M561 752v1l-6 4-1-2z"/><path fill="#6b6d71" d="m561 752 4-2 1 1-5 2z"/><path fill="#0d0c0c" d="M716 374c1-13 6-30 16-39 14-12 30-4 27 15-2 14-11 21-13 35l-1 3q14-15 26 2c8-2 18 3 19 12q2 16-8 31c-8 11-11 17-22 24q0 21-22 20h-1q-6 17-14 31c-26 50-49 60-89 16l7-15 10-19 9 10q8 8 17 14c12-18 19-31 28-50-8-9-12-18-3-28-12-19-12-43 14-48v-1l2-1 1 2c9 7 17 5 24 8 0-14 1-20 8-32 5-6 9-20 4-27-4-6-13-6-19-1q-16 16-18 38zm-13 65c-6 5-4 14 1 19 8 9 23 16 35 17q17 1 18-17c-3 2-15 6-18 2l1-1c10-1 14-1 23-7q6-5 11-12c-4-3-5 0-12-8q-14 6-20-9-2 0-4 2c-3 7-3 14-12 17h-1q1-3 3-4 6-6 7-14c-6-1-18-5-18-12l1-1c7 5 10 12 22 10q5-2 7-5 3-4 2-9c-3-10-14-10-22-12-5-2-6-4-13-4-26 5-19 41-3 52q4 1 4 4c-3 0-9-6-12-8m68-47q4 21-7 39 5 8 13 4h1q7-8 9-19 6-22-16-24m-17-8c-7 4-6 7-9 13h1q12 14-1 25c3 7 4 9 12 10l4-2c11-11 16-49-7-46M744 233c10-2 35 0 41 9v6l-11 58c-3 4-11 5-16 6h-9c-16-1-23-1-24-20 0-13-9-39-8-51 6-6 19-7 27-8m-15 67c11-8 33-7 44 0l2-9 8-43c-16 7-41 9-57 3l-6-3zm31-48 14-3c19-6 2-11-7-13l-25-1c-5 1-21 3-23 8 3 9 33 9 41 9m-6 58c34-4 16-13-6-13l-7 1-9 3q-6 4 2 6 9 4 20 3"/><path fill="#0d0c0c" fill-opacity=".9" d="M716 374h2v12l-2 1z"/></svg>