<svg xmlns="http://www.w3.org/2000/svg" width="1024" height="1024" viewBox="0 0 1024 1024"><path fill="#111212" d="m493 142 3 2c20 65 68 115 113 164 28 29 56 56 75 93 18-7 20 6 17 20l-4 6 6 19c14 44 10 92-7 134l-11 22c16-1 40-12 53-22 31-28 42-62 45-102l-12-20c-4-4-27-28-10-28 6 0 12 9 16 13l6-7c0-8 2-39 11-40q2 0 3 2c4 3-1 30-2 37 6-11 8-26 16-36 3-3 11-1 9 4q-5 18-12 34c3-4 16-25 21-27 10-3 9 6 4 13l-16 22c5-4 21-20 27-12 2 9-13 15-19 21-7 8-12 23-22 27-3 37-13 72-39 100q-28 32-69 40l-23 1-20 23c-22 22-55 44-84 54q2 8 3 17 5 50-6 99c19-6 53-18 68 4 6 8 6 19-4 25l-12 2-68-10-4-2c-3-5 1-30 2-36q5-46 0-93c-21 5-49 9-70 6 2 28-1 61-7 89q-4 19-10 39c20-3 45-9 62 5 8 7 11 21 3 29-9 9-22 3-33 0l-48-16c-1 0-6-2-7-4q12-51 17-102v-44l-21-6-2 15-1 27c-1 6 0 18-5 22-19 15-67 14-83-3l-2-32q-6-4-10-9c-35-11-71-24-93-56-26-38-4-84 29-110l21-15c-6-25-2-66 8-91-23-6-33-9-34 20l-2 2q-5-1-3-7c1-29 19-27 40-20l8-22c18-45 50-78 83-113a460 460 0 0 0 101-150c1-4 3-14 5-17m-75 391a70 70 0 1 0-12-139 70 70 0 0 0 12 139m-80 166-2-25-3-28-12-17c-12-18-24-44-29-66l-1-1c-29 16-58 55-39 88 11 20 31 32 51 41q15 7 31 10zm220-428 2-2 4 5 5 5 7 8c-2 1-6-6-8-7v1l14 14-1 1 32 33 1-2 3 3 6 6 12 12 2 3q0 2 2 5 18 20 32 42l4 7 4-2a285 285 0 0 0-50-66l-17-18q-43-43-78-90l-15-20-7-12-11-21-1 2q-1-3-3-5l2 7 3 6 2 7q1 3 4 6v1l5 8v1l16 26zM351 662l3-1 3-2h-8l-1-1h-2q-6 3 1 5l15 3a160 160 0 0 0 53-1c27-5-1-9-2-9-5-2-30-3-37-2-4 2-4 1-8 1l-10 2s4 1 1 3q-3 2-8 2m347-159 2 17c0 1-1 13 1 13l2-3 1-1v-2l2-17v-16l-1-8v5-1c-2-3-4-14-2-18 0-5-4-22-6-27q-3 0-1-4c-3-8-10-26-14-32l-4 1 2 3 2 5c8 26 17 48 16 75z"/><defs><linearGradient id="a" x1="450.4" x2="543.8" y1="665.1" y2="389.5" gradientUnits="userSpaceOnUse"><stop offset="0" stop-color="#329ce1"/><stop offset="1" stop-color="#78b5e0"/></linearGradient></defs><path fill="url(#a)" d="m672 413 6-3 2 3 2 5c8 26 17 48 16 75v10l2 17c0 1-1 13 1 13l2-3 1-1a202 202 0 0 1-103 148c-42 25-91 34-139 26l-29-7 2-38q3-22 4-43c-13-16-50-14-69-13-10 1-29 3-37 11-3 4-1 13-1 18v3l-2-2q-23-34-33-73 14-8 29-15 5-4 3-11-2-6-9-7-14 4-27 12c-4-18-2-47 1-65l5-22 30 8 8 2v10c4 40 41 70 81 66q33-4 53-27 19-25 16-58-1-8 5-15 5-6 14-7 14 0 21 11 2 6 3 13c7 36 42 61 78 58q30-3 52-25 21-25 17-57z"/><path fill="#0c88d2" d="m299 451 30 8v18c-1 43 13 92 41 125-10 1-29 3-37 11-3 4-1 13-1 18v3l-2-2q-23-34-33-73 14-8 29-15 5-4 3-11-2-6-9-7-14 4-27 12c-4-18-2-47 1-65zM435 658l23 11q65 23 131 1l38-16q2-1 2 1l-11 10h1l-18 12c-42 25-91 34-139 26l-29-7z"/><path fill="#c1def4" d="M618 665zl-10 7zM672 413l6-3 2 3 2 5c8 26 17 48 16 75v10l2 17c0 1-1 13 1 13l2-3 1-1a202 202 0 0 1-85 136h-1l11-10 15-16c-5 1-22 11-29 14l-33 10-1-1 7-3c43-22 76-61 92-107a179 179 0 0 0-3-122z"/><path fill="#fdfefe" d="M644 639c6-5 16-21 20-27q31-51 34-109l2 17c0 1-1 13 1 13l2-3 1-1a202 202 0 0 1-85 136h-1l11-10z"/><path fill="#6fb3e0" d="m582 663-5 1 1-1z"/><path fill="#111212" d="m614 523 3 2 1 5c-5 54-50 100-105 97q-50-3-81-41h-1q-9-11-15-24c-1-3-6-10-2-13 2-1 7 3 8 4q25 15 52 20c46 7 98-7 131-40zM514 470q10 0 17 7 8 8 8 18-1 11-7 19-11 9-23 7l-3-3c2-3 11-2 15-3 18-7 17-35-2-39q-5 0-7-4z"/><path fill="#6fb3e0" d="M494 160q1-1 1 1l-1 2 1 6q-1 4 2 4l2 7 3 6 2 7q1 3 4 6v1l5 8v1l16 26 29 36 2-2 4 5 5 5 7 8c-2 1-6-6-8-7v1l14 14-1 1 32 33 1-2 3 3 6 6 12 12 2 3q0 2 2 5 18 20 32 42l4 7-5 3q-4-9-12-17c-18-17-34-26-60-25q-30 2-51 24a76 76 0 0 0-19 43q-8-9-23-9-10 1-18 10l-4 6c-27-73-133-63-145 15l-8-2-29-8c24-67 57-94 103-145l31-36 12-17a368 368 0 0 0 47-87"/><path fill="#0c88d2" d="M301 445c24-67 57-94 103-145l31-36 12-17c-1 6-7 15-10 19-19 26-42 49-61 74q-9 11-15 23a201 201 0 0 0-31 90z"/><path fill="#c1def4" d="M495 169q-1 4 2 4l2 7 3 6 2 7q1 3 4 6v1l5 8v1l16 26 29 36 2-2 4 5 5 5 7 8c-2 1-6-6-8-7v1l14 14-1 1 32 33 1-2 3 3 6 6 12 12 2 3q0 2 2 5 18 20 32 42l4 7-5 3q-4-9-12-17c-1-5-7-9-10-13-53-68-136-111-154-204z"/><path fill="#fdfefe" d="m614 327 3 3 6 6 12 12 2 3q0 2 2 5l-26-27zM560 269l4 5 5 5 7 8c-2 1-6-6-8-7v1l14 14-1 1-23-25z"/><path fill="#0c88d2" d="M494 160q1-1 1 1l-1 2 1 6-1 5q-2 12-7 23l-1-2c0-4 3-14 1-16z"/><path fill="#c1def4" d="M494 160q1-1 1 1l-1 2z"/><path fill="#3c9fe0" d="m485 201 1-6 1 2z"/><path fill="#111212" d="M461 244q4 0 4 2c0 5-22 34-26 40l-59 69q-3 0-4-3c1-3 12-14 15-17 26-30 50-57 70-91M479 205c6 3 3 4 1 10l-6 15q-6-2-2-8c2-4 4-12 7-16z"/><path fill="#6fb3e0" d="M407 394a70 70 0 1 1 11 139 70 70 0 0 1-11-139m9 122q22-2 36-19c18-20 15-48-6-65q-16-12-37-12-23 1-38 18a46 46 0 0 0 7 66q16 14 38 12"/><path fill="#111212" d="M409 420q21 0 37 12c21 17 24 45 6 65q-14 17-36 19t-38-12a46 46 0 0 1-7-66q15-17 38-18m9 78q-7-3-12-7a33 33 0 0 1 1-48q13-10 27-9l4-1q-17-10-37-7-18 5-29 20-9 14-6 30a44 44 0 0 0 38 34h9l-4-1h5l8-3 4-1q3-2-2-3c-2-2-6 0-6-4"/><defs><linearGradient id="b" x1="428.2" x2="368.5" y1="472.9" y2="454.6" gradientUnits="userSpaceOnUse"><stop offset="0" stop-color="#fff" stop-opacity=".9"/><stop offset="1" stop-color="#fff"/></linearGradient></defs><path fill="url(#b)" d="m404 510-6-1q-25-8-32-33-3-16 6-30 12-15 29-20 20-3 37 7l-4 1q-14-1-27 9-10 11-10 24 0 14 9 24 5 4 12 7c0 4 4 2 6 4h-1l-2 2 5 1-4 1-8 3h-5l4 1h-9m20-79q1-3-3-2-2 4 3 2"/><path fill="#fdfefe" fill-opacity=".8" d="M421 429q4 0 3 2-5 2-3-2"/><path fill="#fdfefe" d="M418 498c11 4 13 4 24 1v1c-9 8-26 12-38 10h9l-4-1h5l8-3 4-1q3-2-2-3c-2-2-6 0-6-4"/><path fill="#fdfefe" fill-opacity=".7" d="m426 505-5-1 2-2h1q6 1 2 3"/><path fill="#f0f4f9" d="M438 433c5 3-3 1-4 1z"/><path fill="#6fb3e0" d="M594 371a69 69 0 1 1 17 137 69 69 0 0 1-17-137"/><path fill="#111212" d="M594 396c40-4 75 39 48 74q-14 19-36 22c-44 5-76-40-48-77q14-17 36-19"/><path fill="#fdfefe" d="M596 401c10-1 24 4 32 10q-8-2-18 0-14 3-21 16-6 12-3 25 4 14 16 21 14 8 28 2l-3 3q-9 6-22 8-20 3-35-10-14-10-16-27c-3-27 16-45 42-48"/><path fill="#3c9fe0" d="M341 666c16 9 62 8 80 3q5-1 8-3l-5 81a76 76 0 0 1-77 1l-1-15 17 7c6 2 18 9 23 4 1-8-13-13-19-16-6-2 3-1 4-1 4 1 22 5 24 3 12-11-19-14-25-14v-1c6-1 24-2 27-6 10-14-23-7-25-6l-4-1c5-3 11-6 9-12-4-7-29 5-34 7z"/><path fill="#0c88d2" d="M367 728c-6-2 3-1 4-1l-2 1zM403 631l13-2 3-1h2l2-1 10-3-2 27-1 4-18-5c-22-3-52-3-72 6l-2-32c19 9 44 10 65 7"/><path fill="#3c9fe0" d="m403 631 13-2 3-1h2l2-1 10-3-2 27c-6-3-26-15-28-20M375 607c11-1 54-1 57 9-2 7-30 10-37 11l-8-7z"/><path fill="#f0f4f9" d="m513 209 1-2 2 3 4 8c7 8 10 15 17 22q3 2 3 5l4 4s2 4 3 2c1-1-3-6-4-7l-4-5-20-29v-1l15 20a874 874 0 0 0 95 108l-1 1-10-10c-1-1-4-5-5-4v1l1 2-1 2-32-33 1-1-14-14v-1c2 1 6 8 8 7l1 1 4 4 4 4 3 3q3 2 2-1l-3-3-4-4-4-4-10-11-3-3-5-6q-1 0-1 2l-2 2-29-36z"/><path fill="#0c88d2" d="M336 617c8-7 28-10 39-10l12 13 8 7c-17 1-44-1-59-10"/><defs><linearGradient id="c" x1="382.9" x2="372.8" y1="672" y2="649.6" gradientUnits="userSpaceOnUse"><stop offset="0" stop-color="#fff" stop-opacity=".9"/><stop offset="1" stop-color="#fff"/></linearGradient></defs><path fill="url(#c)" d="M376 654c7-1 32 0 37 2l-3 2q-7 5 1 5l4 2c-4 1-18 3-23 2h-4l-12-1h-1c-2 2-11-1-13 0l-15-3 2-1h2q5 0 8-2c3-2-1-3-1-3l10-2c4 0 4 1 8-1"/><defs><linearGradient id="d" x1="688.7" x2="698.9" y1="458.2" y2="455" gradientUnits="userSpaceOnUse"><stop offset="0" stop-color="#fbfcfc" stop-opacity=".9"/><stop offset="1" stop-color="#f7f7fa"/></linearGradient></defs><path fill="url(#d)" d="m678 410 4-1c4 6 11 24 14 32q-2 4 1 4c2 5 6 22 6 27-2 4 0 15 2 18v1-5l1 8-1 5q-1-4-3-2c-2 1-2 11-2 13v10l-2-17v-10c1-27-8-49-16-75 0-2 1-9-2-6v1z"/><path fill="#3c9fe0" d="M423 754c1 10-12 13-20 15-18 3-39 2-54-8q-2-3-2-8l12 6q33 10 64-5"/><path fill="#fdfefe" d="M641 350c13 13 29 37 38 53l-4 2-4-7q-14-22-32-42-2-3-2-5h2l1 3h2zM500 178l1-2 11 21 7 12v1q-3-2-3-5h-1q-2-4-2 0v3l-5-8c6 0 1-4 1-4l-1 3q-3-3-4-6c2-1 5-2 0-5q-1-1-1-5l-2-3z"/><path fill="#fdfefe" fill-opacity=".2" d="m521 215 18 24-2 1c-7-7-10-14-17-22z"/><path fill="#fdfefe" fill-opacity=".5" d="M700 510c1-6-1-6 6-6v6l-3 6c-1 3-2 3 1 8q-3-2-3-5v-8l-1 2v1z"/><path fill="#fdfefe" fill-opacity=".4" d="m617 330 1-2 10 10 8 9-1 1-12-12z"/><path fill="#fdfefe" d="M348 658q13-4 28-4c-4 2-4 1-8 1l-10 2s4 1 1 3q-3 2-8 2l3-1 3-2z"/><path fill="#f0f4f9" d="m495 161 6 15-1 2q-1-3-3-5-3 0-2-4l-1-6z"/><path fill="#fdfefe" fill-opacity=".7" d="M706 494v10c-7 0-5 0-6 6 0-2 0-12 2-13q1-2 3 2z"/><path fill="#fdfefe" d="m629 337 12 13 1 4h-2l-1-3-3-4-8-9z"/><path fill="#fdfefe" fill-opacity=".3" d="M700 520c1 1 1 9 4 5v4l-1 1-2 3c-2 0-1-12-1-13"/><path fill="#fdfefe" d="M362 666c2-1 11 2 13 0h1l12 1h4c-5 1-27 1-30-1"/><path fill="#fdfefe" fill-opacity=".6" d="m569 276 10 11-2 1-1-1-7-8zM704 524c-3-5-2-5-1-8l3-6-2 17z"/><path fill="#fdfefe" d="M705 490c-2-3-4-14-2-18l2 14v5z"/><path fill="#fdfefe" fill-opacity=".2" d="M348 658zh8l-3 2-3 1h-2c1-2-1 0-3-4z"/><path fill="#fdfefe" fill-opacity=".9" d="M560 269q0-2 1-2l5 6-2 1z"/><path fill="#fdfefe" fill-opacity=".5" d="M700 514v-1l1-2v8q0 3 3 5v1c-3 4-3-4-4-5z"/><path fill="#f0f4f9" fill-opacity=".9" d="M543 244c1 1 5 6 4 7-1 2-3-2-3-2l-4-4z"/><path fill="#fdfefe" fill-opacity=".7" d="M516 210h3l2 5-1 3z"/><path fill="#fdfefe" fill-opacity=".8" d="M503 183q0 4 1 5c5 3 2 4 0 5l-2-7z"/><path fill="#f0f4f9" fill-opacity=".8" d="m614 327-1-2v-1c1-1 4 3 5 4l-1 2z"/><path fill="#fdfefe" fill-opacity=".7" d="m539 239 4 5-3 1q0-3-3-5z"/><path fill="#fdfefe" fill-opacity=".1" d="M346 658c2 4 4 2 3 4l-2 1q-7-2-1-5"/><path fill="#fdfefe" fill-opacity=".7" d="m564 274 2-1 3 3v3z"/><path fill="#fdfefe" fill-opacity=".9" d="m583 291 4 4-2 1-4-4z"/><path fill="#fdfefe" fill-opacity=".9" d="m587 295 3 3q1 3-2 1l-3-3z"/><path fill="#fdfefe" fill-opacity=".5" d="M497 173q2 2 3 5l1 2h-2z"/><path fill="#fdfefe" fill-opacity=".7" d="M680 413zc3-3 2 4 2 6z"/><path fill="#fdfefe" fill-opacity=".8" d="M513 208v-3q-1-4 2 0h1zl-1 2zM579 287l4 4-2 1-4-4z"/><path fill="#fdfefe" fill-opacity=".3" d="M499 180h2l2 3-1 3z"/><path fill="#fdfefe" fill-opacity=".7" d="m508 199 1-3s5 4-1 4z"/><path fill="#fdfefe" fill-opacity=".9" d="M516 205q0 3 3 5h-3l-2-3z"/><path fill="#fdfefe" fill-opacity=".8" d="m636 347 3 4h-2l-2-3z"/><path fill="#0c88d2" d="m368 702 4 1h-4q-6 1 0-1"/><path fill="#fdfefe" d="M688 406q3 0 1 4zM696 441l1 4q-3 0-1-4"/><path fill="#fdfefe" fill-opacity=".9" d="M640 354h2z"/><path fill="#1d587c" d="M370 716q-4 0 0-1z"/></svg>