<svg xmlns="http://www.w3.org/2000/svg" width="1024" height="1024" viewBox="0 0 1024 1024"><path fill="#1e1c1d" d="M542 101c7 1 16 5 17 11q2 18 3 36a299 299 0 0 0 27 98q28 56 63 107l22 35q17 27 29 55c7 1 13 1 13 11q0 7-4 10c13 38 12 66 6 104q20 1 39-7c-3-16 0-19 13-27q-3-9-1-19c2-8 14-20 21-24 0-14-4-42-5-56 0-7 22-9 30-10 15-2 64-3 74 9 1 4-3 34-4 40q22 7 13 27c8 10 7 14 3 25 5 13 4 16-3 27 7 18-4 26-21 29q-2 10-12 12c-16 6-40 6-55-1q-14 7-28-1c-27 15-49 19-79 18q-5 11-11 21-36 57-98 82c7 26 7 39 6 66q19 5 18 26c37-9 78 0 97 36q8 17 6 35 10 8 5 20c-4 9-17 15-26 18-53 17-113 3-162-18q-8-4-11-12-3-12 3-21-4-26 12-47c-14-18-2-32 16-38q3-27-4-54c-27 5-44 5-71 2-5 21-7 31-7 53l10 4q18 15 5 33c12 18 12 26 11 48q2 3 3 8 3 9-2 16c-8 13-56 25-72 28-33 7-86 9-115-10q-8-5-10-14-1-8 6-17-1-14 3-28c17-43 60-50 100-42q-1-21 20-26-3-33 6-64l-22-10c-45-22-83-65-99-112q-14-1-28-4a110 110 0 0 1-60-40c-16 2-31-1-30-20q-21-3-37-17c-21-19-41-48-44-77q-2-10 5-18 7-7 15-6c-2-19 5-31 26-26q1-7 6-11c8-7 19-6 25 3q4 9 6 17c5 14 14 32 24 43v1l1-6c4-17 16-34 37-30 16 5 3 21 2 29-5 22 8 39 0 62q9 5 10 15c-1 7-6 17-11 21q17 20 44 24-3-22-2-42c-32-27-21-31 10-47q6-18 14-35 33-66 77-127l17-23a2431 2431 0 0 0 93-151c7-12 6-24 22-27m2 19a2 2 0 1 0 0-4 2 2 0 0 0 0 4M213 528l-2 1q-4-1-5 2l3 7 1 1q3 4 8 4 12 2 22-3h1q12-5 21-14l3-3 2-3c3-4 8-15 2-20l-2-1-2 4h-4l-1-3c3-9 5-12 5-22 1-17-6-27-4-44 1-8 8-20 7-24q-2-2-5-2c-19-2-28 15-28 32l-1 1q-3 5-7 9-11 14-6 31c0 4 6 14 5 17h-3c-4-3-8-14-9-19q-3-21 12-36-18-20-27-45c-3-8-3-23-14-23q-13 1-12 14 1 20 12 39c2 4 9 10 6 14q-3 1-6-3-14-22-18-48-7-3-14-1c-9 4-7 17-5 25q6 19 16 37 4 4 4 8l-2 1c-6-3-17-26-19-33-4-7-3-15-12-11l-7 7c-8 34 33 85 62 96l13 3q5-1 9 2zm4 3q-2 4-5 0l1-2zm415-5a61 61 0 1 0-15-121 61 61 0 0 0 15 121m-30 358a233 233 0 0 0 85 0c4 0 13-3 17-5l8-3 2-1q3-3 1-8c-1-26-19-47-44-55h-3c-38 11-57 35-66 72M336 455l14-5 7-18c16-37 41-67 64-99q32-44 58-91l16-34 1-7 3-3 1-2 1-3 3-6v-4l-10 17-3 4-1 2q-21 35-45 68l-42 61c-25 38-51 76-67 120m-24 432v5l1 3 6 6 5 3c23 11 48 12 74 11l16-2q29-4 55-13l7-3 3-1 1-1q7-1 14-6 10-8 4-20c-12 6-17 7-30 12l-2 1h-2l-8 2-21 6-23 3q-39 6-77-5l-19-8zm313 7-17-2-12-2c-19-5-44-12-62-21-9 18 9 23 21 28l11 3 9 3 15 4 33 7c30 3 64 2 91-13 12-7 6-21 3-20l-25 9q-33 8-67 4m156-388c-11 11-7 16-6 29l1 1c2 5 8 18 8 21l-2 2q-5-4-7-10l-3-9q-8 3-10 10v7q5 19 20 29 9 7 21 4 2-1 0-4v-4c0-5 0-3-3-5l-1-3 4-2 1-3 1-2 1-8v-1q1-9-1-19c-1-7-2-9-6-15l1-1 5-6c11 2 21 6 30-3v-1q2-4 0-10l-4-5-23-2c-8-2-11-3-18 2zM487 811c8-11 1-22-11-26v12c-9 10-25 11-37 3-4-3-2-15-4-16-22 11-15 29 5 35 14 6 35 4 47-8m111-26q0 8-4 14c-8 9-26 8-35 1-3-3-2-11-1-16l-13 9q-4 6-2 13 3 8 12 12 19 7 40 1c9-3 21-13 16-24q-3-7-13-10m245-335-23-1-27-4-1 5c1 4 1 15 4 19l4-1q40-9 80 2l4-26q-20 5-41 6m-498 36 2-20-17 8-4 14-2 7v3l-1 2h23l-1-8zm539-3-3 5h-1l-2 1-8 1c-11-2-17 11-8 16 8 5 25 1 31-6q4-5 2-11-1-5-6-7l-1-1q-2-2-3 1zm-88 5 26 4q2-1 2-6l-17-2-8-3c-3-2-3 3-3 4zm62 61q12 8 26 5c8-2 16-11 14-19l-2-4q-19 12-39 2-6 9 1 16m2 38 11-2q-1-4-4-3h-7l-2 1q-13 3-27 2l-6-1q-4 1-7-1h-5q-2-1-3-1c-1 1 3 4 4 5h1l-1 1 7 2h1c5 0 21 1 25-1zM312 483l-2 2-4 2 3 5 2 2s3-9 1-11m351-81q8 5 3-3l-1 1zM358 813q1 2 3 2 5 0 10-1c-6-1-7-2-13-1m453-289q-4-1-4 2 5 4 4-2m45 53-6-6-18 1h-3l-18-6-1 3v4q9 5 20 6c7 1 19 1 26-2m2-20q-6 8 1 16c7 4 10 4 17 4 12 0 22-8 17-21-13 5-22 5-35 1m4-27q14 5 26-1 14-6 9-19l-2-3q-15 9-31 6c-5-1-6-2-7 6q-1 7 5 11m-31-101c-8 1-33 2-39 7-2 8 45 9 52 8q21 1 40-8c-13-6-39-8-53-7"/><defs><linearGradient id="a" x1="530.2" x2="526.3" y1="678.9" y2="458.6" gradientUnits="userSpaceOnUse"><stop offset="0" stop-color="#1790eb"/><stop offset="1" stop-color="#38aaf1"/></linearGradient></defs><path fill="url(#a)" d="M366 460c3 5 4 4 10 5l3 4a73 73 0 0 0 144 18l2-13c8-7 25-8 26 5l4 14q-7-2-14 0v3q1 2 3 2c15 0 28 8 25 25-2 17-21 15-34 14l-2 2 2 3c18 5 37 1 41-20q27 22 62 16 30-5 48-30c10-14 12-24 14-40a179 179 0 0 1-6 130v1q-5 14-14 26-27 45-74 68-56 29-119 21c6-15 15-24 9-39q-10-16-28-9c-11 7-18 25-23 36a188 188 0 0 1-112-110c12-3 27-4 36-13 9-13 3-29-14-31q-7 1-14 4l-18 2q-4-27 0-54h23l-1-8v-6l2-20z"/><path fill="#2968da" d="M333 592c12-3 27-4 36-13l8 12q27 40 67 64l24 11c-11 7-18 25-23 36a188 188 0 0 1-112-110M496 675q19 4 37 4 96 3 155-74l6-6q-5 14-14 26-27 45-74 68-56 29-119 21c6-15 15-24 9-39M323 500h23q1 24 9 48-7 1-14 4l-18 2q-4-27 0-54"/><path fill="#1e1c1d" d="m607 542 3 1 5 11q6 9 14 13c4 2 9 0 11 5l-1 2c-5 2-14-2-19-5-22 24-53 40-85 40q-37 1-67-21l-17-15c-6 3-17 9-23 4l1-3c1-1 10-1 13-3q9-5 14-15 1-6 3-10l3-1c5 5-4 20-7 24l5 5c47 44 113 37 156-9-4-4-13-16-9-23"/><defs><linearGradient id="b" x1="510.2" x2="489.3" y1="459.6" y2="139.7" gradientUnits="userSpaceOnUse"><stop offset="0" stop-color="#49b5f1"/><stop offset="1" stop-color="#8fd8f8"/></linearGradient></defs><path fill="url(#b)" d="m530 137 10-22c9-8 8 15 8 19l5 45c11 62 45 113 77 165 11 16 28 39 36 55l-1 1-2 2a77 77 0 0 0-61-7q-29 9-44 37-6 13-8 27c-10-4-15-4-25 1q-3-33-28-53a73 73 0 0 0-54-14q-44 7-61 48-16 3-32 9l7-18c16-37 41-67 64-99q32-44 58-91l16-34 1-7 3-3 1-2 1-3 3-6v-4l11-19zm14-17a2 2 0 1 0 0-4 2 2 0 0 0 0 4"/><path fill="#bee6f5" d="m530 137 10-22c9-8 8 15 8 19v6l-1-2c-4-2-2 1-5 0h-8zm14-17a2 2 0 1 0 0-4 2 2 0 0 0 0 4"/><path fill="#bee6f5" fill-opacity=".8" d="M544 116a2 2 0 1 1 0 4 2 2 0 0 1 0-4"/><path fill="#1e1c1d" d="m204 449 3 1c3 4-2 5-5 6q-19 8-27 27c-5 1-3-5-2-8q11-19 31-26"/><path fill="#4db1ee" d="M617 405a61 61 0 1 1 15 121 61 61 0 0 1-15-121m-4 111h2q18 1 31-10c19-16 23-45 7-64q-12-12-31-14-19-1-33 12-12 13-14 30a44 44 0 0 0 16 36q10 8 22 10"/><path fill="#f6f6f7" d="m591 506-4-4q-12-14-12-32 2-17 14-30 14-13 33-12 18 2 31 14c16 19 12 48-7 64q-13 11-31 10h-2q-12-2-22-10m2-2 1 1 6 3c1 1 11 5 11 3l-5-1q-2 0-2-1h5l3-1h-3q-5 0-2-4h3l-5-1v-1h2l-15-2c-4-1 0 3 1 4"/><path fill="#1e1c1d" d="m591 506-4-4q-12-14-12-32 2-17 14-30 14-13 33-12 18 2 31 14c16 19 12 48-7 64l1-2a42 42 0 1 0-55 1z"/><path fill="#1e1c1d" d="m647 504-1 2q-13 11-31 10h-2q-12-2-22-10l1-1c16 13 39 13 55-1"/><path fill="#224859" d="M613 516h2z"/><path fill="#1e1c1d" d="M600 453a24 24 0 1 1 9 46 24 24 0 0 1-9-46"/><path fill="#f6f6f7" fill-opacity=".8" d="M593 504c-1-1-5-5-1-4l15 2h-2v1l5 1h-3q-3 4 2 4h3l-3 1h-5q0 1 2 1l5 1c0 2-10-2-11-3l3-4z"/><path fill="#f6f6f7" fill-opacity=".7" d="M593 504h10l-3 4-6-3z"/><path fill="#4db1ee" d="M450 405a60 60 0 1 1 5 121 60 60 0 0 1-5-121"/><path fill="#f6f6f7" d="M432 506a44 44 0 1 1 55-68 44 44 0 0 1-55 68"/><path fill="#1e1c1d" d="M432 506a44 44 0 1 1 68-18v-1h-1a42 42 0 1 0-67 18z"/><path fill="#1e1c1d" d="M499 487zv1a44 44 0 0 1-68 18v-1a42 42 0 0 0 67-18"/><path fill="#1e1c1d" d="M440 453a24 24 0 1 1 9 46 24 24 0 0 1-9-46"/><path fill="#f6f6f7" d="M317 874q0-45 41-61 1 2 3 2 5 0 10-1l16 7q24 14 37 41l7 22c-30 5-61 8-90-1z"/><defs><linearGradient id="c" x1="695.3" x2="626.7" y1="892.1" y2="835.8" gradientUnits="userSpaceOnUse"><stop offset="0" stop-color="#ececed" stop-opacity=".9"/><stop offset="1" stop-color="#edeced"/></linearGradient></defs><path fill="url(#c)" d="M671 812c25 8 43 29 44 55q2 5-1 8v-5l-1 1-2-5c-3 4 2 4-3 5-3 0-2 7-7 5l-3-1v2h-2q1 2 3 2h5c-4 2-13 5-17 5h-8v2l-10 2q-34 2-67-4c9-37 28-61 66-72v2h-1c0 2 6 2 5 0l-2-1zm-65 71a1 1 0 1 0-2-2 1 1 0 0 0 2 2"/><path fill="#f6f6f7" fill-opacity=".7" d="M604 881a1 1 0 1 1 2 2 1 1 0 0 1-2-2"/><path fill="#f6f6f7" fill-opacity=".9" d="m316 880 19 8q38 11 77 5l23-3h5q0 2-1 2h-2l9 1h1q-2-1-2-3l4-1 1-1 2-1c3-1 1 2 5 2l1 1q-2 0-6 3l-2 5 5-1q0 3-2 4h-4l-2 2 9-1c1-4 10-3 13-2q-26 9-55 13v-1l-19 1-27 1c-5 1-37-6-39-10l1-1-1-1-5 2-5-3q3-4-1-6c-1 0 0-10-2-11l-1 1h-1l-2 2zm7 11q5-6-3-7c0 2-2 9 3 7"/><path fill="#f6f6f7" fill-opacity=".6" d="M320 884q7 1 3 7c-5 2-3-5-3-7"/><path fill="#62cff0" d="m824 486 35 1q-13 8-3 22-7 9-3 20-9 14 1 24l-5 12c-8 2-12 2-21 1l-16-5c0-8 0-29-5-35q5 4 4-2l14 1q15-2 17-16 0-7-4-12c-5-6-10-4-17-5h1q2-1 2-6"/><path fill="#bee6f5" d="m811 524 14 1 1 1 2 40-16-5c0-8 0-29-5-35q5 4 4-2"/><path fill="#f6f6f7" fill-opacity=".4" d="M782 505v2c4 2 13-8 18-3v1q-4 0-6 5c1 0 13-10 21-12q-3 3-5 5h5l2-1h9c-1 3-9 1-11 1v1c1 2 8-1 9 2 0 0-4 0-2 1v1h1l2-2c0-1 6 0 3-7 7 4-1 11 7 15-9 9-19 5-30 3l-5 6-1 1c4 6 5 8 6 15v1l-1 4-1 4-1 4-1 3v10l-2 1-1 2q-1 0-1-1l-1-3q-1 3 0 6l3 4 1 3-3-1-13-8c0-4 2-3 2-6q0-2-2-5c0-3-6-16-8-21q6 0 5-5-5 1-5 4v1l-1-1v-1c1-4 5-10 4-14l1-3q-1-1-2-3l3-8z"/><path fill="none" d="m545 793 13-9c-1 5-2 13 1 16 9 7 27 8 35-1q4-6 4-14 10 3 13 10c5 11-7 21-16 24q-21 6-40-1-9-4-12-12 2-3 6-4c4-2 2-2 3-5l1-2q-3-2-6-1zm58 4q-1-2-2-2z"/><path fill="#f6f6f7" fill-opacity=".6" d="M601 795q1 0 2 2z"/><path fill="#4db1ee" d="M796 485q-1-4 1-8c9-10 80-10 83 2-1 6-15 6-21 8l-35-1-17-2-8-3c-3-2-3 3-3 4"/><path fill="#e8e8eb" fill-opacity=".9" d="M762 550c1 1 6-7 8-8 0 6 0 4 4 6l1 1q2 6 7 10-3 5 2 9l13 8 3 1c3 2 3 0 3 5l-6 4 3 4c2 1 2-3 3-4q2 3 0 4-12 3-21-4-15-10-20-29z"/><path fill="none" d="M555 897c-12-5-30-10-21-28 18 9 43 16 62 21l-7 2c-6-1-6-3-13-1 2 1 4-1 5 2-2 2-9 0-9 6l-1 1h-1l-3-2q1-1 1-3c-1-2 1-5-2-6h-3q-4 3-3 7z"/><defs><linearGradient id="d" x1="261" x2="241.6" y1="523.8" y2="519.5" gradientUnits="userSpaceOnUse"><stop offset="0" stop-color="#ecebef" stop-opacity=".2"/><stop offset="1" stop-color="#e8e8e9" stop-opacity=".5"/></linearGradient></defs><path fill="url(#d)" d="M265 504c4 2-1 8-2 10q1 4-1 8-2 2-2 5l2-1q-9 9-21 14h-1q-4-1-5-3c-1-5 7-5 4-12l9-5 3 1v1q3 0 4-3l1-3q-1-2-3 0h-1c2-2 9-9 9-11q4 1 4-1"/><path fill="#e8e8eb" fill-opacity=".5" d="m456 884 8-2 2 2c0 1-1 6 2 4l3-1q-1-1-3-4c1 1 6 2 6 4s-5 2-6 4q1 4 4 3 4-1 4 3l-7 3c-3-1-12-2-13 2l-9 1 2-2h4q3-1 2-4l-5 1c4-3 3-5 9-6 2 0 2-4-1-4z"/><path fill="#f6f6f7" fill-opacity=".2" d="m596 890 5 1-1 1v9c0 4 6 3 8 1q0-1 1-3 6-6 14-5l1 2h-2l-1-1q-3-1-7 2-2 1-2 3l-2 2 2 1c-1 2-11 4-13 2-4-2 0-7-1-8l-2 3c-2 8 7 6 11 7h-10q-2-2-3-5 1-2 1-3c-1-1 3-4 2-6-1-1-6 0-7 1l-5 2-5 2c1 2-6 1-6 4h2q-1-1 2-2l-3 3-9-3h5l1-1c0-6 7-4 9-6-1-3-3-1-5-2 7-2 7 0 13 1z"/><path fill="#f6f6f7" fill-opacity=".3" d="m808 496 23 2 4 5q-6 5 0 10v1c-8-4 0-11-7-15-1-2-12-1-13-1-8 2-20 12-21 12q1-5 6-5v-1c-5-5-14 5-18 3v-2l8-7 1 1c3 1 14-2 17-3M575 903l3-3q-2 1-2 2h-2c0-3 7-2 6-4l5-2 5-2c1-1 6-2 7-1 1 2-3 5-2 6q0 1-1 3 1 3 3 5h-7z"/><path fill="#dee3ed" d="m825 584 6 1q13 1 27-2c-1 5-18 1-11 6-4 2-20 1-25 1h-1l-7-2 1-1h-1q2-1 0-3l-1-1h5q4 2 7 1"/><path fill="#62cff0" d="m832 572 18-1 6 6c-7 3-19 3-26 2z"/><path fill="#dee3ed" d="M808 579q8 4 17 5-4 1-7-1h-5q-2-1-3-1c-1 1 3 4 4 5h1l-1 1 7 2h1c5 0 21 1 25-1l13-2 11-2-11 5c-14 4-37 4-50-3z"/><path fill="#e8e8eb" fill-opacity=".6" d="M239 525c3 7-5 7-4 12q1 2 5 3h1-1q-10 5-22 3l-2-1v-2q3-3 8-2 6-1 11-7v-4z"/><path fill="#bee6f5" d="m811 566 18 6h3l-2 7q-11-1-20-6v-4zM799 481l8 3 17 2q0 5-2 6h-1l-25-4q7-1 3-6z"/><path fill="none" d="m596 890 12 2 17 2h-2q-8-1-14 5-1 1-1 3c-2 2-8 3-8-1v-9l1-1z"/><defs><linearGradient id="e" x1="879.4" x2="879.1" y1="500.5" y2="492.1" gradientUnits="userSpaceOnUse"><stop offset="0" stop-color="#fff" stop-opacity=".2"/><stop offset="1" stop-color="#fff" stop-opacity=".4"/></linearGradient></defs><path fill="url(#e)" d="M880 488zc5 0 3 1 6 5l1 1c-4-1-2 2 3 1l1 1-6 1c-1-1-6 1-6 1h8l-8 4c-7 3-6 0-8-4-3-8 16-4 8-10"/><path fill="#f6f6f7" fill-opacity=".2" d="M607 907c-4-1-13 1-11-7l2-3c1 1-3 6 1 8 2 2 12 0 13-2l-2-1 2-2q0-2 2-3 4-3 7-2-4 0-6 4c-2 2 3 2 4 1l3-4h2c0 6-2 7-4 13q-2 3 3 5l-4-1c-3-3-3-1-4-5l-2-1-2-2z"/><path fill="#f6f6f7" fill-opacity=".1" d="M880 488c8 6-11 2-8 10 2 4 1 7 8 4l8-4q3 0 4-2l-1-1 2-3q2-1 2-3 2 6-2 11c-3-2-5 2-8 2l-4 2c-7 1-18-1-12-11l1-2c1-1 8 0 8-2zM468 881q4 3 7 2 5-2 10-3 3-2 6-2v5c-5 3-9 0-11 8v4l-1 1-2-1c3-4-1-4 1-5 3-4-9-8-12-8z"/><path fill="#dee3ed" d="m324 904 5-2 1 1-1 1c2 4 34 11 39 10l27-1 19-1v1l-16 2c-26 1-51 0-74-11"/><path fill="#dee3ed" fill-opacity=".8" d="m229 530 6-3v4q-5 6-11 7-5 0-8 2v2l2 1q-5 0-8-4c4 1 1-6-1-2v1l-3-7q1-3 5-2-5 3 0 4l2 4h3l9-1c3-1 1-3 5-4 0 0 5-2 4-3z"/><path fill="#dee3ed" fill-opacity=".2" d="M792 450h1c1 0 1-5 6-2 1 1-1 8-1 9 0 3 3 6 0 9-2 2-2-2-2 3-3-4-3-15-4-19"/><path fill="#f6f6f7" fill-opacity=".7" d="m435 890 21-6 2 4c3 0 3 4 1 4-6 1-5 3-9 6l2-5q4-3 6-3l-1-1c-4 0-2-3-5-2l-2 1-1 1-4 1q0 1 2 3h-1l-9-1h2q1 0 1-2z"/><path fill="#f6f6f7" fill-opacity=".6" d="M775 535c-1-13-5-18 6-29l-3 8q1 2 2 3l-1 3c1 4-3 10-4 14z"/><path fill="#f6f6f7" fill-opacity=".5" d="M805 539q2 9 1 19l-1-1v-9l-2 4-1 10q0 3 3 5l-1 2-1-2-1-1-2 3c-2 2 2 3 3 3l-4 2-3-4q-1-3 0-6l1 3q0 1 1 1l1-2 2-1v-10l1-3 1-4 1-4z"/><path fill="#f6f6f7" fill-opacity=".3" d="m607 907 4-2 2 2 2 1c1 4 1 2 4 5-8 0-21-3-29-6h17"/><path fill="#f6f6f7" fill-opacity=".4" d="M815 498c1 0 12-1 13 1 3 7-3 6-3 7l-2 2h-1v-1c-2-1 2-1 2-1-1-3-8 0-9-2v-1c2 0 10 2 11-1h-9l-2 1h-5q2-2 5-5"/><path fill="#f6f6f7" fill-opacity=".2" d="M328 489c3-3 2-2 6-2 9 0 10-4 11 5h-12q-5 4-5-3"/><path fill="#e8e8eb" fill-opacity=".9" d="m229 530 5-1c1 1-4 3-4 3-4 1-2 3-5 4l-9 1h-3l-2-4 1-2q2 4 5 0c1 3 10-1 12-1"/><path fill="#f6f6f7" fill-opacity=".3" d="M543 806q-2-7 2-13l2 1q3-1 6 1l-1 2c-1 3 1 3-3 5q-4 1-6 4"/><path fill="#f6f6f7" fill-opacity=".1" d="m555 897 5-1q-1-4 3-7h3c3 1 1 4 2 6q0 2-1 3l3 2h1-5zM326 488zl6-4c3-2 4 1 7 0 3 0 2 1 5 2v6c-1-9-2-5-11-5-4 0-3-1-6 2q0 7 5 3h12l-3 2h-14z"/><path fill="#dee3ed" fill-opacity=".2" d="m820 449 23 1h-10l-5 1c-2 0-7 0-7 3h11l2-2c8-3 3 4-2 4-3 0-12 1-14-1q0-4 5-5z"/><path fill="#e8e8eb" fill-opacity=".2" d="M466 882c3 0 15 4 12 8-2 1 2 1-1 5l2 1-3 1q0-4-4-3-3 1-4-3c1-2 6-2 6-4s-5-3-6-4z"/><path fill="#f6f6f7" fill-opacity=".3" d="M889 482q5 2 6 7 0 2-2 3v-2c-2 1 0 5-5 4l-1-1c4-3 0-7-3-10l1-1q1 2 4 0"/><path fill="#dee3ed" fill-opacity=".1" d="m792 450 1-5c1-1 6 1 7 1l-1 1c1 1 2-1 2 3 1 4 0 4-2 8q4 5 1 8-3 2 0 2l-4 1c0-5 0-1 2-3 3-3 0-6 0-9 0-1 2-8 1-9-5-3-5 2-6 2z"/><path fill="#f6f6f7" fill-opacity=".9" d="M699 879q-2 0-3-2h2v-2l3 1c5 2 4-5 7-5 5-1 0-1 3-5l2 5c-4 3-6 2-1 5l-8 3h-2c5-2-2-5-3 0"/><path fill="#f6f6f7" fill-opacity=".7" d="m312 887 2-2h1l1-1c2 1 1 11 2 11q4 1 1 6l-6-6q3-1 2-3c0-1 0-6-1-5l-2 5z"/><defs><linearGradient id="f" x1="801.7" x2="805.8" y1="558.1" y2="560.4" gradientUnits="userSpaceOnUse"><stop offset="0" stop-color="#fff" stop-opacity=".5"/><stop offset="1" stop-color="#fff" stop-opacity=".6"/></linearGradient></defs><path fill="url(#f)" d="M805 567q-3-2-3-5l1-10 2-4v9l1 1v1z"/><path fill="#dee3ed" fill-opacity=".4" d="M860 582h7q3-1 4 3l-11 2c-3-2 1-1 0-5"/><path fill="#e8e8eb" fill-opacity=".2" d="M261 503h4l2 2-2 12v6l-3 3-2 1q0-3 2-5 2-4 1-8c1-2 6-8 2-10h-1z"/><path fill="#dee3ed" fill-opacity=".7" d="m858 583 2-1c1 4-3 3 0 5l-13 2c-7-5 10-1 11-6"/><path fill="#f6f6f7" fill-opacity=".6" d="M784 557q2 3 2 5c0 3-2 2-2 6q-6-5-2-9z"/><path fill="#dee3ed" fill-opacity=".2" d="m833 450 1 2-2 2h-11c0-3 5-3 7-3z"/><path fill="#dee3ed" d="m772 540 3 9-1-1c-4-2-4 0-4-6-2 1-7 9-8 8q2-6 10-10"/><path fill="#dee3ed" fill-opacity=".4" d="M252 516zq2-2 3 0l-1 3q0 3-4 3v-1l-3-1z"/><path fill="#f6f6f7" d="M504 183v4h-1q-2 2-2 6l-1 3c-1-2-3 3-6 4z"/><path fill="#f6f6f7" fill-opacity=".6" d="M884 483c3 3 7 7 3 10-3-4-1-5-6-5z"/><path fill="#dee3ed" fill-opacity=".5" d="M803 586c-1 1-1 5-3 4l-3-4 6-4z"/><path fill="#f6f6f7" fill-opacity=".3" d="m621 895 1 1-3 4c-1 1-6 1-4-1q2-4 6-4"/><path fill="none" d="M835 503q2 6 0 10-6-5 0-10M267 505c2 0 0 8 0 10-1 4-2 2 0 5l-2 3v-6z"/><path fill="#bee6f5" fill-opacity=".2" d="M796 485c0-1 0-6 3-4v1q4 5-3 6z"/><path fill="#f6f6f7" fill-opacity=".9" d="M358 813c6-1 7 0 13 1q-5 1-10 1-2 0-3-2"/><path fill="#f6f6f7" fill-opacity=".4" d="M464 882h2l2 1q2 3 3 4l-3 1c-3 2-2-3-2-4z"/><path fill="#f6f6f7" fill-opacity=".6" d="M494 200c3-1 5-6 6-4l-1 2-3 3c-1-2-2 3-5 3z"/><path fill="#f6f6f7" fill-opacity=".4" d="m312 892 2-5c1-1 1 4 1 5q0 2-2 3z"/><defs><linearGradient id="g" x1="776.2" x2="780" y1="533.8" y2="532.3" gradientUnits="userSpaceOnUse"><stop offset="0" stop-color="#fff" stop-opacity=".3"/><stop offset="1" stop-color="#fff" stop-opacity=".4"/></linearGradient></defs><path fill="url(#g)" d="M776 536zq0-3 5-4 1 5-5 5"/><path fill="#f6f6f7" fill-opacity=".1" d="M803 572c-1 0-5-1-3-3l2-3 1 1 1 2z"/><path fill="#f6f6f7" fill-opacity=".2" d="M491 204c3 0 4-5 5-3l-1 7c-3-4 0-2-5-2z"/><path fill="#f6f6f7" fill-opacity=".3" d="M888 498h-8s5-2 6-1l6-1q0 2-4 2"/><path fill="#f6f6f7" fill-opacity=".7" d="M713 871zv5l-2 1c-5-3-3-2 1-5"/><path fill="#f6f6f7" fill-opacity=".4" d="M213 528zl-1 2-1 2q-5-1 0-4z"/><path fill="#f6f6f7" fill-opacity=".7" d="M668 812h3l-1 1 2 1c1 2-5 2-5 0h1z"/><path fill="#f6f6f7" d="m213 529 4 2q-2 4-5 0z"/><path fill="#4db1ee" fill-opacity=".2" d="M666 399q5 8-3 3z"/><path fill="#e8e8eb" d="M679 886v-2h8z"/><path fill="#dee3ed" fill-opacity=".9" d="M814 587c-1-1-5-4-4-5q2 0 3 1l1 1q2 2 0 3"/><path fill="#f6f6f7" fill-opacity=".7" d="M699 879c1-5 8-2 3 0z"/><path fill="#f6f6f7" fill-opacity=".3" d="M888 494c5 1 3-3 5-4v2l-2 3c-5 1-7-2-3-1"/><path fill="#e8e8eb" fill-opacity=".5" d="M807 526q1-3 4-2 1 6-4 2"/><path fill="#f6f6f7" fill-opacity=".1" d="M885 482q1-3 3-1l1 1q-3 2-4 0"/><path fill="#e8e8eb" fill-opacity=".6" d="M209 538zc2-4 5 3 1 2z"/><path fill="#dee3ed" fill-opacity=".3" d="M264 504zq0 2-4 1-1-1 3-1"/><path fill="#f6f6f7" fill-opacity=".6" d="M805 551v6z"/><path fill="#f6f6f7" fill-opacity=".8" d="M501 193q-1-4 2-6h1z"/></svg>