<svg xmlns="http://www.w3.org/2000/svg" width="1024" height="1024" viewBox="0 0 1024 1024"><path fill="#211d1e" d="M410 209q11 0 20 2c75 13 153 96 195 155q20 2 36 13 22 16 27 43 5 29-13 54c3 19 4 30 1 49 36 0 64-19 85-47-13-16-17-43 7-51l-3-44c0-15 39-16 49-15 12 0 29 1 38 9 4 3 1 22 1 28 8 4 8 5 10 14l-3 8q7 13-3 22 5 12-5 21l-1 8c-2 6-11 10-16 14-18 10-33 8-51 3l-15 19q-32 31-77 40h-22q-2 12-8 22a175 175 0 0 1-134 96c-43 6-86-6-120-32-32-25-55-60-60-100-24 6-43 24-42 51 0 8 3 21 8 28h18c13 2 36 12 33 28l-4 7c-7 4-17 1-24 0l8 15c4 7 8 16 2 23q-4 5-10 6-7 0-13-5-1 7-7 9c-10 5-17-2-21-10-15 11-25 0-26-16-1-19 5-30 18-44-13-27-16-56 0-82 13-24 33-34 58-40-9-10-13-18-10-32 3-13 15-23 26-30l20-39 20-29 15-22c31-47 49-94-5-133-8-7-27-15-2-16m407 183c6-1 33-4 34-11-4-9-38-12-46-11s-35 3-37 11c3 11 40 11 49 11m-49-5 3 26q15-5 31-6h17l15 2q3-3 8-5h1l6-1 2-16-9 4h-1l-12 2-1 1q-32 4-60-7m-107 37v1l7 18 5 16 2-6c3-5 4-18 3-23-3 1-3-12-4-14l-2-4q-5-12-16-21l-1-1-1-1-3-3c-3-3-10-5-12-6-5 1-1 4 1 8l6 9zm-309 53-3-1-2 6c-1 5-1 6 1 11v1l3-12zm82-255-11-2 5 5q3-1 6 3l1 1z"/><path fill="#5893ef" d="M378 455q20-7 40-13c3 58 78 84 116 41q14-14 17-34 0-4 2-6l4 15q14 35 50 44c20 5 44-1 59-16 3 26 0 56-11 80l-8 16-6 11c-25 36-63 60-105 68a155 155 0 0 1-167-84q-9-19-11-39c9-2 17 0 25-4 10-10 7-25-7-29-2 1-16-1-17-2-1-2 0-9 1-12v-2l1-4 1-3 7-24z"/><path fill="#3563d0" d="M358 538c9-2 17 0 25-4 6 22 21 44 37 60 58 60 152 63 212 3 3-4 11-13 15-15l-6 11c-25 36-63 60-105 68a155 155 0 0 1-167-84q-9-19-11-39M369 458l9-3-2 20v30c-2 1-16-1-17-2-1-2 0-9 1-12v-2l1-4 1-3z"/><path fill="#211d1e" d="M472 519c5 0 6 0 11 3l19 10q17 7 35 8 29 1 53-12 9-6 17-9 12 0 14 13c0 13-9 27-18 36-32 37-100 36-129-4-9-11-24-39-2-45"/><path fill="#ed4a49" d="M507 563c24-4 49 6 68 20a82 82 0 0 1-46 7c-15-1-35-9-45-22q11-4 23-5"/><defs><linearGradient id="a" x1="508.5" x2="442.2" y1="441.6" y2="221.1" gradientUnits="userSpaceOnUse"><stop offset="0" stop-color="#62a6ef"/><stop offset="1" stop-color="#74d1f1"/></linearGradient></defs><path fill="url(#a)" d="M434 222c64 17 124 74 164 125q-16-2-30 10-4 3-5 8v1h1c12-13 18-17 36-15l13 15q-44 9-58 52l-2 11c-2-1-5-14-6-18a67 67 0 0 0-129 18l-36 11-2 1-3 1q1-6 5-10c9-22 26-43 40-64 21-30 44-68 31-107q-8-21-25-36 3-1 6 3l1 1z"/><path fill="#3563d0" d="M382 432v8l-2 1-3 1q1-6 5-10"/><path fill="#211d1e" d="M497 348c10-1 23 4 29 13l3 5-2 1q-3-2-4-6c-12-12-22-11-36-8q-2-1-1-3z"/><path fill="#e2edf6" d="M479 380a57 57 0 1 1 12 113 57 57 0 0 1-12-113"/><path fill="#211d1e" d="M493 391q13 1 18 14c8 19 10 70-14 79-27 4-32-82-4-93"/><path fill="#e2edf6" d="m615 378 4-1 13 18q24 35 33 76-19 24-50 21-16-1-28-11-18-14-22-38c-4-33 17-61 50-65"/><path fill="#211d1e" d="M605 391c30-2 32 82 5 93-26 4-33-81-5-93"/><path fill="#73aff9" d="M318 622c12-2 35 4 40 14 12 18-8 19-20 15q-3-2-5 1c-1 3 13 23 15 31q-1 4-3 7-4 5-9 5c-17 0-17-24-21-28h-2v1c-1 2 4 15 5 17q3 4 2 8c-1 6-8 9-13 7-12-5-10-25-15-33h-1c-2 3 2 17 4 22-26 27-38-58 23-67"/><path fill="#5893ef" d="M786 429c17 3 25 3 42 1-2 7-2 8 2 14q-9 8-6 18c2 3 2 2 1 6q-4 6 0 13l-5 2-9 1c-10 0-23-1-30-8l-2-16c15-6 21-19 7-31"/><path fill="#73aff9" d="M769 430c11-1 19 0 22 12-2 10-7 12-15 16l2 19c10 10 38 13 49 6l9 4v1l-2 1c-26 16-66 4-78-24q-10-24 13-35"/><path fill="#5893ef" d="M770 420q0-3 2-3c16-9 43-8 60-5q0 6 2 12c-13 7-43 4-55 0l-6-2z"/><path fill="#ebf0f5" fill-opacity=".8" d="m646 397 5 4s2-4 0-4q-3-3-3-6h-4c1-2 7-3 7 0l5 1v-1q11 9 16 21l2 4c1 2 1 15 4 14 1 5 0 18-3 23v-8c-1-1-6-7-7-2l-7-18c6-1 1-6 1-4l-1 3z"/><path fill="#73aff9" d="M836 426q9-2 16 1c10 3 10 15 1 19-9 2-25 0-23-12q2-6 6-8"/><path fill="#73aff9" d="M832 446q10 4 22 4c1 0 2 8 1 9q-1 6-5 8c-6 2-17 1-21-4q-5-9 3-17M842 408c25-3 18 19 13 16l-18-2c-1 0-2-7-1-9q1-4 6-5M828 467q4 2 9 3l11 1c3 3-2 9-3 10-9 7-23-1-18-13z"/><path fill="#ebf0f5" fill-opacity=".2" d="M828 394zc4 1 3 1 6 4l-3 4q-1 3 1 5l-14 1h-17l2-1c3-2 11-1 15 0s3-3 5-5q5-1 4-7"/><path fill="none" d="m851 387-2 16-6 1q-5 0-5-3v-1c6 0 6 1 5-5q1-3-1-4z"/><path fill="#ebf0f5" fill-opacity=".8" d="M639 380c2 1 9 3 12 6l3 3q-3 3 1 1l1 1v1l-5-1c0-3-6-2-7 0h4q0 3 3 6c2 0 0 4 0 4l-5-4-6-9q3 2 6-3-5-2-7-5m9 16-3-4q-1 3 3 4"/><path fill="#ebf0f5" fill-opacity=".7" d="m645 392 3 4q-4 0-3-4"/><path fill="#e2edf6" d="M651 386c16 8 26 27 27 44-3 1-3-12-4-14l-2-4q-5-12-16-21l-1-1-1-1z"/><path fill="none" d="M668 443c1-5 6 1 7 2v8l-2 6z"/><path fill="#ebf0f5" fill-opacity=".6" d="M832 401c3 5 1-1 6-1v1q0 3 5 3h-1q-5 2-8 5l-15-2 14-1q-2-2-1-5"/><path fill="#ebf0f5" d="M840 395q2-4 3 0c1 6 1 5-5 5-5 0-3 6-6 1l3-4z"/><path fill="#73aff9" fill-opacity=".9" d="m423 220 11 2 1 7-1-1q-3-4-6-3z"/><path fill="none" d="m841 391-1 4-5 2c-3-3-2-3-6-4z"/><path fill="#ebf0f5" fill-opacity=".3" d="M347 482q0 4 4 0l-3 12v-1c-2-5-2-6-1-11"/><path fill="#ebf0f5" fill-opacity=".1" d="m349 476 3 1-1 5q-4 4-4 0z"/><path fill="#373338" d="m770 420 3 2 1 5-2-1v1q-2-3-2-7"/><path fill="#ebf0f5" d="m354 470-2 7-3-1z"/><path fill="#ebf0f5" fill-opacity=".8" d="m661 424 1-3c0-2 5 3-1 4z"/><path fill="#ebf0f5" fill-opacity=".3" d="M841 391zq2 1 1 4-1-4-3 0z"/><path fill="#ebf0f5" fill-opacity=".7" d="M655 390q-4 2-1-1z"/></svg>