<svg xmlns="http://www.w3.org/2000/svg" width="1024" height="1024" viewBox="0 0 1024 1024"><path fill="#202021" d="M523 171c31 70 81 133 124 196q41 58 65 125c13-15 21-25 28-44 7-22 9-40 8-62-22-10-15-26-27-43-7-10-27-15-22-29 6-18 28-11 38-1l7 5h1c2-4-5-48 0-59q3-6 9-8 8-3 15 2c11 6 6 24 9 34v1h1c5-10 4-25 12-33 10-9 28-3 27 11l-2 14-7 25c6-6 17-26 25-27 15-2 23 14 15 27l-23 31c-1 18-5 48-26 54q-1 20-5 39a175 175 0 0 1-76 112 183 183 0 0 1-129 182l3 51 17 6 8-3c24-6 49 7 58 30l3 6c7 23-11 33-29 37q-12 2-24 2-24-3-49-9c-19-4-44-4-48-28q-2-19 10-33c-2-15-1-35-4-50h-20l-1 20-3 31c8 9 13 24 9 35q-3 12-14 17c-9 5-76 17-88 17q-13 0-26-4c-17-5-27-16-21-35 10-32 36-44 67-33l20-6q0-25 2-52c-20-8-27-10-46-21q-65-43-83-120c-23-1-35-6-55-17-11-7-35-28-41-40-9-1-23-3-30-9q-6-8-5-18l-14-1q-8-2-11-8c-5-9-3-20 6-25q-5-2-7-8-3-8 0-15t10-9q-4-4-6-12-1-7 4-13 6-8 15-8l-1-26q1-4 6-7c20-11 95-14 108 6l-2 37c13-1 23 4 21 19-2 14-13 29-24 38l-2 26c-2 15 3 22-13 28q16 12 37 13 2-40 18-78 14-31 34-60c49-74 106-142 144-223M376 471c-2-10-3-15-1-25l-11-3c-25 47-33 100-17 151a178 178 0 0 0 144 123c6 2 17 2 24 3 82 5 162-43 186-124 15-52 3-107-23-153l-10 2-3 2-1 12q-4 36-36 51-25 12-52 3a63 63 0 0 1-42-71q-15-11-30 0v17c-5 54-71 77-110 41-12-11-12-16-18-29m216-74a58 58 0 1 0 14 115 58 58 0 0 0-14-115M459 502l6-2c22-10 27-43 18-62-7-16-24-27-40-18-30 17-27 72 7 82zm-34-110 25-37a439 439 0 0 0 73-152q-1 0-3 2l-1 1-16 28-37 58-70 97-24 39h8c13-21 21-27 45-36m-128 68-1 15c0 5-1 15-5 17a91 91 0 0 1-81-1l-3 3q-4 3-2 7l1 8c13 16 72 15 89 2q3-3 2-10v-4l2-22 1-15 6-80-9 3c-24 8-74 8-96-4l1 20q12 3 16 15l20-3c14-1 17 1 30-4 10 6 20 3 29 9l2 3zm-97-88c11 13 50 12 66 12 7-1 40-4 39-13-7-9-52-11-65-9-12 0-31 3-40 10m8 131v-7q13 6 27 9c8 1 25 1 33-1 5-1 14-1 18-4l6-2 2 1-3 4c-21 9-48 9-70 3q-7-3-13-3m42-63q7 4 17 6l1-23h1v22c8-1 8-2 15-5v-23l-15 5-19-5zm-30-9zh-4q2 3 3 1m44 23-6 2 5 2h-2l2 2-8-2-1 23 19 7 1-21 1-3v-1q6-1 11-3l3-2-1-2-16-5zm118 4zl9-18c8-12 17-29 26-40-23 9-38 33-36 58m43 328zc-22-6-41 13-45 33q-3 11 7 16 0-18 11-33 9-12 25-15zM246 450l-11-1q-5-1-8 2l3 1q4 0 8-2 2 0 3 4l5-3zm-7 30v-21l1-2c2 1 1 20 2 23l8-4v-7q-1-5 2-10v-7l-5 2-7 2h-7l-7-1c-9-1-6 1-6 8v14zm48-56 6-2q3-2 1-3l-7-2zm-9 57q-3 3 1 2c5-2 2-2-1-2m-78-45q-9-1-17 2l3 1 9 1c4-1-1-3-1-3zm11-4a1 1 0 1 0-1 3 1 1 0 0 0 1-3m-3 33 3 2 1-3h-1zm30-50-19 3q-2-1-1 3c-1 3 10 4 12 4l6 1h11l1-11zm16 0 11 3 4 3 13-5-14-7-1 1z"/><path fill="#fefefe" d="M778 295v-7q3 2 0 7"/><path fill="#5aaed8" d="M504 442q15-10 30 0c-4 32 11 60 42 71q27 9 52-3 32-15 36-51l1-12 3-2 10-2c26 46 38 101 23 153a178 178 0 0 1-186 124c-7-1-18-1-24-3-9-1-35-8-43-13l6 1h2q2 0 3 2 4 1 6-1l-4-2-3-1q-19-10-34-23c-38-31-62-75-66-124-2-36 5-53 18-85 6 13 6 18 18 29 39 36 105 13 110-41zm-30 268-6-3q1 5 6 3m120-151q7-3 8-10c1-13-14-8-19-6q-29 11-60 11a199 199 0 0 1-77-14q-10 3-6 12c4 9 17 12 26 15a196 196 0 0 0 128-8"/><path fill="#2966b4" d="m668 445 10-2c26 46 38 101 23 153a178 178 0 0 1-186 124c-7-1-18-1-24-3-9-1-35-8-43-13l6 1h2q2 0 3 2 4 1 6-1l-4-2-3-1q-19-10-34-23c-38-31-62-75-66-124l6 18c21 54 70 97 128 108 99 18 196-67 195-166 0-18-9-56-19-71M474 710l-6-3q1 5 6 3"/><path fill="#fefefe" fill-opacity=".5" d="m468 707 6 3q-5 2-6-3"/><path fill="#fefefe" d="m448 704 6 1h2q2 0 3 2 4 1 6-1l3 1q1 5 6 3l17 6v1c-9-1-35-8-43-13"/><path fill="#202021" d="M446 533q10 2 19 5 29 10 57 10 23-1 44-7c14-4 30-14 41-2q7 8 7 17c-1 22-15 41-30 56a97 97 0 0 1-117 9c-20-13-53-50-38-78q6-9 17-10m148 26q7-3 8-10c1-13-14-8-19-6q-29 11-60 11a199 199 0 0 1-77-14q-10 3-6 12c4 9 17 12 26 15a196 196 0 0 0 128-8"/><path fill="#5aaed8" d="M495 590c16-1 22 4 31 16l-7-13c21-7 43-1 58 15-8 6-12 9-21 13q-14 6-29 8-36 2-64-21 12-15 32-18M523 199l2 4 15 27c31 53 69 102 104 153q14 23 27 47l-12-3-9-12-5-6q-7-8-19-12-25-11-52-2-25 11-36 36c-15-6-23-7-38 0-13-32-42-44-75-39l25-37a439 439 0 0 0 73-152q-1 0-3 2z"/><path fill="#2966b4" d="m525 203 15 27c31 53 69 102 104 153q14 23 27 47l-12-3-9-12-5-6c0-6-63-96-71-109q-22-36-40-74c-3-5-9-18-9-23"/><path fill="#5aaed8" d="M757 258q9-2 11 6c2 17 2 38 3 55h9l7-30 7-26c3-6 13-7 16-2l1 6-4 16-11 39 10 3c5-7 24-38 29-40l6 1q2 1 3 4c4 12-20 31-24 43l-1 10q-2 17-9 30-7 10-18 11c-3 48-16 94-52 128q-9 10-22 16l-4-28 8-7c29-33 35-70 34-112-27-11-16-23-30-43-4-7-13-11-19-16-5-5 3-14 10-12 14 3 22 15 30 26q40 1 47 40c6-18-8-36-25-42l-16-4c-1-10-4-62-2-68q2-3 6-4M592 397a58 58 0 1 1 14 115 58 58 0 0 1-14-115m26 83c9-18 4-50-16-60-17-8-32 2-40 18-9 21-5 50 17 62l7 1q18 3 28-14z"/><path fill="#202021" d="m586 501-7-1c-22-12-26-41-17-62 8-16 23-26 40-18 20 10 25 42 16 60l-4 7q-10 17-28 14m32-27 1-9c2-16-7-39-24-42-20-3-31 17-34 33v8l1-4v-2q4-12 16-18 6-2 13 1c18 9 19 38 7 51l-9 8c15 1 25-13 29-26"/><path fill="#6e7a82" d="M561 460zl-1 4z"/><path fill="#fefefe" fill-opacity=".1" d="M561 460v-4l1 2z"/><path fill="#121618" d="M618 474v6l-4 7q-10 17-28 14-1 0 3-1c15 1 25-13 29-26"/><path fill="#5aaed8" d="M418 400a58 58 0 1 1-36 58h1l9-18c8-12 17-29 26-40m41 102 6-2c22-10 27-43 18-62-7-16-24-27-40-18-30 17-27 72 7 82z"/><path fill="#202021" d="M450 502c-34-10-37-65-7-82 16-9 33 2 40 18 9 19 4 52-18 62l-6 2zm5-2v-1c-18-10-21-37-8-52q12-14 27-2 6 6 9 13h1c1-5-3-16-6-20q-6-11-20-15h-4c-24 4-31 28-28 49v1c5 12 8 20 21 25z"/><path fill="#fefefe" fill-opacity=".1" d="M454 423h4q-2 0-2 2c-3 1-9 6-5 8 3 2 10 0 11-3 2-3-3-4-6-5q5 0 8 2 0 3-1 6c-6 3-6 4-13 3l-1 1q-2-4-2-7l6-5z"/><path fill="#fefefe" fill-opacity=".2" d="M456 425c3 1 8 2 6 5-1 3-8 5-11 3-4-2 2-7 5-8"/><path fill="#121618" d="M450 502h1l2-1q-12-2-19-11c-3-3-8-13-8-17 5 12 8 20 21 25l8 2c2 2 3 0 4 2z"/><path fill="#5aaed8" d="m546 753 37-11 2 39 18 6c-8 10-11 17-12 29l2 3q2-12 9-21 11-12 26-13c21-2 40 16 42 36q1 7-4 12c-8 8-22 10-34 10q-27-3-56-10-13-2-26-6c-18-6-13-29-2-40z"/><path fill="#224968" d="m591 816 2 3-1 2z"/><path fill="#5aaed8" d="m467 741 37 12-2 34q11 11 9 25c-1 15-15 17-27 19q-30 8-60 11h-20q-9-1-18-7 0-18 11-33 9-12 25-15l3-1c7 0 16 6 21 10q7 8 11 18l1-3q-1-13-11-24l19-6v-20z"/><path fill="#0a1a27" d="m457 814 1-3h1l-1 8z"/><path fill="#224968" d="M459 811v7l-1 1z"/><path fill="#5aaed8" d="M280 523h2q19 15 44 18l3 31q-14-1-26-5-33-14-55-42 15 1 32-2M216 453v26l23 4q7-1 13-6v5l22 9 16-6h1c-2 9-27 11-34 12q-23 2-45-9 6-11-1-21l1-3h-1l-3 1q0-2 3-4zM216 427c13 3 19 2 31 4v10l22 9-15 4v-6c-19-2-20-4-37 3q0-10-7-16a1 1 0 0 0 1-3zm4 4zh-4q2 3 3 1"/><path fill="#5aaed8" fill-opacity=".9" d="M217 430h4l-1 1q-1 2-3-1"/><path fill="#5aaed8" d="M187 467h15q6 3 7 9l1 3q-2 8-8 11h-1l-13 1c-11-3-13-19-3-24zM200 436q5 1 8 4t3 8c-1 14-11 14-22 12-11-1-14-14-6-22l3 1 9 1c4-1-1-3-1-3zM197 405c20 1 20 23 3 25q-5 1-11-2c-5-4-7-13-3-18q4-5 11-5"/><defs><linearGradient id="a" x1="254.5" x2="251.9" y1="504.1" y2="464" gradientUnits="userSpaceOnUse"><stop offset="0" stop-color="#fff" stop-opacity="0"/><stop offset="1" stop-color="#fff" stop-opacity="0"/></linearGradient></defs><path fill="url(#a)" d="M297 460h3l-1 15-2 22c-1 1-2-1-3 2l-2-1-6 2c-4 3-13 3-18 4l-33 1q-14-3-27-9l-1-2 3-3c19 13 61 14 81 1 4-2 5-12 5-17z"/><path fill="#5aaed8" d="M309 414q16-3 13 14-4 11-11 20l-6 7 2-25c1-3 0-14 2-16"/><path fill="#202021" d="M208 503v-7q13 6 27 9c8 1 25 1 33-1 5-1 14-1 18-4l6-2 2 1-3 4c-21 9-48 9-70 3q-7-3-13-3"/><path fill="#bddae4" d="m289 458 1 24-15 6h-2l1-21 1-3v-1q6-1 11-3zm-10 25c5-2 2-2-1-2q-3 3 1 2"/><path fill="#202021" d="m274 467 2 2-1 19h-2z"/><path fill="#121618" d="m274 467 1-3 1 5z"/><path fill="#bddae4" fill-opacity=".4" d="M278 481c3 0 6 0 1 2q-4 1-1-2"/><path fill="#5aaed8" d="m295 425-1 32-2-1c-4-3-15-5-20-7l15-7v-13z"/><defs><linearGradient id="b" x1="227.7" x2="233.1" y1="478" y2="460" gradientUnits="userSpaceOnUse"><stop offset="0" stop-color="#fff" stop-opacity="0"/><stop offset="1" stop-color="#fff" stop-opacity=".1"/></linearGradient></defs><path fill="url(#b)" d="m237 465 1-2v-1h1v18l-19-3v-14h1v1h2v-1h1l3 1 9 2z"/><defs><linearGradient id="c" x1="249.3" x2="239" y1="467.8" y2="464.9" gradientUnits="userSpaceOnUse"><stop offset="0" stop-color="#b1d9e5"/><stop offset="1" stop-color="#b3d5e3"/></linearGradient></defs><path fill="url(#c)" d="m240 456 7-2q2 2 5 2v3q-3 5-2 10v7l-8 4c-1-3 0-22-2-23z"/><path fill="#fefefe" fill-opacity=".2" d="m226 455 7 1h-4c-1 0 0 4 2 3q4-4 8 0-3-1-4 1-2 3 2 5l-1 1-9-2-3-8z"/><defs><linearGradient id="d" x1="220.9" x2="223.6" y1="459.5" y2="459.4" gradientUnits="userSpaceOnUse"><stop offset="0" stop-color="#fffffe" stop-opacity=".1"/><stop offset="1" stop-color="#fff" stop-opacity=".2"/></linearGradient></defs><path fill="url(#d)" d="M220 463c0-7-3-9 6-8l-2 1 3 8-3-1h-1v1h-2v-1z"/><path fill="#fefefe" d="M230 452q4 0 8-2 2 0 3 4-7 1-16-1l-3-1q3-1 5-1z"/><path fill="#fefefe" fill-opacity=".8" d="m235 505 33-1c-8 2-25 2-33 1"/><path fill="#fefefe" fill-opacity=".1" d="M227 451q3-3 8-2l11 1v1l-5 3q-1-4-3-4-4 2-8 2z"/><path fill="#bddae4" d="M250 469q-1-5 2-10v9q1 6-2 8z"/><path fill="#5aaed8" d="M183 438q8-3 17-2l-6 1s5 2 1 3v-2h-9v1z"/><path fill="#121618" d="m288 456 1 2-3 2q-5 1-11 3 6-3 13-7"/><path fill="#fefefe" fill-opacity=".1" d="M239 459q-4-4-8 0c-2 1-3-3-2-3h11v1zv1z"/><path fill="#fefefe" fill-opacity=".3" d="M237 465q-4-2-2-5 1-2 4-1v1-1 3h-1v1z"/><path fill="none" d="M205 501q-2-4 2-7l1 2v7c-3-1-1-1-2-2z"/><path fill="#202021" d="m263 458 12 4-12-2-2-2z"/><path fill="#fefefe" fill-opacity=".4" d="M520 205q2-2 3-2l-1 6-3-3z"/><path fill="#fefefe" fill-opacity=".5" d="m458 703 3 1-2 3q-1-2-3-2h-1z"/><path fill="#fefefe" d="m258 456 6-2-1 4z"/><path fill="#5aaed8" fill-opacity=".9" d="M186 439zh9v2z"/><path fill="#fefefe" fill-opacity=".3" d="m459 707 2-3 4 2q-2 2-6 1"/><path fill="#bddae4" fill-opacity=".1" d="m247 454 5-2v4q-3 0-5-2"/><path fill="#fefefe" fill-opacity=".4" d="M297 497v4c0-4 0-1-3-2 1-3 2-1 3-2"/><path fill="#6e7a82" d="m294 457-1 7-1-8z"/><path fill="#5aaed8" fill-opacity=".9" d="m208 465 3-1h1l-1 3z"/><path fill="#5aaed8" d="M210 435a1 1 0 1 1 0-3 1 1 0 0 1 0 3"/></svg>