<?xml version="1.0" encoding="utf-8" ?><svg xmlns="http://www.w3.org/2000/svg" xmlns:xlink="http://www.w3.org/1999/xlink" width="903" height="395" viewBox="0 0 903 395"><path fill="#79D2C1" transform="scale(0.587798 0.587798)" d="M1128.48 214.863C1135.32 214.817 1144.47 214.382 1150.98 215.564C1152.2 231.93 1151.35 262.623 1151.26 279.816C1151.08 312.671 1151.85 346.133 1151.51 378.832C1143.38 379.557 1131.15 379.44 1122.98 378.927C1122.62 374.822 1122.75 368.354 1122.71 364.072C1106.58 382.517 1085.02 383.915 1063.52 373.502C1059.05 370.6 1055.32 367.947 1051.51 364.111C1017.59 329.93 1036.15 257.742 1089.17 258.266C1104.3 258.415 1112.32 262.907 1122.66 273.389C1122.12 266.237 1121.46 222.81 1122.46 216.562C1124.59 214.724 1125.24 215.212 1128.48 214.863ZM1097.83 354.035C1100.92 353.271 1105.05 352.263 1107.65 350.551C1133.37 333.627 1125.7 280.974 1089.6 283.692C1051.28 291.378 1055.7 357.551 1097.83 354.035Z"/><path fill="#0B0E5D" transform="scale(0.587798 0.587798)" d="M275.529 211.815C293.111 210.282 324.842 216.676 338.254 228.872C335.793 235.995 330.794 248.196 327.262 254.745C313.146 247.259 300.1 240.853 283.647 240.261C270.001 239.771 248.355 242.845 247.504 260.373C246.751 275.868 263.917 279.889 275.798 282.824C305.829 290.243 345.565 297.24 343.771 336.831C342.064 376.34 302.398 384.933 269.814 383.744C250.364 382.691 224.495 376.631 209.858 363.031C212.685 355.936 216.243 346.071 220.424 339.747C221.988 337.383 225.955 340.393 228.602 342.036C245.589 352.585 262.113 357.646 282.319 356.405C288.719 356.31 303.227 353.187 306.789 347.394C325.493 316.642 266.97 313.913 249.158 306.747C229.362 298.784 215.663 290.52 214.063 266.783C213.187 253.845 217.514 241.094 226.081 231.36C239.012 216.737 256.989 212.878 275.529 211.815Z"/><path fill="#79D2C1" transform="scale(0.587798 0.587798)" d="M1292.5 259.925C1325.16 254.517 1356.02 276.617 1361.41 309.279C1366.8 341.941 1344.69 372.787 1312.02 378.165C1279.38 383.54 1248.56 361.443 1243.17 328.803C1237.78 296.162 1259.86 265.33 1292.5 259.925ZM1306.73 354.151C1344.22 345.529 1338.24 281.457 1299.43 283.749C1291.06 285.467 1283.52 288.721 1279.1 296.379C1265.17 320.549 1273.72 355.99 1306.73 354.151Z"/><path fill="#0B0E5D" transform="scale(0.587798 0.587798)" d="M502.257 257.532C530.262 253.077 569.646 264.883 570.334 296.907C570.59 308.818 572.852 369.619 570.201 378.794C566.097 381.206 547.712 380.152 541.994 379.961C541.563 376.469 541.606 370.148 541.534 366.42C521.578 385.877 489.795 387.947 468.509 369.674C462.333 362.562 459.026 355.171 459.095 345.738C459.408 302.713 511.407 309.556 539.31 309.536C539.729 277.991 512.828 279.576 489.715 285.55C484.124 286.995 479.157 290.292 474.442 293.53C472.592 289.635 465.513 275.506 465.499 272.841C465.449 263.683 496.466 258.218 502.257 257.532ZM523.108 358.779C539.175 351.473 539.637 345.049 539.493 328.587C528.122 328.524 515.212 328.175 503.966 328.663C476.115 333.696 487.053 367.33 519.343 359.775C520.606 359.475 521.862 359.143 523.108 358.779Z"/><path fill="#0B0E5D" transform="scale(0.587798 0.587798)" d="M651.591 345.629C662.834 323.764 671.023 297.222 681.484 274.748C683.775 269.826 684.966 265.281 687.958 260.495C690.702 258.151 713.92 258.059 716.61 259.994C717.192 264.22 675.167 360.078 669.021 374.306C663.794 386.164 658.342 400.666 650.364 410.779C634.408 431.004 600.03 432.06 580.814 415.804C584.103 408.336 587.354 401.026 592.235 394.455C612.615 405.048 627.865 404.834 636.122 380.681C631.058 367.081 583.944 265.645 585.362 260.503C590.095 258.808 603.106 259.154 608.758 259.127C609.585 259.095 614.25 259.609 615.356 259.71C628.256 285.193 639.259 319.3 651.591 345.629Z"/><path fill="#79D2C1" transform="scale(0.587798 0.587798)" d="M1005.12 259.536C1012.6 258.935 1025.81 259.261 1033.32 259.653C1030.33 269.295 1023.39 284.858 1019.4 294.52C1010.62 315.958 1001.71 337.345 992.683 358.679C986.198 374.441 978.913 395.438 968.457 408.515C953.858 426.775 921.406 427.16 904.257 412.056C906.789 405.728 911.748 396.391 915.273 390.641C935.203 403.198 946.419 400.686 956.104 378.453C938.338 342.153 923.998 301.552 907.174 264.645C906.22 262.552 906.483 261.597 907.174 259.593C916.698 259.425 926.223 259.402 935.747 259.525C938.438 263.66 944.003 278.756 946.321 284.181C954.49 303.306 961.885 323.96 970.558 342.793C974.145 335.338 978.416 323.751 981.688 315.808L1005.12 259.536Z"/><path fill="#0B0E5D" transform="scale(0.587798 0.587798)" d="M768.273 270.001C774.533 266.013 781.406 260.3 787.905 256.062C808.498 242.633 826.434 237.003 850.334 234.065L850.562 236.008L850.402 242.32C825.002 243.857 810.111 250.216 789.702 264.389C814.696 254.738 838.844 247.324 865.822 250.036C871.949 250.652 882.715 250.674 887.433 256.185C890.752 261.035 890.188 276.474 890.314 282.655C890.313 284.794 890.633 287.004 889.465 288.617C884.769 286.658 869.79 280.513 865.222 279.935C847.508 277.692 825.423 278.925 808.971 286.306C790.64 294.531 780.323 301.321 771.561 318.946C764.762 332.623 770.919 373.272 767.174 379.127C763.082 380.479 740.616 380.507 736.683 379.281C733.743 376.332 734.617 337.975 734.93 331.632C734.728 326.386 734.853 320.386 734.839 315.078L736.446 313.329C746.159 293.829 753.917 285.668 768.273 270.001Z"/><path fill="#79D2C1" transform="scale(0.587798 0.587798)" d="M768.273 270.001C774.533 266.013 781.406 260.3 787.905 256.062C808.498 242.633 826.434 237.003 850.334 234.065L850.562 236.008L850.402 242.32C825.002 243.857 810.111 250.216 789.702 264.389C814.696 254.738 838.844 247.324 865.822 250.036C871.949 250.652 882.715 250.674 887.433 256.185C890.752 261.035 890.188 276.474 890.314 282.655C883.101 277.285 869.821 273.132 861.07 271.253C819.948 262.427 771.937 277.394 746.493 311.768C745.853 312.633 745.223 313.505 744.602 314.383C741.695 314.494 738.757 314.986 736.446 313.329C746.159 293.829 753.917 285.668 768.273 270.001Z"/><path fill="#79D2C1" transform="scale(0.587798 0.587798)" d="M734.839 315.078L736.446 313.329C738.757 314.986 741.695 314.494 744.602 314.383C740.656 320.184 738.098 325.418 734.93 331.632C734.728 326.386 734.853 320.386 734.839 315.078Z"/><path fill="#0B0E5D" transform="scale(0.587798 0.587798)" d="M375.629 227.431C382.035 227.304 399.005 225.776 403.281 229.014C406.424 233.108 405.043 250.878 405.004 257.322C416.078 257.222 427.153 257.228 438.227 257.34C438.283 257.721 438.332 258.103 438.373 258.487C441.644 292.025 433.269 283.365 404.953 283.03C404.99 295.952 402.922 338.835 406.888 348.277C408.25 351.521 410.564 354.302 413.891 355.633C421.564 358.701 430.516 354.683 437.526 351.641C439.919 356.903 442.588 364.679 444.685 370.243L445.29 373.136C443.476 380.338 420.307 382.646 414.151 382.556C403.103 382.394 392.576 380.114 384.58 372.087C379.972 367.389 376.712 361.538 375.141 355.148C372.39 344.385 373.522 297.242 373.568 283.441C368.379 283.349 356.499 284.47 352.609 282.279C352.18 281.307 351.956 280.665 351.924 279.593C351.165 254.263 349.888 257.091 373.556 257.227C373.639 250.129 372.022 231.856 375.629 227.431Z"/><path fill="#79D2C1" transform="scale(0.587798 0.587798)" d="M1237.6 258.957C1240.45 258.714 1241.1 258.703 1243.92 259.115C1246.09 261.651 1244.96 281.49 1244.86 286.353C1219.73 286.696 1207.28 294.734 1206.87 321.753C1206.59 340.481 1207.89 359.994 1207.08 378.632C1201.1 379.156 1183.1 380.752 1178.73 377.36L1178.41 374.437L1178.35 301.11C1178.32 293.369 1177.71 267.023 1179.32 260.763C1183.88 258.462 1199.73 259.556 1205.49 259.7C1206.51 265.892 1206.67 270.578 1206.62 276.805C1214.92 265.68 1224.15 261.317 1237.6 258.957Z"/><path fill="#0B0E5D" transform="scale(0.587798 0.587798)" d="M843.309 286.04C857.187 285.073 871.534 287.108 884.174 293.017C884.424 321.002 884.891 351.534 884.185 379.413C877.06 379.535 857.107 381.519 852.75 378.51C849.289 374.195 850.385 364.692 850.509 358.875L850.526 308.309C829.152 308.117 807.745 308.484 786.339 308.23C801.47 292.742 822.535 287.789 843.309 286.04Z"/><path fill="#0B0E5D" transform="scale(0.587798 0.587798)" d="M734.839 315.078L734.761 255.126C734.758 247.463 734.181 223.529 736.009 217.378C739.571 215.351 763.413 215.629 766.8 217.46C768.894 221.256 768.051 261.93 768.273 270.001C753.917 285.668 746.159 293.829 736.446 313.329L734.839 315.078Z"/><path fill="#0B0E5D" transform="scale(0.587798 0.587798)" d="M850.334 234.065C850.289 230.427 849.689 220.076 851.435 217.656C857.424 215.008 880.223 215.431 886.767 217.742C890.807 220.866 889.085 229.646 888.549 234.214C885.697 238.172 884.545 240.251 879.633 241.172C870.001 241.405 859.964 241.506 850.402 242.32L850.562 236.008L850.334 234.065Z"/><path fill="#25818F" transform="scale(0.587798 0.587798)" d="M850.562 236.008L866.268 236.71C871.504 241.32 872.557 240.924 879.633 241.172C870.001 241.405 859.964 241.506 850.402 242.32L850.562 236.008Z"/></svg>