<?xml version="1.0" encoding="utf-8" ?><svg xmlns="http://www.w3.org/2000/svg" xmlns:xlink="http://www.w3.org/1999/xlink" width="1152" height="896" viewBox="0 0 1152 896"><defs><linearGradient id="gradient_0" gradientUnits="userSpaceOnUse" x1="575.70117" y1="762.51807" x2="578.01123" y2="133.45515"><stop offset="0" stop-color="#081879"/><stop offset="1" stop-color="#254CD6"/></linearGradient></defs><path fill="url(#gradient_0)" d="M55.1708 372.596C54.3885 360.768 54.5808 343.351 54.4406 331.144C54.108 303.285 54.0258 275.423 54.1937 247.562C54.3613 214.904 58.9211 187.72 83.1813 163.785C98.2726 149.052 117.373 139.095 138.094 135.16C156.017 131.777 181.134 132.777 199.869 133.011C218.738 133.213 237.609 133.26 256.479 133.152C355.757 132.952 455.036 133.253 554.311 134.055L860.148 133.949L945.978 133.814C992.962 133.747 1035.22 129.525 1070.78 166.024C1098.9 194.878 1099.01 221.16 1098.99 258.714L1099.12 412.093C1099.17 433.141 1098.29 459.903 1099.08 480.416C1099.97 484.177 1100.05 511.931 1099.73 516.64C1100 542.55 1099.74 568.691 1100.05 594.439C1100.63 642.883 1108 693.197 1070.62 730.818C1047.18 754.421 1024.25 762.385 991.293 762.704L871.225 762.781L824.973 762.807C817.975 762.799 808.096 763.065 801.412 762.664C798.883 761.172 782.752 762.858 778.133 762.037L778.03 761.238L775.483 760.641C778.693 760.349 806.324 758.635 807.004 758.242C797.912 758.041 787.339 759.564 779.058 759.183C759.221 758.271 731.471 762.436 712.431 758.872C701.887 758.632 640.871 758.597 634.426 761.953C603.17 762.381 572.074 761.759 540.867 761.814L308.066 762.166L212.596 762.258C188.654 762.354 164.694 763.398 140.937 760.04C102.497 754.607 68.6379 724.757 59.2739 686.927C52.4547 659.378 55.2564 628.359 55.2671 599.855L55.4364 486.349C55.5115 465.092 56.2431 440.566 55.3109 419.675C55.0183 403.984 54.9716 388.289 55.1708 372.596Z"/><path fill="#30C1D2" d="M55.1708 372.596C54.3885 360.768 54.5808 343.351 54.4406 331.144C54.108 303.285 54.0258 275.423 54.1937 247.562C54.3613 214.904 58.9211 187.72 83.1813 163.785C98.2726 149.052 117.373 139.095 138.094 135.16C156.017 131.777 181.134 132.777 199.869 133.011C218.738 133.213 237.609 133.26 256.479 133.152C355.757 132.952 455.036 133.253 554.311 134.055C556.338 134.37 557.984 134.643 560.047 134.773C547.366 136.163 528.671 135.385 515.308 135.885L382.732 139.568C360.577 142.765 353.222 141.407 331.258 141.679C322.789 141.986 314.079 142.419 305.624 142.313C278.892 141.465 247.336 147.05 222.051 155.544C129.048 186.131 71.2244 261.283 60.1046 357.144C59.7648 360.073 57.7321 374.898 56.0025 376C55.5198 374.603 55.4219 374.009 55.1708 372.596Z"/><path fill="#1C88BD" d="M331.258 141.679C349.965 138.188 363.751 138.851 382.732 139.568C360.577 142.765 353.222 141.407 331.258 141.679Z"/><path fill="#30C1D2" d="M807.004 758.242C811.505 757.602 816.588 757.484 821.123 757.238C853.271 755.495 885.311 754.09 916.506 745.321C1001.24 722.157 1066.88 655.078 1088.19 569.868C1089.95 562.906 1096.99 519.285 1099.07 517.229C1099.28 517.022 1099.51 516.837 1099.73 516.64C1100 542.55 1099.74 568.691 1100.05 594.439C1100.63 642.883 1108 693.197 1070.62 730.818C1047.18 754.421 1024.25 762.385 991.293 762.704L871.225 762.781L824.973 762.807C817.975 762.799 808.096 763.065 801.412 762.664C798.883 761.172 782.752 762.858 778.133 762.037L778.03 761.238L775.483 760.641C778.693 760.349 806.324 758.635 807.004 758.242Z"/><path fill="#1C88BD" d="M1099.08 480.416C1099.97 484.177 1100.05 511.931 1099.73 516.64C1099.51 516.837 1099.28 517.022 1099.07 517.229C1096.99 519.285 1089.95 562.906 1088.19 569.868C1066.88 655.078 1001.24 722.157 916.506 745.321C885.311 754.09 853.271 755.495 821.123 757.238C816.588 757.484 811.505 757.602 807.004 758.242C797.912 758.041 787.339 759.564 779.058 759.183C759.221 758.271 731.471 762.436 712.431 758.872C724.414 756.656 748.263 756.812 761.33 755.969C819.534 752.215 875.769 756.08 931.7 736.42C1016.68 707.558 1075.13 633.042 1089.13 545.164C1090.49 536.631 1096.74 484.482 1099.08 480.416Z"/><path fill="#1C88BD" d="M222.051 155.544C247.336 147.05 278.892 141.465 305.624 142.313C289.432 146.778 269.886 147.372 252.748 151.018C248.016 152.025 229.76 156.567 227.416 156.828C220.878 158.553 213.959 161.411 207.658 163.937C161.005 182.685 121.825 216.276 96.1723 259.517C82.0296 284.189 71.9305 310.968 66.2588 338.835C64.8246 345.978 63.7053 353.18 62.9041 360.422C62.0927 367.775 58.4886 416.214 56.0293 419.998L55.3109 419.675C55.0183 403.984 54.9716 388.289 55.1708 372.596C55.4219 374.009 55.5198 374.603 56.0025 376C57.7321 374.898 59.7648 360.073 60.1046 357.144C71.2244 261.283 129.048 186.131 222.051 155.544Z"/><path fill="#30C1D2" d="M284.623 337.17C307.055 336.136 407.03 340.259 406.26 373.432C405.057 425.228 400.046 501.654 352.694 533.691C327.54 550.711 283.791 550.279 254.756 544.344C233.037 539.006 219.973 526.689 207.631 508.954C185.204 510.451 166.802 509.978 148.308 494.178C136.996 484.563 130.007 470.818 128.902 456.014C127.874 443.139 132.089 430.393 140.591 420.669C151.412 408.295 164.556 405.095 180.084 403.963C179.872 393.538 176.122 368.226 184.547 361.394C209.402 341.241 254.243 338.057 284.623 337.17Z"/><path fill="#1534AA" d="M278.043 346.713C306.038 345.335 361.105 347.157 385.469 364.779C387.785 366.453 390.047 370.073 390.062 373.02C390.073 375.115 388.873 377.816 387.352 379.162C370.985 393.642 327.618 397.191 307.871 397.746C278.687 398.557 226.652 397.745 199.753 380.492C197.805 379.016 196.163 376.133 195.992 373.833C195.605 368.611 199.624 364.6 204.47 362.015C226.164 350.442 254.154 348.167 278.043 346.713Z"/><path fill="#1C88BD" d="M276.927 354.59C293.488 352.728 375.308 356.233 380.771 372.99C378.08 377.932 366.659 379.969 361.514 380.531C342.84 382.57 324.6 376.901 306.761 372.181C269.702 364.385 248.838 367.855 213.432 379.112C209.24 377.475 207.572 376.499 203.903 373.914C213.748 358.674 260.294 355.599 276.927 354.59Z"/><path fill="#62CDD2" d="M386.868 393.126C390.91 398.226 383.715 445.922 381.595 454.606C375.367 480.122 365.422 505.891 342.358 520.75C338.141 523.467 334.767 523.67 330.089 522.552C324.114 515.316 330.753 509.86 334.282 502.316C348.68 471.543 348.383 437.184 348.189 404.624C364.64 401.004 371.108 399.837 386.868 393.126Z"/><path fill="#1534AA" d="M174.105 426.521L182.086 426.212C183.023 443.786 190.519 470.787 196.633 487.233C189.178 487.86 183.319 487.088 176.218 485.01C173.973 484.125 171.782 483.108 169.658 481.962C145.129 468.631 144.24 434.476 174.105 426.521Z"/><path fill="#1534AA" d="M196.768 400.431C205.492 399.717 204.632 406.557 205.276 413.334C206.326 424.389 207.212 435.457 209.42 446.36C211.22 455.25 214.477 463.631 216.308 472.484C216.869 475.252 215.851 477.128 214.291 479.282C213.133 479.349 211.203 479.422 210.292 478.635C204.554 473.675 201.279 456.033 199.843 448.477C197.26 434.882 194.287 417.772 195.022 403.98C195.071 403.068 196.263 401.19 196.768 400.431Z"/><path fill="#1534AA" d="M217.227 486.408C218.222 486.468 221.03 486.622 221.602 487.434C227.504 495.911 233.149 503.692 240.694 510.881C244.807 514.799 248.352 518.069 244.508 523.39C235.418 522.698 218.538 502.886 215.505 494.267C214.266 490.745 214.866 489.036 217.227 486.408Z"/><path fill="#FEFEFE" d="M579.459 387.182C607.49 385.017 627.093 406.007 630.677 432.803C634.935 464.64 625.861 501.19 588.828 506.299C544.712 511.547 529.577 465.224 537.361 429.499C542.583 405.536 554.552 390.418 579.459 387.182Z"/><path fill="#1534AA" d="M579.762 408.465C593.569 407.728 602.874 414.857 606.517 428.065C611.699 446.854 609.992 478.665 587.659 485.299C572.762 487.755 563.484 477.976 560.186 464.397C555.631 445.639 557.087 414.336 579.762 408.465Z"/><path fill="#FEFEFE" d="M692.799 387.203C745.018 383.883 755.323 458.522 729.348 491.191C721.145 501.508 710.429 505.317 697.688 506.55C686.765 507.378 675.926 504.096 667.298 497.347C640.862 476.304 642.161 427.102 661.762 402.016C669.311 392.355 681.01 388.285 692.799 387.203Z"/><path fill="#1534AA" d="M691.718 408.466C710.16 407.806 717.589 419.306 719.636 436.423C721.921 455.528 720.166 478.26 698.96 485.3C668.006 491.965 664.489 437.349 676.218 420.004C681.047 412.863 683.501 410.658 691.718 408.466Z"/><path fill="#FEFEFE" d="M844.301 418.075C844.858 418.019 845.417 417.989 845.977 417.985C858.294 417.944 865.607 424.743 873.625 432.959C875.205 431.271 876.92 429.652 878.465 427.963C889.537 415.859 913.117 414.252 924.465 427.034C939.251 443.688 934.863 473.151 935.186 493.845C935.248 497.78 933.663 501.87 930.672 504.379C928.702 506.249 923.469 507.493 921.348 506.924C901.52 500.977 920.059 453.017 907.114 443.005C886.513 427.073 875.888 450.069 877.518 468.294C877.988 473.559 877.185 486.385 876.931 491.168C876.829 504.957 870.858 509.209 858.254 504.309C850.134 484.794 860.673 464.326 851.755 445.252C847.733 436.65 837.288 436.465 830.586 441.051C814.154 452.298 824.518 480.595 820.359 497.152C818.867 503.094 815.085 508.588 808.338 506.813C805.146 505.99 802.435 503.886 800.847 500.997C799.823 499.1 799.216 496.893 798.983 494.756C798.021 485.97 797.308 433.618 799.292 426.86C800.19 423.798 802.098 420.909 804.997 419.427C807.292 418.269 809.958 418.088 812.388 418.924C817.618 420.694 819.572 424.728 821.818 429.194C829.569 422.575 834.186 419.625 844.301 418.075Z"/><path fill="#FEFEFE" d="M497.703 387.589C511.632 386.487 513.094 393.124 513.084 405.357C513.076 414.615 512.921 423.988 512.924 433.248L512.841 472.588C512.817 480.145 512.708 487.31 512.54 495.236C512.306 506.234 501.418 509.759 493.076 504.06C489.165 501.388 489.195 494.192 488.988 489.513L489.099 415.628C483.097 418.202 473.155 423.772 466.796 420.739C462.385 419.264 459.665 409.97 462.627 406.574C468.961 399.314 488.917 390.179 497.703 387.589Z"/><path fill="#FEFEFE" d="M964.089 376.352C966.65 376.176 969.638 376.089 972.13 376.793C973.946 377.306 975.739 378.389 976.647 380.098C981.229 388.723 980.552 491.132 977.236 502.27C974.756 504.673 974.212 504.983 971.151 506.628C969.195 506.849 966.918 506.888 964.964 506.566C962.368 506.138 960.084 504.876 958.67 502.605C954.371 495.695 955.108 392.34 957.699 382.665C958.61 379.264 961.246 377.938 964.089 376.352Z"/><path fill="#62CDD2" d="M712.431 758.872C731.471 762.436 759.221 758.271 779.058 759.183C787.339 759.564 797.912 758.041 807.004 758.242C806.324 758.635 778.693 760.349 775.483 760.641L778.03 761.238L778.133 762.037C782.752 762.858 798.883 761.172 801.412 762.664C796.085 763.157 783.456 762.797 777.357 762.795C761.952 762.837 746.547 762.795 731.143 762.668C724.306 762.768 717.469 762.748 710.633 762.608C699.674 763.123 684.692 762.384 673.282 762.534C665.008 762.644 641.723 763.137 634.426 761.953C640.871 758.597 701.887 758.632 712.431 758.872Z"/></svg>