<?xml version="1.0" encoding="utf-8" ?><svg xmlns="http://www.w3.org/2000/svg" xmlns:xlink="http://www.w3.org/1999/xlink" width="1317" height="1024" viewBox="0 0 1317 1024"><defs><linearGradient id="gradient_0" gradientUnits="userSpaceOnUse" x1="576.35999" y1="761.95215" x2="577.76154" y2="133.49387"><stop offset="0" stop-color="#0B1877"/><stop offset="1" stop-color="#234CD8"/></linearGradient></defs><path fill="url(#gradient_0)" transform="scale(1.14286 1.14286)" d="M55.2594 379.911C54.6712 333.964 54.3905 288.013 54.4173 242.062C54.6208 212.383 62.4441 184.55 84.2507 163.607C99.6246 148.843 122.501 136.86 143.652 134.574C163.888 132.386 186.327 132.978 206.628 133.078L294.065 133.337L619.803 133.965L876.96 133.591L953.262 133.46C973.072 133.413 997.226 132.345 1016.35 136.12C1036.67 140.123 1055.35 150.031 1070.06 164.605C1094.81 189.346 1099.75 212.537 1099.68 245.94L1099.59 403.603L1099.57 452.22C1099.57 458.491 1100.03 470.085 1099.6 475.885C1099.87 490.408 1099.56 504.436 1099.56 518.92C1099.96 547.424 1100.15 575.93 1100.14 604.436C1100.17 630.378 1102.72 669.352 1094.35 692.901C1078.56 737.334 1037.33 763.336 990.934 762.69C954.589 762.184 919.272 762.711 883.739 762.674L633.109 762.006L336.984 762.467L223.078 762.547C202.848 762.565 182.525 762.766 162.354 762.679C131.249 762.495 104.774 752.639 83.0457 730.345C54.5032 701.059 55.0102 674.375 55.0711 636.465L55.0963 589.551C54.843 535.376 55.0224 481.199 55.6345 427.027C54.7625 412.524 55.2079 394.543 55.2594 379.911Z"/><path fill="#31BFD9" transform="scale(1.14286 1.14286)" d="M55.2594 379.911C54.6712 333.964 54.3905 288.013 54.4173 242.062C54.6208 212.383 62.4441 184.55 84.2507 163.607C99.6246 148.843 122.501 136.86 143.652 134.574C163.888 132.386 186.327 132.978 206.628 133.078L294.065 133.337L619.803 133.965C613.416 136.949 579.955 136.028 570.594 136.105L509.166 136.912L421.092 138.671C405.823 139.058 389.942 139.862 374.759 140.038C365.377 137.763 338.717 141.007 328.075 141.479C315.365 142.042 301.69 141.674 289.05 142.765C247.806 146.146 208.142 157.385 172.476 178.386C117.73 210.622 81.4171 263.813 66.3607 325.113C61.9888 342.912 59.6697 362.055 57.3433 380.223C57.166 381.608 57.0096 382.758 56.0708 383.781C55.5761 382.228 55.4939 381.538 55.2594 379.911Z"/><path fill="#31BFD9" transform="scale(1.14286 1.14286)" d="M689.916 759.297C694.58 759.955 701.116 759.425 706.011 759.538C737.176 760.258 769.101 758.579 800.214 757.706C823.89 757.042 849.041 755.365 872.372 753.133C975.773 743.24 1062.17 672.019 1087.65 570.686C1091.55 555.952 1093.83 541.431 1096.3 526.434C1096.69 524.108 1097.86 515.182 1098.79 514.031C1098.89 515.891 1099.18 517.088 1099.56 518.92C1099.96 547.424 1100.15 575.93 1100.14 604.436C1100.17 630.378 1102.72 669.352 1094.35 692.901C1078.56 737.334 1037.33 763.336 990.934 762.69C954.589 762.184 919.272 762.711 883.739 762.674L633.109 762.006L630.493 761.509L630.629 761.158C635.681 759.562 682.129 759.247 689.916 759.297Z"/><path fill="#1F8FC0" transform="scale(1.14286 1.14286)" d="M689.916 759.297C693.412 758.663 702.259 758.738 706.458 758.576L741.001 757.1L805.803 754.235C866.431 751.927 915.932 749.831 970.447 719.344C1040.6 680.111 1078.5 615.675 1091.11 537.65C1093.06 525.629 1094.8 514.448 1096.07 502.254C1096.57 497.403 1097.78 479.351 1098.8 475.772L1099.6 475.885C1099.87 490.408 1099.56 504.436 1099.56 518.92C1099.18 517.088 1098.89 515.891 1098.79 514.031C1097.86 515.182 1096.69 524.108 1096.3 526.434C1093.83 541.431 1091.55 555.952 1087.65 570.686C1062.17 672.019 975.773 743.24 872.372 753.133C849.041 755.365 823.89 757.042 800.214 757.706C769.101 758.579 737.176 760.258 706.011 759.538C701.116 759.425 694.58 759.955 689.916 759.297Z"/><path fill="#1F8FC0" transform="scale(1.14286 1.14286)" d="M55.2594 379.911C55.4939 381.538 55.5761 382.228 56.0708 383.781C57.0096 382.758 57.166 381.608 57.3433 380.223C59.6697 362.055 61.9888 342.912 66.3607 325.113C81.4171 263.813 117.73 210.622 172.476 178.386C208.142 157.385 247.806 146.146 289.05 142.765C301.69 141.674 315.365 142.042 328.075 141.479C338.717 141.007 365.377 137.763 374.759 140.038L374.083 140.205C359.79 143.681 331.465 141.473 316.124 142.886C287.959 145.48 260.435 148.151 232.973 155.557C177.554 170.286 129.812 205.539 99.4276 254.166C75.6519 292.625 64.0871 335.176 60.3832 379.999C59.8031 387.02 57.7095 423.046 55.6345 427.027C54.7625 412.524 55.2079 394.543 55.2594 379.911Z"/><path fill="#31BFD9" transform="scale(1.14286 1.14286)" d="M286.723 307.374C322.422 306.777 360.663 309.72 394.178 323.073C417.066 332.192 414.978 340.291 411.419 362.535C410.495 368.309 409.391 374.492 408.446 380.341L399.097 439.476L389.645 499.097C387.837 510.733 385.738 527.649 382.601 538.452C379.709 548.485 374.538 557.715 367.491 565.421C347.9 586.869 321.128 593.333 293.362 594.511C266.315 594.857 238.763 589.338 218.116 570.664C209.121 562.596 202.35 552.351 198.454 540.913C194.941 530.61 193.173 515.428 191.447 504.284L183.249 451.797L172.31 384.029C170.035 369.995 166.722 352.185 166.061 338.315L166.25 337.953L166.573 337.354C180.106 311.748 259.93 308.034 286.723 307.374Z"/><path fill="#1735AD" transform="scale(1.14286 1.14286)" d="M184.869 360.1C243.167 382.224 337.053 379.678 395.712 359.96C390.063 406.571 380.923 453.101 374.125 499.588C372.371 511.578 370.632 524.223 367.387 535.878C364.923 542.748 361.324 549.216 356.529 554.727C329.002 586.368 260.068 587.407 229.469 560.468C221.887 553.772 216.211 545.189 213.019 535.59C210.109 527.009 208.469 513.615 207.032 504.302L199.956 458.682L190.245 398.534C188.337 386.699 185.562 371.892 184.869 360.1Z"/><path fill="#31BFD9" transform="scale(1.14286 1.14286)" d="M232.108 422.06C236.425 421.381 244.875 421.66 249.006 422.374C293.047 429.985 322.965 463.615 369.836 442.457C367.556 459.165 365.05 475.842 362.32 492.483C358.521 516.56 359.313 536.803 339.221 553.616C311.456 571.43 271.704 572.375 243.36 555.226C223.544 543.241 223.19 521.998 219.632 502.037C215.391 478.242 213.333 453.272 208.351 429.798C215.687 424.861 223.487 423.065 232.108 422.06Z"/><path fill="#1735AD" transform="scale(1.14286 1.14286)" d="M333.747 478.567C345.803 478.897 342.185 485.892 342.85 493.785C345.58 526.199 330.091 543.76 298.858 549.019C294.328 549.391 289.219 548.419 288.047 543.234C288.463 540.732 290.461 538.313 292.738 537.694C302.953 534.92 313.106 534.43 321.292 526.485C332.484 515.622 329.898 497.845 330.251 483.51C331.356 481.627 332.432 480.288 333.747 478.567Z"/><path fill="#1735AD" transform="scale(1.14286 1.14286)" d="M272.68 323.134C304.765 320.463 370.235 325.299 397.962 341.581C371.069 355.491 338.146 357.966 308.262 359.922C272.832 360.396 212.015 359.667 182.132 341.243C207.17 327.657 244.636 324.623 272.68 323.134Z"/><path fill="#FEFEFE" transform="scale(1.14286 1.14286)" d="M686.189 387.187C738.172 381.521 750.154 452.816 728.032 486.903C720.204 498.966 708.937 504.187 695.313 506.753C683.833 506.983 670.616 505.357 661.515 497.734C636.475 476.761 636.056 428.407 654.956 403.465C662.869 393.023 673.784 388.663 686.189 387.187Z"/><path fill="#1735AD" transform="scale(1.14286 1.14286)" d="M687.363 407.906C715.193 407.753 718.187 437.552 714.205 458.794C711.655 472.397 707.837 481.53 693.775 485.663C677.793 487.142 668.194 476.678 665.89 461.741C662.881 442.235 663.566 412.589 687.363 407.906Z"/><path fill="#FEFEFE" transform="scale(1.14286 1.14286)" d="M871.616 432.588C872.53 431.581 873.456 430.585 874.394 429.6C887.16 416.263 907.649 413.035 922.248 426.248C934.112 438.318 933.987 458.686 933.264 474.672C932.773 485.541 937.393 507.59 921.152 506.925C918.116 506.802 915.268 505.419 913.294 503.108C900.46 488.26 925.659 438.055 891.641 438.195C871.194 438.28 875.23 477.011 875.591 490.79C875.291 495.067 873.68 502.573 870.62 505.323C862.685 511.49 857.075 506.845 854.059 498.264C848.857 483.462 859.544 454.701 848.8 443.253C838.907 432.711 821.83 440.806 819.781 455.009C817.588 466.69 819.795 478.525 819.504 490.406C819.099 506.969 807.922 513.635 796.499 499.774C796.286 483.458 796.229 467.14 796.327 450.822C796.388 442.288 796.178 431.307 797.281 423.014C806.493 414.236 814.761 418.608 819.613 428.734C828.195 421.247 831.031 419.121 842.708 418.146C844.189 418.166 845.669 418.223 847.147 418.317C858.54 419.131 864.422 424.324 871.616 432.588Z"/><path fill="#FEFEFE" transform="scale(1.14286 1.14286)" d="M553.332 388.21C553.679 388.186 554.025 388.165 554.372 388.146C568.676 387.342 583.598 388.091 597.844 387.85C607.183 387.692 619.786 387.032 619.386 399.678C619.007 411.656 600.42 409.596 592.753 409.532L565.882 409.286C565.256 417.352 564.685 425.422 564.17 433.496C578.193 428.372 593.452 427.376 606.595 435.539C615.087 440.723 621.098 449.146 623.237 458.863C628.604 482.417 613.777 500.964 591.116 506.11C572.654 508.761 553.639 505.214 541.031 490.488C538.039 486.994 539 477.288 542.697 475.522C553.726 470.255 563.991 484.737 574.951 485.747C581.564 486.356 587.254 486.865 592.969 482.989C600.218 477.546 603.424 465.537 597.724 457.934C591.36 449.444 581.09 448.24 571.281 450.047C563.27 451.522 550.676 458.51 544.702 449.713C539.347 438.35 543.948 424.152 544.541 412.343C545.072 401.759 542.216 394.523 553.332 388.21Z"/><path fill="#FEFEFE" transform="scale(1.14286 1.14286)" d="M494.719 387.588C500.383 387.353 505.842 387.928 510.377 391.756C514.086 394.73 515.192 401.241 515.183 405.856C515.119 436.75 516.137 467.913 514.575 498.751C514.151 507.133 501.126 509.375 496.183 503.852C491.258 498.348 492.472 488.066 492.642 481.143C492.766 457.417 492.732 433.691 492.539 409.966C485.7 415.016 465.062 432.08 459.474 418.639C454.109 405.732 486.043 391.445 494.719 387.588Z"/><path fill="#FEFEFE" transform="scale(1.14286 1.14286)" d="M961.45 376.315C963.751 376.22 966.444 376.072 968.707 376.492C971.343 376.981 973.723 378.32 975.186 380.621C978.78 386.277 978.027 493.176 976.11 500.559C975.349 503.493 971.925 505.269 969.561 506.789C964.735 507.986 961.741 506.695 957.25 505.049C953.888 497.498 953.912 489.945 954.059 481.835C954.656 448.83 953.259 415.272 954.604 382.321C956.995 379.448 958.373 378.299 961.45 376.315Z"/></svg>