<?xml version="1.0" encoding="utf-8" ?><svg xmlns="http://www.w3.org/2000/svg" xmlns:xlink="http://www.w3.org/1999/xlink" width="1317" height="1024" viewBox="0 0 1317 1024"><defs><linearGradient id="gradient_0" gradientUnits="userSpaceOnUse" x1="579.18048" y1="760.71759" x2="574.50171" y2="135.13759"><stop offset="0" stop-color="#081776"/><stop offset="1" stop-color="#214DD9"/></linearGradient></defs><path fill="url(#gradient_0)" transform="scale(1.14286 1.14286)" d="M55.0369 385.449C54.4906 381.736 54.6625 372.845 54.6505 368.728L54.5814 339.142C54.5145 307.993 54.2992 276.761 54.289 245.613C54.278 212.156 60.174 187.181 84.8125 163.019C99.3048 148.757 117.7 139.11 137.673 135.299C154.998 132.126 181.799 133.021 199.916 133.048L286.622 133.169L595.926 134L872.438 133.557L954.755 133.431C998.857 133.4 1035.64 130.491 1069.66 164.415C1092.64 187.334 1099.07 209.459 1099.34 241.034L1099.4 426.951C1099.44 442.865 1098.98 459.429 1099.24 475.242C1100.17 484.952 1099.75 511.356 1099.54 522.29C1100.14 548.391 1099.8 575.671 1099.81 601.694C1099.84 647.559 1106.61 693.502 1071.8 729.376C1049.91 751.924 1024.65 762.286 993.228 762.684C971.789 762.956 950.173 762.745 928.786 762.727L813.041 762.73L745.749 762.757C735.064 762.757 716.438 763.161 706.368 762.14C692.341 763.294 673.259 762.187 659.086 762.087C646.6 761.999 633.638 762.392 621.302 762.085C615.562 762.405 605.715 762.03 599.511 762.058L282.964 762.357L200.296 762.507C155.508 762.66 118.458 766.126 83.8161 731.642C70.7544 718.729 61.6039 702.391 57.4173 684.509C54.2844 670.77 54.7782 653.523 54.8326 639.397L54.9055 599.366L55.1974 431.52C54.2984 418.142 54.9544 399.252 55.0369 385.449Z"/><path fill="#3BC4D6" transform="scale(1.14286 1.14286)" d="M55.0369 385.449C54.4906 381.736 54.6625 372.845 54.6505 368.728L54.5814 339.142C54.5145 307.993 54.2992 276.761 54.289 245.613C54.278 212.156 60.174 187.181 84.8125 163.019C99.3048 148.757 117.7 139.11 137.673 135.299C154.998 132.126 181.799 133.021 199.916 133.048L286.622 133.169L595.926 134C566.823 136.676 528.282 136.66 498.628 137.255L373.723 140.134C362.813 142.101 348.549 141.827 337.296 141.836C332.903 141.865 329.007 142.037 324.644 142.29C317.621 140.676 302.819 141.779 295.393 142.272C249.124 145.34 205.451 156.998 166.031 182.03C113.423 215.436 78.7613 268.735 64.895 329.103C62.8602 337.962 57.4847 381.939 55.0369 385.449Z"/><path fill="#299ABE" transform="scale(1.14286 1.14286)" d="M337.296 141.836C343.103 139.054 367.112 138.638 373.723 140.134C362.813 142.101 348.549 141.827 337.296 141.836Z"/><path fill="#3BC4D6" transform="scale(1.14286 1.14286)" d="M706.368 762.14C709.041 760.282 740.125 759.635 746.042 759.417C796.341 757.567 846.371 758.308 896.165 749.297C994.035 731.585 1065.35 659.877 1088.93 564.139C1093.36 546.174 1095.6 527.814 1098.88 509.593C1098.9 513.129 1098.7 519.059 1099.54 522.29C1100.14 548.391 1099.8 575.671 1099.81 601.694C1099.84 647.559 1106.61 693.502 1071.8 729.376C1049.91 751.924 1024.65 762.286 993.228 762.684C971.789 762.956 950.173 762.745 928.786 762.727L813.041 762.73L745.749 762.757C735.064 762.757 716.438 763.161 706.368 762.14Z"/><path fill="#299ABE" transform="scale(1.14286 1.14286)" d="M1099.24 475.242C1100.17 484.952 1099.75 511.356 1099.54 522.29C1098.7 519.059 1098.9 513.129 1098.88 509.593C1095.6 527.814 1093.36 546.174 1088.93 564.139C1065.35 659.877 994.035 731.585 896.165 749.297C846.371 758.308 796.341 757.567 746.042 759.417C740.125 759.635 709.041 760.282 706.368 762.14C692.341 763.294 673.259 762.187 659.086 762.087C646.6 761.999 633.638 762.392 621.302 762.085C627.632 759.5 674.891 759.165 684.82 758.909L778.91 755.673C853.683 752.894 917.575 753.137 983.021 711.415C1056.92 664.303 1086.86 590.199 1095.46 505.583C1095.96 500.633 1097.38 478.505 1099.24 475.242Z"/><path fill="#299ABE" transform="scale(1.14286 1.14286)" d="M55.0369 385.449C57.4847 381.939 62.8602 337.962 64.895 329.103C78.7613 268.735 113.423 215.436 166.031 182.03C205.451 156.998 249.124 145.34 295.393 142.272C302.819 141.779 317.621 140.676 324.644 142.29L324.091 142.39C317.644 143.489 307.197 143.809 300.309 144.379C289.505 145.346 278.737 146.675 268.021 148.362C153.804 166.191 81.4344 240.107 63.4336 354.046C61.0464 369.792 59.2931 385.628 58.1781 401.515C57.817 406.243 56.7264 429.117 55.1974 431.52C54.2984 418.142 54.9544 399.252 55.0369 385.449Z"/><path fill="#3BC4D6" transform="scale(1.14286 1.14286)" d="M263.741 312.411C300.267 310.652 355.071 312.282 388.637 329.554C399.947 335.374 393.52 357.985 392.036 369.007L385.589 416.855L373.491 506.482C372.001 517.702 366.762 567.845 361.923 575.392C353.821 588.029 315.952 594.042 300.254 595.986C296.111 596.373 291.956 596.621 287.796 596.73C263.451 597.395 222.875 593.531 203.928 576.119C201.689 574.07 199.994 571.228 199.499 568.207C197.21 554.233 195.524 540.082 193.685 526.045L182.921 443.91L174.354 380.759C172.392 366.843 169.444 350.171 169.151 336.409C169.626 335.742 170.136 335.101 170.68 334.489C186.96 316.286 240.444 313.738 263.741 312.411Z"/><path fill="#1534AF" transform="scale(1.14286 1.14286)" d="M180.365 351.66C191.69 354.882 198.492 357.693 211.009 359.944C264.404 369.547 333.615 369.756 384.742 351.463C380.272 378.715 377.375 405.456 373.809 432.827L358.613 546.019C356.823 552.077 358.333 561.614 353.226 567.767C344.367 578.442 319.076 583.41 305.094 584.827C275.414 587.424 239.431 587.412 213.765 570.183C206.264 565.148 204.877 538.424 203.707 529.369L196.676 475.696L186.579 399.509C184.498 384.145 181.748 366.963 180.365 351.66Z"/><path fill="#3BC4D6" transform="scale(1.14286 1.14286)" d="M226.17 423.094C266.958 418.086 310.278 415.544 350.356 426.782C355.823 428.315 366.229 433.615 363.052 440.852C361.808 457.888 358.567 474.998 356.461 491.984C354.017 511.697 351.475 531.583 348.597 551.248C348.321 553.128 346.799 558.798 345.625 560.134C338.11 568.691 318.566 572.916 307.416 574.388C281.448 577.814 244.942 577.373 222.165 562.929C220.343 561.774 217.313 558.153 216.911 556.276C213.852 542.003 212.291 526.091 210.488 511.593L201.045 439.299C198.775 431.203 208.398 429.238 213.249 426.395L213.931 425.988L214.305 426.286C218.174 425.438 222.19 424.377 226.05 423.421L226.17 423.094Z"/><path fill="#299ABE" transform="scale(1.14286 1.14286)" d="M226.17 423.094C266.958 418.086 310.278 415.544 350.356 426.782C355.823 428.315 366.229 433.615 363.052 440.852L362.237 439.992C360.533 440.303 354.85 442.97 352.713 443.787C347.255 445.875 342.405 447.205 336.669 448.185C303.286 453.89 269.001 453.178 235.461 449.222C233.431 448.982 231.115 448.704 229.079 448.59C228.328 441.258 227.492 430.403 226.05 423.421L226.17 423.094Z"/><path fill="#9CE8E3" transform="scale(1.14286 1.14286)" d="M215.852 445.572C220.236 446.684 224.646 447.691 229.079 448.59C233.555 479.906 234.917 513.029 238.992 544.553C239.885 551.462 233.104 554.902 227.593 548.937C226.687 545.498 226.16 541.785 225.788 538.249C222.536 507.411 218.474 476.453 215.852 445.572Z"/><path fill="#299ABE" transform="scale(1.14286 1.14286)" d="M213.931 425.988L214.305 426.286C214.354 432.932 215.157 438.815 215.629 445.355C209.11 443.768 206.805 442.766 201.045 439.299C198.775 431.203 208.398 429.238 213.249 426.395L213.931 425.988Z"/><path fill="#7B87CA" transform="scale(1.14286 1.14286)" d="M213.931 425.988C213.381 417.141 207.476 379.862 210.917 374.483C211.569 373.463 212.513 372.568 213.76 372.406C215.593 372.167 217.794 372.688 219.26 373.831C220.589 374.868 221.139 376.195 221.573 377.776C223.099 383.344 223.212 389.645 223.728 395.397L226.17 423.094L226.05 423.421C222.19 424.377 218.174 425.438 214.305 426.286L213.931 425.988Z"/><path fill="#1534AF" transform="scale(1.14286 1.14286)" d="M279.352 320.856C308.433 319.904 339.637 323.319 367.817 330.339C372.77 331.573 383.517 333.615 385.118 339.045C382.219 353.38 299.66 357.184 285.844 357.204C256.765 357.138 200.803 355.929 177.188 339.038C196.221 323.536 254.422 321.627 279.352 320.856Z"/><path fill="#FEFEFE" transform="scale(1.14286 1.14286)" d="M698.17 386.627C723.038 383.996 743.005 406.383 746.304 429.405C751.46 465.393 743.969 500.199 703.077 506.774C673.278 507.063 655.765 488.29 652.735 459.546C648.998 424.108 658.337 391.037 698.17 386.627Z"/><path fill="#1534AF" transform="scale(1.14286 1.14286)" d="M694.904 407.898C707.489 407.384 717.919 411.686 721.646 424.881C727.133 444.302 727.977 477.939 704.059 485.367C690.566 487.096 682.194 480.611 677.861 467.822C673.027 453.557 673.489 434.571 679.666 420.724C682.824 413.645 687.835 410.34 694.904 407.898Z"/><path fill="#FEFEFE" transform="scale(1.14286 1.14286)" d="M588.302 386.631C598.224 387.226 607.528 389.26 615.787 395.388C641.335 414.345 642.988 464.436 625.104 488.833C616.613 500.417 604.618 504.986 590.904 506.795C580.179 506.736 568.786 504.125 560.126 497.159C535.594 477.425 535.547 425.971 554.207 402.394C562.646 391.731 575.181 387.746 588.302 386.631Z"/><path fill="#1534AF" transform="scale(1.14286 1.14286)" d="M584.812 407.874C596.454 407.58 606.904 411.954 610.391 423.774C616.422 444.21 617.305 476.784 593.247 485.394C573.486 486.903 566.282 474.421 564.589 456.295C562.852 437.7 563.464 414.33 584.812 407.874Z"/><path fill="#FEFEFE" transform="scale(1.14286 1.14286)" d="M827.137 429.238C828.405 427.974 829.713 426.753 831.062 425.576C840.173 417.618 854.308 415.406 865.37 420.495C871.339 423.242 875.158 427.687 879.325 432.547C883.023 428.47 887.608 424.092 892.268 421.559C907.879 413.086 932.195 419.246 937.254 437.802C942.265 456.181 942.093 480.121 939.675 498.984C938.661 506.897 921.321 512.26 918.477 497.725C915.098 480.452 921.578 462.795 915.55 446.483C911.793 437.134 899.579 436.575 891.808 440.779L891.167 441.129C876.613 454.618 887.19 484.985 881.433 500.973C873.356 514.11 863.195 505.825 861.168 494.269C858.24 477.577 870.659 428.321 837.798 439.86C814.951 447.882 837.433 498.529 819.479 505.95C816.589 507.112 813.354 507.07 810.495 505.831C808.493 504.972 805.121 502.2 804.841 499.994C802.28 479.823 804.258 458.435 803.848 438.1C803.666 429.072 802.939 421.169 812.463 417.983C821.111 417.941 824.53 421.65 827.137 429.238Z"/><path fill="#FEFEFE" transform="scale(1.14286 1.14286)" d="M478.086 386.622C490.939 385.709 504.556 388.755 513.465 398.707C519.824 405.671 523.071 414.925 522.459 424.335C521.329 443.647 505.826 455.782 492.357 467.439C485.705 473.143 479.123 478.927 472.612 484.792L500.949 484.689C507.597 484.659 518.879 483.542 523.736 487.703C530.475 493.478 527.648 504.187 518.036 505.276C509.295 506.266 502.37 505.888 493.889 505.783C484.597 505.717 475.305 505.698 466.014 505.726C460.291 506.026 450.89 506.595 445.736 503.885C443.156 502.558 441.284 500.169 440.613 497.346C436.788 481.92 470.9 461.086 480.803 450.327C488.305 442.176 502.859 433.171 498.48 419.155C495.382 409.24 483.276 405.683 474.507 408.619C462.88 411.741 447.554 435.662 441.304 412.807C445.02 395.268 461.943 388.582 478.086 386.622Z"/><path fill="#FEFEFE" transform="scale(1.14286 1.14286)" d="M971.982 375.782C973.464 375.856 974.879 376.059 976.32 376.409C979.063 377.074 982.044 378.351 983.411 381.009C984.738 383.591 984.634 387.914 984.764 390.758C985.343 403.461 985.71 495.087 983.639 500.238C982.057 504.172 978.717 505.464 975.045 506.853C972.617 506.758 970.357 506.571 968.065 505.66C966.015 504.845 963.843 503.101 963.109 500.945C960.531 493.383 960.773 385.847 963.324 381.073C965.066 377.814 968.689 376.746 971.982 375.782Z"/></svg>