<?xml version="1.0" encoding="utf-8" ?><svg xmlns="http://www.w3.org/2000/svg" xmlns:xlink="http://www.w3.org/1999/xlink" width="1152" height="896" viewBox="0 0 1152 896"><defs><linearGradient id="gradient_0" gradientUnits="userSpaceOnUse" x1="579.35608" y1="759.88123" x2="574.29211" y2="136.41542"><stop offset="0" stop-color="#0B1A7B"/><stop offset="1" stop-color="#214CDA"/></linearGradient></defs><path fill="url(#gradient_0)" d="M55.2204 428.503C54.2309 418.363 54.7467 405.593 54.5718 395.13C54.0004 371.947 53.7869 348.757 53.9312 325.568C53.9503 310.97 53.8947 296.372 53.7645 281.774C53.1357 233.514 49.7841 190.88 91.1272 156.936C105.489 145.003 122.866 137.266 141.344 134.577C159.29 131.823 191.917 132.846 211.316 132.834L333.122 132.902L479.263 133.322C498.462 133.222 517.661 133.405 536.855 133.868C545.502 134.008 555.823 133.618 564.248 134.459C574.669 134.972 588.641 134.247 599.313 134.07L655.836 133.561L817.151 133.426L931.428 133.467L971.455 133.498C1011.16 133.672 1041.19 135.447 1071.09 165.842C1099.28 194.499 1099.54 222.566 1099.54 260.153L1099.43 309.551C1101.05 367.049 1098.18 425.404 1099.73 482.802C1100.84 512.3 1099.9 545.291 1100.07 575.095L1100.33 617.504C1100.82 658.72 1103.1 691.406 1076.04 725.438C1073.23 728.455 1066.69 735.579 1063.64 738.036C1043.41 754.304 1022.73 761.709 996.827 762.703C985.459 763.139 973.88 762.437 963.082 762.837C937.497 762.024 907.953 762.702 882.019 762.693L726 762.67C723.91 762.823 721.798 762.673 719.703 762.633C708.885 762.427 698.055 762.618 687.237 762.459L626.467 761.972C595.337 760.186 562.757 763.013 531.447 762.117C517.473 761.717 503.361 762.771 489.21 762.131C465.377 762.844 438.017 762.189 413.901 762.228L270.38 762.572L195.64 762.665C177.861 762.683 153.735 763.504 136.727 760.18C117.632 756.251 100.004 747.097 85.8073 733.738C52.9706 703.123 54.5651 670.745 54.5873 629.862L54.5169 581.795C54.5759 571.35 55.0803 560.883 54.7283 550.453C54.3024 539.066 54.5986 525.897 54.6142 514.365L55.2204 428.503Z"/><path fill="#3CC3D3" d="M55.2204 428.503C54.2309 418.363 54.7467 405.593 54.5718 395.13C54.0004 371.947 53.7869 348.757 53.9312 325.568C53.9503 310.97 53.8947 296.372 53.7645 281.774C53.1357 233.514 49.7841 190.88 91.1272 156.936C105.489 145.003 122.866 137.266 141.344 134.577C159.29 131.823 191.917 132.846 211.316 132.834L333.122 132.902L479.263 133.322C498.462 133.222 517.661 133.405 536.855 133.868C545.502 134.008 555.823 133.618 564.248 134.459C560.588 136.34 536.896 135.939 531.213 136.065L443.783 138.167L414.936 138.836C409.254 138.963 401.945 138.878 396.521 139.662C380.553 139.191 364.366 141.933 348.641 142.054C272.89 142.634 193.917 153.818 136.706 208.27C109.199 234.449 87.1786 268.434 74.9057 304.577C69.5517 320.364 67.5475 336.164 63.9865 351.946C59.8321 370.743 58.958 393.626 56.9236 412.874C56.6117 415.826 56.4044 426.946 55.2204 428.503Z"/><path fill="#3CC3D3" d="M1087.78 552.109C1092.42 540.449 1097.14 484.105 1098.78 481.765L1099.73 482.802C1100.84 512.3 1099.9 545.291 1100.07 575.095L1100.33 617.504C1100.82 658.72 1103.1 691.406 1076.04 725.438C1073.23 728.455 1066.69 735.579 1063.64 738.036C1043.41 754.304 1022.73 761.709 996.827 762.703C985.459 763.139 973.88 762.437 963.082 762.837C937.497 762.024 907.953 762.702 882.019 762.693L726 762.67C728.241 760.751 732.528 760.43 735.475 760.359C767.03 759.597 798.336 757.847 829.837 755.978C850.054 754.778 867.034 754.021 887.096 750.871C966.129 738.458 1035.64 691.29 1069.3 617.63C1075.48 604.139 1080.41 594.133 1084.17 579.062C1081.77 570.916 1088.6 568.975 1086.71 557.888L1087.78 552.109Z"/><defs><linearGradient id="gradient_1" gradientUnits="userSpaceOnUse" x1="597.69495" y1="160.93272" x2="597.31659" y2="134.90965"><stop offset="0" stop-color="#375EDA"/><stop offset="1" stop-color="#577AE4"/></linearGradient></defs><path fill="url(#gradient_1)" d="M564.248 134.459C574.669 134.972 588.641 134.247 599.313 134.07L655.836 133.561L817.151 133.426C817.092 134.8 817.349 135.855 816.274 136.638C810.335 140.971 798.6 143.046 791.836 144.828C770.315 150.498 750.14 151.699 728.337 154.178C661.531 161.888 594.194 163.955 527.041 160.358C508.556 159.162 490.087 157.736 471.638 156.08C449.576 154.311 394.516 151.204 376.093 141.628C380.887 140.465 395.237 140.703 396.454 139.879L396.521 139.662C401.945 138.878 409.254 138.963 414.936 138.836L443.783 138.167L531.213 136.065C536.896 135.939 560.588 136.34 564.248 134.459Z"/><defs><linearGradient id="gradient_2" gradientUnits="userSpaceOnUse" x1="1085.8611" y1="420.62442" x2="1100.256" y2="421.22513"><stop offset="0" stop-color="#475FBE"/><stop offset="1" stop-color="#7189D4"/></linearGradient></defs><path fill="url(#gradient_2)" d="M1087.78 552.109C1087.67 543.208 1091.53 533.484 1091.15 525.354C1090.73 516.217 1087.88 504.62 1087.2 495.25C1086.22 481.704 1085.59 467.585 1085.14 454.023C1084.19 412.71 1087.15 371.4 1094 330.647C1095.22 323.57 1098.17 317.247 1099.31 310.257L1099.43 309.551C1101.05 367.049 1098.18 425.404 1099.73 482.802L1098.78 481.765C1097.14 484.105 1092.42 540.449 1087.78 552.109Z"/><defs><linearGradient id="gradient_3" gradientUnits="userSpaceOnUse" x1="67.016243" y1="451.91492" x2="55.584938" y2="451.51447"><stop offset="0" stop-color="#4961BF"/><stop offset="1" stop-color="#697CCC"/></linearGradient></defs><path fill="url(#gradient_3)" d="M63.9865 351.946C67.8579 389.302 69.1032 426.884 67.7134 464.414C67.0038 489.04 66.4256 514.131 58.8961 537.805C57.6038 541.868 56.6371 545.494 55.8325 549.676C55.1286 550.383 55.4034 550.393 54.7283 550.453C54.3024 539.066 54.5986 525.897 54.6142 514.365L55.2204 428.503C56.4044 426.946 56.6117 415.826 56.9236 412.874C58.958 393.626 59.8321 370.743 63.9865 351.946Z"/><defs><linearGradient id="gradient_4" gradientUnits="userSpaceOnUse" x1="932.38818" y1="753.18115" x2="835.74084" y2="625.06555"><stop offset="0" stop-color="#2399BB"/><stop offset="1" stop-color="#65AECF"/></linearGradient></defs><path fill="url(#gradient_4)" d="M1086.71 557.888C1088.6 568.975 1081.77 570.916 1084.17 579.062C1080.41 594.133 1075.48 604.139 1069.3 617.63C1035.64 691.29 966.129 738.458 887.096 750.871C867.034 754.021 850.054 754.778 829.837 755.978C798.336 757.847 767.03 759.597 735.475 760.359C732.528 760.43 728.241 760.751 726 762.67C723.91 762.823 721.798 762.673 719.703 762.633C708.885 762.427 698.055 762.618 687.237 762.459L626.467 761.972L625.844 761.305C636.523 759.086 656.074 760.45 667.817 758.832C715.369 757.319 762.961 756.924 810.45 754.471C844.441 752.715 880.301 750.527 913.331 742C935.12 736.335 955.998 727.619 975.346 716.111C1038.08 678.94 1068.94 627.348 1086.71 557.888Z"/><path fill="#6773B8" d="M489.21 762.131C525.613 750.227 592.598 752.438 630.858 755.536C644.708 756.657 652.827 758.823 667.817 758.832C656.074 760.45 636.523 759.086 625.844 761.305L626.467 761.972C595.337 760.186 562.757 763.013 531.447 762.117C517.473 761.717 503.361 762.771 489.21 762.131Z"/><path fill="#3CC3D3" d="M278.391 313.053C302.491 310.581 389.051 313.294 403.236 336.561C403.478 341.249 403.356 344.569 402.756 349.228C396.583 397.172 390.384 445.152 384.224 493.095L378.79 535.707C377.985 542.12 376.655 555.333 375.015 561.132C373.674 565.789 370.88 569.895 367.041 572.852C361.558 577.125 353.698 579.899 347.033 581.828C320.789 589.423 295.057 589.703 268.178 586.477C262.733 585.762 257.539 584.403 252.258 583.172C216.302 574.787 218.62 561.75 214.737 529.347C198.669 529.39 180.883 524.595 168.802 513.955C148.342 495.962 149.016 472.947 147.995 448.688C146.435 411.621 157.626 393.825 196.56 391.765C193.123 376.575 192.3 358.751 189.982 343.234C189.494 339.964 190.506 334.284 193.198 332.283C214.471 316.47 253.074 314.444 278.391 313.053Z"/><path fill="#1433AF" d="M199.975 350.514C255.313 369.111 338.581 371.022 393.555 350.336C388.183 383.205 384.533 418.142 380.501 451.271L368.856 541.168C368.624 547.238 367.118 556.037 363.494 561.143C356.819 570.551 336.142 574.941 324.6 576.539C295.177 580.217 259.761 580.506 233.934 563.991C225.949 558.885 225.016 537.758 223.792 528.416L218.614 489.37L199.975 350.514Z"/><path fill="#3CC3D3" d="M244.776 419.739C254.814 419.159 264.743 417.159 274.816 416.502C296.578 415.08 354.135 414.392 370.585 428.927C371.968 430.149 373.363 431.732 373.475 433.666C373.527 434.559 373.429 435.101 373.113 435.94C369.766 472.533 364.039 509.305 359.123 545.748C358.922 547.238 357.261 553.027 356.235 554.108C348.917 561.808 337.009 564.372 326.924 566.331C301.027 570.209 264.704 571.033 241.679 556.822C239.55 555.273 236.628 552.45 236.032 549.854C233.5 538.827 232.45 526.987 230.977 515.771C227.529 488.954 223.944 462.155 220.223 435.374C219.806 427.31 226.613 425.061 233.008 423.051C237.309 422.211 240.418 421.453 244.632 420.245L244.776 419.739Z"/><path fill="#2A99BB" d="M244.776 419.739C254.814 419.159 264.743 417.159 274.816 416.502C296.578 415.08 354.135 414.392 370.585 428.927C371.968 430.149 373.363 431.732 373.475 433.666C373.527 434.559 373.429 435.101 373.113 435.94C369.424 436.612 361.172 441.72 354.709 443.07C318.338 450.667 284.064 448.956 247.526 444.728C246.558 438.627 246.104 425.382 244.632 420.245L244.776 419.739Z"/><path fill="#2A99BB" d="M233.008 423.051C233.437 429.136 233.779 435.569 234.323 441.614C228.223 439.774 225.535 438.961 220.223 435.374C219.806 427.31 226.613 425.061 233.008 423.051Z"/><path fill="#A0E6E2" d="M234.38 441.815L247.378 444.715L253.76 505.673C254.562 513.33 258.101 537.951 255.873 543.912C254.318 544.704 252.642 545.432 250.885 545.598C249.485 545.731 248.542 545.234 247.493 544.367C243.499 541.065 235.684 454.31 234.38 441.815Z"/><path fill="#6773B8" d="M233.008 423.051C231.844 413.972 226.368 381.041 229.689 373.826C230.275 372.553 231.364 371.296 232.754 370.884C234.081 370.491 235.305 370.72 236.424 371.521C242.917 376.17 243.953 410.751 244.776 419.739L244.632 420.245C240.418 421.453 237.309 422.211 233.008 423.051Z"/><path fill="#1433AF" d="M282.293 321.404C299.761 320.009 385.016 323.242 393.451 337.974C394.777 350.937 319.9 355.732 310.781 356.25C281.627 358.231 230.48 354.268 203.198 342.63C200.946 341.669 199.772 340.814 198.983 338.573C204.457 326.4 268.41 322.317 282.293 321.404Z"/><path fill="#1433AF" d="M191.583 412.442L198.906 411.928C199.267 415.506 199.893 419.296 200.425 422.863C204.676 451.381 207.901 480.076 212.059 508.601C205.253 508.492 200.297 507.606 193.917 505.397C167.568 494.721 169.212 468.73 168.504 444.929C167.9 424.641 170.14 415.745 191.583 412.442Z"/><path fill="#F1F1F1" d="M698.398 386.628C706.817 385.631 717.801 388.849 724.771 393.796C752.308 413.337 754.091 461.595 736.468 488.101C728.559 499.997 715.862 504.425 702.488 506.761C692.131 506.829 679.842 503.765 671.628 497.096C646.645 476.817 646.131 426.715 665.165 402.459C673.723 391.554 685.207 388.081 698.398 386.628Z"/><path fill="#1433AF" d="M695.49 407.879C707.685 407.771 717.437 411.371 721.474 423.997C727.755 443.637 727.842 477.173 704.118 485.325C690.725 485.838 681.786 480.951 677.817 467.365C672.144 447.949 671.491 415.222 695.49 407.879Z"/><path fill="#F1F1F1" d="M847.654 418.059C862.52 416.018 870.062 422.313 879.35 432.555L881.429 430.453C889.099 422.768 895.58 417.792 906.769 417.784C944.097 417.757 941.083 455.62 940.899 482.431C940.858 488.469 941.591 499.172 936.738 503.716C934.436 505.873 930.42 506.787 927.322 506.558C907.114 503.62 926.156 454.884 912.928 442.205C910.088 439.079 906.203 438.358 902.165 438.159C878.141 436.972 883.239 474.57 883.165 489.631C882.946 492.032 882.81 494.558 882.265 496.91C881.399 500.651 879.222 504.752 875.83 506.729C874.156 507.705 872.251 507.967 870.405 507.33C852.781 501.248 866.021 461.842 857.817 445.4C856.265 442.289 853.869 439.475 850.428 438.455C846.036 437.153 839.783 438.391 835.871 440.716C819.387 450.512 830.327 482.098 825.724 497.919C824.75 501.269 823.018 503.947 819.87 505.601C817.089 507.062 814.63 507.298 811.645 506.308C809.317 505.535 806.863 503.951 805.78 501.668C802.186 494.085 802.238 431.862 805.04 424.543C806.036 421.943 807.786 419.419 810.488 418.415C813.26 417.385 816.484 417.944 819.079 419.228C823.83 421.579 825.274 424.672 826.981 429.385C833.906 422.464 838.031 419.877 847.654 418.059Z"/><path fill="#F1F1F1" d="M574.166 387.69C590.671 386.879 609.115 387.591 625.597 388.415C634.673 388.869 637.99 407.227 623.733 408.507C610.348 409.71 596.841 409.036 583.39 408.992C583.079 416.536 582.179 424.484 581.435 432.034C583.354 431.504 585.28 431.002 587.213 430.527C608.932 425.273 631.278 435.084 636.264 458.095C638.582 468.308 636.723 479.024 631.101 487.86C624.455 498.09 614.244 503.582 602.571 506.083C591.967 507.334 582.632 506.594 572.704 502.097C566.82 499.249 558.48 494.194 556.04 487.829C554.15 482.898 558.258 476.03 563.314 474.81C570.303 473.11 575.719 480.481 581.345 483.221C591.168 488.006 606.192 487.19 611.596 476.234C616.22 466.858 613.181 455.15 603.36 450.528C592.961 445.634 582.148 450.222 572.123 453.748C568.054 452.671 561.302 450.332 560.686 445.354C559.725 433.876 560.65 420.747 562.288 409.302C563.864 398.296 562.004 390.137 574.166 387.69Z"/><path fill="#F1F1F1" d="M493.709 386.594C506.173 385.6 519.346 388.662 528.268 397.935C534.923 404.729 538.496 413.956 538.153 423.46C537.65 442.435 522.24 454.869 509.099 466.333C502.102 472.437 495.151 478.413 488.384 484.782C498.967 484.754 532.025 482.121 539.511 488.052C541.531 489.653 542.8 491.859 542.969 494.446C543.153 497.267 542.329 499.904 540.312 501.922C538.835 503.401 537.207 504.3 535.188 504.812C526.355 507.057 495.347 505.746 483.984 505.718C476.038 505.985 459.419 507.749 456.868 497.793C453.613 485.093 470.066 473.849 477.903 466.341C488.949 455.758 503.658 447.345 511.792 434.121C523.114 415.316 501.508 401.144 485.332 410.42C478.511 414.332 460.351 433.056 457.922 414.539C455.597 396.818 480.156 388.387 493.709 386.594Z"/><path fill="#F1F1F1" d="M971.407 375.756C973.27 375.748 975.205 375.981 977.001 376.497C979.246 377.143 981.912 378.283 983.008 380.497C986.158 386.858 986.005 493.924 983.592 500.028C982.161 503.648 978.938 505.084 975.653 506.635C973.441 506.699 971.118 506.583 969.003 505.879C966.867 505.168 964.83 503.759 963.852 501.669C962.632 499.061 962.528 495.29 962.362 492.442C961.609 479.574 960.709 386.935 963.03 381.712C964.614 378.147 968.049 377.068 971.407 375.756Z"/></svg>