<?xml version="1.0" encoding="utf-8" ?><svg xmlns="http://www.w3.org/2000/svg" xmlns:xlink="http://www.w3.org/1999/xlink" width="1317" height="1024" viewBox="0 0 1317 1024"><defs><linearGradient id="gradient_0" gradientUnits="userSpaceOnUse" x1="576.68634" y1="761.60229" x2="577.57391" y2="133.29663"><stop offset="0" stop-color="#0A1979"/><stop offset="1" stop-color="#234CD7"/></linearGradient></defs><path fill="url(#gradient_0)" transform="scale(1.14286 1.14286)" d="M55.1722 377.203C54.5224 344.242 54.1399 311.276 54.0248 278.309C54.0047 232.624 50.275 193.752 88.0153 159.794C123.886 127.518 164.873 132.729 209.795 132.739L315.518 132.849L458.208 133.181C488.036 133.194 521.548 132.655 551.149 134.093C566.023 134.779 582.119 134.432 597.107 134.396L669.473 134.211L880.747 133.649L950.858 133.322C998.384 133.201 1038.92 130.225 1073.89 169.181C1103.38 202.035 1099.22 233.962 1099.22 275.252L1099.19 357.026L1099.36 430.896C1099.45 445.712 1100.33 465.118 1099.11 479.659C1100.38 492.183 1099.53 513.172 1099.48 526.214L1100.26 604.542C1100.76 650.364 1105.6 696.18 1070.44 731.069C1045.43 755.878 1020.79 762.496 986.644 762.729L765.75 762.661L679.182 762.272C665.255 762.178 648.718 762.632 635.109 761.893C630.357 761.17 615.326 762.024 609.715 762.038L545.918 762.115L270.681 762.415L198.476 762.559C177.391 762.585 156.458 763.391 135.614 759.529C102.897 753.468 67.5285 723.758 59.3448 690.946C53.2566 666.536 55.1769 634.213 55.1806 608.563L55.2196 483.993C55.2493 465.973 56.3682 439.553 55.3179 422.449C54.6502 408.195 55.0372 391.567 55.1722 377.203Z"/><path fill="#2FBFD4" transform="scale(1.14286 1.14286)" d="M55.1722 377.203C54.5224 344.242 54.1399 311.276 54.0248 278.309C54.0047 232.624 50.275 193.752 88.0153 159.794C123.886 127.518 164.873 132.729 209.795 132.739L315.518 132.849L458.208 133.181C488.036 133.194 521.548 132.655 551.149 134.093C546.675 136.903 407.306 139.099 390.082 139.578C385.01 140.27 379.532 139.658 374.908 140.333C360.135 142.489 346.499 141.792 331.638 141.668C324.727 141.978 317.537 142.406 310.643 142.382C248.958 140.211 181.318 162.692 135.878 204.986C101.887 236.592 77.8142 277.396 66.5889 322.432C64.2835 331.512 62.6446 340.295 61.4089 349.581C61.0249 352.466 58.2484 376.98 55.1722 377.203Z"/><path fill="#1E8BC4" transform="scale(1.14286 1.14286)" d="M331.638 141.668C353.689 137.624 368.267 139.819 390.082 139.578C385.01 140.27 379.532 139.658 374.908 140.333C360.135 142.489 346.499 141.792 331.638 141.668Z"/><path fill="#2FBFD4" transform="scale(1.14286 1.14286)" d="M1098.62 516.903C1098.95 520.284 1098.86 522.703 1099.48 526.214L1100.26 604.542C1100.76 650.364 1105.6 696.18 1070.44 731.069C1045.43 755.878 1020.79 762.496 986.644 762.729L765.75 762.661L679.182 762.272C665.255 762.178 648.718 762.632 635.109 761.893C638.867 758.855 701.201 758.946 710.916 758.733C730.396 760.74 749.431 760.032 769.011 759.425C790.822 758.95 812.617 757.919 834.376 756.332C856.291 754.808 884.187 753.391 905.239 748.37C932.634 741.973 958.76 731.021 982.527 715.97C1035.56 682.366 1071.02 633.137 1087.21 572.624C1092.35 553.416 1094.35 536 1098.62 516.903Z"/><path fill="#1E8BC4" transform="scale(1.14286 1.14286)" d="M710.916 758.733C713.942 758.139 722.465 757.915 726.068 757.737L756.354 756.299C809.332 753.909 870.812 754.873 921.01 740.126C1013.96 712.817 1075.84 635.376 1090.21 540.704C1092.09 529.134 1093.81 517.519 1095.36 505.911C1096.22 499.442 1095.8 484.762 1099.11 479.659C1100.38 492.183 1099.53 513.172 1099.48 526.214C1098.86 522.703 1098.95 520.284 1098.62 516.903C1094.35 536 1092.35 553.416 1087.21 572.624C1071.02 633.137 1035.56 682.366 982.527 715.97C958.76 731.021 932.634 741.973 905.239 748.37C884.187 753.391 856.291 754.808 834.376 756.332C812.617 757.919 790.822 758.95 769.011 759.425C749.431 760.032 730.396 760.74 710.916 758.733Z"/><path fill="#1E8BC4" transform="scale(1.14286 1.14286)" d="M55.1722 377.203C58.2484 376.98 61.0249 352.466 61.4089 349.581C62.6446 340.295 64.2835 331.512 66.5889 322.432C77.8142 277.396 101.887 236.592 135.878 204.986C181.318 162.692 248.958 140.211 310.643 142.382C303.814 143.422 297.237 144.766 290.369 145.685C272.92 148.02 256.162 149.805 238.964 153.886C186.224 166.691 139.754 197.827 107.856 241.733C88.2461 268.405 75.3051 299.565 67.8934 331.721C65.7144 340.979 64.011 350.342 62.7899 359.774C61.6497 368.622 58.5208 419.481 55.3179 422.449C54.6502 408.195 55.0372 391.567 55.1722 377.203Z"/><path fill="#2FBFD4" transform="scale(1.14286 1.14286)" d="M263.011 283.622C271.984 283.276 281.004 283.581 289.931 283.34C309.826 282.803 310.881 303.224 306.76 317.935C305.539 319.176 304.528 320.272 303.383 321.584C301.527 327.564 310.064 332.692 314.271 335.358C334.634 348.256 351.009 367.536 353.646 392.295C354.696 402.151 353.196 406.134 347.089 413.958C356.586 426.884 356.177 436.593 347.097 449.322C346.348 455.701 346.618 464.559 346.662 471.206C356.169 484.514 356.11 493.447 346.879 506.599C356.009 521.473 355.086 527.442 346.84 542.122C354.812 558.621 351.434 573.675 338.359 586.696C327.402 597.608 307.415 595.615 292.956 595.128L256.33 595.264C230.858 595.359 213.983 595.081 204.831 565.859C201.729 555.953 204.183 550.293 208.998 541.531C198.637 528.842 200.896 519.586 208.976 506.718C198.802 494.772 200.081 484.436 208.322 472.108L208.489 449.663C198.073 435.323 199.717 428.255 208.222 413.533C187.874 390.763 215.298 352.71 235.304 339.359C239.212 336.752 252.219 328.189 253.038 324.226C252.305 321.269 249.507 318.148 247.578 315.624C246.599 300.033 243.654 286.757 263.011 283.622Z"/><path fill="#1535A6" transform="scale(1.14286 1.14286)" d="M285.516 289.361C304.666 288.439 304.066 300.185 301.263 315.29C297.387 317.568 295.334 319.328 296.335 324.57C298.038 332.178 304.825 336.176 310.902 340.223C330.665 353.386 348.969 373.908 347.795 399.086C347.524 404.898 341.534 408.492 341.727 414.168C341.941 420.431 347.372 423.715 348.405 429.546C349.243 436.11 344.102 443.197 340.496 448.135C340.23 456.102 340.405 464.682 340.427 472.696C346.243 480.248 351.726 488.221 345.172 496.549C342.943 499.38 340.64 504.389 341.186 507.743C342.234 514.173 348.679 517.811 347.399 525.452C346.377 531.553 341.201 535.442 340.773 541.607C340.606 546.911 345.689 549.152 345.598 556.139C345.478 565.363 340.941 575.257 334.69 581.763C324.961 591.89 307.148 589.667 294.044 589.486C286.499 589.435 278.952 589.424 271.406 589.453C267.661 589.483 263.817 589.616 260.063 589.536C248.058 589.28 235.22 591.365 224.571 584.533C214.535 578.096 208.612 565.409 209.887 553.665C210.212 550.678 215.119 545.776 214.426 541.977C213.854 536.003 209.176 532.386 208.178 526.627C206.93 519.426 209.078 517.154 212.822 511.643C218.089 503.89 208.9 499.123 207.816 492.095C206.702 484.863 210.526 478.928 214.326 473.336C214.301 464.87 214.369 456.404 214.53 447.94C198.768 428.926 211.264 430.09 213.484 412.856C213.803 410.376 207.946 404.996 207.451 399.442C206.84 392.586 208.198 387.192 210.255 380.682C215.652 363.435 228.939 350.958 243.457 340.947C250.288 336.236 260.602 330.892 259.109 320.663C258.644 317.481 256.61 316.595 254.093 314.912C252.004 305.113 250.855 297.109 259.028 289.714C267.127 289.238 276.92 289.701 285.516 289.361Z"/><path fill="#2FBFD4" transform="scale(1.14286 1.14286)" d="M235.713 450.71C276.657 449.264 293.567 481.99 332.864 466.297C333.54 479.115 337.457 478.546 340.759 490.024C337.723 498.468 330.201 503.337 334.12 511.451C336.586 516.81 341.602 521.067 339.277 527.586C336.973 533.888 330.382 538.009 333.32 545.421C334.251 547.768 337.912 552.476 338.108 554.408C339.609 569.207 329.764 581.238 314.835 582.033C302.893 582.669 293.123 582.025 281.333 582.074C268.046 582.107 254.63 582.422 241.354 582.182C238.831 582.137 235.069 581.292 232.696 580.362C226.566 577.897 221.662 573.105 219.058 567.033C212.364 551.529 224.948 550.113 221.582 537.472C220.184 532.223 212.057 527.1 217.064 518.198C224.393 505.83 224.768 506.204 215.428 493.216C215.133 484.537 215.763 483.204 221.283 476.204C221.237 471.013 220.434 459.596 222.856 455.403C224.004 454.503 224.132 454.32 225.508 453.735L235.713 450.71Z"/><path fill="#A9EBE8" transform="scale(1.14286 1.14286)" d="M235.713 450.71C236.683 455.558 236.332 471.087 236.316 476.928L236.219 529.532C236.212 536.226 236.144 545.509 236.03 552.187C235.863 562.063 249.606 570.094 246.532 575.678C239.983 578.694 230.858 570.805 228.304 564.71C227.274 562.254 226.708 559.52 226.365 556.847C224.259 540.455 225.482 523.56 225.518 507.057L225.508 453.735L235.713 450.71Z"/><path fill="#1535A6" transform="scale(1.14286 1.14286)" d="M309.618 511.658C316.281 513.441 316.552 518.903 316.163 524.794C314.716 546.717 305.513 554.633 285.437 559.413C282.102 559.262 280.497 558.138 278.939 555.19C279.687 548.73 294.679 551.863 301.68 543.402C311.693 531.3 302.801 522.105 309.618 511.658Z"/><path fill="#2FBFD4" transform="scale(1.14286 1.14286)" d="M266.582 318.151L288.933 318.31C290.328 344.606 305.707 341.91 322.743 358.976C335.325 371.58 340.066 383.035 340.349 400.545C337.624 404.307 334.23 408.438 333.473 413.102C332.297 420.358 339.805 422.01 340.208 429.269C340.635 436.932 335.349 441.659 333.601 448.768C333.065 450.949 333.18 455.298 333.192 457.615C300.917 472.183 284.442 451.075 254.078 444.206C247.788 442.783 242.581 443.083 236.239 443.308C232.07 444.079 229.638 444.549 225.637 445.844C224.222 446.536 224.014 446.745 222.418 446.583C218.028 443.592 215.918 437.478 214.409 432.559C219.12 414.662 228.318 419.503 214.329 399.919C215.045 376.575 226.404 362.224 244.869 349.039C261.278 337.323 264.558 338.673 266.582 318.151Z"/><path fill="#A9EBE8" transform="scale(1.14286 1.14286)" d="M225.637 445.844C224.694 438.807 222.889 414.108 230.433 411.484C232.132 411.761 234.714 413.029 235.101 414.748C237.074 423.516 236.347 434.375 236.239 443.308C232.07 444.079 229.638 444.549 225.637 445.844Z"/><path fill="#A9EBE8" transform="scale(1.14286 1.14286)" d="M252.811 351.462C255.211 351.263 255.779 351.458 257.182 353.449C257.27 354.424 257.326 355.588 256.678 356.377C251.109 363.156 245.253 368.132 240.684 375.808C235.926 383.803 237.313 390.108 235.381 398.704C234.594 402.206 233.302 403.001 230.4 404.64C222.599 401.4 223.718 393.585 225.472 386.728C229.271 371.865 239.75 359.262 252.811 351.462Z"/><path fill="#A9EBE8" transform="scale(1.14286 1.14286)" d="M263.932 343.355C265.619 342.984 267.297 344.019 267.722 345.694C268.147 347.368 267.166 349.078 265.506 349.557C264.383 349.881 263.173 349.568 262.349 348.739C261.525 347.911 261.218 346.7 261.547 345.579C261.877 344.458 262.791 343.605 263.932 343.355Z"/><path fill="#2FBFD4" transform="scale(1.14286 1.14286)" d="M264.459 296.711C274.538 296.233 284.637 296.34 294.704 297.031C294.978 300.14 296.129 307.647 294.27 310.114C293.776 310.768 293.012 310.719 292.078 310.915L260.424 310.572C260.288 307.355 259.647 301.129 260.995 298.382C261.743 296.859 262.988 296.978 264.459 296.711Z"/><path fill="#FEFEFE" transform="scale(1.14286 1.14286)" d="M689.937 387.186C752.579 380.939 762.176 499.73 696.028 506.563C657.229 509.181 641.434 470.939 645.269 437.846C648.445 410.448 661.335 390.369 689.937 387.186Z"/><path fill="#1535A6" transform="scale(1.14286 1.14286)" d="M688.865 408.46C720.909 404.32 723.639 451.735 713.505 471.682C709.587 479.395 704.422 482.854 696.428 485.381C662.331 487.805 661.321 433.796 677.202 415.084C680.566 411.12 684.119 409.922 688.865 408.46Z"/><path fill="#FEFEFE" transform="scale(1.14286 1.14286)" d="M577.108 387.201C627.671 382.505 640.445 454.957 616.561 487.601C607.977 499.333 597.525 504.451 583.526 506.691C528.137 508.387 519.377 438.009 546.172 402.152C553.409 392.467 565.443 388.294 577.108 387.201Z"/><path fill="#1535A6" transform="scale(1.14286 1.14286)" d="M575.097 408.419C606.902 406.73 608.535 442.884 602.191 466.165C599.791 474.972 592.914 481.33 584.727 485.134C552.514 490.862 549.793 442.379 559.168 422.747C563.03 414.661 566.961 411.424 575.097 408.419Z"/><path fill="#FEFEFE" transform="scale(1.14286 1.14286)" d="M843.812 418.061C857.131 416.649 865.852 423.607 874.365 432.753C879.527 426.751 884.737 421.56 892.487 419.5C930.941 409.282 936.808 445.948 935.904 474.917C935.496 488.001 937.422 518.118 915.157 502.927C905.821 484.298 924.534 439.867 896.057 438.212C873.297 436.89 878.491 477.028 878.158 490.626C877.687 495.62 873.806 511.62 865.782 507.803C844.783 497.812 863.615 462.155 853.152 445.64C848.109 437.68 838.589 435.838 830.63 441.449C814.884 454.083 825.494 478.877 821.626 496.346C817.867 513.323 799.934 508.428 799.383 493.966C798.514 471.149 798.349 447.305 800.598 424.616C800.761 422.981 804.376 418.967 806.243 418.666C814.903 416.772 819.491 422.052 822.368 429.386C829.457 422.625 834.153 419.763 843.812 418.061Z"/><path fill="#FEFEFE" transform="scale(1.14286 1.14286)" d="M466.618 386.63C502.693 382.894 529.354 422.948 492.938 443.516C499.964 446.866 505.802 450.619 510.016 457.389C513.861 463.547 515.032 471.005 513.259 478.045C507.245 502.974 476.333 511.349 454.507 505.033C443.165 501.751 425.289 493.962 428.603 478.775C430.167 471.605 438.775 473.374 443.749 475.116C453.204 481.488 461.16 487.547 473.349 485.569C481.848 484.189 492.917 477.812 490.466 467.489C487.648 455.627 474.666 454.334 464.6 454.564C462.004 454.624 458.239 453.661 456.13 452.206C451.939 449.532 451.857 442.229 454.801 438.671C458.934 433.676 467.326 435.043 473.093 434.222C477.23 433.634 482.181 431.916 484.705 428.372C488.994 422.347 487.716 414.22 481.367 410.224C475.178 406.55 469.673 407.112 462.707 408.562C454.756 410.217 442.121 420.929 434.136 415.434C430.166 412.702 430.307 404.382 433.593 400.493C442.011 390.527 454.238 387.937 466.618 386.63Z"/><path fill="#FEFEFE" transform="scale(1.14286 1.14286)" d="M964.384 376.358C966.647 376.191 969.112 376.156 971.341 376.676C973.916 377.277 976.1 378.729 977.409 381.06C980.549 386.649 980.459 490.862 977.57 501.087C976.75 503.988 973.511 505.526 971.021 506.794C958.336 507.49 957.162 502.759 956.508 491.211C956.035 482.859 956.091 474.416 955.994 466.049C955.785 448.748 955.811 431.445 956.072 414.145C956.21 404.404 955.995 392.483 957.485 382.876C957.925 380.037 962.007 377.792 964.384 376.358Z"/></svg>