<svg xmlns="http://www.w3.org/2000/svg" width="1792" height="1024" viewBox="0 0 1792 1024"><path fill="#6dfbf7" d="M71.98 135.1c86.55-98.22 157.23-94.13 276.79-94.3l170.33-.1 519.7.06h341.68l98.45-.03c28.08-.02 57.53-.75 85.21 3.42a251.4 251.4 0 0 1 131.24 61.56c16.1 14.28 41.59 42.56 50.79 62.2 9.05 10.52 19.37 39.51 23.6 53.2 11.56 37.46 10.08 77.22 10.07 116l-.03 103.47.07 114.96c.02 24.2.37 48-.91 72.06-5.01 93.64-65.59 176.24-152.4 211.07-9.55 3.83-20.13 6.33-29.68 10.06-18.39 13.6-47.73 24.06-69.79 29.18-41.34 9.6-87.32 7.65-129.84 7.64l-130.61-.02-474.3.07-317.17-.04H378.4c-71.38 0-118.37 1.66-181.57-37.58-33.75-11.84-53.97-20.05-83.12-41.87-53.27-39.87-86.56-95.57-95.3-161.72-3.19-24.09-2.5-50.12-2.5-74.63l-.07-87.2v-129.8c.09-90.29-2.94-141.16 56.13-217.67"/><defs><linearGradient id="a" x1="672.33" x2="674.04" y1="643.46" y2="105.02" gradientUnits="userSpaceOnUse"><stop offset="0" stop-color="#2a90b3"/><stop offset="1" stop-color="#3fc9d0"/></linearGradient></defs><path fill="url(#a)" d="m53.98 101.32.88 1.77c-.92 2.62-.47 6.67-1.23 7.8 4.67 1.2 11.1-9.49 23.28-.94-1.85 7-6.4 12.51-8.02 18.07-4.47 15.34-14.1 34.14-16.7 49.4-2.96 17.26-4.15 35.78-2.59 53.07 1.15 26.83 1.49 54.05 2.84 80.91 1.84 32.9.83 65.36 1 98.27.06 8.6-1 29.46 1.04 36.87a150.6 150.6 0 0 0 44 104.56 159.3 159.3 0 0 0 85.86 44.2c18.55 3.04 36.56 2.78 55.26 2.8l52.05-.01H470.5l638.09-.11c14.29-.06 31.74-.01 45.77-1.68a158 158 0 0 0 93.7-45.98c25.31-25.44 43.84-64.8 43.52-101.08 3.32-9.52.11-27.82.93-36.96.56-6.2.45-44.06 2.42-46.62a47 47 0 0 0 .36 9.02q.15-.89.25-1.78c1.18-10.56-.4-22.63.91-33.42.96-7.82.12-15.87.03-23.74l-.09-37.81c.01-16.12.8-32.27.82-48.43.01-7.07 1.85-17.75 1.24-24.82-1.26-9.94-2.03-20.3-3.69-30.2-1.75-10.36-8.29-22.38-10.83-32.81-1.02-3.25-1.97-6.54-3.28-9.68-2.22-4.96-5.14-4.59-5.9-10.36-.36-2.73-5.21-3.79-4.67-9.14l1.82-1.69c5.99.52 12.53 5.72 18.01 7.92.68.27 3.94-.15 4.37-.13 4.73.14 6.73 8.77 11.43 13.07 6.39-3.22 2.5-2.84 3.92-5.72 6.79 7.88 14.53 29.63 17.7 39.89 8.67 28.1 7.56 57.91 7.55 87l-.02 77.6.05 86.23c.02 18.14.28 36-.68 54.04-3.76 70.23-49.19 132.18-114.3 158.3-7.16 2.88-15.1 4.75-22.26 7.55-13.79 10.2-35.8 18.05-52.34 21.88-31.01 7.2-65.49 5.74-97.38 5.74l-97.96-.02-355.72.06-237.89-.04h-72.57c-53.53 0-88.78 1.25-136.18-28.18-25.31-8.88-40.48-15.04-62.34-31.4-39.95-29.91-64.92-71.68-71.48-121.3-2.39-18.06-1.88-37.58-1.87-55.97l-.05-65.4v-97.36c.06-67.7-2.2-105.86 42.1-163.24" transform="scale(1.33333)"/><path fill="#061420" d="M196.84 847.98c13.31 2.68 32.05 6.93 45.12 8.12 27.61 2.53 57.73 1.84 85.62 1.83H458.3l384.13.02h450.06l161.39-.01c31.6.02 63.93.85 95.44-1.14 16.93-1.08 31.68-5.73 47.56-8.07-18.39 13.6-47.73 24.06-69.79 29.18-41.34 9.6-87.32 7.65-129.84 7.64l-130.61-.02-474.3.07-317.17-.04H378.4c-71.38 0-118.37 1.66-181.57-37.58"/><path fill="#44d8d9" d="M71.98 135.1c86.55-98.22 157.23-94.13 276.79-94.3l170.33-.1 519.7.06h341.68l98.45-.03c28.08-.02 57.53-.75 85.21 3.42a251.4 251.4 0 0 1 131.24 61.56c16.1 14.28 41.59 42.56 50.79 62.2-1.9 3.85 3.3 3.34-5.23 7.63-6.26-5.73-8.93-17.23-15.24-17.43-.57-.01-4.92.55-5.82.19-7.31-2.94-16.03-9.88-24.02-10.56l-2.42 2.24c-.72 7.14 5.74 8.56 6.22 12.2 1.02 7.69 4.9 7.2 7.87 13.8 1.75 4.19 3.01 8.58 4.37 12.91 3.39 13.9 12.1 29.93 14.44 43.75 2.22 13.2 3.24 27 4.92 40.27.82 9.42-1.64 23.66-1.65 33.08-.03 21.55-1.08 43.09-1.1 64.58l.13 50.42c.12 10.48 1.24 21.22-.04 31.64-1.75 14.4.36 30.49-1.22 44.56q-.14 1.2-.33 2.39a63 63 0 0 1-.48-12.04c-2.63 3.42-2.48 53.9-3.23 62.17-1.1 12.18 3.19 36.58-1.24 49.27-.53-7.11-.12-19.6-.1-27.03l.44-56.65.2-158.1c-.12-37.02 1.72-77.77-8.4-113.1-25.6-89.3-109.84-149.19-201.99-148.6-33.05.2-66.48-.27-99.55-.27h-183.43l-537.72-.06-286.85.06-82.67.02c-25.44.01-51.96-.4-77.15 3.37-76.34 11.5-146.1 73.97-164.63 149.16-9.94 40.34-6.7 94.04-6.75 136.52l-.6 128.24c-.05 26.9.56 56.18-.26 82.85-2.72-9.88-1.31-37.7-1.37-49.16-.24-43.89 1.1-87.18-1.35-131.03-1.8-35.82-2.26-72.1-3.78-107.88-2.09-23.05-.5-47.75 3.44-70.75 3.48-20.36 16.32-45.42 22.27-65.88 2.16-7.41 8.22-14.75 10.7-24.1-16.25-11.39-24.82 2.87-31.05 1.25 1.03-1.5.42-6.9 1.64-10.39z"/><defs><linearGradient id="b" x1="671.73" x2="674.46" y1="594.84" y2="137.28" gradientUnits="userSpaceOnUse"><stop offset="0" stop-color="#0b3180"/><stop offset="1" stop-color="#174fd0"/></linearGradient></defs><path fill="url(#b)" d="M167.95 81.68c22.64-7.13 43.66-6.14 66.97-6.15h44.4l122.6.03 340.98.02 265.48-.04 85.32-.04c15.45-.02 35.03-.52 50.12.38a153 153 0 0 1 62.88 17.07 151.5 151.5 0 0 1 74.63 89.38c2.63 8.48 6.52 27.35 6.01 36 1.14 10.9.83 24.44.85 35.57l.02 54.1-.04 28.94c-.01 2.86.17 11.05-.17 13.4l.25 45.83c.03 7.23.37 18.62-.15 25.58.04 5.53.43 22.57-.47 27.34 1.39 23.37-11.5 57.24-24.53 76.58a154.8 154.8 0 0 1-97.94 65.05c-19.05 3.7-41.79 2.92-61.42 2.95l-71.57.08-268.77-.08-380.23-.04-117.28.01c-19.83.02-50.23.89-69.34-.92a154.6 154.6 0 0 1-73.67-26.7 147.6 147.6 0 0 1-62.06-94.12c-3.97-21.15-3.05-44.14-3.01-65.78l.02-71.7-.01-73.85c0-18.44-.57-41.3 2.5-59.27a145 145 0 0 1 24.05-59.35 153 153 0 0 1 66.78-54.48c4.67-1.96 11.83-4.87 16.8-5.79" transform="scale(1.33333)"/><defs><linearGradient id="c" x1="672.49" x2="673.54" y1="393.23" y2="74.62" gradientUnits="userSpaceOnUse"><stop offset="0" stop-color="#09349d"/><stop offset="1" stop-color="#1f60ec"/></linearGradient></defs><path fill="url(#c)" d="M167.95 81.68c22.64-7.13 43.66-6.14 66.97-6.15h44.4l122.6.03 340.98.02 265.48-.04 85.32-.04c15.45-.02 35.03-.52 50.12.38a153 153 0 0 1 62.88 17.07 151.5 151.5 0 0 1 74.63 89.38c2.63 8.48 6.52 27.35 6.01 36 1.14 10.9.83 24.44.85 35.57l.02 54.1-.04 28.94c-.01 2.86.17 11.05-.17 13.4-1.69-1.77.18-4.34-1.14-7.9l-.36-.05-.3 1.1-1.27.61c.15-8.71-.25-15.9-.76-24.59-.59-1.08-3.17-13.64-3.7-15.7a230 230 0 0 0-6.7-21.3c-14.06-37.57-42.21-88.41-68.09-118.98-5.1-6.49-9.36-15.25-13.63-20.67-9.95-12.63-26.23-26-39.22-35.22l-3.03-2.08c-17.64-11.13-10.49 3.38-16.02 11.27-13.75 4.94-10.38 27.6-17.74 37.66a81 81 0 0 0-4.49 6.98l.05-.37c-.91 1.8-4.46 9.14-5.4 10.45-11.92 16.73-28.02 30.29-40.98 46.09-2.18 2.66-3.43 3.35-6.58 4.53l.39-.58c11-15.85 62.26-60.32 40.49-81.6-5.64 1.61-12.79 4.39-18.2 5.51a946 946 0 0 1-26.59 3.42c-10.16 1.14-22.33 5.18-32.61 4.33a243 243 0 0 0-38.78-.35c-5.67.4-12.04-.64-17.77-.15-13.2.26-26.42 6.8-38.59 7.42-10.9.33-21.82.87-32.72 1.04-6.05.09-13.13-1.23-19.03-.67-21.42 2.05-42.93 2.86-64.41 4.4-8.72.61-20.02-.58-29.19-.51 2.12-.85 2.9-.76 4.16-2.36-3.89-1.64-10.58.3-15.07.27-1.77.07-1.34 2.68-2.42 2.67-9.05-.06-17.94 1.28-26.98 1.4-2.46.05-5.96 2.56-8.29 2.3-23.33-2.56-46.8 1.47-69.92-1.3-5.19-.63-10.1-2.53-15.48-2.24-15.05-1.02-30.1 3.9-45.01 3.17l-.15 1.04c-1.89.49-20.53-1.43-25.02-1.37-16.75.18-33.5.6-50.24.32-2.96.1-7 1.67-9.88 1.4-19.4-1.82-38.75-1.76-58.21-1.08-3.36.12-7.54-1.17-11-1.26-2.23-.06-4.36-.28-6.6-.28-9.45-.02-18.06 4.48-27.25 5.45-10.19-.44-19.73 1.2-29.8-.93-.36-.07-4.08.68-4.53.83-11.74 3.9-21.35-3.35-32.46-4.6-3.8-.42-9.37 1.59-13.29 1.67-15.69-2.85-31.28-1.65-47.11-1.34-1.6.04-3.2 1.43-4.8 1.65-5.97-.1-13.8 1.13-19.4.84l-1.35 1.43c-13.63-.75-23.62.57-36.6 1.03-11.14.39-25.72-3.57-37.52-2.21-2.93.05-6.5 1.88-8.98 2-9.12.46-17.8 1.63-27 1.48-16.11-.26-32.7-6.67-48.64-6.28-19.94.49-26.9 27.84-30.63 43.32-.7 2.85-1.68 5.65-2.27 8.5-1.06 7.04-.5 14.08-2.5 20.98-1.52 5.22 1.54 13.05-1.55 18.42.41 7.56 3.82 31.57.55 37.46 2.13 3.33.49 35.45 1.1 41.97l-1.14 1.3-1.06 2.52-.08-2.59-.68-.46c-.51 5.18-.21 10.51-.3 15.76-.2 11.64.45 23.44-.24 35.06-.04.78-1.63 1.87-2.25 2.33 1.43-11.15.48-164.37-.4-165.58-.83 2.24-.6 59.85-1 68.56-1.15-7.08-.49-20.1-.59-27.63-.18-20.33-1.42-43.2 1.35-63.14 6.87-49.35 40.57-93.88 85.7-114.7 3.28-1.51 19.86-7.11 21.15-8.53" transform="scale(1.33333)"/><path fill="#66d8ed" d="M1533.06 140.74c35.9 2.49 79.86 65.53 101.86 91.19 4.46 5.2 14.52 24.35 20.74 24.07 13.32-.6 24.2 3.67 22.95 19.67.97 4.1-.15 3.87-2.44 8.46l.6.3c7.1 3.63 10.36 19.23 14.76 26.42 6.7 10.97 1.8 29 10.25 39.19-.46-.56 14.1 6.4 14.36 6.48-.4-8.44-1.86-59.66.3-65.42 1.53 14.54 1.12 32.6 1.14 47.44l.03 72.11-.05 38.6c-.02 3.82.22 14.73-.23 17.86-2.25-2.35.24-5.78-1.52-10.52l-.48-.07-.4 1.47-1.7.81c.2-11.62-.33-21.2-1-32.79-.8-1.44-4.23-18.18-4.94-20.94q-3.78-14.41-8.93-28.4c-18.75-50.08-56.28-117.87-90.8-158.63-6.8-8.65-12.47-20.34-18.16-27.56-13.27-16.84-34.98-34.66-52.3-46.96z"/><defs><linearGradient id="d" x1="1300.05" x2="1263.41" y1="279.15" y2="321.64" gradientUnits="userSpaceOnUse"><stop offset="0" stop-color="#358acc"/><stop offset="1" stop-color="#4ee0e6"/></linearGradient></defs><path fill="url(#d)" d="M1258.96 206.75c.73 3.08-.11 2.9-1.83 6.34l.45.23c5.33 2.73 7.77 14.43 11.07 19.82 5.02 8.22 1.35 21.75 7.69 29.4-.35-.43 10.58 4.79 10.77 4.85-.3-6.33-1.4-44.74.23-49.06 1.14 10.9.83 24.44.85 35.57l.02 54.1-.04 28.94c-.01 2.86.17 11.05-.17 13.4-1.69-1.77.18-4.34-1.14-7.9l-.36-.05-.3 1.1-1.27.61c.15-8.71-.25-15.9-.76-24.59l.54-.45c.45-7.83.54-13.53-2.11-21.22-8.12-23.56-17.45-50.29-27.95-72.78-.37-1.09-4.5-9.99-3.62-10.52 4.02-2.45 5.23-2.72 7.59-7.13z" transform="scale(1.33333)"/><path fill="#09bdda" d="M1533.06 140.74c35.9 2.49 79.86 65.53 101.86 91.19 4.46 5.2 14.52 24.35 20.74 24.07 13.32-.6 24.2 3.67 22.95 19.67l-.45.87c-3.15 5.88-4.76 6.24-10.12 9.5-1.18.73 4.33 12.59 4.82 14.03-3.53-4.6-6.64-8.5-9.53-13.58-3.52-6.16-7.27-17.06-10.99-22.55-16.64-24.55-36.02-52.23-55.84-74.28-12.72-14.17-40.8-45.17-59.4-46.14z"/><path fill="#2166b8" d="M85.9 416.46c-1.56-31.16-.6-71.55-.03-103l.77-.65c1.63 9.93-1.06 23.17 1.14 33 .56 10.07 5.1 42.09.74 49.93 2.84 4.44.65 47.27 1.47 55.96l-1.53 1.74c-.2-.48-2-3.21-2-3.28-1.12-7.44-2.3-19.73-1.36-26.96.46-3.56.63-3.15.8-6.74"/><path fill="#09bdda" d="M1652.96 191.52c20.38-1.69 25.05 16.86 3.62 21.75-3.77.86-9.02 3.31-11.84 6.12l-.56.58c-2.14 3.88-2.52 7.85-7.04 9.32l-1.36-1.28c-3.22-12.23 7.1-29.58 17.18-36.49"/><path fill="#6dfbf7" d="M1654.78 194.24c7.63-.38 11.54 2.21 12.22 9.92-3.06-1-8.44-7.1-12.22-9.92"/><path fill="#3caccb" d="M1619.97 183.44c4.15-.02 5.45-.1 7.33 3.44-.18 4.32-4.04 10.12-6.24 14.14-1.54.83-1.14.56-3.14.48-4.78-5.01-2-13.33 2.05-18.06"/><path fill="#44d8d9" d="M1511.7 155.77c7.38-10.52-2.16-29.86 21.36-15.03l4.04 2.78c17.32 12.3 39.03 30.12 52.3 46.96 5.69 7.22 11.37 18.9 18.17 27.56 34.5 40.76 72.04 108.55 90.79 158.64a306 306 0 0 1 8.93 28.39c.7 2.76 4.15 19.5 4.93 20.94.68 11.58 1.22 21.17 1.02 32.8l-.12.54c-1.56 7.5-1.44 15.51-3.4 23.36-11.31 45.29-32.27 76.83-71.06 102.62a178.2 178.2 0 0 1-132.61 26.44c-46.8-9.4-84.05-36.98-111.12-76.09-5.43-7.83-9.59-17.05-14.55-24.48-5.16 5.34-10.24 12.6-15.6 16.48-9.65 5.87-16.77 9.49-28.36 11.01-1.53 0-4.3-.3-5.94-.44-5.47.28-15.03-.6-18.12-5.57-.04-8.86 13.97-12.12 20.67-14.03l2.27-.73c1.55-.82 2.35-2 3.48-3.35l9.75-7.12c5.3-9.68.75-38.42.52-49.32-.4-20.34-2.08-38.77 5.77-58.01 1.82-4.47-.86-16.68 6.04-16.9l.83 1.88c.59-1.64 2.61-5.24 2.63-6.82.05-7.33-2.79-8.68.77-15.75.9 1.3 1.23 1.46 2.41 2.44l1.74-.5-1-2.83c2.42-4.76 9.2-18.78 11.86-22.66 9.86-14.32 21.36-28.55 31.42-42.75 4.2-1.58 5.86-2.5 8.77-6.05 17.28-21.06 38.75-39.14 54.64-61.44 1.25-1.75 5.99-11.54 7.2-13.94l-.07.5c1.86-3.18 3.82-6.34 5.99-9.32 9.81-13.42 5.32-43.62 23.65-50.21"/><path fill="#09bdda" d="M1607.57 218.04c34.5 40.76 72.04 108.55 90.79 158.64a306 306 0 0 1 8.93 28.39c.7 2.76 4.15 19.5 4.93 20.94.68 11.58 1.22 21.17 1.02 32.8l-.12.54c-1.56 7.5-1.44 15.51-3.4 23.36-11.31 45.29-32.27 76.83-71.06 102.62a178.2 178.2 0 0 1-132.61 26.44c-46.8-9.4-84.05-36.98-111.12-76.09-5.43-7.83-9.59-17.05-14.55-24.48-5.16 5.34-10.24 12.6-15.6 16.48-9.65 5.87-16.77 9.49-28.36 11.01-1.53 0-4.3-.3-5.94-.44-5.47.28-15.03-.6-18.12-5.57-.04-8.86 13.97-12.12 20.67-14.03l2.27-.73c1.55-.82 2.35-2 3.48-3.35l9.75-7.12c7.39-4.87 11.95-11.71 15.43-19.77l.34.67 1.36.39c2.84-2.36 4.94-7 6.75-10.38-3.1-21.47-2.97-37.25.52-58.31 2.5 3.87 4.21 23.2 4.95 29.25 8.14 68.03 82.89 91.15 141.64 84.9a4.44 4.44 0 0 0 6.94-1.36c24.3-5.5 76.42-37.55 81.74-62.57 6.06-6.7 9.18-11.11 13.1-19.21 5.62-5.22 9.23-19 11.36-26.06 12.04-39.72-.93-84-21.81-118.43-3.07-5.05-4.24-7.44-4.12-13.52a7 7 0 0 0-4.05-4.62c9.18-31.09 3.73-39.06 4.89-70.4"/><path fill="#66d8ed" d="m1699.05 460.98 1.39 1.63c3.48 13.44-6.3 45.95-12.6 58.98a158 158 0 0 1-90 80.16c-37.94 13.05-80.98 11.88-117.26-5.83q-.94-.56-1.82-1.19c-1.1-.76-4.66-3.54-5.26-4.44-16.93-25.42 35.94-11.72 45.48-10.24q8.43 1.32 16.96 1.4a151.6 151.6 0 0 0 133.03-72.78c6.9-11.36 20.84-39 29.33-47z"/><path fill="#44d8d9" d="M1650.56 471.34a9.23 9.23 0 1 1 6.75 17.18 9.23 9.23 0 0 1-6.75-17.18M1681.94 437.11a6.8 6.8 0 1 1 2.47 13.37 6.8 6.8 0 0 1-2.47-13.37M1669.64 368.89a4.76 4.76 0 0 1 6.33 5.55 4.79 4.79 0 0 1-9.2.37 4.77 4.77 0 0 1 2.87-5.92"/><path fill="#66d8ed" d="M1656.69 505.48a4.7 4.7 0 1 1 3.07 8.9 4.7 4.7 0 0 1-3.07-8.9"/><path fill="#44d8d9" d="M1597.5 508.12a4.5 4.5 0 1 1 4.71 7.65 4.5 4.5 0 0 1-4.7-7.65"/><path fill="#2166b8" d="M1411.52 296.23c4.2-1.58 5.86-2.5 8.77-6.05 17.28-21.06 38.75-39.14 54.64-61.44 1.25-1.75 5.99-11.54 7.2-13.94l-.07.5c1.86-3.18 3.82-6.34 5.99-9.32 9.81-13.42 5.32-43.62 23.65-50.21-4.8 13.05-5.64 22.26-8.54 35.67-2.46 11.4-8.22 23.04-14.02 33.08-29.9 51.78-81.77 83.87-107.42 138.76-3.83 8.2-9.3 19.12-10.83 28.1 2.16 4.04 1.03 11.8 2.3 16.47.97 3.45-.75 9.5-.26 12.2-3.5 21.06-3.61 36.84-.52 58.3-1.81 3.38-3.9 8.03-6.75 10.39l-1.36-.39-.34-.67c-3.48 8.06-8.04 14.9-15.43 19.77 5.3-9.68.75-38.42.52-49.32-.4-20.34-2.08-38.77 5.77-58.01 1.82-4.47-.86-16.68 6.04-16.9l.83 1.88c.59-1.64 2.61-5.24 2.63-6.82.05-7.33-2.79-8.68.77-15.75.9 1.3 1.23 1.46 2.41 2.44l1.74-.5-1-2.83c2.42-4.76 9.2-18.78 11.86-22.66 9.86-14.32 21.36-28.55 31.42-42.75"/><path fill="#66d8ed" d="M1370.89 391.38c2.16 4.04 1.03 11.8 2.3 16.47.97 3.45-.75 9.5-.26 12.2-3.5 21.06-3.61 36.84-.52 58.3-1.81 3.38-3.9 8.03-6.75 10.39l-1.36-.39-.34-.67c.78-6.12-.91-23.05-.99-30.43-.27-25.5 1.76-41.59 7.92-65.87"/><path fill="#061420" d="M1573.09 373.2c29.12 7.7 29.15 48.89 23.81 72.93-2.73 12.38-9.62 21.85-21.72 26.12-28.94-23.87-30.28-74.38-2.1-99.05"/><path fill="#fafcfc" d="M1573.97 408.37a6.49 6.49 0 1 1 4.02 12.33 6.49 6.49 0 0 1-4.02-12.33"/><path fill="#fafcfc" d="M1573.09 373.2c9.64-11.82 25.76-7.5 35.67 1.49 21.9 19.85 21.25 50.6 12.54 76.37-3.92 8.1-7.04 12.5-13.1 19.21-9.54 6.8-23.2 10.86-33.02 1.98 12.1-4.27 18.99-13.74 21.72-26.12 5.34-24.04 5.3-65.23-23.81-72.93"/><path fill="#b7edf5" d="M1606.73 293.05a6.98 6.98 0 1 1-13.48 3.62 6.98 6.98 0 0 1 13.48-3.62M1519.52 534.2a4.41 4.41 0 1 1 5.93-6.53 4.41 4.41 0 0 1-5.93 6.54"/><path fill="#061420" d="m1468.97 373.8-1.13-.7c5.49-8.74 22.6-8.42 30.65-2.67 15.15 10.83 21.21 26.62 22.32 44.77 1.75 23.15-7.24 54.91-32.27 61.62-5.26 1.41-14.21-.92-18.48-4.26l-.57-.32c-28.47-16.38-27.95-69.98-8.3-93 2.18-2.57 4.49-4.58 7.78-5.43"/><path fill="#fafcfc" d="m1468.97 373.8-1.13-.7c5.49-8.74 22.6-8.42 30.65-2.67 15.15 10.83 21.21 26.62 22.32 44.77 1.75 23.15-7.24 54.91-32.27 61.62-5.26 1.41-14.21-.92-18.48-4.26q2.49-1.06 4.84-2.34c18.47-10.04 20.82-43.39 18.16-62.03-2.33-16.34-7.1-29.74-24.09-34.38"/><path fill="#fafcfc" d="M1468.32 408.37a6.4 6.4 0 1 1 4.4 12 6.4 6.4 0 0 1-4.4-12"/><path fill="#061420" d="M1512.84 510.95c-6.98-4.57-19.5-18.05-13.72-26.73 7.64-1.95 19.06-.75 27.33-1.97 5.95-.87 23.25-8.7 27.15-5.61 1.54 3.5 1.2 7.9 1.18 11.8-4.9 16.7-25.94 34.26-41.94 22.51"/><path fill="#1db8a1" d="M1554.78 488.43c-4.9 16.71-25.94 34.27-41.94 22.52 11.65-16.6 21.86-22.35 41.94-22.52"/><path fill="#66d8ed" d="M1508.29 202.16c-8.43 45.69-73.48 98.98-100.68 135.35-16.17 21.6-18.81 35.3-29.79 56.54-1.57-9.9 11.87-33.33 16.51-41.91 15.87-29.4 40.9-52.16 62.92-76.73 6.76-7.54 13.57-17.11 19.72-25.22a252 252 0 0 0 17.88-26.6c2.52-4.31 7.5-14.7 10.03-17.53z"/><path fill="#b7edf5" d="M1426.92 346.35c1.49.62 1.61 1.12 2.42 2.5-.48 6.93-9.32 23.36-12.5 30.69-5.11 11.7-6.56 22.08-10.11 34.23-1.92 6.63-1.99 7.3-7.72 10.37-15.01-13.94 13.37-66.72 27.9-77.8M1527.5 195.5c3.72.38 8.14 3.88 8.03 7.71-.27 9.68-10.53 19-16.73 25.43-1.11 1.18-1.79 1.56-3.11 2.43l-.76-1.44c.7-7.85 8.7-27.3 12.57-34.13"/><path fill="#061420" d="M1588.72 341.6c13.96-.3 17.52 4.4 24.08 15.58-7.76-4.02-11.2-5.48-19.54-7.06-11.37.3-15.74 2.3-26.44 6.04l.46-.63c6.45-9.12 10.6-12.15 21.44-13.94M1468.42 342.27c9.16-.76 24.16.15 26.1 11.64-1.59.75-12.3-2.95-16.42-3.63-9.28-.19-18.88 4.67-23.4 3.34l.07-1.66c4.6-5.8 6.77-6.77 13.65-9.7"/><path fill="#fafcfc" d="M1396.5 433.81a8.66 8.66 0 0 1 3.91 16.84 8.64 8.64 0 1 1-3.9-16.84"/><path fill="#b7edf5" d="M1570.33 251.67a5.46 5.46 0 1 1 4.49 9.96 5.46 5.46 0 0 1-4.5-9.96M1513.78 283.98a4.27 4.27 0 1 1 4.79 7.1 4.28 4.28 0 0 1-4.79-7.1M1408.84 464.36a3.99 3.99 0 1 1 4.72 6.42 3.99 3.99 0 0 1-4.72-6.42"/><path fill="#3caccb" d="m1713.24 458.8 1.69-.81.4-1.47.48.07c1.76 4.74-.73 8.17 1.52 10.52l.33 61.1c.04 9.65.5 24.84-.2 34.12.06 7.37.58 30.1-.62 36.46-.18-3.03-.14-5.86-1.11-8.7-.99-11.36-.03-24.17-.5-35.64-.2-4.48 2.38-9.27-.17-13.21-3.32-2.1-11.9-.87-14.56 2.04-2.5 2.74-1 10.19-3.44 13.23-5.7 7.13-13.04 12.87-18.42 20.35-.8 1.1-3.42 2.65-5.15 2.6-3-.43-4.32-.87-7.13.43l-.71 1.36c3.7-.05 7.28-.64 10.05 1.57-15.37-1.1-17.52 5.88-27.82 15.22-12.26 10.39-27.46 17.93-43.4 20.46-37.95 7.89-88.31 7.9-126.34-.67-17.36-3.9-31.64-16.78-52.72-15.08.95-1.06 2.67-1.5 4.07-2.02-3.67-7.86-20.32-10.01-27.57-14.32a6.82 6.82 0 0 1-3.3-12.15c-.12-.56-31.04-42.76-33.84-46.58 5.36-3.88 10.44-11.14 15.6-16.48 4.96 7.43 9.12 16.65 14.55 24.48 27.07 39.11 64.32 66.69 111.12 76.09 45.96 8.95 93.6-.55 132.61-26.44 38.79-25.79 59.75-57.33 71.06-102.62 1.96-7.85 1.84-15.87 3.4-23.36z"/><path fill="#2f84c9" d="M1673.49 579.47c-.57-2.7-1.32-4.52-2.3-7.05 1.94-4.1 7.43-5.82 9.58-8.97 7.36-10.77 14.3-21.68 22.48-31.87 5.03-6.29 5.3-4.95 12.16-7.7.16-1.4.35-2.66.56-4.05 1.75 4.62.96 34.3 1.5 42.5.05 7.37.57 30.1-.63 36.46-.18-3.03-.14-5.86-1.11-8.7-.99-11.36-.03-24.17-.5-35.64-.2-4.48 2.38-9.27-.17-13.21-3.32-2.1-11.9-.87-14.56 2.04-2.5 2.74-1 10.19-3.44 13.23-5.7 7.13-13.04 12.87-18.42 20.35-.8 1.1-3.42 2.65-5.15 2.6"/><path fill="#2166b8" d="M1604.48 618.5c-.74-1.3-.47-.61-.48-2.2 2.89-2.21 32.12-11.7 37.18-17.33 1.1-1.22 1.22-1.22 2.64-2.1l4.06 1.17c-12.26 10.39-27.46 17.93-43.4 20.46"/><path fill="#09bdda" d="M1398.62 574.26a6.81 6.81 0 1 1 8.33 10.78 6.81 6.81 0 0 1-8.33-10.78"/><path fill="#48afe6" d="M1647.88 598.04c10.3-9.34 12.45-16.32 27.82-15.22 7.42 2.96 13.64 12.75 9.5 19.7-10.55 17.76-54.74 23.59-73.24 24.2-20.94.28-41.75.8-62.71.27-2.17-.06-3.3.28-4.95 1.59.44 9.9 14.07 10 21.52 9.45 5.3.4 16.5.13 19.1 5.23l-1.16 1.93c-15.3 9.85-117.43 14.25-131.48 1.02l.42-1.29c7.04-4.9 33.67-2.9 38.16-9.81-4.77-9.42-69.48-7.06-70.21-28.28 1.37-2.56 2.12-2.75 4.77-4.08 21.08-1.7 35.36 11.17 52.72 15.08 38.03 8.56 88.39 8.56 126.34.67 15.94-2.53 31.14-10.07 43.4-20.46"/><path fill="#fafcfc" d="M1674.77 588.46c17.4 14.26-21.59 26.54-31.3 28.78l-1.85-.36-.22-.96c3.08-2.68 9.58-4.25 13.65-6.27 13.28-6.58 15.03-8.4 19.72-21.19"/><path fill="#2166b8" d="M1716.84 598.79c1.85 31.15-15.34 76.31-32.71 102.1a206.4 206.4 0 0 1-130.59 86.73c-25.4 4.94-55.72 3.9-81.89 3.93l-95.43.11-358.36-.1-506.96-.05H354.52c-26.45.03-66.98 1.2-92.46-1.22a206 206 0 0 1-98.22-35.6A196.9 196.9 0 0 1 81.1 629.2c-5.3-28.2-4.06-58.86-4.01-87.7l.03-95.61-.02-98.46c.01-24.59-.76-55.08 3.35-79.03a193 193 0 0 1 32.05-79.14 204.3 204.3 0 0 1 89.05-72.63c6.22-2.61 15.76-6.5 22.4-7.72-1.73 1.88-23.83 9.35-28.21 11.37-60.17 27.75-105.1 87.14-114.26 152.94-3.7 26.59-2.04 57.07-1.8 84.17.13 10.05-.76 27.4.8 36.85.5-11.6.2-88.43 1.32-91.41 1.17 1.6 2.44 205.9.53 220.77-2.21 16.53-.11 39.7-1.65 56.68l-.33-10.9h-.4c-10.82 124.94 85.58 221.64 207.91 220.4 21.62-.22 43.6.22 65.27.2l145.37-.1 469.67.01 380.57-.01 114.19.06c30.77.02 64.05 1.35 94.17-4.94 32.01-6.69 63.68-22.97 88.55-44.2a198 198 0 0 0 47-58.2l-.27-1.62-1.1.25-1.18 3.7c-2.56.85-3.27 1.66-5.19.74.9-2.64 7.1-4.83 4.96-11.97-.18-.64 6.18-9 7.82-9.79 1.14 2.76-1.78 7.39-1.5 10.96 2.3-4.21 7.52-14.18 6.23-18.65q-.41-1.44-.9-2.87l.9-1.64 1.28-.33-.39-.59-.58.47.92-.1-.2 5.35.64.1c.6-2.59 1.78-4.02 2.56-6.42 6.46-19.85 7.17-39.78 9.09-60.1.97 2.84.93 5.67 1.1 8.7"/><path fill="#48afe6" d="M1277.56 522.36c.54-7.36-1.44-10.75-1.19-17.4 2.96-3.25 6.84-2.45 11.52-2.13 11.2.79 20.67 1 31.71-1.53 3.57-.82 10.8-3.39 13.71-3.62l.78 2.79c-.85 5.07-3.27 14.18-1.06 18.18-6.7 1.9-20.71 5.17-20.67 14.03 3.1 4.97 12.65 5.85 18.12 5.57 1.64.13 4.41.44 5.94.44-1.08 6.96-3.69 38.48-8.17 41.2-12.5 7.63-49 10.04-58.99-3.8-2.3-3.2-2.23-8.41-2.29-12.14l2.76-1.09 4.07-3.79c-.3-1.81-.46-3.99-.66-5.85l-3.3-2.65c7.22-3.1 6.92-7.25 7.15-14.13l1.73-1.47c-.2-4.86-.37-7.84-1.16-12.61"/><path fill="#fafcfc" d="M1273.8 559.07c2.96 1.9-4.8 13.45 8 15.8 12.8 2.34 27 3.62 39.65-.48 6.04-1.96 4.67-11.69 6.53-17.1l1.74-.66c2.36 13.36-1.7 22.2-16.17 24.02-12.6 1.58-29.41 1.12-40.67-5-3.52-1.97-3.12-9.28-3.15-12.79z"/><path fill="#fafcfc" d="M1278.72 534.97c.57 4.15 2.3 28.95 1.02 31.64l-1.18.6c-4.87-4.68-.9-10.13-5.42-13.99l-3.3-2.65c7.22-3.1 6.92-7.25 7.15-14.13zM1330.73 538.84c3.39 3.62 1.24 13.26-.87 17.33-1.99-3.86-1.46-13.69.87-17.33"/><defs><linearGradient id="e" x1="974.89" x2="976.31" y1="386.1" y2="356.47" gradientUnits="userSpaceOnUse"><stop offset="0" stop-color="#ddf3f4"/><stop offset="1" stop-color="#fcfcfd"/></linearGradient></defs><path fill="url(#e)" d="M948.76 356.71c16.29 5.24 40.14 5.37 55.94-.77-.57 5.09-3.31 28.16-3.22 32.5l-1.7.55c-1.66-3 .15-9.84.79-13.64l-.58-2.1c-2.19.18-7.61 2.11-10.29 2.73-8.27 1.9-15.38 1.73-23.78 1.15-3.51-.25-6.42-.85-8.64 1.6-.19 4.98 1.3 7.52.9 13.04l-1.05-.35c-.26-3-2.28-13.26-4.86-14.55-.83.62-1.3 1.01-2.35 1.18l-.4-2.4c-.28-6.16-.7-12.82-.76-18.94" transform="scale(1.33333)"/><path fill="#b7edf5" d="M1266.03 500.86c2.07-6.02 2.55-5.7 8.44-8.73 10.51-5.41 52.84-5.63 59.6 3.32.53 2.44.71 2.7.02 5.02l-.78-2.8c-2.9.24-10.14 2.81-13.7 3.63-11.05 2.53-20.52 2.32-31.72 1.53-4.68-.32-8.56-1.12-11.52 2.13-.25 6.65 1.73 10.04 1.2 17.4l-1.4-.47c-.34-4-3.04-17.68-6.48-19.4-1.1.82-1.74 1.35-3.14 1.58z"/><path fill="#09bdda" d="M1255 526.31c-5.7-3.86-13.63-12.27-7.46-18.98 5.17-5.62 8.29-4.85 15.16-5.47 1.98.69 2.52.7 3.85 2.2 1.4-.22 2.04-.75 3.14-1.57 3.44 1.72 6.14 15.4 6.48 19.4l1.4.47c.78 4.77.95 7.75 1.15 12.6l-1.73 1.48c-.23 6.88.07 11.04-7.15 14.13l-1.38-1.9c-2.89-1.02-3.22-.37-6.61.36-10.85-4.07-20.28-10.97-7.29-20.79z"/><path fill="#fafcfc" d="M1277.56 522.36c.8 4.77.96 7.75 1.16 12.6l-1.73 1.48c-1.6-2.32-4.04-5.26-5.83-7.54 1.79-2.2 3.4-4.67 5-7z"/><path fill="#3caccb" d="M1255 526.31c3.21.52 9.11 1.3 12.06 2.08l-1.56.93 2.86.06-.74-.7c-2.65 1.39-9.83.03-13.06-.44z"/><path fill="#2f84c9" d="M1273.13 460.63c17.8-3.8 50.3-5.56 66.04 4.32 1.44 2.53 1.28 1.38.56 4.3-10.04 9.06-68.6 9.21-76.11-.44 3-4.83 3.97-6.42 9.5-8.18"/><path fill="#48afe6" d="M1272.7 458.5c15.68-6.76 48.97-3.3 65.2 3.13l1.66.67c1.97 1.5 3.73 2.28 3.82 5.04.51 14.94-3.16 32.42-4.6 47.23-1.13 1.34-1.93 2.53-3.48 3.35-.12-5.79 3.54-36.55 4.3-43.33-21.07 8.18-52.87 8.01-74.59 1.02.07 8.16.65 17.04 1.02 25.25l.52 3.2c-1.33-1.5-1.87-1.51-3.85-2.2-1.62-5.76-2.79-28.6-1.86-34.27.41.19 2.5 1.18 2.78 1.22 7.52 9.65 66.07 9.5 76.11.43.72-2.9.88-1.76-.56-4.3-15.73-9.87-48.24-8.12-66.04-4.3z"/><path fill="#1c5ca6" d="M89.99 451.7c-.35-1.07.1 53.04-.02 53.83l-.51 3.4-1.41 2.06c2.19 17.99-3.67 50.46-1.28 65.04l.23 4.75-.61.65c-.63-8.19-1.3-17.05-1.4-25.26-.07-6.02 1.36-11.84.9-18.09l-1.04-.02c-2.7 14.52-.46 28.08-1.71 42.53-.59 6.73 1.78 25.32.46 29.61-3.56-3.12-2.48-23.91-2.93-29.92 1.54-16.99-.56-40.15 1.65-56.68.83-.61 2.94-2.07 3-3.11.92-15.5.06-31.23.32-46.75.12-7-.28-14.1.4-21l.91.61.1 3.45 1.41-3.36z"/><path fill="#2166b8" d="M1565.82 638.03c-7.45.56-21.08.44-21.52-9.45 1.66-1.31 2.78-1.65 4.95-1.6 20.96.53 41.77.02 62.7-.26-19.26 5.08-37.02-.83-55.97 4.08 2.14.83 18.35 2.25 21.15 2.23l.12 1.08c-2.93.24-17.1 1.27-18.76.43l.97-1.75c-2.57-.68-10.76-1.7-13.33-1.25l.28 1.04c9.1 4.9 13.56 2.78 19.41 5.45"/><path fill="#09bdda" d="M1261.85 549.03c3.39-.73 3.72-1.38 6.61-.36l1.38 1.9 3.3 2.65c.2 1.86.37 4.04.66 5.85l-4.07 3.8-2.76 1.08c-10.85-.77-17.13-7.67-5.12-14.92"/><path fill="#2166b8" d="M89.46 508.93c.32 8.43 1.7 74.54.7 77.42l-.87.83c.2 2.99.93 8.75-.04 11.24l-.85-.61c-.84-6.86 1.6-19.06-1.63-21.78-2.39-14.58 3.47-47.05 1.28-65.04z"/><path fill="#fafcfc" d="M1260.84 467.59c-1.54-6.62-4.98-4.34-8.1-7.2a97 97 0 0 0 3.16-1.9c3.82-2.4 5.36-4.18 6.26-8.73l1.8 2.83c2.85 4.34 2.88 4.77 7.88 5.74l.86.16.43 2.14c-5.54 1.76-6.52 3.35-9.51 8.18-.28-.04-2.37-1.03-2.78-1.22"/><path fill="#2166b8" d="M815.14 780.53c2.91-1.22 6.17-1.15 9.4-1.35-2.42-.58-11.51-.07-14.66-.24-14.5-.76-37.24 1.27-51-.3l.27-.79c4.55-.57 16.75-.27 21.8-.27l48.72.36 48.66-.33c4.92-.02 17.41-.44 21.73.51l-.2.66c-3.4 0-18.3 0-20.58.85 4.89.32 42.74.73 44.23-.64-5.23.08-14.8.5-19.49-.52 1.61-.94 207.17-1.56 222.83-.55 14.04-.79 96.54-1.96 106.12 1.58 2.45.91 4.38 1.04 6.95 1.05 8.51-.4 46.71-5 51.4-2.36-2.8 2.54-1.4-.47-4.85 2.48 6.4-.84 16.68-.85 23.4-.85 8.63 0 32-5.12 37.65.68-1.72.28-7.63 1.32-8.98 1.22a657 657 0 0 1-16.29-.37l.78 1.59c2.91-.06 5.77-.46 8.26.82-1.74 1.29-1.64 1.24-3.75 1.74-17.6 1.83-36.79.89-54.5.48-9.74-.23-20.42 1.75-28.83 1.58l-.63-.65 1.42-1.29-.51-.24c-4.24.77-10.56.02-15.13.37-36.73 2.75-74.08-1.37-110.9.9-3.9.24-7.71.2-11.6.08l1.54-.3c-12.73-1.29-28.09.3-41.04.3-11.15 0-20.75-.93-31.96-.69-10.13 2.58-19.6-.96-30.12.16-5.59.6-9.81.95-15.43.03l6.46-2.4-.54-.16-.9-.25c-2.76-.77-3.14-1.12-5.88-.61l1.54.2-.25 1.06c-11.17 5.3-25.56 1.9-36.87 2.9l2.6.24c-5.83.9-23.93-.79-30.1-1.75l.4-.65 5.56-.22.86-1.05c-5.01 2.9-59.73-2.05-71.65-2.08-1.62-.4-4.95.46-7.27.35-12.83-.6-25.98.7-38.67-1.28"/><path fill="#1c5ca6" d="M1035.4 786.04c-9.92.12-12.1-1.82-20.81-2.37 9.96-1.32 23.84-.67 34.23-.62l47.95-.13c56.89-.2 118.03-1 174.65.14l.4.9c-2.41.95-23.7 1.96-26.82 1.66l-.51-.24c-4.24.77-10.56.02-15.13.37-36.73 2.75-74.08-1.37-110.9.9-3.9.24-7.71.2-11.6.08l1.54-.3c-12.73-1.29-28.09.3-41.04.3-11.15 0-20.75-.93-31.96-.69"/><path fill="#124093" d="M1126.85 777.92c14.04-.79 96.54-1.96 106.12 1.58 2.45.91 4.38 1.04 6.95 1.05-5.8 1.42-52.59-.08-62.03-.01-13.6.1-33.95-.19-48.02-.55-1.9-.05-1.61-.4-3.02-2.07"/><path fill="#1c5ca6" d="m988.99 782.8 1.54.22-.25 1.05c-11.17 5.3-25.56 1.9-36.87 2.9l2.6.24c-5.83.9-23.93-.79-30.1-1.75l.4-.65 5.56-.22.86-1.05c14.84-1.82 40.7-.28 56.26-.73"/><path fill="#124093" d="M1286.47 780.67c6.4-.84 16.68-.85 23.4-.85 8.63 0 32-5.12 37.65.68-1.72.28-7.63 1.32-8.98 1.22a657 657 0 0 1-16.29-.37c-10.62-.72-25.81.61-35.78-.68"/><path fill="#1c5ca6" d="M1327.54 785.5c-6.42-.94-38.84 0-42.12-1.82 8.02-1.5 28.48-.78 37.6-.74 2.92-.06 5.78-.46 8.27.82-1.74 1.29-1.64 1.24-3.75 1.74M569.4 785.9c-5.09.02-39.7.37-42.91-.61 9.14-.85 17.37-.17 25.39-.85-1.88-.06-1.68-.09-4-.42-7.88-1.1-18.13.01-26.37-.5-.6-.04-.61 1.45-3.95 1.84l-.69-.9q1.66-1.17 3.36-2.3c-18.52 1.56-31.98.17-50.05-.75-12.93-.65-18.48 9.85-35.76 2.13 1.94-1.68 3.88.6 7.87-.81-2.66-3.44-46.4.34-52.96.05-10.35-.46-24.9-.09-35.05-1.97 5.46-.9 25.97-.53 32.52-.6q44.67-.44 89.34.04c13.14 0 31.58.87 44-.7v-.4l-13.9-.27-.23-.74c-2.38.75 110.07 1.82 116.81 2.34 6.3-4.09 128.3-4.14 135.1.12 9.09-1.16 48.37-1.3 57.22-.07 12.69 1.97 25.84.69 38.67 1.28 2.32.11 5.65-.74 7.27-.35l-.17.53 4.21 1.34.5 1.25c-2.1 1.17-47.27 5.1-51.71 3.85-15.82-4.43-43.12.36-56.67-3.42q6.24-.4 12.5-.72l-.11-.55c-4.73-.96-18.08-2.45-22.66-1.92 2.57.55 6.19 1.2 8.6 1.99-8.77 5.08-50.99.24-53.34 2.55 4.63 2.94 12-1.18 15.08 1.62-1.87.81-18.65 1.34-21.35.45-.72-.23-2.99-1.74-3.77-2.28-11.82-.1-23.17-.02-34.98.65-6.1.34-14.51-2.6-20.83-2.24-9.01.78-18.19 5.76-27.66 3.55 4.12-.9 6.31-1.13 10.53-1.46-7.37-.82-11.61-.84-19.06-.73 1.15.81 3.55 1.47 5 1.94l-.2.56c-8.53.21-29.45 2.13-35.58-2.52"/><path fill="#124093" d="M622.82 780.48c6.3-4.09 128.3-4.14 135.1.12-7.47.9-20.87.55-28.82.56l-50.78-.01c-9.42 0-48.65.77-55.5-.67"/><path fill="#2166b8" d="M569.4 785.9c5.54-.4 25.75-1.23 30.8.02 1.14.81 3.54 1.47 4.98 1.94l-.2.56c-8.52.21-29.44 2.13-35.57-2.52"/><path fill="#48afe6" d="M659.3 662.36c5.17 5.25 9.88 12.76 11.25 20.07a24.4 24.4 0 0 1-4.15 18.85c-13.7 19.35-44.9 15.12-48.6-8.83-2.4-15.54 14.28-40.59 23.34-52.77l2.08.07c5.32 2.54 15.35 17.4 16.08 22.6"/><path fill="#fafcfc" d="M659.3 662.36c5.17 5.25 9.88 12.76 11.25 20.07a24.4 24.4 0 0 1-4.15 18.85c-13.7 19.35-44.9 15.12-48.6-8.83-2.4-15.54 14.28-40.59 23.34-52.77l2.08.07-.2.81c-4.7 18.76-31.8 37.57-20.04 58.27a22.4 22.4 0 0 0 14.2 10.6c6.77 1.61 13.9.42 19.78-3.3 6.4-4.09 8.61-8.69 10.42-15.6 2.85-10.93-8.7-21.27-8.08-28.17"/><path fill="#fafcfc" d="m632.1 671.7 1.34 1.07c1 2.46-2.58 18.44-4.56 20.17-6.83-6.45-1.12-15.34 3.23-21.24M1022.08 642.63c2.93-.2 5.8-.77 8.2.85 1.79 2.5 1.76 1.64 1.58 4.1-2.11 2.27-5.22 2.33-8.45 2.77l.35 1.08c3.21 2.07 4.49 2.7 7.3.24 1.26 5.54 1.2 43.16.28 48.92-1.83 1.95-.9 1.38-3.65 2.05-2.92-.62-3.66-1.43-5.84-3.35l-.7-.62c-5.14 1.45-10.05 2.28-14.86 3.77-9.84-.73-17.12-4.33-20.08-14.48-1.78-6.2-1-12.87 2.17-18.5 7.68-13.41 21.64-12.63 33.43-5.33z"/><path fill="#124093" d="M1004.7 667.56a13.82 13.82 0 1 1 8.16 26.42 13.82 13.82 0 0 1-8.16-26.42"/><path fill="#fafcfc" d="M761.14 659.18c30.8-1.72 25.1 17.32 25.02 41.92 0 .96-1.86 1.54-2.66 1.87-3.12-.4-3.81-.92-6.35-2.6l-.74-.5c-12.44.18-12.28 7.33-26.45-1.74-12.38-18.42 11.19-21.46 23.08-22.6 1.68-.17 2.14-1.3 2.7-2.63-5.47-13.99-18.95.69-26.41-4.71-.66-6.95 6.75-7.87 11.8-9.01"/><path fill="#124093" d="m771.2 683.02 3.39.16c2.34 1.7 1.74.75 2.27 3.56-1.77 6.71-6.46 8.83-12.83 9.42-4.49-1.69-8.18-3.37-6.86-8.66 4.97-4.9 7.02-4.2 14.04-4.48"/><path fill="#fafcfc" d="M800.43 659.04c8.94.03 4.79-.18 10.4 3.65-.04-.03 12.54-4.95 18.38-3.45 5.96 1.53 8.36 2.55 12.6 8.02 3.83 4.95 2.12 5.69 1.26 11.14l2.65 1.39c4.13 13.6-14.67 27.65-25.08 21.8-1.41-1.9-1.47-1.35-1.47-3.25 12.45-6.28 15.52-4.6 16.95-19.35-3.05-14.55-19.52-17.13-25.96-3.83-3.49 7.2 1.4 12.01 4.01 18.4-1.61.97-2.56 1.33-4.3 2.04-1.5 5.24 1.29 13.61-1.08 20.64-2.64 1.7-1.45 1.36-4.5 1.42-1.4-.79-3.1-1.52-3.54-3.14-1.89-6.95-1.58-50.7-.32-55.48M1158.07 642.44c3.72-.27 5.15-.5 8.8.35 1.98 2.73 1.12 31.49 1.09 36.6 7.19-6.4 14.2-13.48 21.07-20.24l11.67-.07c-4.72 4.96-16.83 14.16-17.63 17.16 1.11 3.51 8.48 11.26 11.42 14.8l8.55 10.9h-12.65l-14.37-18.83c-2.1 1.46-5.7 4.64-7.8 6.38l.03 1.56c.08 4.24.84 8.04-1.93 10.9-2.93.15-4.55.41-7.4-.53-1.51-5.47-.91-50.03-.85-58.98M1101.89 659.17c5.94-.3 6.84-1.5 9.9 3.61 3.05.33 6.06-3.14 9.07-3.67 10.73-1.87 20.8 1.83 23.13 13.37.93 4.6 1.9 25.34-.3 28.85-3.26 1.5-5.2 1.1-7.95-.9-1.68-4.48-.18-19.18-1.34-26.98-7.5-11.81-17.23-6.67-22.78 3.2-.06 7.71 3.37 20.47-2.94 25.17-2.78.4-3.45.69-6.03-.34-1.77-4.82-1.09-18.26.1-23.43.02-.1 2.99-.9 4.07-2.73-1.9-2.36-.56.72-4.63-.75-1.02-3.37-.42-11.49-.3-15.4M926.93 659.17c10.16-.56 18.05.8 24.73 9.38 1.84 2.38 2.94 4.45 2.54 7.58-1.84 2.24-.9 1.59-3.5 2.63-6.32-1.27-11.19-13.4-19.77-12.36-5.95.71-12.72 7.48-12.33 13.61.85 13.37 7.98 15.46 19.65 13.86 4.18-3.34 9.5-8.72 15.03-6.24 2.07 12.15-21.05 18.05-32.07 12.93a21.4 21.4 0 0 1-11.3-12.8 21.4 21.4 0 0 1 1.15-16.44c3.54-6.97 8.82-9.75 15.87-12.15M698.62 645.88c9.45-.14 40.54-1.25 47.69.76 1.32 1.88.87 3.5.71 5.89-3.47 2.97-14.08 1.92-19.11 1.85l-.03 29.4c.15 5.05 1.55 14.53-2.02 18.03-2.9-.01-5.3.35-7.64-1.18-1.41-4.76-.7-38.75-.66-46.31-6.24-.3-13.72 1.7-17.97-1.4-1.55-2.28-1.1-4.18-.97-7.04M881.4 650.38c2.84-.17 5-.64 7.4.7 1.8 3.12 1.23 2.62 1.26 6.63 2.45 3.82 8.85.18 12.55 3.24.04 3.67.48 2.61-1.04 5.3-2.8 1.57-7.6.98-11.04.88.03 6.17-.97 22.17 2.29 26.12 4 1.32 9.64 1.75 12.44 4-.4 2.19-.39 2.07-1.81 3.82-3.63 1.52-10.13 2.38-13.83 1.1-12.71-4.38-6.02-27.7-9.53-34.71-1.79-.3-3.21-.57-4.97-1-1.48-2.68-1.07-1.58-.94-5.21 1.9-1.9 2.56-1.39 5.74-1.75 1.78-2 1.33-5.9 1.48-9.12M1045.49 659.14c10.82.01 5.67 2.33 11.67 3.32 4.24-2.25 7.97-4.18 12.52-1.87l.54 2.05c-3.8 12.11-13.76.45-15.15 17.16l-.08.97c-.44 6.94 2.28 15.46-2.29 20.33-2.8 1.03-3.2.96-6.17.52-2.56-3.56-1.25-36.01-1.04-42.48"/><path fill="#1c5ca6" d="M1347.52 780.5c21.72-.78 42.26.57 63.81-2.6 3.32-.48 11.44-.1 14.95.16q-8.18.86-16.38 1.53c8.31.83 24.34.27 33.19.34q36.02.56 72.03.39c4.64 0 23.89-.66 26.96.24l.45.98c-8.85.67-24.85.2-34.27.24l-75.38.43c-18.83-.03-38.28-1.6-56.79.56-4.93.58-6.53-1.83-10.95-.8 2.46 1.66 5.75 2.22 8.66 2.93l.13.98c-14.92 1.25-27.93-.8-45.42 1.3 2.63-2.07 6.33-2.85 10.03-5.46 1.35.1 7.26-.94 8.98-1.22"/><path fill="#fafcfc" d="M1081.03 659.17c2.4-.06 5.54-.44 7.16 1.24 1.08 10.9.13 26.94.13 38.22 0 2.33-.25 2.26-1.6 3.38-1.44.02-7.5.22-7.84-1.1-3.23-12.7.24-29.26 2.15-41.74M1080.89 640.08a6.29 6.29 0 1 1 4.45 11.77 6.29 6.29 0 0 1-4.45-11.77"/><path fill="#48afe6" d="M1692.86 568.43c2.02.03 2.98 1.11 4.12 2.58 1.7 7.1-1.5 8.41-7.13 9.8-8.7-5.56-5.79-10.46 3.01-12.38"/></svg>