<svg xmlns="http://www.w3.org/2000/svg" width="1792" height="1024" viewBox="0 0 1792 1024"><defs><linearGradient id="a" x1="672.3" x2="673.7" y1="643.1" y2="30.4" gradientUnits="userSpaceOnUse"><stop offset="0" stop-color="#2c90b2"/><stop offset="1" stop-color="#48dad9"/></linearGradient></defs><path fill="url(#a)" d="M149 636.6c-12.6-5-25.7-9.3-37.6-15.6a186 186 0 0 1-84-88.8q-11-25.4-14-53c-2-17.4-1.5-39.1-1.5-56.8V259.2c0-25.2-.5-49.5 3.5-74.6 9.3-60 54.9-113.3 109.3-138.3 41-18.3 97.9-16 143-16l97.6.1h624.5l99.3-.1c43.5 0 84.8-2.7 126 13.8 44.2 17.6 85.3 55.2 104.1 99q10.5 23.8 13.8 49.8c2.4 21 1.8 42.6 1.8 63.8l-.1 79v84c0 19.2.6 41-1.3 59.8a177 177 0 0 1-11.8 47.7 184 184 0 0 1-98.6 100.5c-7.6 3.2-20 6.4-26.6 9.6-44.6 29.6-96.4 27-147.4 27H295.1c-55.6 0-96.6 2.7-146.1-27.7" transform="scale(1.33333)"/><path fill="#081827" d="M198.6 848.8c14.7 2 30.2 6 44.6 7.3 26.9 2.3 54.6 2 81.6 2l104.4-.2h811c96.2 0 192.5.4 288.7-.2q17.3 0 34.2-2.8c9-1.3 23.7-5 32.1-5.2-59.4 39.5-128.5 36.1-196.5 36H393.5c-74.2 0-128.8 3.6-194.9-37"/><path fill="#73eef3" d="m274.5 95.8 1.5-.1c32.4-.7 65-.4 97.3-.4H550l538-.1h305.4l86.4.1c19.9 0 44.4-.6 63.7 2.2 42 6 81.2 24.6 112.5 53.2 41.3 38.1 64.3 87.9 66 144 2 61 1 122.6 1.1 183.6l.3 76.4c0 26.7.3 56.9-5.8 82.9a209.6 209.6 0 0 1-197.9 159l-4.1.3c-23.5 1.6-60.2.5-84.5.5h-1102c-25.7 0-52 .8-77.4-2.7-41-5.7-79.3-23.4-110.4-50.7-69.6-61.5-70.4-127-70.2-212.5l1.3-114c.8-54.9-3.4-118.7 8-172.4 5.5-25.5 25.7-59.7 43.4-78.8 43.8-47 87.7-67 150.7-70.5"/><defs><linearGradient id="b" x1="674.8" x2="670.3" y1="595.9" y2="72.1" gradientUnits="userSpaceOnUse"><stop offset="0" stop-color="#0a1d38"/><stop offset="1" stop-color="#1c428b"/></linearGradient></defs><path fill="url(#b)" d="M1071 75.5c13.3-.5 26.4-.1 39.6-.4 32.3-.6 61 .9 90.7 15 49 23.1 83.4 71.7 86 126.2.6 10.9.3 22.8.3 33.8.9 5.8.9 13.5.7 19.5 1.2 13.4 0 31 .2 44.8.1 7-1.2 12.8 0 20 1 15.8-1.1 33.5-.1 49.6v7.8l-.6 34.8c0 4.7.2 13.2-.2 17.4v3.5c2.6 62.5-51.3 125.4-109.9 140.2-7.3 1.9-16.3 4.2-23.8 4.5h-1.7c-12.5 1.9-39.3 1.3-52.4 1.3H854.1c-24 0-54.5.9-78-.2-5.3.6-17.6.2-23.6.2h-48c-54.7 0-112.4-.8-166.9.2q-7.8.1-15.8 0c-21-.7-43.6 0-64.8-.2-6.1.6-23 .6-29.1 0-12 .7-27.2 0-39.4 0h-76.6l-62.3.1c-23.7.1-51 1-73.8-4.4-26.5-6-51-19.1-70.9-37.8-24-22.5-44.5-59-45.7-92.3-.8-5.3-.8-8-.9-13.3-1-5.3-.6-25-.6-31.3v-142c0-11.1-.6-33.2.6-43.7v-5.3c.5-39.4 16.8-77 45.1-104.4 24-23.4 62.7-43.4 96.6-43 7.2-1.2 23.9-.8 31.8-.8h731.3c17.8 0 43.1-.8 60.2.2h.3c13.5-.4 34.1-.7 47.5 0" transform="scale(1.33333)"/><path fill="#47d9d8" d="M1512.1 154.6c3.7-4.9 2.4-14.7 6.7-18.3 5.2-1.6 10.1 1.9 15 4.4 3.6 2.7 4.8 2.9 9 4.2l-.2 1c16.4 13.6 34.4 28 47.4 44.8 6 7.8 12 18 17.5 26.4 0 25.3 3.1 47-4.9 71.4q3.1 1.3 4 4.6c0 5.8.3 8.4 3.5 13.5 25 40.5 36.4 89.6 17 134.8a18 18 0 0 1-4.4 6.9c-4.6 9-8 14.2-14.4 22.1-11 28-54 54.8-81.8 62.2a4.4 4.4 0 0 1-7.3 1.1c-55 8.1-132.7-18.7-140.5-81-.7-5.6-3-29.8-6.5-31.5-.3-5.8 1.6-21.1-2.4-26.5 1.6-8.8 6.1-19.3 9.8-27.4 25.4-56.6 76.8-88 108.4-141.1 18.2-30.7 14-41.1 24.1-71.6"/><path fill="#081827" d="M1573.5 373.2a34 34 0 0 1 21 19.9c8.8 23.9 8.8 68.4-19.4 79-28.1-22.6-30.4-76-1.6-98.9"/><path fill="#fefcfe" d="M1574 408.2a6.5 6.5 0 1 1 3.9 12.4 6.5 6.5 0 0 1-3.9-12.4"/><path fill="#fefcfe" d="M1573.5 373.2c.8-2.3 3.4-4.4 5.6-5.3 18.1-7.6 35.6 8.9 42.2 24 8.8 20 5.4 36.6 1.4 56.4-4.6 9-8 14.2-14.4 22.1-12 6.5-21 10.6-33.2 1.7 28.2-10.6 28.2-55.1 19.4-79-3.8-10-11.3-16-21-19.9"/><path fill="#73eef3" d="M1606.6 293a6.9 6.9 0 1 1-13.2 3.7 6.9 6.9 0 0 1 13.2-3.6M1519.2 533.7a4.3 4.3 0 0 1 5.6-6.5 4.4 4.4 0 1 1-5.6 6.5"/><path fill="#081827" d="M1467.8 373.4c9.4-11.1 24.8-8.1 34.8.4a56 56 0 0 1 17.8 39.3c2.5 23.6-7.2 59.2-34.1 63.9a25 25 0 0 1-15.6-4.7c-3-.3-9.8-6.2-11.6-8.7-18-25-15.7-70.7 8.7-90.2"/><path fill="#fefcfe" d="M1467.8 373.4c9.4-11.1 24.8-8.1 34.8.4a56 56 0 0 1 17.8 39.3c2.5 23.6-7.2 59.2-34.1 63.9a25 25 0 0 1-15.6-4.7l1.9-.8c26.2-13.5 28-70.8 8.7-91a28 28 0 0 0-13.5-7"/><path fill="#fefcfe" d="M1468.4 408.3a6.4 6.4 0 1 1 4.3 12 6.4 6.4 0 0 1-4.3-12"/><path fill="#081827" d="M1512.6 511c-6-5-20.5-18.5-12.8-26.7 3-1.1 15.4-1.4 19.3-1.5 8.5-.1 28.7-8.4 34.3-5.9 1.6 3.3 1.3 7.8 1.4 11.5-4.8 16.1-26.1 36.2-42.2 22.7"/><path fill="#23b6a2" d="M1554.8 488.4c-4.8 16.1-26.1 36.2-42.2 22.7 13.7-18 20.1-21.7 42.2-22.7"/><path fill="#73eef3" d="M1506.5 203.7c1 3.8-2.2 12.4-4 16.1-23.2 46.8-65.9 79.1-97 120.2-12.7 16.8-17.4 35.8-27.6 52.7l-.5.8c-1.5-3.8 3.5-14 5.1-18 18.9-47 56.9-78 88-116.4 13.8-16.9 24.6-36.4 36-55.4M1426.6 346.3l1.6 1q1.4 3.7-.4 7.4c-8.6 19.1-16.7 36.3-20.5 57.2-1.2 6.8-3 9-8.9 12.4-12.1-21.3 13-62.8 28.2-78M1527.7 195.3c18.4 6-.6 24.6-7.4 31.6-1.4 1.4-1.8 1.6-3.4 2.5l-1-1.2c-.2-7.5 8.2-25.9 11.8-33"/><path fill="#081827" d="M1587.9 341.6c14.2-.6 17.7 4.2 24.7 15.3a81 81 0 0 0-18.4-7c-11.2.5-16.5 2.5-27.1 5.9 6.7-9.2 10-11.8 20.8-14.2M1467.7 342.3c7.3-.4 23.4.2 25.7 9.3l-1.3 1.2c-3.4.8-7.9-1-11.4-2.1-6.2-1.3-20.6 2.5-28.2 3.7 5.6-6.6 7.5-8.3 15.2-12"/><path fill="#fefcfe" d="M1396.9 433.7a8.6 8.6 0 1 1 3 16.9 8.6 8.6 0 0 1-3-16.9"/><path fill="#73eef3" d="M1570.2 251.7a5.4 5.4 0 1 1 4.7 9.7 5.4 5.4 0 0 1-4.7-9.7M1513.7 284q2-1.3 4.2-.5 2 1.2 2.5 3.4 0 2.4-1.8 3.9a4.2 4.2 0 0 1-5-6.7M1408.8 464.3a4 4 0 1 1 4.6 6.4 4 4 0 0 1-4.6-6.4"/><path fill="#0dbdd8" d="M1607.5 217c42.9 55.3 105.5 158 106 228.3a162 162 0 0 1-44 114.6 181 181 0 0 1-129 55.2 167 167 0 0 1-119.3-48.7 189 189 0 0 1-27.1-32.7c-4.5-7-8.8-15.7-13.2-22.2-4.6 4.7-10.8 11.7-15.4 16-16.9 10-14.3 6.5-29.4 11.9-8-1.1-20.4 0-23-9.3 1.3-7.1 13.6-10.8 19.9-11.6l1.8-1.2 4.2-3.2c3.1-1.9 8-5.8 11-8 7.7-6.4 9-9.4 13.9-17.9 4.1-1 6.3-5.9 8.4-9.4-2.8-25.8-2.5-32-.1-57.6 3.4 1.7 5.8 26 6.5 31.5 7.8 62.3 85.5 89.1 140.5 81a4.3 4.3 0 0 0 7.3-1c27.8-7.5 70.8-34.4 81.8-62.3 6.4-8 9.8-13 14.4-22.1a18 18 0 0 0 4.3-6.9c19.5-45.2 8.1-94.3-17-134.8a20 20 0 0 1-3.4-13.5q-.9-3.3-4-4.6c8-24.4 5-46 5-71.4"/><path fill="#73eef3" d="M1699 461c7.6 8-5.8 48.8-10.2 58.4a159 159 0 0 1-86.4 80.5 155 155 0 0 1-121.5-3.9c-13-7.4-16-22.2 3.5-20.9 23 1.6 40.9 7.3 64.5 6a152 152 0 0 0 119.5-71.3c10.9-17.2 16.5-33 30.6-48.7"/><path fill="#47d9d8" d="M1651 471.4a9.2 9.2 0 1 1 6.1 17.2 9.2 9.2 0 0 1-6.2-17.2M1681.6 437a6.8 6.8 0 1 1 3.3 13.2 6.8 6.8 0 0 1-3.3-13.1M1669.9 369a4.7 4.7 0 1 1 3 8.9 4.7 4.7 0 0 1-3-9"/><path fill="#73eef3" d="M1656.7 505.4c1.6-.6 3.4-.2 4.6.9a4.6 4.6 0 1 1-4.6-.9"/><path fill="#47d9d8" d="M1597.8 508.1q2.3-1.2 4.5 0a4.4 4.4 0 1 1-4.5 0"/><path fill="#40accd" d="M1718 445.9c1.3 21-1.5 44.6-.2 66 .2 2.8.2 7.7 0 10.5-20.4 8.8-30.3 35-45.2 51-.3.3-.7 3-.8 3.5-1.5 1.1-1.4 1-3.2 1.5l-1.6 1.6c.2.4 23.8 6 18.8 19.4-10.9 29.1-89.6 28.3-109.9 28-7.2-1.2-24.2-.7-32.1-.6-2.7-2.2-41.2-3.8-49.7-5.4-23.4-4.4-43.1-13.4-66-20l.7-1c-2.2-6-17.7-10.4-23.6-12.5l-3.6-1.4c-2.9-1.2-4.4-2.3-5.6-5.3-.2-3.7.5-4.5 2.2-7.7-1.8-2-8.4-11.4-10.4-14.1a820 820 0 0 1-22.3-32c4.6-4.2 10.8-11.2 15.4-16 4.4 6.6 8.7 15.4 13.2 22.3a189 189 0 0 0 27.1 32.7 167 167 0 0 0 119.2 48.7c48.7-.3 95.2-20.2 129.1-55.2a162 162 0 0 0 44-114.6c.1 2.8-.2 9.2 1.3 11l1.2-.3c-.2-2.7 1.4-6.3 2-10.1"/><path fill="#0dbdd8" d="M1398.2 573.5c12.4-.5 12.8 5.1 7 14.4l-3.6-1.4c-2.9-1.2-4.4-2.3-5.6-5.3-.2-3.7.5-4.5 2.2-7.7"/><path fill="#fefcfe" d="M1674.7 588.4c19.6 12.5-22 26.3-29.2 28.7l-2.8-.2-.3-1c10.6-10.6 23.4-2.3 32.3-27.5"/><path fill="#245889" d="m1644.6 596.6 1.7 1.2-.6 1.6c-9.4 9-27.5 15.7-39.9 19l-1-.5-.3-1.1c4.5-4 28.6-11 40-20.2M1350 506c2.4-37.4-7.9-71 3.8-107.5 1.4-4.2 1.5-9.7 3.4-13.8.8-1.9 4.3-1.9 5.7-3.3 2-6-1.5-12.7 1.6-18.7.7 0 2.3 0 2.7-.5 3.2-5 5.5-11 8.6-16.4 9-15.7 20.4-30.6 31.6-44.8 3.4-4.3 9.8-9 13.8-13.3 27.2-28.9 56.2-55.6 71.5-93.1.8-2 1.6-7.3 2-9.5 2.6-14.1 4-23.2 17.4-30.5-10.2 30.5-5.9 40.9-24.1 71.6-31.6 53-83 84.5-108.4 141-3.7 8.2-8.2 18.7-9.8 27.5 4 5.4 2 20.7 2.4 26.5-2.4 25.7-2.7 31.8.1 57.6-2 3.5-4.3 8.5-8.4 9.4-4.8 8.5-6.2 11.5-13.9 17.8"/><path fill="#73eef3" d="M1369.8 394.7c4 5.4 2 20.7 2.4 26.5-2.4 25.7-2.7 31.8.1 57.6-2 3.5-4.3 8.5-8.4 9.4.5-8.4-.7-24.6-.8-33.8-.2-22.5 1.9-37.9 6.7-59.7"/><path fill="#4bace0" d="M1277.4 523.2c0-5.5-1-14.2.2-18.6 1-1.1 2.3-2.5 4-2.2 20 2.7 33.6.5 52.9-5.4-1 6.8-2.7 14.8-1.5 21.5-6.3.8-18.6 4.5-20 11.6 2.7 9.2 15 8.2 23.1 9.3a148 148 0 0 1-7 40.5c-18.3 7.7-61.8 13.7-62.4-15.8l2.9-1.1 4.3-3.8 1.9-1.7c-2-3.1-3.7-4.7-3.7-7.8 2.4-1.5 3.5-3.5 5-5.8.4-3 .2-5 0-8l1.6-1.2c-.2-4.4-.6-7.1-1.3-11.5"/><path fill="#fefcfe" d="M1273.9 559.2c.2 4-.2 8.8 1.6 12.1 7.6 6.8 39.8 8.4 48.5 1 3-2.5 1.5-12.8 5.7-15 3.3 8.4-2 19-10.5 21.8-12.8 4-29.9 3.1-42.4-1.7-7.4-2.8-7.3-7.6-7.2-14.4z"/><path fill="#fefcfe" d="m1277.1 544 2.1-.8c.7 7.2 2 16.7 0 23.6l-.8.4a17 17 0 0 1-2.6-9.7c-2-3.1-3.7-4.7-3.7-7.8 2.4-1.5 3.5-3.5 5-5.8"/><path fill="#e5f5fc" d="M1278.7 534.7c.3 2.6.7 6 .5 8.5l-2 .7c.3-3 .1-5 0-8z"/><path fill="#fefcfe" d="m1330.9 538.7 1.3 1.8a31 31 0 0 1-2 15.2c-3.1-4.6-1.4-12.1.7-17"/><path fill="#204272" d="M266.7 101.4c9.5-1.5 31.8-1 42.4-1h975.1c23.7 0 57.4-1 80.2.3-8.5 4.8-140.7-1.4-162.6 2.9-7 1.4-40.2-2.5-49.8-1.5-18.6 2.1-39-1-57.2.7-18.9 1.8-28.8.4-47-.4-18.8-.8-38.3 1.3-58.2-.5-24.1-2.2-53.2 4.3-77.6 3.4-.2 0-2.3 2.2-2.6 2.6-7 .6-22.2 3-27.4 0-13.4-7.9-24.3-3.9-39-4-9.7-.2-16.6 8.6-26.7.8q-10.8.4-21.8-.7c-1.9-.2-2.3 4.5-4.1 0l-.8.7c-3.9 2.8-6 4-11 3.6-3.8-2.6-3.1-4.3-6.4-5.3l-.5 1.6c-3.7.9-12.1-1.6-16.6-1.7-22-.4-45.3-1.2-67.3 1.9-5.3.7-11.1-2-16.4-1.6-9 .6-10.1 3.9-19.8 1.9-12.4-2.7-31.7-1.8-44.9-2.1-4.6.8-8.1 3.7-13.1 3.4-2.5-.2-7-3.8-8.2-2.6-8.1 7.8-23.1 3-33.6 4-1 .2-5.7-3.4-6.7-4-9-1-8.5 5.1-20.4 4.5l-69.6-2.9c-10-.4-18.4-2.7-28.5-1-6 1-10.3 1.2-15.4-1.8a973 973 0 0 1-61.3.7c-12-.4-23.3-3-34.5 1.2-1.5.5-14.1-3-16.6-2.8-10.2-.5-22 1.4-32-.3"/><path fill="#fefcfe" d="M1317 456.3a86 86 0 0 1 22.8 5.8c2.7 2.6 3.5 3.1 3.6 7.5.4 14.7-3.5 30-4.4 44.5l-4.2 3.2-1.8 1.2c-1.2-6.7.4-14.7 1.5-21.5-19.3 5.9-32.9 8.1-52.9 5.4-1.7-.3-3 1-4 2.2-1.2 4.4-.1 13-.2 18.6l-1-.6c.4-4.7-2.2-20.3-8.7-19.4l-1.5-1.2q-1.8-.4-3.6-.5c-1.8-10.2-2-25-2.4-35.5l3 2.8c3.2-4.9 5-6.2 10-9 5.2-.4 11.7-1.5 17.3-1.9 6.8-.4 20.6 0 26.5-1.6"/><path fill="#3381ac" d="M1317 456.3a86 86 0 0 1 22.8 5.8c-1.2 4.3 2.1 7-1.8 9.1-12.6 6.8-66.2 7.8-74.8-2.4 3.2-4.9 5-6.2 10-9 5.2-.4 11.7-1.5 17.3-1.9 6.8-.4 20.6 0 26.5-1.6"/><path fill="#73eef3" d="M1266.1 496.7c7.3-4.9 12.4-6.7 21.1-7.7 10.2-1 42.6-3 47.3 8-19.3 5.9-32.9 8.1-52.9 5.4-1.7-.3-3 1-4 2.2-1.2 4.4-.1 13-.2 18.6l-1-.6c.4-4.7-2.2-20.3-8.7-19.4l-1.5-1.2z"/><path fill="#4bace0" d="M1339.8 462.1c2.7 2.6 3.5 3.1 3.6 7.5.4 14.7-3.5 30-4.4 44.5l-4.2 3.2c.7-12.8 3-29.6 4.4-42.7-25.6 9.5-48.3 7-74 1.5 0 6.3.6 14.3 1 20.6v5.3q-1.8-.4-3.6-.5c-1.8-10.2-2-25-2.4-35.5l3 2.8c8.6 10.2 62.2 9.2 74.8 2.4 4-2.1.6-4.8 1.8-9M1428 601.5c23 6.5 42.7 15.5 66.1 19.9 8.5 1.6 47 3.2 49.7 5.4.1 5.3 1.6 8.4 7.3 9.5 8.7 3.1 27.1-.4 33 6.6-6 13-122.3 16.5-131.4 2.4 5.1-5 31.8-2.9 37-10.4-6.4-9.6-72.5-8-68.2-28.9 1.8-2.7 3.6-3.2 6.5-4.5"/><path fill="#73eef3" d="M1542.9 144.9c31.5 8.8 93.1 91.4 110.7 121.1 5.5 9.4 8.8 22.7 18.1 31.8 6.2 13 17 37.1 21.4 50.8l4.4-1.9 1-2.2c4.1 6.4 11.1 8.5 18.2 11.9-1-7.8-.5-15.2.1-23 1.2 7.8 1.1 18 1 26 1.6 18-.2 41.4.2 59.8.2 9.2-1.6 17 0 26.7-.6 3.8-2.2 7.4-2 10l-1.2.3c-1.5-1.7-1.2-8.1-1.3-11-.5-70.3-63.1-173-106-228.1-5.5-8.5-11.5-18.6-17.5-26.4-13-16.7-31-31.2-47.4-44.8z"/><path fill="#4bace0" d="M1716.8 333.4c1.2 7.8 1.1 18 1 26 1.6 18-.2 41.4.2 59.8.2 9.2-1.6 17 0 26.7-.6 3.8-2.2 7.4-2 10-2.8-5.8-1.3-41.2-3.3-50.3-4.6-19.7-13.3-37.6-19.6-57l4.4-1.9 1-2.2c4.1 6.4 11.1 8.5 18.2 11.9-1-7.8-.5-15.2.1-23"/><path fill="#3381ac" d="M1716.8 333.4c1.2 7.8 1.1 18 1 26-.9 8.4-.5 18.9-.5 27.4l-.5-.4c1.5-11.6-3.4-18.5-3.1-29.7-7.2-3.4-10.7-4.2-16.2-10l1-2.2c4.1 6.4 11.1 8.5 18.2 11.9-1-7.8-.5-15.2.1-23"/><path fill="#204272" d="M900 779.6c12 .7 23.8-1.9 35.7-2q88.5-.6 177.2-.2c9.9 0 20 2 29.7 2 42.9.5 85.8 3.5 128.5-1.7 4-.4 16-1 19.2 0l-1.5 2c3.3 2.3 25.4 1 30.2.2l1.2-.3c6 5.3 7.2 1.6 9.7 4.7v1.3c-23.9 1.2-337 .7-338 .1l2.6-2-.1-1c-3.6-.3-5.7 1.8-9.7 3.2l-.7.3c-23.7 3.5-64.3-1-89.1-3.8q2.4-1.8 5.2-2.8"/><path fill="#081827" d="M776 777.2c7-.1 38.8-.8 44.1.8 10.3-.1 73.8-1.8 78.6.2l1.4 1.4c-2 .9-3.6 1.5-5.2 2.8 24.8 2.8 65.4 7.3 89.1 3.8 11.3 5.7 48.7 2.3 50.8 5-7 .6-23.5.2-31.4.2l-64-.1c-73 0-150-1-222.6.2l.2-3.6c-2.8 0-9.7.2-11.7-1.2 4.2-1.2 9.6-1 14-1 6.2-.6 28.8 1.8 32.1-2.2-1.7-2-4.1-2.2-6.8-3 2 0 5-.3 7 .2 4.2-.3 5.6-.2 9.5-1.7l-.7-.1c5.8-2.2 9.5-1.8 15.7-1.7"/><path fill="#204272" d="M776 777.2c7-.1 38.8-.8 44.1.8 10.3-.1 73.8-1.8 78.6.2l1.4 1.4c-2 .9-3.6 1.5-5.2 2.8-10 .2-21.8-1.6-31.3-.9l-.6 1.4-.6-.8 1.8 2.1c-6 2.7-43.5 3.7-51.6 3.7a269 269 0 0 0-46.6-1v-3.6l-1-1-3.6.3-9.8-2c4.2-.2 5.6-.1 9.5-1.6l-.7-.1c5.8-2.2 9.5-1.8 15.7-1.7"/><path fill="#081827" d="M776 777.2c7-.1 38.8-.8 44.1.8-4.5 3.7-38.8 2.5-44-.8M761.4 782.6l3.6-.4 1 1.1v3.6c-3-.5-5-.5-8-.5 2-1.5 2.2-1.7 3.4-3.8"/><path fill="#204272" d="m521.1 783.6-1.8 1.1-1.6-.5.5-.8-.2-.3c-7.4-1-12.2-.5-19.6-.7-11.1-.3-22.9-1.6-34-.5-5.5.5-12.6 4.7-18.5 4.5-2.3 0-8.3-1.4-10-3.2l4.4-1.2c-9.4-3-57 1.7-69.8 0-3.8-.5-8.9.2-13.2-1.3 2.6-2.6 144.2.8 159.7-1.6l8.4-.3 90.2 1.3c12.8.2 25.5 1.3 38.4 1.1 26.2-.2 52.3-1 78.6-.4q6 .3 12-.2c2.7.7 5.1.9 6.8 3-3.3 3.9-25.9 1.5-32 2.2-4.5 0-9.9-.3-14 .9 1.9 1.4 8.8 1.1 11.6 1.2l-.2 3.6q-10.6.5-21 0c-28-.8-58.2 0-86.4-.2-8.2.8-30.8.9-39 0 2.1-.2 3.7-.4 5.8-.8l-.8-.2.5-.8c-4.8-4.7-46-5.7-54.8-6"/><path fill="#081827" d="M609.4 791.3c-2.3-1.4-5.2-2.7-6.2-5 4.5-.2 10.2.9 14.3.5a192 192 0 0 1 41.3-.8c8.8 1 28-2.4 35.5 1.4 1.6 2.1 1.1 1.2 1.4 4.1-27.8-.8-58 0-86.3-.2"/><path fill="#0dbdd8" d="M1262.6 501.5q1.8.1 3.6.5l1.5 1.2c6.5-.9 9 14.7 8.6 19.4l1 .6c.8 4.4 1.2 7 1.4 11.5l-1.6 1.2c.2 3 .4 5 0 8-1.5 2.3-2.6 4.3-5 5.8-4.3-2.7-6.3-2.6-11.2-1.4-14-3.8-15.6-11.1-5.5-21-13.1-13.1-14.5-23.5 7.2-25.8"/><path fill="#fefcfe" d="M1277.4 523.2c.7 4.4 1 7 1.3 11.5l-1.6 1.2-5.7-7.2 5-6.1z"/><path fill="#0dbdd8" d="M1533.9 140.7c25 1.8 52.4 32.3 67.8 50.1a738 738 0 0 1 28.5 35c6.7 8.6 16.5 23.2 24 29.7 8.2.1 13.9-.1 20.6 5.6 4.7 4 4.8 14.2 2.6 19.3l-9.4 6.4c1 3.1 2.9 7.8 3.7 11-9.3-9-12.6-22.4-18.1-31.8-17.6-29.7-79.2-112.3-110.7-121.1-4.3-1.3-5.5-1.5-9-4.2"/><path fill="#245889" d="M77.8 594.4c-1.4-7.1-.9-33.3-.9-41.7V363.3c0-14.8-.8-44.2.9-58.2 2.6 34.3-1.3 72.5.4 107.1.3 5.6-.7 18.2.2 22.6l2 1c.7 3.8.6 8.8 1.6 12.1 1.7-40.3-1.2-83.8.5-124.1 1.4 49.9-1.2 103.2.6 152.3 0 11.5.7 37.4-1 47.6-2.3 3.7-2 36.3-1.6 42.4-.7 4.4-1.6 8.2-2.2 12.6-.6 4.9 0 11.2-.5 15.7"/><path fill="#204272" d="M88 452.2c1.1-2.5 1.7-7.7 2-10.5.5 25-.1 52.8.2 78 .1 12.3 1.7 68-1 76.8h-.6c-.1-6.4-2.9-39.9-4.4-44.8-1.2 1.8-1 23.7-1.2 27.8-1.3-4.7-.2-8.2-2.5-13.4-.3-6.1-.7-38.7 1.6-42.4 2.8-2.7 2.3-1.5 3-4.7 2.7-14.2-2.6-47.7 2.3-62.9.7-2 1-1 .6-3.9"/><path fill="#245889" d="M1536.3 789.6c5.1-2.9 24.3-5.7 31-7.5a210 210 0 0 0 94.6-56.9c6-6.3 27.7-32.6 28.3-40.9l-3.6 1.5-.6-1c2-4.7 5.5-16.2 9.9-18.2 1.5.8 2 1.1 3.7 1.2 5-7.2 1.8-13.1 3-15.4 12-5.6 7.7-44.8 14.1-55.7 3.6 83.3-68.3 167.1-146.4 187-9.8 2.4-21.7 5.5-31.7 5.9z"/><path fill="#3381ac" d="M1677.4 280.4c0 2.6 13.1 24.6 15.5 32 3.9 12.5 3.1 20.5 5.7 32.1l-1 2.2-4.5 2a530 530 0 0 0-21.4-51c-.8-3-2.6-7.8-3.7-11z"/><path fill="#204272" d="M1320.2 779.6c20.6-4.1 20.4.8 38.3.7l124.4-.5c11.3 0 46.7-.7 56 .7l.5.4c-14.4 1.3-33.6.7-48.3.7h-71.5c-8.6 0-43.9-.5-51 1.3l3 1.8c-1.8 3.2-37 2-41.7.9v-1.3c-2.5-3.1-3.6.6-9.7-4.7"/><path fill="#3381ac" d="M1668.6 578.4c1.8-.4 1.7-.4 3.2-1.5 0-.5.5-3.2.8-3.6 15-15.8 24.8-42.1 45.2-51q0 23.3-.7 46.5c-.1 6.3.3 17.6-.4 23.2-2.6-11 1.6-42.9-2-49.5-6.5-5.1-15.8-1.1-16 8.2-.3 9-16.6 21-22 27.5-1.6 2-5.8.5-8 .2"/><path fill="#245889" d="M88 452.2c-6.4-11.3-1.2-82.6-3-99.2-.4-3.7 0-25.5.6-29.6l-.2.8c4.9 6.6 4.7 103 4.6 117.5-.3 2.8-.9 8-2 10.5"/><path fill="#40accd" d="M1261 548.3c4.8-1.2 6.8-1.3 11.1 1.4 0 3.1 1.7 4.7 3.7 7.8l-1.9 1.7-4.3 3.8-2.9 1a23 23 0 0 1-10.6-4.6c-1.2-5.7 3-7 4.8-11"/><defs><linearGradient id="c" x1="63.3" x2="58" y1="440.7" y2="441.5" gradientUnits="userSpaceOnUse"><stop offset="0" stop-color="#274873"/><stop offset="1" stop-color="#0d2d5a"/></linearGradient></defs><path fill="url(#c)" d="M60.4 424.6c1.7 4 .8 6.5 1.9 10 .2 6.2 1.7 16.3-.4 21.3-1.3.6-1.9 2-2.7 3.2-.8-5.3-.8-8-.9-13.3.4-3.4 0-8.1.4-11.8.4-3.3 1.1-6.1 1.7-9.4" transform="scale(1.33333)"/><path fill="#245889" d="M1543.8 626.8c7.9 0 24.9-.6 32.1.6-3.9.5-8 .8-11.6 2.3h.2l-.3 1.6-.8-.3c3 1.6 9 1.8 12.5 2.2l-.3.7c-7.9 1.9-10.4.3-18.1-2l1.7.1c-3.4-1-5.8-2-9.1-1l-1.6 1.3c.7 2.7.3 1.8 2.6 4-5.7-1.1-7.2-4.2-7.3-9.5"/><path fill="#fefcfe" d="M1260.2 466c-1.6-2.7-3.4-3.2-5.7-5.4 1.1-3 6.2-6.7 8.8-8.5 3 4.2 4 5 8.8 6.3l1 .2.2 1.1c-5 2.9-6.9 4.2-10 9.1z"/><path fill="#204272" d="M1364.8 100.6c18-.5 45.5-.9 63.3 0-.2.2-1.3 1-2 1-19.8 2-39 .3-58.9.8z"/><path fill="#4bace0" d="M1273 458.6c13.7-5.4 29.7-4.1 44-2.3-5.9 1.6-19.7 1.2-26.5 1.6-5.6.4-12.1 1.5-17.2 1.8z"/><path fill="#081827" d="m83.1 476 1.3-3.3c.8 15.2 0 31.1.7 46.3-.7 3.2-.2 2-3 4.7 1.7-10.2 1-36 1-47.6"/><path fill="#4bace0" d="M642.6 639a65 65 0 0 1 17.4 23.7c11.3 14 18 31.8.7 44.5a30 30 0 0 1-22.7 5.5c-15.5-2.7-23-15.6-20-30 2.2-10.1 16.5-38.4 24.6-43.7"/><path fill="#fefcfe" d="M660 662.7c11.3 14 18 31.8.7 44.5a30 30 0 0 1-22.7 5.5c-15.5-2.7-23-15.6-20-30 2.2-10.1 16.5-38.4 24.6-43.7.7 12.3-20.3 30.2-22 45-4 34.5 46.5 33.6 47.2 2.1.2-7.3-8.7-17-7.8-23.4"/><path fill="#fefcfe" d="M632 671.8c3.2 3.7-.5 18-3.7 20.9-5.1-8.3-1.3-14 3.8-20.9M1022 642.4c3.3-.1 7-.3 9.7 1.6-.1 2.8-3.6 5.5-6 8l.5.8 4.4.4.7 1c1 8.7 1.2 38.7-.8 46.7-5 3.4-7.2-1.7-9-1.7-7.2 0-11.8 3.5-20 2.6l-1.3-.3c-19.4-6.1-20.1-31.6-2.6-40.5 8.1-4 16.5-.6 24.4 2.5z"/><path fill="#081827" d="M1004.6 667.4a13.8 13.8 0 1 1 8.5 26.4 13.8 13.8 0 0 1-8.5-26.4"/><path fill="#fefcfe" d="M760.7 659.2c15.6-.7 25 3.2 26.2 20.6.3 4.6 0 19.4-2.8 22.6-3.2.3-5.6-1.5-8.6-3-11.4 3-13.9 4.5-24.5-.4-19-20.2 19.5-20.8 23.4-26.7-1.7-13.8-19.9 2.1-24.8-5 .3-6 6.5-7 11.1-8"/><path fill="#081827" d="M764 683q1.3 0 2.6-.2c4-.3 6-.6 9.2 2.1 2.1 5.7-2.6 8.2-7 10.8-6.2.6-13.4-1.3-10.9-9 2.4-2.4 3-2.5 6.1-3.6"/><path fill="#fefcfe" d="M800.2 658.9c3 0 11.9 2.5 10.6 2.7 23.6-5 35.4-1.9 34.4 25.1-.5 11-20.9 22.2-25.9 12.6 3.3-6.5 15.6-.4 16.7-21.7-4-9.5-13.3-15.4-23.6-7.6-5.9 4.4.2 17 .5 23.5-.7.4-3.3 2.4-3.4 3.3-.6 5.2 2.8 20.2-4.4 21.2-5.4-3-5-5.9-5.1-11.5q-1-23.8.2-47.6M1158 642.3c3.4 0 6.6-.5 9.1 1.5 1.7 6.4 1.1 28.1 1 35.8 6.2-6.6 14.4-14.1 21-20.5l11.3-.1a333 333 0 0 0-17.7 17c3.4 5.3 9 11.7 13.2 16.7l7 9.2h-12.3l-14.6-19.2-7.7 6.5c.2 5.9 1.5 10.6-4.5 13.5-9-1.4-5.8-52.3-5.8-60.4M1101.9 659c6.1-.3 5 0 10 2.6 4.1.8 10.3-2.4 14.2-2.8 15.6-1.5 18.6 13.1 19 25.5.2 5.5.7 13-3.2 17.2-2.8.9-1.6 1-4.7-.3-3.5-3.6-2.4-20.3-2.5-26.3-.4-2.1-3-5.9-4.8-6.9-8.2-4.4-14.3 2.7-18 8.4l.3 5.9c.2 6 1.3 14.3-3 19-2.4 1-2.7 1-5.4.4-6.8-7.2 1.6-23.6 1.3-27.1l-2.9-.7c-1-2.3-.4-11.9-.3-15M926.8 659.1c10.4-.5 30.6 4.9 26.5 18.6-4.7 2-14.5-10.9-21.6-11-13 0-16.9 16.8-8.5 25 3.2 3.3 10.5 2.5 14.8 2.4 4-3.3 8-7.5 13.2-5.6 5 12.2-19.9 16-29.6 11.9a20 20 0 0 1-11.3-11.7c-2-5.4-1.9-11.3.5-16.6 3.5-7.6 8.7-10.2 16-13M698.1 645.8c7.5 0 44.2-1.8 48.4 2 .8 2.7.8 1.6 0 4.3-4 3.6-13 2.3-18.6 2.2v29c.2 5 1.5 14-2.3 17.6-2.4 1.2-3.1.9-5.8.3l-1.6-1.7c-1.6-12.7-.8-33-.7-45.1-5.5.2-12.8 1.3-17.3-1.7-2-2.4-1.9-3.7-2-6.9M881.3 650c10.6.1 5.1 2.4 11.2 8.1 2.4 2.3 6.4.7 10 3.7.1 2.9.4 1.7-1.3 4.2-2.6 1.5-7.3 1.1-10.5 1-.2 7-.7 15.1 0 22 .2 3.6 11.8 6.2 15.1 8.8-4.3 5-13.3 6.5-18.8 2.9-8.6-5.7-4.2-22.5-6.2-31.1-.6-2.4-3.8-3-6-4.2-1-2.6-.9-1.4-.1-4.4 2.1-1.1 2.7-1.3 5-2 1.8-2.5 1.5-5.8 1.6-9"/><path fill="#0dbdd8" d="M1652.7 191.6c5.6-.6 13.3.2 16.6 5 8.5 12.6-17 17.2-24 22.2l-.8.6c-1.5 3-3.1 7.2-6.1 8.6l-1.7-.7c-5.3-10.8 8-29.2 16-35.7"/><path fill="#73eef3" d="M1655 194.1c7.1.3 11.7 2.3 12.2 10-4-1.5-8.8-6.8-12.1-10"/><path fill="#fefcfe" d="M1045.7 658.9c6.3 0 7.9 3 11.3 3 2.8 0 4.4-2.5 10.4-2.2 2.8 1.4 2 .5 3.2 3.2-2.1 4.7-7.7 6.1-12.8 8.4-3 3.3-2.7 8.5-2.7 12.9.2 6.8 2 14.5-5.1 18-8.3-2.1-4.7-36.3-4.3-43.3M1081.2 658.8q2.5.1 5 .5c4 3.4 3.5 38.6.4 43-1.8-.1-7-.1-7.5-1.9-3.7-11.2.2-30.5 2-41.6"/><path fill="#40accd" d="M1620 183.4c3.6.3 4 .2 6.2 2.3 1.5 5-2.9 11.2-5.5 16l-2-.1c-5.7-5.2-2.3-12.7 1.3-18.2"/><path fill="#fefcfe" d="M1080.8 640.2a6.2 6.2 0 1 1 4.7 11.5 6.2 6.2 0 0 1-4.7-11.5"/><path fill="#40accd" d="M1689 568.8c3-.4 3.7-.6 6.3.7 4 4.7 1.4 7.6-2.6 11.2-4.3-.7-6.2-1.8-7.6-5.8 1-3.9 1-2.9 4-6"/></svg>